<?xml version="1.0" encoding="UTF-8"?><svg id="Color1" xmlns="http://www.w3.org/2000/svg" xmlns:xlink="http://www.w3.org/1999/xlink" viewBox="0 0 1080 1137"><defs><style>.cls-1,.cls-2,.cls-3{fill:none;}.cls-2{stroke:#064862;stroke-width:3px;}.cls-2,.cls-4,.cls-3{stroke-miterlimit:10;}.cls-5{fill:#011720;}.cls-6{fill:#03b083;}.cls-7,.cls-4{fill:#fff;}.cls-8{fill:#064862;}.cls-9{fill:#0c6b86;}.cls-10{fill:#48bcc4;}.cls-4,.cls-3{stroke:#011720;stroke-width:2px;}.cls-11{fill:url(#Degradado_sin_nombre_34);}</style><radialGradient id="Degradado_sin_nombre_34" cx="218.29" cy="721.54" fx="218.29" fy="721.54" r="143.66" gradientUnits="userSpaceOnUse"><stop offset="0" stop-color="#48bdc5"/><stop offset=".52" stop-color="#168ea3"/><stop offset=".78" stop-color="#0c6b87"/><stop offset=".99" stop-color="#0c6b87"/></radialGradient></defs><path class="cls-1" d="m69.35,707.93c-21.06,30.38-30.66,69.83-7.66,109,22.99,39.17,59.06,37.21,84.05,22.14,56.46-34.06,70.09,17.88,129.7,5.11,25.83-5.54,52.26-16.72,73.03-34.58-27.14-36.88-58.11-102.6-50.54-205.72-63-24.17-149.8-9.58-228.58,104.05Z"/><path class="cls-6" d="m554.74,285.55c-80.05,51.95-215.45,61.31-251.21,272.5-2.29,13.55-3.95,26.54-5.05,39,22.26,8.27,42.98,21.6,59.59,38.58,19.91,20.35,32.47,44.01,35.38,66.62,5.21,40.58-5.51,76.26-31.02,103.18-3.1,3.28-6.46,6.41-9.99,9.41,17.73,22.65,32.84,32.73,32.84,32.73,36.73,151.99-93.72,169.33-128.63,170.18-34.91.85-114.27-29.95-133.94-51.26-19.84-21.5-14.88-46.3-14.88-46.3,8.27-47.95,47.95-16.54,47.95-16.54,0,0-15.78,13.39-13.23,36.38s51.41-39.04,46.3-61.18c-5.11-22.14-67.76-24.24-97.56,13.23-29.8,37.47,3.31,117.4,41.34,137.25,23.05,12.03,127.07,83.15,249.69-18.19,122.63-101.34-52.39-189.11,81.3-333.02,133.7-143.91,160.09-338.07,168.61-391.72,8.52-53.65,86.86-162.65,86.86-162.65,0,0-84.3,109.85-164.35,161.8Z"/><path class="cls-7" d="m275.43,844.18c-59.61,12.77-73.23-39.17-129.7-5.11-24.99,15.07-61.05,17.03-84.05-22.14-22.99-39.17-13.4-78.62,7.66-109,78.77-113.62,165.57-128.21,228.58-104.05.17-2.26.35-4.53.55-6.83-5.67-2.11-11.44-3.9-17.27-5.32-44.52-10.86-131.94-10.69-217.29,112.42-15.39,22.2-36.88,66.8-7.93,116.12,10.59,18.04,24.47,29.35,41.24,33.61,4.77,1.21,9.69,1.81,14.67,1.81,12.43,0,25.26-3.73,37.26-10.96,28.38-17.12,43.87-10.73,63.49-2.63,16.66,6.88,35.55,14.68,64.18,8.54,29.4-6.3,55.73-18.84,75.63-35.79-1.31-1.68-2.64-3.44-3.98-5.25-20.77,17.85-47.2,29.04-73.03,34.58Z"/><path class="cls-8" d="m745.07,146.32c-17.15,16.14-53.65,49.39-47.69,114.96,5.96,65.57,27.25,149.02,36.62,187.34,9.37,38.32,8.52,112.41-24.7,114.11-33.21,1.7-17.5-36.04-12.58-41.01,4.92-4.97,18.37-12.27,20.16,2.45s-7.58-3.16-12.68,3.65c-5.11,6.81-6.81,18.73,6.81,17.88,13.63-.85,29.87-22.63,13.23-42.4-16.64-19.77-30.26-28.28-43.04-20.62-12.77,7.66-41.73,49.39-19.59,110.7,22.14,61.31,42.58,79.2,71.53,34.91,28.95-44.28,34.06-137.1,21.29-207.78-12.77-70.68-37.46-159.34-35.34-208.21.85-19.59,40.45-79.62,25.97-66Z"/><path class="cls-2" d="m628.74,949.37s9.34-35.25,45.87-25.48c36.52,9.77,19.54,51.37,0,46.92-19.54-4.45-11.04-18.89-2.55-16.77s11.89,7.22,11.89,7.22c0,0,6.79-14.01-6.37-22.08-13.17-8.07-39.07-2.12-48.84,10.19Z"/><path class="cls-10" d="m757,884.4s71.35-4.25,64.13-46.72c-7.22-42.47-13.59-68.37,39.07-76.02,52.66-7.64,47.56,46.72,36.1,63.7-11.47,16.99-38.22,30.58-48.41,12.74-10.19-17.84,9.34-32.7,16.99-25.91,7.64,6.79-2.12,18.26-7.64,15.71,0,0,17.69,11.58,25.41-5.25,7.72-16.83,12.39-44.01-16.07-44.01s-40.35,10.19-39.92,40.35c.42,30.15,14.44,67.95-69.65,65.4Z"/><path class="cls-10" d="m866.57,886.52s42.04,3.4,44.59-33.97c2.55-37.37,5.52-74.74,53.09-75.59,47.56-.85,43.53,36.76,37.26,45.77-6.26,9.01-28.77,19.2-32.59-2.88-3.82-22.08,18.26-11.89,18.26-7.64s.42,5.52-2.55,8.49c0,0,11.89-3.4,3.82-18.26-8.07-14.86-40.56-19.56-52.56,3.17-11.99,22.73-4.35,30.8-8.17,46.51-3.82,15.71-11.47,37.8-61.15,34.4Z"/><path class="cls-10" d="m700.94,934.09s35.83-36.23,58.69-21.51c22.85,14.72,55.85,18.57,70.78,9,14.93-9.57,24.7-26.56,31.49-21.03s-13.59,43.32-46.72,39.92c-33.13-3.4-42.47-8.07-52.66-15.71-10.19-7.64-40.77-7.22-61.58,9.34Z"/><path class="cls-2" d="m851.7,943.85s23.38,2.95,40.57-21.67c17.19-24.62,60.08-42.88,86.41-20.37,26.33,22.51,10.19,47.56,2.12,49.26-8.07,1.7-37.8-1.7-39.07-12.32-1.27-10.62-.42-23.78,11.04-23.78s6.23,3.37,3.75,7.21c-2.48,3.83-.78,11.48,7.72,2.14,8.49-9.34-20.48-32.72-47.19-2.14-26.71,30.59-65.35,21.67-65.35,21.67Z"/><path class="cls-2" d="m748.5,973.16s34.4-31,65.4-13.17c31,17.84,23.41,42.92,13.19,46.73-10.22,3.81-17.44-.86-17.44-2.98,0,0,6.37,6.79,12.32,0,5.95-6.79-.42-19.54-14.01-18.26-13.59,1.27-21.23,15.29-9.34,28.45,11.89,13.17,37.8,9.34,43.32-2.55,5.52-11.89,15.36-38.24-20.14-59.89-35.5-21.65-72.87,14.87-73.3,21.67Z"/><path class="cls-6" d="m743.16,325.07s24.44-.97,27.7-28.61c3.26-27.64-7.66-31.85-17.26-23.74,0,0-.7,1.39,2.05,1.43s8.12-.08,2.33,8.08-22.05.27-19.28-13.1c2.77-13.37,15.81-12.86,26.17-6.88,10.36,5.98,18.97,26.69,10.09,44.24-8.88,17.56-26.41,26.34-31.39,23.36-4.99-2.98-.4-4.8-.4-4.8Z"/><path class="cls-6" d="m752.89,334.8s4.42-6.21,17.07-3.26c12.65,2.95,28.05,11.17,23.94,29.76-4.1,18.59-23.24,9.56-24.04,4.48-.8-5.08-3.2-13.57,6.61-10.03,9.81,3.54,1.79,3.24,3.27,6.65s7.89-3.04,5.32-9.99-9.29-19.37-32.18-17.6Z"/><path class="cls-6" d="m761.99,325.64s25.83-3.39,42.94-14.19c11.62-7.33,17.39-24.06,7.58-31.49-9.82-7.43-21.11-1.19-18.29,9.88,2.82,11.07,9.46,2.76,10,.71s-1.76-7.54-5.54-6.38c0,0,4.75-5.95,9.02-1.48,4.27,4.46,3,15.73-4.29,21.49-7.28,5.76-35.28,20.04-41.41,21.47Z"/><path class="cls-9" d="m868.97,722.4s4.58-15.04-9.37-24.7c-13.94-9.65-25.55-32.36-5.11-36.62,20.44-4.26,22.14,32.36,14.48,61.31Z"/><path class="cls-9" d="m922.62,644.91s17.18-5.54,13.27-22.78,1.2-24.05,8.01-22.35c6.81,1.7,24.7,24.7-21.29,45.13Z"/><path class="cls-9" d="m972.86,736.03s7.66-.85,11.07-11.92c3.41-11.07,7.66-23.84,17.03-20.44,9.37,3.41,9.37,22.14-5.96,30.66-8.96,4.98-22.14,1.7-22.14,1.7Z"/><path class="cls-10" d="m595.62,839.07s22.99-11.92,8.52-41.73c-14.48-29.8-45.13-58.76-16.18-126.88,28.95-68.13,35.97-67.83,20.96-103.32,0,0,66.75,35.19,65.9,129.71-.85,94.52-26.4,113.26-79.2,142.21Z"/><path class="cls-10" d="m602.21,840.71s-20.4,7.15-30.23-18.7c-9.83-25.85-9.89-61.05-67.86-82.44-57.97-21.38-61.81-16.95-74.79-46.38,0,0-16.8,60.71,41.14,114.28,57.94,53.57,83.95,48.76,131.75,33.24Z"/><path class="cls-9" d="m761.03,563.1s-27.5,133.75-80.49,197.83c0,0,7.9,73.14-68.1,68.61,0,0-1.62-.35-3.91-.7-16.52-4.34-20.63-24-21.42-3.4-.55,14.19,3.11,25.58,5.8,31.93.62,2.03,1.5,3.92,2.72,5.54,7.66,10.22,51.09,27.25,86.01,5.11,34.91-22.14,113.67-89.54,79.4-304.92Z"/><path class="cls-8" d="m538.32,737.09s-11.13-37.05,20.1-84.2c31.23-47.15-18.16-116.12,67-131.45,0,0-31.62,24.62-30.71,60.42.91,35.8-6.76,64.76-21.23,79.23-14.48,14.48-40.5,57.47-35.15,76Z"/><path class="cls-8" d="m470.85,721.8s-1.35-25.06,25.54-50c26.89-24.94,6.3-75.97,62.31-72.62,0,0-23.69,10.69-28.59,33.39-4.9,22.7-14.15,39.78-25.49,46.7-11.34,6.91-34.31,30.03-33.77,42.53Z"/><path class="cls-9" d="m633.94,396.25s18.73,26.23,0,43.34c-18.73,17.12-37.47,40.96-19.59,60.55,17.88,19.59,51.95-9.37,45.13-47.69-6.81-38.32-25.55-56.2-25.55-56.2Z"/><path class="cls-9" d="m680.54,393.6c.24,1.8,3.17,15.72,0,31.33-3.17,15.61,11.22,38.34,22.38,30.93,11.16-7.41,1.32-24.02-7.66-32.36-8.98-8.34-14.71-29.9-14.71-29.9Z"/><path class="cls-8" d="m660.37,384.92s27.21-29.54,16.14-56.79c-11.07-27.25-37.28-82.2,2.65-107.09,0,0-20.53,34.71-3.5,57.7,17.03,22.99,34.14,76.12-15.29,106.18Z"/><path class="cls-7" d="m594.89,351.62s-42.26-1.66-26.3-57.28c0,0,30.68,1.58,26.3,57.28Z"/><path class="cls-7" d="m542.29,506.44s-72.01-37.64-55.75-133.95c0,0,59.48-.26,55.75,133.95Z"/><path class="cls-7" d="m470.84,605.1s-86.82-51.83-63.2-153.76c0,0,82.34,38.16,63.2,153.76Z"/><path class="cls-10" d="m516.76,291.84l-3.64-.16c-80.08-3.57-92.8-70.97-94.8-91.54-1.51-15.56-6.59-28.3-6.64-28.43l-2.72-6.75,7.19,1.12c37.87,5.89,65.83,21.08,83.12,45.15,25.03,34.86,18.41,75.31,18.11,77.02l-.62,3.59Zm-95.06-116.4c1.72,5.61,3.91,14.18,4.85,23.91,2.3,23.78,15.04,78.84,83.11,83.85.93-10.39,1.71-40.99-17.17-67.22-14.91-20.72-38.71-34.33-70.79-40.54Z"/><path class="cls-10" d="m516.19,284.96l-2.77-.96c-76.2-26.4-59.55-94.8-55.44-108.24,4.38-14.32-.1-51.12-.15-51.49l-.69-5.61,5.56,1.04c1.68.31,41.36,8.38,61.49,68.75,20.06,60.19-5.08,92.86-6.16,94.22l-1.82,2.3Zm-49.48-155.39c1.13,11.67,2.91,36.37-.83,48.6-3.67,11.99-18.34,72.28,47.24,96.93,4.96-8.25,18.8-37.26,3.21-84.04-14.32-42.97-38.68-57.14-49.62-61.49Z"/><path class="cls-10" d="m459.09,305.68c-11.19,0-21.39-2.19-30.55-6.59-28.02-13.45-35.47-42.4-35.77-43.62l-.94-3.79,3.74-1.15c34.43-10.59,116.19,31.56,119.65,33.36l7.47,3.88-7.64,3.54c-20.7,9.58-39.41,14.38-55.95,14.38Zm-56.97-48.19c2.96,7.85,11.38,25.26,30.08,34.19,18.64,8.9,42.61,7.43,71.32-4.36-20.21-9.75-74.2-34.07-101.4-29.83Z"/><path class="cls-9" d="m248.44,605.1s51.26-21.08,64.88-67.92c0,0-31.51-26.4-40.88-41.73-9.37-15.33-22.47-16.97-24.01-20.83-1.54-3.86-6.65-12.38-16.02-13.23-9.37-.85-15.87-8.1-20.71-21.93-4.84-13.83-15.91-9.58-20.16-24.05-4.26-14.48-15.63-17.88-15.91,0s20.16,44.28,20.16,54.5,8.52,27.25,6.81,47.69c-1.7,20.44,3.08,38.75,45.82,87.5Z"/><path class="cls-4" d="m323.21,482.62c-11.61-5.9-27.34,16.67-18.82,32,8.52,15.33,58.08-12.05,18.82-32Z"/><path class="cls-8" d="m192.98,839.07c-10.46,9.44,18.04,45.55,0,68.34-18.04,22.78-24.34,60.34,19.69,76.05,44.03,15.71,144.51,14,147.92-28.57,3.41-42.58-17.63-102.67-58.63-76.03-41,26.64-42.56,53.07-24.32,72.64,18.24,19.57,45.82,18.81,52.89-6.78,7.07-25.59-4-46.88-17.2-41.77s0,19.25,0,19.25c0,0-9.54,14.14-11.37,0-1.83-14.14.55-35.05,18.09-27.58,17.54,7.48,32.66,41.28,22.55,52.06-10.11,10.77-52.26,56.07-72.49,19.8-20.23-36.28-22.53-63.16-2.22-87.61,20.31-24.45-64.54-49.15-74.91-39.78Z"/><path class="cls-11" d="m278.08,604.59c-41.22-10.05-122.44-9.51-203.29,107.11-13.59,19.6-32.62,58.91-7.4,101.88,8.73,14.88,19.87,24.13,33.08,27.48,17.85,4.53,33.88-2.86,41.84-7.66,34.1-20.57,55.08-11.91,75.37-3.53,15.61,6.44,31.74,13.11,56.36,7.83,32.03-6.86,60.01-21.55,78.78-41.37,23-24.28,32.26-55.36,27.5-92.39-4.85-37.77-44.42-85.26-102.25-99.36Z"/><path class="cls-8" d="m314.1,738.58s20.33,13.02-4.97,24.56c-25.3,11.54-25.3-32.71-14.82-40.86,10.48-8.15,24.59-16.3,46.06,0,21.47,16.3,15.65,68.69-12.3,75.68-27.94,6.99-73.35-9.31-76.84-32.6-3.49-23.29,9.57-58.31,33.31-57.68,23.74.63-10.87,8.49-12.78,22.02s.42,33.33,20.22,40.32c19.79,6.99,36.09,4.66,36.09-8.15s-3.49-29.11-13.97-23.29Z"/><path class="cls-10" d="m125.25,697.52s4.85-23.65,24.7-4.18c19.85,19.47-21.44,35.36-32.81,28.51-11.37-6.85-24.05-17.09-16.55-42.99,7.5-25.89,58.49-39.28,75.05-15.71,16.56,23.57,17.66,71.8-2.82,83.43-20.48,11.62-57.86,12.02-65.8-10.36-7.94-22.38,11.82,7.1,25.14,4.01,13.32-3.09,30.95-12.37,30.36-33.35s-8.62-35.36-20.57-30.76c-11.95,4.6-25.91,13.72-16.71,21.4Z"/><path class="cls-10" d="m97.27,330.93s9.87,18.23,9.68,26.59c0,0-4.76,11.47-13.21,15.13,0,0,14.89-4.16,16.79-2.83,0,0,11.32,11.19,14.39,17.69,0,0-6.06-16.22-5.9-23.29,0,0,.16-7.07,11.95-16.45,0,0-9.75,4.92-16.16,3.81,0,0-7.02-2.41-17.54-20.66Z"/><path class="cls-10" d="m931.32,181.74s-4.97,31-12.91,40.86c0,0-16.3,9.37-29.82,5.98,0,0,21.71,8.74,22.77,12.09,0,0,3.26,23.88.94,34.52,0,0,7.69-25.06,14.41-33.4,0,0,6.72-8.34,29.53-8.72,0,0-16.25-3.09-22.92-10.34,0,0-6.2-9.38-1.99-40.99Z"/><path class="cls-2" d="m258.42,195.24s9.12-8.01,2.39-28.75c0,0,9.18,19.83,15.21,18.54,0,0,15.78-.25,21.68-4.29,0,0-23.39,19.79-21.88,23.87s5.06,28.79,3.42,29.39c-1.64.6-8.73-23.63-15.82-25.24,0,0-18.2-4-24.22-2.71l19.23-10.82Z"/><path class="cls-10" d="m796.51,40s-3.92,20.36-9.37,26.7c0,0-10.95,5.85-19.81,3.33,0,0,14.15,6.22,14.78,8.45,0,0,1.66,15.83-.09,22.8,0,0,5.59-16.38,10.2-21.75,0,0,4.61-5.37,19.67-5.14,0,0-10.66-2.38-14.92-7.3,0,0-3.9-6.32-.47-27.1Z"/><path class="cls-2" d="m967.62,351s-8.9,18.73-15.76,23.5c0,0-12.07,2.92-20.01-1.74,0,0,12.14,9.57,12.19,11.88,0,0-2.36,15.74-5.8,22.05,0,0,9.52-14.46,15.32-18.5,0,0,5.8-4.04,20.33-.05,0,0-9.73-4.97-12.61-10.8,0,0-2.19-7.09,6.34-26.35Z"/><path class="cls-4" d="m289.14,600.14c-11.61-5.9-27.34,16.67-18.82,32,8.52,15.33,58.08-12.05,18.82-32Z"/><path class="cls-8" d="m418.7,855.71s44.09-25.72,80.75,3.68c36.66,29.39,95.74,54.87,153.84,32.21,0,0-66.14,54.17-117.29,23.2-51.15-30.97-74.3-64.05-117.29-59.09Z"/><path class="cls-5" d="m473.67,954.07s18.41-6.38,21.33-4.92c0,0,3.65,18.59,15.68,22.6,0,0-11.2,12.46-23.1,10.42,0,0,10.59-9.64,2.26-17.87-8.33-8.23-16.16-10.23-16.16-10.23Z"/><path class="cls-5" d="m466.72,990.63s-6.9,13.81-10.55,17.61c0,0-24.76-2.63-33.71-17.28,0,0,25.27-.96,44.26-.33Z"/><path class="cls-5" d="m456.17,1008.24s-21.16,20.27-30.09,22.61c0,0,16.09,7.22,24.36,5.87,0,0,53.02-11.46,75.31-37.39,0,0-29.12,16.42-69.58,8.91Z"/><path class="cls-5" d="m422.46,990.96s-17.04,24.83-20.47,24.78c0,0-10.51-8.95-1.5-17.99,9.01-9.04,21.97-6.79,21.97-6.79Z"/><path class="cls-5" d="m525.75,999.33s20.29-6.8,32.04-5.25c0,0,13.32-11.81,18-12.6,0,0-21.93,1.4-37.61,7.59l-12.44,10.26Z"/><path class="cls-5" d="m554.6,971.57s-21.51,11.3-43.93.18l17.37-12.36s4.42,1.92,18.77-2.98c14.35-4.89,22.83-4.82,22.83-4.82l-15.04,19.98Z"/><path class="cls-5" d="m522.73,928.22s-14.79,16.74-27.74,20.93c0,0-1.1-30.81-50.41-16.95,0,0,38.28-12.22,54.83-13.58,16.54-1.36,22.44,6.36,23.32,9.61Z"/><path class="cls-5" d="m600.91,964.12l-3.94,9.02s19.96-4.36,18.15,11.26c0,0,15.32,1.4,20.43-4.8,0,0-4.37-16-34.63-15.47Z"/><path class="cls-5" d="m635.54,979.59s15.13,12.47-21.24,32.49c0,0,25.55,9.38,47.09-7.36,0,0,6.61-18.63-11.99-35.37,0,0-3.29,3.68-13.86,10.24Z"/><path class="cls-5" d="m614.3,1012.08s-6.11,5.79-14.49,12.72c-8.39,6.93-16.04,15.31-14.58,23.33,0,0-20.14,6.8-45.07,1.21,0,0,21.05-16.17,37.07-23.64,0,0,20.2-4.8,26.68-15.07l10.39,1.44Z"/><path class="cls-5" d="m540.16,1049.34s-25.05-8.25-27-9.65c0,0-13.24,1.88-12.52,11.35.73,9.48,49.14,26.25,90.37,26.25,0,0,7.33-1.82,13.53-6.2,0,0-89.59-11.61-64.39-21.76Z"/><path class="cls-5" d="m585.23,1048.13s-17.13,16.77,35.36,15.31c0,0,23.76-17.16,25.92-23.71l-23.38-1.37s-17.48,6.49-37.9,9.77Z"/><path class="cls-5" d="m604.55,1071.1l16.04-7.66s34.27,1.09,44.11-1.09l-10.94,10.94s-40.1-1.09-49.22-2.19Z"/><path class="cls-5" d="m664.7,1062.35s10.76-11.88,11.03-23.99c0,0,11.84-1.58,12.8-5.2,0,0,.55,12.76,15.88,14.59,0,0-14.2,15.69-39.72,14.59Z"/><path class="cls-5" d="m649.66,1078l4.1-4.71s67.6-5.7,83.84-14.79c0,0,20.84,3.27,30.93,2.56,0,0-36.39,16.38-118.87,16.95Z"/><path class="cls-5" d="m737.6,1058.5l-33.18-10.74s12.26-3.11,4.68-11.21c-7.58-8.1-10.13-13.2-7.94-13.2s15.68,2.19,15.68,2.19c0,0-2.19,10.94,15.68,10.21,17.86-.73,65.59,5.42,5.09,22.76Z"/><path class="cls-5" d="m716.83,1025.53l12.04.83s-14.79-7.67-.84-19.56c0,0-10.84,3.42-11.2,18.73Z"/><path class="cls-5" d="m701.16,1023.34s-8.75-6.27,0-10.79c8.75-4.52,16.41-8.53,17.13-10.72,0,0-10.03-7.68-10.3-11.31,0,0-20.75-4.91-32.02,3.75-11.27,8.66,2.32,22.97,2.32,22.97,0,0,13.02,7.93,22.87,6.11Z"/><path class="cls-5" d="m718.29,1001.83l9.74,4.96s16.22-14.32,53.73-9.82c0,0-31.39-8.99-63.47,4.86Z"/><path class="cls-5" d="m772.77,1027.23s25.23,3.29,11.87,27.46c0,0,20.05-15.31,12.8-26.07-6.86-10.18-24.51-1.51-24.67-1.39Z"/><path class="cls-5" d="m569.64,951.59s30.9-.76,31.26,12.53c0,0,8.15-4.28,4.08-15.19,0,0-29.41-1.65-35.34,2.66Z"/><path class="cls-3" d="m313.85,738.57s20.33,13.02-4.97,24.56c-25.3,11.54-25.3-32.71-14.82-40.86,10.48-8.15,24.59-16.3,46.06,0,21.47,16.3,15.65,68.69-12.3,75.68-27.94,6.99-73.35-9.31-76.84-32.6-3.49-23.29,9.57-58.31,33.31-57.68,23.74.63-10.87,8.49-12.78,22.02s.42,33.33,20.22,40.32c19.79,6.99,36.09,4.66,36.09-8.15s-3.49-29.11-13.97-23.29Z"/><path class="cls-3" d="m124.99,697.5s4.85-23.65,24.7-4.18c19.85,19.47-21.44,35.36-32.81,28.51-11.37-6.85-24.05-17.09-16.55-42.99,7.5-25.89,58.49-39.28,75.05-15.71,16.56,23.57,17.66,71.8-2.82,83.43-20.48,11.62-57.86,12.02-65.8-10.36-7.94-22.38,11.82,7.1,25.14,4.01,13.32-3.09,30.95-12.37,30.36-33.35-.59-20.98-8.62-35.36-20.57-30.76-11.95,4.6-25.91,13.72-16.71,21.4Z"/></svg>