<?xml version="1.0" encoding="UTF-8"?><svg id="Color1" xmlns="http://www.w3.org/2000/svg" xmlns:xlink="http://www.w3.org/1999/xlink" viewBox="0 0 1080 1137"><defs><style>.cls-1,.cls-2,.cls-3{fill:none;}.cls-2{stroke:#064862;stroke-width:3px;}.cls-2,.cls-3{stroke-miterlimit:10;}.cls-4{clip-path:url(#clippath);}.cls-5{fill:#011720;}.cls-6{fill:#03b083;}.cls-7{fill:#fff;}.cls-8{fill:#064862;}.cls-9{fill:#0c6b86;}.cls-10{fill:#48bcc4;}.cls-11{fill:url(#Degradado_sin_nombre_3-3);}.cls-12{fill:url(#Degradado_sin_nombre_3-2);}.cls-3{stroke:#011720;}.cls-13{fill:url(#Degradado_sin_nombre_3);}</style><linearGradient id="Degradado_sin_nombre_3" x1="567.4" y1="865.9" x2="933.49" y2="865.9" gradientUnits="userSpaceOnUse"><stop offset="0" stop-color="#48bdc5"/><stop offset=".52" stop-color="#168ea3"/><stop offset=".78" stop-color="#0c6b87"/><stop offset=".99" stop-color="#0c6b87"/></linearGradient><clipPath id="clippath"><path class="cls-1" d="m257.11,409.15s-41.59-41.59-18.08-226.04c0,0,69.16-83.1,131.08-36.14,61.92,46.96,216.46,301.36,216.98,306.49.52,5.13-64.68,96.63-215.37,100.95-150.7,4.32-175.87-35.61-189.62-60.67-18.3-33.36,40.07-86.25,75.01-84.59Z"/></clipPath><linearGradient id="Degradado_sin_nombre_3-2" x1="281" y1="676.02" x2="333.5" y2="676.02" xlink:href="#Degradado_sin_nombre_3"/><linearGradient id="Degradado_sin_nombre_3-3" x1="270.68" y1="706.69" x2="270.68" y2="1018.93" xlink:href="#Degradado_sin_nombre_3"/></defs><path class="cls-9" d="m389.95,35.01c-50.66.58-186.58-1.24-202.65,23.48-16.06,24.71-27.18,69.2-14.83,206.35,12.36,137.16,11.12,218.71,64.25,227.36,53.13,8.65,229.83,14.83,250.84-51.9,21.01-66.73,45.72-307.68,24.71-329.92-21.01-22.24-78.46-21.62-92.06,10.5-13.59,32.13,29.66,56.84,46.95,44.48,17.3-12.36,11.12-46.95-12.36-38.31,0,0,24.71-13.59,29.66,7.41,4.94,21.01,13.59,219.95-17.3,253.31-30.89,33.36-63.02,67.96-133.45,65.49-70.43-2.47-95.15-54.37-98.85-148.28-3.71-93.91,4.94-221.18,39.54-221.18s158.16,9.89,161.87-7.41c3.71-17.3,7.41-42.01-46.34-41.39Z"/><path class="cls-13" d="m798.37,634.7c-52.53.58-193.46-1.24-210.12,23.48-16.66,24.71-28.19,69.2-15.37,206.35,12.81,137.16,11.53,218.71,66.62,227.36,55.09,8.65,238.3,14.83,260.09-51.9,21.78-66.73,47.4-307.68,25.62-329.92-21.78-22.24-81.36-21.62-95.45,10.5-14.09,32.13,30.75,56.84,48.69,44.48,17.94-12.36,11.53-46.95-12.81-38.31,0,0,25.62-13.59,30.75,7.41s14.09,219.95-17.94,253.31c-32.03,33.36-65.34,67.96-138.37,65.49-73.03-2.47-98.65-54.37-102.5-148.28-3.84-93.91,5.12-221.18,41-221.18s163.99,9.89,167.84-7.41c3.84-17.3,7.69-42.01-48.05-41.39Z"/><path class="cls-2" d="m273.23,565.53c52.53.58,193.46-1.24,210.12,23.48,16.66,24.71,28.19,69.2,15.37,206.35-12.81,137.16-11.53,218.71-66.62,227.36-55.09,8.65-238.3,14.83-260.09-51.9-21.78-66.73-47.4-307.68-25.62-329.92,21.78-22.24,81.36-21.62,95.45,10.5,14.09,32.13-30.75,56.84-48.69,44.48-17.94-12.36-11.53-46.95,12.81-38.31,0,0-25.62-13.59-30.75,7.41-5.12,21.01-14.09,219.95,17.94,253.31,32.03,33.36,65.34,67.96,138.37,65.49,73.03-2.47,98.65-54.37,102.5-148.28,3.84-93.91-5.12-221.18-41-221.18-35.87,0-163.99,9.89-167.84-7.41-3.84-17.3-7.69-42.01,48.05-41.39Z"/><path class="cls-2" d="m741.03,87.68c52.53.58,193.46-1.24,210.12,23.48,16.66,24.71,28.19,69.2,15.37,206.35-12.81,137.16-11.53,218.71-66.62,227.36-55.09,8.65-238.3,14.83-260.09-51.9-21.78-66.73-47.4-307.68-25.62-329.92,21.78-22.24,81.36-21.62,95.45,10.5,14.09,32.13-30.75,56.84-48.69,44.48-17.94-12.36-11.53-46.95,12.81-38.31,0,0-25.62-13.59-30.75,7.41-5.12,21.01-14.09,219.95,17.94,253.31,32.03,33.36,65.34,67.96,138.37,65.49,73.03-2.47,98.65-54.37,102.5-148.28,3.84-93.91-5.12-221.18-41-221.18-35.87,0-163.99,9.89-167.84-7.41-3.84-17.3-7.69-42.01,48.05-41.39Z"/><path class="cls-8" d="m730.07,999.56s-23.3-25-32.02-46.38c-8.72-21.38-11.17-42.45-8.83-42.66,2.34-.21,8.62,10.21,9.15,12.02.53,1.81,2.23,9.49-1.17,5.32-3.78-4.63-3.51-6.81-3.62-8.08-.11-1.28-1.81-.32-1.38,2.02.43,2.34,9.68,41.28,37.87,77.76Z"/><path class="cls-6" d="m731.83,996.84s-16.38-23.3-21.38-43.62c-5-20.32-2.02-19.04,3.62-19.47,5.64-.43,18.19,7.23,13.19,14.47-5,7.23-10.9,1.54-11.86-.69-.96-2.23-2.34-6.49,1.49-7.34,3.83-.85,2.98,5.35,2.98,5.35,0,0,3.83-1.94,2.44-4.71-1.38-2.77-7.55-6.17-10.21-2.66-2.66,3.51,12.23,47.55,19.73,58.67Z"/><path class="cls-8" d="m733.79,996.84s1.55-2.95-.79-9.77-6.06-25.23-2.13-34.8c3.94-9.57,9.15-21.28,9.36-27.66,0,0-3.4,9.89-13.08,7.55-9.68-2.34-22.98-10.21-37.55-64.15,0,0-2.34,6.34,0,19.71,2.34,13.37,5.27,22.57,6.01,22.26.74-.32-1.06-2.66.11-3.09,1.17-.43,5.32,8.72,1.91,10.11-3.4,1.38-6.81-13.08-8.4-18.62-1.6-5.53-5.43-23.51-5.11-32.87.32-9.36,1.7-22.45,3.51-22.45s2.13,7.87,2.34,11.17c.21,3.3,2.45,20.53,9.79,36.38,7.34,15.85,20.11,36.55,30.32,35.24,10.21-1.31,5.85-4.18,9.26-6.95s6.08-4.2,5.59,1.04c-.49,5.24-3.36,22.05-6.66,28.54-3.3,6.49-6.44,16.44-3.03,23.99,3.4,7.55,7.82,20.58,6.12,33.56l-7.56-9.2Z"/><path class="cls-10" d="m741.51,913.76s-4.94,5.28-9.7-5.34c-4.77-10.62-10.94-31.25-6.57-47.53,4.36-16.28,9.47-26.7,13.83-29.15,0,0-13.14,20.37-10.27,46.65,2.87,26.28,12.71,35.37,12.71,35.37Z"/><path class="cls-8" d="m731.81,918.39s1.72,2.57-1.73,1.1c-3.46-1.47-17.41-6.93-28.36-39.62-10.95-32.7-7.97-51.53-1.37-61.42,6.6-9.89,15.32-14.36,19.04-31.17,0,0,4.63,11.44,1.44,22.71-3.19,11.28-4.79,32.02-1.7,31.81,3.09-.21,7.34-13.83,6.49-22.66,0,0,3.06,13.94-1.03,25.27-4.08,11.33-7.54,21.28-5.15,39.09,1.97,14.66,6.45,31.81,12.37,34.89Z"/><path class="cls-9" d="m727,794.84s45.9,36.66,37.47,72.83c-8.43,36.17-39.5,114.95-7.54,140.46,31.95,25.52,71.9-3.55,71.01-52.59-.89-49.04-79.82-151.88-100.94-160.71Z"/><path class="cls-7" d="m780.92,875.49s29.15,33.58,24.72,73.52-23.25,45.23-22.83,49.13,4.64,11.67,15.29,3.01,19.75-27.52,17.53-63.02c-2.22-35.5-34.7-62.64-34.7-62.64Z"/><path class="cls-6" d="m800.85,844.86s-10.1,1.47-12.06-7.17c0,0,9.29-5.05,12.06,7.17Z"/><path class="cls-6" d="m806.72,838.99s-14.5-26.72,1.96-44.32c0,0,17.76,19.88-1.96,44.32Z"/><path class="cls-6" d="m816.01,853.1s-2.78-28.94,27.52-38.39c0,0,8.99,13.72-27.52,38.39Z"/><path class="cls-6" d="m824.96,880.21s-1.47-34.17,25.99-43.56c0,0,7.58,19.93-25.99,43.56Z"/><path class="cls-6" d="m842.57,905.11s-10.93-27.47,14.33-49.16c0,0,9.64,31.53-14.33,49.16Z"/><path class="cls-3" d="m858.81,921.69s-6.48-7.1-14.13-7.27c-7.66-.16-11.41-7.33-12.22-11.08-.81-3.75-4.89-8.15-8.8-9.94-3.91-1.79-3.1-9.29-3.42-13.52-.33-4.24-2.77-8.15-8.47-14.18-5.7-6.03-7.98-11.73-7.33-17.43.65-5.7-3.33-2.77-3.3,0,.04,2.77,1.83,3.1-1.43,3.42-3.26.33-6.52,2.44-1.96,3.26,4.56.81,4.4,3.26,4.89,7.82.49,4.56,2.12,11.24,7.33,14.18,5.21,2.93,5.7,9.61,4.73,14.34-.98,4.73-2.93,12.55,3.1,12.22s9.4-2.02,9.67,1.6c.27,3.62-2.01,9.16,3.85,11.93,5.87,2.77,18.49-.62,27.5,4.66Z"/><path class="cls-10" d="m694.99,766.02s-7.79,4.54-3.24,7.14c4.54,2.6,11.43,1.27,14.8-9.42,3.37-10.69-7.08-16.12-24.24-7.57-17.16,8.55-25.46,30.98-10.93,36.32s21.02,1.44,30.76-6.99c9.73-8.44,27.11-18.53,43.73-5.37,16.62,13.16,68,15.4,77.36,0,9.36-15.4.52-32.51-21.02-28.17-21.54,4.34-28.19,3.58-26.17,8.83,2.03,5.24,1.38,14.33-21.99,5.89-23.36-8.44-1.95-25.31,5.19-24.01,7.14,1.3,9.73,4.54,6.49,4.54s-13.06,5.14-6.85,10.68c6.2,5.54,21.13,2.3,19.18-12.63s-13.63-27.91-36.34-24.66c-22.71,3.24-22.07,29.85-28.56,33.1-6.49,3.24,4.26,17.81-17.34,26.43-21.6,8.62-19.65-11.5-13.16-14.75s11.68-3.89,12.33.65Z"/><g class="cls-4"><path class="cls-6" d="m311.73,214.32s-2.14,15.64,9.94,5.78c12.08-9.85,5.32-32.89-7.68-36.15-12.99-3.26-38.74,4.24-33.25,42.92,5.49,38.68,39.88,46.58,61.2,23.4,21.32-23.18,15.7-73.14-12.09-82.96-27.78-9.83-52.03-11.47-89.16,36.24-37.13,47.7-92.68,173.89-157.1,190.1-64.42,16.21-120.19,23.9-97.54,70.59,22.65,46.69,42.42,23.23,95.21,0,52.79-23.23-33.21,8.41-26.45,26.6,6.77,18.19,95.07,36.31,104.2-13.91,9.13-50.22,51.63-45.92,74.12-71.75,22.5-25.83,59.13-90.51,44.64-128.02-14.49-37.51-24.56-72.41,8.25-92.78s52.12-10.5,60.45,9.99c8.33,20.49-22.09,56.55-36.27,35.34-14.18-21.21,1.51-15.39,1.51-15.39Z"/><path class="cls-8" d="m341.19,270.66c-15.35,3.62-16.7-1.41-31.74,0-15.03,1.41-18.25,5.22-8.32,30.01,9.93,24.79,20.94,32.1,2.95,42.91-17.98,10.81-1.88,27.65-25.5,48.31-23.62,20.66-34.65,42.77-56.78,42.84-22.13.07-15.7,26.95-28.71,25.9-13.01-1.04-6.04,34.87,6.04,22.95,12.08-11.92,75.57-47.79,98.98-35.42,23.41,12.37,34.05,25.27-8.31,22-42.36-3.27-77.6-2.78-63.47,20.65,14.13,23.44,78.56,26.41,103.52,18.72,24.96-7.68,33.47,5.93,25.05,9.29-8.42,3.37-15.08,22.63,27.84,11.73,42.92-10.91,62.85-10.29,81.6-4.72,18.75,5.57,31.67-12.12,16.62-16.3-15.05-4.19-53.43-41.69-27.13-35.34,26.3,6.36,9.75,24.79,36.95,23.52,27.2-1.27,52.21-6.49,51.38-27.56-.83-21.07-7.8-35.91-38.54-34.21-30.74,1.7-53.55-1.48-73.95-41.53-20.4-40.05-47.51-78.51-52.87-103.62-5.37-25.11-8.93-41.37-21.91-41.03-12.98.34-5.07,18.83-13.72,20.87Z"/><path class="cls-7" d="m218.88,267.73c-17.97,5.65-39.75,17.69-36.44,59.73s33.86,63.89,62.58,49.57c28.73-14.32,31.72-76.33,16.92-95.11-14.8-18.78-37.15-16.05-43.06-14.19Z"/><path class="cls-10" d="m249.94,278.1c-7.26-3.94-32.74-9.85-48.12,13.16-15.38,23.01-14.5,52.78,5.32,67.53,19.82,14.75,46.59,4.62,50.89-13.41,4.31-18.03.92-52.42-10.24-53.22-11.16-.8-28.09,1.59-25.6,14.81,2.49,13.22,17.16,13.95,18.67,9.74s-1.13-9.53-3.28-9.74c-2.16-.21,6.55-8.3,9.91,3,3.36,11.3,8.78,33-4.82,37.01-13.6,4.01-38.48-4.75-37.61-30.27.87-25.52,18.49-40.39,32.52-35.73,14.02,4.66,18.56,17.86,20.75,13.23,2.19-4.63-8.39-16.09-8.39-16.09Z"/><path class="cls-7" d="m351.8,471.37s-5.69-13.71-21.76-9.17c-16.06,4.54-16.63,22.1-10.77,30.5,5.87,8.4,19.88,15.46,28.2,5.32,8.32-10.14,6.44-23.17,4.32-26.65Z"/><path class="cls-8" d="m348.74,472.29c-3.18-3.57-8.72-6.95-18.67-2.22-9.94,4.73-8.97,11.68-3.02,16.7,5.95,5.02,4.59,9.69,10.44,8.56,5.86-1.13,4.27-5.57,8.24-11.07,3.97-5.5,3-11.97,3-11.97Z"/><path class="cls-7" d="m341.33,476.54c-.31-1.2-9.15-4.13-11.51.64s4.84,11.5,8.42,8.71c3.58-2.79,3.82-6.55,3.09-9.35Z"/><path class="cls-8" d="m336.76,478.47c-1.16-1.37-2.5,2.93-1.25,3.15,1.25.22,2.88-1.22,1.25-3.15Z"/><path class="cls-6" d="m529.93,452.37c17.71-12.57-59.66-3.94-78.33-21.56-18.67-17.62-37.73-52.58-50.34-76.42-12.61-23.84-27.42-55.33-33.71-73.91-6.29-18.58-11.99-29.03-12.63-12.2-.64,16.83,10.33,41.95,28.07,67.37,17.73,25.42,28.47,43.86,35.98,60.07,7.52,16.21,69.21,86.29,110.96,56.65Z"/><path class="cls-9" d="m351.73,275.09c-2.15-1.27-3.49-2.86-2.95,4.45s9.02,31.09,15.38,47.96c6.36,16.88,26.49,50.89,39.11,73.46,12.61,22.57,46.98,51.69,61.74,57.79,14.75,6.1,51.52,21.04,57.16,16.27,5.64-4.77,8.32-6.04-1.34-6.04s-21.07,2.7-46.57-12.24c-25.5-14.94-53.2-35.4-69.81-64.9-16.61-29.5-47.55-81.45-49.53-96.8-1.98-15.34-3.19-19.95-3.19-19.95Z"/><path class="cls-6" d="m450.37,515.86s-13.42-23.84-50.19-19.07c-36.77,4.77-27.38-16.21-23.62-26.38,3.76-10.17,16.64-15.57,17.71-7.95s-12.35,9.54-6.17,4.77c6.17-4.77-16.72,19.93,3.85,20.14,20.57.21,21.71-17.4,12.55-28.62-9.16-11.22-25.53-12.83-38.15.85-12.61,13.68-15.94,47.69-2.2,56.27,13.74,8.58,23.94,2.54,36.02-2.86,12.08-5.4,28.45-12.4,50.19,2.86Z"/><path class="cls-6" d="m437.95,500.4s-5.04-4.36,0-18.85c5.04-14.48,5.57-26.56-3.82-33.24-9.39-6.67-23.74-10.81-24.76,0-1.01,10.81,1.11,28.07,10.31,27.62,9.21-.45,12.43-10.62,7.33-13.8-5.1-3.18-7.52,3.81-7.25,5.09.27,1.27-4.83-3.18-1.88-10.49,2.95-7.31,10.47-4.45,14.49,0,4.03,4.45,6.71,7.63,3.49,15.89-3.22,8.26-7.39,16.44,2.08,27.77Z"/><path class="cls-7" d="m337.53,279.65c1.6,5.31,4.41,17.65,3.73,22.8s-2.32,9.67-6.89,12.05c-4.57,2.39-8.11,3.72-10.95-2.51-2.84-6.23-7.62-15.53-6.59-18.31,1.03-2.78,9.25-10.87,11.88-9.69,2.63,1.18,7.34,10.84,5.75,14.41-1.59,3.57-5.13,5.66-6.08,4.33-.95-1.34-5.18-5.1-3.91-6.64,1.27-1.54,2.95-3.89,3.58-2.33.63,1.56-1.13,2.14-1.03,2.92s.86,2.51,1.83,2.08c.97-.43,4.24-2,3.4-4.65-.84-2.65-1.04-6.7-3.26-5.59-2.22,1.11-8.65.49-8.68,3.45-.03,2.96.93,16.58,4.55,16.79,3.63.22,14.54-1.22,14.13-5.98s-2.05-23.62-7.02-23.49-13.49,3.37-16.65,8.18c-3.16,4.81-.13,14.48,2.01,18.68,2.14,4.2,7.03,16.41,12.06,15.3,5.03-1.1,14.25-1.11,14.81-7.27s.1-28.32-2.2-31.93c-2.3-3.61-4.47-2.59-4.47-2.59Z"/><path class="cls-9" d="m309.39,359.29s-.31-1.74,1.65-1.48c1.97.26,7.84,3.95,5.81,10.99s-5.27,11.21-10.43,13.23c-5.16,2.02-10.3,6.17-11.08,10.92-.79,4.75.82,15.06-5.61,14.89s-5.09-10.99-3.62-13.06,3.48-1.48,2.14.21c0,0,2.15,2.43,2.8-1.21.65-3.64-2.99-4.48-4.99-2.73-2,1.75-5.76,8.15-2.2,16.9,3.56,8.75,10.15,5.63,12.6,2.14,2.45-3.49.74-8.82.79-12.28.04-3.47,2.24-9.55,6.59-10.47s11.65-2.34,13.91-13.69c2.26-11.35-2.21-17.22-5.65-18.14-3.44-.92-6.08,2.16-4.54,6.29,1.54,4.12,4.68,1.91,4.55-.27s-.63-3.65-2.73-2.23Z"/><path class="cls-9" d="m214.63,458.34s-8.86-1.8-14.12,2.68c-5.27,4.48-7.83,12.41-1.98,14.33,5.85,1.92,9.87-8.54,10.59-11.53s5.51-5.48,5.51-5.48Z"/><path class="cls-10" d="m313.98,368.14s-2.34,4.12-5.32,4.78-6.06-.87-4.72-3.83c1.34-2.96,5.62-1.19,6.7-.52,1.09.68,3.34-.44,3.34-.44Z"/><path class="cls-10" d="m321.93,368.74s-2.9,3.59-2.82,7.17c.09,3.58,2.01,6.83,4.16,4.65s-.21-6.75-1-7.86c-.79-1.11-.35-3.95-.35-3.95Z"/><path class="cls-10" d="m318.71,385.58s-2.9,3.59-2.82,7.17c.09,3.58,2.01,6.83,4.16,4.65s-.21-6.75-1-7.86-.35-3.95-.35-3.95Z"/><path class="cls-10" d="m303.51,377.36s-2.34,4.12-5.32,4.78c-2.97.66-6.06-.87-4.72-3.83,1.34-2.96,5.62-1.19,6.7-.52s3.34-.44,3.34-.44Z"/><path class="cls-10" d="m341.39,320.3s-7.69.67-5.78,16.61c1.91,15.94,2.58,25.47-6.38,27.11-8.96,1.63-14.08-7.52-11.88-13.17,2.2-5.65,7.24-10.71,11.55-5.11,4.32,5.6-2.12,10.21-3.89,9.05-1.77-1.16-2.73-2.88-1.74-3.89s3.22.98,3.22.98c0,0,2.66-3.78-1.65-5.02-4.31-1.24-6.08,3.58-6.29,5.71-.22,2.14,1.11,7.9,7.47,7.96s9.45-3.35,9.18-8.35c-.26-5-6.14-28.68,6.18-31.87Z"/><path class="cls-10" d="m272.55,424.1s-2.27-4.55,3.07-6.82c5.34-2.28,11.02,3.99,10.56,8.57-.46,4.58-4.42,8.46-9.22,7.94-4.8-.52-6.88-3.06-9.56-5.72-2.68-2.65-9.17-6.21-14.17-1.13-5,5.08-6.07,11.42-1.76,15.46,4.31,4.04,9.06.26,9.63-3.49s-1.67-6.23-3.22-5.36c-1.56.87-3.46,3.61-1.53,5.97,1.93,2.36,2.26-1.8,2.63-1.19.37.61-2.59,5.8-5.64,2.53-3.05-3.26-4.25-6.72.34-9.9,4.59-3.18,6.84-3.56,10.95-.28,4.11,3.28,13.79,7.97,18.42,4.44s8.35-10.91,4.51-16.74c-3.84-5.83-9.8-4.89-14.16-1.76-4.36,3.13-3.7,7.83-.94,9.33,2.75,1.5,3.93-.69,3.51-1.67-.43-.98-2.15-2.29-3.41-.2Z"/><path class="cls-10" d="m318.72,332.65s-2.75-1.83-.16-5.45,7.92-2.17,9.01.82c1.09,2.99-.18,7.02-3.27,8.71-3.09,1.69-5.12,1.01-7.55.51-2.43-.5-7.45.05-8.99,5.24-1.54,5.19-.3,9.52,3.54,10.18s5.61-3.63,4.84-6.16c-.77-2.53-2.88-3.11-3.57-1.93s-1.03,3.65.85,4.29c1.88.63.84-2.04,1.25-1.83s.15,4.63-2.69,3.91c-2.84-.72-4.6-2.32-2.75-6.19,1.86-3.86,3.12-5.04,6.6-4.75,3.49.29,10.8-.9,12.58-5,1.78-4.1,1.85-10.16-2.24-12.12-4.09-1.96-7.45,1.12-9.18,4.85-1.73,3.74.08,6.33,2.21,6.1,2.13-.23,2.2-2.07,1.65-2.49-.55-.42-1.99-.5-2.14,1.31Z"/><path class="cls-10" d="m291.77,420.6s.82-3.79,5.06-4.47c4.23-.67,12.68-3.92,15.31-11.35,2.63-7.43-.96-15.37-7.18-14.86,0,0,6.37,6.78,3.17,13.16-3.2,6.39-6.91,9.83-9.83,10.16s-6.77,2.37-6.53,7.36Z"/><path class="cls-6" d="m239.99,441.56c-5.45-4.99-11.33-6.62-20.7,2.49-2.95,2.87-8.35,8.43-1.16,14.97,7.19,6.54,21.35-2.49,23.17-5.08,1.82-2.58,4.14-7.4-1.31-12.39Zm-4.21,11.27c-4.07,2.49-7.68,5.25-12.63,0-4.95-5.25,1.15-8.77,4.64-9.72,3.49-.95,7.05-.6,9.37,2.32,1.82,2.29,2.69,4.9-1.38,7.4Z"/><path class="cls-8" d="m227.79,443.11c-3.49.95-9.59,4.47-4.64,9.72,4.95,5.25,8.56,2.49,12.63,0,4.07-2.49,3.2-5.1,1.38-7.4-2.32-2.92-5.88-3.27-9.37-2.32Z"/><path class="cls-6" d="m228.35,443.98c-2.6.71-7.15,3.33-3.46,7.25,3.69,3.91,6.38,1.86,9.41,0,3.03-1.86,2.39-3.8,1.03-5.51-1.73-2.18-4.39-2.44-6.99-1.73Z"/><path class="cls-8" d="m231.73,446.25c1.95,1.32,1.4,1.64,0,2.86-1.4,1.22-3.14.36-4.01-.97-.87-1.33,2.43-2.96,4.01-1.89Z"/><path class="cls-10" d="m353.35,398.26s1.38-30.45-12.64-30.39c-14.01.06-13.93,19.53-12.71,33.49,1.23,13.96-9.07,26.32-13.89,29.41-4.82,3.09-16.14,15.47-8.26,24.73,7.87,9.26,11.04-1.6,15.31-1.6s30.79,6.57,51.14-3.65c20.35-10.21,24.94-19.39,24.78-33.81-.16-14.42-14.88-16.01-26.97-4.82,0,0,11.07-15.6,6.45-26.27-4.63-10.68-12.85-11.87-17.99-2.28-5.14,9.59-5.22,15.2-5.22,15.2Z"/><path class="cls-8" d="m331.21,406.79s6.48,6.74,12.02-1.31c5.54-8.05,3.32-14.98.63-17.42-2.69-2.43-7.43-1.87-7.12,4.68,0,0,2.06-4.12,4.43-2.06,2.37,2.06,3.8,11.99-4.43,10.86-8.22-1.12-6.33-14.98-1.9-19.48,4.43-4.5,10.28-4.68,13.76,3.37,3.48,8.05,4.74,20.23-5.54,26.04-10.28,5.81-14.87.56-11.86-4.68Z"/><path class="cls-8" d="m353.35,418.41s1.9-33.9,14.87-34.46c12.97-.56,5.22,33.15-14.87,34.46Z"/><path class="cls-7" d="m358.57,410.54s2.69-20.6,9.02-18.17c6.33,2.43-9.02,18.17-9.02,18.17Z"/><path class="cls-8" d="m369.12,418.41c3.59-1.47,14.5-11.21,19.77-4.39,5.27,6.82,1.63,22.18-13.08,27.43-14.71,5.24-20.88,3.93-23.25-1.87-2.37-5.81,10.18-18.54,16.56-21.17Z"/><path class="cls-7" d="m381.97,421.44c2.49,2.16.8,11.01-11.38,16.26-12.18,5.24-15.5-1.04-12.02-5.58,3.48-4.54,17.38-15.88,23.4-10.68Z"/><path class="cls-8" d="m374.59,425.34c.64,2.51,3.27,5.24,3.91.93.63-4.31-4.33-2.61-3.91-.93Z"/><path class="cls-8" d="m367.54,429.9c-1.25,1.39-1.06,3.12.68,2.56,1.74-.56,1.96-5.49-.68-2.56Z"/><path class="cls-7" d="m268.97,193.45s-24.29,31.85-25.59,40.61l-21.29-5.7,18.52-24.79,28.35-10.12Z"/><path class="cls-7" d="m243.38,234.07l16.45,2.22s-12.88,18.67-16.45,34.62l-17.88-2.25s14.21-35.25,17.88-34.59Z"/><path class="cls-7" d="m184.21,339.41s-24.05,26.82-26.7,29.33l-2.65,2.5s-14.49-9.23-17.31-15.26c0,0,30.5-36.95,30.06-40.84l16.6,24.27Z"/><polygon class="cls-7" points="225.5 268.65 204.9 258.74 183.31 293.69 191.17 300.4 225.5 268.65"/><path class="cls-7" d="m175.35,375s9.03,6.26,18.22,6.41c0,0,10.78-13.45,11.33-15.54l-13.73-10.53-15.82,19.66Z"/><path class="cls-7" d="m226.39,383.94l12.29-19.73,24.09-4.51s-7.49,21.89-17.06,30.13l-19.32-6.04v.14Z"/><path class="cls-7" d="m226.39,383.8s-29.93-.31-32.81-2.38c0,0-20.79,22.73-26.73,23.84l28.68,10.01s28.45-21.3,30.87-31.47Z"/><path class="cls-7" d="m175.35,375s-14.99,23.74-31.09,27.55l-25.26-4.21s31.17-19.31,35.87-27.1l20.49,3.76Z"/><polygon class="cls-7" points="144.26 402.55 166.84 405.25 137.55 432.56 113.88 428.18 144.26 402.55"/><path class="cls-7" d="m118.99,398.34s-22.17,12.79-40.32,16.92l-31.39-12.71,47.25-12.71,24.46,8.5Z"/><path class="cls-7" d="m195.52,415.26s-31.7,17.38-34.64,24.42l14.47,8.12,36.54-24.28-16.37-8.26Z"/><path class="cls-7" d="m160.88,439.69l-23.33-7.12-37.76,23.26,22.89,18.72s20.74-27.92,38.2-34.86Z"/><path class="cls-7" d="m113.88,428.18l-35.21-12.91s-22.97,12.48-47.53,12.91l45.19,19.63s28.38-21.33,37.56-19.63Z"/><polygon class="cls-7" points="76.32 447.8 99.8 455.82 48.71 479.92 27.03 467.74 76.32 447.8"/><path class="cls-7" d="m27.03,467.74l-30.11,13.88s-15.88-17.75-16-28.07l29.67-9.92,16.43,24.11Z"/><path class="cls-7" d="m10.6,443.63l-16.17-21.5s16.72-18.29,36.71-15.28l16.14,25.71-36.68,11.07Z"/><path class="cls-7" d="m122.68,474.54l33.29,12s-28.21,42.01-72.84,20.01l39.55-32.01Z"/></g><path class="cls-7" d="m287.8,982.89l-84.8,39.35s169.87,38.84,244.53,6.76c0,0-51.69-49.08-81.17-58.01-29.48-8.92-78.55,11.9-78.55,11.9Z"/><path class="cls-12" d="m309.42,662.48c.28,1.03-1.99.92-4.29.92s-4.75,5.06-2.76,8.74c1.99,3.68,4.29,6.44,14.26,1.38,9.97-5.06,9.81-8.74,4.14-20.09-5.67-11.35-8.59-9.51-20.55-7.67-11.96,1.84-19.93,4.45-19.17,23.31.77,18.86,6.59,40.02,15.33,38.48,8.74-1.53,33.27-6.29,34.65-12.88,1.38-6.59,3.68-28.67,1.69-29.9-1.99-1.23-3.83,1.38-3.83,4.29s2.45,10.73-11.5,15.18c-13.95,4.45-16.87,5.98-18.4-2.76-1.53-8.74-5.67-19.17-.61-21.16,5.06-1.99,9.35-3.99,11.04,2.15Z"/><path class="cls-8" d="m357.72,732.55s5.1,13.88.94,14.84c-4.16.95-4.37,3.1-6.49-10.47s-6.16-23.62,0-23.43c6.16.2,15.82-1.64,17.35,10.62,1.53,12.27,2.3,42.16,2.15,50.6s.92,19.63-10.12,21.01c-11.04,1.38-12.11,1.99-10.89,5.83,1.23,3.83,3.38-3.53,4.68,0,1.3,3.53,6.82,12.88.99,12.73-5.83-.15-7.07-.92-11.58,0-4.52.92-8.66-19.47-7.58-21.93,1.07-2.45,5.37-3.99,9.05-2.45s5.98,5.37,5.37-2.45c-.61-7.82.81-20.68,7.07-19.08,6.26,1.6,4.58-1.62,4.58-11.59s1.53-27.29-1.99-25.76l-3.53,1.53"/><path class="cls-11" d="m273.08,1006.7c.46-2.91-27.29.77-35.88,2.15-8.59,1.38-8.74,8.89-22.08,9.51-13.34.61-14.11-5.83-7.21-13.19,6.9-7.36,15.95-5.67,20.24-1.07,4.29,4.6-1.69,7.21-6.59,5.67-4.91-1.53-2.61-3.83-2.61-3.83-7.51,2.76-6.29,8.13,1.38,7.82,3.29-.13,5.39-2.07,8.78-4.44,4.51-3.15,11.29-7.04,26.17-8.44,26.07-2.45,32.66-5.83,49.52-24.07,16.87-18.25,13.03-82.03,13.19-91.99.15-9.97,15.33-10.58,21.47-18.09,6.13-7.51-4.6-40.78-6.44-54.43-1.84-13.65-4.75-14.11-10.58-14.41-5.83-.31-8.43-3.07-11.81-22.08-3.37-19.01-.46-32.35,3.53-34.34,3.99-1.99,5.37-7.97,11.35-7.82,5.98.15,12.88,21.62,14.72,26.84,1.84,5.21-4.45,8.43-8.43,7.48-3.99-.95-1.69-4.88,0-6.41,0,0,2.91-8.28-4.75-8.28s-7.21,9.35-5.83,15.95c1.38,6.59-3.07,11.81,6.9,10.73,9.97-1.07,21.41-4,20.29-16.03-1.12-12.03-1.74-50.21-16.92-51.74-15.18-1.53-28.36,1.23-29.74,14.72-1.38,13.49-2.15,60.72,1.07,69.15s10.04,14.48,18.43,18.28c0,0,5.33,27.11,5.02,33.7-.31,6.59,1.84,8.59-6.9,12.57-8.74,3.99-21.16,6.59-21.62,15.03-.46,8.43,6.13,83.56-.46,91.23-6.59,7.67-41.09,33.88-59.03,28.82-17.94-5.06-46.46,6.44-45.38,15.03s2.61,18.86,20.24,13.19c17.63-5.67,35.26-8.13,35.88-5.06.61,3.07-37.41,18.4-33.73,28.98,3.68,10.58,30.05,13.65,41.4,5.52,0,0-23.31,6.29-27.75-5.06-4.45-11.35,9.2-15.33,17.79-19.47s24.99-13.34,26.37-22.08Z"/><path class="cls-9" d="m257.44,1036.9s3.83,8.13-4.91,9.05c-8.74.92-9.97-3.68-5.52-9.81,4.45-6.13,10.58-7.05,14.41-9.51s15.03-12.42,18.09-17.79c3.07-5.37,10.73-11.65,20.85-19.17,10.12-7.51,22.39-17.94,22.08-44.77,0,0-3.99,26.22-15.18,35.88-11.19,9.66-25.45,18.09-27.75,21.77-2.3,3.68-11.65,15.95-21.47,21.77-9.81,5.83-27.29,12.11-26.53,20.09.77,7.97,16.87,11.81,26.99,3.37,10.12-8.43,9.81-14.87,3.07-16.87s-14.26,4.91-12.88,7.97c1.38,3.07,8.89,6.13,8.74-1.99Z"/><path class="cls-7" d="m299.91,879.59s8.26,6.39,15.78,5.26c0,0,6.76,63.81-15.78,88.07,0,0,6.44-8.7,4.91-36.61-1.53-27.91-4.91-56.73-4.91-56.73Z"/><path class="cls-9" d="m306.51,934.02s3.87,1.53,7.38,0l-.48,3.53s-5.21,2.14-6.9.46v-3.98Z"/><path class="cls-6" d="m310.2,912.71s-4.3,3.37-4.3,9.35,4.45,9.51,6.13,8.28c1.69-1.23,6.46-20.7-1.83-17.63Z"/><path class="cls-7" d="m311.87,918.53c-.97-1.19-2.74,3.02-1.68,4.5,1.06,1.48,5.05-.36,1.68-4.5Z"/><path class="cls-6" d="m310.41,891.44c-3.16-1.2-5.44-1.42-5.74,1.95-.31,3.37-.64,13.19,5.2,11.88,5.84-1.3,4.29-12.42.54-13.84Z"/><path class="cls-7" d="m309.14,895.05c-1.9.67-2.78,3.86-1.71,4.16,1.07.31,4.23.82,4.11-1.2s-1.46-3.29-2.4-2.96Z"/><path class="cls-7" d="m304.53,878.49s-1.91-7.19,7.01-9.79c8.92-2.6,19.96-7.51,20.88-10.57,0,0-.67,8.25-12.52,10.18-11.86,1.93-15.36,10.16-15.37,10.18Z"/><path class="cls-7" d="m311.54,881.42s1.25-6.89,9.69-9.5c8.43-2.61,13.19-7.21,13.34-9.97,0,0,2.1,7.81-7.61,9.73-9.71,1.92-15.9,8.19-15.42,9.73Z"/><path class="cls-9" d="m301.05,814.31s.86,41.13,4.85,40.48c3.99-.65,11.08.59,10.75-8.77s2.17-27.31,0-28.76c-2.17-1.45-15.54-5.52-15.6-2.95Z"/><path class="cls-6" d="m342.52,861.35s17.02,3.9,20.27,0c3.25-3.9,1.51-38.85-11.27-38.58-12.77.27-9.01,38.58-9.01,38.58Z"/><path class="cls-6" d="m392.27,665.1c-2.77.16,7.82,2.05,7.27-2.94-.56-4.99-6.78-7.45-7.79-4.61-1.01,2.84.15,7.29,2.74,5.04,2.6-2.25-.85-4.78-1.13-3.49-.28,1.29.53,2.04.53,2.04,0,0-2.19.64-1.7-1.97.49-2.61,4.62-1.6,5.04.9.43,2.5-1.43,4.82-4.97,5.03Z"/><path class="cls-10" d="m392.79,668.85s-2.85,4.53-2.06,5.59c.79,1.06,10.04,2.86,11.12,1.3,1.08-1.56-2.13-7.4-4.15-7.61-2.02-.22-4.91.72-4.91.72Z"/><path class="cls-10" d="m401.33,666.96s2.58,5.71,5.72,3.95c3.14-1.76,6.9-6.58,3.88-10.36-3.02-3.78-8.3.59-8.3.59,0,0,.18,5.01-1.3,5.82Z"/><path class="cls-10" d="m400.61,658.2c.62,1.66,7.85-1.17,6.9-4.12-.96-2.95-3.38-7.27-5.63-5.99-2.25,1.28-5.07,6.65-5.07,6.65,0,0,2.88.99,3.8,3.46Z"/><path class="cls-10" d="m389.41,656s4.18-2.49,5.37-1.86c1.19.63,4.27-7.01.58-7.13-3.68-.12-6.02,1.72-6.11,2.98-.1,1.26.16,6.02.16,6.02Z"/><path class="cls-8" d="m364.22,828.25s-1.9-30.08,3.47-30.54c5.37-.46,6.44,108.17,0,112.2-6.44,4.02-10.47.85-10.45,8.41.02,7.57,0,19.17,0,19.17,0,0-6.43-22.49-4.12-26.86,2.31-4.37,7.33,1.85,11.11-5.25,3.77-7.1,3.43-56.72,0-77.14Z"/><path class="cls-5" d="m345.09,864.75l.82,10.85s9.2-.31,10.27-.92v-8.4l-11.09-1.53Z"/><path class="cls-5" d="m345.91,875.6s1.19,3.43.41,5.82c-.79,2.39-.72,2.69-8.34,4.15l-9.82-.72s8.88-1.03,9.22-2.5,0-6.75,0-6.75h8.54Z"/><path class="cls-5" d="m356.18,874.68s2.22,12.65-4.83,14.18c0,0,9.01,3.67,9.57,4.98,0,0,4.05-2.9,3.3-19.89l-8.03.72Z"/><path class="cls-5" d="m351.35,888.87s-8.83-3.07-13.38-3.3c0,0-9.87,2.69-9.82,5.07s0,4.85,0,4.85l9.82,2.53s-.72-6.39,13.38-9.15Z"/><path class="cls-5" d="m337.97,898.01s7.56,2.29,13.38,2.01c0,0-6.75.8-7.21,6.62-.46,5.83-.16,11.67-.16,11.67,0,0-8.42,1.55-11.57,0,0,0,2.14-16.68,5.55-20.31Z"/><polygon class="cls-5" points="328.15 895.49 328.97 917.84 320.38 916.77 318.39 892.91 328.15 895.49"/><path class="cls-5" d="m328.97,917.84l3.45.48s-1.69,14.48-.23,17.15l-2.61-.15-.61-17.48Z"/><path class="cls-5" d="m329.58,935.32l-7.12-1.3v18.87s7.74.98,9.12.68l-1.99-18.25Z"/><path class="cls-5" d="m332.19,935.48s.4,13,2.65,18.15c0,0,11.71,1.15,13.65.62,0,0-5.42-11.72-5.42-18.32l-10.89-.46Z"/><path class="cls-5" d="m331.57,953.57l3.26.06s-1.27,2.09,2.87,8.37c4.14,6.29,8.13,11.96,8.13,11.96,0,0-9.86,1.23-13.28,0,0,0,.71-15.33-.97-20.39Z"/><path class="cls-5" d="m345.83,973.96l20.52-2.97s18.88,12.17,22.87,12.17c0,0-4.14,3.37-.92,6.75l-27.98,4.88-14.49-20.82Z"/><path class="cls-5" d="m360.32,994.79s-20.78,3.25-32.58,1.25c0,0-3.49,11.25-11.1,17.2,0,0,24.44,4.26,35.01,2.42,10.58-1.84,21.72-5.45,21.72-5.45l-13.06-15.43Z"/><path class="cls-5" d="m373.38,1010.21l11.55,16.03s36.49-14.41,38.02-18.4c0,0-16.77-4.91-21.72-9.12,0,0-4.44,7.11-27.85,11.49Z"/><path class="cls-5" d="m384.93,1026.25l10.77,13.95s-9.85-4.29-15.06-12.57l4.29-1.38Z"/><path class="cls-9" d="m395.7,1040.2s44.12,2.45,49.18-30.36c0,0,19.58-3.98,19.83,6.29.25,10.27-13.17,37.1-69.01,24.07Z"/><path class="cls-9" d="m263.5,1048.78s30.18-27.79,46.37-24.47c16.19,3.32,13.79,13.89,3.33,15.89-10.45,1.99-27.23,12-1.67,13.74,25.56,1.74,67.62-6.3,61.85-16.54-5.78-10.24-19.27-12.34-13.06-16.19,6.21-3.86,20.32,6.42,20.32,6.42,0,0-7.21-9.05-15.03-8.74-7.82.31-9.66,3.83-8.43,6.29,1.23,2.45,17.69,9.96-.51,15.02-18.2,5.06-52.54,9.2-41.2,2.61,11.35-6.59,12.57-21.16-9.35-20.09-21.93,1.07-42.62,26.07-42.62,26.07Z"/><path class="cls-5" d="m332.55,973.96s.56,10.89-4.81,22.08l-27.91-2.45,24.78-19.79,7.93.16Z"/><path class="cls-7" d="m292.74,852.49s.27-1.81,1.92-.59c1.65,1.22,2.28,4.87-1.16,6.93-3.43,2.06-5.69.75-6.35-1.48s-.13-8.1,2.53-9.95c2.65-1.85,6.27-3.61,9.25-1.38s8.23,4.02,11.83.78c3.6-3.24,8.61-9.79,5.37-15.27-3.24-5.48-9.09-2.92-9.97.07-.88,3,1.37,9.36,4.18,5.23,0,0-2.44-.14-2.71-1.66-.28-1.53-.88-4.05,1.36-5.2,2.23-1.15,5.65.64,6.3,3.68s-1.36,9.87-5.88,11.43c-4.52,1.56-6.83.19-10.23-.99-3.39-1.18-8.56-2.23-11.17,2.02-2.61,4.25-4.81,10.71-1.62,13.35,3.18,2.64,7.81,2.39,9.83-.2,2.03-2.59,2.95-6.64-.52-8.8-3.47-2.15-6.45,2.93-5.5,4.46s3.28,1.59,3.51-.38c.23-1.97-.96-2.07-.96-2.07Z"/><path class="cls-7" d="m313.81,826.73s-1.02-.73-.02-2.9,2.75-2.46,4.14-1.26-1.92,3.74-4.13,4.15Z"/><path class="cls-7" d="m316.42,828.78s.99-2.18,2.2-3.11c1.21-.93,2.22.71,1.79,1.9-.43,1.19-3.99,1.22-3.99,1.22Z"/><path class="cls-7" d="m311.94,825.65s1.13-3.28-1.34-5.11c-2.47-1.84-3.27,2.82-1.89,3.75,1.38.94,2.36-.07,3.23,1.36Z"/><path class="cls-7" d="m312.66,832.13c-.2-1.17-2.84-1.81-3.57-.28-.74,1.54.91,2.69,1.86,2.56.95-.13,1.87-1.37,1.71-2.28Z"/><path class="cls-7" d="m306.54,838.5s-1.14-.16-1.91.98c-.77,1.14-.41,2.9,2.08,2.4,2.49-.51-.17-3.37-.17-3.37Z"/><path class="cls-7" d="m304.14,834.93s-2.77-1.55-3.87-.09-1.7,2.4-.26,3.12c1.44.72,4.02.25,4.12-3.03Z"/><path class="cls-7" d="m305.26,829.62s-2.09-2.14-3.79-.38c-1.7,1.76-.23,3.28,1.15,3.16,1.38-.11,2.64-2.79,2.64-2.79Z"/><path class="cls-7" d="m307.93,826.45s-2.27,2.09-4.48.93c-2.21-1.16-1.15-3.04.25-3.39,1.41-.36,4.29,1.45,4.22,2.46Z"/><path class="cls-7" d="m271.7,669.55s2.42.55.6,2.65c-1.82,2.1-6.8,2.58-9.24-2.27-2.44-4.84-.43-7.75,2.64-8.42,3.07-.68,10.95.65,13.17,4.42,2.23,3.77,4.23,8.82.92,12.62-3.31,3.79-6.26,10.7-2.26,15.87,4,5.18,12.34,12.61,20.06,8.8,7.72-3.81,4.86-11.96.91-13.46-3.95-1.49-12.77.9-7.48,5.11,0,0,.43-3.27,2.52-3.49,2.09-.22,5.55-.77,6.88,2.36,1.33,3.13-1.44,7.56-5.6,8.13-4.17.57-13.18-2.84-14.82-9.1-1.65-6.26.44-9.24,2.38-13.7,1.94-4.46,3.87-11.32-1.59-15.27s-13.96-7.57-17.85-3.55c-3.89,4.02-4.02,10.29-.73,13.29,3.29,3,8.66,4.65,11.92.19,3.26-4.46-3.29-9-5.47-7.88-2.17,1.13-2.48,4.27.15,4.78,2.63.51,2.89-1.08,2.89-1.08Z"/><path class="cls-7" d="m304.32,700.59s1.08-1.3,3.91.27c2.83,1.57,3.04,3.96,1.27,5.72-1.77,1.76-4.85-2.97-5.18-5.99Z"/><path class="cls-7" d="m301.29,703.9s2.84,1.56,3.97,3.28-1.18,2.93-2.74,2.22c-1.56-.7-1.23-5.51-1.23-5.51Z"/><path class="cls-7" d="m305.97,698.19s4.31,1.85,7.04-1.3c2.73-3.15-3.47-4.7-4.87-2.93-1.4,1.77-.15,3.19-2.16,4.22Z"/><path class="cls-7" d="m297.15,698.49c1.6-.16,2.74-3.64.74-4.79s-3.73.95-3.64,2.25c.08,1.3,1.66,2.67,2.91,2.54Z"/><path class="cls-7" d="m289.17,689.6s.33-1.53-1.12-2.68c-1.46-1.15-3.88-.84-3.44,2.57.43,3.41,4.57.11,4.57.11Z"/><path class="cls-7" d="m294.23,686.72s2.37-3.58.52-5.21-3.07-2.53-4.19-.66c-1.11,1.87-.75,5.4,3.67,5.87Z"/><path class="cls-7" d="m301.28,688.77s3.1-2.6.89-5.08c-2.2-2.48-4.4-.64-4.39,1.23.01,1.87,3.49,3.85,3.49,3.85Z"/><path class="cls-7" d="m305.29,692.69s-2.59-3.27-.8-6.14c1.79-2.86,4.21-1.25,4.55.69.34,1.94-2.4,5.64-3.75,5.45Z"/><ellipse class="cls-8" cx="330.87" cy="833.4" rx="1.96" ry="3.08" transform="translate(-358.37 259.84) rotate(-28.58)"/><ellipse class="cls-8" cx="334.7" cy="849.51" rx="1.18" ry="1.85" transform="translate(-28.83 11.93) rotate(-1.96)"/><path class="cls-7" d="m332.86,827c-2.44-1.91-5.65-1.53-7.12,1.91-1.47,3.44,1.18,11.74,5.58,12.42,4.4.69,7.19-9.91,1.54-14.33Zm-1.73,10.92c-2.51-.39-4.01-5.11-3.18-7.07.83-1.96,2.66-2.18,4.05-1.09,3.22,2.52,1.63,8.55-.88,8.16Z"/><path class="cls-7" d="m331.58,845.51c-2.32.91-.7,3.51-.28,5.05,0,0,1.02,2.8,2.29,3.68,1.27.88,2.92,1.2,4.16-4.63,1.24-5.83-3.85-5.01-6.17-4.1Zm5.13,4.19c-.74,3.48-1.72,3.29-2.48,2.76-.76-.53-1.37-2.19-1.37-2.19-.25-.92-1.22-2.47.17-3.02,1.39-.54,4.42-1.03,3.68,2.45Z"/><path class="cls-7" d="m321.29,712.46c-.13-2.27-1.68,6.42,2.41,5.96,4.09-.46,6.11-5.56,3.78-6.39-2.33-.83-5.98.12-4.13,2.25,1.85,2.13,3.92-.69,2.86-.93-1.06-.23-1.68.44-1.68.44,0,0-.52-1.8,1.62-1.39,2.14.4,1.31,3.79-.74,4.14-2.05.35-3.96-1.17-4.13-4.08Z"/><path class="cls-7" d="m333.15,742.77c1.04,2.19,4.38,3.02,5.9.52,1.52-2.5-.82-5.45-3.33-5.51-2.51-.06-4.03,1.91-2.56,4.98Zm1.3-3.53c1.24-1.92,3.99,1.28,3.68,2.68-.3,1.4-2.46,1.57-3.38.67-.72-.71-1.54-1.42-.3-3.34Z"/><path class="cls-7" d="m335.67,742.16c.38.14,2.34-1.68.77-2.34-1.57-.66-2.99,1.52-.77,2.34Z"/><path class="cls-7" d="m336.71,750.46c2.74,3.45,3,3.3,3.98,2.05.98-1.25,3.32-2.67,1.46-4.3s-4.39-2.26-4.39-2.26"/><path class="cls-7" d="m339.48,745.09s2.03.14,3.28.73c1.25.59,2.94.03,2.36-2.39-.58-2.43-.15-2.79.03-3.87.18-1.08-4.07.13-4.32.46s.3,4.16-1.35,5.08Z"/><path class="cls-7" d="m340.34,737.72s4.22-4.46,1.77-5.72c-2.45-1.26-2.64,1.43-4.2.44s-5.3-.42-3.34,3.48c0,0,4.09-.02,5.77,1.8Z"/><path class="cls-7" d="m332.73,737.06s-.32-3.73-2.76-2.63c-2.44,1.1-.89,4.06.84,5.25,1.73,1.19,1.92-2.62,1.92-2.62Z"/><path class="cls-7" d="m300.43,736.1c-.48,2.38,1.67,5.05,4.39,3.97,2.72-1.08,2.62-4.84.65-6.4-1.97-1.56-4.37-.9-5.05,2.43Zm3.16-2.04c2.15-.79,2.41,3.42,1.33,4.36-1.08.93-2.91-.23-3.1-1.5-.15-.99-.38-2.06,1.77-2.85Z"/><path class="cls-7" d="m302.81,737.14c.22.34,2.88.07,2.02-1.4-.85-1.47-3.3-.58-2.02,1.4Z"/><path class="cls-7" d="m298.64,744.39c.11,4.4.41,4.44,1.95,4.03s4.25-.13,3.75-2.56c-.5-2.42-2.14-4.44-2.14-4.44"/><path class="cls-7" d="m304.08,741.77s1.54,1.33,2.17,2.56,2.33,1.8,3.33-.49,1.56-2.31,2.35-3.07-3.32-2.35-3.72-2.24c-.4.11-2.27,3.5-4.13,3.24Z"/><path class="cls-7" d="m309.21,736.4s6.06-1.02,4.86-3.51c-1.2-2.49-2.97-.45-3.62-2.18-.65-1.72-3.98-3.52-4.76.77,0,0,3.28,2.45,3.52,4.91Z"/><path class="cls-7" d="m303.53,731.3s1.99-3.17-.62-3.76c-2.61-.6-3.16,2.71-2.49,4.7.67,1.99,3.11-.94,3.11-.94Z"/><path class="cls-7" d="m317.67,711.37s-5.07-1.67-4.13,2.25c.94,3.92,1.31,8.78,3.47,7.61,2.15-1.17,3.11-5.36,3.11-5.36,0,0-.97-3.18-.12-3.88.85-.7-2.32-.61-2.32-.61Z"/><path class="cls-7" d="m321.08,718.13s-3.81,2.95-2.57,4.89c1.23,1.95,6.32,4.24,6.21,3.07s-.64-4.35.23-5.01c.87-.66.56,5.1,4.21,3.19,3.66-1.9,1.07-3.07,4.1-3.95s-1.44-3.52-1.4-5.11c.04-1.59,4.65-3.58,1.92-4.01-2.74-.43-5.64-.07-4.87,2.65.76,2.73.25,7.55-7.83,4.26Z"/><path class="cls-8" d="m325.52,650.52s.46,11.19,4.91,10.89c4.45-.31,4.45,1.84,4.6,4.6.15,2.76,0,5.52,7.82,3.83,7.82-1.69,35.11-9.2,39.25-4.29,4.14,4.91,3.07,25,0,25.92-3.07.92-6.75-2.3-5.83-10.12.92-7.82,2.45-16.71-2.91-15.79-5.37.92-2.71,6.22-2.12,10.47.59,4.25,5.04,21.05-2.55,19.47-7.59-1.58-4.39-15.75-5.07-19.47s-1.9-4.64-5.58-4.03c-3.68.61-4.49-.03-2.86,7.19,1.63,7.22,3.54,16.1-1.94,16.42-5.48.31-9.16-1.07-7.47-11.49,1.69-10.43-1.63-11.62-5.88-11.02-4.24.6-3.17.9-2.56,5.96.61,5.06,1.23,20.09-.61,22.85,0,0,49.52,7.67,52.9-5.83,3.37-13.49,2.76-40.17-1.23-48.3,0,0,1.97-2.6-5.07-3.37-7.04-.77-12.25-2.92-11.03,3.21,1.23,6.13,3.53,11.19-1.07,12.27-4.6,1.07-6.44,3.37-7.21-4.91-.77-8.28.73-12.41-9.29-11.57-10.03.84-9.72,1.15-6.96,8.51,2.76,7.36,5.06,11.5-1.07,12.27s-8.74,2.61-10.12-4.29c-1.38-6.9-.46-11.81-11.04-9.35Z"/><path class="cls-3" d="m695.39,765.53s-7.79,4.54-3.24,7.14c4.54,2.6,11.43,1.27,14.8-9.42,3.37-10.69-7.08-16.12-24.24-7.57-17.16,8.55-25.46,30.98-10.93,36.32,14.53,5.34,21.02,1.44,30.76-6.99,9.73-8.44,27.11-18.53,43.73-5.37,16.62,13.16,68,15.4,77.36,0,9.36-15.4.52-32.51-21.02-28.17-21.54,4.34-28.19,3.58-26.17,8.83,2.03,5.24,1.38,14.33-21.99,5.89-23.36-8.44-1.95-25.31,5.19-24.01,7.14,1.3,9.73,4.54,6.49,4.54s-13.06,5.14-6.85,10.68c6.2,5.54,21.13,2.3,19.18-12.63s-13.63-27.91-36.34-24.66c-22.71,3.24-22.07,29.85-28.56,33.1-6.49,3.24,4.26,17.81-17.34,26.43-21.6,8.62-19.65-11.5-13.16-14.75s11.68-3.89,12.33.65Z"/></svg>