<?xml version="1.0" encoding="UTF-8"?><svg id="Color1" xmlns="http://www.w3.org/2000/svg" xmlns:xlink="http://www.w3.org/1999/xlink" viewBox="0 0 1080 1137"><defs><style>.cls-1,.cls-2,.cls-3{fill:none;}.cls-4{fill:#011720;}.cls-5{fill:#03b083;}.cls-6{fill:#fff;}.cls-7{fill:#064862;}.cls-8{fill:#0c6b86;}.cls-9{fill:#48bcc4;}.cls-2{stroke-width:2px;}.cls-2,.cls-3{stroke:#011720;stroke-miterlimit:10;}.cls-10{fill:url(#Degradado_sin_nombre_34);}</style><radialGradient id="Degradado_sin_nombre_34" cx="530.36" cy="604.57" fx="530.36" fy="604.57" r="178.06" gradientUnits="userSpaceOnUse"><stop offset="0" stop-color="#48bdc5"/><stop offset=".52" stop-color="#168ea3"/><stop offset=".78" stop-color="#0c6b87"/><stop offset=".99" stop-color="#0c6b87"/></radialGradient></defs><path class="cls-10" d="m440.63,798.89c11.09,41.09,185.02,15.2,194.65-27.01,9.63-42.21,45.55-377.47,12.32-381.82-33.23-4.35-224.45,20.24-240.55,30.64-16.11,10.4-8.11,223.77,33.58,378.2Z"/><path class="cls-6" d="m668.17,761.98c-46.78,6.68-70.27,26.66-123.58,21.81-53.31-4.85-162.36,10.9-195.07,47.25-32.71,36.35,43.59,23.11,87.22,40.63,43.63,17.53,90.53,36.99,115.54,73.3,25.02,36.31,41.98,65.39,41.98,82.35s-6.06,69.06,8.48,69.06-12.3-87.58,10.21-100.74c22.51-13.16,69.48-64.04,101.12-66.47,31.64-2.42,84.95-41.19,84.95-82.39s13.33-61.79-37.56-67.85c-50.89-6.06-59.37-21.81-93.29-16.96Z"/><path class="cls-8" d="m602.74,1100c-2.58,0-4.94-1.04-6.82-3.01-7.52-7.91-7.06-30.35-5.76-56.68.26-5.25.48-9.79.48-12.98,0-17.99-22.09-52.36-41.34-80.3-24.99-36.28-74.3-56.08-113.91-71.99-15.11-6.07-34.59-8.38-51.78-10.42-22.95-2.72-41.08-4.87-44.93-15.1-2.14-5.69.45-12.32,8.15-20.89,20.39-22.66,66.25-34.91,91.77-40.2,36.49-7.56,78.22-10.79,106.32-8.24,32.57,2.96,53.92-3.59,76.52-10.53,13.95-4.28,28.37-8.71,46.22-11.26h0c19.53-2.79,31.16,1.01,45.9,5.83,11.52,3.76,25.85,8.45,48.34,11.12,44.69,5.32,43.48,23.3,41.65,50.52-.42,6.22-.89,13.27-.89,20.93,0,26.58-19.95,48.03-31.84,58.45-17.64,15.46-39.79,26.27-56.45,27.54-20.15,1.54-48.12,24.91-70.59,43.68-11.47,9.58-21.37,17.86-28.98,22.31-10.63,6.21-7.68,37.5-5.53,60.34,2.02,21.41,2.94,33.76-1.52,38.67-1.32,1.45-3.04,2.22-4.98,2.22Zm-79.87-313.49c-58.18,0-143.58,16.85-170.67,46.96-5.38,5.98-7.79,10.78-6.76,13.5,2.3,6.11,20.96,8.33,39.01,10.47,17.64,2.09,37.63,4.46,53.63,10.89,40.52,16.27,90.94,36.53,117.17,74.6,29.87,43.36,42.62,68.6,42.62,84.4,0,3.37-.23,7.99-.49,13.34-.78,15.74-2.22,45.04,3.78,51.34.53.56.97.72,1.35.76,2.35-3.06.66-21.01-.47-32.96-2.59-27.53-5.54-58.73,9.08-67.27,7.09-4.14,16.78-12.24,28-21.61,23.26-19.43,52.21-43.62,74.67-45.34,30.75-2.35,81.61-40.15,81.61-78.78,0-7.9.48-15.08.91-21.41,1.83-27.11,2.59-38.34-35.28-42.84-23.2-2.76-37.91-7.57-49.73-11.43-14.38-4.7-24.77-8.09-42.63-5.54h0c-17.29,2.47-31.44,6.81-45.12,11.01-23.3,7.15-45.31,13.91-79.3,10.82-6.52-.59-13.72-.89-21.38-.89Z"/><path class="cls-7" d="m594.82,1004.35s26.26-57.68-12.59-89.44c-38.85-31.76-117.61-53.57-65.51-79.01,52.1-25.44,117.53-52.1,147.82-46.04,30.29,6.06,61.79,33.92,30.29,38.77-31.5,4.85-10.9,2.42-65.43,12.12-54.52,9.69-67.19,60.97-25.72,55.93,41.47-5.04,109.31-.11,152.33-24.99,43.02-24.88,15.7-90.02-56.67-99.86-72.37-9.84-132.95,34.99-234.72,34.99s-82.39,35.14-35.14,47.25c47.25,12.12,147.72,70.37,165.34,150.29Z"/><path class="cls-9" d="m477.2,641.93s-38.49,5.7-41.45,5.81c-2.96.11-8.48,3.27-21.81-12.55-13.33-15.82-32.38-54.72-22.91-71.37,9.48-16.65,22.2-17.41,41.29-22.55,19.09-5.14,37.07-8.17,42.36,15.07,5.29,23.23,12.39,55.3-4.45,57.09s-31.67,5.75-39.88-3.89c-8.21-9.64-26.17-30.63-17.05-40.75,9.12-10.12,29.54-11.16,36.31-4.58,6.76,6.57,4.97,16.34,1.63,19.4-3.34,3.05-6.31,2.87-10.88-.53-4.57-3.39-8.48,7.28-3.07,9.45,5.42,2.18,15.88,8.47,22.67-8.68,6.79-17.15,4.98-21.98-11.43-28.94-16.41-6.97-31.36-1.97-36.73,1.04-5.38,3.01-8.47,7.57-8.77,15.59s-.99,41.99,11.8,55.32c12.79,13.32,20.28,15.42,38.67,15.65,18.39.22,23.7-.56,23.7-.56Z"/><path class="cls-5" d="m554.01,507.36s-45.67,6.76-49.19,6.89c-3.51.13-10.06,3.88-25.88-14.89-15.81-18.78-38.43-64.93-27.18-84.69,11.25-19.76,26.34-20.66,48.99-26.76,22.65-6.1,43.98-9.69,50.26,17.88,6.28,27.57,14.7,65.62-5.28,67.75-19.98,2.13-37.58,6.82-47.32-4.61-9.74-11.43-31.05-36.35-20.23-48.35,10.82-12,35.06-13.24,43.08-5.44,8.02,7.8,5.89,19.39,1.94,23.01-3.96,3.62-7.49,3.4-12.91-.62-5.42-4.03-10.07,8.63-3.64,11.22,6.43,2.58,18.84,10.05,26.9-10.3,8.06-20.35,5.91-26.08-13.56-34.34-19.48-8.26-37.21-2.34-43.59,1.23-6.38,3.57-10.05,8.99-10.41,18.5-.36,9.51-1.18,49.83,14,65.64,15.18,15.81,24.06,18.3,45.89,18.57,21.83.26,28.12-.67,28.12-.67Z"/><path class="cls-7" d="m579.93,496.71s32.45-.04,34.9.23c2.46.27,7.39-1.67,16.47,13,9.08,14.67,20.09,49.07,10.25,61.66-9.84,12.59-20.43,11.68-36.8,13.61-16.37,1.93-31.57,2.25-33.12-17.56-1.55-19.81-3.52-47.12,10.59-46.57s26.82-.9,32.43,8.04c5.6,8.94,17.88,28.44,9.13,35.68-8.75,7.24-25.73,5.62-30.51-.62-4.78-6.24-2.12-14.08,1-16.2,3.12-2.12,5.55-1.6,8.91,1.75,3.36,3.35,7.88-4.98,3.68-7.43-4.21-2.45-12.07-8.91-19.75,4.42-7.68,13.33-6.77,17.53,5.92,25.26,12.7,7.74,25.63,5.43,30.43,3.59,4.8-1.83,7.91-5.22,9.13-11.8,1.22-6.58,5.91-34.53-3.03-47.07-8.94-12.54-14.86-15.18-30.01-17.59-15.15-2.41-19.62-2.41-19.62-2.41Z"/><rect class="cls-4" x="519.92" y="639.71" width="83.71" height="134.9"/><path class="cls-6" d="m605.08,776.05h-86.59v-137.78h86.59v137.78Zm-83.71-2.88h80.83v-132.02h-80.83v132.02Z"/><path class="cls-9" d="m604.64,349.37c-21.16,22.84-25.43,55-11.7,88.25,8.88,21.51,25.34,36.99,48.92,45.99,45.26,17.29,105.47,5.61,120.71-1.75,6.95-3.36,14.69-4.93,22.5-4.93,19.94,0,40.41,10.23,49.87,27.16,1.45,2.59,2.98,5.56,4.6,8.7,12.66,24.53,33.85,65.58,89.57,67.57,31.33,1.11,58.8-9.78,75.42-29.89,14.5-17.55,19.51-40.18,14.1-63.74-4.27-18.63-14.51-32.69-30.42-41.81-19.83-11.36-45.55-12.48-60.69-7.71-13.11,4.13-25.23,2.22-33.23-5.24-7.82-7.28-10.71-19.08-7.74-31.55,9.29-38.98-3.03-50.68-16.3-56.99-27.54-13.09-47.85-13.5-72.47-1.49-5.87,2.87-19.37,12.52-17.92,40.15.32,6.03,8.9,10.04,16.74,11.21,8.52,1.27,18.71-.46,20.79-6.18,1.74-4.78,1.85-8.44,1.95-11.39.25-7.95,2.23-11.49,13.81-12.83,6.53-.75,12.74,1.85,17.45,7.33,9.1,10.58,11.32,29.75,5.8,50.03-3.02,11.1-2.44,19.56,1.77,25.88,5.64,8.47,18.15,13.7,39.36,16.48,23.45,3.07,44.8,17.9,45.68,31.75.42,6.6-3.17,15.53-22.67,20.65-19.8,5.2-39.45-.09-58.4-15.72-17.6-14.52-30.34-34.44-37.94-48.59-16.29-30.37-47.35-34.17-64.24-29.31-5.56,1.6-10,7.95-14.7,14.68-8.4,12.02-18.85,27-41.62,23.33-12.81-2.06-20.83-9.62-22.58-21.3-2.38-15.82,7.53-35.25,17.3-40.07,8.11-3.99,15.53-.88,19.41,3,3.25,3.25,4.35,7.12,2.87,10.11-.81,1.63-3.02,4.26-8.81,3.5-1.73-.23-2.78,1.19-3.35,2.42-1.2,2.59-1.12,6.47,1.09,8.49,2.99,2.73,9.67,1.51,17.86-3.26,12.05-7.02,18.44-21.62,16.69-38.12-1-9.41-7.78-41.25-53.1-56.03-1.73-.56-3.46-1.06-5.2-1.51-3.55,7.39-4.68,13.1-4.68,13.1,0,0,1.08-5.42,1.53-13.86-28.68-6.28-58.55,2.49-78,23.48Z"/><path class="cls-6" d="m1025.69,485.13c-4.68-20.38-16.39-36.45-33.88-46.47-22.64-12.97-50.33-13.41-66.46-8.33-10.72,3.37-20,2.08-26.13-3.64-5.98-5.57-8.03-14.53-5.64-24.58,5.54-23.25,8.25-51.67-20.23-65.2-29.41-13.98-52.23-14.4-78.75-1.45-14.92,7.28-23.14,24.87-21.97,47.03.47,8.92,9.45,15.98,22.89,17.99,11.67,1.74,25.05-.94,28.66-10.87,2.13-5.86,2.27-10.35,2.38-13.63.15-4.75.16-5.04,7.41-5.87,5.22-.6,8.94,2.31,11.13,4.86,9.04,10.51,7.97,29.96,4.31,43.41-3.6,13.23-2.71,23.63,2.73,31.79,6.98,10.48,20.68,16.53,44.44,19.64,17.27,2.26,38.69,13.93,39.39,25.03.47,7.41-10.63,11.45-17.28,13.2-17.42,4.58-34.9-.24-51.95-14.3-13.02-10.74-25.87-27.24-36.17-46.43-18.32-34.15-53.46-38.35-72.62-32.84-8.03,2.31-13.18,9.68-18.63,17.49-7.99,11.44-16.26,23.27-34.54,20.34-9.71-1.56-15.29-6.69-16.58-15.24-1.97-13.09,6.8-29.28,13.35-32.5,4.22-2.08,7.62-.75,9.27.22,1.54.91,2.48,2.03,2.92,2.81-.26,0-.58-.02-.98-.07-4.54-.6-8.7,1.91-10.85,6.55-2.33,5.01-2.12,12.42,2.78,16.88,3.25,2.96,11,6.59,26.37-2.36,14.55-8.47,22.3-25.77,20.24-45.14-1.12-10.5-8.6-46.01-58.05-62.15-1.28-.42-2.57-.8-3.86-1.16-.68,1.09-1.32,2.17-1.9,3.23-.62,1.12-1.18,2.23-1.7,3.29,1.74.45,3.48.95,5.2,1.51,45.31,14.79,52.1,46.63,53.1,56.03,1.75,16.5-4.64,31.11-16.69,38.12-8.19,4.77-14.87,5.99-17.86,3.26-2.21-2.01-2.29-5.9-1.09-8.49.57-1.23,1.62-2.64,3.35-2.42,5.79.76,8.01-1.87,8.81-3.5,1.47-2.99.37-6.87-2.87-10.11-3.88-3.88-11.3-7-19.41-3-9.78,4.82-19.68,24.26-17.3,40.07,1.76,11.68,9.78,19.25,22.58,21.3,22.77,3.66,33.22-11.31,41.62-23.33,4.7-6.73,9.14-13.08,14.7-14.68,16.9-4.86,47.95-1.06,64.24,29.31,7.59,14.15,20.34,34.07,37.94,48.59,18.95,15.63,38.59,20.92,58.4,15.72,19.49-5.12,23.09-14.06,22.67-20.65-.88-13.84-22.22-28.68-45.68-31.75-21.21-2.78-33.72-8.01-39.36-16.48-4.21-6.32-4.79-14.78-1.77-25.88,5.52-20.28,3.29-39.45-5.8-50.03-4.71-5.48-10.92-8.08-17.45-7.33-11.58,1.34-13.56,4.88-13.81,12.83-.09,2.95-.21,6.61-1.95,11.39-2.08,5.72-12.27,7.46-20.79,6.18-7.84-1.17-16.42-5.18-16.74-11.21-1.45-27.63,12.05-37.28,17.92-40.15,24.61-12.02,44.93-11.6,72.47,1.49,13.27,6.31,25.59,18.01,16.3,56.99-2.97,12.47-.08,24.27,7.74,31.55,8.01,7.46,20.12,9.37,33.23,5.24,15.15-4.76,40.86-3.65,60.69,7.71,15.91,9.12,26.15,23.18,30.42,41.81,5.4,23.55.39,46.19-14.1,63.74-16.62,20.11-44.09,31-75.42,29.89-55.71-1.99-76.9-43.05-89.57-67.57-1.62-3.14-3.15-6.11-4.6-8.7-9.46-16.93-29.93-27.16-49.87-27.16-7.81,0-15.55,1.57-22.5,4.93-15.25,7.36-75.45,19.03-120.71,1.75-23.58-9.01-40.04-24.48-48.92-45.99-13.73-33.25-9.46-65.42,11.7-88.25,19.45-20.99,49.31-29.76,78-23.48.06-1.17.11-2.4.14-3.68.03-1.18.05-2.41.04-3.67-30.75-6.25-62.6,3.37-83.49,25.91-23.16,25-27.93,59.96-13.08,95.93,9.67,23.43,27.51,40.25,53.03,49.99,47.97,18.32,109.89,6,126.44-1.99,21.5-10.37,51.48-1.2,62.91,19.25,1.39,2.48,2.89,5.4,4.49,8.49,13.39,25.94,35.79,69.35,95.74,71.49,1.55.06,3.09.08,4.63.08,31.66,0,59.4-11.74,76.63-32.6,15.96-19.32,21.5-44.17,15.58-69.96Z"/><path class="cls-2" d="m724.14,200.22c-57.77-41.25-65.47,42.21-50.69,73.13,7.47,15.62,9.34,32.4,9.37,45.19,0,1.27-.01,2.49-.04,3.67-.03,1.28-.08,2.51-.14,3.68-.44,8.44-1.53,13.86-1.53,13.86,0,0,1.13-5.71,4.68-13.1.51-1.07,1.08-2.17,1.7-3.29.58-1.06,1.22-2.14,1.9-3.23,4.3-6.87,10.64-14.15,19.86-19.3,22.98-12.85,72.67-59.36,14.9-100.6Zm6.11,44.15c-1.04,17.45-25.74,44.44-39.67,19.7-13.93-24.73-8.9-51.82,11.57-51.12,17.47.59,29.14,13.97,28.09,31.42Z"/><path class="cls-5" d="m763.04,640.94c-79.94-4.89-73.65,80.32-56.71,100.52,16.94,20.2,5.2,51.47,5.2,51.47,16.69-42.04,38.89-33.41,72.22-54.46,14.56-9.2,59.23-92.64-20.7-97.53Zm-2.39,77.43c-10.56,12.36-47.59,10.64-40.58-22.57,7.01-33.22,18.21-33.04,37.61-26.39,18.26,6.26,13.53,36.6,2.97,48.96Z"/><path class="cls-3" d="m476.6,642.56s-38.49,5.7-41.45,5.81c-2.96.11-8.48,3.27-21.81-12.55-13.33-15.82-32.38-54.72-22.91-71.37,9.48-16.65,22.2-17.41,41.29-22.55s37.07-8.17,42.36,15.07c5.29,23.23,12.39,55.3-4.45,57.09-16.84,1.8-31.67,5.75-39.88-3.89-8.21-9.64-26.17-30.63-17.05-40.75,9.12-10.12,29.54-11.16,36.31-4.58,6.76,6.57,4.97,16.34,1.63,19.4-3.34,3.05-6.31,2.87-10.88-.53-4.57-3.39-8.48,7.28-3.07,9.45,5.42,2.18,15.88,8.47,22.67-8.68,6.79-17.15,4.98-21.98-11.43-28.94-16.41-6.97-31.36-1.97-36.73,1.04-5.38,3.01-8.47,7.57-8.77,15.59-.3,8.02-.99,41.99,11.8,55.32,12.79,13.32,20.28,15.42,38.67,15.65,18.39.22,23.7-.56,23.7-.56Z"/><path class="cls-3" d="m553.41,507.98s-45.67,6.76-49.19,6.89c-3.51.13-10.06,3.88-25.88-14.89-15.81-18.78-38.43-64.93-27.18-84.69,11.25-19.76,26.34-20.66,48.99-26.76,22.65-6.1,43.98-9.69,50.26,17.88,6.28,27.57,14.7,65.62-5.28,67.75-19.98,2.13-37.58,6.82-47.32-4.61-9.74-11.43-31.05-36.35-20.23-48.35s35.06-13.24,43.08-5.44c8.02,7.8,5.89,19.39,1.94,23.01s-7.49,3.4-12.91-.62c-5.42-4.03-10.07,8.63-3.64,11.22,6.43,2.58,18.84,10.05,26.9-10.3,8.06-20.35,5.91-26.08-13.56-34.34-19.48-8.26-37.21-2.34-43.59,1.23-6.38,3.57-10.05,8.99-10.41,18.5-.36,9.51-1.18,49.83,14,65.64,15.18,15.81,24.06,18.3,45.89,18.57,21.83.26,28.12-.67,28.12-.67Z"/><path class="cls-3" d="m579.32,497.34s32.45-.04,34.9.23c2.46.27,7.39-1.67,16.47,13,9.08,14.67,20.09,49.07,10.25,61.66-9.84,12.59-20.43,11.68-36.8,13.61-16.37,1.93-31.57,2.25-33.12-17.56-1.55-19.81-3.52-47.12,10.59-46.57,14.11.56,26.82-.9,32.43,8.04,5.6,8.94,17.88,28.44,9.13,35.68-8.75,7.24-25.73,5.62-30.51-.62-4.78-6.24-2.12-14.08,1-16.2,3.12-2.12,5.55-1.6,8.91,1.75s7.88-4.98,3.68-7.43c-4.21-2.45-12.07-8.91-19.75,4.42-7.68,13.33-6.77,17.53,5.92,25.26,12.7,7.74,25.63,5.43,30.43,3.59,4.8-1.83,7.91-5.22,9.13-11.8,1.22-6.58,5.91-34.53-3.03-47.07-8.94-12.54-14.86-15.18-30.01-17.59-15.15-2.41-19.62-2.41-19.62-2.41Z"/><path class="cls-3" d="m762.68,641.7c-79.94-4.89-73.65,80.32-56.71,100.52,16.94,20.2,5.2,51.47,5.2,51.47,16.69-42.04,38.89-33.41,72.22-54.46,14.56-9.2,59.23-92.64-20.7-97.53Zm-2.39,77.43c-10.56,12.36-47.59,10.64-40.58-22.57,7.01-33.22,18.21-33.04,37.61-26.39,18.26,6.26,13.53,36.6,2.97,48.96Z"/><path class="cls-5" d="m383.74,49.69c-71.14,13.13-47.06,86.47-27.81,100.48,19.25,14.02,15.77,43.99,15.77,43.99,5.47-40.5,26.82-37.76,51.44-63.48,10.76-11.24,31.74-94.13-39.4-80.99Zm14.78,68.41c-6.57,13.13-39.4,19.7-40.5-10.94-1.09-30.65,8.76-32.93,27.22-31.33,17.37,1.5,19.84,29.14,13.27,42.27Z"/><path class="cls-7" d="m241.46,210.58c-65.68,38.97-129.15,89.75-110.54,201.39,18.61,111.64,226.56,193.73,331.63,117.11,105.07-76.61,142.83-161.44,97.96-250.09-44.87-88.65-171.84-120.39-249.54-63.48-77.71,56.91-60.2,129.15-29.55,146.66,30.65,17.51,76.61-10.94,63.48-42.69-13.13-31.74-44.87-16.42-44.87-16.42,0,0-1.09-12.04,16.42-16.42,17.51-4.38,71.14,50.35,24.08,99.6-47.06,49.25-112.73,41.59-114.92-32.83-2.19-74.43,67.86-130.24,75.52-143.38,7.66-13.13-27.36-18.61-59.65.55Z"/><path class="cls-6" d="m563.06,277.7c-22.13-43.72-64.66-75.94-116.68-88.39-50.04-11.98-100.02-3.27-137.11,23.9-51.98,38.07-57.76,78.88-56.57,99.82,1.28,22.63,11.99,42.9,27.29,51.64,19.34,11.05,43.27,4.68,56.91-7.33,12.28-10.81,16.25-25.37,10.64-38.94-4.13-9.98-10.44-16.64-18.76-19.82-9.49-3.62-19.24-1.76-24.96,0,1.41-3.08,4.87-7.04,13.31-9.15,5.97-1.49,21.04,7.38,31.1,24.68,6.51,11.2,18.59,40.46-9.78,70.16-24.27,25.4-54.82,36.1-77.84,27.26-19.85-7.62-31.27-28.29-32.15-58.2-1.71-58.23,42.4-105.61,63.6-128.38,5.7-6.12,9.82-10.55,11.53-13.47,2.29-3.92,1.87-7.89-1.14-10.88-4.24-4.21-13.57-6.1-24.96-5.05-12.46,1.15-25.77,5.61-37.49,12.56-30.58,18.14-64.91,41.15-87.78,74.28-24.83,35.98-32.72,78.51-24.13,130.04,8.42,50.51,56.54,99.42,125.6,127.62,34.94,14.27,71.63,21.77,106.39,21.77,1.35,0,2.71-.01,4.05-.03,39.11-.66,73.73-11.18,100.1-30.41,53.53-39.03,89.25-80,106.18-121.77,17.53-43.27,15.06-87.66-7.35-131.93Zm2.04,129.78c-16.52,40.77-51.59,80.9-104.24,119.29-25.42,18.53-58.9,28.67-96.83,29.31-35.16.6-72.59-6.77-108.18-21.31-67.23-27.46-114.02-74.69-122.11-123.26-8.33-49.99-.74-91.16,23.2-125.85,22.23-32.22,55.94-54.78,85.98-72.6,14.84-8.8,29.81-12.01,40.63-12.01,7.28,0,12.67,1.45,14.86,3.63.83.82,1.43,1.87.23,3.93-1.39,2.38-5.53,6.82-10.77,12.46-21.72,23.33-66.92,71.86-65.13,132.45,1.28,43.67,22.99,58.46,35.82,63.38,25.18,9.67,58.16-1.58,84.04-28.65,31.06-32.51,17.76-64.67,10.59-76.99-10.1-17.38-27.25-29.9-37.44-27.36-15.73,3.93-19.03,14.45-18.58,19.45l.38,4.1,3.72-1.78c.13-.06,13.47-6.33,25.52-1.71,6.77,2.59,11.97,8.19,15.47,16.64,4.7,11.37,1.38,23.2-9.13,32.45-12.11,10.66-33.27,16.37-50.28,6.65-13.66-7.81-23.24-26.25-24.42-46.99-1.12-19.78,4.44-58.4,54.24-94.87,35.74-26.17,83.99-34.54,132.4-22.95,50.38,12.07,91.53,43.2,112.9,85.41,21.63,42.73,24.04,85.53,7.15,127.19Z"/><path class="cls-1" d="m96.99,586.18s23.72-10.26,49.14-30.26c-21.37,15.67-49.14,30.26-49.14,30.26h0Z"/><path class="cls-1" d="m405.06,419.46l-21.99-31.96s-.02-.03-.03-.04h0c-16.23,11.54-33.48,23.41-51.06,35.18l-.14.09,4.27,46.5c10.69-6.33,65.41-47.03,68.83-49.58.06-.04.11-.08.17-.13-.02-.03-.04-.05-.05-.08Z"/><path class="cls-1" d="m333.29,472.37c.97-.69,1.93-1.39,2.9-2.08-.04-.67-.07-1.04-.07-1.04-.48.8-1.48,1.87-2.83,3.12Z"/><path class="cls-1" d="m125.82,527.21s-.62.19-1.67.5l1.62-.32c.02-.06.03-.12.05-.18Z"/><path class="cls-1" d="m105.23,518c-2.78,4.97-5.23,9.99-7.28,14.96h.01c.66-1.49,3.41-7.63,7.27-14.96Z"/><path class="cls-1" d="m405.12,419.54l-.05-.08s.04.05.05.08c0,0,0,0,0,0Z"/><path class="cls-1" d="m538.79,243.93c-1.1,1.4-2.22,2.81-3.35,4.23,1.66-1.98,2.84-3.46,3.35-4.22h0Z"/><path class="cls-1" d="m559.95,276.84c-3.87-12.45-21.16-32.91-21.16-32.91,0,0,17.74,23.21,21.16,32.91Z"/><path class="cls-1" d="m491.86,297.45s-.04.04-.06.06h0s.04-.04.06-.06Z"/><path class="cls-1" d="m288.05,451.43s-.09.06-.13.08h0s.13-.08.13-.08Z"/><path class="cls-1" d="m518.88,175.73s0,0,0,0c-2.79,2.57-20.63,16.9-30.21,24.56-3.6,3.11-5.67,4.97-5.67,4.97,0,0,36.35-28.86,35.89-29.53Z"/><polygon class="cls-1" points="545.28 235.54 545.27 235.55 545.27 235.55 545.28 235.54"/><path class="cls-1" d="m470.36,368.85l-65.17,50.64c22.96-17.3,45.1-34.35,65.52-50.33l-.33-.29s-.01-.01-.02-.02Z"/><path class="cls-1" d="m612.03,180.43c-.2.7-3.21,10.94-7.85,23.3,3.36-8.31,5.97-16.12,7.85-23.3Z"/><path class="cls-1" d="m108.48,594.2c1.88.69,4.09,1.05,6.59,1.11-3.74-.34-7.24-1.23-10.37-2.81,1.18.63,2.44,1.2,3.78,1.69Z"/><path class="cls-1" d="m383.07,387.5l-.03-.04h0s.02.03.03.04Z"/><path class="cls-1" d="m97.76,587.1c-.26-.3-.52-.59-.77-.91.25.31.5.62.77.91Z"/><path class="cls-1" d="m331.85,422.74c-.06.04-.11.08-.17.11l.17-.11h0Z"/><path class="cls-1" d="m601.67,133.02c-7.74-.73-17.93,2.46-29.1,7.87,17.83-8.14,28.71-7.88,29.1-7.87Z"/><path class="cls-1" d="m165.47,538.8s0,0,.01-.01h0s0,0-.01.01Z"/><path class="cls-1" d="m470.38,368.86l-.02-.02h0s.01.01.02.02Z"/><polygon class="cls-1" points="491.81 297.52 491.81 297.52 491.81 297.52 491.81 297.52"/><path class="cls-1" d="m187.74,511.67c-.08.04-.16.09-.24.13,0,0,0,0,0,0l.25-.14Z"/><polygon class="cls-1" points="440.95 344.1 440.95 344.1 440.95 344.1 440.95 344.1 440.95 344.1"/><path class="cls-1" d="m239.62,481.63l-.13.08s-5.93,18.37-17.93,40.14c0,0,0,0,0,0-.43,8.82-19.09,29.08-19.19,29.19-4.66,5.89-9.77,11.55-15.32,16.7,11.44-6.31,23.69-13.53,36.53-21.46l20.22-12.76c2.71-1.74,5.43-3.5,8.18-5.29,10.32-6.76,19.06-12.61,24.03-15.96.89-.6,1.78-1.2,2.68-1.81.37-.25.68-.46.94-.64.27-.19.55-.37.82-.56,8.35-30.95,7.47-57.75,7.47-57.75l-.1.06c-16.47,10.55-32.72,20.68-48.2,30.05Z"/><path class="cls-1" d="m586.31,167.52c-.33,1.67-1.02,3.8-2.06,6.33,0,.02-.02.04-.02.06-.28.71-.62,1.5-1.01,2.36-2.57,5.74-6.61,13.15-11.96,21.8-.05.09-.09.15-.09.15,10.94-16.66,14.9-25.9,15.14-30.7Z"/><path class="cls-1" d="m440.97,344.11l29.37,24.72c-9.98-8.57-20.11-17.06-29.37-24.72Z"/><path class="cls-1" d="m239.49,481.71c-6.34,3.84-12.55,7.55-18.59,11.1,9.19-5.29,17.08-9.93,18.59-11.1,0,0,0,0,0,0Z"/><path class="cls-1" d="m568.5,168.35s.01,0,.02,0c0,0,0,0,0,0h-.02Z"/><path class="cls-1" d="m575.76,164.58c-3.83,1.6-7.23,3.76-7.23,3.76,2.81-1.63,5.2-2.86,7.23-3.76Z"/><path class="cls-1" d="m440.95,344.1s-.06.05-.09.07l.09-.07s0,0,0,0Z"/><polygon class="cls-1" points="383.05 387.46 383.05 387.46 383.05 387.46 383.05 387.46"/><path class="cls-1" d="m571.16,198.22s-.02.04-.03.05c.01-.02.03-.04.04-.06h0Z"/><path class="cls-1" d="m518.93,175.69c.85-.63,26.88-20.06,45.53-30.6-15.23,8.38-31.53,19.89-45.53,30.6Z"/><path class="cls-1" d="m130.66,515.63c4.51-7.77,11.33-16.27,17.61-23.41-.12.12-10.49,10.1-17.61,23.41Z"/><polygon class="cls-1" points="515.53 196.79 515.54 196.79 515.53 196.79 515.53 196.79"/><polygon class="cls-1" points="125.82 527.21 125.82 527.21 125.82 527.21 125.82 527.21"/><path class="cls-4" d="m529.97,316.18c1.63.96,6.83,4.01,11.32,6.81-3.56-2.3-7.36-4.58-11.32-6.81Z"/><path class="cls-4" d="m405.16,419.61l21.01,31.92c-6.76-10.59-13.94-21.46-21.01-31.92Z"/><path class="cls-4" d="m278.69,510.46c-.9.61-1.79,1.21-2.68,1.81,1.08-.73,1.98-1.33,2.68-1.81Z"/><path class="cls-4" d="m279.63,509.83c.53-.36.82-.56.82-.56h0c-.27.18-.55.37-.82.56Z"/><path class="cls-4" d="m244.15,533.3s.02,0,.02.01c2.68-1.73,5.29-3.44,7.8-5.09-2.75,1.79-5.47,3.55-8.18,5.29l.35-.22Z"/><path class="cls-4" d="m404.95,419.67c.11-.08.17-.12.17-.12,0,0,0,0,0,0-.06.04-.11.08-.17.13Z"/><polygon class="cls-4" points="518.87 175.73 518.88 175.73 518.88 175.73 518.87 175.73"/><polygon class="cls-4" points="405.12 419.54 405.12 419.54 405.12 419.54 405.12 419.54 405.12 419.54"/><path class="cls-4" d="m493.32,389.04h0s-.07-.06-.07-.06c.02.02.05.04.07.06Z"/><path class="cls-4" d="m482.65,205.11l.34.16s2.07-1.86,5.67-4.97c-3.4,2.73-5.75,4.6-6.02,4.81Z"/><path class="cls-4" d="m571.26,198.07c5.35-8.65,9.38-16.06,11.96-21.8-3.52,7.66-11.08,20.33-11.96,21.8Z"/><path class="cls-4" d="m440.92,344.07s.02.02.03.02c0,0,0,0,0,0l-.03-.02Z"/><path class="cls-4" d="m491.79,297.51c-9.09-3.95-17.46-7.32-24-9.87l24,9.87Z"/><path class="cls-4" d="m421.49,328.16l.22-.19c-.08.06-.15.13-.23.19l.04.03-.03-.03Z"/><path class="cls-4" d="m551.96,192.61s0,.07,0,.1c0-.03,0-.07,0-.1Z"/><path class="cls-4" d="m383,387.4c-4.92-7.03-9.38-13.33-13.1-18.53l13.1,18.53Z"/><path class="cls-4" d="m586.21,165.8c.13,2.26-.91,5.36-1.96,8.05,1.03-2.53,1.73-4.66,2.06-6.33.03-.65,0-1.22-.1-1.72Z"/><polygon class="cls-4" points="467.79 287.64 467.78 287.65 467.79 287.64 467.79 287.64"/><path class="cls-4" d="m163.77,475.86l-15.49,16.35c3.62-3.62,15.49-16.35,15.49-16.35Z"/><path class="cls-4" d="m369.89,368.84c-.37.28-.74.56-1.11.83.71-.52,1.12-.83,1.12-.83,0,0,0,0,0,0Z"/><path class="cls-6" d="m100.8,480.73h0c.93-.92,1.86-1.82,2.78-2.7-.99.92-1.92,1.82-2.78,2.7Z"/><path class="cls-6" d="m171.88,484.37c-1.52,1.88-2.74,3.5-3.76,4.93l3.76-4.93Z"/><path class="cls-6" d="m130.66,515.63c-2.43,4.18-4.19,8.15-4.84,11.58,1.18-4.02,2.89-7.92,4.84-11.58Z"/><polygon class="cls-6" points="148.27 492.22 148.28 492.21 148.28 492.21 148.27 492.22"/><path class="cls-6" d="m190.53,485.57c5.32-3.02,10.56-6.03,15.75-9.04l-15.75,9.04Z"/><path class="cls-6" d="m125.77,527.39h.02c.01-.06.02-.12.03-.18h0c-.02.06-.03.12-.05.18Z"/><path class="cls-6" d="m96.99,586.18c-3.26-4.59-5.1-9.63-6-14.71.8,5.7,2.75,10.7,6,14.71Z"/><path class="cls-6" d="m63.59,532.87c-3.42,7.05-5.98,14.33-7.89,21.38,2.14-7.53,4.82-14.66,7.9-21.38,0,0,0,0,0,0Z"/><path class="cls-6" d="m50.21,591.03c-.22,5.69-.05,9.15-.05,9.15.04,0,.08-.01.12-.02-.12-3.09-.14-6.13-.08-9.13Z"/><path class="cls-6" d="m115.07,595.32c28.81,2.59,71.97-27.57,71.97-27.57,0,0,0,0,0,0-31.61,17.43-57.08,27.95-71.98,27.58Z"/><path class="cls-6" d="m97.76,587.1c2.01,2.33,4.35,4.11,6.94,5.41-2.73-1.46-5.03-3.29-6.94-5.41Z"/><polygon class="cls-6" points="96.99 586.18 96.99 586.18 96.99 586.18 96.99 586.18"/><path class="cls-6" d="m220.9,492.81c-8.73,5.03-18.63,10.65-25.37,14.47.02.02.04.04.06.07,8-4.46,16.47-9.33,25.31-14.53Z"/><path class="cls-6" d="m88.08,642.41h0s27.05,5.81,89.82-22.59l.81-1.59c-36.32,16.59-67.89,25.74-90.63,24.18Z"/><path class="cls-6" d="m276.01,512.27c-4.97,3.35-13.7,9.2-24.03,15.96,7.87-5.13,15.9-10.47,24.03-15.96Z"/><path class="cls-6" d="m279.63,509.83c-.26.17-.57.39-.94.64.31-.21.63-.42.94-.64Z"/><path class="cls-6" d="m239.62,481.63s-.09.05-.13.08c0,0,0,0,0,0l.13-.08Z"/><path class="cls-6" d="m287.92,451.52h0s-.07.04-.1.06l.1-.06Z"/><path class="cls-6" d="m280.45,509.27s41-25.94,52.84-36.9c-17.81,12.75-35.55,25.16-52.84,36.9h0Z"/><path class="cls-6" d="m288.05,451.43c14.51-9.29,29.18-18.9,43.63-28.58l-43.63,28.58Z"/><polygon class="cls-6" points="426.19 451.56 426.19 451.56 426.19 451.56 426.19 451.56 426.19 451.56"/><path class="cls-6" d="m336.19,470.29c23.13-16.6,46.33-33.73,68.76-50.62-3.42,2.55-58.14,43.25-68.83,49.58,0,0,.02.38.07,1.04Z"/><path class="cls-6" d="m426.19,451.56s0,0,0,0l-.02-.03s.01.02.02.03Z"/><path class="cls-6" d="m405.16,419.61l-.04-.06h0s.03.04.04.06Z"/><path class="cls-6" d="m331.99,422.65s-.09.06-.14.09h0s.14-.09.14-.09Z"/><polygon class="cls-6" points="383.05 387.46 383.05 387.46 383.05 387.46 383.05 387.46"/><polygon class="cls-6" points="383.05 387.46 383.05 387.46 383.05 387.46 383.05 387.46 383.05 387.46"/><path class="cls-6" d="m383,387.4s.03.04.04.06c0,0,0,0,0,0l-.04-.06Z"/><path class="cls-6" d="m369.89,368.85s.01.01.02.02l-.02-.02h0Z"/><path class="cls-6" d="m383.07,387.5l21.99,31.96c-7.72-11.43-15.28-22.38-21.99-31.96Z"/><path class="cls-6" d="m440.97,344.11h-.02s0-.01,0-.01c0,0,.01,0,.02.01Z"/><path class="cls-6" d="m470.36,368.85l-.02-.02s.01.01.02.02h0Z"/><path class="cls-6" d="m405.12,419.54l.07-.06s-.05.04-.07.05h0Z"/><path class="cls-6" d="m440.86,344.17l-57.82,43.3c18.92-13.45,36.46-26.44,51.52-38.26,2.12-1.66,4.21-3.34,6.3-5.04Z"/><path class="cls-6" d="m421.71,327.97c17.17-14.26,32.51-27.76,46.07-40.32l-46.07,40.32Z"/><path class="cls-6" d="m491.8,297.52c-.06.06-.13.13-.19.19.12-.12.19-.19.19-.19,0,0,0,0,0,0Z"/><path class="cls-6" d="m441.11,343.97c-.05.04-.11.09-.16.13h0c.05-.04.11-.09.16-.13Z"/><polygon class="cls-6" points="491.81 297.52 491.8 297.52 491.8 297.52 491.81 297.52 491.81 297.52"/><polygon class="cls-6" points="467.79 287.64 467.79 287.65 467.79 287.64 467.79 287.64"/><polygon class="cls-6" points="491.79 297.51 491.8 297.52 491.8 297.52 491.79 297.51"/><path class="cls-6" d="m440.92,344.07c-7.16-5.92-13.78-11.33-19.39-15.88l19.39,15.88Z"/><path class="cls-6" d="m545.29,331.78c2-2.41,3.18-3.84,3.19-3.85,0,0,0,0,0,0-1.05,1.28-2.11,2.57-3.18,3.85Z"/><polygon class="cls-6" points="548.47 327.93 548.48 327.93 548.47 327.92 548.47 327.92 548.47 327.93"/><path class="cls-6" d="m470.38,368.86c.11.1.22.19.33.29,1.11-.87,2.22-1.74,3.32-2.6,7.12-5.59,13.94-11.26,20.5-16.99-12.85,10.65-24.17,19.29-24.17,19.29l.02.02Z"/><path class="cls-6" d="m470.71,369.15s0,0,0,0c-.11-.1-.22-.19-.33-.29l.33.29Z"/><path class="cls-6" d="m541.29,322.99c2.53,1.63,4.93,3.28,7.18,4.94,0,0,0,0,0,0-.57-.71-3.66-2.74-7.18-4.93Z"/><path class="cls-6" d="m493.25,388.98c-7.07-6.4-14.75-13.13-22.54-19.83,0,0,0,0,0,0l22.54,19.82Z"/><path class="cls-6" d="m560.22,279.32c.18-.21.28-.33.28-.33,0-.01,0-.03,0-.04-.09.12-.18.24-.27.37Z"/><path class="cls-6" d="m607,244.82s0,0,0,0c-.13.22-.26.45-.39.67.25-.42.39-.66.39-.66Z"/><path class="cls-6" d="m545.27,235.55h0s-.02.02-.02.03l.02-.03Z"/><path class="cls-6" d="m538.95,243.73c-.05.07-.11.14-.16.2h0s.16-.2.16-.2Z"/><path class="cls-6" d="m631.85,128.74c-5.94-9.41-13.7-11.81-13.7-11.81h-.01c2.42,1.19,4.72,2.6,6.85,4.3,2.71,2.16,4.97,4.68,6.86,7.51Z"/><path class="cls-6" d="m575.76,164.58c-2.03.9-4.42,2.13-7.23,3.76,0,0,0,0,0,0,6.85-3.09,12.36-5.08,15.42-5.21-2.1-.65-5.26.23-8.18,1.45Z"/><path class="cls-6" d="m551.96,192.71c0,.59-.24,1.45-.76,2.62.23-.46.41-.86.52-1.17.21-.61.27-1.07.24-1.45Z"/><path class="cls-6" d="m551.96,192.61c-.01-.09-.01-.2-.04-.28.02.09.03.18.04.28Z"/><path class="cls-6" d="m571.26,198.07s-.06.1-.09.15h0s.03-.06.09-.15Z"/><path class="cls-6" d="m584.25,173.85c-.32.77-.66,1.58-1.04,2.42.39-.86.74-1.65,1.01-2.36,0-.02.02-.04.02-.06Z"/><path class="cls-6" d="m572.43,140.95c-2.4,1.1-5.11,2.52-7.98,4.15,2.75-1.51,5.46-2.92,8.12-4.2-.05.02-.09.04-.13.06Z"/><path class="cls-6" d="m601.7,133.02s-.03,0-.04,0c.01,0,.02,0,.03,0h0Z"/><path class="cls-6" d="m518.88,175.73h0s.03-.02.05-.03c-.01.01-.05.03-.05.03Z"/><path class="cls-6" d="m568.5,168.35c-15.1,6.81-36.7,18.96-52.97,28.44l52.97-28.44Z"/><path class="cls-6" d="m482.6,205.14s.03-.03.05-.04l-.06-.03.02.07Z"/><path class="cls-6" d="m518.87,175.73c-12.96,9.92-23.93,19.15-30.21,24.56,9.58-7.67,27.42-21.99,30.21-24.56Z"/><path class="cls-6" d="m492.82,210.33l16.99,10.57.59-2.48c-1.26,1-1.99,1.59-1.99,1.59l-15.58-9.67Z"/><polygon class="cls-6" points="515.53 196.8 515.53 196.79 515.53 196.79 515.53 196.8"/><path class="cls-4" d="m243.81,533.52l-20.22,12.76c6.59-4.07,13.34-8.33,20.22-12.76Z"/><path class="cls-4" d="m244.15,533.3l-.35.22c-6.88,4.42-13.63,8.68-20.22,12.76l-12,7.57h0c10.57-6.4,22.07-13.71,32.59-20.53,0,0-.02-.01-.02-.01Z"/><path class="cls-4" d="m270.5,543s-.09,0-.13,0c-2.86,8.89-5.71,17.56-7.65,23.42l7.77-23.42Z"/><path class="cls-6" d="m260.28,573.78s36.84-18.59,39.03-24.97c0,0-.16-.01-.43-.04-12.97,8.77-25.88,17.13-38.6,25h0Z"/><path class="cls-6" d="m262.72,566.42c-1.49,4.5-2.44,7.35-2.44,7.36,12.72-7.87,25.63-16.24,38.6-25-2.94-.25-20.68-1.91-28.39-5.77l-7.77,23.42Z"/><polygon class="cls-6" points="260.28 573.78 260.28 573.78 260.28 573.78 260.28 573.78"/><path class="cls-6" d="m260.28,573.78s.96-2.86,2.44-7.36l-2.44,7.36h0Z"/><path class="cls-4" d="m187.5,511.81s-19.8,24.11-22.01,26.97h0c7.98-8,15.56-17,22.01-26.97Z"/><path class="cls-4" d="m221.55,521.85c-5.24,9.5-11.62,19.64-19.18,29.19.1-.1,18.76-20.37,19.19-29.19,0,0,0,0,0,0Z"/><path class="cls-4" d="m187.77,511.66s-.01,0-.02.01l-.25.14s.11-.06.27-.15Z"/><path class="cls-4" d="m195.52,507.28h0l-7.78,4.39s.01,0,.02-.01c.83-.47,3.72-2.09,7.76-4.38Z"/><path class="cls-4" d="m195.58,507.34s-.04-.05-.06-.07c-4.04,2.29-6.93,3.92-7.76,4.38,2.55-1.39,5.15-2.83,7.82-4.32Z"/><path class="cls-4" d="m97.96,532.95h-.01c-.04.09-.07.17-.1.26.03-.06.06-.15.11-.26Z"/><path class="cls-4" d="m97.81,533.3s-6.63,12.86-7.13,28.12c.57-8.65,3.08-18.28,7.13-28.12h0Z"/><polygon class="cls-4" points="96.99 586.18 96.99 586.18 96.99 586.18 96.99 586.18"/><path class="cls-4" d="m97.84,533.21c.04-.09.07-.17.1-.26l-.54.11s-.06.11-.15.31c.18-.02.37-.04.54-.07,0,0,.01-.03.04-.09Z"/><path class="cls-4" d="m128.09,535.83s-.03-.04-.05-.06c-.03-.01-.06-.02-.09-.03.05.03.09.07.14.1Z"/><path class="cls-4" d="m124.15,527.71l-26.19,5.24c-.05.11-.09.2-.11.26-.01.03-.02.06-.04.09,6.25.2,21.32-4.1,26.34-5.59Z"/><path class="cls-4" d="m97.84,533.21c-.02.06-.04.09-.04.09h0s.02-.06.04-.09Z"/><path class="cls-4" d="m127.95,535.73c-.11-.08-.24-.13-.33-.22-1.96-1.98-2.43-4.79-1.84-8.12h-.02c-1.51,4.79-.5,7.35,2.18,8.35Z"/><path class="cls-4" d="m127.62,535.51c.09.09.22.15.33.22.03.01.06.02.09.03-1.92-1.99-2.79-4.72-1.99-8.44l-.26.05c-.6,3.33-.12,6.14,1.84,8.12Z"/><path class="cls-4" d="m90.68,561.41c-.23,3.53-.13,6.9.31,10.06.9,5.08,2.75,10.12,6,14.71,0,0,0,0,0,0-5.11-7.89-6.57-16.67-6.31-24.77Z"/><polygon class="cls-4" points="96.99 586.18 96.99 586.18 96.99 586.18 96.99 586.18"/><path class="cls-4" d="m90.68,561.41c.49-15.26,7.13-28.12,7.13-28.12-.18.02-.36.04-.54.07-1.19,2.5-9.38,20.59-6.27,38.11-.44-3.16-.54-6.52-.31-10.06Z"/><path class="cls-4" d="m165.47,538.8c-6.32,6.33-12.88,12.04-19.34,17.12,7.89-5.79,14.92-11.72,19.34-17.12Z"/><path class="cls-4" d="m124.81,490.24s-.07.08-.07.08c0,0,0,0,0,0,.02-.03.05-.05.07-.08Z"/><path class="cls-4" d="m148.28,492.21h0l15.49-16.35s-7.29,7.01-15.49,16.35Z"/><path class="cls-4" d="m124.83,490.22s-.06.07-.1.1c0,0,.03-.03.07-.08,0,0,.01-.02.02-.02Z"/><polygon class="cls-4" points="124.75 490.32 124.74 490.32 124.75 490.32 124.75 490.32"/><polygon class="cls-4" points="148.28 492.21 148.28 492.21 148.28 492.21 148.28 492.21"/><path class="cls-4" d="m586.31,167.52c.5-2.55.15-4.05-1.1-4.31-.07-.01-.15-.02-.23-.03.8.56,1.16,1.48,1.22,2.62.1.5.13,1.07.1,1.72Z"/><path class="cls-4" d="m575.76,164.58c2.92-1.22,6.09-2.1,8.18-1.45.39-.02.73,0,1.04.05-1.42-.99-4.22-.82-9.23,1.4Z"/><path class="cls-4" d="m584.99,163.18c-.31-.05-.65-.07-1.04-.05,1.15.36,1.98,1.18,2.27,2.67-.06-1.14-.42-2.06-1.22-2.62Z"/><path class="cls-4" d="m560.49,278.95s0,0,0,0c-.07-.59-.26-1.31-.54-2.1.23.73.41,1.44.54,2.11Z"/><path class="cls-4" d="m560.49,278.95s0,.03,0,.04c0-.01,0-.03,0-.04,0,0,0,0,0,0Z"/><polygon class="cls-4" points="518.88 175.73 518.88 175.73 518.88 175.73 518.88 175.73"/><path class="cls-4" d="m492.82,210.33l22.71-13.53c-13.08,7.63-22.71,13.53-22.71,13.53Z"/><line class="cls-4" x1="328.38" y1="398.89" x2="286.64" y2="427.08"/><path class="cls-6" d="m124.83,490.22c6.78-7.76,14.27-14.83,22.2-20.68,3-2.44,5.66-4.32,7.44-5.05,0,0-10.11-15.59-10.67-16.47,0,0-25.89,16.66-40.21,30.01-.92.88-1.85,1.78-2.78,2.7.03.02,14.05,9.81,23.94,9.59.03-.03.06-.07.1-.1Z"/><path class="cls-6" d="m167.99,489.45l.12-.15c1.02-1.43,2.25-3.05,3.76-4.93l-8.1-8.51s-11.88,12.73-15.49,16.35c0,0,15.84-1.98,19.71-2.76Z"/><path class="cls-6" d="m124.75,490.32s0,0,0,0c-6.92,5.55-14.24,17.7-19.51,27.68-3.87,7.32-6.62,13.47-7.27,14.95l26.19-5.24c1.05-.31,1.67-.5,1.67-.5,0,0,0,0,0,0,.65-3.43,2.41-7.4,4.84-11.58,7.11-13.31,17.49-23.29,17.61-23.41,0,0,0,0,0,0-7.81,3.52-23.4-1.84-23.53-1.89Z"/><path class="cls-6" d="m206.28,476.53c-5.19,3.01-10.43,6.02-15.75,9.04l-.79.46c-29.39,31.73-63.91,41.18-63.91,41.18-.01.06-.02.12-.03.18l.26-.05c-.8,3.72.06,6.45,1.99,8.44.02.02.03.04.05.06,8.52,8.63,37.4,2.96,37.4,2.96,2.21-2.86,22.01-26.97,22.01-26.97,0,0,0,0,0,0,8.47-11.23,20.16-36.07,20.16-36.07l-1.39.8Z"/><path class="cls-6" d="m96.99,586.18c-3.25-4.02-5.2-9.02-6-14.71-3.11-17.52,5.08-35.61,6.27-38.11-12.53,1.54-33.54-.49-33.66-.5-3.08,6.73-5.76,13.86-7.9,21.38-3.96,14.6-5.17,28.22-5.49,36.78-.06,3-.04,6.04.08,9.13,24.3-3.07,46.71-13.98,46.71-13.98,0,0,0,0,0,0Z"/><path class="cls-6" d="m221.55,521.85c12-21.77,17.93-40.14,17.93-40.14-1.51,1.17-9.4,5.8-18.59,11.1-8.84,5.2-17.32,10.07-25.31,14.53,2.45,2.96,25.9,14.47,25.97,14.51Z"/><path class="cls-6" d="m187.05,567.74c5.55-5.15,10.66-10.81,15.32-16.7,0,0,0,0,0,0-2.44-.63-36.85-12.25-36.88-12.26,0,0,0,0-.01.01-4.43,5.4-11.45,11.34-19.34,17.12-25.42,20-49.14,30.26-49.14,30.26,0,0,0,0,0,0,.25.32.51.61.77.91,1.9,2.13,4.2,3.95,6.94,5.41,3.13,1.58,6.63,2.47,10.37,2.81,14.9.37,40.37-10.15,71.98-27.58Z"/><path class="cls-6" d="m278.69,510.46c-.7.48-1.6,1.08-2.68,1.81-8.13,5.49-16.16,10.82-24.03,15.96-2.52,1.65-5.13,3.35-7.8,5.09.52.26,18.88,9.5,26.19,9.68,4.63-14.4,9.28-29.35,10.08-33.72,0,0-.29.2-.82.56-.31.21-.63.42-.94.64Z"/><path class="cls-6" d="m178.71,618.22l32.87-64.37c-9.35,5.66-17.97,10.62-24.55,13.9,0,0-49.57,52.27-98.96,74.66,22.74,1.56,54.3-7.59,90.63-24.18Z"/><path class="cls-6" d="m286.64,427.08s-28.41,18.74-40.8,25.85c0,0-1.74,11.81-6.35,28.79.04-.03.09-.05.13-.08,15.48-9.37,31.73-19.5,48.2-30.05.03-.02.07-.04.1-.07,0-.04.36-14.45-1.28-24.44Z"/><path class="cls-6" d="m336.12,469.25l-4.27-46.5-.17.11c-14.45,9.68-29.12,19.29-43.63,28.58l-.13.09s.88,26.8-7.47,57.75c17.29-11.74,35.03-24.15,52.84-36.9,1.36-1.25,2.35-2.32,2.83-3.12Z"/><path class="cls-6" d="m426.19,451.56s-.01-.02-.02-.03l-21.01-31.92s-.03-.04-.04-.06c0,0-.06.04-.17.12-22.43,16.9-45.63,34.02-68.76,50.62.42,6.78,2.75,44.83,2.29,50.65,0,0,0,0,0,0,0,0,57.08-37.75,87.71-69.38,0,0,0,0,0,0Z"/><path class="cls-6" d="m383,387.4l-13.1-18.53s-.01-.01-.02-.02c0,0-.41.3-1.12.83-7.39,5.54-15.03,11.15-22.92,16.82-7.75,5.64-14.99,10.84-17.48,12.39l3.48,23.85s.09-.06.14-.09c17.58-11.77,34.83-23.65,51.06-35.18,0,0,0,0,0,0-.01-.02-.03-.04-.04-.06Z"/><path class="cls-6" d="m470.34,368.83l-29.37-24.72s-.01,0-.02-.01l-.09.07c-2.09,1.69-4.18,3.37-6.3,5.04-15.06,11.82-32.59,24.81-51.52,38.26h0s.03.04.03.04c6.71,9.58,14.28,20.53,21.99,31.96l.05.08s.05-.04.07-.05l65.17-50.64s-.01-.01-.02-.02Z"/><path class="cls-6" d="m491.79,297.51l-24-9.87s0,0,0,0h0c-13.56,12.56-28.9,26.07-46.07,40.32l-.22.19.03.03c5.61,4.56,12.24,9.97,19.39,15.88l.03.02c.05-.04.11-.09.16-.13,18.09-14.68,35.03-30.42,50.5-46.26.06-.06.13-.13.19-.19,0,0,0,0-.01,0Z"/><path class="cls-6" d="m541.29,322.99c-4.49-2.79-9.69-5.85-11.32-6.81-.18-.1-.35-.2-.53-.3,0,0,0,0-.01,0-10.59,11.32-22.22,22.61-34.89,33.68-6.55,5.73-13.38,11.4-20.5,16.99-1.1.86-2.21,1.73-3.32,2.6,7.79,6.7,15.47,13.42,22.54,19.83l.07.06h0c6.36-2.98,38.55-41.16,50.59-55.62.49-.59.95-1.14,1.37-1.64,1.07-1.29,2.13-2.57,3.18-3.85-2.25-1.65-4.65-3.3-7.18-4.94Z"/><path class="cls-6" d="m559.95,276.84c-3.42-9.7-21.16-32.91-21.16-32.91-.51.76-1.7,2.24-3.35,4.22-10.89,13.03-42.52,48.12-43.58,49.29-.02.02-.06.06-.06.06h0c12.08,5.26,25.43,11.54,37.46,18.27l.16.08s.04-.04.06-.07c3.81-5.12,27.88-33.18,30.72-36.49.09-.12.18-.24.27-.37-.13-.67-.31-1.38-.54-2.11Z"/><path class="cls-6" d="m586.53,239.65c-3.47,11.59-26.03,39.34-26.03,39.34,3.43,3.67,8.02,23.36,8.04,23.44,0,0,0,0,0,0,5.07-4.26,17.47-23.43,26.83-38.5,4-6.27,7.75-12.42,11.23-18.45.13-.22.26-.45.39-.67-1.65-1.85-20.46-5.16-20.46-5.16Z"/><path class="cls-6" d="m571.17,198.22s-.03.04-.04.06c-3.19,4.69-25.69,37.04-25.85,37.26,0,0,0,.01,0,.01,3.96.33,41.07,4.08,41.25,4.1,0,0,0,0,0,0,6.74-9.08,13.01-23.54,17.66-35.91,4.64-12.36,7.64-22.6,7.85-23.3,0-.02.01-.04.02-.07l-40.88,17.85Z"/><path class="cls-6" d="m631.85,128.74c-1.89-2.83-4.16-5.35-6.86-7.51-2.13-1.7-4.42-3.11-6.85-4.29l-16.43,16.08c26.03-.53,10.35,47.35,10.35,47.35l25.21-10.29s.01-.05.02-.08c2.94-17.16,1.28-31.23-5.43-41.27Z"/><path class="cls-6" d="m571.16,198.22c.03-.05.06-.1.09-.15.88-1.46,8.44-14.14,11.96-21.8.38-.85.72-1.65,1.04-2.42,1.05-2.69,2.08-5.79,1.96-8.05-.29-1.49-1.12-2.31-2.27-2.67-3.06.14-8.57,2.13-15.42,5.21-.06.06-21.68,22.88-22.3,24.83,0,0,5.21-3.16,5.7-.83.03.08.03.18.04.28,0,.03,0,.07,0,.1.02.38-.03.84-.24,1.45-.11.31-.29.71-.52,1.17-1.55,3.43-5.72,9.63-14.71,20.55l34.68-17.67Z"/><path class="cls-6" d="m601.7,133.02s-.02,0-.03,0c-.39-.01-11.27-.27-29.1,7.87-2.66,1.29-5.37,2.69-8.12,4.2-18.64,10.54-44.68,29.97-45.53,30.6-.02.01-.03.02-.05.04l-3.35,21.07h0c16.27-9.49,37.87-21.64,52.97-28.45h.02s33.18-35.33,33.18-35.33Z"/><path class="cls-6" d="m514.15,140.11c-6.49,3.55-12.81,7.22-18.83,10.88-9.45,5.59-18.37,11.12-22.37,14.33h0s9.63,39.76,9.63,39.76l.06.03c.27-.21,2.61-2.08,6.02-4.81,6.28-5.41,17.25-14.64,30.21-24.56,0,0,0,0,0,0l7.83-42.2.09-.51s-5.31,2.93-12.65,7.09Z"/><path class="cls-6" d="m515.53,196.8l-22.71,13.53,15.58,9.67s.73-.59,1.99-1.59l5.14-21.62s0,0,0,0Z"/><path class="cls-6" d="m545.25,235.58s.02-.02.02-.03l-23.93-1.5,17.45,9.89c.05-.07.11-.14.16-.2l6.3-8.15Z"/><path class="cls-6" d="m538.95,243.73c2.16-2.75,4.27-5.47,6.3-8.15l-6.3,8.15Z"/><path class="cls-4" d="m97.26,533.36c.09-.19.15-.31.15-.31l.54-.11c2.06-4.96,4.5-9.98,7.28-14.96,5.26-9.97,12.59-22.13,19.51-27.68-9.89.22-23.91-9.57-23.94-9.59-13.48,13.32-27.38,30.69-37.2,52.14.12.01,21.13,2.04,33.66.5Z"/><path class="cls-4" d="m187.04,567.74s-43.16,30.16-71.97,27.57c-2.5-.06-4.71-.42-6.59-1.11-1.34-.49-2.6-1.06-3.78-1.69-2.59-1.31-4.92-3.09-6.94-5.41-.27-.3-.52-.6-.77-.91,0,0,0,0,0,0,0,0-22.41,10.91-46.71,13.98.05,1.29.1,2.58.19,3.89,1.58,25.07,15.39,36.83,37.62,38.35,49.38-22.39,98.96-74.66,98.96-74.66Z"/><path class="cls-4" d="m336.19,470.29c-.97.69-1.93,1.39-2.9,2.08-11.83,10.96-52.84,36.9-52.84,36.9-.8,4.38-5.45,19.32-10.08,33.72.04,0,.09,0,.13,0,7.71,3.86,25.45,5.52,28.39,5.77,13.17-8.9,26.41-18.21,39.59-27.83.46-5.82-1.87-43.87-2.29-50.65Z"/><path class="cls-4" d="m470.71,369.15c-20.42,15.99-42.56,33.03-65.52,50.33l-.07.06.04.06c7.06,10.47,14.25,21.33,21.01,31.92l.02.03c1.38-1.18,2.75-2.36,4.12-3.54,22.5-19.43,43.57-39.22,63.01-58.98-.02-.02-.05-.04-.07-.06l-22.54-19.82Z"/><path class="cls-4" d="m612.05,180.37s-.01.04-.02.07c-1.88,7.18-4.49,14.99-7.85,23.3-4.64,12.37-10.92,26.83-17.66,35.91,0,0,18.81,3.31,20.46,5.16,16.27-28.3,26.67-53.8,30.27-74.73l-25.21,10.29Z"/><path class="cls-4" d="m518.93,175.69c14-10.71,30.3-22.22,45.53-30.6,2.87-1.63,5.58-3.05,7.98-4.15.05-.02.09-.04.13-.06,11.17-5.41,21.36-8.6,29.1-7.87,0,0,.04,0,.04,0l16.43-16.08c-22.95-11.16-58.4.08-91.43,16.59l-7.83,42.2s.03-.02.05-.03Z"/><path class="cls-4" d="m560.5,278.99s-.1.12-.28.33c-2.84,3.31-26.91,31.36-30.72,36.49-.02.02-.04.05-.05.07,0,0,.19.11.53.31,3.95,2.23,7.76,4.5,11.32,6.81,3.53,2.19,6.61,4.22,7.18,4.93,7.06-8.59,13.76-17.1,20.07-25.49-.02-.08-4.61-19.77-8.04-23.44Z"/><path class="cls-4" d="m442.87,186.95l39.72,18.12-9.63-39.76c-18.1,12.18-30.08,21.64-30.08,21.64Z"/><path class="cls-4" d="m286.64,427.08c1.64,9.99,1.28,24.4,1.28,24.44.04-.03.09-.06.13-.08l43.63-28.58c.06-.04.11-.08.17-.11l-3.48-23.85"/><path class="cls-4" d="m148.28,492.21s0,0,0,0c-6.28,7.14-13.09,15.64-17.61,23.41-1.95,3.66-3.66,7.56-4.84,11.58,0,0,0,0,0,0,0,0,34.53-9.45,63.91-41.18l.79-.46c-3.58,2.03-7.19,4.07-10.83,6.11,0,0-24.66,15.94-11.59-2.39l-.12.15c-3.88.78-19.71,2.76-19.71,2.76Z"/><path class="cls-4" d="m369.89,368.85l.02.02c3.71,5.21,8.17,11.5,13.1,18.53l.04.06s0,0,0,0l57.82-43.3s.06-.05.09-.07c-.01,0-.02-.02-.03-.02l-19.39-15.88-.04-.03c-15.64,12.98-32.82,26.59-51.6,40.68,0,0,0,0,0,0h0Z"/><path class="cls-4" d="m244.18,533.32c-10.52,6.82-22.02,14.13-32.59,20.53l-32.87,64.37-.81,1.59-.3.59c24.34-5.73,82.69-46.63,82.69-46.63h0s2.44-7.36,2.44-7.36c1.94-5.87,4.79-14.53,7.65-23.42-7.32-.18-25.67-9.41-26.19-9.68Z"/><path class="cls-4" d="m195.58,507.34c-2.66,1.49-5.27,2.92-7.82,4.32-.16.09-.27.15-.27.15-6.45,9.97-14.03,18.97-22.01,26.98.03.01,34.44,11.63,36.88,12.26,0,0,0,0,0,0,7.56-9.55,13.95-19.69,19.18-29.19-.07-.04-23.52-11.55-25.97-14.51Z"/><path class="cls-4" d="m128.09,535.83s-.09-.06-.14-.1c-2.68-1-3.69-3.56-2.18-8.35l-1.62.32c-5.02,1.49-20.09,5.78-26.34,5.59-4.04,9.84-6.56,19.46-7.13,28.12-.26,8.1,1.2,16.87,6.31,24.77,0,0,0,0,0,0,0,0,27.76-14.58,49.14-30.26,6.46-5.08,13.03-10.79,19.34-17.12,0,0,0,0,.01-.01,0,0-28.88,5.67-37.4-2.96Z"/><path class="cls-4" d="m154.47,464.49s-6.28,4.03-15.21,11.81c-7.04,6.44-13.69,13.18-14.45,13.94-.02.03-.05.05-.07.08,0,0,0,0,0,0,.13.05,15.73,5.41,23.53,1.89,0,0,0,0,0,0,8.21-9.34,15.49-16.35,15.49-16.35,0,0-8.09-6.91-9.3-11.37Z"/><path class="cls-4" d="m637.26,170.08h0s0-.05.01-.08c0,.03-.01.05-.02.08Z"/><path class="cls-4" d="m601.7,133.02h0s-33.18,35.32-33.18,35.32c0,0,3.4-2.16,7.23-3.76,5.01-2.22,7.81-2.39,9.23-1.4.07.01.16.01.23.03,1.25.26,1.59,1.76,1.1,4.31-.24,4.81-4.2,14.04-15.14,30.7l40.88-17.85s-.01.04-.02.07c0-.02.02-.07.02-.07,0,0,15.68-47.88-10.35-47.35Z"/><path class="cls-4" d="m586.52,239.65c-.18-.02-37.29-3.77-41.25-4.1l-.02.03c-2.03,2.68-4.14,5.4-6.3,8.15l-.16.2s17.28,20.46,21.16,32.91c.28.8.47,1.51.54,2.1,0,.01,0,.03,0,.04,0,0,22.56-27.75,26.03-39.34,0,0,0,0,0,0Z"/><path class="cls-4" d="m515.53,196.79l3.35-21.07s0,0,0,0c.46.67-35.89,29.53-35.89,29.53,6.12,1.55,9.83,5.06,9.83,5.06,0,0,9.63-5.9,22.71-13.53h0Z"/><path class="cls-4" d="m207.67,475.73s-11.7,24.84-20.16,36.07c.08-.04.16-.09.24-.13l7.78-4.39h0c6.74-3.82,16.64-9.43,25.37-14.47,6.04-3.55,12.25-7.26,18.59-11.1,4.61-16.98,6.35-28.79,6.35-28.79l-38.17,22.81Z"/><path class="cls-4" d="m221.55,521.85s18.96,10.03,22.62,11.47l36.27-24.05s9.14-33.76,7.6-57.84l-48.56,30.28-17.93,40.14Z"/><polygon class="cls-4" points="331.85 422.74 336.19 470.29 405.12 419.54 383.05 387.46 331.85 422.74"/><path class="cls-4" d="m529.97,316.18c-.32-.18-.49-.29-.51-.3.01-.02.03-.06.04-.08l-1.85-.9c-10.96-6.04-22.88-11.69-33.9-16.53l-1.89-.92-50.95,46.62,29.8,25.08s53.78-41.55,58.74-53.26c.17.1.34.19.52.29Z"/><path class="cls-4" d="m545.28,235.54c.16-.22,22.66-32.57,25.85-37.26.01-.02.02-.04.03-.05l-34.68,17.67-15.36,17.96,24.15,1.69Z"/><path class="cls-4" d="m521.13,233.85c-13.19,14.73-30.83,32.96-53.34,53.8,0,0,0,0,0,0h0c6.54,2.54,14.91,5.91,24,9.87h.01s.04-.04.06-.06c1.06-1.17,32.69-36.27,43.58-49.29,1.13-1.42,2.25-2.83,3.35-4.23l-17.66-10.08Z"/><path class="cls-4" d="m545.27,193.66c-10.13,5.36-28.77,19.91-34.88,24.75l5.14-21.62s0,0,0,0l52.97-28.44s.01,0,.02,0c-.06.06-21.68,22.88-22.3,24.83l-.95.49Z"/></svg>