<?xml version="1.0" encoding="UTF-8"?><svg id="Color1" xmlns="http://www.w3.org/2000/svg" xmlns:xlink="http://www.w3.org/1999/xlink" viewBox="0 0 1080 1137"><defs><style>.cls-1{fill:none;stroke:#064862;stroke-miterlimit:10;stroke-width:3px;}.cls-2{fill:#011720;}.cls-3{fill:#03b184;}.cls-4{fill:#064862;}.cls-5{fill:#0c6b86;}.cls-6{fill:#48bcc4;}.cls-7{fill:url(#Degradado_sin_nombre_34);}</style><radialGradient id="Degradado_sin_nombre_34" cx="412.65" cy="519.72" fx="412.65" fy="519.72" r="218.73" gradientTransform="translate(-144.78 219.08) rotate(-14.71)" gradientUnits="userSpaceOnUse"><stop offset="0" stop-color="#48bdc5"/><stop offset=".52" stop-color="#168ea3"/><stop offset=".78" stop-color="#0c6b87"/><stop offset=".99" stop-color="#0c6b87"/></radialGradient></defs><path class="cls-6" d="m883.57,364.3s-12.75-14.3-35.27-4.71c-22.52,9.59-18.64,33.46-12.75,42.23,5.9,8.77,25,17.58,42.09,6.9,17.09-10.68,8.65-33.77-2.72-38.36s-26.78-4.19-28.76,10.6c-1.97,14.79,14.71,16.4,18.83,10.81,4.13-5.59,4.47-10.46-2.78-11.43,0,0,10.03-2.58,12,6.24,1.97,8.83-14.86,19.79-25.6,12.83-10.75-6.96-11.87-21.55-5.09-28.64,6.78-7.08,13.3-14.51,40.04-6.49Z"/><path class="cls-7" d="m601.7,808.64s5.56-60.21-21.33-55.83c-26.89,4.39-27.55,1.89-14.12-28.34,13.43-30.23,12.32-44.63-17.2-50.24-29.51-5.6-12.59-20.83,16.13-34.33,28.73-13.5,26.83-147.88-94.42-96.01-121.25,51.87-140.65,54.29-162.84,5.36-22.19-48.92,31.12-151.05,91.52-129.52,60.4,21.53,34.06,99.22,5.94,78.56-28.13-20.66,6.53-31.09,6.53-31.09,0,0-10.24-18.68-26.69-5.01-16.44,13.66-29.03,62.37,2.33,64.82,31.36,2.45,88.82-12.64,87.6-63.06-1.22-50.42-39.05-123.29-158.46-74.57-119.41,48.71-150.32,190.36-127.8,240.54,22.52,50.17,51.49,89.3,128.3,41.09,76.81-48.21,151.99-102.35,191.65-86.21,39.66,16.13,39.51,56.24,3.28,65.75-36.23,9.51-83.04,24.47-77.8,44.46,5.25,19.99,31.22,17.18,54.56,4.37,23.35-12.81,58.84-4.77,50.28,13.51-8.56,18.27-45.97,33.44-36.65,53.69,9.32,20.25,48.77,17.91,63.31,2.07,14.54-15.84,35.87,39.99,35.87,39.99Z"/><path class="cls-2" d="m695.47,751.11s-19.27-34.79-1.92-39.26c17.35-4.47,17.09-6.15,1.01-20.8-16.08-14.65-19.22-23.62-2.93-34.8,16.29-11.18,2.07-15.88-18.8-16.41-20.87-.53-55.27-81.96,31.47-82.79,86.74-.84,99.06-4.51,99.48-39.84.42-35.33-58.69-82.74-89.37-53.79-30.68,28.94,5.73,68.76,17.2,48.88,11.47-19.88-12.15-17-12.15-17,0,0,1.23-13.96,14.75-10.08,13.52,3.88,33.98,29.88,15.74,39.65-18.24,9.77-56.83,15.88-69.43-14.81-12.6-30.69-9.09-84.57,75.7-86.82,84.8-2.25,140.88,74.88,140.59,111.05-.29,36.17-7.39,67.4-66.4,58.68s-118.6-21.43-138.22-1.23c-19.62,20.21-8.92,44.32,15.41,40.46,24.33-3.85,56.48-7.23,58.61,6.2s-14.26,18.6-31.7,17.06c-17.45-1.54-36.69,12.69-26.71,21.43,9.99,8.74,36.53,7.98,36.27,22.64-.26,14.66-24.63,23.68-37.58,17.99-12.94-5.69-11.02,33.57-11.02,33.57Z"/><polygon class="cls-6" points="138.38 367.54 129.87 309.68 159.23 355.39 205.66 333.85 168.43 372.35 172.73 437.31 147.97 383.71 93.15 388.76 138.38 367.54"/><polygon class="cls-1" points="49.26 592.42 38.58 558.12 60.76 583.06 86.88 565.57 67.96 592.48 76.75 631.49 56.62 601.33 23.84 609.61 49.26 592.42"/><polygon class="cls-1" points="992.2 453.54 996.18 420.64 1005.41 450.01 1034 445.17 1007.9 460.65 1000.55 496.8 995.02 463.81 964.3 458.38 992.2 453.54"/><path class="cls-3" d="m943.23,287.91c1.39,8.32,3.42,29.61,13.82,30.51,10.41.9,39.11.63,38.6-10.14-.51-10.76-2.13-35.25-10.02-38.16-7.89-2.9-17.79-4.66-23.66,3.42-5.87,8.08-1.73,26.61,5.24,25.5,6.97-1.1,8.94-7.43,3.3-9.58,0,0,9.95-9.15,12.51,6.16,2.57,15.31-24.33,18.01-24.22,12.9.11-5.11-3.03-25.36-8.67-27.51-5.65-2.15-8.19-.76-6.91,6.9Z"/><path class="cls-6" d="m609.65,660.72s5.23,67.61,20.56,52.43c15.33-15.18,6.71-80.64.63-122.7-6.08-42.07-15.6-52.94-32.73-72.52-17.14-19.58-5.81-21.81,5.93-61.54,11.74-39.73,17.8-57.11-9.21-62.65-27.01-5.54-35.9-6-13.74-25.76,22.17-19.76,80.82-39.08,80.55-96.46-.28-57.39-78.06-27.74-94.02-24.02-15.96,3.72-33.45-10.42,4.98-33.82,38.44-23.39,76.06-14.06,58.84-32.28-17.23-18.22-149,57.19-133.7,86.8,15.3,29.61,74.52-12.42,104.48-14.07,29.95-1.65,52.25,12.13,20.16,42.77-32.09,30.65-120.93,62.29-101.71,91.57,19.22,29.28,26.75,18.86,45.33,16.68,18.58-2.18,34.18,9.79,11.34,34.9-22.84,25.11-36.17,50.86-14.41,72.8,21.76,21.94,46.06,16.04,42.89,63.64-3.17,47.6,3.83,84.23,3.83,84.23Z"/><path class="cls-4" d="m691.3,407.77s25.23-41.98,19.3-90.08c-5.93-48.09,1.58-99.84,33.7-115.29,32.11-15.46,75.67-21.31,76.71,1.11,1.04,22.42-27.87,55.67-45.54,35.05-17.67-20.62,26.56-25.91,6.6-38.05-19.97-12.14-35.62,33.12-15.97,47.89,19.64,14.77,57.62,8.57,67.66-23.09s5.33-49.54-22.44-54.07c-27.78-4.53-68.35-2.98-106.5,60.92-38.16,63.9-14.87,90.52-14.02,118.97.85,28.44.31,56.45.5,56.63Z"/><path class="cls-3" d="m706.13,397.41s27.92-23.12,45.71-38.55c17.79-15.44,30.19-27.33,29-51.62-1.19-24.3-13.25-25.93-26.91-18.98-13.66,6.95-14.72,32.7-4.09,27.48,10.63-5.22,8.2-18.36,8.2-18.36,0,0,14.49,5.07,13.87,7.69-.62,2.62-2.83,33.95-23.09,30.25-20.26-3.7-32.42-31.78-5.37-62.3,27.04-30.52,62.13,11.28,48.49,43.85-13.63,32.57-37.81,66.21-85.81,80.55Z"/><path class="cls-2" d="m698.27,722.24s6.32,13.17,1.28,20.96l7.09-1.23s-6.42-15.3-8.37-19.74Z"/><path class="cls-2" d="m704.55,717.78s7.73,17.36,7.42,22.93c0,0,6.44-.43,6.79-2,0,0-5.78-20.33-8.03-23.89l-6.19,2.96Z"/><path class="cls-2" d="m710.74,714.82l9.06-4.78s-6.89-10.69-12.57-13.38l-5.56,2.03s6.77,10.68,9.07,16.13Z"/><path class="cls-2" d="m719.8,710.04l9.64-6.3s5.84,23.16,9.82,26.41l-13.05,4.75s-1.17-17.81-6.4-24.86Z"/><path class="cls-2" d="m729.44,703.74s-6.61-13.47-6.88-15.41l-.18-3.92,13.72,14.72-6.66,4.6Z"/><path class="cls-2" d="m736.1,699.14l2.97-3s3.64,22.79,8.64,29.79l-.75,1.25s-10.27-21.32-10.87-28.04Z"/><path class="cls-2" d="m706.64,741.98l5.34-1.27s1.95,10.15,3.22,13.92,4.08,14.27,3.55,17.68c0,0-9.55.68-11.36-.67,0,0,1.73-20.29-.75-29.66Z"/><path class="cls-2" d="m718.77,738.71l7.43-3.81s6.55,26.3,11.72,34.7c0,0-6.91,3.58-11.96,1.98,0,0-1.2-19.77-7.19-32.87Z"/><path class="cls-2" d="m761.24,765.16s-20.65-21.08-21.98-35.01l7.72-2.97s25.35,31.54,31.04,32.35c0,0-10.13,6.42-16.77,5.63Z"/><path class="cls-2" d="m737.92,769.6l23.32-4.44s30.39,23.57,48.7,25.29c0,0-26.74,1.43-41.01,9.53,0,0-20.19-6.38-24.64-15.84s-6.37-14.55-6.37-14.55Z"/><path class="cls-2" d="m730.71,806.95s-7.94,2.05-16.96-.24c0,0,8.54-16.68,5-34.4l7.21-.73s4.07,16.42,4.75,35.37Z"/><path class="cls-2" d="m698.51,804.9s-12.38.74-21.12-8.51c0,0,17.31-21.05,17.28-29.62,0,0,6.07,4.08,12.71,4.86,0,0,2.73,14.02-8.87,33.26Z"/><path class="cls-2" d="m698.51,804.9s5.92,2.1,15.24,1.81c0,0-9.23,23.96-6.67,29.71,0,0-12.23.5-20.59,2.64-8.35,2.14-18.53,4.56-23.82,1.96,0,0,14.67-15.1,22.82-21.29,8.14-6.19,13.02-14.84,13.02-14.84Z"/><path class="cls-2" d="m730.71,806.95s26.24-2.28,38.22-6.96c0,0,5.26,3.5,15.2,3.59s19.19,2.87,19.19,2.87c0,0-14.53,5.2-27.85,10.55-13.32,5.35-36.62,12.31-39.3,11.96l-5.45-22.01Z"/><path class="cls-2" d="m662.68,841.02s-14.5-1.37-12.73-13.43c0,0-21.58,7.14-31.91,25.97,0,0-.45,19.82,38.27,15.85,0,0-5.96-20.58,6.37-28.38Z"/><path class="cls-2" d="m707.09,836.41s-2.36,17.65,17.65,25.63l25.48-11.95s-8.6.86-14.05-21.14c0,0-17.18,6.37-29.08,7.46Z"/><path class="cls-2" d="m724.74,862.04s-43.74,13.58-68.43,7.36c0,0,15.61,13.64,33.54,18.83,17.93,5.2,24.54,9.27,24.54,9.27,0,0,37.09-7.18,45.74-13.23,0,0-21.22-10.79-35.38-22.23Z"/><path class="cls-2" d="m714.38,897.5s-35.26,6.54-61.83,1.81c0,0,36.73,12.65,54.67,12.27s40.23,8.15,39.79,15.33c0,0,18.78-3.91,18.44-5.09s-19.89-15.68-51.08-24.32Z"/><path class="cls-2" d="m652.56,899.31s-40.19-15.26-35.25-42.49c0,0-12.38,7.68-2.39,23.54,10,15.86,37.64,18.95,37.64,18.95Z"/><path class="cls-2" d="m802.5,906.43l-42.38-22.16,23.75-11.59s30.36,21.34,37.18,23.12c0,0-8.08,5.4-18.54,10.62Z"/><path class="cls-2" d="m802.5,906.43s-18.6,10.31-37.04,15.4c0,0,39.92,25.23,17.32,32.97,0,0,47.7,7.54,53.68,3.94,0,0-6.41-2.85-4.22-15.75,2.19-12.9-15.3-29.14-29.73-36.56Z"/><path class="cls-2" d="m782.78,954.79s-6.06-3.12-18.72-2.2c-12.66.92-19.75-.56-26.95-8.46,0,0-24.24,38.27,60.12,57.82,84.36,19.55,156.01,12.16,204.87,23.82,0,0-64.06-23.9-115.32-30.01-51.26-6.1-134.05-26.1-104-40.97Z"/><path class="cls-2" d="m836.46,958.74s37.37,7.8,54.76,6.77c0,0,9.42,20.79,36.21,21.34s56.36,2.84,67.87,9.12c0,0-58.19-7.71-79.88-7.41-21.69.3-81.38-16.39-78.96-29.82Z"/><path class="cls-2" d="m783.87,872.68s-19.57-1.34-33.65-22.59c0,0,50.94-27.64,76.17-23.12,0,0-15.79,20.87,8.86,25.14,0,0-8.89,1.91-51.38,20.57Z"/><path class="cls-2" d="m803.32,806.44s11.87,2.08,19.21,1.84c7.34-.23,11.7,3.58,8.53,8.15-3.16,4.57-4.67,10.54-4.67,10.54,0,0,23.94-1.41,30.23.47,0,0-5.81-9.28,2.58-11.51,8.39-2.24,38.34-7.97,39.34-10.33,0,0-41.63-12.4-95.23.83Z"/><path class="cls-5" d="m369.48,242.46s9.1,7.88-9.55,30.55c-18.64,22.67-13.63,62.84,14.56,54.42,28.2-8.42-6.78-25.32-.97-53.37,5.81-28.04-4.05-31.6-4.05-31.6Z"/><path class="cls-4" d="m378.05,272.78s34.11,14.62,28.13,35.32c-5.98,20.69-18.56,5.7-24.1-10.49-5.54-16.19-4.03-24.83-4.03-24.83Z"/><path class="cls-1" d="m883.27,363.87s-12.75-14.3-35.27-4.71c-22.52,9.59-18.64,33.46-12.75,42.23,5.9,8.77,25,17.58,42.09,6.9,17.09-10.68,8.65-33.77-2.72-38.36-11.37-4.59-26.78-4.19-28.76,10.6-1.97,14.79,14.71,16.4,18.83,10.81,4.13-5.59,4.47-10.46-2.78-11.43,0,0,10.03-2.58,12,6.24,1.97,8.83-14.86,19.79-25.6,12.83-10.75-6.96-11.87-21.55-5.09-28.64,6.78-7.08,13.3-14.51,40.04-6.49Z"/><polygon class="cls-1" points="138.07 367.11 129.56 309.25 158.92 354.96 205.35 333.42 168.12 371.92 172.42 436.88 147.66 383.29 92.84 388.33 138.07 367.11"/><path class="cls-1" d="m942.92,287.48c1.39,8.32,3.42,29.61,13.82,30.51,10.41.9,39.11.63,38.6-10.14-.51-10.76-2.13-35.25-10.02-38.16-7.89-2.9-17.79-4.66-23.66,3.42-5.87,8.08-1.73,26.61,5.24,25.5,6.97-1.1,8.94-7.43,3.3-9.58,0,0,9.95-9.15,12.51,6.16,2.57,15.31-24.33,18.01-24.22,12.9.11-5.11-3.03-25.36-8.67-27.51-5.65-2.15-8.19-.76-6.91,6.9Z"/><path class="cls-1" d="m369.17,242.03s9.1,7.88-9.55,30.55c-18.64,22.67-13.63,62.84,14.56,54.42,28.2-8.42-6.78-25.32-.97-53.37,5.81-28.04-4.05-31.6-4.05-31.6Z"/><path class="cls-1" d="m377.74,272.35s34.11,14.62,28.13,35.32c-5.98,20.69-18.56,5.7-24.1-10.49-5.54-16.19-4.03-24.83-4.03-24.83Z"/></svg>