<?xml version="1.0" encoding="UTF-8"?><svg id="Color1" xmlns="http://www.w3.org/2000/svg" xmlns:xlink="http://www.w3.org/1999/xlink" viewBox="0 0 1080 1137"><defs><style>.cls-1{fill:none;stroke:#064862;stroke-miterlimit:10;stroke-width:3px;}.cls-2{fill:#03b083;}.cls-3{fill:#fff;}.cls-4{fill:#064862;}.cls-5{fill:#48bcc4;}.cls-6{fill:url(#Degradado_sin_nombre_34);}</style><radialGradient id="Degradado_sin_nombre_34" cx="611.44" cy="512.24" fx="611.44" fy="512.24" r="162.26" gradientUnits="userSpaceOnUse"><stop offset="0" stop-color="#48bdc5"/><stop offset=".52" stop-color="#168ea3"/><stop offset=".78" stop-color="#0c6b87"/><stop offset=".99" stop-color="#0c6b87"/></radialGradient></defs><path class="cls-4" d="m681.3,1092s28.08-77.21-8.77-80.72c-36.85-3.51-36.85-7.02-8.77-42.12,28.08-35.1,31.59-54.4-5.26-71.95-36.85-17.55-9.36-31.72,33.05-39.55,42.41-7.83,86.28-185.07-90.96-158.74-177.24,26.32-203.56,22.81-215.84-49.13-12.28-71.95,93.01-187.76,164.95-138.63,71.95,49.13,10.53,142.14-19.3,105.29-29.83-36.85,19.3-38.61,19.3-38.61,0,0-7.02-28.08-33.34-15.79-26.32,12.28-59.66,71.95-19.3,85.99,40.36,14.04,121.08,14.04,136.88-52.64,15.79-66.68-8.77-175.48-182.5-152.67-173.73,22.81-263.22,198.29-250.94,272,12.28,73.7,36.85,135.12,154.42,98.27,117.57-36.85,235.04-82.06,281.59-47.17,46.56,34.89,32.52,87.53-18.37,87.53s-117.57,3.51-117.57,31.59,35.1,33.34,70.19,24.57c35.1-8.77,78.97,14.04,61.42,35.1-17.55,21.06-71.95,28.08-66.68,57.91,5.26,29.83,57.91,40.36,82.48,24.57,24.57-15.79,33.34,64.93,33.34,64.93Z"/><path class="cls-6" d="m456.46,427.96s117.67-36.58,180.76,40.72c63.09,77.3,40.98,167.29-55.63,210.93,0,0,231.68,30.92,177.17-210.94-54.51-241.86-317.59-62.36-302.3-40.71Z"/><polygon class="cls-5" points="349.65 326.9 358.42 247.94 381.23 318.13 449.67 305.84 387.47 343.59 370.7 430.44 356.66 351.47 282.88 339.19 349.65 326.9"/><polygon class="cls-5" points="817.05 615.93 829.66 568.78 837.04 613.51 879.74 612.37 838.48 629.55 820.28 680.75 819.04 631.49 775.37 617.23 817.05 615.93"/><polygon class="cls-1" points="154.94 591.68 152.74 542.92 173.27 583.34 213.64 569.37 179.49 598.2 177.59 652.5 161.54 605.92 115.6 605.49 154.94 591.68"/><polygon class="cls-3" points="798.93 45 831.62 191.96 958.48 232.76 805.29 297.25 702.33 450.67 702.33 280.85 572.79 192.63 721.06 181.43 798.93 45"/><polygon class="cls-2" points="726.45 211.01 798.93 45 801.16 213.25 958.48 232.76 797.53 272.92 702.33 450.67 725.13 269.24 572.79 192.63 726.45 211.01"/><polygon class="cls-1" points="798.05 45.47 830.73 192.43 957.59 233.23 804.41 297.72 701.44 451.14 701.44 281.32 571.9 193.1 720.18 181.91 798.05 45.47"/></svg>