<?xml version="1.0" encoding="UTF-8"?><svg id="Color1" xmlns="http://www.w3.org/2000/svg" xmlns:xlink="http://www.w3.org/1999/xlink" viewBox="0 0 1080 1137"><defs><style>.cls-1{fill:#011720;}.cls-2{fill:#03b083;}.cls-3,.cls-4{fill:#fff;}.cls-5{fill:#064862;}.cls-6{fill:#0c6b86;}.cls-7{fill:#48bcc4;}.cls-8{fill:url(#Degradado_sin_nombre_34);}.cls-9{fill:none;stroke:#011720;}.cls-9,.cls-4{stroke-miterlimit:10;}.cls-4{stroke:#064862;stroke-width:6px;}</style><radialGradient id="Degradado_sin_nombre_34" cx="676.51" cy="634.87" fx="676.51" fy="634.87" r="248.72" gradientUnits="userSpaceOnUse"><stop offset="0" stop-color="#48bdc5"/><stop offset=".52" stop-color="#168ea3"/><stop offset=".78" stop-color="#0c6b87"/><stop offset=".99" stop-color="#0c6b87"/></radialGradient></defs><path class="cls-4" d="m352.47,535.9s-98.27,37.55-96.75,57.45c1.52,19.91,110.29,265.06,147.63,266.68,37.34,1.62,107.2-36.52,107.2-36.52v-31.35"/><path class="cls-4" d="m453.86,455.71c-30.22,2.51-113.83,25.23-112.2,43.09,1.62,17.86,100.66,304.41,123.39,305.22,22.73.81,45.5-11.85,45.5-11.85l-56.68-336.46Z"/><path class="cls-2" d="m466.19,503.48c-2.37-4.27-15.36-22.12-46.2-22.12-18.02,0-58.45,21.92-48.71,64.13,9.74,42.21,60.88,39.78,70.62,12.99,9.74-26.79-7.31-49.52-19.48-49.52s-34.19,12.5-30.08,26.95c4.11,14.45,34.29,17.13,29.75,3.21-4.54-13.92-12.22-3.21-12.22-3.21,0,0-6.31-7.12-.53-11.35,5.78-4.23,33.4,11.58,16.74,26-16.65,14.42-38.99,4.11-39.59-11.44-.6-15.54,1.02-34.22,23.75-40.71,22.73-6.49,55.94,5.08,55.94,5.08Z"/><path class="cls-1" d="m543.18,781.34s24.43,79.85,113.74,55.77"/><path class="cls-8" d="m646.88,374.61c46.27-8.93,94.16-24.35,96.6,25.98,2.44,50.33,8.35,122.75-15.3,123.47-23.66.73-29.34-23.63-57.75-22.82-28.41.81-97.41,7.31-97.41,46.27s4.06,263.01,59.26,263.01,202.94-17.05,205.37-55.2c2.44-38.15-12.18-214.3-27.6-261.38-15.42-47.08,32.47-64.94,34.91-26.79,2.44,38.15,89.29,336.88,44.65,361.23-44.65,24.35-278.43,96.6-327.95,70.62-49.52-25.98-51.14-69.81-64.94-160.73-13.8-90.92-81.99-287.36-21.11-312.53,60.88-25.16,171.28-51.14,171.28-51.14Z"/><path class="cls-5" d="m676.51,519.28c13.35-1.35,23.96,42.6,0,47.59-23.96,4.99-36.94,8.24-36.94,26.91s-3.6,87.07,49.74,85.34c53.35-1.73,79.67-15.53,68.13-62.61-11.54-47.08-18.35-66.95,13.47-74.47,31.82-7.52,70.78,175.94,45.62,201.91-25.16,25.98-135.56,61.69-163.16,43.02-27.6-18.67-50.33-109.59-57.63-165.6-7.31-56.01-33.26-90.56,80.78-102.1Z"/><path class="cls-1" d="m579.92,676.72s-22.19,82.16-36.75,104.62c0,0,5.98,23.75,19.81,34.45,0,0,23.6-55.93,22.97-95.62,0,0-5.76-42.93-6.03-43.44Z"/><path class="cls-1" d="m598.08,769.78s-1.42,42.53-11.97,62.76c0,0,11.57,12.92,33.75,9.1,0,0-.88-30.22-2.82-37.58,0,0-14.7-19.21-18.95-34.29Z"/><path class="cls-1" d="m634.94,810.51l15.88-.48,1.24,28.3-9.16,1.81s-5.12-22.93-7.96-29.64Z"/><path class="cls-1" d="m619.86,841.64s11.15.84,23.04-1.49c0,0,9.44,36.44,7.83,58.88,0,0-33.75,4.83-43.2,5.13,0,0,13.23-19.55,12.33-62.52Z"/><path class="cls-1" d="m586.74,832.15s-2.1,34.46-35.78,60.47c0,0-22.48-13.94-26.66-29.41,0,0,33.02-29,38.35-49.49,0,0,17.8,17.4,24.1,18.43Z"/><path class="cls-1" d="m524.29,863.21s-10.39-25.34-12.25-38.12c0,0-25.88,28.49-52.85,37.63l13.14,21.72s36.29-5.76,51.96-21.22Z"/><path class="cls-1" d="m550.96,892.62s-17.43,20.02-52.49,23.72c0,0,26.59,23.59,39,26.41,0,0,56.83-4.87,70.06-38.59,0,0-22.89,3.57-56.57-11.54Z"/><path class="cls-1" d="m650.72,899.02l14.97-2.65s10.21,20.58,15.95,25.67c0,0-29.26,7.86-33.73,11.43,0,0,3-17.2,2.81-34.46Z"/><path class="cls-1" d="m647.92,933.48s.69,5.23-6.85,17.16c-7.54,11.93-23.25,20.02-38.08,23.77-14.83,3.76-26.79,6.38-26.79,6.38,0,0-68.8,11.18-121.27-29.74,0,0,66.59-7.57,82.55-8.3,0,0,24.9,19.05,110.45-9.27Z"/><path class="cls-1" d="m498.47,916.34s-18.62-19.32-26.13-31.91c0,0-92.85,8.53-101.92,14.27,0,0,29.45,9.94,44.92,26.98,0,0,68.58-4.55,83.14-9.35Z"/><path class="cls-1" d="m370.41,898.71s-18.27-10.31-51.24-10.08c0,0-63.38,13.64-93.54,25.36,0,0,43.91-4.74,64.29,4.2,0,0,61.21-18.14,80.49-19.48Z"/><path class="cls-1" d="m415.33,925.69s-86.37,4.01-93.57,9.81c0,0,8.84,1.05,18.54,19.02,9.7,17.97,24.29,22.81,24.29,22.81,0,0,43.56-25.06,90.33-26.29,0,0-28.12-12.62-39.59-25.36Z"/><path class="cls-1" d="m568.67,982.14s-22.73,3.33-36.35,9.6c-13.62,6.28-17.87,12.58-20.71,16.51-2.84,3.94-10.69,13.66-13.14,13.76,0,0,16.96,1.29,30.64-2.14,13.69-3.43,63.33,5.05,94.5,8.61s131.89-4.4,155.96-50.04c0,0-30.57-14.46-32.31-17.29,0,0-99.36,23.78-178.59,20.99Z"/><path class="cls-1" d="m498.47,1022.02s-56.91,1.27-133.88-44.68c0,0-59.95,28.8-81.93,31.12,0,0,51.18,37.76,125.88,49.1,0,0,85.29-10.12,89.92-35.54Z"/><path class="cls-1" d="m321.76,935.5s-68.47,11.36-104.46,32.68c0,0-23.23-14.98-37.41-16.68l110.04-33.32s22.03,1.59,31.84,17.31Z"/><path class="cls-1" d="m179.88,951.51l-29.3-8.32s-60.54,13.44-109.9-7.68c0,0,37.12,41.8,139.19,16.01Z"/><path class="cls-1" d="m217.29,968.19s-56.79,31.87-141.37,22.34c0,0,119.56,53.88,206.74,17.92,0,0-36.46-36.07-65.37-40.27Z"/><path class="cls-3" d="m512.05,825.09l31.13-43.75s5.65,19.34,19.82,33.51c0,0-6.88,24.84-38.7,48.36,0,0-12.52-23.21-12.25-38.12Z"/><path class="cls-3" d="m562.98,815.79s22.7-61.89,22.97-95.62c0,0,9.29,41.11,12.13,49.61,0,0,0,38.28-11.34,62.38,0,0-9.23-4.38-23.76-16.37Z"/><path class="cls-3" d="m617.03,804.06s6.92,6.54,17.9,6.44c0,0,4.61,14.27,7.96,29.64,0,0-14.02,2.47-23.04,1.49,0,0-.15-19.7-2.82-37.58Z"/><path class="cls-3" d="m619.86,841.64s-13.27,4.69-33.12-9.49c0,0-4.94,35.88-35.78,60.47,0,0,24.91,14.07,56.57,11.54,0,0,15.67-24.68,12.33-62.52Z"/><path class="cls-3" d="m642.89,840.15l9.16-1.81s3.29,34.37,13.64,58.04l-14.97,2.65s-1.29-36.7-7.83-58.88Z"/><path class="cls-4" d="m826.37,455.89s-41.4-8.93-38.15-50.33c3.25-41.4,23.18-69.43-.18-71.65-23.36-2.22-41.22-29.01-11.99-27.38,29.22,1.62,125.69-12.02,128.19-82.72,2.5-70.7-123.32-216.82-380.65-154.31-257.33,62.51-120.95,322.27,54.39,287.36,175.34-34.91,194.01-17.05,190.76-1.62-3.25,15.42-23.54,92.54,57.63,100.66Z"/><path class="cls-4" d="m821.94,677.39s9.74-38.15,34.09-38.15,39.78-4.87,47.08-29.22c7.31-24.35,18.67-72.25,83.61-51.95,64.94,20.29,75.51,82.33,44.66,115.04-30.86,32.7-82.41,34.67-96.41,0-14-34.67-37.94-27.77-52.56-19.66-14.61,8.12-16.24,4.87-25.16.81-8.93-4.06-26.79.81-35.31,23.13Z"/><path class="cls-7" d="m183.36,411.95s28.41-5.68,17.05-25.16c-11.36-19.48-45.77-11.36-53.73,12.58-7.96,23.95,2.59,55.61,31.81,42.62,29.22-12.99,40.59-12.99,55.2-7.31,14.61,5.68,56.82,14.61,48.71-12.99-8.12-27.6,0-34.09,17.05-31.66,17.05,2.44,23.54,67.38-12.99,81.99-36.53,14.61-53.1.81-66.33,0-13.23-.81-13.23,7.31-21.34,24.35-8.12,17.05-21.11,47.08-43.83,42.21s-27.6-34.09-25.98-47.08-7.31-12.99-17.86-10.55-41.4,8.12-34.09-49.52c7.31-57.63,61.69-94.16,108.77-73.87,47.08,20.29,32.44,53.81,17.84,58.16-14.6,4.35-23.53,6.78-20.28-3.77Z"/><path class="cls-6" d="m269.41,379.48c14.37-17.25-.81-31.66-8.93-34.09-10.89-3.27-25.98,5.68-22.73,9.74,3.25,4.06.81-1.62,7.31-1.62s21.11,18.67,5.68,32.47c-15.42,13.8-46.27,3.25-37.34-30.85,8.93-34.09,43.83-40.59,69-28.41,25.16,12.18,25.16,44.65,9.74,56.82-15.42,12.18-30.85,5.68-22.73-4.06Z"/><path class="cls-7" d="m274.28,497.18c-8.01-9.73-23.49,3.1-17.02,12.11,6.47,9,28.39,1.69,17.02-12.11Z"/><path class="cls-7" d="m304.76,513.22c-11,.58-20.74,13.19-9.37,21.3,11.36,8.12,28.49-22.32,9.37-21.3Z"/><path class="cls-9" d="m182.77,412.27s28.41-5.68,17.05-25.16c-11.36-19.48-45.77-11.36-53.73,12.58-7.96,23.95,2.59,55.61,31.81,42.62,29.22-12.99,40.59-12.99,55.2-7.31,14.61,5.68,56.82,14.61,48.71-12.99-8.12-27.6,0-34.09,17.05-31.66,17.05,2.44,23.54,67.38-12.99,81.99-36.53,14.61-53.1.81-66.33,0-13.23-.81-13.23,7.31-21.34,24.35-8.12,17.05-21.11,47.08-43.83,42.21-22.73-4.87-27.6-34.09-25.98-47.08,1.62-12.99-7.31-12.99-17.86-10.55-10.55,2.44-41.4,8.12-34.09-49.52,7.31-57.63,61.69-94.16,108.77-73.87,47.08,20.29,32.44,53.81,17.84,58.16-14.6,4.35-23.53,6.78-20.28-3.77Z"/><path class="cls-9" d="m268.81,379.8c14.37-17.25-.81-31.66-8.93-34.09-10.89-3.27-25.98,5.68-22.73,9.74,3.25,4.06.81-1.62,7.31-1.62s21.11,18.67,5.68,32.47c-15.42,13.8-46.27,3.25-37.34-30.85,8.93-34.09,43.83-40.59,69-28.41,25.16,12.18,25.16,44.65,9.74,56.82-15.42,12.18-30.85,5.68-22.73-4.06Z"/><path class="cls-9" d="m273.68,497.5c-8.01-9.73-23.49,3.1-17.02,12.11,6.47,9,28.39,1.69,17.02-12.11Z"/><path class="cls-9" d="m304.16,513.54c-11,.58-20.74,13.19-9.37,21.3,11.36,8.12,28.49-22.32,9.37-21.3Z"/></svg>