<?xml version="1.0" encoding="UTF-8"?><svg id="Color1" xmlns="http://www.w3.org/2000/svg" xmlns:xlink="http://www.w3.org/1999/xlink" viewBox="0 0 1080 1137"><defs><style>.cls-1{fill:none;stroke:#064862;stroke-miterlimit:10;stroke-width:3px;}.cls-2{fill:#03b083;}.cls-3{fill:#064862;}.cls-4{fill:#0c6b86;}.cls-5{fill:#48bcc4;}.cls-6{fill:url(#Degradado_sin_nombre_34);}</style><radialGradient id="Degradado_sin_nombre_34" cx="843.67" cy="318.57" fx="843.67" fy="318.57" r="101.33" gradientUnits="userSpaceOnUse"><stop offset="0" stop-color="#48bdc5"/><stop offset=".52" stop-color="#168ea3"/><stop offset=".78" stop-color="#0c6b87"/><stop offset=".99" stop-color="#0c6b87"/></radialGradient></defs><path class="cls-4" d="m396.87,631.85s-19.94-10.5-19.27,11.18c.68,21.68,19.06,42.29,77.29,85.51,58.23,43.23,201.84,114.1,262.17,95.94,60.33-18.15,111.9-153.67,113.89-192.64,2-38.96-3.41-58.25-56.95-56.73-53.54,1.51-228.36,2.87-302.89,29.97-74.54,27.1,17.62,91.48,48.11,107.74,30.49,16.26,132.81,58.27,175.5,23.72,42.69-34.56,45.4-83.34,38.62-90.12-6.78-6.78-107.38-28.26-128.9-24.97-21.52,3.29-49.82.87-48.55,30.54,1.28,29.67,41.26,33.73,53.45,31.02,12.2-2.71,29.14-13.55,25.07-21.01-4.07-7.45-19.65-4.07-19.65-4.07,0,0,21.35-12.8,38.12.04,16.77,12.84,16.09,56.2-33.37,50.78-49.46-5.42-94.86-33.2-91.48-71.15,3.39-37.95,145.01-38.62,189.05-25.75,44.04,12.87,60.98,27.78,44.04,82.67-16.94,54.89-56.24,104.35-136.2,75.21-79.96-29.14-233.18-99.61-228.06-137.89Z"/><path class="cls-1" d="m370.25,511.31s-19.94,10.5-19.27-11.18c.68-21.68,19.06-42.29,77.29-85.51,58.23-43.23,201.84-114.1,262.17-95.94,60.33,18.15,111.9,153.67,113.89,192.64,2,38.96-3.41,58.25-56.95,56.73-53.54-1.51-228.36-2.87-302.89-29.97-74.54-27.1,17.62-91.48,48.11-107.74,30.49-16.26,132.81-58.27,175.5-23.72,42.69,34.56,45.4,83.34,38.62,90.12-6.78,6.78-107.38,28.26-128.9,24.97-21.52-3.29-49.82-.87-48.55-30.54s41.26-33.73,53.45-31.02c12.2,2.71,29.14,13.55,25.07,21.01-4.07,7.45-19.65,4.07-19.65,4.07,0,0,21.35,12.8,38.12-.04,16.77-12.84,16.09-56.2-33.37-50.78-49.46,5.42-94.86,33.2-91.48,71.15,3.39,37.95,145.01,38.62,189.05,25.75,44.04-12.87,60.98-27.78,44.04-82.67-16.94-54.89-56.24-104.35-136.2-75.21-79.96,29.14-233.18,99.61-228.06,137.89Z"/><path class="cls-2" d="m686.14,204.68s6.3,23.81-19.95,41.17c-26.25,17.36-49.11-3.72-54.34-16.26-5.23-12.54-1.14-39.28,22.43-50.05,23.57-10.77,42.36,14.66,39.23,30.11-3.14,15.45-14.49,31.7-31.76,23.33-17.27-8.37-7.17-27.41,1.76-27.87,8.93-.46,14.39,2.62,10.29,11.08,0,0,9.88-8.93,1.8-17.3-8.08-8.37-31.77,1.91-31.91,18.37-.15,16.46,14.71,28.01,27.11,25.76,12.41-2.26,24.99-3.99,35.34-38.35Z"/><path class="cls-5" d="m462.02,278.33s-11.82-23.19-44.73-18.35c-32.91,4.83-36.04,37.54-31.32,51.1,4.72,13.56,26.78,31.73,52.93,23.59,26.15-8.14,23.02-41.4,9.67-51.35-13.36-9.95-33.75-14.74-41.45,4.01-7.7,18.76,13.67,26.63,21.02,20.7,7.35-5.93,9.48-12.21.3-15.98,0,0,14.07.06,13.61,12.35-.46,12.28-26.35,20.89-38.07,8.03-11.72-12.86-8.16-32.42,3.19-39.39,11.36-6.97,22.49-14.48,54.85,5.29Z"/><path class="cls-5" d="m96.64,547.15s-9.67-18.97-36.59-15.01c-26.92,3.95-29.49,30.71-25.62,41.81,3.86,11.1,21.91,25.96,43.3,19.3,21.39-6.66,18.84-33.87,7.91-42.01-10.93-8.14-27.61-12.06-33.91,3.28-6.3,15.34,11.18,21.79,17.2,16.94,6.01-4.85,7.76-9.99.24-13.07,0,0,11.51.05,11.14,10.1s-21.56,17.09-31.15,6.57c-9.59-10.52-6.68-26.52,2.61-32.22,9.29-5.7,18.4-11.84,44.87,4.33Z"/><path class="cls-3" d="m377.59,667.26c7.28-6.18-18.74-16.09-25.45,0-6.72,16.09,13.61,210.56,45.46,232.92,31.85,22.36,173.46,42.01,288.66,35.91,115.19-6.1,210.42-8.08,210.57-66.38.16-58.3-39.14-274.45-4.59-319.18,0,0-45.74,35.57-42.35,129.08,3.39,93.51,44.72,155.17-50.14,178.21-94.86,23.04-342.19,89.44-381.49-2.03-39.3-91.48-64.41-168.37-40.67-188.54Z"/><path class="cls-6" d="m851.39,316.38c0-6.1-17.62-14.46,0-18.75,17.62-4.29,11.64,27.17-4.68,31.77-16.32,4.6-32.58-5.56-25.81-28.6,6.78-23.04,30.49-44.04,51.5-29.81,21.01,14.23,21.68,64.63-10.5,75.34-32.18,10.71-55.22-4.87-59.29-22.49-4.07-17.62,4.07-50.82,27.78-73.86,23.72-23.04,12.87-62.34-8.13-60.98-21.01,1.36-56.92,14.23-16.26,69.79,40.66,55.56,61.66,50.82,71.15,84.02,9.49,33.2,13.55,60.98-8.13,77.92-21.68,16.94-54.89,4.74-43.37-19.65,11.52-24.39,26.76-16.94,23.54-12.87-3.22,4.07-13.65-2.27-11.82,6.32,1.83,8.59,8.6,14.01,19.45,9.95,10.84-4.07,14.23-28.46-4.74-37.27-18.97-8.81-37.95,14.23-37.95,41.33s26.11,43.31,50.66,38.94c24.55-4.38,57.59-51.55,28.88-101.14-28.72-49.6-69.37-69.25-80.21-95-10.84-25.75-4.07-39.3,6.1-36.59,10.16,2.71,16.94,9.49,5.42,23.04-11.52,13.55-57.37,44.41-37.49,84.21,19.88,39.79,72.73,60.8,103.9,7.27,31.17-53.53-18.83-90.37-47.7-65.51-28.87,24.85-33.61,41.79-25.48,64.16,8.13,22.36,52.18,18.97,58.27-18.3s-26.43-37.27-38.62-22.36c-12.2,14.91-6.78,31.17-1.36,34.56,5.42,3.39,14.91,3.39,14.91-5.42Z"/><path class="cls-2" d="m320.32,605.94s-42.68-17.74-42.68-42.68,17.74-70.96,8.87-77.61c-8.87-6.65-68.21-26.22-80.67-23.92-12.46,2.3-23.55,23.36-37.96,49.97-14.41,26.61-19.4,32.15-7.21,44.35,12.2,12.2,33.79,41.71,45.17,36.93,11.38-4.78,39.37-6.17,42.14-17.81,2.77-11.64,17.18-52.66,4.99-59.87-12.2-7.21-18.85-8.32-23.84-8.32s-27.19,12.89-23.3,16.15c3.89,3.25,8.88,22.1,12.76,19.88s14.73-13.02,18.45-9.28,12.91,6.48,0,15.09c-12.91,8.61-14.05,20.1-31.22,1.61-17.17-18.5-21.61-15.73-10.52-38.45,11.09-22.73,12.2-26.05,22.17-25.5,9.98.55,51.55,3.33,51.55,9.98s0,91.47-12.75,95.9c-12.75,4.43-63.18,18.29-72.33,13.58-9.16-4.71-51.84-47.95-54.06-55.71-2.22-7.76,57.12-97.91,54.06-107.99-3.06-10.08-11.93-50-11.93-50,0,0,14.97,38.8,25.5,42.68,10.53,3.88,115.86,26.61,118.08,39.36,2.22,12.75-28.83,77.61-22.73,88.14,6.1,10.53,18.85,34.37,39.36,48.78"/><path class="cls-1" d="m981.34,345.82s-5.42,6.63,0,10.09c5.42,3.46,15.58-4.67,10.16-14.16-5.42-9.49-11.52-8.81-18.3-3.39-6.78,5.42-18.3,23.68,0,33.86,18.3,10.18,30.49-14.21,33.88-25.05,3.39-10.84,12.2-65.05,10.16-81.99,0,0,8.81,12.87,26.43,11.52,0,0-9.49,16.26-22.36,1.36,0,0,5.42,66.4-8.81,85.38-14.23,18.97-39.36,25.44-49.16,13.74-9.8-11.7-12.51-42.2,10.53-49.65,23.04-7.45,26.29,11.67,26.02,17.01-.27,5.35-6.37,22.96-21.27,17.54-14.91-5.42,2.71-26.43,2.71-16.26Z"/><circle class="cls-2" cx="974.91" cy="508.78" r="13.21"/><circle class="cls-2" cx="1027.76" cy="506.07" r="15.92"/><path class="cls-2" d="m978.86,521.13s27.55-41.14,23.48-66.21c0,0,33.88-.68,35.91-17.62,0,0,9.49,62.34,4.07,73.18-5.42,10.84-7.45-46.75-8.13-48.11,0,0-10.16,10.62-21.01,7.34,0,0-13.09,36.31-34.33,51.42Z"/><path class="cls-5" d="m409.98,191.13s6.97-6.12,1.83-21.97c0,0,7.02,15.16,11.62,14.17,0,0,12.06-.19,16.57-3.28,0,0-17.88,15.12-16.72,18.24,1.15,3.12,3.86,22,2.62,22.46-1.25.46-6.67-18.06-12.09-19.29,0,0-13.91-3.06-18.51-2.07l14.7-8.27Z"/><path class="cls-5" d="m245.63,688.83s6.97-6.12,1.83-21.97c0,0,7.02,15.16,11.62,14.17,0,0,12.06-.19,16.57-3.28,0,0-17.88,15.12-16.72,18.24,1.15,3.12,3.86,22,2.62,22.46-1.25.46-6.67-18.06-12.09-19.29,0,0-13.91-3.06-18.51-2.07l14.7-8.27Z"/><polygon class="cls-1" points="285.87 343.19 341.71 286.74 272.98 339.04 284.07 407.93 265.3 394.66 265.3 394.66 261.89 392.24 252.31 402.22 264.9 394.89 291.66 418.42 285.87 343.19"/><path class="cls-1" d="m319.79,606.29s-42.68-17.74-42.68-42.68,17.74-70.96,8.87-77.61c-8.87-6.65-68.21-26.22-80.67-23.92-12.46,2.3-23.55,23.36-37.96,49.97-14.41,26.61-19.4,32.15-7.21,44.35,12.2,12.2,33.79,41.71,45.17,36.93,11.38-4.78,39.37-6.17,42.14-17.81,2.77-11.64,17.18-52.66,4.99-59.87-12.2-7.21-18.85-8.32-23.84-8.32s-27.19,12.89-23.3,16.15c3.89,3.25,8.88,22.1,12.76,19.88s14.73-13.02,18.45-9.28,12.91,6.48,0,15.09c-12.91,8.61-14.05,20.1-31.22,1.61-17.17-18.5-21.61-15.73-10.52-38.45,11.09-22.73,12.2-26.05,22.17-25.5,9.98.55,51.55,3.33,51.55,9.98s0,91.47-12.75,95.9c-12.75,4.43-63.18,18.29-72.33,13.58-9.16-4.71-51.84-47.95-54.06-55.71-2.22-7.76,57.12-97.91,54.06-107.99-3.06-10.08-11.93-50-11.93-50,0,0,14.97,38.8,25.5,42.68,10.53,3.88,115.86,26.61,118.08,39.36,2.22,12.75-28.83,77.61-22.73,88.14s18.85,34.37,39.36,48.78"/><path class="cls-1" d="m1037.73,437.65c-2.03,16.94-35.91,17.62-35.91,17.62,2.49,15.37-6.9,36.78-14.54,51.04-1.29-5.94-6.58-10.39-12.9-10.39-7.3,0-13.21,5.92-13.21,13.21s5.92,13.21,13.21,13.21c5.49,0,10.19-3.35,12.19-8.11,16.33-17.12,26.09-44.17,26.09-44.17,10.84,3.28,21.01-7.34,21.01-7.34.35.71,1.08,16.85,2.47,30.51-2.54-1.72-5.61-2.73-8.91-2.73-8.79,0-15.92,7.13-15.92,15.92s7.13,15.92,15.92,15.92,15.92-7.13,15.92-15.92c0-.37-.03-.73-.05-1.09,2.1-18.65-5.37-67.69-5.37-67.69Z"/></svg>