<?xml version="1.0" encoding="UTF-8"?><svg id="Color1" xmlns="http://www.w3.org/2000/svg" viewBox="0 0 1080 1137"><defs><style>.cls-1{fill:#011720;}.cls-2{fill:#03b083;}.cls-3{fill:#fff;}.cls-4{fill:#064862;}.cls-5{fill:#0c6b86;}.cls-6{fill:#48bcc4;}</style></defs><path class="cls-4" d="m481.68,175.23s-8.71,16.7-23.23,21.06c-14.52,4.36-31.95-31.95-7.26-45.02,24.69-13.07,55.59,3.26,60.47,22.69,4.88,19.42-.93,56.71-44.13,59.85-43.2,3.14-56.27-46.96-49.01-73.1,7.26-26.14,82.05-112.54,186.6-109.64,104.55,2.9,194.94,89.85,211.83,182.88,16.89,93.03-62.1,171.68-80.41,191.78-28.97,31.79-133.14,111.14-137.23,121.98,0,0,118.35-136.5,131.42-191.68,13.07-55.18,14.5-126.47-23.97-177.59-38.47-51.12-131.41-88.15-213.46-60.56-82.05,27.59-70.43,77.69-43.56,86.4,26.86,8.71,31.95-29.04,31.95-29.04Z"/><path class="cls-6" d="m819.4,318.14s-13.16,102.51-82.87,159.87c-69.7,57.36-164.82,150.3-165.54,190.96-.73,40.66,10.17,100.92,67.52,115.45,57.36,14.52,93.66-42.11,79.87-77.69,0,0-5.08,17.43-18.88,10.17-13.8-7.26-13.07-32.67,13.07-37.76,26.14-5.08,39.21,32.67,14.52,76.96-24.69,44.29-95.12,66.8-145.21,39.21-50.1-27.59-82.77-137.23,9.44-217.1s129.24-114.72,159.74-146.67c30.5-31.95,70.62-93.93,68.34-113.4Z"/><path class="cls-5" d="m421.79,324.85c-50.26,24.28-157.74,164.33-35.04,277.6,122.71,113.27,212.01-71.16,202.57-148.85-9.44-77.69-90.39-166.02-167.54-128.75Z"/><path class="cls-3" d="m448.68,367.45c-30.57,0-61.7,41.38-69.49,100.87-7.79,59.49,51.42,128,105.86,117.68,81.83-15.52,127.94-218.55-36.37-218.55Z"/><path class="cls-4" d="m478.67,406.11c-16.4-3.23-47.22,1.73-58.74,25.92-11.52,24.19-16.73,107.67,42.03,117.19,58.76,9.51,101.37-126.4,16.72-143.1Z"/><path class="cls-2" d="m474.17,443.77c-18-4.15-34.07,5.2-35.96,22.71-1.89,17.51-5.15,43.63,30.31,44.05s36.41-59.67,5.65-66.77Z"/><path class="cls-5" d="m881.54,929.09c-27.55,9.09-60.96-41.23-2.65-35.89,2.9.27,5.73.55,8.51.85-6.83-3.63-13.69-11.43-16.69-27.7-5.37-29.11-86.26,5.47-120.05,14.04-44.99,11.41-40.09-54.2-178.4-37.27-15.26,1.87-30.67,4.92-46.62,8.45-17.25-25.14-26.17-68.35-51.95-116.54-33.4-62.44-168.45-139.41-212.01-169.18-43.56-29.77-119.8-95.12-127.79-124.88-7.99-29.77,31.22-85.68,69.7-132.87,38.48-47.19,108.19-86.4,138.68-87.86,30.5-1.45,55.91,22.51,58.81,45.74,2.9,23.23-21.06,24.69-30.5,22.51-9.44-2.18,2.9-13.07,5.81-30.5,2.9-17.43-39.93-6.53-39.93-6.53,0,0-23.23,40.66-13.8,52.28,9.44,11.62,90.76,15.97,92.21,9.44,1.45-6.53,26.14-77.69-10.89-103.1-37.03-25.41-110.36-48.65-191.68-14.52-81.32,34.13-155.38,196.77-140.86,258.48,14.52,61.72,112.12,123.56,175.5,140.92,63.38,17.36,201.33,120.46,197.7,166.21-3.63,45.74-53.73,124.16-105.28,104.55-51.55-19.6-71.16-40.66-112.54-27.59-41.39,13.07-71.63,73.11-170.37,46.97,0,0,48.9,37.04,152.89,3.7l48.27,3.58c15.26,6.36,30.26,16.25,46.51,24.84,32.56,17.2,88.27,5.24,103.46,25.43,15.19,20.19,13.43,62.01-51.17,57.93-64.6-4.08-126.82-1.09-139.84,32.57-13.02,33.66,2.89,127.9,133.85,66.57,130.96-61.33,159.9-64.32,222.12-46.37,62.22,17.95,112.14-20.94,78.14-59.09-34.01-38.15-26.77-38.89-78.86-35.15-43.4,3.12-74.23-35.29-52.78-47.33l48.69,3.61c40.29,17.59,76.64,60.75,120.58,50.45,54.26-12.72-38.08,71.87,62.35,75.2,100.44,3.33,218.13,17.73,218.97-53.42.84-71.15-60.55-67.63-88.1-58.54Z"/><path class="cls-5" d="m905.35,896.36c-5.67-.88-11.67-1.63-17.95-2.31,9,4.78,17.95,2.31,17.95,2.31Z"/><path class="cls-1" d="m515.98,896.36l4.8,14.54s-15.43,7.16-4.15,24.82l-19.83,3.23-19.15-35.35,38.34-7.24Z"/><path class="cls-1" d="m347.5,884.53s-14.36,5.05-14.72,11.08c0,0,33.89,14.51,57.69,12.07,0,0-18.38-11.11-12.37-25.23l-30.61,2.08Z"/><path class="cls-1" d="m434.33,908.65s-19.86-21-9.99-34.96l47.59-8.5s-5.77,18.36,5.72,38.78c0,0-21.65,6.58-43.32,4.68Z"/><path class="cls-1" d="m515.98,896.36s40.27-6.91,43.87-9.84c0,0-34.19-11.01-34.17-34.93l-26.82,7.06s13.96,27.24,17.11,37.72Z"/><path class="cls-1" d="m635.62,840.88c-50.5-4.37-90.18,6.48-90.18,6.48,73.24,7.2,71.98,18.35,71.98,18.35,3.12-5.87,36.51-3.22,44.38-3.67l-26.19-21.15Z"/><path class="cls-1" d="m559.85,885.51l57.35-20.44s16.56,5.73,22.87,9.67c6.31,3.94,10.81,8.57,13.41,8.5,0,0-40.27,9.63-47.92,13.78,0,0-12.71-7.93-23.37-7.51-10.66.42-22.34-4.01-22.34-4.01Z"/><path class="cls-1" d="m465.04,940.04s-4.37-8.37-13.29-13.26c-8.92-4.89-17.42-18.16-17.42-18.16,0,0-21.88,1.95-43.85-.94,0,0,15.75,11.13,23.28,13.57,7.53,2.44,18.59,15.8,18.59,15.8,0,0,18.29,4.94,32.69,2.99Z"/><path class="cls-1" d="m465.04,940.04s14.28,21.04,10.57,44.2c0,0,28.18.59,33.24-3.43,0,0-1.16-27.49-12.05-41.85,0,0-21.39,2.13-31.76,1.08Z"/><path class="cls-1" d="m441.74,981.29s-19.94-4.23-26.67-10.21c0,0,3.34-27.75-22.06-37.63,0,0,27.78,2.55,39.33,3.6,0,0,15.86,17.25,9.4,44.25Z"/><path class="cls-1" d="m441.74,981.29s14.95,4.08,33.87,2.94c0,0,1.5,25.93-30.18,47.5,0,0-47.74,12.99-86.03-11.08,0,0,81.81,2.49,82.35-39.36Z"/><path class="cls-1" d="m487.39,1023.56s14.63-3.67,32.96-9.01c18.33-5.35,30.89-10.78,30.89-10.78,0,0-13.64-17.89-16.87-28.77l-25.52,5.82s-1.66,22.9-21.46,42.75Z"/><path class="cls-1" d="m359.4,1020.66s-24.64-11.55-26.62-22.3c0,0-89.28-7.71-112.94,27.22,0,0,36.95-14.66,57-13.04,20.04,1.62,58.92,12.84,82.56,8.13Z"/><path class="cls-1" d="m339.49,1072.4s48.59-25.32,65.73-27.16c17.14-1.84,40.66-13.48,40.21-13.51s41.96-8.18,41.96-8.18c0,0-22.01,18.2-46.75,24.42-24.74,6.22-43.21,24.42-43.21,24.42,0,0-34.18,11.9-57.94,0Z"/><path class="cls-1" d="m526.26,945.73s2.73,20.27,8.12,29.27c0,0,49.59-8.39,59.8-17.25"/><path class="cls-1" d="m565.33,914.38s33.89-16.11,40.24-17.35c6.35-1.24,18.88,14.15,22.85,24.45,3.97,10.3,21.2,11.2,21.2,11.2l-29.97,14.07s-27.12-17.67-54.32-32.38Z"/><path class="cls-1" d="m649.62,932.69l44.83-28.04s22.44,11.24,48.58,4.34c26.14-6.9,29.1-.38,29.1-.38,0,0-15.84,27.58-40.63,46.08,0,0-8.16-16.22-33.98-15.74-25.82.49-43.05-3.11-47.9-6.26Z"/><path class="cls-1" d="m653.48,883.25s26.56,19.47,40.97,21.41c0,0,25.52-20.94,45.28-22.55,0,0-10.81-.87-23.51-9.34,0,0-48.1,3.35-62.73,10.49Z"/><path class="cls-1" d="m424.33,873.68s4.31-18.2,18.96-38.49c0,0-23.86,5.61-34.95,4.65,0,0-15.53,17.22-24.6,20.83,0,0-6.43,6.06-5.64,21.77l46.23-8.77Z"/><path class="cls-1" d="m477.64,835.19h-34.35s10.41-35.82,10.41-45.7c0,0,16.83,10.95,23.94,45.7Z"/><path class="cls-1" d="m453.7,789.49l-14.23-4.26s10.44-28.9-1.78-47.6c0,0,14.6,6.7,16.01,51.86Z"/><polygon class="cls-1" points="477.64 835.19 471.92 865.18 498.87 858.65 477.64 835.19"/><path class="cls-3" d="m439.47,785.23s-16.82,38.13-31.13,54.61c0,0,21.37.46,34.95-4.65,0,0,11.82-34.41,10.41-45.7l-14.23-4.26Z"/><path class="cls-3" d="m443.29,835.19s-17.28,21.07-18.96,38.49l47.59-8.5,5.72-29.99h-34.35Z"/><path class="cls-3" d="m471.92,865.18l26.95-6.54s13.05,23.21,17.11,37.72l-38.34,7.6s-12.91-18.13-5.72-38.78Z"/><path class="cls-3" d="m424.33,873.68l-46.23,8.77s-7.11,12.16,12.37,25.23c0,0,31.54,4.35,43.85.94,0,0-12.55-7.2-9.99-34.94Z"/><path class="cls-3" d="m434.33,908.62s24.92,2.55,43.32-4.66l19.15,34.99s-19.02,3.44-31.76,1.08c0,0-7.64-12.61-17.25-15.95-9.61-3.34-13.46-15.46-13.46-15.46Z"/><path class="cls-3" d="m432.34,937.04s17.21,5.35,32.69,2.99c0,0,14.13,14.54,10.57,44.2,0,0-23.24,2.56-33.87-2.94,0,0,1.7-27.95-9.4-44.25Z"/><path class="cls-3" d="m496.8,938.95l19.83-3.23,9.63,10s2.69,22.83,8.12,29.27l-25.52,5.82s-1.42-27.88-12.05-41.85Z"/><path class="cls-3" d="m508.85,980.81s-9.92,3.41-33.24,3.43c0,0-1.77,28.64-30.18,47.5,0,0,31.9-5.57,41.96-8.18,0,0,20.15-19.38,21.46-42.75Z"/><path class="cls-3" d="m415.08,971.08s11.88,7.25,26.67,10.21c0,0,5.41,39.07-82.35,39.36,0,0-24.75-9.62-26.62-22.3,0,0,76.13,3.3,82.3-27.27Z"/><path class="cls-3" d="m534.37,974.99s5.73,22.87,16.87,28.77c0,0,82.73-17.19,106.21,0,0,0-15.97-54.18-63.28-46.02,0,0-28.53,16.45-59.8,17.25Z"/><path class="cls-3" d="m445.43,1031.73s-29.42,13.81-40.21,13.51c-10.79-.3-65.73,27.16-65.73,27.16,0,0,30.05-36.52,19.91-51.75,0,0,37.85,22.88,86.03,11.08Z"/><path class="cls-3" d="m525.68,851.59l18.35-4.23s65.89,2.97,73.17,17.72l-57.35,21.45s-35.58-8.12-34.17-34.93Z"/><path class="cls-3" d="m605.57,897.03s28.94-11.76,47.92-13.78c0,0,30.49,20.84,40.97,21.41l-44.83,28.04s-17.26-2-21.2-11.2c-3.94-9.21-16.35-22.77-22.85-24.45Z"/><path class="cls-3" d="m617.2,865.07s9.95-8.12,44.61-3.04c0,0,19.11,12.99,23.35,13.97,0,0-29.48,5.03-31.67,7.24.26,1.17-5.59-1.72-13.48-7.66-6.22-4.69-22.8-10.51-22.8-10.51Z"/><path class="cls-3" d="m525.68,851.59s-35.39-5.99-48.04-16.4l21.22,23.46,26.82-7.06Z"/></svg>