<?xml version="1.0" encoding="UTF-8"?><svg id="Color1" xmlns="http://www.w3.org/2000/svg" xmlns:xlink="http://www.w3.org/1999/xlink" viewBox="0 0 1080 1137"><defs><style>.cls-1{fill:#03b083;}.cls-2{fill:#fff;}.cls-3{fill:#064862;}.cls-4{fill:#0c6b86;}.cls-5{fill:#48bcc4;}.cls-6{fill:url(#Degradado_sin_nombre_34);}.cls-7,.cls-8{fill:none;stroke:#011720;stroke-miterlimit:10;}.cls-8{stroke-width:.6px;}</style><radialGradient id="Degradado_sin_nombre_34" cx="540.88" cy="567.28" fx="540.88" fy="567.28" r="465.54" gradientUnits="userSpaceOnUse"><stop offset="0" stop-color="#48bdc5"/><stop offset=".52" stop-color="#168ea3"/><stop offset=".78" stop-color="#0c6b87"/><stop offset=".99" stop-color="#0c6b87"/></radialGradient></defs><circle class="cls-6" cx="540.88" cy="567.28" r="465.54"/><path class="cls-3" d="m565.77,101.74s-5.36,190.13-45.52,250.39c-40.17,60.25-151.3,191.47-125.86,234.32,25.44,42.85,131.22,235.66,155.32,219.59,24.1-16.07,183.44-208.88,180.76-227.62-2.68-18.75-153.98-237-152.64-291.89,1.34-54.9-.97-184.78-.97-184.78l-9.74,220.93s111.13,222.27,111.13,235.66-127.2,179.42-140.59,168.71c-13.39-10.71-103.72-113.23-96.05-159.05,7.67-45.82,84-174.36,106.76-173.02,22.76,1.34,78.88,135.6,73.58,148.14-5.3,12.54-80.28,125.01-93.67,111.62-13.39-13.39-79-52.22-53.56-99.08,25.44-46.86,58.91-100.42,72.3-79,13.39,21.42,32.19,107.7-3.32,91.34-35.51-16.36-3.37-41.8-3.37-41.8,0,0-26.78,8.03-22.76,33.47,4.02,25.44,56.24,46.86,56.24-1.34s-24.1-112.47-38.83-111.13c-14.73,1.34-81.27,82.26-77.46,120.8,3.81,38.54,52.02,110.84,73.44,106.83s109.8-103.1,107.12-128.54c-2.68-25.44-61.28-171.53-77.51-182.17-16.22-10.64,5.2-262.37,5.2-262.37Z"/><path class="cls-3" d="m522.38,788.69s43.69,103.16,38.18,236.33c0,0-12.64-183.09,42.47-275.35"/><path class="cls-8" d="m558.66,196.13c5.64-51.82,6.86-95.13,6.86-95.13,0,0-3.7,43.52-6.86,95.13Z"/><path class="cls-8" d="m730.22,577.67c-2.68-18.75-153.98-237-152.64-291.89,1.34-54.9-.97-184.78-.97-184.78l-9.74,220.93s111.13,222.27,111.13,235.66-127.2,179.42-140.59,168.71c-13.39-10.71-103.72-113.23-96.05-159.05,7.67-45.82,84-174.36,106.76-173.02,22.76,1.34,78.88,135.6,73.58,148.14-5.3,12.54-80.28,125.01-93.67,111.62-13.39-13.39-79-52.22-53.56-99.08,25.44-46.86,58.91-100.42,72.3-79,13.39,21.42,32.19,107.7-3.32,91.34-35.51-16.36-3.37-41.8-3.37-41.8,0,0-26.78,8.03-22.76,33.47,4.02,25.44,56.24,46.86,56.24-1.34s-24.1-112.47-38.83-111.13c-14.73,1.34-81.27,82.26-77.46,120.8,3.81,38.54,52.02,110.84,73.44,106.83,21.42-4.02,109.79-103.1,107.12-128.54-2.68-25.44-61.28-171.53-77.51-182.17-9.48-6.22-6.1-94.72-1.66-167.24-6.18,56.77-17.66,123.76-38.66,155.26-40.17,60.25-151.3,191.47-125.86,234.32,19.64,33.08,87.15,155.51,128.01,202.24h0s29.99,70.83,37.14,170.86c1.32-61.74,9.56-153.04,43.51-209.87,54.7-63.44,129.26-158.38,127.42-171.26Z"/><path class="cls-8" d="m560.33,1024.27c.94-22.83.44-44.77-1.04-65.47-.82,38.47,1.04,65.47,1.04,65.47Z"/><path class="cls-2" d="m237.25,878.23s-6.71,9.34,0,8.86c6.71-.47,18.45-.47,16.78-12.22-1.68-11.74-23.49-21.81-41.94-8.39-18.45,13.42-20.13,49.53,0,60.84,20.13,11.31,58.72,14.66,72.14-17.21,13.42-31.88,10.91-89.76-67.95-88.08-78.85,1.68-75.5,67.11-70.46,82.21,5.03,15.1,60.4,80.53,130.86,28.52,0,0-46.98,25.17-73.82,5.03-26.84-20.13-16.78-77.17,11.74-82.21,28.52-5.03,50.33,8.39,46.98,23.49-3.36,15.1-11.74,33.55-38.59,25.17-26.84-8.39,6.71-30.2,14.26-26Z"/><path class="cls-5" d="m280.46,846.12s40.67,3.59,42.35-26.61c1.68-30.2,6.71-78.85,70.46-68.79,63.75,10.07,76.4,88.85,13.87,105.66-62.52,16.81-47.55-29.87-42.88-42.18,4.68-12.31,38.23-29.09,46.62-12.31,8.39,16.78-10.07,18.45-15.1,8.39,0,0-10.07,16.78,5.03,21.81,15.1,5.03,38.15-15.43,27.46-34.56-10.69-19.13-39.21-32.55-59.34-5.7-20.13,26.84-37.73,108.58-88.49,54.29Z"/><path class="cls-2" d="m658.36,794.34s-1.51,5.03-24.24,0c-22.73-5.03-110.72,18.02-108.67,88.7,2.05,70.68,88.32,41.4,109.78,13.26,21.46-28.14,58.66-55.56,88.71-35.98,30.05,19.58,110.18,74.19,201.82,35.98,91.64-38.21,40.9-109.15,0-111.43-40.9-2.28-72.78,14.5-79.49-15.7-6.71-30.2-38.96-67.82-94.98-67.46-56.02.36-67.96,43.37-72.05,58.77-4.1,15.4-20.87,33.86-20.87,33.86Z"/><path class="cls-8" d="m658.12,793.6s-1.51,5.03-24.24,0c-22.73-5.03-110.72,18.02-108.67,88.7,2.05,70.68,88.32,41.4,109.78,13.26,21.46-28.14,58.66-55.56,88.71-35.98,30.05,19.58,110.18,74.19,201.82,35.98,91.64-38.21,40.9-109.15,0-111.43-40.9-2.28-72.78,14.5-79.49-15.7-6.71-30.2-38.96-67.82-94.98-67.46-56.02.36-67.96,43.37-72.05,58.77-4.1,15.4-20.87,33.86-20.87,33.86Z"/><path class="cls-1" d="m276.68,932.75s36.03-44.89,70.44-49.71c34.41-4.82,44.18,7.55,48.52,24.85,4.34,17.3,27.83,49.18,63.06,20.66,35.23-28.52,3.36-45.3-3.36-43.62-6.71,1.68-17.62,14.26.84,14.26,0,0,5.03,20.13-23.49,18.45-28.52-1.68-43.88-65.5-1.81-95.67,42.07-30.16,130.99-18.42,144.41,53.72,13.42,72.14-1.68,100.66-57.04,107.37-55.36,6.71-90.6,6.71-130.86-46.98-40.27-53.69-110.73-3.36-110.73-3.36Z"/><path class="cls-3" d="m469.41,995.76s40.46-12,29.61-40.39c-10.85-28.38-16.23-62.55,23.23-69.69,39.46-7.14,47.22,28.87,45.74,37.82-1.48,8.96-13.39,27.06-27.15,24.9-13.76-2.15-13.27-27.22-5.49-31.48,7.77-4.27,18.46,8.84,4.87,12.31,0,0-1.27,11.58,13.25,2.93,14.52-8.65,1.8-42.91-25.27-36.19-27.07,6.72-26.36,29.24-20.48,44.15,5.87,14.91,15.46,46.88-38.31,55.64Z"/><path class="cls-7" d="m469.64,996.5s40.46-12,29.61-40.39c-10.85-28.38-16.23-62.55,23.23-69.69,39.46-7.14,47.22,28.87,45.74,37.82-1.48,8.96-13.39,27.06-27.15,24.9-13.76-2.15-13.27-27.22-5.49-31.48,7.77-4.27,18.46,8.84,4.87,12.31,0,0-1.27,11.58,13.25,2.93,14.52-8.65,1.8-42.91-25.27-36.19-27.07,6.72-26.36,29.24-20.48,44.15,5.87,14.91,15.46,46.88-38.31,55.64Z"/><path class="cls-7" d="m237.01,877.49s-6.71,9.34,0,8.86c6.71-.47,18.45-.47,16.78-12.22-1.68-11.74-23.49-21.81-41.94-8.39-18.45,13.42-20.13,49.53,0,60.84,20.13,11.31,58.72,14.66,72.14-17.21,13.42-31.88,10.91-89.76-67.95-88.08-78.85,1.68-75.5,67.11-70.46,82.21,5.03,15.1,60.4,80.53,130.86,28.52,0,0-46.98,25.17-73.82,5.03-26.84-20.13-16.78-77.17,11.74-82.21,28.52-5.03,50.33,8.39,46.98,23.49-3.36,15.1-11.74,33.55-38.59,25.17-26.84-8.39,6.71-30.2,14.26-26Z"/><path class="cls-7" d="m276.44,932.01s36.03-44.89,70.44-49.71c34.41-4.82,44.18,7.55,48.52,24.85,4.34,17.3,27.83,49.18,63.06,20.66,35.23-28.52,3.36-45.3-3.36-43.62-6.71,1.68-17.62,14.26.84,14.26,0,0,5.03,20.13-23.49,18.45-28.52-1.68-43.88-65.5-1.81-95.67,42.07-30.16,130.99-18.42,144.41,53.72,13.42,72.14-1.68,100.66-57.04,107.37-55.36,6.71-90.6,6.71-130.86-46.98-40.27-53.69-110.73-3.36-110.73-3.36Z"/><path class="cls-7" d="m280.22,845.38s40.67,3.59,42.35-26.61c1.68-30.2,6.71-78.85,70.46-68.79,63.75,10.07,76.4,88.85,13.87,105.66-62.52,16.81-47.55-29.87-42.88-42.18,4.68-12.31,38.23-29.09,46.62-12.31,8.39,16.78-10.07,18.45-15.1,8.39,0,0-10.07,16.78,5.03,21.81,15.1,5.03,38.15-15.43,27.46-34.56-10.69-19.13-39.21-32.55-59.34-5.7-20.13,26.84-37.73,108.58-88.49,54.29Z"/><path class="cls-4" d="m635.58,825.77s-17.67,10.31-7.36,16.2c10.31,5.89,25.93,2.88,33.58-21.39,7.65-24.27-16.07-36.59-55.02-17.17-38.95,19.41-57.78,70.3-24.8,82.41,32.98,12.11,47.71,3.28,69.8-15.87,22.09-19.15,61.53-42.06,99.25-12.19,37.72,29.86,154.31,34.94,175.54,0,21.23-34.94,1.19-73.77-47.7-63.92-48.89,9.84-63.98,8.14-59.38,20.03,4.6,11.9,3.13,32.52-49.89,13.37-53.02-19.15-4.42-57.44,11.78-54.49,16.2,2.95,22.09,10.31,14.73,10.31s-29.63,11.66-15.55,24.24c14.08,12.58,47.95,5.21,43.53-28.66-4.42-33.87-30.93-63.33-82.47-55.96-51.55,7.36-50.07,67.75-64.8,75.11-14.73,7.36,9.66,40.42-39.35,59.97-49.01,19.55-44.59-26.1-29.87-33.46,14.73-7.36,26.51-8.84,27.98,1.47Z"/><path class="cls-8" d="m635.58,825.77s-17.67,10.31-7.36,16.2c10.31,5.89,25.93,2.88,33.58-21.39,7.65-24.27-16.07-36.59-55.02-17.17-38.95,19.41-57.78,70.3-24.8,82.41,32.98,12.11,47.71,3.28,69.8-15.87,22.09-19.15,61.53-42.06,99.25-12.19,37.72,29.86,154.31,34.94,175.54,0,21.23-34.94,1.19-73.77-47.7-63.92-48.89,9.84-63.98,8.14-59.38,20.03,4.6,11.9,3.13,32.52-49.89,13.37-53.02-19.15-4.42-57.44,11.78-54.49,16.2,2.95,22.09,10.31,14.73,10.31s-29.63,11.66-15.55,24.24c14.08,12.58,47.95,5.21,43.53-28.66-4.42-33.87-30.93-63.33-82.47-55.96-51.55,7.36-50.07,67.75-64.8,75.11-14.73,7.36,9.66,40.42-39.35,59.97-49.01,19.55-44.59-26.1-29.87-33.46,14.73-7.36,26.51-8.84,27.98,1.47Z"/></svg>