<?xml version="1.0" encoding="UTF-8"?><svg id="Color1" xmlns="http://www.w3.org/2000/svg" xmlns:xlink="http://www.w3.org/1999/xlink" viewBox="0 0 1080 1137"><defs><style>.cls-1{fill:#011720;}.cls-2{fill:#03b083;}.cls-3,.cls-4{fill:#fff;}.cls-5{fill:#064862;}.cls-6{fill:#0c6b86;}.cls-7{fill:#48bcc4;}.cls-8{fill:url(#Degradado_sin_nombre_34);}.cls-9{fill:none;stroke:#011720;}.cls-9,.cls-4{stroke-miterlimit:10;}.cls-4{stroke:#064862;stroke-width:6px;}</style><radialGradient id="Degradado_sin_nombre_34" cx="594.13" cy="618.75" fx="594.13" fy="618.75" r="221.85" gradientUnits="userSpaceOnUse"><stop offset="0" stop-color="#48bdc5"/><stop offset=".52" stop-color="#168ea3"/><stop offset=".78" stop-color="#0c6b87"/><stop offset=".99" stop-color="#0c6b87"/></radialGradient></defs><path class="cls-4" d="m305.09,530.48s-87.65,33.49-86.3,51.25,98.38,236.42,131.68,237.87c33.31,1.45,95.61-32.57,95.61-32.57v-27.96"/><path class="cls-4" d="m395.53,458.95c-26.95,2.23-101.53,22.51-100.08,38.44,1.45,15.93,89.78,271.52,110.06,272.24,20.27.72,40.59-10.57,40.59-10.57l-50.56-300.11Z"/><path class="cls-2" d="m406.53,501.55c-2.11-3.8-13.7-19.73-41.21-19.73-16.08,0-52.13,19.55-43.44,57.2,8.69,37.65,54.3,35.48,62.99,11.58,8.69-23.89-6.52-44.17-17.38-44.17s-30.5,11.15-26.83,24.04c3.66,12.89,30.59,15.28,26.54,2.86-4.05-12.42-10.9-2.86-10.9-2.86,0,0-5.63-6.35-.47-10.13,5.15-3.77,29.79,10.33,14.94,23.19-14.85,12.86-34.78,3.66-35.31-10.2-.54-13.87.91-30.52,21.18-36.31,20.27-5.79,49.9,4.53,49.9,4.53Z"/><path class="cls-1" d="m475.2,749.4s21.79,71.22,101.45,49.75"/><path class="cls-8" d="m567.69,386.61c41.27-7.96,83.99-21.72,86.16,23.17,2.17,44.89,7.45,109.49-13.65,110.13-21.1.65-26.17-21.07-51.51-20.35-25.34.72-86.89,6.52-86.89,41.27s3.62,234.59,52.86,234.59,181.01-15.21,183.18-49.24c2.17-34.03-10.86-191.15-24.62-233.14-13.76-41.99,28.96-57.92,31.13-23.89,2.17,34.03,79.65,300.48,39.82,322.2-39.82,21.72-248.35,86.16-292.52,62.99-44.17-23.17-45.62-62.27-57.92-143.36-12.31-81.09-73.13-256.31-18.83-278.76,54.3-22.45,152.77-45.62,152.77-45.62Z"/><path class="cls-5" d="m594.13,515.65c11.91-1.21,21.37,38,0,42.45-21.37,4.45-32.95,7.35-32.95,24s-3.21,77.66,44.37,76.12c47.58-1.54,71.06-13.85,60.77-55.85s-16.37-59.71,12.01-66.42c28.38-6.71,63.13,156.93,40.69,180.1-22.45,23.17-120.92,55.03-145.53,38.37-24.62-16.65-44.89-97.75-51.41-147.71-6.52-49.96-29.67-80.77,72.05-91.07Z"/><path class="cls-1" d="m507.97,656.08s-19.79,73.28-32.78,93.32c0,0,5.33,21.19,17.67,30.72,0,0,21.05-49.88,20.49-85.29,0,0-5.13-38.29-5.38-38.75Z"/><path class="cls-1" d="m524.17,739.08s-1.26,37.93-10.68,55.98c0,0,10.32,11.52,30.1,8.12,0,0-.78-26.96-2.52-33.52,0,0-13.11-17.14-16.91-30.58Z"/><path class="cls-1" d="m557.04,775.41l14.16-.43,1.11,25.25-8.17,1.62s-4.57-20.46-7.1-26.44Z"/><path class="cls-1" d="m543.59,803.18s9.94.75,20.55-1.33c0,0,8.42,32.5,6.98,52.51,0,0-30.1,4.31-38.53,4.58,0,0,11.8-17.44,11-55.76Z"/><path class="cls-1" d="m514.05,794.72s-1.88,30.74-31.92,53.93c0,0-20.05-12.44-23.78-26.23,0,0,29.45-25.86,34.2-44.14,0,0,15.88,15.52,21.5,16.44Z"/><path class="cls-1" d="m458.35,822.42s-9.27-22.6-10.93-34c0,0-23.08,25.42-47.14,33.56l11.72,19.37s32.37-5.13,46.34-18.93Z"/><path class="cls-1" d="m482.13,848.65s-15.55,17.86-46.82,21.16c0,0,23.71,21.04,34.79,23.55,0,0,50.69-4.34,62.49-34.42,0,0-20.42,3.18-50.46-10.29Z"/><path class="cls-1" d="m571.13,854.37l13.36-2.36s9.11,18.36,14.23,22.9c0,0-26.1,7.01-30.09,10.2,0,0,2.68-15.34,2.51-30.73Z"/><path class="cls-1" d="m568.62,885.1s.61,4.66-6.11,15.31c-6.73,10.64-20.74,17.85-33.96,21.2-13.22,3.35-23.9,5.69-23.9,5.69,0,0-61.37,9.98-108.17-26.53,0,0,59.4-6.75,73.63-7.4,0,0,22.21,16.99,98.52-8.27Z"/><path class="cls-1" d="m435.32,869.81s-16.61-17.23-23.31-28.46c0,0-82.82,7.61-90.91,12.73,0,0,26.27,8.87,40.06,24.07,0,0,61.17-4.05,74.15-8.34Z"/><path class="cls-1" d="m321.1,854.08s-16.3-9.19-45.7-8.99c0,0-56.53,12.16-83.43,22.62,0,0,39.16-4.23,57.34,3.75,0,0,54.6-16.18,71.79-17.38Z"/><path class="cls-1" d="m361.16,878.15s-77.04,3.58-83.46,8.75c0,0,7.88.93,16.53,16.97,8.65,16.03,21.67,20.35,21.67,20.35,0,0,38.86-22.35,80.57-23.45,0,0-25.08-11.26-35.31-22.62Z"/><path class="cls-1" d="m497.93,928.5s-20.27,2.97-32.42,8.57c-12.15,5.6-15.94,11.22-18.47,14.73s-9.53,12.19-11.72,12.28c0,0,15.13,1.15,27.33-1.91,12.21-3.06,56.49,4.5,84.29,7.68,27.81,3.17,117.64-3.93,139.11-44.63,0,0-27.27-12.9-28.82-15.42,0,0-88.63,21.21-159.29,18.72Z"/><path class="cls-1" d="m435.32,964.07s-50.76,1.13-119.41-39.85c0,0-53.47,25.69-73.07,27.76,0,0,45.65,33.68,112.28,43.8,0,0,76.07-9.03,80.2-31.7Z"/><path class="cls-1" d="m277.7,886.9s-61.07,10.13-93.18,29.15c0,0-20.72-13.36-33.37-14.87l98.15-29.72s19.65,1.41,28.4,15.44Z"/><path class="cls-1" d="m151.15,901.18l-26.13-7.42s-54,11.99-98.02-6.85c0,0,33.11,37.29,124.15,14.28Z"/><path class="cls-1" d="m184.52,916.06s-50.65,28.43-126.1,19.93c0,0,106.65,48.06,184.41,15.99,0,0-32.52-32.17-58.31-35.92Z"/><path class="cls-3" d="m447.43,788.42l27.77-39.02s5.04,17.25,17.68,29.89c0,0-6.13,22.15-34.52,43.13,0,0-11.16-20.7-10.93-34Z"/><path class="cls-3" d="m492.86,780.12s20.24-55.2,20.49-85.29c0,0,8.29,36.67,10.82,44.25,0,0,0,34.14-10.12,55.64,0,0-8.24-3.9-21.19-14.6Z"/><path class="cls-3" d="m541.07,769.66s6.17,5.83,15.97,5.75c0,0,4.11,12.73,7.1,26.44,0,0-12.51,2.2-20.55,1.33,0,0-.14-17.57-2.52-33.52Z"/><path class="cls-3" d="m543.59,803.18s-11.84,4.18-29.54-8.46c0,0-4.41,32-31.92,53.93,0,0,22.22,12.55,50.46,10.29,0,0,13.98-22.01,11-55.76Z"/><path class="cls-3" d="m564.14,801.85l8.17-1.62s2.94,30.66,12.17,51.77l-13.36,2.36s-1.15-32.74-6.98-52.51Z"/><path class="cls-4" d="m655.52,477.19s36.93-7.96,34.03-44.89-20.67-61.93.16-63.91c20.84-1.98,36.76-25.87,10.7-24.43-26.07,1.45-112.11-10.72-114.34-73.78-2.23-63.06,110-193.39,339.52-137.64,229.52,55.75,107.88,287.45-48.51,256.31-156.39-31.13-173.05-15.21-170.15-1.45,2.9,13.76,21,82.54-51.41,89.78Z"/><path class="cls-4" d="m779.84,656.68s8.69-34.03,30.41-34.03,35.48-4.34,41.99-26.07,16.65-64.44,74.58-46.34c57.92,18.1,67.36,73.44,39.83,102.61-27.52,29.17-73.51,30.93-85.99,0-12.49-30.93-33.84-24.77-46.88-17.53s-14.48,4.34-22.45.72c-7.96-3.62-23.89.72-31.5,20.64Z"/><path class="cls-7" d="m154.26,419.91s25.34-5.07,15.21-22.45c-10.14-17.38-40.82-10.14-47.92,11.22-7.1,21.36,2.31,49.6,28.38,38.01,26.07-11.58,36.2-11.58,49.24-6.52,13.03,5.07,50.68,13.03,43.44-11.58-7.24-24.62,0-30.41,15.21-28.24,15.21,2.17,21,60.1-11.58,73.13-32.58,13.03-47.36.72-59.16,0-11.8-.72-11.8,6.52-19.04,21.72-7.24,15.21-18.83,41.99-39.1,37.65-20.27-4.34-24.62-30.41-23.17-41.99,1.45-11.58-6.52-11.58-15.93-9.41-9.41,2.17-36.93,7.24-30.41-44.17s55.03-83.99,97.02-65.89c41.99,18.1,28.93,48,15.92,51.88-13.02,3.88-20.98,6.05-18.09-3.36Z"/><path class="cls-6" d="m231.01,390.95c12.82-15.38-.72-28.24-7.96-30.41-9.71-2.91-23.17,5.07-20.27,8.69,2.9,3.62.72-1.45,6.52-1.45s18.83,16.65,5.07,28.96c-13.76,12.31-41.27,2.9-33.31-27.51,7.96-30.41,39.1-36.2,61.54-25.34,22.45,10.86,22.45,39.82,8.69,50.68-13.76,10.86-27.51,5.07-20.27-3.62Z"/><path class="cls-7" d="m235.35,495.94c-7.15-8.68-20.95,2.77-15.18,10.8,5.77,8.03,25.32,1.51,15.18-10.8Z"/><path class="cls-7" d="m262.54,510.24c-9.81.52-18.5,11.76-8.36,19,10.14,7.24,25.41-19.9,8.36-19Z"/><path class="cls-9" d="m153.73,420.2s25.34-5.07,15.21-22.45c-10.14-17.38-40.82-10.14-47.92,11.22s2.31,49.6,28.38,38.01c26.07-11.58,36.2-11.58,49.24-6.52,13.03,5.07,50.68,13.03,43.44-11.58-7.24-24.62,0-30.41,15.21-28.24,15.21,2.17,21,60.1-11.58,73.13-32.58,13.03-47.36.72-59.16,0-11.8-.72-11.8,6.52-19.04,21.72-7.24,15.21-18.83,41.99-39.1,37.65-20.27-4.34-24.62-30.41-23.17-41.99,1.45-11.58-6.52-11.58-15.93-9.41s-36.93,7.24-30.41-44.17c6.52-51.41,55.03-83.99,97.02-65.89,41.99,18.1,28.93,48,15.92,51.88-13.02,3.88-20.98,6.05-18.09-3.36Z"/><path class="cls-9" d="m230.47,391.23c12.82-15.38-.72-28.24-7.96-30.41-9.71-2.91-23.17,5.07-20.27,8.69s.72-1.45,6.52-1.45,18.83,16.65,5.07,28.96c-13.76,12.31-41.27,2.9-33.31-27.51,7.96-30.41,39.1-36.2,61.54-25.34,22.45,10.86,22.45,39.82,8.69,50.68-13.76,10.86-27.51,5.07-20.27-3.62Z"/><path class="cls-9" d="m234.82,496.22c-7.15-8.68-20.95,2.77-15.18,10.8,5.77,8.03,25.32,1.51,15.18-10.8Z"/><path class="cls-9" d="m262,510.53c-9.81.52-18.5,11.76-8.36,19,10.14,7.24,25.41-19.9,8.36-19Z"/></svg>