<?xml version="1.0" encoding="UTF-8"?><svg id="Color1" xmlns="http://www.w3.org/2000/svg" xmlns:xlink="http://www.w3.org/1999/xlink" viewBox="0 0 1080 1137"><defs><style>.cls-1{fill:#011720;}.cls-2{fill:#03b083;}.cls-3{fill:#fff;}.cls-4{fill:#064862;}.cls-5{fill:#0c6b86;}.cls-6{fill:#48bcc4;}.cls-7{fill:url(#Degradado_sin_nombre_34);}</style><radialGradient id="Degradado_sin_nombre_34" cx="490.12" cy="703.3" fx="490.12" fy="703.3" r="521.8" gradientUnits="userSpaceOnUse"><stop offset="0" stop-color="#48bdc5"/><stop offset=".52" stop-color="#168ea3"/><stop offset=".78" stop-color="#0c6b87"/><stop offset=".99" stop-color="#0c6b87"/></radialGradient></defs><path class="cls-4" d="m454.56,553.34c74.02-10.15,112.1-9.26,133.24-89.2,21.14-79.94-185.18,47.69-212.61-25.14-27.43-72.84-45.4-219.43,94.17-219.43s203.25,68.48,161.36,136.29c-41.88,67.81-161.4,38.59-150.81-29.12,10.59-67.71,90.84-31.06,80.85-9.35-9.99,21.71-26.71,52.58,18.13,26.99,44.84-25.58-4.16-79.24-38.87-77.78-34.71,1.46-101.75-30.02-96.25,60.14,5.5,90.16,58.54,85.65,105.51,87.9,46.96,2.26,120.13,26.84,48.13,89.53-72.01,62.69-142.85,49.16-142.85,49.16Z"/><path class="cls-1" d="m751.82,852.69s17.95,22.13,41.28,31.28c0,0,38.39-18.62,41.48-22.61l-26.5-35.85-56.26,27.18Z"/><path class="cls-1" d="m874.74,920.87l47.32-30.69,65.1,13.39s-36.83,39.96-67.91,48.53l-44.4-31.53-.11.3Z"/><path class="cls-1" d="m874.86,920.57s-76.08-29.37-81.76-36.59c0,0-71.43,29.02-87.48,25.71l65.05,49.05s89.8-18.59,104.19-38.18Z"/><path class="cls-1" d="m751.82,852.69s-57.44,36.75-101.6,29.52l-61.03-33.29s95.13-11.7,113.41-23.97l49.22,27.74Z"/><polygon class="cls-1" points="650.21 882.22 705.62 909.69 608.81 940.42 551.99 908.29 650.21 882.22"/><path class="cls-1" d="m589.19,848.93s-66.91,6.29-116.54-2.21l-69.77-57.48,130.81,17.92,55.51,41.77Z"/><path class="cls-1" d="m662.55,978.13l-53.73-37.71-115.12,13.89,43.21,62.27s75.49-40.24,125.64-38.44Z"/><path class="cls-1" d="m551.99,908.29l-79.35-61.57s-68.68,4.85-131.69-17.76l99.36,85.58s89.66-18.73,111.67-6.26Z"/><polygon class="cls-1" points="440.32 914.54 493.69 954.31 343.89 957.24 298.45 910.23 440.32 914.54"/><path class="cls-1" d="m298.45,910.23l-88.01,1.02s-26.13-53.44-18.08-75.78l83.71,7.07,22.39,67.69Z"/><path class="cls-1" d="m276.07,842.54l-23.83-61.81s57.44-23.35,105.99,2.3l20.35,70.85-102.51-11.33Z"/><path class="cls-1" d="m536.91,1016.58l75.19,57.75s-105.96,63.43-201.96-26.73l126.77-31.02Z"/><path class="cls-6" d="m783.24,115.66s-4.19,26.1-10.87,34.4c0,0-13.72,7.89-25.11,5.03,0,0,18.28,7.36,19.17,10.18,0,0,2.75,20.11.79,29.06,0,0,6.47-21.1,12.13-28.12,0,0,5.66-7.02,24.86-7.34,0,0-13.68-2.6-19.3-8.71,0,0-5.22-7.89-1.67-34.51Z"/><path class="cls-6" d="m340.53,795.58c-57.36-9.04-87.52-27-79.14-50.28,8.38-23.28,53.07-70.76,69.83-54.93,16.76,15.83,20.48,60.52,40.97,60.52s40.04-35.38,64.24-34.45c24.21.93,27.93,53.07,62.38,50.28,34.45-2.79,42.83-49.35,67.97-52.14,25.14-2.79,32.59,35.38,53.07,32.59,20.48-2.79,23.11-53.82,46-59.96,22.9-6.15,72.24,38.55,63.86,77.65-8.38,39.1-200.18,60.52-389.19,30.73Z"/><path class="cls-3" d="m324.24,720.63c-12.93-4.08-39.1,5.59-39.1,22.35s29.79,24.05,39.1,17.15c9.31-6.91,17.69-33.91,0-39.49Z"/><path class="cls-4" d="m317.46,731.38c-7.93-2.5-23.97,3.42-23.97,13.7s18.27,14.75,23.97,10.51c5.71-4.23,10.85-20.79,0-24.21Z"/><path class="cls-3" d="m311.51,738.91c-3.2-1.01-9.67,1.38-9.67,5.52s7.37,5.95,9.67,4.24c2.3-1.71,4.37-8.38,0-9.76Z"/><path class="cls-3" d="m676.78,724.39c-10.53,8.53-16.9,35.7-2.92,44.94,13.98,9.24,36.5-11.59,35.87-23.17-.63-11.58-18.53-33.45-32.95-21.78Z"/><path class="cls-3" d="m436.9,743.91c-17.33,4-27.93,13.03-27,26.07.93,13.03,37.24,27,45.62,8.38,8.38-18.62-6.52-37.24-18.62-34.45Z"/><path class="cls-3" d="m575.39,743.63c-16.81.2-27.7,10.52-23.97,29.14,3.72,18.62,32.26,21.75,40.8,14.6,8.54-7.15,6.21-44.02-16.83-43.74Z"/><path class="cls-2" d="m344.72,640.06c-13.53,2.94-33.52,22.35-13.03,35.38,20.48,13.03,107.07,42.83,202.04,35.38,94.97-7.45,135.01-13.97,127.56-44.69-7.45-30.73-10.77-41.9-64.51-26.07-53.74,15.83-106.81,26.07-224.13,3.72,0,0-10.24-8.38-6.52,9.31s154.5,29.72,207.6,15.79,54.96-3.69,54.96.04-165.73,37.24-270.01-7.45c0,0,7.45-26.07-13.97-21.41Z"/><path class="cls-7" d="m448.07,136.85c18.59-3.89,38.17,43.76,67.97,32.59,29.79-11.17,33.52-63.48,0-78.29-33.52-14.82-96.83-23.19-172.25,17.77-75.42,40.97-149.9,114.52-164.8,219.73-14.9,105.21,28.86,239.29,148.97,286.77,120.11,47.48,319.84,24.79,391.98-78.21,80.54-114.99,72.62-197.39,34.45-298.87-38.17-101.49-94.04-151.76-154.09-144.78-22.27,2.59-33.05,64.71,12.57,83.33,45.62,18.62,45.62,12.1,53.07,6.52,7.45-5.59,23.74,70.3,27.47,119.64,4.11,54.49-.47,182.96-141.99,231.37-141.52,48.42-232.77-56.8-249.53-100.56-16.76-43.76-49.35-256.04,146.18-297.01Z"/><path class="cls-6" d="m172.71,154.82s8.31,15.35,8.15,22.38c0,0-4.01,9.65-11.12,12.74,0,0,12.53-3.5,14.13-2.38,0,0,9.53,9.42,12.11,14.89,0,0-5.1-13.65-4.97-19.6,0,0,.14-5.95,10.06-13.85,0,0-8.21,4.14-13.61,3.21,0,0-5.91-2.03-14.77-17.39Z"/><path class="cls-6" d="m226.38,101.2s7.68-6.74,2.01-24.2c0,0,7.73,16.7,12.8,15.61,0,0,13.28-.21,18.25-3.61,0,0-19.69,16.66-18.42,20.1s4.26,24.24,2.88,24.74c-1.38.51-7.35-19.9-13.32-21.25,0,0-15.32-3.37-20.39-2.28l16.19-9.11Z"/><path class="cls-6" d="m776.54,529.78s-3.3,17.14-7.89,22.48c0,0-9.22,4.92-16.68,2.8,0,0,11.91,5.24,12.44,7.11,0,0,1.4,13.33-.08,19.2,0,0,4.71-13.79,8.59-18.31,0,0,3.88-4.52,16.56-4.33,0,0-8.98-2-12.56-6.14,0,0-3.28-5.32-.39-22.81Z"/><path class="cls-6" d="m833.96,227.74s-7.49,15.77-13.27,19.79c0,0-10.16,2.46-16.85-1.46,0,0,10.22,8.05,10.26,10,0,0-1.99,13.25-4.88,18.57,0,0,8.01-12.17,12.9-15.57,0,0,4.89-3.4,17.12-.04,0,0-8.19-4.19-10.62-9.09,0,0-1.85-5.97,5.33-22.18Z"/><path class="cls-4" d="m581.95,757.83c-7.93-2.5-23.97,3.42-23.97,13.7s18.27,14.75,23.97,10.51c5.71-4.23,10.85-20.79,0-24.21Z"/><path class="cls-3" d="m576,765.36c-3.2-1.01-9.67,1.38-9.67,5.52s7.37,5.95,9.67,4.24c2.3-1.71,4.37-8.38,0-9.76Z"/><path class="cls-5" d="m431.36,722.4s-34.01,24.13-14.79,51.14c19.22,27.01,42.64-6.17,35.34-15.16-7.29-8.99-15.91-11.57-23.55-5.22-7.64,6.36-2.27,22.76,3.62,19.1,5.88-3.66,7.44-11.97,2.77-12.75s8.26-7.55,8.42,2.59c.15,10.14-9.19,22.6-19.06,11.44s-1.57-43.33,7.26-51.14Z"/><path class="cls-5" d="m643.2,748.47s24.45,34.46,51.82,14.99c27.37-19.47-6.26-43.2-15.36-35.81-9.11,7.39-11.73,16.12-5.29,23.86,6.44,7.74,23.06,2.3,19.36-3.67-3.71-5.96-12.13-7.54-12.92-2.8-.79,4.74-7.65-8.37,2.62-8.53,10.27-.16,22.9,9.32,11.59,19.31-11.31,10-43.91,1.59-51.82-7.36Z"/></svg>