<?xml version="1.0" encoding="UTF-8"?><svg id="Color1" xmlns="http://www.w3.org/2000/svg" xmlns:xlink="http://www.w3.org/1999/xlink" viewBox="0 0 1080 1137"><defs><style>.cls-1,.cls-2,.cls-3{fill:none;}.cls-4{fill:#03b083;}.cls-5{fill:#fff;}.cls-6{fill:#064862;}.cls-7{fill:#0c6b86;}.cls-8{fill:#48bcc4;}.cls-9{fill:url(#Degradado_sin_nombre_34);}.cls-2{stroke:#011720;stroke-miterlimit:10;}.cls-3{clip-path:url(#clippath);}</style><radialGradient id="Degradado_sin_nombre_34" cx="574.55" cy="265.43" fx="574.55" fy="265.43" r="213.17" gradientUnits="userSpaceOnUse"><stop offset="0" stop-color="#48bdc5"/><stop offset=".52" stop-color="#168ea3"/><stop offset=".78" stop-color="#0c6b87"/><stop offset=".99" stop-color="#0c6b87"/></radialGradient><clipPath id="clippath"><path class="cls-1" d="m1452.76,807.56s-79.54-79.54-34.57-432.31c0,0,132.26-158.93,250.69-69.12,118.43,89.81,413.99,576.35,414.98,586.17,1,9.82-123.7,184.82-411.91,193.08-288.21,8.26-336.35-68.11-362.65-116.04-35.01-63.8,76.64-164.96,143.45-161.78Z"/></clipPath></defs><path class="cls-9" d="m789.63,297.22c-11.11-110.38-111.33-57.09-102.44-131.61,12.84-107.63-92.32-156.5-128.86-52.83-7.89,22.39-22.71,108.61-52.33,114.54-29.62,5.92-181.93,51.37-140.83,144.67,41.1,93.3,193.16,127.86,284,85.4,90.84-42.46,151.56-49.79,140.46-160.17Zm-159.51,124.03c-67.94,31.75-181.67,5.91-212.41-63.87-30.74-69.78,83.17-103.77,105.33-108.2,22.15-4.43,33.24-68.92,39.14-85.66,27.32-77.54,105.97-40.99,96.37,39.51-6.65,55.73,68.31,15.88,76.62,98.43,8.31,82.55-37.11,88.04-105.05,119.79Z"/><path class="cls-6" d="m418.07,448.26c17.59-4.78,33.57,11.23,32.96-25.23-.6-36.46-21.45-58.13-43.82-32.94-22.37,25.19-59.53,85.28,2.14,133.63,61.67,48.35,133.61,27.83,157.52-42.91,23.92-70.74-8.14-160.28-148.57-196.1-140.42-35.82-230.76,108.31-175.82,173.6,54.94,65.3,111.55,53.84,82.72,100.18-28.83,46.34-97.75,204.56-116.92,190.15-19.17-14.41-59.98-79.95-92.51-41.96-32.52,37.99,24.69,62.99,68.17,71.67,0,0-12.51,32.61-22.41,27.16-9.91-5.45-69.12-70.45-81.87-50.79-12.75,19.67-28.45,37.85-28.45,37.85,0,0,106.1,79.76,118.9,73.38,12.8-6.38,28.84-54.33,28.84-54.33l69.03,43.88s32.65-27.47,15.07-38.68c-17.58-11.21-52.43-15.4-41.86-29.46,10.57-14.06,107.98-196.88,124.31-218.61,16.33-21.73,24.93-51.27-7.95-68.99-32.89-17.72-77.87-125.54-10.68-151.05,67.18-25.51,118.95,9.4,137.44,67.3,18.49,57.9-9.05,89.21-45.81,71.59-36.76-17.63-20.43-39.36-20.43-39.36Z"/><path class="cls-5" d="m523.73,511.47c7.48-2.88-4.39-20.84-9.2-14.43-4.82,6.41-8.44,21.23,9.2,14.43Z"/><path class="cls-5" d="m544,396.68c7.48-2.88-4.39-20.84-9.2-14.43-4.82,6.41-8.44,21.23,9.2,14.43Z"/><path class="cls-5" d="m553.6,460.97c7.39-2.17-1.65-16.07-9.48-15.57-7.83.5-11.67,21.79,9.48,15.57Z"/><path class="cls-8" d="m240.49,343.9s-15.23,40.95,15,49.63c30.23,8.68,61.86,25.48,43.22,62.58-18.64,37.1-53.26,21.12-59.76,14.33s-14.06-27.91-3.72-37.96c10.34-10.04,30.78,5.95,29.47,15.04-1.31,9.09-18.8,9.78-13.21-3.63,0,0-8.79-8.26-10.66,9.15-1.87,17.4,34.39,28.18,45.67,1.6,11.28-26.58-7.8-40-23.79-44.42-16-4.41-48.42-16.37-22.22-66.31Z"/><path class="cls-4" d="m253.09,373.94s-1.07-31.99,22.86-37.92c23.93-5.94,48.23-2.32,61.12-24.37,12.89-22.05-.52-38.66-10.08-37.82-9.55.85-26.16,8.59-24.76,24.21,0,0,.1,4.38,8.13,1.01,0,0,.5-16.65,10.78-16.62,10.28.03,17.62,8.45,12.96,17.95-4.66,9.5-17.45,21.68-34.97,20.57-17.52-1.11-61.16,17.5-46.05,52.98Z"/><path class="cls-7" d="m647.19,317.18c-46.39,1.15-101.22-22.25-106.89,89.1-5.67,111.35-25.67,192.3,53.45,193.29,79.12.99,142.31,7.91,142.31-80.96s30.61-204.39-88.87-201.43Zm69.49,168.17c0,51.35-46.65,47.36-105.05,46.78-58.4-.57-43.64-47.35-39.45-111.69,4.19-64.34,44.66-50.82,78.9-51.48,88.19-1.71,65.6,65.04,65.6,116.39Z"/><path class="cls-7" d="m613.76,599.89l22.96,166.93s-33.95,2.59-33.95,11.48-6.91,36.53,7.9,36.53h37.78s6.18,33.79,0,34.17c-6.18.39-77.61-16.08-74.97,14.37,2.64,30.45-1.02,51.89,38.83,49.07,39.84-2.82,58.6,5.08,59.59,60.37.99,55.29,19.75,40.48,78.99,27.65,59.24-12.84,95.78-7.9,94.79-41.47-.99-33.57-3.95-71.09-35.55-58.26-31.6,12.84-70.54,30.45-70.54,30.45,0,0-77.08-319.27-77.08-339.02s-52.06-16.16-48.74,7.72Z"/><path class="cls-8" d="m671.88,271.61c-28.77.89,81.99,328.47,126.41,299.58,44.41-28.89,99.38-132.99,133.61-172.77,34.23-39.77,33.24-135.85-260.02-126.81Zm198.27,109.46c-19.22,22.34-50.09,80.8-75.03,97.02-24.94,16.22-87.14-167.74-70.99-168.24,164.69-5.07,165.25,48.88,146.02,71.22Z"/><path class="cls-8" d="m853.56,487.01s105.65,152.06,130.34,127.38c24.69-24.69,73.53-73.77,53.32-79.98-20.21-6.21-23.14-5.94-32.58,6.91-13.98,19.02-45.56,18.07-34.56-5.92,10.86-23.7-7.9-44.43-23.12-39.73-11.59,3.58-27.5,28.93-27.86,17.55-.36-11.39,12.48-40.02,1.62-39.03-10.86.99-23.5,21.67-25.57-.02-2.07-21.7-20.83-38.48-41.57,12.86Z"/><path class="cls-4" d="m666.66,610.99s-25.34,3.75-27.29,3.82c-1.95.07-5.58,2.15-14.35-8.26-8.77-10.42-21.32-36.02-15.08-46.98,6.24-10.96,14.61-11.46,27.18-14.85,12.56-3.38,24.4-5.38,27.88,9.92,3.48,15.29,8.15,36.4-2.93,37.58-11.08,1.18-20.85,3.78-26.25-2.56-5.4-6.34-17.23-20.16-11.22-26.82,6-6.66,19.45-7.34,23.9-3.02,4.45,4.33,3.27,10.76,1.07,12.77-2.2,2.01-4.15,1.89-7.16-.35-3.01-2.23-5.58,4.79-2.02,6.22,3.57,1.43,10.45,5.57,14.92-5.71,4.47-11.29,3.28-14.47-7.52-19.05-10.8-4.58-20.64-1.3-24.18.68-3.54,1.98-5.58,4.98-5.78,10.26-.2,5.28-.65,27.64,7.76,36.41,8.42,8.77,13.35,10.15,25.46,10.3,12.11.15,15.6-.37,15.6-.37Z"/><path class="cls-4" d="m783.68,917.81s23.28-1.92,25.06-1.87c1.78.05,5.21-1.63,12.58,8.36,7.37,10,17.28,34.04,10.96,43.65-6.32,9.61-13.97,9.57-25.61,11.91-11.63,2.34-22.52,3.46-24.79-10.67-2.27-14.12-5.28-33.61,4.88-34.03,10.16-.42,19.19-2.22,23.74,3.88,4.54,6.09,14.49,19.36,8.63,25.07-5.86,5.71-18.13,5.54-21.93,1.34-3.8-4.2-2.34-9.98-.23-11.68,2.12-1.7,3.89-1.47,6.5.74,2.61,2.21,5.36-4.03,2.2-5.54s-9.18-5.69-13.92,4.32c-4.73,10.01-3.84,12.97,5.73,17.78,9.56,4.81,18.71,2.4,22.05.8,3.34-1.6,5.37-4.21,5.86-9,.49-4.79,2.22-25.12-4.92-33.6-7.15-8.48-11.55-10.03-22.56-10.87-11.01-.85-14.22-.58-14.22-.58Z"/><path class="cls-6" d="m878.99,461.86s28.4,1.75,35.08,28.42c6.68,26.68.1,52.85,6.19,58.97,6.09,6.12,11.48-.61,16.53-9.45,5.04-8.84,40.17-15.05,52.05-11.79,0,0,9.69,20.92,10.4,33.52.71,12.6-.12,12.16-3.63,13.17-3.52,1.01-24.17,20.46-50.13,5.32,0,0,.9-25.47,5.12-27.43,4.22-1.96,28.23-.27,30.35,1.66,2.12,1.94,4.32,14.96,1.9,15.81-2.42.85-9.78,1.97-12.96,2.74-3.18.77-6.15,1.04-5.77-2.6s-.09-1.76,5.45-1.91c5.54-.15,11.22.02,9.47-5.55,0,0-3.22-.8-7.25-.81-4.03,0-11.38-3.12-12.38.23-.99,3.35-.24,9.66-1.7,12.65-1.46,2.99-.35,5.93,9.46,5.46,9.82-.47,22.43,1.36,24.75-8.08,2.32-9.44-.85-32.14-3.32-33.17-2.47-1.02-8.91-.03-14.78.39-5.87.43-20.11.25-23.27-.11-3.16-.36-8.16-2.24-8.34,5.8-.18,8.03-3.98,31.21-4.46,33.64,0,0,17.65,16.88,40.77,9.86,23.12-7.02,26.47-17.14,25.85-18.74-.62-1.6-5.29-16.14-3.1-51.6,0,0-31.75,2.98-38.15,2.36-6.4-.62-25.65-5.77-29.15,5.21s-4.68,12.36-6.02,9.85c-1.33-2.51-4.97-23.8-3.9-35.92,1.06-12.12-16.2-39.99-34.17-41.76l-10.9,3.83Z"/><path class="cls-5" d="m895.16,416.43c7.48-2.88-4.39-20.84-9.2-14.43-4.82,6.41-8.44,21.23,9.2,14.43Z"/><path class="cls-5" d="m907.53,330.28c7.48-2.88-4.39-20.84-9.2-14.43-4.82,6.41-8.44,21.23,9.2,14.43Z"/><path class="cls-5" d="m917.13,375.82c7.39-2.17-1.65-16.07-9.48-15.57-7.83.5-11.67,21.79,9.48,15.57Z"/><path class="cls-5" d="m682.13,793.49c7.39-2.17-1.65-16.07-9.48-15.57-7.83.5-11.67,21.79,9.48,15.57Z"/><path class="cls-5" d="m691.01,882.35c7.39-2.17-1.65-16.07-9.48-15.57-7.83.5-11.67,21.79,9.48,15.57Z"/><g class="cls-3"><path class="cls-4" d="m1557.21,434.95s-4.08,29.91,19.02,11.06c23.1-18.84,10.17-62.9-14.68-69.14-24.85-6.24-74.09,8.11-63.58,82.09,10.51,73.98,76.28,89.08,117.05,44.75,40.78-44.33,30.02-139.87-23.12-158.67-53.14-18.79-99.52-21.93-170.52,69.3-71.01,91.24-177.26,332.57-300.46,363.57-123.2,31-229.86,45.71-186.54,135.01,43.32,89.3,81.12,44.43,182.08,0,100.96-44.43-63.52,16.08-50.58,50.87,12.94,34.79,181.82,69.44,199.28-26.61,17.45-96.05,98.74-87.82,141.76-137.22,43.03-49.4,113.1-173.11,85.38-244.84-27.72-71.73-46.98-138.49,15.78-177.45,62.76-38.96,99.67-20.09,115.61,19.11,15.94,39.2-42.25,108.15-69.36,67.6-27.12-40.56,2.89-29.43,2.89-29.43Z"/><path class="cls-5" d="m1188.61,786.89s-42.41,24.47-77.12,32.37l-60.04-24.32,90.37-24.32,46.79,16.26Z"/><path class="cls-5" d="m1178.83,843.96l-67.34-24.7s-43.93,23.87-90.91,24.7l86.42,37.53s54.28-40.8,71.83-37.53Z"/><polygon class="cls-5" points="1107 881.5 1151.89 896.83 1054.18 942.92 1012.72 919.63 1107 881.5"/><path class="cls-5" d="m1012.72,919.63l-57.58,26.54s-30.37-33.94-30.6-53.68l56.75-18.98,31.43,46.12Z"/><path class="cls-5" d="m981.29,873.51l-30.92-41.13s31.98-34.97,70.21-29.21l30.87,49.18-70.15,21.16Z"/></g><path class="cls-7" d="m689.57,394.32s42.36-25.01,43.28-41.87l40.44,33.77s-49.83,46.72-70.79,47.59"/><path class="cls-7" d="m441,285.54s-39.37,20.67-23.29,71.84h-57.54s-12.36-58.88,45.94-88.54l34.88,16.7Z"/><path class="cls-2" d="m239.9,344.08s-15.23,40.95,15,49.63c30.23,8.68,61.86,25.48,43.22,62.58-18.64,37.1-53.26,21.12-59.76,14.33-6.49-6.8-14.06-27.91-3.72-37.96s30.78,5.95,29.47,15.04c-1.31,9.09-18.8,9.78-13.21-3.63,0,0-8.79-8.26-10.66,9.15-1.87,17.4,34.39,28.18,45.67,1.6,11.28-26.58-7.8-40-23.79-44.42-16-4.41-48.42-16.37-22.22-66.31Z"/><path class="cls-2" d="m252.51,374.12s-1.07-31.99,22.86-37.92c23.93-5.94,48.23-2.32,61.12-24.37,12.89-22.05-.52-38.66-10.08-37.82-9.55.85-26.16,8.59-24.76,24.21,0,0,.1,4.38,8.13,1.01,0,0,.5-16.65,10.78-16.62,10.28.03,17.62,8.45,12.96,17.95-4.66,9.5-17.45,21.68-34.97,20.57-17.52-1.11-61.16,17.5-46.05,52.98Z"/><path class="cls-2" d="m666.08,611.17s-25.34,3.75-27.29,3.82c-1.95.07-5.58,2.15-14.35-8.26-8.77-10.42-21.32-36.02-15.08-46.98,6.24-10.96,14.61-11.46,27.18-14.85,12.56-3.38,24.4-5.38,27.88,9.92,3.48,15.29,8.15,36.4-2.93,37.58-11.08,1.18-20.85,3.78-26.25-2.56-5.4-6.34-17.23-20.16-11.22-26.82,6-6.66,19.45-7.34,23.9-3.02,4.45,4.33,3.27,10.76,1.07,12.77-2.2,2.01-4.15,1.89-7.16-.35-3.01-2.23-5.58,4.79-2.02,6.22,3.57,1.43,10.45,5.57,14.92-5.71,4.47-11.29,3.28-14.47-7.52-19.05-10.8-4.58-20.64-1.3-24.18.68-3.54,1.98-5.58,4.98-5.78,10.26-.2,5.28-.65,27.64,7.76,36.41,8.42,8.77,13.35,10.15,25.46,10.3s15.6-.37,15.6-.37Z"/><path class="cls-2" d="m783.1,917.99s23.28-1.92,25.06-1.87c1.78.05,5.21-1.63,12.58,8.36,7.37,10,17.28,34.04,10.96,43.65-6.32,9.61-13.97,9.57-25.61,11.91-11.63,2.34-22.52,3.46-24.79-10.67-2.27-14.12-5.28-33.61,4.88-34.03,10.16-.42,19.19-2.22,23.74,3.88,4.54,6.09,14.49,19.36,8.63,25.07-5.86,5.71-18.13,5.54-21.93,1.34-3.8-4.2-2.34-9.98-.23-11.68,2.12-1.7,3.89-1.47,6.5.74,2.61,2.21,5.36-4.03,2.2-5.54s-9.18-5.69-13.92,4.32c-4.73,10.01-3.84,12.97,5.73,17.78,9.56,4.81,18.71,2.4,22.05.8,3.34-1.6,5.37-4.21,5.86-9,.49-4.79,2.22-25.12-4.92-33.6-7.15-8.48-11.55-10.03-22.56-10.87-11.01-.85-14.22-.58-14.22-.58Z"/><path class="cls-2" d="m878.41,462.04s28.4,1.75,35.08,28.42c6.68,26.68.1,52.85,6.19,58.97,6.09,6.12,11.48-.61,16.53-9.45,5.04-8.84,40.17-15.05,52.05-11.79,0,0,9.69,20.92,10.4,33.52.71,12.6-.12,12.16-3.63,13.17-3.52,1.01-24.17,20.46-50.13,5.32,0,0,.9-25.47,5.12-27.43,4.22-1.96,28.23-.27,30.35,1.66,2.12,1.94,4.32,14.96,1.9,15.81-2.42.85-9.78,1.97-12.96,2.74-3.18.77-6.15,1.04-5.77-2.6s-.09-1.76,5.45-1.91c5.54-.15,11.22.02,9.47-5.55,0,0-3.22-.8-7.25-.81-4.03,0-11.38-3.12-12.38.23-.99,3.35-.24,9.66-1.7,12.65s-.35,5.93,9.46,5.46c9.82-.47,22.43,1.36,24.75-8.08,2.32-9.44-.85-32.14-3.32-33.17-2.47-1.02-8.91-.03-14.78.39-5.87.43-20.11.25-23.27-.11-3.16-.36-8.16-2.24-8.34,5.8s-3.98,31.21-4.46,33.64c0,0,17.65,16.88,40.77,9.86,23.12-7.02,26.47-17.14,25.85-18.74-.62-1.6-5.29-16.14-3.1-51.6,0,0-31.75,2.98-38.15,2.36s-25.65-5.77-29.15,5.21c-3.5,10.99-4.68,12.36-6.02,9.85-1.33-2.51-4.97-23.8-3.9-35.92,1.06-12.12-16.2-39.99-34.17-41.76l-10.9,3.83Z"/></svg>