<?xml version="1.0" encoding="UTF-8"?><svg id="Color1" xmlns="http://www.w3.org/2000/svg" xmlns:xlink="http://www.w3.org/1999/xlink" viewBox="0 0 1080 1137"><defs><style>.cls-1,.cls-2{fill:none;}.cls-3{clip-path:url(#clippath);}.cls-4{fill:#011720;}.cls-5{fill:#03b083;}.cls-6{fill:#fff;}.cls-7{fill:#064862;}.cls-8{fill:#0c6b86;}.cls-9{fill:#48bcc4;}.cls-10{clip-path:url(#clippath-1);}.cls-11{clip-path:url(#clippath-2);}.cls-2{stroke:#011720;stroke-miterlimit:10;stroke-width:2px;}.cls-12{fill:url(#Degradado_sin_nombre_34);}</style><radialGradient id="Degradado_sin_nombre_34" cx="729.1" cy="724.6" fx="729.1" fy="724.6" r="659.05" gradientUnits="userSpaceOnUse"><stop offset="0" stop-color="#48bdc5"/><stop offset=".52" stop-color="#168ea3"/><stop offset=".78" stop-color="#0c6b87"/><stop offset=".99" stop-color="#0c6b87"/></radialGradient><clipPath id="clippath"><path class="cls-1" d="m913.35,238.01s76.74,400.59-38.57,519.38c0,0-466.84,73.8-557.3,0-90.47-73.8-258.34-447.66-110.03-525.93,148.31-78.27,667.19-101.23,705.91,6.55Z"/></clipPath><clipPath id="clippath-1"><path class="cls-1" d="m919.46,664.52s-5.84,116.29-152.67,144.64c0,0,26.59,73.36,10.12,88.72-16.46,15.37-170.13,208.55-394.04,177.81-223.91-30.73-431.36-101.47-352.34-189.04s435.62-114.06,505.93-97.52,293.95-169.2,383-124.62Z"/></clipPath><clipPath id="clippath-2"><rect class="cls-1" x="30.52" y="664.52" width="902.24" height="368.72"/></clipPath></defs><path d="m675.02,825.51c-14.42-9.7-25.25,13.47-13.34,21.4,11.9,7.94,34.62-7.09,13.34-21.4Z"/><path class="cls-12" d="m661.31,92.26c89.08.99,328.09-2.1,356.33,39.81,28.25,41.91,47.8,117.35,26.07,349.95-21.73,232.6-19.55,370.9-112.98,385.57-93.43,14.67-404.13,25.15-441.07-88.01-36.94-113.16-80.39-521.78-43.46-559.5,36.94-37.72,137.97-36.67,161.87,17.81,23.9,54.48-52.15,96.39-82.56,75.44-30.42-20.95-19.55-79.63,21.73-64.96,0,0-43.46-23.05-52.15,12.57-8.69,35.62-23.9,373,30.42,429.58,54.32,56.58,110.81,115.25,234.66,111.06,123.85-4.19,167.3-92.2,173.82-251.46,6.52-159.26-8.69-375.09-69.53-375.09-60.84,0-278.11,16.76-284.63-12.57-6.52-29.34-13.04-71.25,81.48-70.2Z"/><g class="cls-3"><path class="cls-7" d="m631.99,414.38c33.71,24.08-39.68,75.4-71.43,31.75-31.75-43.65-121.62-83.33-160.02-31.75-38.4,51.59,16.39,88.06,72.33,87.68,55.94-.38-23.42,19.46-59.14,31.37-35.71,11.9-111.11,60.77-55.56,115.71,55.56,54.93,126.89,28.4,172.57,0,45.69-28.4,105.21-52.21,168.7-28.4,63.49,23.81,230.49,120.82,331.52,60.41,101.03-60.41,17.69-135.81-6.12-143.74-23.81-7.94-67.46,3.97-91.27,0-23.81-3.97-63.49-27.78-27.78-51.59,35.71-23.81,83.33-15.87,75.4-59.52-7.94-43.65-75.4-63.49-99.21-47.62,0,0-31.75-134.92-158.73-107.14-126.99,27.78-119.05,123.02-91.27,142.86Z"/><path class="cls-5" d="m735.17,676.28c-27.72-22.17-111.31-31.75-123.11,0-11.81,31.75,29.23,40.78,52.36,24.36,23.13-16.42,30.01-11.36,52.36,0,22.35,11.36,38.23-8.49,18.39-24.36Z"/><path class="cls-9" d="m677.08,727.68c-13.2-11.21-37.15,24-21.28,27.97,15.87,3.97,58.43,3.58,21.28-27.97Z"/><path class="cls-9" d="m244.07,459.83s-43.66-79.37,0-113.11c43.66-33.73,57.55-39.69,107.15-43.66,49.61-3.97,57.55-29.76,41.67-45.64-15.87-15.87-97.23-41.67-152.79,17.86-55.56,59.53-57.55,154.78,3.97,184.54Z"/><path class="cls-5" d="m292.68,427.09s-44.47-75.81,6.54-99.42c51.01-23.61,103.46-18.06,101.05,0-2.41,18.06-23.83,29.79-62.73,25.91-38.9-3.88-52.79,57.63-44.85,73.51Z"/><path class="cls-9" d="m323.6,427.09s-18.02-36.71,7.78-52.58c25.8-15.87,52.21-17.86,52.89,0,.68,17.86-33.05,23.81-40.99,23.81s-21.51,19.84-19.68,28.77Z"/><path class="cls-9" d="m780.33,467.26s-51.4-3.92-48.95,2.94c2.45,6.85,16.15,8.81,26.92,9.3,10.77.49,18.52,6.69-2.49,9.22-21.01,2.53-85.63-1.88-111.08-3.35-25.46-1.47-117.98,2.45-123.85,32.8-5.87,30.35,56.79,43.57,116.51,40.14,59.72-3.43,235.96-21.05,240.37-7.34,4.41,13.71-107.21,25.95-176.24,21.05-69.03-4.9-144.9,1.96-185.54-12.24-40.63-14.2-65.73-24.98-35.56-40.15,0,0-11.68,11.51,6.43,12,18.11.49,18.11-17.62,12.24-20.56-5.87-2.94-48.95-4.9-49.93,18.6-.98,23.5,69.03,41.61,104.76,47.98,35.74,6.36,177.21,13.22,234.98,10.28,57.77-2.94,160.57-19.58,149.8-50.91-10.77-31.33-113.57-23.01-140.5-16.64-26.92,6.36-132.18,21.54-173.79,14.2-41.61-7.34-61.19-14.69-42.1-26.44,19.09-11.75,118.47-5.38,141.48-3.92,23.01,1.47,69.03,0,76.86-12.73,7.83-12.73-1.47-19.09-20.32-24.23Z"/><path class="cls-8" d="m1020.1,402.95s-70.94,57.14-125.36,12.85c-54.42-44.29-87.75-105.75-159.96-97.38-72.21,8.37-87.07,67.3-68.8,87.59,18.27,20.29,64.29,44.83,97.42,14.93,0,0,9.79-7.73-11.6-20.24,0,0-38.75,27.33-56.25,3.88-17.5-23.44-10.92-54.54,18.67-60.18,29.59-5.65,79.15,2.63,106.6,44.39,27.45,41.76,144.39,109.23,199.28,14.16Z"/><path class="cls-2" d="m780.61,466.47s-51.4-3.92-48.95,2.94c2.45,6.85,16.15,8.81,26.92,9.3,10.77.49,18.52,6.69-2.49,9.22-21.01,2.53-85.63-1.88-111.08-3.35-25.46-1.47-117.98,2.45-123.85,32.8-5.87,30.35,56.79,43.57,116.51,40.14,59.72-3.43,235.96-21.05,240.37-7.34,4.41,13.71-107.21,25.95-176.24,21.05-69.03-4.9-144.9,1.96-185.54-12.24-40.63-14.2-65.73-24.98-35.56-40.15,0,0-11.68,11.51,6.43,12,18.11.49,18.11-17.62,12.24-20.56-5.87-2.94-48.95-4.9-49.93,18.6-.98,23.5,69.03,41.61,104.76,47.98,35.74,6.36,177.21,13.22,234.98,10.28,57.77-2.94,160.57-19.58,149.8-50.91-10.77-31.33-113.57-23.01-140.5-16.64-26.92,6.36-132.18,21.54-173.79,14.2-41.61-7.34-61.19-14.69-42.1-26.44,19.09-11.75,118.47-5.38,141.48-3.92,23.01,1.47,69.03,0,76.86-12.73,7.83-12.73-1.47-19.09-20.32-24.23Z"/><path class="cls-2" d="m1020.37,402.16s-70.94,57.14-125.36,12.85c-54.42-44.29-87.75-105.75-159.96-97.38-72.21,8.37-87.07,67.3-68.8,87.59,18.27,20.29,64.29,44.83,97.42,14.93,0,0,9.79-7.73-11.6-20.24,0,0-38.75,27.33-56.25,3.88-17.5-23.44-10.92-54.54,18.67-60.18,29.59-5.65,79.15,2.63,106.6,44.39,27.45,41.76,144.39,109.23,199.28,14.16Z"/><path class="cls-2" d="m243.87,459.51s-43.66-79.37,0-113.11c43.66-33.73,57.55-39.69,107.15-43.66,49.61-3.97,57.55-29.76,41.67-45.64-15.87-15.87-97.23-41.67-152.79,17.86-55.56,59.53-57.55,154.78,3.97,184.54Z"/><path class="cls-2" d="m323.4,426.76s-18.02-36.71,7.78-52.58c25.8-15.87,52.21-17.86,52.89,0,.68,17.86-33.05,23.81-40.99,23.81s-21.51,19.84-19.68,28.77Z"/></g><g class="cls-10"><g class="cls-11"><path class="cls-6" d="m946.62,644.46c-8.11,3.49.88,40.11-26.25,39.74-27.13-.37-116.62-27.35-114.59,23.73,2.03,51.08,8.01,64.75-37.27,58.77-45.28-5.98-133.27-40.15-93.12,40.15,40.15,80.31-76.89,23.92-164.03,25.63-87.14,1.71-145.23,10.25-165.74-18.8-20.5-29.05-211.87,94.83-133.27,67.49,78.6-27.34,173.43-27.34,147.8-12.81-25.63,14.52-34.38.25-85.96,16.78-51.58,16.53-69.52,42.16-122.49,19.95-52.97-22.21-132.42,3.42-74.33,25.63,58.09,22.21,105.88,41.86,191.34,0,85.46-41.86,151.07,18.38,105.88,24.57-45.19,6.19-146.2,19.3-80.32,47.34,65.88,28.04,220.54,52.26,195.33,0-25.21-52.26,89.69-24.11,115.11-63.39,25.42-39.28,37.88-52.6,102.56-57.9,64.68-5.3,65.81-13.75,57.98-42.42-7.83-28.67-8.68-40.63,58.81-34.65,67.49,5.98,82.01-27.34,69.2-54.68-12.81-27.34,17.48-19.6,43.34-30.73,25.86-11.13,43.39-15.21,34.63-45.64-8.77-30.42-24.58-28.79-24.58-28.79Z"/><path class="cls-4" d="m932.77,678.75s-4.81,5.64-14.23,4.74c-9.41-.9-47.42-5.93-47.42-5.93,0,0,23.33,16.43,32.12,18.38,0,0,20.66.51,30.36-3.16l-.07-12.85-.76-1.19Z"/><path class="cls-4" d="m933.6,705.25s-40.06,2.17-52.07,8.4c0,0-31.44-9.06-34.43-10.7,0,0,4.56-9.71,14.95-9.09,10.4.62,33.85,3.55,41.18,2.08,0,0,18.22,8.34,30.36,9.3Z"/><path class="cls-4" d="m847.11,702.96s-3.28,7.4-2.64,17.54c.63,10.14,1.04,30,1.32,29.84s-.29.16-.29.16c0,0-37.41-12.93-38.41-13.65,0,0-.23-11.06-1.19-18.97-.96-7.91-.85-23.37,4.74-28.45l36.46,13.54Z"/><path class="cls-4" d="m881.53,713.65s-18.07,5.38-14.55,13.63c3.52,8.24,13.87,18.25,11.62,30.84,0,0,15.66,3.21,18.59,1.25,0,0-7.11-15.41-4.74-23.71,2.47-8.64,24.92-9.86,27.27-11.86l-38.19-10.15Z"/><path class="cls-4" d="m845.79,750.34s22.36,6.92,32.82,7.78c0,0,2.82,42.28-81.3,33.3l-9.82-9.5s37.31,6.38,48.68-4.61c11.37-10.99,9.62-26.96,9.62-26.96Z"/><path class="cls-4" d="m797.31,791.42l14.53,11.82s-37.04-2.27-45.05,5.93c0,0-20.45-7.46-34.09-14.66,0,0-5.65-14.63,64.62-3.1Z"/><path class="cls-4" d="m787.49,781.91l-11.22-14.24s-15.7-2.11-33.2-5.93c-17.5-3.82-58.09-14.23-72.32-2.37,0,0,31.33,22.02,38.84,22.54,0,0-.31-10.6,16.55-8.71,16.85,1.89,57.01,10.63,61.36,8.71Z"/><path class="cls-4" d="m709.58,781.91s17.21,11,23.1,12.6c0,0,.63,15.06,6.96,28.73,8.71,18.8,11.35,34.64-7.07,43.33,0,0-17.48-6.75-28.2-12.81,0,0,10.67-9.33,8.79-26.38-2.25-20.49-6.7-42.56-3.6-45.47Z"/><path class="cls-4" d="m732.58,866.57s21.16,4.25,28.27,4.25c0,0-13.04,10.67-50.98,11.86-28.91.9-42.68,4.74-42.68,4.74,0,0-15.14-5.11-19.27-7.66,0,0,35.77-5.74,43.92-6.34,8.14-.6,39.13-4.3,40.74-6.85Z"/><path class="cls-4" d="m681.42,841.18l22.97,12.58s-5.79,12.29-32.7,13.47c-26.91,1.19-51.13-2.52-52.21-.66,0,0-45.73-24.78-47.13-28.95,0,0,55.72,10.67,81.81,11.86,24.87,1.13,27.27-8.3,27.27-8.3Z"/><path class="cls-4" d="m619.48,866.57l28.45,13.19s-75.43,14.85-87.66,21.79l-59.24-30.39s95.1-9.37,118.45-4.59Z"/><path class="cls-4" d="m560.27,901.55s46.97,21.44,54.99,22l-10.31,16.09s-48.18-2.72-94.56-18.4c0,0,14.27-4.7,23.27-8.97s26.61-10.72,26.61-10.72Z"/><path class="cls-4" d="m501.03,871.16s-62.94,7.31-74.41,14.99c0,0-48.26-25.45-64.56-35.76,0,0,64.9-9.94,84.89-10.12l54.08,30.89Z"/><path class="cls-4" d="m510.38,921.24s-59.59-21.27-83.76-35.09c0,0-49.24,23.71-105.11,29.38,0,0,47.14-1.12,62.57,18.88,0,0,15.46-2.38,29.61-1.45,14.15.93,76.62-.92,96.69-11.72Z"/><path class="cls-4" d="m604.95,939.64s-40.17,14.94-53.98,14.77c-13.81-.17-89.73,5.51-93.23,11.55,0,0,31.94,10.86,34.74,10.89,0,0,21.1-11.39,47.61-12.52,26.51-1.13,63.13-14.06,64.85-24.69Z"/><path class="cls-4" d="m457.74,965.96l-68.98-24.34s2.12,13.04-10.17,12.92c-12.3-.13-74.25,10.91-75.52,13.21,0,0,97.17,32.13,117.33,33.34,0,0,1.64-3.99,2.84-9.94,1.2-5.95,6.26-18.03,34.51-25.18Z"/><path class="cls-4" d="m420.39,1001.08s-2.99,11.69-23.66,28.44c0,0,87.91,15.86,95.18-13.01,0,0-45.75-9.79-71.52-15.42Z"/><path class="cls-4" d="m260.07,890.16l61.44,25.37-16.63,2.86s-27.85,6.44-71.17,27.1l-87.28-29.86s38.44,1.07,54.15-2.79c15.71-3.86,59.49-22.67,59.49-22.67Z"/><path class="cls-4" d="m146.43,915.62s-53.13,3.16-69.08,15.11c0,0-25.04-7.28-19.51-19.65s38.98-14.21,38.98-14.21l49.61,18.75Z"/></g></g><path class="cls-4" d="m233.71,945.48l69.36,22.27s-108.87,38.09-137.47,62.05c0,0-70.11-19.37-100.94-42.16,0,0,100.03-37.38,169.06-42.16Z"/></svg>