<?xml version="1.0" encoding="UTF-8"?><svg id="Color1" xmlns="http://www.w3.org/2000/svg" xmlns:xlink="http://www.w3.org/1999/xlink" viewBox="0 0 1080 1137"><defs><style>.cls-1{fill:#011720;}.cls-2{fill:#03b083;}.cls-3{fill:#064862;}.cls-4{fill:#48bcc4;}.cls-5{fill:url(#Degradado_sin_nombre_2-2);}.cls-6{fill:none;stroke:#011720;stroke-miterlimit:10;}.cls-7{fill:url(#Degradado_sin_nombre_2);}</style><linearGradient id="Degradado_sin_nombre_2" x1="159.74" y1="684.39" x2="681.36" y2="684.39" gradientUnits="userSpaceOnUse"><stop offset="0" stop-color="#48bdc5"/><stop offset=".52" stop-color="#168ea3"/><stop offset=".78" stop-color="#0c6b87"/><stop offset=".99" stop-color="#0c6b87"/></linearGradient><linearGradient id="Degradado_sin_nombre_2-2" x1="335.68" y1="635.76" x2="725.44" y2="635.76" xlink:href="#Degradado_sin_nombre_2"/></defs><path class="cls-1" d="m536.93,756.92s12.6-6.76,24.32-7.32c0,0-10.97,12.97-11.9,24.69-.93,11.72-.33,23.48-.33,23.48,0,0-16.94,3.13-23.26,0,0,0,4.3-33.56,11.17-40.85Z"/><polygon class="cls-1" points="517.18 751.84 518.82 796.81 501.55 794.65 497.54 746.66 517.18 751.84"/><path class="cls-1" d="m518.82,796.81l6.94.97s-3.39,29.13-.46,34.49l-5.24-.31-1.23-35.15Z"/><path class="cls-1" d="m520.05,831.96l-14.33-2.62v37.96s15.56,1.97,18.34,1.36l-4.01-36.69Z"/><path class="cls-1" d="m525.3,832.27s.8,26.14,5.33,36.51c0,0,23.55,2.32,27.45,1.26,0,0-10.89-23.58-10.89-36.84l-21.89-.93Z"/><path class="cls-1" d="m524.06,868.66l6.56.12s-2.56,4.2,5.77,16.84c8.33,12.64,16.34,24.05,16.34,24.05,0,0-19.82,2.47-26.72,0,0,0,1.43-30.84-1.96-41.01Z"/><path class="cls-1" d="m552.74,909.67l41.28-5.97s37.97,24.47,45.99,24.47c0,0-8.33,6.78-1.85,13.57l-56.28,9.81-29.14-41.88Z"/><path class="cls-1" d="m581.88,951.55s-41.78,6.53-65.53,2.52c0,0-7.01,22.63-22.32,34.6,0,0,49.14,8.57,70.42,4.87,21.28-3.7,43.68-10.96,43.68-10.96l-26.26-31.03Z"/><path class="cls-1" d="m608.14,982.58l23.23,32.24s73.39-28.99,76.47-37c0,0-33.72-9.87-43.69-18.35,0,0-8.94,14.3-56.01,23.11Z"/><path class="cls-1" d="m631.37,1014.82l21.66,28.06s-19.81-8.63-30.29-25.28l8.63-2.78Z"/><path class="cls-2" d="m653.03,1042.88s88.73,4.94,98.91-61.05c0,0,39.39-8.01,39.89,12.64.5,20.66-26.48,74.62-138.8,48.41Z"/><path class="cls-2" d="m387.15,1060.15s60.7-55.89,93.26-49.22c32.56,6.67,27.72,27.94,6.7,31.95-21.02,4.01-54.76,24.14-3.35,27.64,51.41,3.5,136-12.67,124.38-33.26-11.62-20.59-38.75-24.81-26.26-32.57,12.49-7.76,40.86,12.9,40.86,12.9,0,0-14.49-18.19-30.22-17.58-15.73.62-19.43,7.71-16.96,12.64,2.47,4.93,35.59,20.04-1.02,30.22-36.6,10.18-105.68,18.5-82.86,5.24,22.82-13.26,25.29-42.55-18.81-40.4-44.1,2.16-85.72,52.42-85.72,52.42Z"/><path class="cls-1" d="m526.02,909.67s1.12,21.89-9.67,44.4l-56.12-4.93,49.84-39.8,15.95.33Z"/><path class="cls-3" d="m470.31,408.34s-3.95-37.92-3.95-42.97,29.87-12.21,29.87-12.21v48.04l-25.92,7.15Z"/><polygon class="cls-3" points="496.23 353.15 496.23 324.11 526.24 311.26 526.24 350.22 496.23 353.15"/><path class="cls-3" d="m526.24,350.22l33.35-7.94s10.26,25.71,10.82,38.47l-41.28,9.87s1.44-22.37-2.89-40.4Z"/><polygon class="cls-3" points="565.25 149.08 571.91 115.88 598.04 127.41 598.04 159.59 565.25 149.08"/><polygon class="cls-3" points="559.59 342.28 563.76 307.89 593.45 307.89 593.45 342.28 559.59 342.28"/><polygon class="cls-3" points="571.91 115.88 545 115.88 545 84.38 571.91 79 571.91 115.88"/><polygon class="cls-3" points="545 115.88 538.28 151.23 513.54 148.16 513.54 115.88 545 115.88"/><polygon class="cls-3" points="513.54 115.88 482.79 128.18 482.79 97.44 512.73 86.68 513.54 115.88"/><polygon class="cls-3" points="482.79 153.45 513.54 148.16 514.72 159.29 482.79 171.48 482.79 153.45"/><polygon class="cls-3" points="538.28 151.23 565.25 149.08 565.25 166.46 535.36 159.82 538.28 151.23"/><polygon class="cls-3" points="496.23 401.19 529.13 390.62 532.72 419.95 496.88 425.92 496.23 401.19"/><path class="cls-3" d="m570.41,380.75s-.56,31.42,0,32.91c.56,1.49,30.14-8.61,30.14-8.61l-7.11-31.79-23.04,7.49Z"/><polygon class="cls-1" points="566.33 575.95 582.73 529.17 562.16 529.17 546.07 572.69 566.33 575.95"/><polygon class="cls-1" points="513.66 544.5 513.66 584 533.11 584 531.93 540.54 513.66 544.5"/><polygon class="cls-1" points="465.32 558.19 465.32 584.72 492.02 584.72 492.02 552.51 465.32 558.19"/><polygon class="cls-1" points="492.02 552.51 486.57 519.6 511.24 511.78 513.66 544.5 492.02 552.51"/><polygon class="cls-1" points="531.93 540.54 537.35 501.68 570.16 493.7 562.16 529.17 531.93 540.54"/><polygon class="cls-1" points="570.16 493.7 570.41 478.85 600.56 478.85 593.45 498.67 570.16 493.7"/><polygon class="cls-1" points="537.35 501.68 535.59 480.08 511.24 491.18 511.24 511.78 537.35 501.68"/><polygon class="cls-1" points="547.19 833.19 549.02 797.78 576.18 789.93 570.16 836.79 547.19 833.19"/><polygon class="cls-1" points="561.24 749.61 561.59 741.03 588.13 725.71 588.13 746.66 561.24 749.61"/><polygon class="cls-3" points="245.88 455.37 528.85 406.18 831 458.08 775.84 556.68 757.64 529.26 789.32 483.17 531.55 425.64 296.25 470.88 313.04 519.74 529.54 452.45 770.52 492.61 752.03 517.27 537.04 480.14 284.63 555.96 245.88 455.37"/><path class="cls-4" d="m686.26,190.72l95.31,15.98s-10.45,22.73-94.73,36.09c-84.28,13.36-338.82,10.8-345.92,10.94-19.1.38-54.84-27.71,18.65-37.06,73.49-9.36,341.91-59.21,356.15-61.16,14.24-1.95,97.64,28.05,120.1,40.16,22.46,12.11-53.76,76.63-74.17,80.45-20.42,3.82-487.6,47.4-508.4,32.12s25.33-102.53,18.1-123.53c-7.22-21-42.13-13.81-43.98,1.24,0,0-19.58,152.56.33,155.98,19.91,3.41,541.6-29.35,565.74-42.05,24.14-12.7,82.58-105.89,82.58-105.89l-138.42-60.34-455.67,69.71s-9,79.71,7.83,84.06c16.82,4.35,452.59-18.27,473.15-27.19,20.56-8.92,59.53-48.35,56.12-54.06-3.41-5.71-90.9-41.94-103.47-41.17,0,0-57.44,6.25-52.38,15.17,5.06,8.92,23.08,10.55,23.08,10.55Z"/><path class="cls-7" d="m681.36,727.77s-9.46-13.78-28.2-10.12c-18.74,3.67-151.54,18.67-232.32,27.73-80.77,9.06-129.2,19.83-166.08-3.45-36.88-23.28-73.65-51.55-57.71-72.64,15.94-21.09,80.83-48.31,93.43-50.04,12.6-1.73,14.25.21,15.56,17.1,1.31,16.89.02,47.59-19.39,45.65-19.41-1.94-41.42-7.82-37.36-15.41,4.06-7.59,11.4-5.63,17.59-1.4,6.19,4.23,20.73,1.07,15.32-20.3-5.4-21.37-12.38-8.46-32.91,3.94-20.53,12.4-47.9,21.15-27.06,29.06,20.84,7.91,78.47,44.33,85.98,29.94,7.51-14.39,31.25-106.73,8.31-120.32-22.94-13.59-72.32,24.79-99.91,43.47-27.59,18.68-60.14,31.62-56.6,43.37,3.54,11.75,49.6,70.15,116.14,109.77,0,0,219-24.81,277.47-33.24,58.47-8.43,127.74-23.12,127.74-23.12Z"/><path class="cls-2" d="m781,649.24s51.94-3.05,40.52-15.02c-11.43-11.98-61.77-6.3-94.13-2.24-32.36,4.06-40.84,11.21-56.11,24.08-15.27,12.87-16.82,4.14-47.13-5.43-30.31-9.57-43.56-14.47-48.19,6.17-4.64,20.65-5.12,27.46-19.96,10.17-14.84-17.29-28.82-62.56-72.86-63.17-44.03-.61-22.39,59.49-19.77,71.78,2.62,12.29-8.47,25.52-25.87-4.31-17.4-29.82-9.7-58.55-23.92-45.6-14.22,12.96,41.75,115.13,64.69,103.81,22.94-11.32-8.47-57.35-9.31-80.35-.84-23,10.05-39.92,33.1-14.86,23.05,25.06,46.06,93.67,68.8,79.34,22.74-14.33,14.85-20.25,13.44-34.54-1.41-14.29,8-26.08,26.94-8.2,18.94,17.88,38.5,28.47,55.65,12.09,17.14-16.38,12.97-35.1,49.43-31.99,36.47,3.11,64.68-1.74,64.68-1.74Z"/><path class="cls-5" d="m724.69,597.99s6.61,7.94-19.33,9.05c-25.94,1.1-215.49-23.15-249.17-14.96-33.69,8.18-56.13,6.41-73.5,27.11-17.37,20.71-33.68,56.74-36.37,65.41-2.69,8.67-9.7,15.78-10.63,4.87-.93-10.91,28.63-77.96,35.27-92.57,6.63-14.61,1.13-20.94,45.43-20.34,44.31.6,270.26,10.05,308.29,21.45Z"/><path class="cls-6" d="m653.47,1042.6s88.73,4.94,98.91-61.05c0,0,39.39-8.01,39.89,12.64.5,20.66-26.48,74.62-138.8,48.41Z"/><path class="cls-6" d="m387.59,1059.87s60.7-55.89,93.26-49.22c32.56,6.67,27.72,27.94,6.7,31.95-21.02,4.01-54.76,24.14-3.35,27.64,51.41,3.5,136-12.67,124.38-33.26-11.62-20.59-38.75-24.81-26.26-32.57,12.49-7.76,40.86,12.9,40.86,12.9,0,0-14.49-18.19-30.22-17.58s-19.43,7.71-16.96,12.64c2.47,4.93,35.59,20.04-1.02,30.22-36.6,10.18-105.68,18.5-82.86,5.24,22.82-13.26,25.29-42.55-18.81-40.4-44.1,2.16-85.72,52.42-85.72,52.42Z"/><path class="cls-6" d="m686.71,190.45l95.31,15.98s-10.45,22.73-94.73,36.09c-84.28,13.36-338.82,10.8-345.92,10.94-19.1.38-54.84-27.71,18.65-37.06,73.49-9.36,341.91-59.21,356.15-61.16,14.24-1.95,97.64,28.05,120.1,40.16,22.46,12.11-53.76,76.63-74.17,80.45-20.42,3.82-487.6,47.4-508.4,32.12-20.8-15.28,25.33-102.53,18.1-123.53-7.22-21-42.13-13.81-43.98,1.24,0,0-19.58,152.56.33,155.98,19.91,3.41,541.6-29.35,565.74-42.05,24.14-12.7,82.58-105.89,82.58-105.89l-138.42-60.34-455.67,69.71s-9,79.71,7.83,84.06c16.82,4.35,452.59-18.27,473.15-27.19,20.56-8.92,59.53-48.35,56.12-54.06-3.41-5.71-90.9-41.94-103.47-41.17,0,0-57.44,6.25-52.38,15.17,5.06,8.92,23.08,10.55,23.08,10.55Z"/><path class="cls-6" d="m781.44,648.96s51.94-3.05,40.52-15.02c-11.43-11.98-61.77-6.3-94.13-2.24-32.36,4.06-40.84,11.21-56.11,24.08-15.27,12.87-16.82,4.14-47.13-5.43-30.31-9.57-43.56-14.47-48.19,6.17-4.64,20.65-5.12,27.46-19.96,10.17-14.84-17.29-28.82-62.56-72.86-63.17-44.03-.61-22.39,59.49-19.77,71.78,2.62,12.29-8.47,25.52-25.87-4.31-17.4-29.82-9.7-58.55-23.92-45.6s41.75,115.13,64.69,103.81c22.94-11.32-8.47-57.35-9.31-80.35-.84-23,10.05-39.92,33.1-14.86,23.05,25.06,46.06,93.67,68.8,79.34,22.74-14.33,14.85-20.25,13.44-34.54-1.41-14.29,8-26.08,26.94-8.2,18.94,17.88,38.5,28.47,55.65,12.09,17.14-16.38,12.97-35.1,49.43-31.99,36.47,3.11,64.68-1.74,64.68-1.74Z"/></svg>