<?xml version="1.0" encoding="UTF-8"?><svg id="Color1" xmlns="http://www.w3.org/2000/svg" xmlns:xlink="http://www.w3.org/1999/xlink" viewBox="0 0 1080 1137"><defs><style>.cls-1{fill:#011720;}.cls-2{fill:#03b083;}.cls-3{fill:#fff;}.cls-4{fill:#064862;}.cls-5{fill:#0c6b86;}.cls-6{fill:#48bcc4;}.cls-7{fill:url(#Degradado_sin_nombre_34);}.cls-8{fill:none;stroke:#011720;stroke-miterlimit:10;}</style><radialGradient id="Degradado_sin_nombre_34" cx="488.04" cy="718.06" fx="488.04" fy="718.06" r="534.09" gradientUnits="userSpaceOnUse"><stop offset="0" stop-color="#48bdc5"/><stop offset=".52" stop-color="#168ea3"/><stop offset=".78" stop-color="#0c6b87"/><stop offset=".99" stop-color="#0c6b87"/></radialGradient></defs><path class="cls-1" d="m755.9,870.96s18.38,22.65,42.25,32.02c0,0,39.29-19.06,42.46-23.14l-27.13-36.69-57.59,27.82Z"/><path class="cls-1" d="m881.72,940.74l48.44-31.42,66.63,13.71s-37.7,40.9-69.51,49.68l-45.44-32.27-.12.31Z"/><path class="cls-1" d="m881.84,940.43s-77.88-30.07-83.69-37.45c0,0-73.11,29.7-89.54,26.32l66.58,50.21s91.91-19.03,106.65-39.08Z"/><path class="cls-1" d="m755.9,870.96s-58.8,37.61-103.99,30.22l-62.46-34.07s97.37-11.98,116.08-24.54l50.38,28.39Z"/><polygon class="cls-1" points="651.9 901.18 708.61 929.3 609.53 960.76 551.37 927.86 651.9 901.18"/><path class="cls-1" d="m589.44,867.11s-68.48,6.44-119.29-2.26l-71.42-58.83,133.89,18.34,56.82,42.75Z"/><path class="cls-1" d="m664.53,999.35l-55-38.6-117.83,14.21,44.23,63.73s77.26-41.18,128.6-39.35Z"/><path class="cls-1" d="m551.37,927.86l-81.21-63.02s-70.3,4.97-134.79-18.18l101.7,87.6s91.77-19.17,114.3-6.41Z"/><polygon class="cls-1" points="437.06 934.27 491.7 974.97 338.36 977.97 291.86 929.85 437.06 934.27"/><path class="cls-1" d="m291.86,929.85l-90.09,1.05s-26.74-54.7-18.5-77.57l85.68,7.24,22.91,69.28Z"/><path class="cls-1" d="m268.95,860.57l-24.39-63.27s58.8-23.9,108.48,2.35l20.83,72.52-104.92-11.6Z"/><path class="cls-1" d="m535.93,1038.7l76.96,59.11s-108.45,64.92-206.72-27.36l129.76-31.75Z"/><path class="cls-6" d="m851.06,60.57s-4.29,26.71-11.13,35.21c0,0-14.05,8.07-25.7,5.15,0,0,18.71,7.53,19.62,10.42,0,0,2.81,20.58.81,29.74,0,0,6.63-21.6,12.42-28.78,0,0,5.79-7.19,25.44-7.51,0,0-14-2.66-19.75-8.91,0,0-5.35-8.08-1.71-35.32Z"/><path class="cls-6" d="m334.93,812.51c-58.71-9.26-89.58-27.64-81-51.46,8.58-23.82,54.32-72.43,71.47-56.23,17.15,16.2,20.97,61.94,41.93,61.94s40.98-36.21,65.76-35.26c24.78.95,28.59,54.32,63.85,51.46,35.26-2.86,43.84-50.51,69.57-53.37,25.73-2.86,33.35,36.21,54.32,33.35,20.97-2.86,23.65-55.08,47.09-61.37,23.44-6.29,73.94,39.45,65.37,79.48-8.58,40.03-204.89,61.94-398.35,31.45Z"/><path class="cls-3" d="m318.25,735.79c-13.23-4.18-40.03,5.72-40.03,22.87s30.5,24.62,40.03,17.55c9.53-7.07,18.11-34.71,0-40.42Z"/><path class="cls-4" d="m311.31,746.79c-8.11-2.56-24.54,3.51-24.54,14.02s18.7,15.09,24.54,10.76c5.84-4.33,11.1-21.28,0-24.78Z"/><path class="cls-3" d="m305.22,754.5c-3.27-1.03-9.9,1.41-9.9,5.65s7.54,6.09,9.9,4.34c2.36-1.75,4.48-8.58,0-9.99Z"/><path class="cls-3" d="m679.09,739.64c-10.78,8.73-17.3,36.54-2.99,46,14.31,9.46,37.36-11.87,36.71-23.71-.64-11.85-18.97-34.24-33.72-22.29Z"/><path class="cls-3" d="m433.56,759.62c-17.74,4.09-28.59,13.34-27.64,26.68.95,13.34,38.12,27.64,46.7,8.58,8.58-19.06-6.67-38.12-19.06-35.26Z"/><path class="cls-3" d="m575.32,759.33c-17.2.21-28.35,10.77-24.54,29.83,3.81,19.06,33.02,22.26,41.77,14.94,8.74-7.32,6.36-45.06-17.23-44.77Z"/><path class="cls-5" d="m339.22,653.32c-13.84,3.01-34.31,22.87-13.34,36.21,20.97,13.34,109.59,43.84,206.8,36.21,97.21-7.62,138.18-14.29,130.56-45.74-7.62-31.45-11.02-42.88-66.03-26.68-55.01,16.2-109.33,26.68-229.4,3.81,0,0-10.48-8.58-6.67,9.53,3.81,18.11,158.13,30.42,212.49,16.16,54.35-14.26,56.26-3.78,56.26.04s-169.63,38.12-276.37-7.62c0,0,7.62-26.68-14.29-21.92Z"/><path class="cls-7" d="m445,138.26c19.02-3.99,39.07,44.79,69.57,33.35,30.5-11.44,34.31-64.97,0-80.14-34.31-15.16-99.11-23.74-176.3,18.19-77.19,41.93-153.43,117.22-168.68,224.91-15.25,107.69,29.54,244.92,152.48,293.52,122.94,48.6,327.37,25.37,401.21-80.05,82.43-117.7,74.33-202.04,35.26-305.91-39.07-103.88-96.25-155.34-157.72-148.19-22.8,2.65-33.83,66.23,12.87,85.29,46.7,19.06,46.7,12.39,54.32,6.67,7.62-5.72,24.3,71.95,28.11,122.46,4.21,55.78-.48,187.26-145.33,236.82-144.86,49.56-238.25-58.13-255.4-102.92-17.15-44.79-50.51-262.07,149.62-304.01Z"/><path class="cls-6" d="m160.15,126.66s8.51,15.71,8.34,22.91c0,0-4.1,9.88-11.38,13.04,0,0,12.83-3.59,14.46-2.44,0,0,9.76,9.64,12.4,15.24,0,0-5.22-13.97-5.08-20.07,0,0,.14-6.09,10.3-14.17,0,0-8.4,4.24-13.93,3.28,0,0-6.05-2.08-15.11-17.8Z"/><path class="cls-6" d="m212.09,46.77s7.86-6.9,2.06-24.77c0,0,7.91,17.09,13.1,15.97,0,0,13.6-.22,18.68-3.7,0,0-20.16,17.05-18.85,20.57s4.36,24.81,2.95,25.33c-1.41.52-7.52-20.37-13.63-21.75,0,0-15.68-3.45-20.87-2.33l16.57-9.32Z"/><path class="cls-6" d="m828.21,511.45s-3.38,17.54-8.07,23.01c0,0-9.44,5.04-17.07,2.87,0,0,12.19,5.36,12.73,7.28,0,0,1.43,13.64-.08,19.65,0,0,4.82-14.12,8.79-18.74,0,0,3.97-4.62,16.95-4.43,0,0-9.19-2.05-12.85-6.29,0,0-3.36-5.44-.4-23.35Z"/><path class="cls-6" d="m902.98,175.29s-7.67,16.14-13.58,20.25c0,0-10.4,2.51-17.24-1.5,0,0,10.46,8.24,10.5,10.24,0,0-2.03,13.57-5,19,0,0,8.2-12.46,13.2-15.94,0,0,5-3.48,17.52-.04,0,0-8.38-4.28-10.87-9.31,0,0-1.89-6.11,5.46-22.7Z"/><path class="cls-4" d="m582.03,773.86c-8.11-2.56-24.54,3.51-24.54,14.02s18.7,15.09,24.54,10.76c5.84-4.33,11.1-21.28,0-24.78Z"/><path class="cls-3" d="m575.94,781.57c-3.27-1.03-9.9,1.41-9.9,5.65s7.54,6.09,9.9,4.34c2.36-1.75,4.48-8.58,0-9.99Z"/><path class="cls-5" d="m427.9,737.61s-34.81,24.7-15.14,52.35c19.67,27.64,43.64-6.32,36.17-15.52-7.47-9.2-16.28-11.84-24.1-5.34-7.82,6.51-2.32,23.3,3.7,19.55,6.02-3.74,7.62-12.25,2.83-13.05s8.45-7.73,8.61,2.65c.16,10.38-9.41,23.13-19.51,11.7s-1.61-44.35,7.43-52.35Z"/><path class="cls-5" d="m644.73,764.29s25.03,35.27,53.04,15.34c28.01-19.93-6.4-44.22-15.73-36.65-9.32,7.57-12,16.5-5.41,24.42,6.59,7.92,23.6,2.35,19.81-3.75-3.79-6.1-12.41-7.72-13.22-2.87-.81,4.85-7.83-8.57,2.68-8.73s23.44,9.54,11.86,19.77c-11.58,10.23-44.94,1.63-53.04-7.53Z"/><path class="cls-4" d="m451.64,564.56c75.76-10.39,114.74-9.48,136.38-91.3,21.63-81.82-189.54,48.82-217.61-25.74-28.07-74.55-46.47-224.6,96.39-224.6s208.03,70.09,165.16,139.5c-42.87,69.41-165.2,39.5-154.36-29.8,10.84-69.3,92.98-31.79,82.75-9.57-10.22,22.22-27.34,53.82,18.56,27.63,45.9-26.19-4.25-81.1-39.79-79.61-35.53,1.49-104.15-30.73-98.52,61.56,5.63,92.28,59.92,87.67,107.99,89.98,48.07,2.31,122.96,27.47,49.26,91.64-73.7,64.17-146.21,50.32-146.21,50.32Z"/><path class="cls-6" d="m496.17,550.69s10.16-6.1,10.82,7.17c.66,13.27-14.99,31.4-39.43,22.71-24.44-8.69-27.13-25.34-18.74-37.84,8.38-12.5,40-33.95,60.15-28.29,20.16,5.66,43.8,16.52,44.92,40.58,1.11,24.06,13.74,57.67,44.7,62.34,30.96,4.67,84.36,2.78,98.44-35.93,14.08-38.7-22.75-57.44-41.35-49.53-18.6,7.92-41.16,45.37-8.95,42.39,0,0-9.34-12.74-2.85-20.41,6.49-7.67,16.63-21.02,31.58-14.61,14.95,6.42,20.05,30.89,7.53,46.64-12.52,15.75-54.94,33.77-81.33,17.58-26.39-16.18-29.05-33.39-37.09-55.22-8.04-21.84-24.05-51.95-56.03-47.53-31.98,4.42-73.3,20.01-73.44,46.78-.14,26.77,20.15,48.86,41.43,48.35,21.28-.51,45.34-12.57,41.85-38.76-3.48-26.19-41.16-20.23-44.95-9.15-3.78,11.08,5.56,22.94,16.33,16,10.77-6.94,6.4-13.29,6.4-13.29Z"/><path class="cls-2" d="m711.55,550.1s-.56-8.08,14.41-11.99c14.97-3.9,23.62,3.62,23.32,15.55-.3,11.94-26.56,5.77-37.73-3.57Z"/><path class="cls-2" d="m712.05,571.57s14.96-4,24.6-1.79,5.6,14.01-2.13,16.74c-7.73,2.73-22.48-14.95-22.48-14.95Z"/><path class="cls-2" d="m709.33,536.34s21.02-7.85,20.04-27.75c-.98-19.9-27.52-4.76-26.52,5.99.99,10.76,10.03,11.52,6.48,21.75Z"/><path class="cls-4" d="m679.86,566.55c5.02-5.83-2.58-21.64-13.3-19-10.72,2.64-9.74,15.6-5.16,19.82,4.58,4.21,14.57,3.71,18.46-.82Z"/><path class="cls-2" d="m637.39,583.29s-18.04,3.24-14.37,16.77c3.67,13.53,18.34-1.47,19.08-6.05.75-4.58-.55-12.46-4.72-10.72Z"/><path class="cls-2" d="m622.85,562.19s-3.91-6.38-12.73-5.54c-8.83.84-16.18,9.91-3.42,20.26,12.77,10.35,16.15-14.72,16.15-14.72Z"/><path class="cls-2" d="m630.8,535.5s-3.63-20.21-15.44-19.72c-11.81.49-18.99,1.41-16.66,11.55,2.33,10.15,15.25,21.14,32.11,8.17Z"/><path class="cls-2" d="m661.99,519.28s2.1-19.23-13.71-20.52c-15.81-1.28-17.33,12.34-11.09,18.76,6.24,6.42,24.8,1.76,24.8,1.76Z"/><path class="cls-2" d="m688.79,519.6s-19.76-2.75-23.06-18.57c-3.3-15.81,10.43-18.25,18.02-12.68,7.59,5.57,10.37,27.42,5.04,31.25Z"/><circle class="cls-6" cx="609.73" cy="593.66" r="3.3"/><circle class="cls-6" cx="709.83" cy="592.36" r="3.3"/><path class="cls-6" d="m206.69,578.47s74.86-95.07,13-133.69c-61.86-38.62-101.81-59.69-52.27-134.94,49.55-75.24,112.61-7.66,121.21,25.96,8.6,33.62-4.29,82.76-38.32,75.6-34.04-7.16-30.88-48.6-13.68-50.63,17.2-2.03,20.72,23.22,11.29,27.35,0,0,34.56-9.36,21.93-38.06-12.63-28.7-41.77-65.17-73.77-29.17-32,36.01-32.47,62.52,6.16,95.89,38.64,33.37,102.23,58.14,4.44,161.69Z"/><path class="cls-6" d="m768.07,224.74s-47.47,3.84-50.34-38.36c-2.88-42.19-6.23-84.39-59.93-85.35-53.7-.96-49.14,41.51-42.07,51.68,7.07,10.17,32.48,21.68,36.8-3.25,4.32-24.93-20.62-13.43-20.62-8.63,0,4.79-.48,6.23,2.88,9.59,0,0-13.43-3.84-4.32-20.62,9.11-16.78,45.8-22.08,59.34,3.58,13.54,25.66,4.91,34.77,9.23,52.51s12.95,42.67,69.04,38.84Z"/><path class="cls-8" d="m496.57,550.2s10.16-6.1,10.82,7.17c.66,13.27-14.99,31.4-39.43,22.71-24.44-8.69-27.13-25.34-18.74-37.84,8.38-12.5,40-33.95,60.15-28.29,20.16,5.66,43.8,16.52,44.92,40.58,1.11,24.06,13.74,57.67,44.7,62.34,30.96,4.67,84.36,2.78,98.44-35.93,14.08-38.7-22.75-57.44-41.35-49.53-18.6,7.92-41.16,45.37-8.95,42.39,0,0-9.34-12.74-2.85-20.41,6.49-7.67,16.63-21.02,31.58-14.61s20.05,30.89,7.53,46.64c-12.52,15.75-54.94,33.77-81.33,17.58-26.39-16.18-29.05-33.39-37.09-55.22-8.04-21.84-24.05-51.95-56.03-47.53-31.98,4.42-73.3,20.01-73.44,46.78-.14,26.77,20.15,48.86,41.43,48.35,21.28-.51,45.34-12.57,41.85-38.76-3.48-26.19-41.16-20.23-44.95-9.15-3.78,11.08,5.56,22.94,16.33,16,10.77-6.94,6.4-13.29,6.4-13.29Z"/><path class="cls-8" d="m711.96,549.61s-.56-8.08,14.41-11.99c14.97-3.9,23.62,3.62,23.32,15.55-.3,11.94-26.56,5.77-37.73-3.57Z"/><path class="cls-8" d="m712.45,571.08s14.96-4,24.6-1.79,5.6,14.01-2.13,16.74-22.48-14.95-22.48-14.95Z"/><path class="cls-8" d="m709.74,535.84s21.02-7.85,20.04-27.75c-.98-19.9-27.52-4.76-26.52,5.99.99,10.76,10.03,11.52,6.48,21.75Z"/><path class="cls-8" d="m680.27,566.05c5.02-5.83-2.58-21.64-13.3-19-10.72,2.64-9.74,15.6-5.16,19.82,4.58,4.21,14.57,3.71,18.46-.82Z"/><path class="cls-8" d="m637.8,582.8s-18.04,3.24-14.37,16.77c3.67,13.53,18.34-1.47,19.08-6.05.75-4.58-.55-12.46-4.72-10.72Z"/><path class="cls-8" d="m623.26,561.7s-3.91-6.38-12.73-5.54c-8.83.84-16.18,9.91-3.42,20.26,12.77,10.35,16.15-14.72,16.15-14.72Z"/><path class="cls-8" d="m631.21,535.01s-3.63-20.21-15.44-19.72-18.99,1.41-16.66,11.55c2.33,10.15,15.25,21.14,32.11,8.17Z"/><path class="cls-8" d="m662.4,518.79s2.1-19.23-13.71-20.52c-15.81-1.28-17.33,12.34-11.09,18.76,6.24,6.42,24.8,1.76,24.8,1.76Z"/><path class="cls-8" d="m689.2,519.1s-19.76-2.75-23.06-18.57c-3.3-15.81,10.43-18.25,18.02-12.68,7.59,5.57,10.37,27.42,5.04,31.25Z"/><circle class="cls-8" cx="610.14" cy="593.17" r="3.3"/><circle class="cls-8" cx="710.24" cy="591.87" r="3.3"/><path class="cls-8" d="m206.45,578.99s74.86-95.07,13-133.69c-61.86-38.62-101.81-59.69-52.27-134.94,49.55-75.24,112.61-7.66,121.21,25.96,8.6,33.62-4.29,82.76-38.32,75.6-34.04-7.16-30.88-48.6-13.68-50.63,17.2-2.03,20.72,23.22,11.29,27.35,0,0,34.56-9.36,21.93-38.06-12.63-28.7-41.77-65.17-73.77-29.17-32,36.01-32.47,62.52,6.16,95.89,38.64,33.37,102.23,58.14,4.44,161.69Z"/><path class="cls-8" d="m767.86,225.18s-47.47,3.84-50.34-38.36c-2.88-42.19-6.23-84.39-59.93-85.35-53.7-.96-49.14,41.51-42.07,51.68,7.07,10.17,32.48,21.68,36.8-3.25s-20.62-13.43-20.62-8.63c0,4.79-.48,6.23,2.88,9.59,0,0-13.43-3.84-4.32-20.62,9.11-16.78,45.8-22.08,59.34,3.58,13.54,25.66,4.91,34.77,9.23,52.51,4.32,17.74,12.95,42.67,69.04,38.84Z"/></svg>