<?xml version="1.0" encoding="UTF-8"?><svg id="Color1" xmlns="http://www.w3.org/2000/svg" xmlns:xlink="http://www.w3.org/1999/xlink" viewBox="0 0 1080 1137"><defs><style>.cls-1{fill:#011720;}.cls-2{fill:#03b083;}.cls-3{fill:#064862;}.cls-4{fill:#0c6b86;}.cls-5{fill:#48bcc4;}.cls-6{fill:none;stroke:#011720;stroke-miterlimit:10;}.cls-7{fill:url(#Degradado_sin_nombre_2);}</style><linearGradient id="Degradado_sin_nombre_2" x1="772.79" y1="639.88" x2="1004.38" y2="639.88" gradientUnits="userSpaceOnUse"><stop offset="0" stop-color="#48bdc5"/><stop offset=".52" stop-color="#168ea3"/><stop offset=".78" stop-color="#0c6b87"/><stop offset=".99" stop-color="#0c6b87"/></linearGradient></defs><path class="cls-1" d="m882.73,931.16c-104.6,14.83-116.04-127.83-101.39-111.09,14.65,16.74,45.18,108.63,122.74,98.45,77.57-10.18,127.49-77.23,127.78-98.45,0,0,35.45,84.91-149.13,111.09Z"/><path class="cls-1" d="m897.94,1012.6c21.3,0,27.48-98.46,6.13-94.34l-21.35,4.12"/><path class="cls-7" d="m943.36,741.9s-14.48,60.66-53.65,26.52c-39.17-34.13-5.69-76.74,33.87-79.79,39.57-3.04,83.7,30.44,80.65,80.65-3.04,50.22-49.89,151.38-132.23,109.93-82.34-41.45-114.58-149.8-92.37-299.54,22.21-149.74,63.3-218.22,169.82-177.13,0,0-90.55,6.85-110.33,154.46-19.78,147.61,6.09,238.92,68.48,246.53,62.39,7.61,73.04-38.04,60.87-59.35-12.17-21.3-50.22-48.7-65.44-21.3-15.22,27.39,28.91,48.7,40.33,19.02Z"/><path class="cls-5" d="m905.31,471.03s39.57-63.91,59.35-50.22c19.78,13.7,17.16,50.22,17.16,50.22h-76.51Z"/><path class="cls-5" d="m886.75,493.17c3.16,12.58-22.92,49.94,15.28,49.94s83.49,7.35,80.91-18.64c-2.59-26-2.59-37.15-35.06-35.91-32.48,1.24-64.95-10.61-61.13,4.61Z"/><path class="cls-4" d="m886.75,565.88c6.04,12.53-9.55,35.54,0,42.2,9.55,6.66,38.02,5.23,77.28,0,39.25-5.23,14.58-36.92,4.95-42.2-9.63-5.28-87.95-11.88-82.22,0Z"/><path class="cls-3" d="m892.48,635.16s-9.55,17.76,0,27.04c9.55,9.28,84.99,23.58,87.39,0,2.4-23.58,9.06-32.12,0-32.17s-89.3-3.51-87.39,5.14Z"/><path class="cls-4" d="m68.51,489.78c5.39,69.99,15.02,501.72,62.68,508.85,47.65,7.13,137.68,26.93,140.85-13.64,3.17-40.56-14.64-553.75-29.38-567.42-14.74-13.67-130.68-15.86-129.24-.91,1.45,14.96,32.34,463.98,63.91,460.93,31.57-3.06,51.94-35.22,40.9-114.66-11.04-79.44-16.68-189.59-21.66-189.11-4.99.48-19.08-6.54-14.47,110.42,4.61,116.96-1.4,134.62-10.82,113.42-5.36-12.06-6.81-260.99,9.8-262.6,16.62-1.61,34.2,6.75,41.22,96.64,7.02,89.89,26.76,259.06-5.35,273.91-32.11,14.85-52.42,30.23-60.95-5.84-8.52-36.07-46.43-237.03-47.34-367.76,0,0-43.42-84.69-40.15-42.24Z"/><path class="cls-3" d="m449.58,406.82c-45.06-3.91-163.58-2.53-162.8,15.76.78,18.29,16.04,81.11,19.04,112.05,2.99,30.94,4.99,449.99,36.49,462.34,31.5,12.35,120.03,35.01,124.14,1.54,4.11-33.46,10.31-254.04,8.08-333.96-2.23-79.92,35.52-192.87-37.45-187.64-72.97,5.23-78.33,53.29-50.52,80.1,27.8,26.81,30.15-24.85,38.61,5.55,8.45,30.41,5.99,61.88-19.84,60.7-25.83-1.17-27.94,33.93-15.79,45.61,12.15,11.68,53.72-14.38,56.01,9.27s-4.14,41.65-43.69,36.79c-39.55-4.85-14.16,57.19,5.43,56.11,19.59-1.08,44.72,134.11,12.84,132.67-31.87-1.43-36.45-48.75-44.44-112.27-7.99-63.52-25.36-91.23-3.52-93.34,21.84-2.11,22.84-29.76-5.17-34.4-28-4.64,1.61-50.8,24.02-60.71,22.41-9.91-4.24-38.56-24.61-40.26-20.37-1.7-20.31-106.38,10.57-104.79,30.87,1.59,98.05,17.06,97.72-7.67-.33-24.73-.1-41.28-25.1-43.46Z"/><path class="cls-4" d="m512.21,507.01c8.17,88.81,11.19,485.67,46.76,483.03,35.57-2.64,182.9-.68,182.35-46.05-.55-45.38,0-171.88-16.33-168.73-16.33,3.15-54.2,54.68-124.19,32.25-69.98-22.43-66.42-344.42-52.4-343.95,14.03.46,147.1.56,143.5-23.43-3.6-23.99,25.44-54.38-40.63-49.61-66.07,4.77-151.42-17.79-139.06,116.49Z"/><path class="cls-2" d="m616.21,740.77c-12.34,1.79-46.66-2.44-33.79,28.04,12.87,30.48,59.04,24.34,89.73,4.67,30.69-19.67,61.57-22.66,48.92-153.35-12.65-130.69-36.24-152.82-88.36-144.23-52.12,8.59-100.08,35.22-75.36,154.9,24.71,119.68,123.01,117.67,114.52,30-8.49-87.68-57.75-69.55-57.67-39.5.11,42.3,23.38,51.17,23.38,51.17,0,0-20.98,32.09-37.42,8.75-11.51-16.34-25.1-108.26,31.44-123.15,56.53-14.89,69.86,137.44,39.17,157.11-30.69,19.67-25.54,21.4-54.55,25.6Z"/><path class="cls-6" d="m882.37,932.09c-104.6,14.83-116.04-127.83-101.39-111.09,14.65,16.74,45.18,108.63,122.74,98.45,77.57-10.18,127.49-77.23,127.78-98.45,0,0,35.45,84.91-149.13,111.09Z"/><path class="cls-6" d="m897.59,1013.53c21.3,0,27.48-98.46,6.13-94.34l-21.35,4.12"/><path class="cls-6" d="m904.96,471.95s39.57-63.91,59.35-50.22c19.78,13.7,17.16,50.22,17.16,50.22h-76.51Z"/><path class="cls-6" d="m886.39,494.09c3.16,12.58-22.92,49.94,15.28,49.94s83.49,7.35,80.91-18.64c-2.59-26-2.59-37.15-35.06-35.91-32.48,1.24-64.95-10.61-61.13,4.61Z"/><path class="cls-6" d="m886.39,566.81c6.04,12.53-9.55,35.54,0,42.2,9.55,6.66,38.02,5.23,77.28,0,39.25-5.23,14.58-36.92,4.95-42.2-9.63-5.28-87.95-11.88-82.22,0Z"/><path class="cls-6" d="m892.12,636.08s-9.55,17.76,0,27.04c9.55,9.28,84.99,23.58,87.39,0,2.4-23.58,9.06-32.12,0-32.17-9.06-.05-89.3-3.51-87.39,5.14Z"/><path class="cls-6" d="m68.15,490.7c5.39,69.99,15.02,501.72,62.68,508.85,47.65,7.13,137.68,26.93,140.85-13.64,3.17-40.56-14.64-553.75-29.38-567.42-14.74-13.67-130.68-15.86-129.24-.91,1.45,14.96,32.34,463.98,63.91,460.93,31.57-3.06,51.94-35.22,40.9-114.66-11.04-79.44-16.68-189.59-21.66-189.11-4.99.48-19.08-6.54-14.47,110.42,4.61,116.96-1.4,134.62-10.82,113.42-5.36-12.06-6.81-260.99,9.8-262.6,16.62-1.61,34.2,6.75,41.22,96.64,7.02,89.89,26.76,259.06-5.35,273.91-32.11,14.85-52.42,30.23-60.95-5.84-8.52-36.07-46.43-237.03-47.34-367.76,0,0-43.42-84.69-40.15-42.24Z"/><path class="cls-6" d="m511.86,507.94c8.17,88.81,11.19,485.67,46.76,483.03,35.57-2.64,182.9-.68,182.35-46.05-.55-45.38,0-171.88-16.33-168.73-16.33,3.15-54.2,54.68-124.19,32.25-69.98-22.43-66.42-344.42-52.4-343.95,14.03.46,147.1.56,143.5-23.43-3.6-23.99,25.44-54.38-40.63-49.61-66.07,4.77-151.42-17.79-139.06,116.49Z"/><path class="cls-6" d="m615.86,741.69c-12.34,1.79-46.66-2.44-33.79,28.04,12.87,30.48,59.04,24.34,89.73,4.67,30.69-19.67,61.57-22.66,48.92-153.35-12.65-130.69-36.24-152.82-88.36-144.23-52.12,8.59-100.08,35.22-75.36,154.9,24.71,119.68,123.01,117.67,114.52,30-8.49-87.68-57.75-69.55-57.67-39.5.11,42.3,23.38,51.17,23.38,51.17,0,0-20.98,32.09-37.42,8.75-11.51-16.34-25.1-108.26,31.44-123.15,56.53-14.89,69.86,137.44,39.17,157.11-30.69,19.67-25.54,21.4-54.55,25.6Z"/></svg>