<?xml version="1.0" encoding="UTF-8"?><svg id="Color1" xmlns="http://www.w3.org/2000/svg" xmlns:xlink="http://www.w3.org/1999/xlink" viewBox="0 0 1080 1137"><defs><style>.cls-1{fill:#03b083;}.cls-2{fill:#fff;}.cls-3{fill:#064862;}.cls-4{fill:#48bcc4;}.cls-5{fill:url(#Degradado_sin_nombre_34);}</style><radialGradient id="Degradado_sin_nombre_34" cx="611.44" cy="512.24" fx="611.44" fy="512.24" r="162.26" gradientUnits="userSpaceOnUse"><stop offset="0" stop-color="#48bdc5"/><stop offset=".52" stop-color="#168ea3"/><stop offset=".78" stop-color="#0c6b87"/><stop offset=".99" stop-color="#0c6b87"/></radialGradient></defs><path class="cls-3" d="m681.3,1092s28.08-77.21-8.77-80.72c-36.85-3.51-36.85-7.02-8.77-42.12,28.08-35.1,31.59-54.4-5.26-71.95-36.85-17.55-9.36-31.72,33.05-39.55,42.41-7.83,86.28-185.07-90.96-158.74-177.24,26.32-203.56,22.81-215.84-49.13-12.28-71.95,93.01-187.76,164.95-138.63,71.95,49.13,10.53,142.14-19.3,105.29-29.83-36.85,19.3-38.61,19.3-38.61,0,0-7.02-28.08-33.34-15.79-26.32,12.28-59.66,71.95-19.3,85.99,40.36,14.04,121.08,14.04,136.88-52.64,15.79-66.68-8.77-175.48-182.5-152.67-173.73,22.81-263.22,198.29-250.94,272,12.28,73.7,36.85,135.12,154.42,98.27,117.57-36.85,235.04-82.06,281.59-47.17,46.56,34.89,32.52,87.53-18.37,87.53s-117.57,3.51-117.57,31.59,35.1,33.34,70.19,24.57c35.1-8.77,78.97,14.04,61.42,35.1-17.55,21.06-71.95,28.08-66.68,57.91,5.26,29.83,57.91,40.36,82.48,24.57,24.57-15.79,33.34,64.93,33.34,64.93Z"/><path class="cls-5" d="m456.46,427.96s117.67-36.58,180.76,40.72c63.09,77.3,40.98,167.29-55.63,210.93,0,0,231.68,30.92,177.17-210.94-54.51-241.86-317.59-62.36-302.3-40.71Z"/><polygon class="cls-4" points="349.65 326.9 358.42 247.94 381.23 318.13 449.67 305.84 387.47 343.59 370.7 430.44 356.66 351.47 282.88 339.19 349.65 326.9"/><polygon class="cls-4" points="807.1 622.49 826.18 588.36 823.1 624.55 856.48 632.06 821.06 637.29 796.85 673.46 805.59 634.97 774.48 615.29 807.1 622.49"/><polygon class="cls-4" points="149.49 617.91 140.37 585.79 160.39 609.48 185.07 593.83 166.87 618.4 174.13 654.85 156.13 626.36 125.47 633.29 149.49 617.91"/><polygon class="cls-2" points="798.93 45 831.62 191.96 958.48 232.76 805.29 297.25 702.33 450.67 702.33 280.85 572.79 192.63 721.06 181.43 798.93 45"/><polygon class="cls-1" points="726.45 211.01 798.93 45 801.16 213.25 958.48 232.76 797.53 272.92 702.33 450.67 725.13 269.24 572.79 192.63 726.45 211.01"/></svg>