<?xml version="1.0" encoding="UTF-8"?><svg id="Color1" xmlns="http://www.w3.org/2000/svg" xmlns:xlink="http://www.w3.org/1999/xlink" viewBox="0 0 1080 1137"><defs><style>.cls-1{fill:#011720;}.cls-2{fill:#03b083;}.cls-3{fill:#064862;}.cls-4{fill:#0c6b86;}.cls-5{fill:#48bcc4;}.cls-6{fill:none;stroke:#011720;stroke-miterlimit:10;stroke-width:2px;}.cls-7{fill:url(#Degradado_sin_nombre_34);}</style><radialGradient id="Degradado_sin_nombre_34" cx="923.98" cy="500.22" fx="923.98" fy="500.22" r="155.15" gradientUnits="userSpaceOnUse"><stop offset="0" stop-color="#48bdc5"/><stop offset=".52" stop-color="#168ea3"/><stop offset=".78" stop-color="#0c6b87"/><stop offset=".99" stop-color="#0c6b87"/></radialGradient></defs><path class="cls-4" d="m271.84,680.39s71.63-68.75,57.21-166.82c-14.42-98.08-85.58-163.46-175.48-150.48-81.84,11.82-157.21,102.4-110.09,216.82,47.11,114.42,212.02,110.09,241.82,48.56,29.81-61.54,21.15-195.19-84.61-203.84-105.77-8.65-131.73,87.5-97.11,160.58,34.61,73.08,157.69,71.15,160.58-1.92,2.88-73.08-34.47-122.31-86.95-107.79-52.47,14.52-53.44,113.56-7.28,125.09,46.15,11.54,70.19-50,39.42-69.23-30.77-19.23-42.44,25.55-30.84,26.24,0,0-15.32,5.49-14.36-21.43.96-26.92,49.04-27.88,58.65-1.92,9.62,25.96,12.64,85.12-45.6,79.1-58.24-6.02-59.2-81.02-41.9-114.68,17.31-33.65,64.42-46.15,101.92-19.23,37.5,26.92,52.88,139.42,3.85,155.77-49.04,16.35-81.25,24.52-140.86-37.98-59.61-62.5-7.21-167.79,49.52-178.36,56.73-10.58,119.23.96,137.5,55.77s47.11,103.84-15.38,205.77Z"/><path class="cls-4" d="m255.33,733.14c6.06,14.65,35.09,14.36,36.57-3.31.68-8.12-10.82-25.64-18.93-39.36-6.14,4.51-23.71,28.02-17.65,42.68Zm14.4,1.68c-17.67-4.13.66-32.8.66-32.8,0,0,17,36.93-.66,32.8Z"/><path class="cls-4" d="m319.43,690.75c-11.11-11.32-39.62-4.36-46.18-.47,9.45,12.84,21.06,30.28,28.81,32.83,16.85,5.55,28.48-21.04,17.37-32.36Zm-4.09,13.91c-3.12,17.87-30.44-12.23-30.44-12.23,0,0,33.55-5.64,30.44,12.23Z"/><path class="cls-7" d="m793.69,671.86s129.21,42.98,229.21-125.29c100-168.27-65.38-230.77-130.77-222.11-65.38,8.65-66.62,47.54-57.35,76.17,9.27,28.63,56.84,48.81,102.54,14.21,51.44-38.94,126.44,194.71-143.63,257.02Z"/><path class="cls-5" d="m793.69,655.73s147.8-60.83,168.99-108.22c19.72-44.12,0-109.24-68.28-107.14-68.28,2.1-89.81,77.2-69.85,97.16,19.96,19.96,56.72,22.06,72.48-1.05,15.76-23.11-5.73-35.09-20.2-34.35,0,0,43.31-13.96,43.31,17.55s-33.36,78.84-126.45,136.06Z"/><path class="cls-2" d="m793.73,585.51c-26.25-24.08-8.01-56.73,6.41-96.15,14.42-39.42,24.84-64.42-8.81-66.35-33.66-1.92-57.87,30.8-54.18,125.01,3.69,94.21,44.56,91.33,61.39,83.64,16.83-7.69,8.81-33.65-4.81-46.15Z"/><path class="cls-3" d="m749.22,674.93c-9.48,12.71,5.64,37.49,21.58,29.71,7.33-3.57,16.48-22.42,24.11-36.42-7.02-2.96-36.21-6.01-45.69,6.71Zm5.93,13.23c-5.5-17.29,28.51-16.23,28.51-16.23,0,0-23.01,33.52-28.51,16.23Z"/><path class="cls-3" d="m795.2,668.37c-6.18,14.7-15.21,33.6-13.43,41.56,3.86,17.31,32.66,13.68,36.69-1.66,4.03-15.34-16.55-36.26-23.25-39.9Zm9.21,43.51c-16.95,6.48-5.09-32.41-5.09-32.41,0,0,22.03,25.93,5.09,32.41Z"/><path class="cls-1" d="m509.04,473.99c-5.91,14.72,15.05,34.8,28.47,23.2,6.17-5.33,10.19-25.89,13.98-41.38-7.55-1.07-36.55,3.46-42.45,18.18Zm9.12,11.27c-9.74-15.3,23.4-22.99,23.4-22.99,0,0-13.66,38.29-23.4,22.99Z"/><path class="cls-1" d="m551.81,455.87c-2.21,15.79-6.1,36.37-2.35,43.61,8.17,15.75,35.07,4.86,35.04-10.99-.03-15.86-25.28-30.81-32.69-32.62Zm20.04,39.71c-14.72,10.6-13.22-30.02-13.22-30.02,0,0,27.94,19.42,13.22,30.02Z"/><path class="cls-1" d="m594.58,430.22s-6.39-3.58-10.66-8.87c0,0-12.74,10.73-17.33,12.9,0,0,12.76,1.6,18.58,1.97,0,0,5.07-1.63,9.4-6.01Z"/><path class="cls-1" d="m509.95,407.69s33.28-12.9,41.29-24.62c0,0-12.17-12.9-15.28-20,0,0-39.12,13.25-55.78,15.34,0,0,10.91,15.66,29.77,29.27Z"/><path class="cls-1" d="m457.88,333.5s45.83,14.54,62.15,6.61c0,0-24.83-30.2-27.58-77.15,0,0-15.88,3.87-47.07-12.01,0,0-3.58,51.83,12.5,82.55Z"/><path class="cls-1" d="m491.19,192.97s-29.38-14.73-39.43-29.33c0,0,18.49-64.75,35.92-83.21,0,0,2.95,17.72,33.49,30.63,0,0-22.92,24.64-29.98,81.9Z"/><path class="cls-1" d="m526.55,60.4s25.11,9.42,36.62,19.35c0,0,15.26-7.08,27.14-9.69,0,0-30.23-15.76-63.76-9.66Z"/><path class="cls-1" d="m526.55,60.4s-24.51,3.18-38.87,20.03c0,0-2.5-12.84-3.26-14.85,0,0,27.03-8.7,42.13-5.18Z"/><path class="cls-1" d="m427.92,105.99s-1.85-9.87-.94-18.47c0,0,20.75-13.27,30.62-15.12,0,0-15.36,8.04-29.68,33.59Z"/><path class="cls-1" d="m427.92,105.99s.02,27.08,23.85,57.65c0,0-13.95,58.47-6.38,87.31,0,0-37.37-21.38-53.2-45.3,0,0,6.06-66.08,35.73-99.66Z"/><path class="cls-1" d="m392.18,205.65s-16.28-28.8-19.43-44.61c0,0-24.98,74.13.06,141.86,0,0,9.86,19.52,36.92,19.68,0,0-22.32-26.55-17.55-116.93Z"/><path class="cls-1" d="m409.73,322.58s17.35,9.58,48.15,10.92c0,0,3.6,20.69,22.3,44.92,0,0-18.33,8.69-45.65,1.92,0,0-20.75-32.18-24.8-57.75Z"/><path class="cls-1" d="m434.53,380.33s-6.01.33-21.14-6.6c0,0,28.91,33.53,44.76,39.08,0,0-17.84-23.17-23.62-32.49Z"/><path class="cls-1" d="m458.16,412.82s34.01,7.48,51.79-5.13c0,0,21.11,28.83,56.64,26.57,0,0-13.9,7.95-25.98,12.47,0,0-51.23-9.31-82.45-33.9Z"/><path class="cls-1" d="m551.24,383.07s28.97-26.9,33.91-37.01c0,0,22.18,18.79,39.49,19.67,0,0-19.7,30.74-55.02,40.06,0,0-15.26-15.62-18.37-22.72Z"/><path class="cls-1" d="m624.64,365.73s14.77-20.67,18.96-32.8c0,0,32.82,1.02,63.61-11.4,0,0-9.81,27.75-28.81,49.9,0,0-27.14,7.75-53.75-5.71Z"/><path class="cls-1" d="m643.6,332.94s-27.48,3.85-46.55-7.85c0,0,16.26-24.38,17.63-56.14,0,0,29.82,9.94,49.31-.56,0,0-1.44,31.76-20.4,64.55Z"/><path class="cls-1" d="m659.29,194.4s6.7,46.16,4.71,73.99c0,0,37.51-6.71,50.4-14.5,0,0-3.47-54-24.02-88.1,0,0-6.51,15.75-31.08,28.61Z"/><path class="cls-1" d="m659.29,194.4s-24.78,14.77-45.91,13.49c0,0-10.52-46.56-17.18-52.11,0,0,33.31-17.73,42.89-35.09,0,0,16.07,30.72,20.21,73.7Z"/><path class="cls-1" d="m639.08,120.69s-12.23-17.74-21.65-26.47c0,0,2.6-3.59,3.01-7.42,0,0,20.04,11.8,25.1,18.62,0,0-1.73,7.07-6.47,15.27Z"/><path class="cls-1" d="m617.43,94.22s-10.76,22.06-35.13,33.01c0,0-18.17-35.77-28.52-39.77,0,0,18.5-11.57,31.34-14.07,0,0,21.67,9.07,32.31,20.84Z"/><path class="cls-6" d="m274.68,703.89s64.21,56.31,57.72,81.6c-6.49,25.29,2.41,44.53,51.59,102.42,49.17,57.88,77.77,174.16,72.52,209.09"/><path class="cls-6" d="m456.51,1097c9.78-7.88,11.07-78.72,2.18-124.08-8.89-45.36,38.49-121.88,72.88-148.94,57.74-45.43,21.5-209.24,21.5-209.24,0,0-20.06-90.29,0-156.21"/><path class="cls-6" d="m456.51,1097c-12.96-39.23,145.54-163.93,206.43-201.61,60.89-37.68,84.78-95.11,83.01-129.71-1.78-34.59,40.65-76.94,40.65-76.94"/><path class="cls-6" d="m795.25,655.14s147.8-60.83,168.99-108.22c19.72-44.12,0-109.24-68.28-107.14-68.28,2.1-89.81,77.2-69.85,97.16,19.96,19.96,56.72,22.06,72.48-1.05,15.76-23.11-5.73-35.09-20.2-34.35,0,0,43.31-13.96,43.31,17.55s-33.36,78.84-126.45,136.06Z"/><path class="cls-6" d="m795.29,584.92c-26.25-24.08-8.01-56.73,6.41-96.15,14.42-39.42,24.84-64.42-8.81-66.35-33.66-1.92-57.87,30.8-54.18,125.01,3.69,94.21,44.56,91.33,61.39,83.64,16.83-7.69,8.81-33.65-4.81-46.15Z"/><path class="cls-6" d="m750.78,674.34c-9.48,12.71,5.64,37.49,21.58,29.71,7.33-3.57,16.48-22.42,24.11-36.42-7.02-2.96-36.21-6.01-45.69,6.71Zm5.93,13.23c-5.5-17.29,28.51-16.23,28.51-16.23,0,0-23.01,33.52-28.51,16.23Z"/><path class="cls-6" d="m796.76,667.77c-6.18,14.7-15.21,33.6-13.43,41.56,3.86,17.31,32.66,13.68,36.69-1.66,4.03-15.34-16.55-36.26-23.25-39.9Zm9.21,43.51c-16.95,6.48-5.09-32.41-5.09-32.41,0,0,22.03,25.93,5.09,32.41Z"/></svg>