<?xml version="1.0" encoding="UTF-8"?><svg id="Color1" xmlns="http://www.w3.org/2000/svg" xmlns:xlink="http://www.w3.org/1999/xlink" viewBox="0 0 1080 1137"><defs><style>.cls-1,.cls-2,.cls-3,.cls-4,.cls-5,.cls-6{fill:#03b083;}.cls-7,.cls-8,.cls-9,.cls-10{fill:#48bcc4;}.cls-11{filter:url(#drop-shadow-123);}.cls-12{filter:url(#drop-shadow-93);}.cls-12,.cls-13,.cls-14,.cls-15,.cls-16,.cls-17,.cls-18,.cls-19,.cls-20,.cls-21,.cls-22,.cls-23,.cls-24,.cls-25,.cls-26,.cls-27,.cls-28,.cls-29,.cls-30,.cls-31,.cls-32,.cls-33,.cls-34,.cls-35,.cls-36,.cls-37,.cls-38,.cls-39,.cls-40,.cls-41,.cls-42,.cls-43,.cls-44,.cls-45,.cls-46{fill:none;stroke:#011720;stroke-miterlimit:10;stroke-width:.6px;}.cls-13{filter:url(#drop-shadow-96);}.cls-14{filter:url(#drop-shadow-99);}.cls-15{filter:url(#drop-shadow-92);}.cls-16{filter:url(#drop-shadow-95);}.cls-17{filter:url(#drop-shadow-94);}.cls-18{filter:url(#drop-shadow-91);}.cls-19{filter:url(#drop-shadow-90);}.cls-20{filter:url(#drop-shadow-89);}.cls-21{filter:url(#drop-shadow-98);}.cls-22{filter:url(#drop-shadow-97);}.cls-47{fill:url(#Degradado_sin_nombre_2);filter:url(#drop-shadow-48);}.cls-48{filter:url(#drop-shadow-57);}.cls-48,.cls-49,.cls-50,.cls-51,.cls-52,.cls-53,.cls-54,.cls-55,.cls-56,.cls-57,.cls-58,.cls-59,.cls-60,.cls-61,.cls-62,.cls-63,.cls-64,.cls-65,.cls-66,.cls-67{fill:#011720;}.cls-49{filter:url(#drop-shadow-58);}.cls-50{filter:url(#drop-shadow-59);}.cls-51{filter:url(#drop-shadow-56);}.cls-52{filter:url(#drop-shadow-53);}.cls-53{filter:url(#drop-shadow-55);}.cls-54{filter:url(#drop-shadow-54);}.cls-55{filter:url(#drop-shadow-52);}.cls-56{filter:url(#drop-shadow-67);}.cls-57{filter:url(#drop-shadow-66);}.cls-58{filter:url(#drop-shadow-61);}.cls-59{filter:url(#drop-shadow-70);}.cls-60{filter:url(#drop-shadow-71);}.cls-61{filter:url(#drop-shadow-64);}.cls-62{filter:url(#drop-shadow-65);}.cls-63{filter:url(#drop-shadow-63);}.cls-64{filter:url(#drop-shadow-60);}.cls-65{filter:url(#drop-shadow-62);}.cls-66{filter:url(#drop-shadow-68);}.cls-67{filter:url(#drop-shadow-69);}.cls-2{filter:url(#drop-shadow-87);}.cls-3{filter:url(#drop-shadow-86);}.cls-4{filter:url(#drop-shadow-75);}.cls-5{filter:url(#drop-shadow-76);}.cls-6{filter:url(#drop-shadow-85);}.cls-8{filter:url(#drop-shadow-84);}.cls-9{filter:url(#drop-shadow-83);}.cls-10{filter:url(#drop-shadow-74);}.cls-68{filter:url(#drop-shadow-77);}.cls-68,.cls-69,.cls-70,.cls-71{fill:#0c6b86;}.cls-69{filter:url(#drop-shadow-80);}.cls-70{filter:url(#drop-shadow-78);}.cls-71{filter:url(#drop-shadow-79);}.cls-72{filter:url(#drop-shadow-49);}.cls-72,.cls-73,.cls-74,.cls-75,.cls-76{fill:#064862;}.cls-73{filter:url(#drop-shadow-82);}.cls-74{filter:url(#drop-shadow-81);}.cls-75{filter:url(#drop-shadow-51);}.cls-76{filter:url(#drop-shadow-50);}.cls-24{filter:url(#drop-shadow-107);}.cls-25{filter:url(#drop-shadow-108);}.cls-26{filter:url(#drop-shadow-116);}.cls-27{filter:url(#drop-shadow-120);}.cls-28{filter:url(#drop-shadow-122);}.cls-29{filter:url(#drop-shadow-121);}.cls-30{filter:url(#drop-shadow-119);}.cls-31{filter:url(#drop-shadow-115);}.cls-32{filter:url(#drop-shadow-118);}.cls-33{filter:url(#drop-shadow-114);}.cls-34{filter:url(#drop-shadow-117);}.cls-35{filter:url(#drop-shadow-112);}.cls-36{filter:url(#drop-shadow-111);}.cls-37{filter:url(#drop-shadow-113);}.cls-38{filter:url(#drop-shadow-110);}.cls-39{filter:url(#drop-shadow-103);}.cls-40{filter:url(#drop-shadow-102);}.cls-41{filter:url(#drop-shadow-105);}.cls-42{filter:url(#drop-shadow-101);}.cls-43{filter:url(#drop-shadow-106);}.cls-44{filter:url(#drop-shadow-109);}.cls-45{filter:url(#drop-shadow-100);}.cls-46{filter:url(#drop-shadow-104);}.cls-77{filter:url(#drop-shadow-72);}.cls-78{filter:url(#drop-shadow-73);}.cls-79{filter:url(#drop-shadow-88);}</style><linearGradient id="Degradado_sin_nombre_2" x1="471.03" y1="93.65" x2="458.93" y2="952.74" gradientUnits="userSpaceOnUse"><stop offset="0" stop-color="#48bdc5"/><stop offset=".52" stop-color="#168ea3"/><stop offset=".78" stop-color="#0c6b87"/><stop offset=".99" stop-color="#0c6b87"/></linearGradient><filter id="drop-shadow-48" filterUnits="userSpaceOnUse"><feOffset dx="1" dy="1"/><feGaussianBlur result="blur" stdDeviation="3"/><feFlood flood-color="#000" flood-opacity=".75"/><feComposite in2="blur" operator="in"/><feComposite in="SourceGraphic"/></filter><filter id="drop-shadow-49" filterUnits="userSpaceOnUse"><feOffset dx="1" dy="1"/><feGaussianBlur result="blur-2" stdDeviation="3"/><feFlood flood-color="#000" flood-opacity=".75"/><feComposite in2="blur-2" operator="in"/><feComposite in="SourceGraphic"/></filter><filter id="drop-shadow-50" filterUnits="userSpaceOnUse"><feOffset dx="1" dy="1"/><feGaussianBlur result="blur-3" stdDeviation="3"/><feFlood flood-color="#000" flood-opacity=".75"/><feComposite in2="blur-3" operator="in"/><feComposite in="SourceGraphic"/></filter><filter id="drop-shadow-51" filterUnits="userSpaceOnUse"><feOffset dx="1" dy="1"/><feGaussianBlur result="blur-4" stdDeviation="3"/><feFlood flood-color="#000" flood-opacity=".75"/><feComposite in2="blur-4" operator="in"/><feComposite in="SourceGraphic"/></filter><filter id="drop-shadow-52" filterUnits="userSpaceOnUse"><feOffset dx="1" dy="1"/><feGaussianBlur result="blur-5" stdDeviation="3"/><feFlood flood-color="#000" flood-opacity=".75"/><feComposite in2="blur-5" operator="in"/><feComposite in="SourceGraphic"/></filter><filter id="drop-shadow-53" filterUnits="userSpaceOnUse"><feOffset dx="1" dy="1"/><feGaussianBlur result="blur-6" stdDeviation="3"/><feFlood flood-color="#000" flood-opacity=".75"/><feComposite in2="blur-6" operator="in"/><feComposite in="SourceGraphic"/></filter><filter id="drop-shadow-54" filterUnits="userSpaceOnUse"><feOffset dx="1" dy="1"/><feGaussianBlur result="blur-7" stdDeviation="3"/><feFlood flood-color="#000" flood-opacity=".75"/><feComposite in2="blur-7" operator="in"/><feComposite in="SourceGraphic"/></filter><filter id="drop-shadow-55" filterUnits="userSpaceOnUse"><feOffset dx="1" dy="1"/><feGaussianBlur result="blur-8" stdDeviation="3"/><feFlood flood-color="#000" flood-opacity=".75"/><feComposite in2="blur-8" operator="in"/><feComposite in="SourceGraphic"/></filter><filter id="drop-shadow-56" filterUnits="userSpaceOnUse"><feOffset dx="1" dy="1"/><feGaussianBlur result="blur-9" stdDeviation="3"/><feFlood flood-color="#000" flood-opacity=".75"/><feComposite in2="blur-9" operator="in"/><feComposite in="SourceGraphic"/></filter><filter id="drop-shadow-57" filterUnits="userSpaceOnUse"><feOffset dx="1" dy="1"/><feGaussianBlur result="blur-10" stdDeviation="3"/><feFlood flood-color="#000" flood-opacity=".75"/><feComposite in2="blur-10" operator="in"/><feComposite in="SourceGraphic"/></filter><filter id="drop-shadow-58" filterUnits="userSpaceOnUse"><feOffset dx="1" dy="1"/><feGaussianBlur result="blur-11" stdDeviation="3"/><feFlood flood-color="#000" flood-opacity=".75"/><feComposite in2="blur-11" operator="in"/><feComposite in="SourceGraphic"/></filter><filter id="drop-shadow-59" filterUnits="userSpaceOnUse"><feOffset dx="1" dy="1"/><feGaussianBlur result="blur-12" stdDeviation="3"/><feFlood flood-color="#000" flood-opacity=".75"/><feComposite in2="blur-12" operator="in"/><feComposite in="SourceGraphic"/></filter><filter id="drop-shadow-60" filterUnits="userSpaceOnUse"><feOffset dx="1" dy="1"/><feGaussianBlur result="blur-13" stdDeviation="3"/><feFlood flood-color="#000" flood-opacity=".75"/><feComposite in2="blur-13" operator="in"/><feComposite in="SourceGraphic"/></filter><filter id="drop-shadow-61" filterUnits="userSpaceOnUse"><feOffset dx="1" dy="1"/><feGaussianBlur result="blur-14" stdDeviation="3"/><feFlood flood-color="#000" flood-opacity=".75"/><feComposite in2="blur-14" operator="in"/><feComposite in="SourceGraphic"/></filter><filter id="drop-shadow-62" filterUnits="userSpaceOnUse"><feOffset dx="1" dy="1"/><feGaussianBlur result="blur-15" stdDeviation="3"/><feFlood flood-color="#000" flood-opacity=".75"/><feComposite in2="blur-15" operator="in"/><feComposite in="SourceGraphic"/></filter><filter id="drop-shadow-63" filterUnits="userSpaceOnUse"><feOffset dx="1" dy="1"/><feGaussianBlur result="blur-16" stdDeviation="3"/><feFlood flood-color="#000" flood-opacity=".75"/><feComposite in2="blur-16" operator="in"/><feComposite in="SourceGraphic"/></filter><filter id="drop-shadow-64" filterUnits="userSpaceOnUse"><feOffset dx="1" dy="1"/><feGaussianBlur result="blur-17" stdDeviation="3"/><feFlood flood-color="#000" flood-opacity=".75"/><feComposite in2="blur-17" operator="in"/><feComposite in="SourceGraphic"/></filter><filter id="drop-shadow-65" filterUnits="userSpaceOnUse"><feOffset dx="1" dy="1"/><feGaussianBlur result="blur-18" stdDeviation="3"/><feFlood flood-color="#000" flood-opacity=".75"/><feComposite in2="blur-18" operator="in"/><feComposite in="SourceGraphic"/></filter><filter id="drop-shadow-66" filterUnits="userSpaceOnUse"><feOffset dx="1" dy="1"/><feGaussianBlur result="blur-19" stdDeviation="3"/><feFlood flood-color="#000" flood-opacity=".75"/><feComposite in2="blur-19" operator="in"/><feComposite in="SourceGraphic"/></filter><filter id="drop-shadow-67" filterUnits="userSpaceOnUse"><feOffset dx="1" dy="1"/><feGaussianBlur result="blur-20" stdDeviation="3"/><feFlood flood-color="#000" flood-opacity=".75"/><feComposite in2="blur-20" operator="in"/><feComposite in="SourceGraphic"/></filter><filter id="drop-shadow-68" filterUnits="userSpaceOnUse"><feOffset dx="1" dy="1"/><feGaussianBlur result="blur-21" stdDeviation="3"/><feFlood flood-color="#000" flood-opacity=".75"/><feComposite in2="blur-21" operator="in"/><feComposite in="SourceGraphic"/></filter><filter id="drop-shadow-69" filterUnits="userSpaceOnUse"><feOffset dx="1" dy="1"/><feGaussianBlur result="blur-22" stdDeviation="3"/><feFlood flood-color="#000" flood-opacity=".75"/><feComposite in2="blur-22" operator="in"/><feComposite in="SourceGraphic"/></filter><filter id="drop-shadow-70" filterUnits="userSpaceOnUse"><feOffset dx="1" dy="1"/><feGaussianBlur result="blur-23" stdDeviation="3"/><feFlood flood-color="#000" flood-opacity=".75"/><feComposite in2="blur-23" operator="in"/><feComposite in="SourceGraphic"/></filter><filter id="drop-shadow-71" filterUnits="userSpaceOnUse"><feOffset dx="1" dy="1"/><feGaussianBlur result="blur-24" stdDeviation="3"/><feFlood flood-color="#000" flood-opacity=".75"/><feComposite in2="blur-24" operator="in"/><feComposite in="SourceGraphic"/></filter><filter id="drop-shadow-72" filterUnits="userSpaceOnUse"><feOffset dx="1" dy="1"/><feGaussianBlur result="blur-25" stdDeviation="3"/><feFlood flood-color="#000" flood-opacity=".75"/><feComposite in2="blur-25" operator="in"/><feComposite in="SourceGraphic"/></filter><filter id="drop-shadow-73" filterUnits="userSpaceOnUse"><feOffset dx="1" dy="1"/><feGaussianBlur result="blur-26" stdDeviation="3"/><feFlood flood-color="#000" flood-opacity=".75"/><feComposite in2="blur-26" operator="in"/><feComposite in="SourceGraphic"/></filter><filter id="drop-shadow-74" filterUnits="userSpaceOnUse"><feOffset dx="1" dy="1"/><feGaussianBlur result="blur-27" stdDeviation="3"/><feFlood flood-color="#000" flood-opacity=".75"/><feComposite in2="blur-27" operator="in"/><feComposite in="SourceGraphic"/></filter><filter id="drop-shadow-75" filterUnits="userSpaceOnUse"><feOffset dx="1" dy="1"/><feGaussianBlur result="blur-28" stdDeviation="3"/><feFlood flood-color="#000" flood-opacity=".75"/><feComposite in2="blur-28" operator="in"/><feComposite in="SourceGraphic"/></filter><filter id="drop-shadow-76" filterUnits="userSpaceOnUse"><feOffset dx="1" dy="1"/><feGaussianBlur result="blur-29" stdDeviation="3"/><feFlood flood-color="#000" flood-opacity=".75"/><feComposite in2="blur-29" operator="in"/><feComposite in="SourceGraphic"/></filter><filter id="drop-shadow-77" filterUnits="userSpaceOnUse"><feOffset dx="1" dy="1"/><feGaussianBlur result="blur-30" stdDeviation="3"/><feFlood flood-color="#000" flood-opacity=".75"/><feComposite in2="blur-30" operator="in"/><feComposite in="SourceGraphic"/></filter><filter id="drop-shadow-78" filterUnits="userSpaceOnUse"><feOffset dx="1" dy="1"/><feGaussianBlur result="blur-31" stdDeviation="3"/><feFlood flood-color="#000" flood-opacity=".75"/><feComposite in2="blur-31" operator="in"/><feComposite in="SourceGraphic"/></filter><filter id="drop-shadow-79" filterUnits="userSpaceOnUse"><feOffset dx="1" dy="1"/><feGaussianBlur result="blur-32" stdDeviation="3"/><feFlood flood-color="#000" flood-opacity=".75"/><feComposite in2="blur-32" operator="in"/><feComposite in="SourceGraphic"/></filter><filter id="drop-shadow-80" filterUnits="userSpaceOnUse"><feOffset dx="1" dy="1"/><feGaussianBlur result="blur-33" stdDeviation="3"/><feFlood flood-color="#000" flood-opacity=".75"/><feComposite in2="blur-33" operator="in"/><feComposite in="SourceGraphic"/></filter><filter id="drop-shadow-81" filterUnits="userSpaceOnUse"><feOffset dx="1" dy="1"/><feGaussianBlur result="blur-34" stdDeviation="3"/><feFlood flood-color="#000" flood-opacity=".75"/><feComposite in2="blur-34" operator="in"/><feComposite in="SourceGraphic"/></filter><filter id="drop-shadow-82" filterUnits="userSpaceOnUse"><feOffset dx="1" dy="1"/><feGaussianBlur result="blur-35" stdDeviation="3"/><feFlood flood-color="#000" flood-opacity=".75"/><feComposite in2="blur-35" operator="in"/><feComposite in="SourceGraphic"/></filter><filter id="drop-shadow-83" filterUnits="userSpaceOnUse"><feOffset dx="1" dy="1"/><feGaussianBlur result="blur-36" stdDeviation="3"/><feFlood flood-color="#000" flood-opacity=".75"/><feComposite in2="blur-36" operator="in"/><feComposite in="SourceGraphic"/></filter><filter id="drop-shadow-84" filterUnits="userSpaceOnUse"><feOffset dx="1" dy="1"/><feGaussianBlur result="blur-37" stdDeviation="3"/><feFlood flood-color="#000" flood-opacity=".75"/><feComposite in2="blur-37" operator="in"/><feComposite in="SourceGraphic"/></filter><filter id="drop-shadow-85" filterUnits="userSpaceOnUse"><feOffset dx="1" dy="1"/><feGaussianBlur result="blur-38" stdDeviation="3"/><feFlood flood-color="#000" flood-opacity=".75"/><feComposite in2="blur-38" operator="in"/><feComposite in="SourceGraphic"/></filter><filter id="drop-shadow-86" filterUnits="userSpaceOnUse"><feOffset dx="1" dy="1"/><feGaussianBlur result="blur-39" stdDeviation="3"/><feFlood flood-color="#000" flood-opacity=".75"/><feComposite in2="blur-39" operator="in"/><feComposite in="SourceGraphic"/></filter><filter id="drop-shadow-87" filterUnits="userSpaceOnUse"><feOffset dx="1" dy="1"/><feGaussianBlur result="blur-40" stdDeviation="3"/><feFlood flood-color="#000" flood-opacity=".75"/><feComposite in2="blur-40" operator="in"/><feComposite in="SourceGraphic"/></filter><filter id="drop-shadow-88" filterUnits="userSpaceOnUse"><feOffset dx="1" dy="1"/><feGaussianBlur result="blur-41" stdDeviation="3"/><feFlood flood-color="#000" flood-opacity=".75"/><feComposite in2="blur-41" operator="in"/><feComposite in="SourceGraphic"/></filter><filter id="drop-shadow-89" filterUnits="userSpaceOnUse"><feOffset dx="1" dy="1"/><feGaussianBlur result="blur-42" stdDeviation="3"/><feFlood flood-color="#000" flood-opacity=".75"/><feComposite in2="blur-42" operator="in"/><feComposite in="SourceGraphic"/></filter><filter id="drop-shadow-90" filterUnits="userSpaceOnUse"><feOffset dx="1" dy="1"/><feGaussianBlur result="blur-43" stdDeviation="3"/><feFlood flood-color="#000" flood-opacity=".75"/><feComposite in2="blur-43" operator="in"/><feComposite in="SourceGraphic"/></filter><filter id="drop-shadow-91" filterUnits="userSpaceOnUse"><feOffset dx="1" dy="1"/><feGaussianBlur result="blur-44" stdDeviation="3"/><feFlood flood-color="#000" flood-opacity=".75"/><feComposite in2="blur-44" operator="in"/><feComposite in="SourceGraphic"/></filter><filter id="drop-shadow-92" filterUnits="userSpaceOnUse"><feOffset dx="1" dy="1"/><feGaussianBlur result="blur-45" stdDeviation="3"/><feFlood flood-color="#000" flood-opacity=".75"/><feComposite in2="blur-45" operator="in"/><feComposite in="SourceGraphic"/></filter><filter id="drop-shadow-93" filterUnits="userSpaceOnUse"><feOffset dx="1" dy="1"/><feGaussianBlur result="blur-46" stdDeviation="3"/><feFlood flood-color="#000" flood-opacity=".75"/><feComposite in2="blur-46" operator="in"/><feComposite in="SourceGraphic"/></filter><filter id="drop-shadow-94" filterUnits="userSpaceOnUse"><feOffset dx="1" dy="1"/><feGaussianBlur result="blur-47" stdDeviation="3"/><feFlood flood-color="#000" flood-opacity=".75"/><feComposite in2="blur-47" operator="in"/><feComposite in="SourceGraphic"/></filter><filter id="drop-shadow-95" filterUnits="userSpaceOnUse"><feOffset dx="1" dy="1"/><feGaussianBlur result="blur-48" stdDeviation="3"/><feFlood flood-color="#000" flood-opacity=".75"/><feComposite in2="blur-48" operator="in"/><feComposite in="SourceGraphic"/></filter><filter id="drop-shadow-96" filterUnits="userSpaceOnUse"><feOffset dx="1" dy="1"/><feGaussianBlur result="blur-49" stdDeviation="3"/><feFlood flood-color="#000" flood-opacity=".75"/><feComposite in2="blur-49" operator="in"/><feComposite in="SourceGraphic"/></filter><filter id="drop-shadow-97" filterUnits="userSpaceOnUse"><feOffset dx="1" dy="1"/><feGaussianBlur result="blur-50" stdDeviation="3"/><feFlood flood-color="#000" flood-opacity=".75"/><feComposite in2="blur-50" operator="in"/><feComposite in="SourceGraphic"/></filter><filter id="drop-shadow-98" filterUnits="userSpaceOnUse"><feOffset dx="1" dy="1"/><feGaussianBlur result="blur-51" stdDeviation="3"/><feFlood flood-color="#000" flood-opacity=".75"/><feComposite in2="blur-51" operator="in"/><feComposite in="SourceGraphic"/></filter><filter id="drop-shadow-99" filterUnits="userSpaceOnUse"><feOffset dx="1" dy="1"/><feGaussianBlur result="blur-52" stdDeviation="3"/><feFlood flood-color="#000" flood-opacity=".75"/><feComposite in2="blur-52" operator="in"/><feComposite in="SourceGraphic"/></filter><filter id="drop-shadow-100" filterUnits="userSpaceOnUse"><feOffset dx="1" dy="1"/><feGaussianBlur result="blur-53" stdDeviation="3"/><feFlood flood-color="#000" flood-opacity=".75"/><feComposite in2="blur-53" operator="in"/><feComposite in="SourceGraphic"/></filter><filter id="drop-shadow-101" filterUnits="userSpaceOnUse"><feOffset dx="1" dy="1"/><feGaussianBlur result="blur-54" stdDeviation="3"/><feFlood flood-color="#000" flood-opacity=".75"/><feComposite in2="blur-54" operator="in"/><feComposite in="SourceGraphic"/></filter><filter id="drop-shadow-102" filterUnits="userSpaceOnUse"><feOffset dx="1" dy="1"/><feGaussianBlur result="blur-55" stdDeviation="3"/><feFlood flood-color="#000" flood-opacity=".75"/><feComposite in2="blur-55" operator="in"/><feComposite in="SourceGraphic"/></filter><filter id="drop-shadow-103" filterUnits="userSpaceOnUse"><feOffset dx="1" dy="1"/><feGaussianBlur result="blur-56" stdDeviation="3"/><feFlood flood-color="#000" flood-opacity=".75"/><feComposite in2="blur-56" operator="in"/><feComposite in="SourceGraphic"/></filter><filter id="drop-shadow-104" filterUnits="userSpaceOnUse"><feOffset dx="1" dy="1"/><feGaussianBlur result="blur-57" stdDeviation="3"/><feFlood flood-color="#000" flood-opacity=".75"/><feComposite in2="blur-57" operator="in"/><feComposite in="SourceGraphic"/></filter><filter id="drop-shadow-105" filterUnits="userSpaceOnUse"><feOffset dx="1" dy="1"/><feGaussianBlur result="blur-58" stdDeviation="3"/><feFlood flood-color="#000" flood-opacity=".75"/><feComposite in2="blur-58" operator="in"/><feComposite in="SourceGraphic"/></filter><filter id="drop-shadow-106" filterUnits="userSpaceOnUse"><feOffset dx="1" dy="1"/><feGaussianBlur result="blur-59" stdDeviation="3"/><feFlood flood-color="#000" flood-opacity=".75"/><feComposite in2="blur-59" operator="in"/><feComposite in="SourceGraphic"/></filter><filter id="drop-shadow-107" filterUnits="userSpaceOnUse"><feOffset dx="1" dy="1"/><feGaussianBlur result="blur-60" stdDeviation="3"/><feFlood flood-color="#000" flood-opacity=".75"/><feComposite in2="blur-60" operator="in"/><feComposite in="SourceGraphic"/></filter><filter id="drop-shadow-108" filterUnits="userSpaceOnUse"><feOffset dx="1" dy="1"/><feGaussianBlur result="blur-61" stdDeviation="3"/><feFlood flood-color="#000" flood-opacity=".75"/><feComposite in2="blur-61" operator="in"/><feComposite in="SourceGraphic"/></filter><filter id="drop-shadow-109" filterUnits="userSpaceOnUse"><feOffset dx="1" dy="1"/><feGaussianBlur result="blur-62" stdDeviation="3"/><feFlood flood-color="#000" flood-opacity=".75"/><feComposite in2="blur-62" operator="in"/><feComposite in="SourceGraphic"/></filter><filter id="drop-shadow-110" filterUnits="userSpaceOnUse"><feOffset dx="1" dy="1"/><feGaussianBlur result="blur-63" stdDeviation="3"/><feFlood flood-color="#000" flood-opacity=".75"/><feComposite in2="blur-63" operator="in"/><feComposite in="SourceGraphic"/></filter><filter id="drop-shadow-111" filterUnits="userSpaceOnUse"><feOffset dx="1" dy="1"/><feGaussianBlur result="blur-64" stdDeviation="3"/><feFlood flood-color="#000" flood-opacity=".75"/><feComposite in2="blur-64" operator="in"/><feComposite in="SourceGraphic"/></filter><filter id="drop-shadow-112" filterUnits="userSpaceOnUse"><feOffset dx="1" dy="1"/><feGaussianBlur result="blur-65" stdDeviation="3"/><feFlood flood-color="#000" flood-opacity=".75"/><feComposite in2="blur-65" operator="in"/><feComposite in="SourceGraphic"/></filter><filter id="drop-shadow-113" filterUnits="userSpaceOnUse"><feOffset dx="1" dy="1"/><feGaussianBlur result="blur-66" stdDeviation="3"/><feFlood flood-color="#000" flood-opacity=".75"/><feComposite in2="blur-66" operator="in"/><feComposite in="SourceGraphic"/></filter><filter id="drop-shadow-114" filterUnits="userSpaceOnUse"><feOffset dx="1" dy="1"/><feGaussianBlur result="blur-67" stdDeviation="3"/><feFlood flood-color="#000" flood-opacity=".75"/><feComposite in2="blur-67" operator="in"/><feComposite in="SourceGraphic"/></filter><filter id="drop-shadow-115" filterUnits="userSpaceOnUse"><feOffset dx="1" dy="1"/><feGaussianBlur result="blur-68" stdDeviation="3"/><feFlood flood-color="#000" flood-opacity=".75"/><feComposite in2="blur-68" operator="in"/><feComposite in="SourceGraphic"/></filter><filter id="drop-shadow-116" filterUnits="userSpaceOnUse"><feOffset dx="1" dy="1"/><feGaussianBlur result="blur-69" stdDeviation="3"/><feFlood flood-color="#000" flood-opacity=".75"/><feComposite in2="blur-69" operator="in"/><feComposite in="SourceGraphic"/></filter><filter id="drop-shadow-117" filterUnits="userSpaceOnUse"><feOffset dx="1" dy="1"/><feGaussianBlur result="blur-70" stdDeviation="3"/><feFlood flood-color="#000" flood-opacity=".75"/><feComposite in2="blur-70" operator="in"/><feComposite in="SourceGraphic"/></filter><filter id="drop-shadow-118" filterUnits="userSpaceOnUse"><feOffset dx="1" dy="1"/><feGaussianBlur result="blur-71" stdDeviation="3"/><feFlood flood-color="#000" flood-opacity=".75"/><feComposite in2="blur-71" operator="in"/><feComposite in="SourceGraphic"/></filter><filter id="drop-shadow-119" filterUnits="userSpaceOnUse"><feOffset dx="1" dy="1"/><feGaussianBlur result="blur-72" stdDeviation="3"/><feFlood flood-color="#000" flood-opacity=".75"/><feComposite in2="blur-72" operator="in"/><feComposite in="SourceGraphic"/></filter><filter id="drop-shadow-120" filterUnits="userSpaceOnUse"><feOffset dx="1" dy="1"/><feGaussianBlur result="blur-73" stdDeviation="3"/><feFlood flood-color="#000" flood-opacity=".75"/><feComposite in2="blur-73" operator="in"/><feComposite in="SourceGraphic"/></filter><filter id="drop-shadow-121" filterUnits="userSpaceOnUse"><feOffset dx="1" dy="1"/><feGaussianBlur result="blur-74" stdDeviation="3"/><feFlood flood-color="#000" flood-opacity=".75"/><feComposite in2="blur-74" operator="in"/><feComposite in="SourceGraphic"/></filter><filter id="drop-shadow-122" filterUnits="userSpaceOnUse"><feOffset dx="1" dy="1"/><feGaussianBlur result="blur-75" stdDeviation="3"/><feFlood flood-color="#000" flood-opacity=".75"/><feComposite in2="blur-75" operator="in"/><feComposite in="SourceGraphic"/></filter><filter id="drop-shadow-123" filterUnits="userSpaceOnUse"><feOffset dx="1" dy="1"/><feGaussianBlur result="blur-76" stdDeviation="3"/><feFlood flood-color="#000" flood-opacity=".75"/><feComposite in2="blur-76" operator="in"/><feComposite in="SourceGraphic"/></filter></defs><path class="cls-47" d="m323.51,994.48s-3-2.25-4.5,4.5-.75,15.77,14.27,18.02c15.02,2.25,30.78-15.77,19.52-33.79s-41.29-37.54-61.57-23.27c-20.27,14.27-25.53,50.3-3,76.58,22.52,26.28,27.78,38.29,89.35,31.53,61.57-6.76,205.72-32.28,226.74-80.34,21.02-48.05,45.05-170.43,42.04-260.53-3-90.1-11.26-325.85-18.77-366.39-7.51-40.54-57.06-84.09-96.85-82.59-39.79,1.5-120.88-8.26-150.16-37.54-29.28-29.28-51.05-94.6,6.01-100.61,0,0-22.52,5.26-4.5,31.53,18.02,26.28,51.81,1.5,47.3-23.27-4.5-24.78-22.52-54.06-66.07-42.8-43.55,11.26-65.32,57.81-63.07,88.59,2.25,30.78,46.17,114.5,124.26,118.25,78.08,3.75,114.87,13.51,126.13,63.82,11.26,50.3,41.29,421.95,32.28,476.76-9.01,54.81-3,99.11-62.32,120.13-59.31,21.02-138.9,53.31-170.43,51.81-31.53-1.5-33.79-3.75-40.54-12.01-6.76-8.26.75-19.52,13.89-18.39Z"/><path class="cls-72" d="m487.72,893.17s12.6-7.09,15.75,3.15c3.15,10.24-5.51,20.53-15.75,19.32-10.24-1.21-25.98-9.08-18.11-31.92,7.87-22.83,49.6-18.9,62.2,2.36,12.6,21.26.79,57.48-60.63,66.93-61.42,9.45-114.44.79-132.41,0-17.97-.79-27.42-20.47-32.94-44.09-5.51-23.62-23.62-117.32-20.47-115.74,3.15,1.57,25.98,40.94,36.61,64.96,6.5,14.69,23.62,59.84,43.31,66.93,19.68,7.09,96.06,12.6,122.04,7.09,25.98-5.51,35.43-14.96,34.64-26.77-.79-11.81-24.41-22.83-34.25-12.2Z"/><path class="cls-76" d="m316.07,811.28s25.2-9.45,33.07-9.45,6.3,14.17,4.72,27.56c-1.57,13.39,5.51,48.82,26.77,59.05,21.26,10.24,44.88,14.96,59.05,14.96s23.62,3.15,22.83,8.66c-.79,5.51-33.07,13.39-45.67,13.39s-59.05-11.81-67.71-28.35c-8.66-16.53-40.94-79.52-33.07-85.82Z"/><path class="cls-75" d="m335.76,759.32c-13.34,1.91-34.64,13.39-27.56,29.13,7.09,15.75,33.86,1.57,37.79-6.3,3.94-7.87,6.3-25.2-10.24-22.83Z"/><path class="cls-55" d="m298.52,777.33s-2.92-45.57.23-51.08h-21.04s3.26,27.37,20.81,51.08Z"/><path class="cls-52" d="m285,666.64s21.96-2.95,21.79-7.89l8.05-69.62s-21.55,6.78-29.85,5.02c0,0-5.09,56.98,0,72.49Z"/><path class="cls-54" d="m285,594.15s-8.55-1.2-15.9-5.02c0,0-.72-62.18-1.05-71.54,0,0,9.16,3.21,23.62,4.72l-6.66,71.84Z"/><path class="cls-53" d="m291.66,522.32s22.83,1.57,33.86-3.15l13.39-81.1s-27.56,11.81-33.07,12.6c0,0-14.17,52.75-14.17,71.65Z"/><path class="cls-51" d="m268.04,517.59h-5.35s6.13-51.18,7.71-57.48c0,0,8.92-.25,12.33-2.49l-14.7,59.96Z"/><path class="cls-48" d="m282.74,457.63l23.1-6.96s11.02-35.43,18.11-44.88c7.09-9.45,11.81-33.86,11.81-33.86,0,0-11.81,5.51-31.49,4.72,0,0-23.36,66.68-21.52,80.98Z"/><path class="cls-49" d="m304.26,376.65s-6.04,2.36-9.32,0c0,0,5.51-19.15,4.66-27.68-.85-8.53,9.59-25.24,9.59-25.24,0,0,24.99,1.74,32.07-2.19,0,0-29.13,30.71-37.01,55.12Z"/><path class="cls-50" d="m335.76,371.93s22.83-40.16,39.37-56.69l25.98-1.57s-38.58,38.58-38.58,48.03c0,0-10.24,7.87-26.77,10.24Z"/><path class="cls-64" d="m375.13,315.24l-33.86,6.3s31.49-34.64,37.79-37.01c0,0,11.81,7.09,18.9,7.09,0,0-11.81,10.24-22.83,23.62Z"/><path class="cls-58" d="m309.2,323.73s30.5-35.26,55.69-44.71c0,0-26.77,10.24-37.79,14.17-11.02,3.94-27.56,24.41-29.92,32.28l12.02-1.74Z"/><path class="cls-65" d="m294.95,376.65h-16.82s-4.57,44.88-2.99,59.05c0,0,19.16-45.67,19.82-59.05Z"/><path class="cls-63" d="m397.96,291.62s25.4,2.36,30.81,0c0,0,30.42-33.05,31.3-34.24.88-1.19-31.06,0-31.06,0,0,0-13.73,23.22-31.06,34.24Z"/><path class="cls-61" d="m379.06,284.53l-14.17-5.51s27.56-16.53,29.13-20.47l10.24,1.57s-14.96,20.47-25.2,24.41Z"/><path class="cls-62" d="m450.71,241.22s32.28-29.13,35.43-34.64l-33.07,4.72s-21.26,23.62-29.13,28.35l26.77,1.57Z"/><path class="cls-57" d="m486.15,206.58s27.56-34.64,27.56-53.54c0,0,21.26-14.17,24.41-18.11,0,0-4.72,33.86-18.9,56.69,0,0-22.83,13.39-33.07,14.96Z"/><path class="cls-56" d="m513.7,153.04s-22.83,13.39-31.49,14.17c0,0,21.26-48.03,22.05-56.69,0,0,11.81-7.87,14.17-11.02,0,0,3.15,25.2-4.72,53.54Z"/><path class="cls-66" d="m504.25,110.52l-16.53,8.66s0-21.57-5.51-25.74c0,0,13.39-10.48,13.39-15.2,0,0,11.02,10.24,8.66,32.28Z"/><path class="cls-67" d="m495.59,78.24s-16.53-18.11-33.07-18.11c0,0-5.51-14.19-7.48-14.18,0,0,35.04-11.8,52.36,11.82,0,0-5.51,14.96-11.81,20.47Z"/><path class="cls-59" d="m507.4,57.77s12.6,27.56,11.02,41.73c0,0,11.02-7.87,13.39-14.96,0,0-4.72-21.69-19.68-33.28l-4.72,6.51Z"/><path class="cls-60" d="m449.14,47.53c-6.38,2.58-18.11,7.87-15.75,34.64s37.01,22.05,40.16,7.87c3.15-14.17-12.12-25.41-20.23-14.67-8.11,10.74,1.73,13.35,1.73,13.35,0,0-4.33,1.32-6.69-2.61-2.36-3.94.79-18.11,14.17-18.11l-13.39-20.47Z"/><g class="cls-77"><path class="cls-7" d="m187.77,299.19s3.12,28.86-1.57,39.59c0,0-12.26,12.33-25.14,12.6,0,0,21.5,2.51,23.25,5.24,0,0,8.73,20.51,9.25,30.56,0,0,.75-24.23,4.72-33.3,0,0,3.96-9.08,24.21-14.97,0,0-15.25,1.2-22.96-3.64,0,0-7.82-6.85-11.76-36.07Z"/></g><g class="cls-78"><path class="cls-7" d="m605.18,142.04s10.18-4.72,9.65-24.87c0,0,2.94,19.99,8.63,20.42,0,0,14.06,3.91,20.35,1.88,0,0-25.93,11.42-25.66,15.44.27,4.02-3.06,26.85-4.67,26.96-1.61.11-1.55-23.24-7.42-26.52,0,0-15.09-8.32-20.77-8.75l19.89-4.55Z"/></g><path class="cls-10" d="m490.37,349.62c-4.59,12.24-7.26,25.98-22.28,28.08-15.02,2.1-31.56-4.99-35.49-16.01-3.94-11.02-27.56-11.44-28.35,2.15-.79,13.59,22.05,34.07,54.33,34.07s55.12-23.62,55.12-39.37-19.1-20.21-23.33-8.92Z"/><path class="cls-4" d="m520,447.52c-3.35-11.51-11.81-17.32-17.32-16.53-5.51.79,0,17.32-5.51,19.68-5.51,2.36-13.35-.85-16.52-9.88-3.17-9.02-11.83-17.68-28.36-13.75-16.53,3.94-19.68,35.43-26.77,40.94-7.09,5.51-5.51-7.09-11.81-13.39-6.3-6.3-13.39-3.94-17.32,11.81-3.94,15.75,11.81,35.43,28.35,34.64,16.53-.79,16.93-17.72,13.78-30.31-3.15-12.6,15.75-24.41,25.2-21.26,9.45,3.15.79,30.71,22.83,34.64,22.05,3.94,42.52-5.51,33.46-36.61Z"/><path class="cls-5" d="m501.11,510.51c11.78-.84,28.03-4.72,29.37,7.09,1.34,11.81,11.02,32.47-14.69,38.28-25.71,5.81-113.75,21.75-117.37,0-3.61-21.75-4.41-30.69,11.34-33.3,15.75-2.61,80.32-11.28,91.34-12.06Z"/><path class="cls-68" d="m535.54,589.13c-9.34.92-17.9,11.92-17.9,26.88s8.66,29.13,23.62,25.98c14.96-3.15,11.38-54.56-5.73-52.87Z"/><path class="cls-70" d="m493.39,594.15c-6.53-.1-14.33,6.9-14.33,17.14s-2.36,23.62,11.02,23.62,15.28-40.57,3.31-40.76Z"/><path class="cls-71" d="m452.02,594.15c-6.04-1.37-7.97,4.83-9.76,21.61-1.79,16.78-1.79,23.08,7.66,23.87,9.45.79,16.79-42.15,2.1-45.48Z"/><path class="cls-69" d="m416.86,597.9c-9.43-.94-19.95,9.71-20.6,25.72-.66,16.01,7.38,18.47,16.75,18.81,9.37.34,19.6-42.96,3.86-44.54Z"/><path class="cls-74" d="m393.24,711.29c4.7-17.06,22.83-45.67,37.79-43.31s20.29,33.54,29.04,33.31,11.11-29.37,22.92-29.37,20.47,24.41,29.13,26.77c8.66,2.36,5.51-10.24,10.24-15.75,4.72-5.51,10.6.79,13.96,28.35s-.58,51.97-9.24,49.6c-8.66-2.36-23.51-47.61-40.3-46.44-16.79,1.17-15.12,29.66-24.22,29.59-9.1-.07-20.12-37.87-32.72-36.29-12.6,1.57-12.47,22.54-19.23,29.77-6.76,7.24-24.87.94-17.39-26.23Z"/><path class="cls-73" d="m483.78,783.72c-22.03,1.1-73.32,5.51-79.96,18.11-6.65,12.6-5.07,28.35-1.92,33.86,3.15,5.51,7.87,11.02,33.07,12.6,25.2,1.57,91.34-2.36,95.27-25.98,3.94-23.62-14.96-40.16-46.45-38.58Z"/><path class="cls-9" d="m235.76,871.91s-1.57,18.9-13.39,36.22c-11.81,17.32-2.46,37.27,16.53,29.13,22.05-9.45-4.72-37.01-3.15-65.35Z"/><path class="cls-8" d="m735.74,660.11s7.87,16.53,2.36,28.35c-5.51,11.81-11.02,35.43,7.87,39.37,18.9,3.94,25.2-15.75,12.6-31.49-12.6-15.75-22.83-36.22-22.83-36.22Z"/><path class="cls-6" d="m183.79,679s-15.75-3.15-14.17-25.98c1.57-22.83-7.4-49.6-17.48-59.05,0,0,6.14,17.58,0,38.71-6.14,21.13,13.54,50.26,31.65,46.33Z"/><path class="cls-3" d="m196.39,675.07s12.42-22.81,2.67-35.42-43.61-26.78-44.4-60.64c0,0,12,24.59,34.74,35.52,22.74,10.93,40.06,33.76,6.99,60.54Z"/><path class="cls-2" d="m184.71,670.39s-7.46-7.14-7.73-35.48c0,0,26.76,11.91,7.73,35.48Z"/><g class="cls-79"><path class="cls-1" d="m779,484.2s86.79-9.91,78.81-78.88c-7.97-68.97-84.46-31.75-80.16-7.89,4.3,23.86,17.5,37.31,37.93,33.36,20.44-3.94,27.15-39.47,12.66-38.7-14.49.77-25.74,14.44-17.96,20.59,7.79,6.15-22.78,5.5-12.82-13.25,9.96-18.75,39.7-32.18,46.53-1.72,6.82,30.46-40.89,81.09-65,86.49Z"/></g><path class="cls-20" d="m487.38,893.38s12.6-7.09,15.75,3.15c3.15,10.24-5.51,20.53-15.75,19.32-10.24-1.21-25.98-9.08-18.11-31.92,7.87-22.83,49.6-18.9,62.2,2.36,12.6,21.26.79,57.48-60.63,66.93-61.42,9.45-114.44.79-132.41,0-17.97-.79-27.42-20.47-32.94-44.09-5.51-23.62-23.62-117.32-20.47-115.74,3.15,1.57,25.98,40.94,36.61,64.96,6.5,14.69,23.62,59.84,43.31,66.93,19.68,7.09,96.06,12.6,122.04,7.09,25.98-5.51,35.43-14.96,34.64-26.77-.79-11.81-24.41-22.83-34.25-12.2Z"/><path class="cls-19" d="m315.74,811.5s25.2-9.45,33.07-9.45,6.3,14.17,4.72,27.56c-1.57,13.39,5.51,48.82,26.77,59.05,21.26,10.24,44.88,14.96,59.05,14.96s23.62,3.15,22.83,8.66c-.79,5.51-33.07,13.39-45.67,13.39s-59.05-11.81-67.71-28.35c-8.66-16.53-40.94-79.52-33.07-85.82Z"/><path class="cls-18" d="m335.42,759.53c-13.34,1.91-34.64,13.39-27.56,29.13,7.09,15.75,33.86,1.57,37.79-6.3,3.94-7.87,6.3-25.2-10.24-22.83Z"/><path class="cls-15" d="m298.19,777.55s-2.92-45.57.23-51.08h-21.04s3.26,27.37,20.81,51.08Z"/><path class="cls-12" d="m284.67,666.86s21.96-2.95,21.79-7.89l8.05-69.62s-21.55,6.78-29.85,5.02c0,0-5.09,56.98,0,72.49Z"/><path class="cls-17" d="m284.67,594.37s-8.55-1.2-15.9-5.02c0,0-.72-62.18-1.05-71.54,0,0,9.16,3.21,23.62,4.72l-6.66,71.84Z"/><path class="cls-16" d="m291.33,522.53s22.83,1.57,33.86-3.15l13.39-81.1s-27.56,11.81-33.07,12.6c0,0-14.17,52.75-14.17,71.65Z"/><path class="cls-13" d="m267.71,517.81h-5.35s6.13-51.18,7.71-57.48c0,0,8.92-.25,12.33-2.49l-14.7,59.96Z"/><path class="cls-22" d="m282.4,457.84l23.1-6.96s11.02-35.43,18.11-44.88c7.09-9.45,11.81-33.86,11.81-33.86,0,0-11.81,5.51-31.49,4.72,0,0-23.36,66.68-21.52,80.98Z"/><path class="cls-21" d="m303.93,376.87s-6.04,2.36-9.32,0c0,0,5.51-19.15,4.66-27.68-.85-8.53,9.59-25.24,9.59-25.24,0,0,24.99,1.74,32.07-2.19,0,0-29.13,30.71-37.01,55.12Z"/><path class="cls-14" d="m335.42,372.14s22.83-40.16,39.37-56.69l25.98-1.57s-38.58,38.58-38.58,48.03c0,0-10.24,7.87-26.77,10.24Z"/><path class="cls-45" d="m374.79,315.45l-33.86,6.3s31.49-34.64,37.79-37.01c0,0,11.81,7.09,18.9,7.09,0,0-11.81,10.24-22.83,23.62Z"/><path class="cls-42" d="m308.86,323.95s30.5-35.26,55.69-44.71c0,0-26.77,10.24-37.79,14.17-11.02,3.94-27.56,24.41-29.92,32.28l12.02-1.74Z"/><path class="cls-40" d="m294.61,376.87h-16.82s-4.57,44.88-2.99,59.05c0,0,19.16-45.67,19.82-59.05Z"/><path class="cls-39" d="m397.62,291.83s25.4,2.36,30.81,0c0,0,30.42-33.05,31.3-34.24.88-1.19-31.06,0-31.06,0,0,0-13.73,23.22-31.06,34.24Z"/><path class="cls-46" d="m378.73,284.75l-14.17-5.51s27.56-16.53,29.13-20.47l10.24,1.57s-14.96,20.47-25.2,24.41Z"/><path class="cls-41" d="m450.38,241.44s32.28-29.13,35.43-34.64l-33.07,4.72s-21.26,23.62-29.13,28.35l26.77,1.57Z"/><path class="cls-43" d="m485.81,206.8s27.56-34.64,27.56-53.54c0,0,21.26-14.17,24.41-18.11,0,0-4.72,33.86-18.9,56.69,0,0-22.83,13.39-33.07,14.96Z"/><path class="cls-24" d="m513.37,153.25s-22.83,13.39-31.49,14.17c0,0,21.26-48.03,22.05-56.69,0,0,11.81-7.87,14.17-11.02,0,0,3.15,25.2-4.72,53.54Z"/><path class="cls-25" d="m503.92,110.74l-16.53,8.66s0-21.57-5.51-25.74c0,0,13.39-10.48,13.39-15.2,0,0,11.02,10.24,8.66,32.28Z"/><path class="cls-44" d="m495.26,78.45s-16.53-18.11-33.07-18.11c0,0-5.51-14.19-7.48-14.18,0,0,35.04-11.8,52.36,11.82,0,0-5.51,14.96-11.81,20.47Z"/><path class="cls-38" d="m507.07,57.98s12.6,27.56,11.02,41.73c0,0,11.02-7.87,13.39-14.96,0,0-4.72-21.69-19.68-33.28l-4.72,6.51Z"/><path class="cls-36" d="m448.8,47.75c-6.38,2.58-18.11,7.87-15.75,34.64,2.36,26.77,37.01,22.05,40.16,7.87,3.15-14.17-12.12-25.41-20.23-14.67-8.11,10.74,1.73,13.35,1.73,13.35,0,0-4.33,1.32-6.69-2.61-2.36-3.94.79-18.11,14.17-18.11l-13.39-20.47Z"/><path class="cls-35" d="m490.04,349.84c-4.59,12.24-7.26,25.98-22.28,28.08-15.02,2.1-31.56-4.99-35.49-16.01-3.94-11.02-27.56-11.44-28.35,2.15-.79,13.59,22.05,34.07,54.33,34.07s55.12-23.62,55.12-39.37-19.1-20.21-23.33-8.92Z"/><path class="cls-37" d="m519.67,447.73c-3.35-11.51-11.81-17.32-17.32-16.53-5.51.79,0,17.32-5.51,19.68s-13.35-.85-16.52-9.88c-3.17-9.02-11.83-17.68-28.36-13.75-16.53,3.94-19.68,35.43-26.77,40.94-7.09,5.51-5.51-7.09-11.81-13.39-6.3-6.3-13.39-3.94-17.32,11.81-3.94,15.75,11.81,35.43,28.35,34.64,16.53-.79,16.93-17.72,13.78-30.31-3.15-12.6,15.75-24.41,25.2-21.26,9.45,3.15.79,30.71,22.83,34.64,22.05,3.94,42.52-5.51,33.46-36.61Z"/><path class="cls-33" d="m500.77,510.72c11.78-.84,28.03-4.72,29.37,7.09,1.34,11.81,11.02,32.47-14.69,38.28-25.71,5.81-113.75,21.75-117.37,0-3.61-21.75-4.41-30.69,11.34-33.3,15.75-2.61,80.32-11.28,91.34-12.06Z"/><path class="cls-31" d="m535.2,589.35c-9.34.92-17.9,11.92-17.9,26.88s8.66,29.13,23.62,25.98c14.96-3.15,11.38-54.56-5.73-52.87Z"/><path class="cls-26" d="m493.05,594.37c-6.53-.1-14.33,6.9-14.33,17.14s-2.36,23.62,11.02,23.62,15.28-40.57,3.31-40.76Z"/><path class="cls-34" d="m451.69,594.37c-6.04-1.37-7.97,4.83-9.76,21.61-1.79,16.78-1.79,23.08,7.66,23.87s16.79-42.15,2.1-45.48Z"/><path class="cls-32" d="m416.52,598.12c-9.43-.94-19.95,9.71-20.6,25.72-.66,16.01,7.38,18.47,16.75,18.81,9.37.34,19.6-42.96,3.86-44.54Z"/><path class="cls-30" d="m392.9,711.5c4.7-17.06,22.83-45.67,37.79-43.31,14.96,2.36,20.29,33.54,29.04,33.31,8.75-.24,11.11-29.37,22.92-29.37s20.47,24.41,29.13,26.77c8.66,2.36,5.51-10.24,10.24-15.75,4.72-5.51,10.6.79,13.96,28.35,3.36,27.56-.58,51.97-9.24,49.6-8.66-2.36-23.51-47.61-40.3-46.44-16.79,1.17-15.12,29.66-24.22,29.59s-20.12-37.87-32.72-36.29c-12.6,1.57-12.47,22.54-19.23,29.77-6.76,7.24-24.87.94-17.39-26.23Z"/><path class="cls-27" d="m483.45,783.94c-22.03,1.1-73.32,5.51-79.96,18.11-6.65,12.6-5.07,28.35-1.92,33.86,3.15,5.51,7.87,11.02,33.07,12.6,25.2,1.57,91.34-2.36,95.27-25.98,3.94-23.62-14.96-40.16-46.45-38.58Z"/><path class="cls-29" d="m235.43,872.13s-1.57,18.9-13.39,36.22c-11.81,17.32-2.46,37.27,16.53,29.13,22.05-9.45-4.72-37.01-3.15-65.35Z"/><path class="cls-28" d="m735.41,660.32s7.87,16.53,2.36,28.35c-5.51,11.81-11.02,35.43,7.87,39.37,18.9,3.94,25.2-15.75,12.6-31.49-12.6-15.75-22.83-36.22-22.83-36.22Z"/><g class="cls-11"><path class="cls-23" d="m778.66,484.41s86.79-9.91,78.81-78.88c-7.97-68.97-84.46-31.75-80.16-7.89,4.3,23.86,17.5,37.31,37.93,33.36,20.44-3.94,27.15-39.47,12.66-38.7-14.49.77-25.74,14.44-17.96,20.59,7.79,6.15-22.78,5.5-12.82-13.25,9.96-18.75,39.7-32.18,46.53-1.72,6.82,30.46-40.89,81.09-65,86.49Z"/></g></svg>