<?xml version="1.0" encoding="UTF-8"?><svg id="Color1" xmlns="http://www.w3.org/2000/svg" xmlns:xlink="http://www.w3.org/1999/xlink" viewBox="0 0 1080 1137"><defs><style>.cls-1{fill:#011720;}.cls-2{fill:#03b083;}.cls-3{fill:#064862;}.cls-4{fill:#0c6b86;}.cls-5{fill:#48bcc4;}.cls-6{fill:url(#Degradado_sin_nombre_34);}.cls-7{fill:none;stroke:#064862;stroke-miterlimit:10;}</style><radialGradient id="Degradado_sin_nombre_34" cx="792.61" cy="481.17" fx="792.61" fy="481.17" r="192.83" gradientTransform="translate(-21.18 29.24) rotate(-1.23)" gradientUnits="userSpaceOnUse"><stop offset="0" stop-color="#48bdc5"/><stop offset=".52" stop-color="#168ea3"/><stop offset=".78" stop-color="#0c6b87"/><stop offset=".99" stop-color="#0c6b87"/></radialGradient></defs><path class="cls-1" d="m469.87,559.29c-6.88,17.14,17.52,40.52,33.15,27.02,7.18-6.21,11.86-30.15,16.28-48.19-8.79-1.24-42.56,4.03-49.44,21.17Zm10.62,13.13c-11.35-17.82,27.25-26.77,27.25-26.77,0,0-15.91,44.59-27.25,26.77Z"/><path class="cls-1" d="m519.68,538.19c-2.58,18.39-7.11,42.36-2.73,50.79,9.51,18.34,40.84,5.66,40.81-12.8-.04-18.47-29.45-35.88-38.07-37.99Zm23.34,46.24c-17.15,12.35-15.39-34.97-15.39-34.97,0,0,32.54,22.62,15.39,34.97Z"/><path class="cls-1" d="m569.49,508.32s-7.44-4.17-12.42-10.33c0,0-14.84,12.49-20.18,15.03,0,0,14.86,1.86,21.64,2.3,0,0,5.91-1.9,10.95-7Z"/><path class="cls-1" d="m470.93,482.08s38.76-15.02,48.09-28.67c0,0-14.17-15.02-17.79-23.29,0,0-45.56,15.43-64.96,17.87,0,0,12.7,18.24,34.66,34.09Z"/><path class="cls-1" d="m410.29,395.68s53.38,16.93,72.38,7.69c0,0-28.92-35.17-32.12-89.84,0,0-18.5,4.51-54.82-13.99,0,0-4.16,60.37,14.56,96.14Z"/><path class="cls-1" d="m449.09,232.02s-34.21-17.15-45.92-34.16c0,0,21.53-75.41,41.83-96.9,0,0,3.44,20.63,39,35.68,0,0-26.7,28.69-34.91,95.38Z"/><path class="cls-1" d="m490.27,77.63s29.24,10.97,42.65,22.53c0,0,17.77-8.25,31.6-11.28,0,0-35.21-18.35-74.25-11.25Z"/><path class="cls-1" d="m490.27,77.63s-28.55,3.71-45.27,23.33c0,0-2.92-14.95-3.79-17.29,0,0,31.48-10.14,49.06-6.03Z"/><path class="cls-1" d="m375.4,130.72s-2.16-11.49-1.09-21.51c0,0,24.16-15.45,35.65-17.61,0,0-17.89,9.36-34.56,39.12Z"/><path class="cls-1" d="m375.4,130.72s.03,31.53,27.77,67.14c0,0-16.25,68.09-7.43,101.68,0,0-43.52-24.9-61.96-52.75,0,0,7.05-76.95,41.61-116.07Z"/><path class="cls-1" d="m333.78,246.79s-18.96-33.55-22.63-51.95c0,0-29.09,86.33.07,165.21,0,0,11.48,22.73,42.99,22.92,0,0-25.99-30.91-20.44-136.18Z"/><path class="cls-1" d="m354.22,382.96s20.21,11.16,56.08,12.72c0,0,4.2,24.09,25.97,52.31,0,0-21.34,10.12-53.16,2.23,0,0-24.17-37.48-28.89-67.26Z"/><path class="cls-1" d="m383.1,450.22s-7,.38-24.62-7.68c0,0,33.67,39.05,52.13,45.52,0,0-20.78-26.98-27.51-37.83Z"/><path class="cls-1" d="m410.61,488.05s39.61,8.71,60.32-5.98c0,0,24.58,33.57,65.97,30.94,0,0-16.19,9.26-30.26,14.52,0,0-59.66-10.84-96.02-39.48Z"/><path class="cls-1" d="m519.02,453.41s33.73-31.32,39.49-43.1c0,0,25.83,21.89,45.99,22.91,0,0-22.95,35.8-64.08,46.65,0,0-17.77-18.19-21.4-26.46Z"/><path class="cls-1" d="m604.5,433.21s17.2-24.07,22.08-38.19c0,0,38.22,1.18,74.07-13.27,0,0-11.43,32.32-33.56,58.12,0,0-31.61,9.03-62.6-6.65Z"/><path class="cls-1" d="m626.57,395.02s-32.01,4.48-54.21-9.14c0,0,18.93-28.39,20.54-65.38,0,0,34.73,11.57,57.43-.65,0,0-1.68,36.98-23.76,75.17Z"/><path class="cls-1" d="m644.85,233.68s7.8,53.75,5.48,86.16c0,0,43.68-7.82,58.69-16.88,0,0-4.04-62.89-27.98-102.59,0,0-7.58,18.34-36.2,33.31Z"/><path class="cls-1" d="m644.85,233.68s-28.85,17.2-53.47,15.71c0,0-12.25-54.23-20.01-60.68,0,0,38.79-20.65,49.95-40.86,0,0,18.72,35.77,23.53,85.83Z"/><path class="cls-1" d="m621.31,147.85s-14.24-20.66-25.21-30.83c0,0,3.03-4.18,3.51-8.64,0,0,23.34,13.74,29.24,21.69,0,0-2.01,8.23-7.53,17.78Z"/><path class="cls-1" d="m596.1,117.02s-12.53,25.69-40.91,38.44c0,0-21.16-41.66-33.21-46.32,0,0,21.55-13.48,36.5-16.39,0,0,25.23,10.56,37.62,24.27Z"/><polygon class="cls-5" points="729.13 145.89 732.29 117.48 740.49 142.73 765.11 138.31 742.74 151.89 736.71 183.13 731.66 154.73 705.11 150.31 729.13 145.89"/><polygon class="cls-5" points="787.45 214.05 791.99 197.09 794.64 213.19 810 212.77 795.16 218.96 788.61 237.37 788.17 219.66 772.46 214.52 787.45 214.05"/><polygon class="cls-5" points="237.75 368.88 236.95 351.34 244.34 365.88 258.86 360.85 246.58 371.22 245.89 390.76 240.12 374 223.59 373.85 237.75 368.88"/><path class="cls-6" d="m624.29,710.01s161.7,49.95,281.47-161.8c119.76-211.76-87.41-285-168.42-272.5-81.01,12.5-81.51,60.85-69.22,96.18,12.28,35.33,71.93,59.13,127.79,14.92,62.88-49.76,162.31,238.56-171.61,323.2Z"/><path class="cls-5" d="m623.86,689.97s182.03-79.53,207.09-138.99c23.33-55.34-2.92-135.74-87.7-131.31-84.78,4.43-109.53,98.33-84.2,122.6,25.33,24.27,71.07,25.89,90.03-3.24,18.96-29.14-8.06-43.45-26.02-42.15,0,0,53.44-18.51,54.28,20.65s-39.35,98.86-153.49,172.44Z"/><path class="cls-2" d="m622.03,602.71c-33.26-29.22-11.47-70.28,5.4-119.65,16.87-49.37,29.15-80.71-12.73-82.2-41.87-1.49-71.08,39.82-63.98,156.79,7.1,116.97,57.81,112.29,78.51,102.29,20.7-10.01,10.05-42.05-7.21-57.22Z"/><path class="cls-3" d="m569.11,715.02c-11.44,16.05,8.01,46.43,27.61,36.34,9.01-4.64,19.87-28.3,28.98-45.9-8.81-3.5-45.16-6.5-56.6,9.55Zm7.72,16.28c-7.3-21.34,34.99-20.93,34.99-20.93,0,0-27.69,42.27-34.99,20.93Z"/><path class="cls-3" d="m626.07,705.63c-7.29,18.43-18,42.16-15.58,52,5.26,21.41,40.95,16.12,45.54-3.04,4.6-19.17-21.54-44.61-29.96-48.96Zm12.61,53.82c-20.88,8.5-7.19-40.13-7.19-40.13,0,0,28.07,31.63,7.19,40.13Z"/><path class="cls-4" d="m410.24,800.82s83.42-80.06,66.63-194.28c-16.8-114.22-99.66-190.36-204.36-175.25-95.31,13.76-183.08,119.26-128.21,252.51,54.87,133.25,246.91,128.21,281.62,56.55,34.71-71.67,24.64-227.31-98.54-237.39-123.18-10.08-153.41,101.9-113.1,187,40.31,85.1,183.64,82.86,187-2.24,3.36-85.1-40.15-142.44-101.26-125.53-61.11,16.91-62.23,132.25-8.48,145.68,53.75,13.44,81.74-58.23,45.91-80.62-35.83-22.4-49.43,29.75-35.91,30.55,0,0-17.84,6.4-16.72-24.96,1.12-31.35,57.11-32.47,68.31-2.24,11.2,30.23,14.72,99.13-53.11,92.12-67.83-7.01-68.95-94.36-48.79-133.55,20.16-39.19,75.03-53.75,118.7-22.4,43.67,31.35,61.59,162.37,4.48,181.4-57.11,19.04-94.62,28.55-164.05-44.23-69.43-72.79-8.4-195.4,57.67-207.72,66.07-12.32,138.85,1.12,160.13,64.95,21.28,63.83,54.87,120.94-17.92,239.63Z"/><path class="cls-4" d="m391.02,862.25c7.06,17.06,40.86,16.73,42.59-3.86.8-9.46-12.6-29.85-22.04-45.84-7.15,5.26-27.61,32.64-20.55,49.7Zm16.77,1.96c-20.57-4.81.77-38.2.77-38.2,0,0,19.8,43.01-.77,38.2Z"/><path class="cls-4" d="m465.67,812.89c-12.94-13.18-46.14-5.07-53.78-.55,11.01,14.95,24.53,35.26,33.55,38.23,19.62,6.46,33.16-24.5,20.23-37.68Zm-4.76,16.2c-3.63,20.82-35.45-14.24-35.45-14.24,0,0,39.08-6.57,35.45,14.24Z"/><path class="cls-7" d="m519.68,538.19s-29.16,113.68-8.18,225.31c14.64,77.86,43.94,279.21-8,323"/><path class="cls-7" d="m411.89,812.35c-12.72-14.82,121.61,133.15,136.61,268.15"/><path class="cls-7" d="m626.5,705.5s-77,138-111.38,367.01"/><path class="cls-3" d="m532.31,983.96s9.49,4.8-1.09,10.98c-10.57,6.18-12.54-13.21-8.31-17.25s10.05-8.23,20.18-2.04c10.13,6.19,9.91,29.41-2.03,33.71-11.93,4.3-32.56-.83-35.12-10.87-2.56-10.05,1.6-25.98,12.04-26.76,10.43-.78-4.39,4.2-4.62,10.22-.23,6.02,1.67,14.59,10.65,16.77,8.98,2.18,16.02.44,15.45-5.17s-2.82-12.6-7.16-9.58Z"/></svg>