<svg width="61" height="30" viewBox="0 0 61 30" fill="none" xmlns="http://www.w3.org/2000/svg">
<g id="Capa_1" clip-path="url(#clip0_1847_2687)">
<path id="Vector" d="M38.6829 11.7686C38.6829 11.7686 41.3787 8.18849 44.1478 11.7686C46.9203 15.3487 42.7545 20.6341 38.6829 18.4415C34.6079 16.2454 29.384 12.7536 34.9641 3.97994C40.5441 -4.79374 49.8151 3.51389 51.4668 7.68713C53.1185 11.8604 50.9954 17.3223 52.3223 20.6341C53.6492 23.9458 56.75 27.1693 60.9997 27.2611C60.9997 27.2611 56.9002 30.933 52.4864 27.2611C48.0692 23.5892 49.0015 18.2615 48.2019 13.7846C47.4057 9.3077 42.7126 5.18743 38.6829 11.7686Z" fill="#48BDC5"/>
<path id="Vector_2" d="M31.9054 6.97656C31.9054 6.97656 26.5034 13.6036 31.5527 18.7972C36.602 23.9908 39.7971 21.4558 43.4251 24.3333C47.0532 27.2143 51.6556 31.2428 55.7306 29.6293C55.7306 29.6293 50.2413 29.0008 47.9367 24.0791C45.6355 19.1538 40.3209 20.7673 37.9289 19.6905C35.5369 18.6171 30.2223 15.9303 31.9054 6.97656Z" fill="#48BDC5"/>
<path id="Vector_3" d="M20.6159 12.4856C22.7565 13.4353 24.5129 15.9774 25.7525 13.4706C26.9922 10.9639 27.0899 5.50195 12.7836 6.97777C12.7836 6.97777 18.0494 2.81512 24.0694 3.53184C28.2423 4.02967 27.8791 5.59022 30.2676 4.69696C32.6595 3.80017 34.608 0.982708 25.131 0.110636C15.654 -0.768498 1.30923 3.70838 0.0696041 16.334C0.0696041 16.334 -0.572905 18.9749 2.07395 16.334C4.72081 13.6931 12.4239 8.85607 20.6159 12.4821V12.4856Z" fill="#48BDC5"/>
</g>
<defs>
<clipPath id="clip0_1847_2687">
<rect width="61" height="30" fill="white"/>
</clipPath>
</defs>
</svg>
