<svg width="61" height="33" viewBox="0 0 61 33" fill="none" xmlns="http://www.w3.org/2000/svg">
<g id="Capa_1" clip-path="url(#clip0_1806_4485)">
<path id="Vector" d="M35.1995 0.116627C29.231 0.937794 27.6478 6.45767 25.4569 11.3915C23.266 16.3253 19.2445 20.4345 13.3997 22.0769C7.55479 23.7226 7.18728 20.5504 7.55479 18.4378C7.91877 16.3253 12.184 14.0935 13.8484 15.3406C15.5129 16.5877 12.184 17.8484 12.184 17.8484C15.474 21.1365 23.1458 15.3815 15.2125 12.0627C7.27916 8.74399 -2.55886 16.5604 0.607396 24.0736C3.77366 31.5901 10.5938 29.2425 16.0747 24.5438C21.5556 19.8451 26.1848 21.6067 28.4995 24.6596C30.8141 27.7126 32.8849 30.8848 47.0129 32.7623C61.1409 34.6397 63.0916 24.7755 59.314 19.0205C55.5399 13.2655 47.5006 15.2622 44.6983 17.4429C41.896 19.6236 36.295 23.7192 32.4962 19.5657C28.6974 15.4121 32.1534 9.97744 37.6343 8.68606C43.1152 7.39469 41.8925 11.262 41.8925 11.262C41.0338 9.4936 36.295 10.6828 36.295 13.8516C36.295 17.0204 43.9668 19.8417 47.3274 11.3199C48.2073 9.09154 48.1967 7.20728 47.6066 5.65013C47.0871 4.938 46.5924 4.17135 46.1224 3.34678C43.5074 0.6618 38.7333 -0.370621 35.1995 0.116627Z" fill="#064862"/>
</g>
<defs>
<clipPath id="clip0_1806_4485">
<rect width="61" height="33" fill="white"/>
</clipPath>
</defs>
</svg>
