<?xml version="1.0" encoding="UTF-8"?><svg id="Capa_2" xmlns="http://www.w3.org/2000/svg" viewBox="0 0 1080 1434.5"><defs><style>.cls-1,.cls-2,.cls-3{fill:none;}.cls-1,.cls-4,.cls-5,.cls-6,.cls-7,.cls-8,.cls-9,.cls-10,.cls-11,.cls-12{stroke-width:0px;}.cls-2{stroke:#48bcc4;}.cls-2,.cls-3{stroke-miterlimit:10;}.cls-3{stroke:#48bbc3;}.cls-4{fill:#f9dc5c;}.cls-5{fill:#48bcc4;}.cls-6{fill:#48bbc3;}.cls-7{fill:#95c1cc;}.cls-8{fill:#0c6b86;}.cls-9{fill:#064862;}.cls-10{fill:#168da2;}.cls-11{fill:#c8b8db;}.cls-12{fill:#fff;}</style></defs><rect class="cls-1" x="263.88" y="378.72" width="594.81" height="954.46"/><path class="cls-7" d="m263.91,853.5s-64.23-424.08,0-474.99c77.45-61.39,238.17-80.75,238.17-45.89s-164.59,54.22-187.83,143.29-40.66,309.82-50.35,377.59Z"/><path class="cls-5" d="m854.56,972.31s1.97,243.81-31.46,296.9c-33.43,53.09-269.38,70.78-275.27,37.36s17.7-60.95,31.46-58.99c13.76,1.97-28.51,12.78-10.81,48.17,17.7,35.39,102.24,13.76,94.38-43.26s-78.65-55.05-131.74-25.56c-53.09,29.49-27.53,132.44,0,156.67,27.53,24.23,342.13-48.52,342.13-66.22s9.83-257.58-18.68-345.08Z"/><path class="cls-10" d="m711.09,1155.55s35.38-13.34,45.82-37.7c10.44-24.36,23.78-55.68,40.02-48.72,16.24,6.96-29.58,74.24-85.84,86.42Z"/><path class="cls-7" d="m719.79,1137.76s18.56-9.13,23.2-29.6c4.64-20.47,13.92-28.76,19.14-25.78,5.22,2.99-4.06,38.17-42.34,55.38Z"/><path class="cls-7" d="m815,1100.88s-21.08.12-27.76,17.66c-6.68,17.53-11.98,35.89-34.43,42.19-22.44,6.3-38.95,15.19-33.38,27.85,5.57,12.66,30.08-8.37,37.55-20.69,7.47-12.32,16.96-14.02,26.81-16.79,27.43-7.7,44.03-49.1,31.21-50.2Z"/><path class="cls-10" d="m821.15,1134.86c-4.68.52-5.82,5.01-3.98,8.78,1.84,3.77,8.23,1.35,9.59-3.64s-5.61-5.14-5.61-5.14Z"/><path class="cls-10" d="m800.89,1168.2c-4.68.52-5.82,5.01-3.98,8.78,1.84,3.77,8.23,1.35,9.59-3.64s-5.61-5.14-5.61-5.14Z"/><path class="cls-7" d="m737.46,1285.41s-2.47-27.91,16.93-35.68c19.4-7.77,36.5-1.26,49.01-18.61,12.51-17.35,10.65-39.39-.49-44.11-11.14-4.71-36.76,10.21-33.74,27.8,3.02,17.59,27.81-1.66,18.47-7.01-9.34-5.35-10.3,3.91-10.3,3.91,0,0-6.1-7.51,2.9-12.7s19.37-6.78,21.96,3.26c2.59,10.03-11.98,35.88-33.15,35.79s-43.96,15.87-31.6,47.35Z"/><path class="cls-10" d="m744.87,1200.4s-1.03,21.93-22.49,26.42c-21.45,4.49-37.54,8.15-45.25,25.3-7.71,17.15-4.98,33.99,9.33,31,14.31-2.99,29.15-22.36,5.09-27.82,0,0,11.73,4.3,3.17,12.49-8.56,8.19-15.96,4.16-16.77-5.75-.81-9.92,16.26-18.07,24.92-14.17s22.3,24.45.98,40.44c-21.32,15.99-33.23,8.84-38.68-9.07-5.45-17.91,6.85-71.38,79.7-78.83Z"/><path class="cls-5" d="m451.44,968.34s26.53,19.05,47.24,7.66c20.71-11.39,65.57-44.86,90.76-32.79,25.19,12.08,21.4,32.1,40.03,43.48,18.64,11.39,43.83,13.11,49.35,0,5.52-13.11,8.28-24.85-7.25-32.44-15.53-7.59-31.75,3.11-30.71,11.39,1.04,8.28,14.84,11.04,12.42,6.21s-10.7-5.87-.35-11.04c10.35-5.18,26.92,6.21,13.11,19.33-13.8,13.11-30.37,2.42-36.58-4.49s-12.42-27.26,16.57-31.06c28.99-3.8,44.14,8.63,49.85,29.68,5.71,21.05.19,38.31-31.56,32.44-31.75-5.87-47.63-22.14-57.29-32.46-9.66-10.33-21.4-23.1-48.66-15.51-27.26,7.59-74.46,48.19-106.94,9.6Z"/><path class="cls-5" d="m578.97,1105.35s13.87-6.2,17.72,4.43c3.85,10.62,24.15,35.59,43.05,25.03,18.9-10.56,4.9-24.51-7-22.96-11.9,1.55-21.7,5.85-26.6-2.07-4.9-7.93-18.64-15.27-27.17-4.43Z"/><path class="cls-10" d="m569.39,1058.8s9.8-7,15.4,0c5.6,7-9.45,19.95-27.65,18.55-18.2-1.4-22.05-17.5-10.15-27.3,11.9-9.8,46.9-23.1,73.49-22.75,26.6.35,80.08-2.1,90.61-19.6,10.53-17.5,15.78-45.5-4.52-62.29-20.3-16.8-27.73-23.47-41.04-23.86-13.31-.4-20.46,6.36-11.12,7.94,0,0-3.57-5.96,5.96-5.96s8.14,12.71-7.55,13.11c-15.69.4-20.26-10.92-13.5-16.68,6.75-5.76,25.54-9.87,54.87,6.64,29.34,16.52,63.8,42.88,56.11,69.57-7.69,26.69-61.23,35.28-84.59,37.39-23.35,2.12-104.35,11.19-96.32,25.23Z"/><path class="cls-9" d="m639.58,887.82l-7.79,6.47s23.56,2.54,34.42,8.55c0,0,10.11-.77,14.06-4.4,0,0-11.23-4.43-19.29-4.9s-21.4-5.71-21.4-5.71Z"/><path class="cls-9" d="m655.12,879.62s11.54-.63,16.29,1.9,22.93,7.43,22.93,7.43c0,0,7.91-6.64,11.39-6.33,3.48.32,10.28,1.42,12.34.16,0,0-38.59-11.39-45.86-11.7,0,0-12.81,3.48-17.08,8.54Z"/><path class="cls-9" d="m680.27,898.44s10.6-4.27,14.07-9.49c0,0,31.47,10.91,38.9,15.5,0,0-7.43.32-11.86-.79-4.43-1.11-11.07,4.43-11.07,4.43,0,0-18.03-8.54-30.05-9.65Z"/><path class="cls-9" d="m710.32,908.08l-16.13,9.65s25.3,14.23,35.11,25.3c0,0,9.17-10.91,18.34-11.86,0,0-17.87-18.5-37.32-23.09Z"/><path class="cls-9" d="m733.25,904.44s16.29-.32,21.19-6.64c0,0,22.14,10.6,37.8,29.1,0,0-3.64,5.38-14.39,6.48,0,0-30.05-24.67-44.6-28.94Z"/><path class="cls-9" d="m747.64,931.17s8.38-3.8,14.23-.79c5.85,3,10.44,5.54,15.97,3,0,0,14.23,7.75,22.93,31.31,0,0-15.34-4.27-24.35-2.06,0,0-17.4-24.35-28.78-31.47Z"/><path class="cls-9" d="m776.42,962.64s-12.98,2.38-20.97,11.21c0,0,9.14,11.55,7.29,29.39,0,0,17.85-8.66,27.2-5.61,0,0,3.2-17.84-13.52-34.99Z"/><path class="cls-9" d="m800.78,964.7s8.7,23.09,8.19,39.22c0,0,14.78-1.19,22.93-6.11,0,0-8.83-29.39-14.61-35.16,0,0-6.01,5.47-16.51,2.06Z"/><path class="cls-9" d="m808.96,1003.92s-6.22,1.67-9.78-1.14c-3.56-2.81-6.34-4.57-9.24-5.15,0,0,2.96,19.35-29.33,34.2,0,0,4.32,7.42,10.71,8.63,6.39,1.21,18.87,1.04,18.87,1.04,0,0,25.18-14.56,18.78-37.58Z"/><path class="cls-9" d="m790.18,1041.5h29.49s-10.64,19.87-44.09,27.42c0,0-3.25-6.96-14.97-6.38-11.72.58-24.48-1.55-27.58-5.8,0,0,38.69-1.65,57.15-15.23Z"/><path class="cls-9" d="m760.61,1031.83s-.72-4.3-9.22-2.37c-8.5,1.93-13.53,2.48-14.69-.5,0,0-31.91,6.5-41.19,6.3,0,0,6.41,2.9,15.58,2.71,9.17-.19,10.52,4.64,10.52,4.64,0,0,24.24-2.08,38.99-10.78Z"/><path class="cls-9" d="m721.62,1042.61s5.61,12.18,11.41,14.12c0,0-37.71,6.77-42.74,6.77,0,0-7.16-10.25-15.09-13.54,0,0,24.56-6.38,46.42-7.35Z"/><path class="cls-9" d="m690.29,1063.5s8.4,9.52,19.52,9.14,33.06-.56,39.85,4.82c0,0-30.75,10.61-34.42,13.31,0,0-48.74,1.74-60.34-14.5,0,0,6-10.64,35.39-12.76Z"/><path class="cls-9" d="m675.2,1049.96s-32.1,6.96-35.97,11.41c0,0-18.76-6.58-43.32,0,0,0,12.18-11.41,50.86-16.44,0,0,3.48,2.32,10.25,1.35,6.77-.97,13.54-.39,18.18,3.67Z"/><path class="cls-9" d="m639.23,1061.37s5.43,2.1,8.55,8.33c3.12,6.24,7.12,6.56,7.12,6.56,0,0-6.57,9.41,3.89,20.42,0,0-10.68-1.3-19.56,3.2,0,0-17.69-8.7-17.87-19.26-.18-10.55,12.99-18.23,17.87-19.26Z"/><path class="cls-9" d="m639.23,1099.89l-7.78,3.58s26.61,8.07,31.19,13.76c4.59,5.69,4.95,12.29,2.94,14.86,0,0,10.83,1.28,11.74-1.83,0,0,2.02-11.76-5.32-14.14-7.34-2.38-25.88-12.04-32.77-16.23Z"/><path class="cls-9" d="m658.79,1096.68s1.28,6.61,11.56,10.83c10.28,4.22,18.72,15.23,18.9,26.24,0,0,7.17,6.97,14.87,1.1,0,0,1.33-1.47-8.61-11.01-9.93-9.54-2.23-18.9-2.23-18.9,0,0-6.42,1.65-12.84,1.65s-9.17-1.65-11.01-4.95c-1.83-3.3-4.77-6.79-10.64-4.95Z"/><path class="cls-9" d="m689.25,1133.74s-2.39-6.61-11.93-3.49c0,0,3.12,13.71-38.16,25.29,0,0,10.09,10.67,26.42,8.28,0,0,27.34-11.19,23.67-30.09Z"/><path class="cls-9" d="m665.58,1163.84s9.97-2.75,15.9-1.28c5.93,1.47,10.88,3.08,14.55,1.63,0,0-22.75,20.94-35.23,24.24l-30.27-13.15s22.29-3.84,35.05-11.44Z"/><path class="cls-9" d="m639.16,1155.55s-6.97,3.88-16.7,3.7-15.78,1.57-15.78,1.57l-5.14-10.01,27.16-4.01s3.85,5.23,10.46,8.75Z"/><path class="cls-9" d="m606.68,1160.82s7.49,10.33,23.85,14.45l-21.68,2.58-11.61-15.73,9.43-1.3Z"/><path class="cls-7" d="m946.91,270.48s3.95-18.79-16.81-8.57c-20.76,10.22-29.66,52.07-5.6,66.57,24.06,14.5,62.84-22.31,54.3-74.24-8.55-51.93-23.01-69.68-54.56-60.48-31.55,9.2-46.67,77.57-48.65,104.52-1.97,26.95-6.56,132.5,5.37,190.32,11.93,57.82,11.01,221.65-128.49,291.86,0,0,83.52-7.8,149.6-141.8s4.59-224.86-5.51-262.49c-10.1-37.63-20.19-95.45,9.18-125.74s46.81-16.52,52.31-6.42c5.51,10.1,5.66,35.04-11.14,26.47Z"/><path class="cls-8" d="m803.51,463.8s1.23-2.46,3.89,0c2.66,2.46-4.71,10.85-12.28,8.39s-5.18-12.69,6.42-19.65c11.59-6.96,21.62-10.23,33.08-3.07,11.46,7.16,11.26,19.44-2.87,26.81-14.12,7.37-30.09,14.12-29.88,24.15s13.1,10.23,22.72,11.87c9.62,1.64,36.45,4.93,38.04,42.17,1.59,37.24-12.08,76.99-35.94,89.8-23.86,12.81-35.43,25.63-33.78,35.96s13.23,14.88,24.39,2.89c11.16-11.99,16.12-16.53,19.02-6.2s-2.09,18.33-9.56,16.07c-7.48-2.26-1.54-12.43,1.56-11.58,0,0-2.83-1.41-9.89,5.09-7.06,6.5-43.79,25.71-60.74,13.56s27.69-35.03,43.79-48.03c16.1-13,42.37-55.39,35.11-85.24-7.26-29.85-14.92-44.77-42.35-55.26-27.43-10.49-20.97-29.04-4.84-30.25s28.64-10.89,26.62-18.55-11.93-6.46-12.51,1.06Z"/><path class="cls-5" d="m797.28,523.85c-12.24-8.6-34.74-13.89-33.41,0,1.32,13.89,30.1,28.78,35.73,42.34,5.62,13.56,4.63,41.35-5.62,48.96-10.26,7.61-38.71,26.8-36.39,41.02,2.32,14.23,61.86-5.15,69.14-61.53,7.28-56.38-29.44-70.8-29.44-70.8Z"/><path class="cls-8" d="m785.37,558.92c-8.45-13.77-27.51-16.21-31.45-8.6-3.94,7.61,24.17,20.18,20.87,28.78-3.31,8.6-22.64,13.43-27.46,25.47-4.63,11.58-.99,22.16,11.58,22.83,12.57.66,47.97-33.41,26.47-68.48Z"/><path class="cls-5" d="m731.87,716.34s10.21-5.11,7.66-22.25c-2.55-17.14,6.91-26.99,12.94-23.34,6.03,3.65,3.77,14.78-3.69,19.88-7.47,5.11-3.04,29.35-16.9,25.71Z"/><path class="cls-5" d="m731.87,727.27s7.84-14.88,24.05-10.56c16.21,4.32,12.24-3.91,21.89-7.03,9.65-3.12,14,23.84-9.03,22.42-23.03-1.42-15.87-20.72-36.9-4.82Z"/><path class="cls-5" d="m576.26,872.99s130.79-47.46,130.79-173.62-15.05-104.59-6.94-159.36c8.1-54.77,54.4-95.28,98.39-134.64,43.98-39.35,62.5-98.39,49.77-136.58-12.73-38.2-24.21-73.45-2.61-81.35,21.6-7.9,44.26,22.66,39.52,34.78-4.74,12.12-21.6,12.65-24.77,1.05s8.96-11.07,8.96-11.07c0,0-5.27-13.7-16.86-3.69-11.59,10.01-6.32,21.08,2.11,34.25,8.43,13.17,33.57,64.14-5.98,125.81-39.55,61.67-123.34,112.95-126.69,171.43-3.35,58.48,8.26,108.01,9.09,147.64.83,39.63-24.92,150.29-154.78,185.35Z"/><path class="cls-9" d="m706.2,847.25s-4.57-5.45-11.43-3.87c-6.86,1.58-13.54,4.29-16.71,1.79,0,0,35.71-12.7,49.96-20.44,0,0,18.82,3.17,26.39,2.29,0,0-37.29,19.17-48.2,20.23Z"/><path class="cls-9" d="m754.4,827.02s13.9,0,20.4-2.29c0,0,25.68-17.77,30.78-24.8,0,0-2.29-2.99-9.32,0,0,0-27.38,19.96-41.87,27.09Z"/><path class="cls-9" d="m796.26,799.93s-15.66,5.45-27.27,3.69c0,0,25.15-14.07,34.13-24.1,0,0,13.54-.7,21.46-2.64,0,0-13.19,15.3-28.32,23.04Z"/><path class="cls-9" d="m824.58,776.89s21.11-23.22,24.8-28.85c0,0,6.86-1.41,13.54-4.93,0,0-23.75,28.67-27.79,31.66l-10.55,2.11Z"/><path class="cls-9" d="m849.38,748.04l-13.54,2.81s21.46-21.46,22.34-24.27c0,0,11.26-2.64,12.49-4.4,0,0-6.51,11.26-10.03,14.34s-11.26,11.52-11.26,11.52Z"/><path class="cls-9" d="m835.84,750.85s-8.08,1.18-12.37,0c0,0-22.27,21.9-40.74,26.03,0,0,9.91,3.51,20.4,2.64,0,0,27.27-21.23,32.72-28.67Z"/><path class="cls-9" d="m858.18,726.58s15.6-18.8,17.41-25.07c0,0-7.68,1.74-12.66,1.03l-21.32,26.51s6.74.41,16.57-2.48Z"/><path class="cls-9" d="m870.67,722.18l17.13-25.12s10.39-3.96,12.7-6.27c0,0-10.7,19.96-14.92,25.24,0,0-10.93,6.87-14.92,6.15Z"/><path class="cls-9" d="m887.8,697.06s-6.3,3.49-12.21,4.45c0,0,13.2-17.98,15.01-23.26,0,0,17.15-8.08,20.12-11.38,0,0-14.85,24.25-22.93,30.19Z"/><path class="cls-9" d="m890.6,678.25l12.21-22.6s-6.93,3.63-13.36,3.96l-13.1,24.09s7.96-2.36,14.25-5.45Z"/><path class="cls-9" d="m902.81,655.65s4.29-7.92,7.92-13.69c3.63-5.77,5.28-14.56,5.28-14.56,0,0,9.9-9.19,10.72-11.5,0,0-3.46,17.98-6.93,30.02,0,0-8.04,6.44-16.99,9.73Z"/><path class="cls-9" d="m916,627.41s10.06-22.55,10.72-33.11c0,0-4.12,6.27-6.27,9.24-2.14,2.97-5.69,4.62-5.69,4.62l-9.77,24.42,11.01-5.17Z"/><path class="cls-9" d="m926.73,594.29l3.63-39.09s7.13-28.71,7.39-35.91c0,0,1.03,30.74-3.86,67.44l-7.16,7.56Z"/><path class="cls-5" d="m490.81,1018.82s-64.97,152.46-168.99,197.62c-104.02,45.15-166.1,20.16-176.58-7.26-10.48-27.41,25.8-51.6,39.51-46.77,0,0-31.07,7.69-12.9,41.93,18.17,34.24,82.24,6.45,78.21-53.22-4.03-59.67-29.03-91.11-99.98-76.6-70.96,14.51-91.11,102.91-54.83,166.76,36.28,63.85,141.11,63.85,209.64,33.21,68.54-30.64,152.52-121.09,185.92-255.67Z"/><path class="cls-8" d="m509.12,997.67s-6.38,149.52-110.23,253.76c-103.85,104.24-131.94,72.35-131.9,54.14s22.09-40.99,31.13-28.2c9.04,12.78.9.14-5.37,4.19-6.27,4.05-12.89,11.83,3.49,15.56s37.55-22.41,27.59-42.02c-9.96-19.61-44.82-33.73-70.35-11.88-25.52,21.84-44,62.37-7.05,114.23s146.63-21.88,192.52-97.07c45.9-75.19,74.84-118.54,70.16-262.71Z"/><path class="cls-12" d="m116.21,1245.47s-32.91-18.47-21.95-85.76,46.34-66.73,48.35-64.3c11.76,14.14-68.76,42.67-26.4,150.06Z"/><path class="cls-12" d="m171.7,1083.94c-6.34-5.63-12.5,1.79-10.46,8.42,2.04,6.63,17.35-2.3,10.46-8.42Z"/><path class="cls-12" d="m201.85,1084.39c-5.13-2.24-8.11,2.37-5.93,8.11,2.18,5.74,16.82-3.36,5.93-8.11Z"/><path class="cls-12" d="m226.97,1097.25c-2.63-1.76-6.13,2.37-3.56,7.12,2.57,4.75,10.68-2.37,3.56-7.12Z"/><path class="cls-12" d="m268.13,1243.74c-4.04-2.63-9.33,5.42-6.32,8.73,3.01,3.31,19.26-.3,6.32-8.73Z"/><path class="cls-12" d="m293.4,1244.73c-3.14-2.2-4.74-.2-3.95,4.54s11.85.99,3.95-4.54Z"/><path class="cls-12" d="m315.33,1255.2c-2.16-3.96-6.32-.2-6.32,2.96s9.88,3.56,6.32-2.96Z"/><path class="cls-5" d="m358.72,1326.16s.43,14.29-32.91,15.59c-33.34,1.3-48.93,3.9-47.63,12.56,1.3,8.66,75.34,19.05,80.54-28.15Z"/><path class="cls-7" d="m366.26,1386.69s91.22-72.86,129.09-145.42c33.82-64.81,36.54-147.82,29.83-187.45-6.71-39.63-7.05-114.8,13.68-139.18,0,0-13.99,43.58-3.05,85.35,22.8,87.05,31.5,305.71-169.55,386.7Z"/><path class="cls-7" d="m75.71,1075.87s15.96,5.14,16.32,12.45c.35,7.32,12.76,10.9,11.21,0s-27.52-12.45-27.52-12.45Z"/><path class="cls-5" d="m403.55,809.75s-25.7-57.84-59.95-94.67c-34.26-36.82-29.98-131.58,5.22-169.56,35.2-37.98,67.77-55.38,59.13-98.97,0,0,38.08,41.97,16.14,84.93-21.94,42.97-30.83,64.63-24.45,86.74,0,0,41.02-44.14,41.11-74.93,0,0,21.63,32.7-5.54,62.56-27.17,29.86-40.79,56.75-33.89,90.29,6.9,33.54,18.89,82.08,2.23,113.61Z"/><path class="cls-10" d="m301.11,1001.87s2.74-58.23,32.71-82.26c29.97-24.03,56.56-61.72,43.56-84.64-13-22.92-46.48-1.77-49.61,15.53-3.13,17.31,2.95,29.07,14.24,27.98,11.29-1.09,10.8-20.88,10.8-20.88,0,0-2.46,12.76-11.51,4.96-9.05-7.79,6.98-24.55,17.24-16.87,10.26,7.68,6.67,40.61-8.24,48.25-14.91,7.65-39.05,5.09-42.77-26.92-3.72-32.02,22.66-73.71,60.37-66.2,37.71,7.52,27.86,39.29,25.13,57.88s-40.27,100.54-91.92,143.16Z"/><path class="cls-10" d="m456.54,607.63s-40.04,30.97-34.63,93.71,20.59,177.61-52.11,250.03c-72.71,72.42-113.23,106.61-102.39,138.31,10.84,31.7,120.07-72.05,156.35-154.62,36.29-82.57,38.43-129.34,25.58-170.24-12.85-40.9-19.22-108.48,7.2-157.18Z"/><path class="cls-5" d="m323.29,1118.02s3.8-25.38,21.36-38.15c17.57-12.78,29.98,0,29.42,7.42-.57,7.42-7.99,6.85-14.73,7.75-6.75.9-28.22,7.48-36.04,22.98Z"/><path class="cls-7" d="m256,1129.46s16.98,1.94,24.5-15.46c7.52-17.4,16.17-21.73,22.05-18.16,5.88,3.57,17.95,36.34-46.55,33.62Z"/><path class="cls-10" d="m251.42,1162.54s21.69-37.31,59.29-27.08c37.6,10.23,14.62,34.94,2.2,34.04-12.42-.9-16.55-33.19-61.49-6.96Z"/><path class="cls-5" d="m282.95,961.39c-6.42-4.72-15.96,9.19-10.33,14.98,5.63,5.79,21.38-6.86,10.33-14.98Z"/><path class="cls-2" d="m495.95,627.39c-6.42-4.72-15.96,9.19-10.33,14.98,5.63,5.79,21.38-6.86,10.33-14.98Z"/><path class="cls-2" d="m745.95,409.39c-6.42-4.72-15.96,9.19-10.33,14.98,5.63,5.79,21.38-6.86,10.33-14.98Z"/><path class="cls-2" d="m710.95,437.39c-6.42-4.72-15.96,9.19-10.33,14.98,5.63,5.79,21.38-6.86,10.33-14.98Z"/><path class="cls-2" d="m690.95,487.39c-6.42-4.72-15.96,9.19-10.33,14.98,5.63,5.79,21.38-6.86,10.33-14.98Z"/><path class="cls-2" d="m455.95,1028.39c-6.42-4.72-15.96,9.19-10.33,14.98,5.63,5.79,21.38-6.86,10.33-14.98Z"/><path class="cls-2" d="m433.95,1068.39c-6.42-4.72-15.96,9.19-10.33,14.98,5.63,5.79,21.38-6.86,10.33-14.98Z"/><path class="cls-2" d="m403.95,1110.39c-6.42-4.72-15.96,9.19-10.33,14.98,5.63,5.79,21.38-6.86,10.33-14.98Z"/><path class="cls-6" d="m518.65,512.34s-7.86,18.75-14.12,23.76c0,0-11.13,3.46-18.59-.69,0,0,11.45,8.74,11.55,11,0,0-1.86,15.5-4.92,21.85,0,0,8.52-14.61,13.82-18.85,0,0,5.3-4.24,18.85-1.07,0,0-9.12-4.37-11.92-9.92,0,0-2.18-6.82,5.33-26.07Z"/><path class="cls-6" d="m668.33,589.37s1.38,10.75-.18,14.73c0,0-4.21,4.56-8.76,4.64,0,0,7.61.97,8.26,1.99,0,0,3.28,7.65,3.56,11.39,0,0,.03-9.01,1.35-12.38,0,0,1.31-3.37,8.41-5.52,0,0-5.37.42-8.14-1.4,0,0-2.83-2.56-4.5-13.45Z"/><path class="cls-6" d="m830.87,891.45s-2.82,14.5-6.53,18.99c0,0-7.4,4.11-13.32,2.26,0,0,9.44,4.52,9.84,6.11,0,0,.97,11.3-.26,16.27,0,0,3.9-11.65,7.04-15.45,0,0,3.14-3.8,13.25-3.55,0,0-7.13-1.76-9.94-5.29,0,0-2.56-4.53-.07-19.33Z"/><path class="cls-3" d="m783.33,863.37s1.38,10.75-.18,14.73c0,0-4.21,4.56-8.76,4.64,0,0,7.61.97,8.26,1.99,0,0,3.28,7.65,3.56,11.39,0,0,.03-9.01,1.35-12.38,0,0,1.31-3.37,8.41-5.52,0,0-5.37.42-8.14-1.4,0,0-2.83-2.56-4.5-13.45Z"/><path class="cls-3" d="m930.33,360.37s1.38,10.75-.18,14.73c0,0-4.21,4.56-8.76,4.64,0,0,7.61.97,8.26,1.99,0,0,3.28,7.65,3.56,11.39,0,0,.03-9.01,1.35-12.38,0,0,1.31-3.37,8.41-5.52,0,0-5.37.42-8.14-1.4,0,0-2.83-2.56-4.5-13.45Z"/><path class="cls-3" d="m466.33,922.37s1.38,10.75-.18,14.73c0,0-4.21,4.56-8.76,4.64,0,0,7.61.97,8.26,1.99,0,0,3.28,7.65,3.56,11.39,0,0,.03-9.01,1.35-12.38,0,0,1.31-3.37,8.41-5.52,0,0-5.37.42-8.14-1.4,0,0-2.83-2.56-4.5-13.45Z"/><path class="cls-6" d="m463.39,432.57s-7.88,17.34-13.88,21.85c0,0-10.51,2.9-17.38-1.22,0,0,10.48,8.55,10.5,10.67,0,0-2.17,14.48-5.21,20.33,0,0,8.39-13.44,13.46-17.25,0,0,5.08-3.81,17.67-.42,0,0-8.42-4.38-10.88-9.67,0,0-1.85-6.46,5.71-24.28Z"/><path class="cls-6" d="m484.83,841.87s4.6,18.31,2.64,25.44c0,0-6.56,8.57-14.61,9.45,0,0,13.71.43,15.06,2.08,0,0,7.35,12.65,8.6,19.06,0,0-1.75-15.56-.09-21.59,0,0,1.65-6.03,13.81-10.92,0,0-9.45,1.61-14.73-1.07,0,0-5.53-3.96-10.67-22.46Z"/><path class="cls-7" d="m584.23,801.06c4.82,7.65,6.26,19.63-5.69,28.74-11.95,9.11-16.5,5.41-19.35,0-2.85-5.41,2.56-16.67,9.96-11.61,7.4,5.06-1.64,3.17-3.13,3.17s-5.97,2.61-3.36,8.96c2.61,6.35,18.1-1.68,17.73-7.65-.37-5.97-1.87-19.6-19.97-16.05s-15.86,20.71-11.2,31.35c4.67,10.64,19.22,10.64,32.1-.75,12.88-11.38,12.88-22.95,10.64-32.29-2.24-9.33-2.61-19.6,8.58-27.06,11.2-7.46,43.42-28.03,48.26-61.09,4.84-33.06-10.48-81.87-61.29-81.85-46.39.02-63.3,25-64.51,54.84-1.21,29.84,30.24,8.06,23.39-2.82-6.85-10.89-14.52-1.61-14.52-1.61,0,0,10.48-31.05,39.92-31.45,29.43-.4,52.42,12.5,55.24,36.29,2.82,23.79-6.85,47.18-23.39,56.45-16.53,9.27-36.42,27.42-19.42,54.44Z"/><path class="cls-11" d="m579.37,745.08s-13.07-.28-13.63-15.91c-.57-15.62,3.12-14.2,0-22.15,0,0,3.46,5.96,10.96,11.65,7.5,5.68,2.67,26.41,2.67,26.41Z"/><path class="cls-4" d="m589.59,733.16s12.22-34.93-25.56-48.57c0,0,15.34-15.62,33.52,2.84,18.18,18.46-7.95,45.73-7.95,45.73Z"/><path class="cls-4" d="m522.97,767.16s-12.34-1.99-20.31,4.98c-7.96,6.97-10.95,3.32-10.95,3.32,0,0,23.69,14.93,31.25-8.29Z"/><path class="cls-4" d="m501.67,723.37s-9.62,12.61-24.88,0c0,0,13.93-10.95,24.88,0Z"/><path class="cls-4" d="m534.62,628.11s-15.64-9.51-14.11-32.2c0,0,14.23,4.89,14.11,32.2Z"/><path class="cls-4" d="m608.23,619.52s-7.36-15.95,0-26.68c7.36-10.73,14.11-10.12,14.72-15.34,0,0,3.68,34.97-14.72,42.02Z"/><path class="cls-4" d="m664.36,681.48s6.13,1.53,13.5-8.59c7.36-10.12,18.71-1.95,18.71-1.95,0,0-12.58,22.2-32.2,10.54Z"/><path class="cls-4" d="m651.78,735.46s3.68,2.15,11.04-2.3c7.36-4.45,13.5,7.24,13.5,7.24,0,0-14.11,11.93-24.54-4.94Z"/><path class="cls-4" d="m633.38,780.18s3.99,3.74,12.27,2.51c8.28-1.23,8.89,15.34,8.89,15.34,0,0-17.79,2.64-21.16-17.85Z"/><path class="cls-5" d="m495.28,64.39c-120.28,53.55-235.03,97.49-223.72,227.3,11.31,129.81,415.38,158.51,508.91,65.28,93.54-93.23-55.45-394.86-285.2-292.58Z"/><path class="cls-12" d="m353.38,258.39c-6.17,0-11.73-1.27-16.69-3.81-4.96-2.54-8.89-6.29-11.78-11.25-2.89-4.96-4.34-11-4.34-18.12,0-5.34.87-10.08,2.62-14.21,1.75-4.13,4.16-7.61,7.25-10.44,3.08-2.83,6.63-4.96,10.63-6.39,4-1.43,8.26-2.15,12.78-2.15,3.5,0,6.77.4,9.82,1.19,3.05.79,5.98,1.96,8.77,3.48l.38,12.49h-2.58l-4-7.54c-.64-1.27-1.32-2.42-2.05-3.43-.73-1.02-1.67-1.75-2.81-2.19-1.59-.76-3.47-1.14-5.63-1.14-3.75,0-7.17.95-10.25,2.86-3.08,1.91-5.55,5.07-7.39,9.49-1.84,4.42-2.77,10.44-2.77,18.07s.87,13.58,2.62,18.02c1.75,4.45,4.12,7.61,7.1,9.49,2.99,1.88,6.36,2.81,10.11,2.81,1.72,0,3.12-.13,4.2-.38,1.08-.25,2.16-.6,3.24-1.05,1.27-.51,2.26-1.25,2.96-2.24.7-.99,1.3-2.11,1.81-3.39l3.62-8.68h2.57l-.38,13.73c-2.73,1.53-5.75,2.7-9.06,3.53-3.31.83-6.9,1.24-10.78,1.24Z"/><path class="cls-12" d="m378.08,256.77v-1.81l1.43-.48c1.27-.32,2.15-.86,2.62-1.62.48-.76.71-1.78.71-3.05v-27.94c-.06-1.4-.32-2.46-.76-3.2-.45-.73-1.3-1.22-2.58-1.48l-1.43-.38v-1.72l15.54-5.53,1.14,1.05.86,8.39v.67c.95-1.78,2.16-3.43,3.62-4.96,1.46-1.53,3.05-2.77,4.77-3.72,1.72-.95,3.43-1.43,5.15-1.43,2.42,0,4.23.64,5.44,1.91,1.21,1.27,1.81,2.89,1.81,4.86,0,2.16-.6,3.8-1.81,4.91-1.21,1.11-2.67,1.67-4.39,1.67-2.54,0-4.74-1.14-6.58-3.43l-.19-.19c-.64-.76-1.35-1.19-2.15-1.29-.8-.09-1.57.3-2.34,1.19-.64.64-1.23,1.38-1.76,2.24-.54.86-1.03,1.86-1.48,3v24.99c0,1.21.25,2.21.76,3,.51.79,1.37,1.35,2.58,1.67l2.86.86v1.81h-23.84Z"/><path class="cls-12" d="m429.39,279.75c-2.54,0-4.55-.6-6.01-1.81-1.46-1.21-2.19-2.8-2.19-4.77,0-1.78.62-3.2,1.86-4.24s2.62-1.57,4.15-1.57,2.89.29,3.91.86c1.02.57,1.91,1.4,2.67,2.48l.57.76c1.46,1.78,2.83,1.75,4.1-.1.83-1.08,1.64-2.42,2.43-4,.79-1.59,1.67-3.69,2.62-6.29l-18.12-43.3c-.45-1.21-.95-2.15-1.53-2.81s-1.43-1.22-2.57-1.67l-1.62-.57v-1.72h23.56v1.72l-2,.57c-1.4.45-2.15,1.13-2.24,2.05-.1.92.11,2.12.62,3.58l9.73,25.37,9.35-25.56c.51-1.4.7-2.58.57-3.53-.13-.95-.92-1.59-2.38-1.91l-2.1-.57v-1.72h14.21v1.72l-2.1.67c-1.4.38-2.4.94-3,1.67-.61.73-1.16,1.8-1.67,3.19l-15.26,41.01c-2.54,6.99-5.14,12.16-7.77,15.5-2.64,3.34-5.9,5.01-9.78,5.01Z"/><path class="cls-12" d="m487.18,258.11c-3.05,0-5.8-.33-8.25-1-2.45-.67-4.78-1.6-7.01-2.81v-11.25h2.57l2.86,5.44c1.21,2.35,2.59,4.1,4.15,5.25,1.56,1.14,3.54,1.72,5.96,1.72,2.99,0,5.37-.65,7.15-1.96,1.78-1.3,2.67-3.07,2.67-5.29,0-2.03-.67-3.69-2-4.96-1.34-1.27-3.72-2.45-7.15-3.53l-4.2-1.33c-3.75-1.14-6.72-2.88-8.92-5.2-2.19-2.32-3.29-5.23-3.29-8.73,0-2.73.73-5.23,2.19-7.49,1.46-2.26,3.59-4.05,6.39-5.39,2.8-1.33,6.2-2,10.2-2,2.61,0,5.01.3,7.2.91,2.19.61,4.34,1.45,6.44,2.53l-.57,10.21h-2.48l-2.96-5.44c-1.02-2.03-2.05-3.45-3.1-4.24-1.05-.79-2.66-1.19-4.82-1.19-2.29,0-4.31.59-6.06,1.76-1.75,1.18-2.62,2.81-2.62,4.91,0,1.97.73,3.58,2.19,4.82,1.46,1.24,3.82,2.4,7.06,3.48l4.1,1.24c4.64,1.46,7.95,3.4,9.92,5.82,1.97,2.42,2.96,5.31,2.96,8.68,0,4.52-1.8,8.15-5.39,10.92-3.59,2.77-8.66,4.15-15.21,4.15Z"/><path class="cls-12" d="m530.1,258.11c-3.94,0-7.04-.97-9.3-2.91-2.26-1.94-3.39-5.1-3.39-9.49,0-1.53.02-2.97.05-4.34.03-1.37.05-2.97.05-4.82v-22.6h-6.77v-2.1l2.57-.38c1.84-.32,3.42-.89,4.72-1.72,1.3-.83,2.49-1.97,3.58-3.43l6.2-8.58h2.86l-.29,13.26h10.87v2.96h-10.97v32.52c0,2.29.49,4.01,1.48,5.15.98,1.14,2.21,1.72,3.67,1.72,1.27,0,2.42-.3,3.43-.91,1.02-.6,2.03-1.41,3.05-2.43l1.24,1.43c-1.21,2.1-2.89,3.74-5.05,4.91-2.16,1.18-4.83,1.76-8.01,1.76Z"/><path class="cls-12" d="m560.14,258.11c-3.62,0-6.69-1.03-9.2-3.1-2.51-2.06-3.77-5.04-3.77-8.92,0-3.05,1.48-5.87,4.43-8.44,2.96-2.57,7.61-4.46,13.97-5.67,1.08-.25,2.34-.49,3.77-.71s2.84-.46,4.24-.72v-6.77c0-4.32-.54-7.31-1.62-8.96-1.08-1.65-2.8-2.48-5.15-2.48h-.29c-1.46,0-2.62.46-3.48,1.38-.86.92-1.42,2.43-1.67,4.53l-.29,1.24c-.19,2.54-.86,4.4-2,5.58-1.14,1.18-2.58,1.76-4.29,1.76-1.59,0-2.91-.49-3.96-1.48-1.05-.98-1.57-2.27-1.57-3.86,0-2.61.89-4.8,2.67-6.58s4.15-3.11,7.11-4c2.96-.89,6.15-1.34,9.58-1.34,5.66,0,9.98,1.37,12.97,4.1,2.99,2.73,4.48,7.19,4.48,13.35v21.27c0,2.73,1.3,4.1,3.91,4.1h2.19l.95,1.05c-1.14,1.46-2.42,2.59-3.82,3.39-1.4.79-3.31,1.19-5.72,1.19-2.73,0-4.91-.65-6.53-1.96-1.62-1.3-2.69-3.04-3.2-5.2-2.04,2.16-4.04,3.91-6.01,5.25-1.97,1.33-4.55,2-7.73,2Zm5.53-6.1c1.27,0,2.48-.29,3.62-.86s2.58-1.53,4.29-2.86v-15.26c-1.65.25-3.34.57-5.05.95-2.73.64-4.94,1.81-6.63,3.53-1.69,1.72-2.53,4.04-2.53,6.96,0,2.54.59,4.43,1.76,5.67,1.18,1.24,2.69,1.86,4.53,1.86Z"/><path class="cls-12" d="m595.52,256.77v-1.81l1.43-.38c2.1-.7,3.15-2.29,3.15-4.77,0-2.16.01-4.34.05-6.53.03-2.19.05-4.37.05-6.53v-36.24c0-1.33-.22-2.34-.67-3-.45-.67-1.3-1.16-2.58-1.48l-1.43-.38v-1.81l16.69-4,1.24.86-.38,13.45v45.68c.06,1.27.33,2.3.81,3.1.48.79,1.32,1.35,2.53,1.67l1.33.38v1.81h-22.22Z"/><path class="cls-12" d="m622.22,256.77v-1.81l1.43-.38c2.1-.7,3.15-2.29,3.15-4.77,0-2.16.01-4.34.05-6.53.03-2.19.05-4.37.05-6.53v-36.24c0-1.33-.22-2.34-.67-3-.45-.67-1.3-1.16-2.58-1.48l-1.43-.38v-1.81l16.69-4,1.24.86-.38,13.45v45.68c.06,1.27.33,2.3.81,3.1.48.79,1.32,1.35,2.53,1.67l1.33.38v1.81h-22.22Z"/><path class="cls-12" d="m648.83,256.77v-1.81l1.43-.38c1.27-.38,2.13-.95,2.57-1.72.44-.76.7-1.78.76-3.05v-23.03c0-1.68-.03-3.42-.1-5.2,0-1.27-.24-2.27-.71-3-.48-.73-1.35-1.22-2.62-1.48l-1.34-.29v-1.72l16.69-5.53,1.14,1.05-.29,13.54v25.75c0,1.27.24,2.29.71,3.05.48.76,1.32,1.34,2.53,1.72l1.05.29v1.81h-21.84Zm10.97-52.45c-2.1,0-3.88-.67-5.34-2-1.46-1.33-2.19-3.02-2.19-5.05s.73-3.8,2.19-5.1c1.46-1.3,3.24-1.96,5.34-1.96s3.88.65,5.34,1.96c1.46,1.3,2.19,3,2.19,5.1s-.73,3.72-2.19,5.05c-1.46,1.34-3.24,2-5.34,2Z"/><path class="cls-12" d="m674.87,256.77v-1.81l1.53-.38c2.1-.63,3.15-2.19,3.15-4.67v-28.13c-.06-1.33-.29-2.37-.67-3.1-.38-.73-1.21-1.22-2.48-1.48l-1.53-.38v-1.72l15.45-5.53,1.14,1.05.67,5.91c2.29-2.04,4.85-3.7,7.68-5.01,2.83-1.3,5.61-1.96,8.34-1.96,4.2,0,7.42,1.14,9.68,3.43,2.26,2.29,3.39,5.79,3.39,10.49v26.51c0,2.48,1.14,4.04,3.43,4.67l1.05.29v1.81h-21.94v-1.81l1.43-.38c2.1-.7,3.15-2.26,3.15-4.67v-28.33c0-2.22-.48-3.85-1.43-4.86-.95-1.02-2.54-1.53-4.77-1.53-3.12,0-6.36,1.37-9.73,4.1v30.71c0,2.48,1.11,4.04,3.34,4.67l.95.29v1.81h-21.84Z"/><path class="cls-12" d="m753.45,209.56c4,0,7.44.83,10.3,2.48s5.07,3.93,6.63,6.82c1.56,2.89,2.34,6.21,2.34,9.97,0,.83-.03,1.61-.1,2.34-.06.73-.19,1.42-.38,2.05h-28.71c.06,6.55,1.29,11.25,3.67,14.11,2.38,2.86,5.87,4.29,10.44,4.29,3.18,0,5.75-.53,7.72-1.57s3.78-2.53,5.44-4.43l1.53,1.43c-1.91,3.5-4.5,6.21-7.77,8.15-3.28,1.94-7.17,2.91-11.68,2.91s-8.49-.95-11.92-2.86c-3.43-1.91-6.12-4.66-8.06-8.25-1.94-3.59-2.91-7.9-2.91-12.92s1.13-9.63,3.39-13.26c2.26-3.62,5.18-6.4,8.77-8.34,3.59-1.94,7.36-2.91,11.3-2.91Zm-.48,2.77c-1.84,0-3.45.53-4.82,1.57-1.37,1.05-2.45,2.89-3.24,5.53-.79,2.64-1.26,6.34-1.38,11.11h17.07c.7-6.42.44-11.06-.76-13.92-1.21-2.86-3.5-4.29-6.87-4.29Z"/><path class="cls-12" d="m459.43,315.91c0,7.06-1.32,12.54-3.96,16.45-2.64,3.91-6.34,6.63-11.11,8.15s-10.33,2.29-16.69,2.29h-13.92v-53.69h13.92c6.36,0,11.92,1,16.69,3,4.77,2,8.47,4.97,11.11,8.92,2.64,3.94,3.96,8.9,3.96,14.88Zm-41.29,23.08h10.3c5.28,0,9.9-.6,13.88-1.81,3.97-1.21,7.06-3.46,9.25-6.77,2.19-3.31,3.29-8.14,3.29-14.5,0-5.21-1.1-9.52-3.29-12.92-2.19-3.4-5.28-5.91-9.25-7.53-3.97-1.62-8.6-2.43-13.88-2.43h-10.3v45.97Z"/><path class="cls-12" d="m467.34,342.8v-38.72h3.72l.57,9.92c.63-2.73,2.13-5.07,4.48-7.01,2.35-1.94,5.66-2.91,9.92-2.91h2.1v4.86h-2.1c-4.32,0-7.5.68-9.54,2.05-2.04,1.37-3.35,3.2-3.96,5.48-.61,2.29-.91,4.83-.91,7.63v18.69h-4.29Z"/><path class="cls-12" d="m509.69,343.75c-4.13,0-7.55-.99-10.25-2.96-2.7-1.97-4.72-4.5-6.06-7.58-1.33-3.08-1.97-6.28-1.91-9.58,0-3.43.7-6.64,2.1-9.63,1.4-2.99,3.45-5.39,6.15-7.2,2.7-1.81,5.99-2.72,9.87-2.72,4.83,0,8.82,1.57,11.97,4.72,3.15,3.15,4.91,7.36,5.29,12.64.06.32.1,1.02.1,2.1h-31.28c0,5.09,1.21,9.09,3.62,12.02,2.42,2.93,5.88,4.39,10.4,4.39,3.24,0,6.06-.86,8.44-2.58,2.38-1.72,3.86-4.04,4.44-6.96h4.29c-.76,3.94-2.69,7.15-5.77,9.63-3.08,2.48-6.88,3.72-11.4,3.72Zm-13.73-22.79h26.51c-.06-1.65-.52-3.5-1.38-5.53-.86-2.03-2.23-3.81-4.1-5.34-1.88-1.53-4.34-2.29-7.39-2.29-4.2,0-7.41,1.3-9.63,3.91-2.23,2.61-3.56,5.69-4,9.25Z"/><path class="cls-12" d="m548.6,343.75c-3.56,0-6.52-.91-8.87-2.72-2.35-1.81-4.1-4.23-5.25-7.25-1.14-3.02-1.72-6.37-1.72-10.06s.59-7.23,1.76-10.25c1.18-3.02,2.94-5.34,5.29-6.96,2.35-1.62,5.28-2.43,8.77-2.43,3.75,0,6.74.84,8.96,2.53,2.22,1.69,3.81,3.88,4.77,6.57l.19-.52v-8.58h4.39v38.72h-3.62l-.76-7.84-.19-.17c-1.02,2.35-2.64,4.43-4.86,6.25-2.23,1.81-5.18,2.72-8.87,2.72Zm1.62-4.01c4.07,0,7.12-1.41,9.16-4.24,2.03-2.83,3.05-6.72,3.05-11.68,0-5.28-1.07-9.19-3.2-11.73-2.13-2.54-5.13-3.81-9.01-3.81-4.52,0-7.82,1.45-9.92,4.34-2.1,2.89-3.15,6.6-3.15,11.11s1.08,8.55,3.24,11.54c2.16,2.99,5.44,4.48,9.82,4.48Z"/><path class="cls-12" d="m574.25,342.8v-38.72h3.62l.38,10.3h.19c.19-.57.52-1.41,1-2.53.48-1.11,1.19-2.26,2.15-3.43.95-1.18,2.22-2.19,3.81-3.05,1.59-.86,3.56-1.29,5.91-1.29,2.54,0,4.59.49,6.15,1.48,1.56.99,2.78,2.27,3.67,3.86.89,1.59,1.53,3.24,1.91,4.96h.19c.19-.57.56-1.41,1.1-2.53.54-1.11,1.33-2.26,2.38-3.43,1.05-1.18,2.4-2.19,4.05-3.05,1.65-.86,3.66-1.29,6.01-1.29,2.54,0,4.61.51,6.2,1.53,1.59,1.02,2.83,2.31,3.72,3.86.89,1.56,1.53,3.23,1.91,5.01.38,1.78.6,3.48.67,5.1.06,1.62.09,2.97.09,4.05v19.17h-3.91v-19.26c0-1.08-.05-2.46-.14-4.15-.09-1.68-.45-3.4-1.05-5.15-.6-1.75-1.57-3.21-2.91-4.39-1.34-1.18-3.24-1.76-5.72-1.76-2.73,0-4.96.76-6.68,2.29s-3,3.53-3.86,6.01c-.86,2.48-1.29,5.18-1.29,8.11v18.31h-3.91v-19.26c0-1.08-.05-2.46-.14-4.15-.1-1.68-.45-3.4-1.05-5.15-.61-1.75-1.57-3.21-2.91-4.39-1.34-1.18-3.24-1.76-5.72-1.76-2.73,0-4.96.76-6.68,2.29s-3,3.53-3.86,6.01c-.86,2.48-1.29,5.18-1.29,8.11v18.31h-4.01Z"/><path class="cls-12" d="m654.55,343.75c-4.13,0-7.55-.99-10.25-2.96-2.7-1.97-4.72-4.5-6.06-7.58-1.33-3.08-1.97-6.28-1.91-9.58,0-3.43.7-6.64,2.1-9.63,1.4-2.99,3.45-5.39,6.15-7.2,2.7-1.81,5.99-2.72,9.87-2.72,4.83,0,8.82,1.57,11.97,4.72,3.15,3.15,4.91,7.36,5.29,12.64.06.32.1,1.02.1,2.1h-31.28c0,5.09,1.21,9.09,3.62,12.02,2.42,2.93,5.88,4.39,10.4,4.39,3.24,0,6.06-.86,8.44-2.58,2.38-1.72,3.86-4.04,4.43-6.96h4.29c-.76,3.94-2.69,7.15-5.77,9.63-3.08,2.48-6.88,3.72-11.4,3.72Zm-13.73-22.79h26.51c-.06-1.65-.52-3.5-1.38-5.53-.86-2.03-2.23-3.81-4.1-5.34-1.88-1.53-4.34-2.29-7.39-2.29-4.2,0-7.41,1.3-9.63,3.91-2.23,2.61-3.56,5.69-4.01,9.25Z"/><path class="cls-12" d="m680.97,342.8v-38.72h3.72l.57,9.92c.63-2.73,2.13-5.07,4.48-7.01,2.35-1.94,5.66-2.91,9.92-2.91h2.1v4.86h-2.1c-4.32,0-7.5.68-9.54,2.05-2.04,1.37-3.35,3.2-3.96,5.48-.61,2.29-.91,4.83-.91,7.63v18.69h-4.29Z"/></svg>