<?xml version="1.0" encoding="UTF-8"?><svg id="Capa_2" xmlns="http://www.w3.org/2000/svg" viewBox="0 0 1080 1434.5"><defs><style>.cls-1,.cls-2,.cls-3,.cls-4,.cls-5,.cls-6,.cls-7,.cls-8,.cls-9,.cls-10,.cls-11{stroke-width:0px;}.cls-2{fill:#f9dc5c;}.cls-3{fill:#48bac2;}.cls-4{fill:#0c6b86;}.cls-5{fill:#0c6b84;}.cls-6{fill:#0c6b85;}.cls-7{fill:#064862;}.cls-8{fill:#fff;}.cls-9{fill:#03ae81;}.cls-10{fill:#03b083;}.cls-11{fill:#04052e;}</style></defs><path class="cls-2" d="m99.1,553.68s10.38,18.17,10.38,26.61c0,0-4.54,11.68-12.98,15.58,0,0,14.93-4.54,16.87-3.24,0,0,11.68,11.03,14.93,17.52,0,0-6.49-16.22-6.49-23.36,0,0,0-7.14,11.68-16.87,0,0-9.73,5.19-16.22,4.22,0,0-7.14-2.27-18.17-20.44Z"/><path class="cls-7" d="m335.55,457.95s367.81-55.71,411.96,0c53.24,67.18,70.03,206.57,39.8,206.57s-47.02-142.75-124.28-162.9c-77.25-20.15-268.71-35.27-327.49-43.66Z"/><path class="cls-7" d="m211.27,1018.88s38.63,238.48,67.18,283.82c28.55,45.34,438.68,42.34,443.72,13.79,5.04-28.55-15.11-52.06-26.87-50.38-11.76,1.68,24.35,10.92,9.24,41.15-15.11,30.23-87.33,11.76-80.61-36.95,6.72-48.7,67.18-47.02,112.52-21.83,45.34,25.19,23.51,113.12,0,133.81s-478.15-14.09-478.15-29.2c0-15.11-71.37-259.47-47.02-334.2Z"/><circle class="cls-11" cx="496.94" cy="896.85" r="396.87"/><path class="cls-2" d="m518.16,499.98s-4.57,162.09-38.81,213.45c-34.24,51.37-128.99,163.23-107.3,199.76,21.69,36.53,111.86,200.9,132.41,187.2,20.55-13.7,156.38-178.07,154.1-194.05-2.28-15.98-131.27-202.04-130.13-248.84,1.14-46.8-.83-157.52-.83-157.52l-8.31,188.34s94.74,189.48,94.74,200.9-108.44,152.96-119.85,143.82c-11.41-9.13-88.42-96.53-81.88-135.59,6.54-39.06,71.61-148.64,91.01-147.5,19.4,1.14,67.24,115.59,62.73,126.29-4.51,10.69-68.44,106.57-79.85,95.16-11.41-11.41-67.35-44.52-45.66-84.47,21.69-39.95,50.22-85.61,61.64-67.35,11.41,18.26,27.44,91.81-2.83,77.87-30.27-13.95-2.88-35.63-2.88-35.63,0,0-22.83,6.85-19.4,28.54s47.94,39.95,47.94-1.14-20.55-95.88-33.1-94.74c-12.56,1.14-69.28,70.12-66.03,102.98,3.25,32.85,44.34,94.49,62.61,91.07,18.26-3.42,93.6-87.89,91.32-109.58-2.28-21.69-52.25-146.23-66.07-155.3-13.83-9.07,4.43-223.67,4.43-223.67Z"/><path class="cls-2" d="m481.17,1085.6s37.25,87.94,32.55,201.47c0,0-10.78-156.08,36.21-234.73"/><path class="cls-4" d="m243.14,1219.03s-5.72,7.96,0,7.55,15.73-.4,14.3-10.42c-1.43-10.01-20.02-18.59-35.76-7.15-15.73,11.44-17.16,42.22,0,51.86,17.16,9.64,50.06,12.5,61.5-14.68,11.44-27.17,9.3-76.52-57.92-75.09-67.22,1.43-64.36,57.21-60.07,70.08,4.29,12.87,51.49,68.65,111.56,24.31,0,0-40.05,21.45-62.93,4.29-22.88-17.16-14.3-65.79,10.01-70.08,24.31-4.29,42.91,7.15,40.05,20.02-2.86,12.87-10.01,28.6-32.9,21.45-22.88-7.15,5.72-25.74,12.16-22.17Z"/><path class="cls-3" d="m276.75,1265.51s30.72-38.27,60.05-42.38c29.34-4.11,37.66,6.44,41.37,21.19,3.7,14.75,23.73,41.93,53.76,17.61,30.04-24.31,2.86-38.62-2.86-37.19-5.72,1.43-15.02,12.16.72,12.16,0,0,4.29,17.16-20.02,15.73-24.31-1.43-37.41-55.84-1.54-81.55,35.87-25.71,111.67-15.7,123.11,45.8,11.44,61.5-1.43,85.81-48.63,91.54-47.2,5.72-77.23,5.72-111.56-40.05-34.33-45.77-94.4-2.86-94.4-2.86Z"/><path class="cls-4" d="m279.97,1191.65s34.68,3.06,36.11-22.68c1.43-25.74,5.72-67.22,60.07-58.64,54.35,8.58,65.13,75.74,11.83,90.08-53.3,14.33-40.54-25.46-36.55-35.96,3.99-10.5,32.59-24.8,39.74-10.5s-8.58,15.73-12.87,7.15c0,0-8.58,14.3,4.29,18.59,12.87,4.29,32.52-13.16,23.41-29.46-9.11-16.31-33.42-27.75-50.59-4.86-17.16,22.88-32.16,92.57-75.44,46.28Z"/><path class="cls-8" d="m602.13,1147.52s-1.29,4.29-20.67,0c-19.38-4.29-94.39,15.37-92.64,75.62,1.75,60.25,75.3,35.3,93.59,11.3,18.29-23.99,50.01-47.37,75.63-30.67,25.62,16.69,93.93,63.25,172.05,30.67,78.12-32.57,34.87-93.05,0-94.99-34.87-1.94-62.04,12.36-67.77-13.39-5.72-25.74-33.21-57.82-80.97-57.51-47.75.3-57.93,36.97-61.43,50.1-3.49,13.13-17.79,28.86-17.79,28.86Z"/><path class="cls-3" d="m582.81,1173.83s-15.07,8.79-6.28,13.81c8.79,5.02,22.11,2.46,28.63-18.23,6.52-20.69-13.7-31.19-46.9-14.64-33.2,16.55-49.26,59.93-21.14,70.25,28.12,10.33,40.67,2.79,59.5-13.53,18.83-16.32,52.45-35.85,84.61-10.39s131.55,29.78,149.65,0c18.1-29.78,1.02-62.89-40.66-54.5-41.68,8.39-54.54,6.94-50.62,17.08,3.92,10.14,2.66,27.72-42.53,11.4-45.2-16.32-3.77-48.96,10.04-46.45,13.81,2.51,18.83,8.79,12.55,8.79s-25.26,9.94-13.26,20.66c12,10.72,40.88,4.45,37.11-24.43-3.77-28.88-26.37-53.99-70.31-47.71-43.94,6.28-42.69,57.75-55.24,64.03-12.55,6.28,8.23,34.46-33.55,51.13-41.78,16.67-38.02-22.25-25.46-28.53,12.55-6.28,22.6-7.53,23.85,1.26Z"/><path class="cls-1" d="m441.25,1319.85s34.49-10.23,25.24-34.43c-9.25-24.19-13.83-53.32,19.81-59.41,33.64-6.09,40.26,24.61,38.99,32.25-1.26,7.64-11.41,23.07-23.14,21.23-11.73-1.84-11.31-23.2-4.68-26.84,6.63-3.64,15.74,7.54,4.15,10.49,0,0-1.09,9.87,11.3,2.49,12.38-7.38,1.53-36.58-21.54-30.86-23.08,5.73-22.47,24.92-17.46,37.64,5.01,12.71,13.18,39.97-32.66,47.43Z"/><path class="cls-8" d="m374.63,508.97s8.9,18.62,11.98,22.51c0,0,92.74-45.88,185.73-24.85,0,0-104.83-37.54-197.71,2.35Z"/><path class="cls-8" d="m386.61,531.47s5.78,7.69,11.17,13.5c0,0-60.64,47.07-71.96,61.13,0,0-20.38-7.11-28.38-22.55,0,0,47.53-36.7,89.16-52.09Z"/><path class="cls-8" d="m297.45,583.56s-41.4,31.23-64.21,61.87c0,0-17.24-4.91-20.99-31.47,0,0,42.04-42.2,74.08-61.37,0,0-.16,17.49,11.12,30.97Z"/><path class="cls-8" d="m325.83,606.1s-30.23,32.74-41.01,50.39c0,0,20.1,2.57,30.68,9.15,0,0,20.01-52.92,23.97-54.01l-13.64-5.52Z"/><path class="cls-8" d="m284.82,656.49s-7.31-5.52-21.58-5.5c-14.26.02-28.4-1.51-30-5.56,0,0-56.53,64.72-70.51,110.33,0,0,17.66,7.54,37.5,2.48,19.84-5.06,35.13-13.14,35.13-13.14,0,0,23.63-58.07,49.47-88.61Z"/><path class="cls-8" d="m235.35,745.09s40.76-23.73,71.45-15.06c0,0-48.47,104.1-47.37,129.15l-56.63,12.07s11.2-93.75,32.54-126.16Z"/><path class="cls-8" d="m137.53,871.25s6.4-76.29,25.19-115.5c0,0-23.33-6.44-32.15-24.75,0,0-30.66,63.13-36.12,111.08,0,0,24.16,25.83,43.08,29.18Z"/><path class="cls-8" d="m137.53,871.25s24.89,12.07,65.27,0c0,0-8.33,62.74,2.53,119.78,0,0-24.7-.6-33.9,1.24-9.2,1.84-18.23,3.11-18.23,3.11,0,0-23.03-90.86-15.68-124.14Z"/><path class="cls-8" d="m153.21,995.39s22.22,67.01,34.9,85.87c0,0-30.95,11.93-61.18-2.92l-30.86-95.8s19.2,19.91,57.14,12.85Z"/><path class="cls-8" d="m205.34,991.04s8.78,51.28,17.53,80.18c0,0,23.12-12.69,41.96-9.24,0,0-7.3-58.18-6.76-66.88,0,0-30.83-5.21-52.73-4.06Z"/><polygon class="cls-8" points="188.11 1081.26 222.87 1071.22 251.42 1146.11 219.23 1132.72 188.11 1081.26"/><path class="cls-9" d="m323.38,494.69s-73.83,9.05-117.19,56.39c-43.36,47.34-41.6,59.89-37.34,60.7,4.26.81,42.16-90.49,154.53-117.08Z"/><path class="cls-5" d="m926.61,1129.59s-2.54,54.29-38.19,98.67c-35.65,44.38-85.23,56.17-98.34,40.67-13.11-15.49,87.63,26.77,136.53-139.35Z"/><path class="cls-9" d="m999.21,1064.88s-.12,84.87-47.79,140.48c-47.67,55.61-62.12,55.33-63.63,50.62s96.71-60.16,111.42-191.09Z"/><path class="cls-3" d="m87.67,654.15s8.13,15.01,7.97,21.88c0,0-3.92,9.44-10.87,12.46,0,0,12.25-3.43,13.81-2.33,0,0,9.32,9.21,11.84,14.56,0,0-4.99-13.35-4.86-19.17,0,0,.13-5.82,9.84-13.54,0,0-8.03,4.05-13.3,3.14,0,0-5.78-1.98-14.43-17Z"/><path class="cls-3" d="m328.89,442.59s10.77-9.46,2.82-33.95c0,0,10.84,23.42,17.96,21.89,0,0,18.63-.3,25.6-5.07,0,0-27.62,23.36-25.84,28.19,1.78,4.83,5.97,33.99,4.04,34.71-1.93.71-10.31-27.91-18.68-29.8,0,0-21.49-4.73-28.6-3.2l22.71-12.77Z"/><path class="cls-3" d="m855.7,532.3s-4.63,24.04-11.06,31.53c0,0-12.93,6.91-23.39,3.93,0,0,16.71,7.34,17.45,9.98,0,0,1.96,18.69-.11,26.93,0,0,6.6-19.35,12.04-25.68,0,0,5.44-6.34,23.23-6.07,0,0-12.59-2.81-17.61-8.62,0,0-4.61-7.46-.55-31.99Z"/><path class="cls-3" d="m929.19,1005.47s-10.51,22.11-18.61,27.75c0,0-14.25,3.45-23.63-2.05,0,0,14.34,11.3,14.39,14.03,0,0-2.79,18.59-6.85,26.04,0,0,11.24-17.07,18.09-21.84,0,0,6.85-4.77,24.01-.06,0,0-11.49-5.87-14.89-12.76,0,0-2.59-8.37,7.48-31.11Z"/><path class="cls-6" d="m638.78,125.34c-116.52,51.88-227.69,94.44-216.73,220.2,10.96,125.76,402.4,153.56,493.02,63.24,90.62-90.31-53.72-382.53-276.29-283.45Z"/><path class="cls-8" d="m516.98,303.48v-2.74l2.61-.91c2.78-.87,4.18-3.05,4.18-6.53.08-4.96.13-10.03.13-15.21v-35.58c0-5.05-.04-10.1-.13-15.14,0-3.57-1.35-5.79-4.05-6.66l-2.74-.78v-2.74h34.33c9.14,0,17.02,1.7,23.63,5.09,6.61,3.39,11.71,8.29,15.27,14.69,3.57,6.4,5.35,14.12,5.35,23.17s-1.94,17.06-5.81,23.5c-3.87,6.44-9.31,11.36-16.32,14.75-7.01,3.39-15.17,5.09-24.48,5.09h-31.99Zm25.72-3.79h6.66c6.18,0,11.21-1.22,15.08-3.66,3.87-2.44,6.72-6.55,8.55-12.34,1.83-5.79,2.74-13.6,2.74-23.43s-.91-17.62-2.74-23.37c-1.83-5.75-4.63-9.83-8.42-12.27-3.79-2.44-8.68-3.66-14.69-3.66h-7.18c-.09,6-.13,12.08-.13,18.21v42.04c0,6.22.04,12.38.13,18.47Z"/><path class="cls-8" d="m601.19,303.48v-2.48l1.96-.52c1.74-.52,2.92-1.31,3.53-2.35.61-1.04.96-2.44,1.04-4.18v-31.53c0-2.3-.04-4.68-.13-7.11,0-1.74-.33-3.11-.98-4.11-.65-1-1.85-1.67-3.59-2.02l-1.83-.39v-2.35l22.85-7.57,1.57,1.44-.39,18.54v35.25c0,1.74.33,3.13.98,4.18.65,1.04,1.81,1.83,3.46,2.35l1.44.39v2.48h-29.9Zm15.01-71.8c-2.87,0-5.31-.91-7.31-2.74-2-1.83-3-4.13-3-6.92s1-5.2,3-6.98c2-1.78,4.44-2.68,7.31-2.68s5.31.89,7.31,2.68c2,1.79,3,4.11,3,6.98s-1,5.09-3,6.92c-2,1.83-4.44,2.74-7.31,2.74Z"/><path class="cls-8" d="m664.38,303.87l-22.98-55.22c-.96-2.44-2.66-4-5.09-4.7l-2.74-.65v-2.48h33.03v2.48l-3.39.78c-2.79.7-3.61,2.48-2.48,5.35l13.71,36.42,12.79-36.16c.43-1.48.54-2.68.33-3.59-.22-.91-1.07-1.54-2.55-1.89l-3.79-.91v-2.48h19.84v2.48l-4.31,1.04c-2.53.61-4.22,2.18-5.09,4.7l-19.71,54.83h-7.57Z"/><path class="cls-8" d="m704.59,303.48v-2.48l1.96-.52c1.74-.52,2.92-1.31,3.53-2.35.61-1.04.96-2.44,1.04-4.18v-31.53c0-2.3-.04-4.68-.13-7.11,0-1.74-.33-3.11-.98-4.11-.65-1-1.85-1.67-3.59-2.02l-1.83-.39v-2.35l22.85-7.57,1.57,1.44-.39,18.54v35.25c0,1.74.33,3.13.98,4.18.65,1.04,1.81,1.83,3.46,2.35l1.44.39v2.48h-29.9Zm15.01-71.8c-2.87,0-5.31-.91-7.31-2.74-2-1.83-3-4.13-3-6.92s1-5.2,3-6.98c2-1.78,4.44-2.68,7.31-2.68s5.31.89,7.31,2.68c2,1.79,3,4.11,3,6.98s-1,5.09-3,6.92c-2,1.83-4.44,2.74-7.31,2.74Z"/><path class="cls-8" d="m740.23,303.48v-2.48l2.09-.52c2.87-.87,4.31-3,4.31-6.4v-38.51c-.09-1.83-.39-3.24-.91-4.24-.52-1-1.65-1.67-3.39-2.02l-2.09-.52v-2.35l21.15-7.57,1.57,1.44.91,8.09c3.13-2.78,6.64-5.07,10.51-6.85,3.87-1.78,7.68-2.68,11.42-2.68,5.74,0,10.16,1.57,13.25,4.7,3.09,3.13,4.63,7.92,4.63,14.36v36.29c0,3.39,1.57,5.53,4.7,6.4l1.44.39v2.48h-30.03v-2.48l1.96-.52c2.87-.96,4.31-3.09,4.31-6.4v-38.77c0-3.05-.65-5.27-1.96-6.66-1.31-1.39-3.48-2.09-6.53-2.09-4.27,0-8.7,1.87-13.32,5.61v42.04c0,3.39,1.52,5.53,4.57,6.4l1.31.39v2.48h-29.9Z"/><path class="cls-8" d="m847.8,238.85c5.48,0,10.18,1.13,14.1,3.39,3.92,2.26,6.94,5.38,9.07,9.33,2.13,3.96,3.2,8.51,3.2,13.64,0,1.13-.04,2.2-.13,3.2-.09,1-.26,1.94-.52,2.81h-39.3c.08,8.97,1.76,15.41,5.03,19.32,3.26,3.92,8.03,5.88,14.29,5.88,4.35,0,7.88-.72,10.58-2.15,2.7-1.44,5.18-3.46,7.44-6.07l2.09,1.96c-2.61,4.79-6.16,8.51-10.64,11.16-4.48,2.65-9.81,3.98-15.99,3.98s-11.62-1.31-16.32-3.92-8.38-6.38-11.03-11.29c-2.66-4.92-3.98-10.81-3.98-17.69s1.54-13.19,4.63-18.15c3.09-4.96,7.09-8.77,12.01-11.42,4.92-2.65,10.07-3.98,15.47-3.98Zm-.65,3.79c-2.53,0-4.72.72-6.59,2.15-1.87,1.44-3.35,3.96-4.44,7.57-1.09,3.61-1.72,8.68-1.89,15.21h23.37c.96-8.79.61-15.14-1.04-19.06-1.65-3.92-4.79-5.88-9.4-5.88Z"/><path class="cls-8" d="m601.77,352.43c0,7.24-1.34,12.86-4.01,16.87-2.67,4.01-6.39,6.8-11.15,8.36-4.76,1.57-10.33,2.35-16.72,2.35h-13.99v-55.07h13.99c6.39,0,11.96,1.03,16.72,3.08,4.76,2.05,8.48,5.1,11.15,9.14,2.67,4.04,4.01,9.13,4.01,15.26Zm-43.23,25.14h11.35c4.37,0,8.35-.34,11.93-1.03,3.58-.69,6.67-1.94,9.24-3.77,2.57-1.83,4.55-4.38,5.92-7.68,1.37-3.29,2.05-7.51,2.05-12.67,0-5.74-1.21-10.45-3.62-14.13-2.41-3.68-5.8-6.42-10.17-8.22-4.37-1.79-9.49-2.69-15.36-2.69h-11.35v50.17Z"/><path class="cls-8" d="m610.08,380.02v-39.51h2.05l.49,9.68c.72-2.93,2.31-5.28,4.79-7.04,2.48-1.76,5.77-2.64,9.88-2.64h2.45v2.93h-2.45c-4.24,0-7.38.67-9.44,2-2.05,1.34-3.42,3.1-4.11,5.28s-1.06,4.58-1.12,7.19v22.1h-2.54Z"/><path class="cls-8" d="m650.96,380.99c-4.11,0-7.53-1.01-10.27-3.03-2.74-2.02-4.78-4.63-6.11-7.83-1.34-3.19-1.97-6.49-1.91-9.88.06-3.33.78-6.5,2.15-9.54,1.37-3.03,3.41-5.49,6.11-7.38,2.71-1.89,6.05-2.84,10.03-2.84,4.76,0,8.7,1.6,11.83,4.79,3.13,3.2,4.92,7.4,5.38,12.62.06.39.1,1.11.1,2.15h-32.96c0,5.67,1.35,10.17,4.06,13.5,2.71,3.33,6.57,4.99,11.59,4.99,3.65,0,6.83-.96,9.54-2.88,2.71-1.92,4.38-4.55,5.04-7.87h2.64c-.85,3.98-2.85,7.17-6.02,9.58-3.16,2.41-6.9,3.62-11.2,3.62Zm-15.36-23.08h29.93c-.07-2.02-.62-4.19-1.66-6.5-1.04-2.31-2.62-4.3-4.74-5.97-2.12-1.66-4.84-2.5-8.17-2.5-4.37,0-7.89,1.4-10.56,4.21-2.67,2.8-4.27,6.39-4.79,10.76Z"/><path class="cls-8" d="m690.77,380.99c-3.65,0-6.72-.95-9.19-2.84-2.48-1.89-4.34-4.38-5.58-7.48-1.24-3.1-1.86-6.5-1.86-10.22,0-3.91.65-7.4,1.96-10.47,1.3-3.06,3.19-5.41,5.67-7.04,2.48-1.63,5.48-2.45,9-2.45s6.49.78,8.9,2.35c2.41,1.57,4.24,3.96,5.48,7.2l.1-.54v-9h2.64v39.51h-2.05l-.49-8.6-.2-.21c-1.24,2.87-3.07,5.22-5.48,7.04-2.41,1.83-5.38,2.74-8.9,2.74Zm.78-2.74c4.43,0,7.81-1.55,10.12-4.65,2.31-3.1,3.47-7.45,3.47-13.06,0-6-1.22-10.38-3.67-13.16-2.45-2.77-5.76-4.16-9.93-4.16-4.83,0-8.46,1.58-10.91,4.74-2.45,3.16-3.67,7.32-3.67,12.47s1.25,9.65,3.77,12.91c2.51,3.26,6.11,4.89,10.81,4.89Z"/><path class="cls-8" d="m715.71,380.02v-39.51h2.05l.49,11.15h.2c.2-.72.55-1.68,1.08-2.88.52-1.21,1.29-2.45,2.3-3.72,1.01-1.27,2.33-2.35,3.96-3.23,1.63-.88,3.72-1.32,6.26-1.32,2.74,0,4.94.54,6.6,1.61,1.66,1.08,2.95,2.48,3.86,4.21.91,1.73,1.56,3.51,1.96,5.33h.2c.2-.72.59-1.68,1.17-2.88.59-1.21,1.42-2.45,2.49-3.72s2.48-2.35,4.21-3.23c1.73-.88,3.86-1.32,6.41-1.32s4.74.51,6.41,1.52c1.66,1.01,2.95,2.32,3.86,3.91.91,1.6,1.56,3.29,1.96,5.09.39,1.79.64,3.52.73,5.18.1,1.66.15,3.02.15,4.06v19.76h-2.54v-19.76c0-1.17-.07-2.71-.2-4.6-.13-1.89-.52-3.8-1.17-5.72-.65-1.92-1.73-3.55-3.23-4.89-1.5-1.34-3.62-2.01-6.36-2.01-2.93,0-5.4.83-7.38,2.49-1.99,1.66-3.49,3.88-4.5,6.65-1.01,2.77-1.52,5.85-1.52,9.24v18.58h-2.54v-19.76c0-1.17-.07-2.71-.2-4.6-.13-1.89-.52-3.8-1.17-5.72-.65-1.92-1.73-3.55-3.23-4.89-1.5-1.34-3.62-2.01-6.36-2.01-2.93,0-5.4.83-7.38,2.49-1.99,1.66-3.49,3.88-4.5,6.65-1.01,2.77-1.52,5.85-1.52,9.24v18.58h-2.54Z"/><path class="cls-8" d="m797.67,380.99c-4.11,0-7.53-1.01-10.27-3.03-2.74-2.02-4.78-4.63-6.11-7.83-1.34-3.19-1.97-6.49-1.91-9.88.06-3.33.78-6.5,2.15-9.54,1.37-3.03,3.41-5.49,6.11-7.38,2.71-1.89,6.05-2.84,10.03-2.84,4.76,0,8.7,1.6,11.83,4.79,3.13,3.2,4.92,7.4,5.38,12.62.06.39.1,1.11.1,2.15h-32.96c0,5.67,1.35,10.17,4.06,13.5,2.71,3.33,6.57,4.99,11.59,4.99,3.65,0,6.83-.96,9.54-2.88,2.71-1.92,4.38-4.55,5.04-7.87h2.64c-.85,3.98-2.85,7.17-6.02,9.58-3.16,2.41-6.9,3.62-11.2,3.62Zm-15.36-23.08h29.93c-.07-2.02-.62-4.19-1.66-6.5-1.04-2.31-2.62-4.3-4.74-5.97-2.12-1.66-4.84-2.5-8.17-2.5-4.37,0-7.89,1.4-10.56,4.21-2.67,2.8-4.27,6.39-4.79,10.76Z"/><path class="cls-8" d="m824.77,380.02v-39.51h2.05l.49,9.68c.72-2.93,2.31-5.28,4.79-7.04,2.48-1.76,5.77-2.64,9.88-2.64h2.45v2.93h-2.45c-4.24,0-7.38.67-9.44,2-2.05,1.34-3.42,3.1-4.11,5.28s-1.06,4.58-1.12,7.19v22.1h-2.54Z"/><path class="cls-10" d="m985.88,664.7s3.51,13.25-11.1,22.91c-14.61,9.66-27.33-2.07-30.24-9.05-2.91-6.98-.64-21.86,12.48-27.85,13.12-5.99,23.58,8.16,21.83,16.75-1.75,8.6-8.07,17.64-17.67,12.99-9.61-4.66-3.99-15.25.98-15.51,4.97-.26,8.01,1.46,5.73,6.17,0,0,5.5-4.97,1-9.63s-17.68,1.06-17.76,10.22c-.08,9.16,8.18,15.59,15.09,14.33,6.9-1.26,13.91-2.22,19.67-21.34Z"/><path class="cls-4" d="m101,1145.73s8.37-3.63,1.05-7.17c-7.32-3.53-16.15,7.57-8.58,13.63,7.57,6.06,22.21,2.52,22.21-10.09s-9.34-19.69-27.76-13.63c-18.42,6.06-22.97,43.16,4.29,46.94,0,0-13.09-9.14-9.89-24.57,3.2-15.43,17.08-20.98,24.4-13.66,7.32,7.32-4.62,12.57-5.72,8.56Z"/></svg>