<?xml version="1.0" encoding="UTF-8"?><svg id="Capa_2" xmlns="http://www.w3.org/2000/svg" xmlns:xlink="http://www.w3.org/1999/xlink" viewBox="0 0 1080 1567"><defs><style>.cls-1{clip-path:url(#clippath);}.cls-2{fill:none;}.cls-2,.cls-3,.cls-4,.cls-5,.cls-6,.cls-7,.cls-8,.cls-9,.cls-10,.cls-11{stroke-width:0px;}.cls-4{fill:#f9dc5c;}.cls-5{fill:#48bcc4;}.cls-6{fill:#95c1cc;}.cls-7{fill:#0c6b86;}.cls-8{fill:#064862;}.cls-9{fill:#989898;}.cls-10{fill:#fff;}.cls-11{fill:#011720;}</style><clipPath id="clippath"><polygon class="cls-2" points="865 1346 253 1329 244 945 865 945 865 1346"/></clipPath></defs><rect class="cls-2" x="243.87" y="374.16" width="594.81" height="954.46"/><g class="cls-1"><path class="cls-9" d="m897.16,1415.67s5.8-67.49,35.62-144.85c29.82-77.36,74.22-207.02,75.25-209.88s-122.81,8.42-175.75,15.14c-52.94,6.72-95.71,2.53-91.82,28.81,3.89,26.28,22.52,125.38,25.81,180.18,3.29,54.8,12.54,141.4,17.87,143.71,0,0,94.13,15.46,113.03-13.11Z"/><path class="cls-3" d="m767.82,1518.34s6.09-17.54,14.31-19.52c8.22-1.98,24.57-7.07,25.97-15.28s-2.92-10.92,10.88-17.57c13.8-6.65,91.94-37.25,84.68-47.49-7.26-10.25-44.69,10.71-60.5,8.7-7.9-1-13.92-3.41-19.92-5.26-6-1.85-11.97-3.15-19.77-1.95-15.61,2.4-50.37,5.2-60.52,1.78-10.15-3.42-26.6-7.63-51.77-11.93-25.17-4.29-61-3.56-60.71,3.27.29,6.83,10.8,1.3,18.22,7.35,7.41,6.05,6.87,5.96,15.71,6.9s54.26-2.85,54.26-2.85c0,0-18.87,6.64-11.76,7.85s25.85,5.25,17.63,7.23c-8.22,1.98-23.4,3.76-17.87,5.9,5.52,2.13,14.64,4.81,21.75,6.03s5.05,3.4,13.53,4.84c8.48,1.45,21.88,6.93,17.24,7.78s-12.09,4.93-12.09,4.93c0,0,6.89-.8,7.07,1.49.17,2.28-11.44,9.31-7.61,9.96,3.83.65,5.68,6.32,11.7,7.34s6.02,12.57,8.21,12.94-19.08,2.94-18.91,5.22,15.45,5.17,20.28,12.33Z"/><path class="cls-3" d="m742.95,1421.76l-4.97-28.74s12.76-6.1,8.31-19.81c-4.44-13.71-27.47-16.22-33.72-5.75-6.25,10.47.64,20.9,4.7,22.03l-10.48,23.2s31.98,6.52,36.16,9.06Z"/><path class="cls-11" d="m670.12,1365.21l13.08,9.47,5.77-15.08s3.16,8.04,10.13,10.56,17.52,7.52,17.52,7.52c0,0-1.58-14.74-7.54-17.72s-10.03-11.92-8.32-13,10.57-3.51,14.16.2c0,0-8.41-7.98-5.16-9.93,3.25-1.94,50.61-6.25,50.61-6.25l-21.33-1.39s10.43-6.67,3.76-5.55-32.47,2.06-36.36-2.26c-3.9-4.32,4.02-11.14,8.32-13.22s-13.13,2.83-10.79-1.84c2.33-4.67,24.12-36.65,29.24-36.93,0,0-12.77,4.15-20.76,8.76s-21.1,11.45-18.14,6.85c2.95-4.6,10.35-7.7,4.51-7.64-5.84.06-12.72,5.22-11.59-1.98,1.13-7.2,1.9-8.98.51-13.75-1.39-4.77,5.89-22.11.74-17.78-5.15,4.33-13.26,17.42-13.83,16.56s-5.1-6.75-3.92-13.98c0,0-9.71,16.25-14.98,14.5l-3.2-.55,17.59,104.44Z"/><path class="cls-3" d="m760.01,1254.24c3.63-.9,9.19-9.86,13.32-10.62,26.55-4.86,74.84-20.55,72.1-21.02s-11.45-.55-11.45-.55l128.79-62.63s-148.78,58.52-146.87,60.53c1.91,2.01,7.96,1.36,7.96,1.36,0,0-32.67,5.03-63.29,10.24"/><path class="cls-11" d="m760.57,1231.55c-23.8,4.05-46.35,8.2-51.39,10.17-11.51,4.52-24.25,10.34-2.32,13.6l-34.85,12.27-5.42,18.95s19.83-14.78,36.04-17.36c16.21-2.58,45.13-12.9,40.93-12.61s-13.45.78-13.45.78c0,0,11.88-6.33,31.56-11.23"/><path class="cls-10" d="m809.18,1425.89l1.57.51c.33.11,8.28,2.69,17.14,4.36,12.79,2.42,20.55,1.67,23.73-2.29l.57-.7-.05-.9c0-.16-.85-16.24-1.85-32.13-.59-9.35-1.11-16.81-1.56-22.17-.27-3.21-.51-5.71-.73-7.42-.33-2.63-.57-4.53-2.54-4.87-1.06-.18-8.46-.53-16.1-.17-10.75.51-17.97,2.16-21.46,4.91l-.94.74,2.23,60.13Zm2.62-56.7c1.15,4.91,2.24,15.92,2.81,21.76.34,3.41.63,6.36.9,8.53.93,7.36,3.48,19.87,4.49,24.66-2.65-.69-4.85-1.33-6.23-1.74l-1.97-53.21Zm35.57,56.85c-.75.52-2.15,1.1-4.78,1.3l-6.23-62.68c2.88,0,5.31.06,6.85.15,1.06,7.21,3.04,39.96,4.16,61.23Zm-15.74-61.29l6.22,62.59c-2.62-.16-5.65-.57-9.05-1.21-1.5-.28-2.98-.6-4.41-.92l.63-.14c-.04-.17-3.71-17.34-4.82-26.19-.27-2.11-.55-5.03-.89-8.4-1.34-13.56-2.27-20.42-3.37-23.93,1.81-.46,3.88-.82,6.07-1.09l7.67,60.71,4.68-.59-7.66-60.57c1.65-.12,3.31-.2,4.92-.26Z"/><path class="cls-10" d="m916.29,1321.34s-15.06,16.2-41.05,10.15c-25.98-6.04-64.78,9.89-77.77,39.7,0,0,5.83-33.08,29.52-45.77,23.69-12.69,39.75-4.75,47.92-4.7s37.41,2.97,47.21-20.07l-5.83,20.69Z"/><path class="cls-10" d="m924.21,1293.83s-10.88,13.17-39.12,12.92c-28.24-.24-72.43,9.6-83.09,39,0,0,3.72-31.74,44.39-45.91,40.68-14.17,72.83-3.21,79.79-12.19l-1.97,6.17Z"/><path class="cls-10" d="m929.91,1276.61s-20.43,14.71-36.67,11.7c-16.24-3.01-57.87.61-69.38,21.22,0,0,16.29-36.45,54.43-36.55,38.14-.1,45.54,6.07,54.66-4.88l-3.03,8.51Z"/><path class="cls-10" d="m936.5,1258.62s-13.97,12.44-31.18,8.15-41.64,5.08-41.64,5.08c0,0,6.56-17.54,40.41-17.19,33.84.35,39.18-13.38,39.18-13.38l-6.77,17.34Z"/><path class="cls-11" d="m761.71,1246.3c-10.51,2.71-28.29,7.68-31.6,11.06l13.45-.78-4.46,2.31s6.89,1.22,8.34,2.59c0,0,7.41-1.63,16.4-3.68"/><path class="cls-10" d="m958.61,1200.28l-9.36,4.27s-.08-3.72-5.1-3.8-12.9.73-12.9.73c0,0,13.92-8.23,17.41-12.14s17.93-11.24,17.93-11.24l-7.98,22.18Z"/><path class="cls-10" d="m944.89,1176.35l17.66-17.31,8.89,5.46-4.85,13.59s-15.53,1.32-21.7-1.75Z"/><path class="cls-10" d="m944.89,1176.35l-10.54-1.23-47.43,20.7s6.78.46,7.87,2.34,3.6,2.02,3.6,2.02l46.51-23.83Z"/><polygon class="cls-10" points="934.35 1175.13 962.55 1159.05 930.75 1174.51 934.35 1175.13"/><path class="cls-10" d="m898.38,1200.18s6.71,3.99,12.75,2.19c6.04-1.8,16.77-3.53,20.11-.9,0,0-43.33,15.96-48.45,18.52,0,0-3.47-.54-6.06-3.51-2.59-2.98-12.04-2.05-12.04-2.05,0,0,18.38-10.38,33.68-14.24Z"/><path class="cls-3" d="m882.8,1219.99s9.07,1.88,16.69.09c7.63-1.8,12.27.69,12.27.69,0,0-15.94,4.32-22.8,9.91-6.86,5.59-24.64,12.41-24.64,12.41,0,0-3.81-2.62-11.24-1.92-7.42.7-15.11,1.29-17.69-.94,0,0,29.78-16.53,47.41-20.23Z"/><path class="cls-3" d="m835.39,1240.22s-10.25-.16-12.52-3.37c0,0-5.89,4.81-11.83,5.82s-20.43,6.7-20.71,8.34c0,0,5.96,4.68,11.16,5.56,0,0,29.58-11.64,33.9-16.35Z"/><path class="cls-3" d="m801.49,1256.57s15.01,1.15,16.09,4.71c0,0-19.56,7.36-23.12,8.44s-20.08.52-26.91-2.34c0,0,22.67-10.77,33.94-10.82Z"/><path class="cls-3" d="m763.63,1257.43c9.4-2.14,20.52-4.74,26.71-6.42,0,0-1.54-2.52-7.88-3.31s-13.16-3.71-13.16-3.71c0,0-3.2.75-7.8,1.94"/><path class="cls-11" d="m767.77,1267.77s-9.21-2.98-12.87-5.01c-3.66-2.03-7.45-1.27-7.45-1.27,0,0-8.91,2.7-13.3,5.33-4.39,2.63-12.01,2.74-14.26,6.01,0,0,11.35,2.78,15.17,5.12,0,0,4.71-3.7,12.64-3.97s20.07-6.22,20.07-6.22Z"/><path class="cls-11" d="m735.06,1277.96s8.71,1.77,12.02,5.43c0,0-10.79,7.17-24.26,8.53l-8.51-4.55s7.14-4.09,11.54-5.05,9.21-4.36,9.21-4.36Z"/><path class="cls-11" d="m719.89,1272.84s-3.51,1.37-6.8,1.37-10.38,5.27-14.85,5.07l-11.49-4.75s14.74-6.34,21.83-6.49c0,0,7.44,4.42,11.31,4.8Z"/><path class="cls-11" d="m698.24,1279.28s12.62,5.25,16.07,8.09l-32.03,13.35s-11.45-1.06-11.62-5.03-1.67-5.07-1.67-5.07c0,0,11.39-9.04,29.24-11.34Z"/><path class="cls-10" d="m694.55,1306.66c5.49-8.08,21.94-18.13,21.94-18.13l-.24-.13s-20.74,7.89-31.74,13.93l10.04,4.33Z"/><path class="cls-3" d="m841.65,1205.19l-22,.61,2.26-5.71s-23.27.59-27.12,3.31c0,0-3.16-7.86-2.79-10.05s-19.92,7.95-20.63,3,.66-8.41-1.96-9.4-24.97-.3-25.83-3.55-.18-9.64-.18-9.64c0,0-15.8,1.01-16.84-1.14-1.04-2.15-2.21-19.57-3.88-18.28s-10.85,3.95-11.42-.94c-.57-4.88-1.02-8.9-1.02-8.9l18.94-.43,4.01,23.01,19.76-.65-.92,13.17,24.96,1.1.15,11.77,22.04-6.61.47,10.45,28.87.74-2.8,4.89,24.87-.54-8.95,3.81Z"/><path class="cls-3" d="m834.4,1096.14s123.15-10.93,140.16-7.47,15.49,43.87,5.63,38.04-15.29-20.16-29.49-16.16c-14.2,4-15.87,23.7-33.92,17.25s-23.52-18.93-45.39-12.81c-21.88,6.12-20.32,21.76-32.21,19.65s-19.83-1.78-19.82,8.08c0,9.85,7.4,4.48,12.18,10.3,4.78,5.82,11.18,9.57,18.47,3.15,7.28-6.42,20.55-26.03,31.01-24.85s22.5,13.09,29.07,19.13,15.85,5.26,21.46,3.32c5.62-1.94,10.78-24.35,24.54-21.48,13.76,2.87,2.27,20.58,25.53,18.8,23.26-1.79,32.31-38.09,26.39-90.14,0,0-59.57-9.93-175.75,15.14l2.13,20.06Z"/><path class="cls-8" d="m842.35,1164.52c-.38,0-.76-.02-1.15-.05-4.77-.39-9.32-3.18-13.52-8.29-.77-.94-1.62-1.19-3.68-1.62-3.12-.65-9.62-1.99-9.63-11.85,0-4.77,1.48-8.43,4.41-10.89,4.81-4.04,11.98-3.76,21.28-2.11,2.65.47,3.51-.24,7.16-4.46,4.18-4.84,9.92-11.46,22.82-15.08,16.88-4.72,25.58.5,34.79,6.03,4.07,2.44,8.27,4.97,13.63,6.89,7.33,2.62,10.08,0,15.61-6.19,3.83-4.29,8.17-9.16,15.27-11.16,12.46-3.51,19.85,4.01,25.8,10.06,2.11,2.15,4.13,4.2,6.24,5.72,1.19-3.19,1.98-11.18-.47-18.93-.95-3-3.17-8.17-7.35-9.01-13.37-2.71-104.67,4.53-138.72,7.55l-4.9.43-3.12-29.41,4.39-.95c115.78-24.99,175.16-15.6,177.63-15.19l3.72.62.43,3.75c4.58,40.24.35,70.58-11.91,85.42-5.16,6.24-11.57,9.7-19.06,10.27-15.97,1.23-19.73-5.84-22.21-13.18-1.3-3.86-1.85-5.11-4.73-5.71-3.1-.65-6.04-.21-13.13,11.59-2.84,4.72-5.08,8.45-8.75,9.72-7.64,2.64-18.6,2.88-26.48-4.37-.52-.48-1.07-.99-1.66-1.53-6.2-5.76-16.58-15.41-24.59-16.31-5.07-.58-14.25,9.7-19.72,15.83-2.81,3.15-5.24,5.88-7.43,7.8-3.48,3.06-7.16,4.61-10.97,4.61Zm-17.83-20.1c.38.12,1.01.25,1.5.35,2.51.52,6.3,1.3,9.39,5.07,2.38,2.9,4.66,4.51,6.59,4.67.52.04,2.13.17,4.71-2.1,1.73-1.53,4.09-4.16,6.58-6.95,8.06-9.03,18.09-20.25,28.3-19.11,11.28,1.27,22.72,11.89,30.28,18.92.57.53,1.11,1.03,1.62,1.5,5.72,5.26,13.98,3.08,16.18,2.36.87-.77,2.57-3.6,3.71-5.5,4.5-7.5,11.32-18.82,23.75-16.23,8.62,1.8,10.75,8.12,12.16,12.3,1.61,4.76,2.41,7.15,11.96,6.41,4.75-.36,8.71-2.55,12.12-6.67,9.99-12.1,13.63-38.95,10.1-74.02-14.46-1.56-70.73-5.4-165.75,14.63l1.13,10.7c25.18-2.18,120.87-10.18,136.7-6.96,7.76,1.58,13.55,8.72,15.9,19.6,2.16,10.05,1.23,23.07-4.77,27.4-2.67,1.92-6.04,2.02-9.04.25-3.75-2.22-6.74-5.26-9.64-8.21-5.87-5.97-9.5-9.26-15.95-7.45-4.28,1.21-7.31,4.6-10.52,8.19-5.55,6.22-12.45,13.96-26.44,8.95-6.29-2.25-11.14-5.16-15.41-7.73-8.56-5.14-14.21-8.54-26.95-4.97-10.01,2.8-14.23,7.68-17.96,11.99-3.76,4.35-8.02,9.27-16.48,7.77-9-1.6-12.09-.92-13.1-.07-.7.58-.84,2.08-.84,3.22,0,.91.09,1.44.15,1.72Zm105.04,4.8h0Z"/><path class="cls-4" d="m842.87,1148.88c3.85,2.7,9.42-5,4.63-7.96-4.8-2.96-10.1,4.13-4.63,7.96Z"/><path class="cls-3" d="m922.5,1145.85c3.85,2.7,9.42-5,4.63-7.96-4.8-2.96-10.1,4.13-4.63,7.96Z"/><path class="cls-3" d="m979.3,1144.56c3.85,2.7,9.42-5,4.63-7.96s-10.1,4.13-4.63,7.96Z"/><path class="cls-3" d="m876.54,1126.76c1.97,3.07,10.95-.99,9.5-5.89s-13.53-.36-9.5,5.89Z"/><path class="cls-3" d="m949.91,1125.76c1.97,3.07,10.95-.99,9.5-5.89-1.45-4.9-13.53-.36-9.5,5.89Z"/><path class="cls-3" d="m494.84,1584.4s-59.38-20.72-70.09-18.3-28.5,7.4-41.18,9.05-40.99-.77-55.49-3.53c-14.5-2.76-32.45-1.38-32.45-1.38,0,0,39.01-26.24,37.98-30.38s-40.39-28.66-49.03-29.69c-8.63-1.04,74.92-11.39,115.66-15.88,40.74-4.49,101.5-11.39,101.5-11.39,0,0-26.93,20.37-19.68,22.79,7.25,2.42,39.36,17.26,39.36,21.75s-55.24,10.36-59.38,13.81-51.72,3.36-59.35,3.41c-7.63.05,5.49-2.37,1-2.37s-21.75-1.73-18.3-3.11c3.45-1.38,26.24-5.87,22.1-7.6s-23.13-9.32-17.26-9.67c5.87-.35,33.49-5.87,32.8-3.11s-4.14,2.42,2.42,6.21.69,6.91,5.18,6.21,10.36-6.21,20.37-13.81c10.01-7.6,15.54-12.08,10.7-11.74s-116,6.56-126.02,10.7-11.74,4.83-3.45,5.87c8.29,1.04,12.43,3.8,17.95,6.91,5.52,3.11,12.77,4.83,6.56,9.67-6.21,4.83-28.66,20.02-20.37,22.1s45.23,1.73,53.17,0c7.94-1.73,37.98-1.73,48.34-4.83,10.36-3.11,22.79-1.73,17.61,2.07-5.18,3.8-5.52,7.6-1.38,7.25s42.12-17.61,39.01-13.12c-3.11,4.49-21.06,18.64-6.91,20.02,14.16,1.38,8.63,12.08,8.63,12.08Z"/><path class="cls-3" d="m484.31,1588.38s-43.16-16.92-58-14.85c-14.85,2.07-72.21,14.32-94.45,7.33-22.24-6.99-47.89-10.62-47.89-10.62,0,0,38.08-19.84,34.28-28.48s-46.95-35.22-46.95-35.22c0,0,233.04-44.19,236.84-27.27,3.8,16.92-25.03,20.2-13.98,21.92,11.05,1.73,40.39,24.17,32.45,27.97-7.94,3.8-57.66,16.57-69.05,17.26s-102.19.69-99.43,4.49c2.76,3.8,27.62-.35,24.86,1.38-2.76,1.73-9.67,8.29-1.38,6.91,8.29-1.38,79.41-10.7,78.72-6.91s35.22-5.52,37.98-4.49-3.8,9.32-3.8,9.32c0,0,49.37-15.88,44.54-26.58-4.83-10.7-26.24-14.93-17.61-29.04,8.63-14.12,70.43-37.25,65.25-38.63-5.18-1.38-39.01,0-42.12-5.18-3.11-5.18-3.11-10.01-13.81-7.25-10.7,2.76-84.24,8.63-81.82,8.98s9.32,3.8-7.94,3.8-31.07,6.21-57.31,2.42c-26.24-3.8-41.43,9.67-59.73,9.67s-53.17,2.76-59.73,2.76-53.17,18.99-42.47,18.99,56.97-4.49,41.08-1.38-67.32,8.63-60.42,14.16c6.91,5.52,95.98,26.93,85.97,34.53-10.01,7.6-72.5,25.89-59.38,32.11,13.12,6.21,91.48,8.98,95.98,11.91,4.49,2.93,31.42,1.9,25.9,7.08s13.51.69,29.54,0,62.99-5.87,57.46.35c-5.52,6.21,46.44-7.42,46.44-7.42Z"/><path class="cls-11" d="m328.6,1466.5l30.38-9.32s-24.17-111.17,23.82-132.92c0,0-28.66,5.73-27.1-14.05,1.55-19.78,8.46-32.41,27.1-34.9,0,0-17.26-6.64-10.7-36.67,6.56-30.04,43.85-39.36,62.84-21.06,18.99,18.3,10.01,25.2,26.58,25.89s14.85-18.99,14.85-41.78,1.73-68.7-9.67-64.22c-11.39,4.49-21.06,2.42-20.72,11.05.35,8.63,10.36,21.41,0,26.58-10.36,5.18-56.28,27.27-58,14.5s-10.7-53.51-3.11-59.73c7.6-6.21,47.99-38.32,49.37-24.51,1.38,13.81,1.73,31.07,19.33,26.58,17.61-4.49,15.88-4.14,14.5-25.89s-4.14-57.31-10.36-54.2c-6.21,3.11-89.42,40.05-89.42,49.03s-47.3,259.28-39.7,365.62Z"/><path class="cls-7" d="m419.4,1146.8c3.86-.77,12.43-1.04,11.39-6.91s-5.87-21.41-7.6-20.37c-1.73,1.04-11.39,6.56-11.05,8.98s3.8,18.99,7.25,18.3Z"/><path class="cls-7" d="m412.14,1163.37s8.3,14.5,5.19,15.88-17.26,6.91-17.26,4.14-4.49-15.54-2.07-15.88c2.42-.35,14.15-4.14,14.15-4.14Z"/><path class="cls-7" d="m404.45,1133.15s-2.31-.5,1.14,5.71c3.45,6.21,4.49,14.85,4.49,14.85,0,0-13.81,7.25-14.16,5.52-.35-1.73-1.04-19.68-3.11-20.72s11.63-5.37,11.63-5.37Z"/><path class="cls-7" d="m423.2,1157.16l9.67-7.94s10.7,15.19,9.32,17.95c-1.38,2.76-13.46,9.67-14.16,7.6-.69-2.07-7.6-15.54-4.83-17.61Z"/><path class="cls-3" d="m481.2,1242.78s-19.43,17.21-38.89,6.02c0,0,.57,10.9-5.99,16.08,0,0,29.69,4.14,32.11,27.27,2.42,23.13-17.95,22.44-17.61,25.55s-3.8,14.85,11.05,18.99c14.85,4.14,37.98,20.37,37.29,59.73-.69,39.36-12.4,59.44.02,58.03,12.41-1.41,20.01,12.4,15.87-18.67-4.14-31.07-21.75-205.08-33.83-192.99Z"/><path class="cls-8" d="m410.08,1281.82s1.73-8.66-5.52-8.32c-7.25.35-26.24-4.49-22.79-27.27,3.45-22.79,25.2-27.62,37.98-21.41,12.77,6.21,20.54,29.86,1.21,38.5-19.33,8.63-30.04-14.85-21.06-24.86,8.98-10.01,22.97-2.93,22.36,3.72-.61,6.64-2.68,8.37-7.17,7.68s-4.81-7.07-1.02-7.68c0,0-8.64-1.99-7.95,6.3s19.33,13.46,19.33,0-7.91-17.95-18.46-17.95-17.79,8.28-16.76,16.92c1.04,8.63,3.11,20.02,18.3,21.06,15.19,1.04,9.67,10.01,13.81,10.36,4.14.35,28.31-3.8,33.49,3.8,5.18,7.6,4.49,22.79-2.07,25.2s-10.01,0-12.43-7.25c-2.42-7.25-7.52-9.63-21.02-8.44-13.5,1.19-38.5,3.96-38.95,11.21-.45,7.24.24,15.18-6.66,15.53-6.91.35-10.7-12.43-6.56-23.13,4.14-10.7,25.89-12.08,32.11-12.08s9.84-1.87,9.84-1.87Z"/><path class="cls-8" d="m418.21,1296.02c-7.59.1-17.05.89-16.03,6.97,1.02,6.07,8.46,139.32,11.68,143.02,3.22,3.7,21.15,26.29,21.86,17.86.71-8.43,6.07-19.33,2.65-19.9s-6.7,1.99-7.4-8.77c-.7-10.77-9.32-114.41-9.32-114.41l14.97,107.16s9.06,4.38,8.15,7.78-7.87,25.79-4.38,25.32,14.67-24.71,15.48-26.19c.81-1.48-28.11-128.56-28.86-133.1s-4.49-5.79-8.81-5.74Z"/><polygon class="cls-10" points="283.96 1477.03 312.2 1326.16 321.18 1340.66 333.95 1202.56 342.24 1210.15 368.3 1100.88 352.6 1238.12 343.62 1227.07 339.48 1363.1 327.77 1349.25 333.84 1477.03 283.96 1477.03"/><path class="cls-8" d="m374.97,1094.01s12.15-39.22,12.15-48.54c0,0-75.26-45.57-133.96-48.68l-51.39,503.44,82.18-23.21,28.24-150.87,8.98,14.5,12.77-138.1,8.29,7.6,32.73-116.14Z"/><path class="cls-4" d="m264.21,1478.07s1.28-95.37,10.13-128.82c8.85-33.45,33.37-96.97,32.68-113.89-.69-16.92,11.39-66.29,26.58-99.09,15.19-32.8,22.44-51.1,12.43-70.09s-68.01-18.64-68.01-9.67-7.11,90.11,5.94,92.7c13.05,2.59,28.59,4.29,33.77-16.07s16.57-48.67,4.49-53.15c-12.08-4.49-29.98,1.53-27.76,10.6,2.22,9.08,9.47,8.73,9.47,5.97s1.38-10.01,6.91-7.6c5.52,2.42,5.87,22.44-6.91,24.51-12.77,2.07-23.08-25.24-9.47-51.81,0,0,45.72-2.05,46.75,14.52s-12.11,75.96-31.09,87.18c-18.98,11.22-43.14,17.12-45.9-1.19s-6.21-132.59,7.25-132.59,85.97,13.12,91.15,32.8c5.18,19.68-6.97,55.77-26.61,97.11-19.65,41.34-18.58,109.96-23.26,116.04-4.68,6.08-10.55,18.51-11.58,27.49-1.04,8.98-23.48,67.32-21.41,83.55,2.07,16.23-15.54,91.49-15.54,91.49Z"/><polygon class="cls-11" points="207.47 1444.41 227.79 1431.29 225.72 1409.15 244.01 1397.45 237.11 1375.36 258.86 1367.82 252.3 1339.8 275.78 1328.4 266.46 1301.47 287.93 1288.95 283.96 1266.3 301.01 1264.33 305.81 1245.67 296.84 1245.67 294.45 1227.81 277.68 1230.52 274.5 1222.34 256.64 1222.34 256.64 1210.62 243.5 1210.5 240.9 1203.75 232.04 1203.75 207.47 1444.41"/><path class="cls-10" d="m232.04,1203.75l1.57-15.43h16.58s-.48,9.75-1.86,11.48c0,0,8.98.35,12.08-1.04,0,0,2.85,5.72,1.25,12.35,0,0,17.34-2.49,17.89,0s1.63,11.23,1.63,11.23c0,0,21.7-9.43,22.73-3.56s1.89,26.88,1.89,26.88h-8.97l-2.39-17.86-16.77,2.71-3.17-8.18h-17.86v-11.72l-13.15-.13-2.59-6.75h-8.87Z"/><polygon class="cls-8" points="592.93 1217.3 573.6 1164.48 570.36 1169.84 583.95 1220.07 592.93 1217.3"/><path class="cls-8" d="m654.73,1209.02s3.45-10.94,0-9.79c-3.45,1.15-49.35,16.83-55.57,17.45-6.23.62-9.33,2-8.99,7.87.35,5.87,2.44,5.73,8.99,2.69,6.55-3.04,55.57-18.23,55.57-18.23Z"/><path class="cls-8" d="m658.49,1199.15s-5.15-56.76-12.05-58.14c-6.91-1.38-6.21-3.11-4.14,12.43,2.07,15.54,11.67,53.1,16.19,45.71Z"/><path class="cls-8" d="m635.19,1148.71c-5.01-4.08,9.44-2.52,5.69-8.57-3.75-6.04-3.33-5-15.45,0-12.12,5-47,14.84-49.58,19.59-2.59,4.75-1.22,8.09-.18,10.39s4.3-3.22,10.26-5.64c5.97-2.42,49.4-15.66,49.26-15.77Z"/><path class="cls-8" d="m642.82,1203.25s-9.18-52.37-12.44-52.99-7.06-5.46-4.99,4.56c2.07,10.01,12.35,50.13,12.35,50.13,0,0,5.61.82,5.09-1.7Z"/><path class="cls-8" d="m625.93,1208.83s-11.59-49.18-15.04-49.18-5.18-.35-4.31,4.83c.86,5.18,11.9,46.74,11.9,46.74l7.45-2.4Z"/><path class="cls-8" d="m611.28,1214.23s-5.58-5.56-7.65-17.64c-2.07-12.08-6.56-34.53-10.7-32.11s-8.29,4.14-6.56,8.98c1.73,4.83,18.04,42.02,18.04,42.02l6.87-1.25Z"/><path class="cls-8" d="m783.05,1378.71l-203.85-52.26-.71-1.45c-.58-1.18-14.27-29.77-21.71-95.29-7.45-65.64,15.47-140.94,15.7-141.7l1.2-3.89,71.71,34.66,137.65,259.94Zm-198.91-58.22l185.31,47.51-129.17-243.92-62.25-30.08c-4.51,16.15-20.63,79.22-14.3,134.92,6.38,56.14,17.61,85.05,20.4,91.57Z"/><path class="cls-4" d="m685.21,1350.01s-9.38-17.63-6.21-40.56c3.18-22.93-17.68-62.25-54.21-59.85-36.52,2.4-48,73.51-43.79,89.4l104.21,11.01Z"/><path class="cls-8" d="m663.55,1344.46s5.44-22.85-5.05-44.71c-10.5-21.86-12.95-20.19-24.67-28.1-11.72-7.91-18.72,10.87-27.47,13.39-8.76,2.52-23.43,38.38-16.35,48.96l73.55,10.46Z"/><path class="cls-11" d="m642.85,1339.15c5.15-7.05,9.29-18.1,4.11-25.01s-8.96-6-9.83-14.39-12.81-10.83-20.99-2.19c-8.19,8.64-8.85,17.18-16.98,18.09-8.13.91-4.16,19.34-4.16,19.34l47.85,4.15Z"/><path class="cls-11" d="m581.64,1323.46l8.5,7.63-39.85,1.7s-3.23-22.22-1.96-33.03c0,0,18.82-1.62,25.06,0l8.25,23.71Z"/><path class="cls-11" d="m519.97,1332.79s-2.65-2.24-1.62-8.46,1.72-17.69.69-21.27c0,0-7.59,2.63-15.53,1.94s-18.3,3.45-18.3,3.45c0,0-1.73,18.3,0,24.34,0,0,24.64,1.9,34.76,0Z"/><path class="cls-11" d="m548.33,1299.76s-10.64,2.83-16.16,2.14c-5.52-.69-13.12,1.17-13.12,1.17,0,0,1.38-6.41,0-13.8-1.38-7.39,0-19.54,0-19.54,0,0,17.93-8.79,28.99-7.3,0,0-1.84,26.57.3,37.33Z"/><path class="cls-3" d="m485.21,1308.45s2.07-22.44,3.11-24.86c0,0-12.77,4.49-16.23,3.8l-7.19,24.81s15.82-2.37,20.31-3.75Z"/><path class="cls-11" d="m488.32,1283.59s12.24-3.64,13.89-6.83,16.84-7.04,16.84-7.04c0,0,3.25-20.8,1.97-40.41,0,0-4.73-2.34-11.64,1.11-6.91,3.45-16.92,8.98-16.92,8.98,0,0-3.11,37.98-4.14,44.19Z"/><path class="cls-11" d="m521.02,1229.31s21.48,2.52,24.6-.78c0,0,1.37-18.09,0-23.46-1.37-5.38-1.71-24.71-1.71-24.71,0,0-8.62,5.31-13.46,5.07s-12.01,4.45-12.01,4.45l2.58,39.43Z"/><path class="cls-11" d="m492.46,1239.4s5.31-16.18,4.9-34.33l-12.49,39.51,7.6-5.18Z"/><path class="cls-11" d="m545.62,1228.54s9.64-4.67,13.8-8.47l5.69,42.89s-3.6-2.15-8.09-1.46-8.99.93-8.99.93c0,0-2.77-25.07-2.41-33.89Z"/><path class="cls-11" d="m518.43,1189.89s-17.55,9.86-21.07,15.19l15.57-45.43s7.73-1.93,9.17-6.31c0,0-3.59,34-3.66,36.56Z"/><path class="cls-11" d="m543.9,1180.36s1.73-14.5,1.04-22.44.16-19.21.16-19.21c0,0,7.09-1.5,10.88-7.72s11.93-10.1,11.93-10.1c0,0-7.22,39.43-6.99,43.41,0,0-4.08,1.86-6.93,6.37s-6.99,10.04-10.1,9.69Z"/><path class="cls-11" d="m545.1,1138.71s-10.33.55-13.19,4.19c-2.86,3.63-9.82,10.44-9.82,10.44,0,0,2.01-9.82,0-13.66,0,0,5.58-15.58,8.34-17.66,2.76-2.07,10.01-26.24,10.01-26.24,0,0,5.87-4.14,10.7-4.14,0,0,1.38,11.05-2.07,22.1-3.45,11.05-3.98,24.98-3.98,24.98Z"/><path class="cls-11" d="m551.15,1091.63s5.91-.49,9.69,2.34c3.78,2.84,15-4.93,15-4.93l6.86-30.57s-7.03,2.43-10.14,6.23c-3.11,3.8-8.63,5.18-10.01,4.14-1.38-1.04-6.64.06-6.64.06,0,0-.61,9.96-4.76,22.73Z"/><path class="cls-11" d="m555.91,1068.9s-4.76,1.33-6.83,3.4l4.71-13.82,8.45-3.18-6.33,13.61Z"/><path class="cls-7" d="m679,1189.69v-56.77s-26.28-6.55-36.15-11.49l36.15,68.26Z"/><path class="cls-11" d="m728.44,1208.5l-9.49,5.73s-9.41-23.84-17.65-25.75-16.09-14.58-16.09-14.58l11.59-8.84,10.03,16.73,8.33-20.43-27.16-5.81,1.27-14.21,24.25,8.49,8.5-27.36,12.13,11.96-15.19,19.82,11.91,7.63,16.74,3.18s-1.44-7.52,1.44-11.74l-5.77,4.85-13.06-4.85,11.54-18.91s10.48,14.25,17.92,14.13c0,0,3.95,17.34,0,18.97s-9.72,7.59-9.72,7.59c0,0,6.46,2.7-2.35,7-8.8,4.3-7.58-.19-7.68-6.23-.09-6.04-8.01,10.07-14.58-5.75l-6.4,7.73-4.84,14.18,9.55,4.04,4.78,12.42Z"/></g><path class="cls-8" d="m866.18,1172.39s-72.74-563.31-82.96-638.88c-10.23-75.57-2.92-137.69-63.22-141.35s-243.02-12.79-306.97-16.45c-63.95-3.65-113.29,7.31-109.63,49.33,3.65,42.03,42.94,37.46,46.59,33.8,3.65-3.65,7.5-3.6-1.73-10.02-9.23-6.42-11.06-21.04-.1-37.48,10.96-16.44,67.61-21.93,87.71,7.31,20.1,29.24,1.83,69.43-7.31,89.53-9.14,20.1-34.72,27.41-105.98,14.62-71.26-12.79-95.02-38.37-87.71-80.4,7.31-42.03,7.31-105.98,107.81-111.46,100.5-5.48,454.98,3.65,498.83,12.79,43.85,9.14,29.24,37.09,28.32,99.58l-3.65,729.06Z"/><path class="cls-8" d="m244,525.76s-65.25,820.24-32.62,820.24,54.62-760.47,32.62-820.24Z"/><path class="cls-7" d="m410.73,636.01s-6.26,8.71,0,8.27c6.26-.44,17.22-.44,15.66-11.4-1.57-10.96-21.92-20.35-39.14-7.83-17.22,12.52-18.79,46.22,0,56.77,18.79,10.55,54.8,13.68,67.32-16.06,12.52-29.75,10.18-83.76-63.41-82.19-73.58,1.57-70.45,62.62-65.75,76.71,4.7,14.09,56.36,75.15,122.12,26.61,0,0-43.84,23.48-68.89,4.7-25.05-18.79-15.66-72.02,10.96-76.71,26.61-4.7,46.97,7.83,43.84,21.92-3.13,14.09-10.96,31.31-36.01,23.48-25.05-7.83,6.26-28.18,13.31-24.27Z"/><path class="cls-8" d="m447.52,686.89s33.62-41.89,65.74-46.39c32.11-4.5,41.23,7.05,45.28,23.19,4.05,16.15,25.97,45.89,58.85,19.28,32.88-26.61,3.13-42.27-3.13-40.71s-16.44,13.31.78,13.31c0,0,4.7,18.79-21.92,17.22-26.61-1.57-40.95-61.12-1.69-89.27s122.24-17.19,134.76,50.13c12.52,67.32-1.57,93.94-53.23,100.2-51.66,6.26-84.54,6.26-122.12-43.84-37.57-50.1-103.33-3.13-103.33-3.13Z"/><path class="cls-8" d="m451.05,606.05s37.96,3.35,39.52-24.83c1.57-28.18,6.26-73.58,65.75-64.19,59.49,9.39,71.29,82.91,12.94,98.6-58.35,15.69-44.37-27.87-40.01-39.36,4.36-11.49,35.68-27.14,43.5-11.49s-9.39,17.22-14.09,7.83c0,0-9.39,15.66,4.7,20.35,14.09,4.7,35.6-14.4,25.63-32.25-9.97-17.85-36.59-30.37-55.37-5.32-18.79,25.05-35.21,101.33-82.58,50.66Z"/><path class="cls-7" d="m657.5,492.76s-1.41,4.7-22.62,0c-21.21-4.7-103.32,16.82-101.41,82.77,1.92,65.96,82.42,38.64,102.44,12.37,20.02-26.26,54.74-51.85,82.78-33.58,28.04,18.27,102.82,69.23,188.33,33.58,85.51-35.66,38.17-101.85,0-103.98-38.17-2.13-67.92,13.53-74.18-14.65-6.26-28.18-36.36-63.29-88.63-62.96-52.27.33-63.42,40.47-67.24,54.84-3.82,14.37-19.48,31.6-19.48,31.6Z"/><path class="cls-5" d="m636.36,521.56s-16.49,9.62-6.87,15.12c9.62,5.5,24.2,2.69,31.34-19.96,7.14-22.65-14.99-34.14-51.34-16.03-36.35,18.12-53.92,65.6-23.15,76.9,30.78,11.3,44.52,3.06,65.13-14.81,20.61-17.87,57.41-39.24,92.61-11.38,35.2,27.87,143.99,32.6,163.81,0,19.81-32.6,1.11-68.84-44.51-59.65-45.62,9.19-59.7,7.59-55.41,18.7,4.29,11.1,2.92,30.34-46.56,12.48-49.47-17.87-4.12-53.6,10.99-50.85s20.61,9.62,13.74,9.62-27.65,10.88-14.51,22.62c13.14,11.74,44.75,4.87,40.63-26.74-4.12-31.61-28.86-59.09-76.96-52.22-48.1,6.87-46.73,63.22-60.47,70.09-13.74,6.87,9.01,37.72-36.72,55.96-45.74,18.25-41.61-24.36-27.87-31.23,13.74-6.87,24.74-8.25,26.11,1.37Z"/><path class="cls-5" d="m440.67,738.35c-10.31,30.03-20.8,75.53-60.05,50.13-39.25-25.4-173.17-36.94-200.87,32.32-27.71,69.27-2.31,147.77,83.12,129.3,85.43-18.47,106.21-39.25,136.22-4.62,30.02,34.63,110.72,65.56,116.55,22.39,5.82-43.17,5.75-79.49,23.1-77.49,17.35,1.99,38.13,20.47,72.77,38.94,34.63,18.47,113.14,34.63,133.92-39.25,20.78-73.88-4.62-96.97-34.63-115.44-30.02-18.47-46.18-11.54-73.88-16.16-27.71-4.62-4.62-25.4-30.02-46.18-25.4-20.78-131.57-74.87-166.22,26.06Z"/><path class="cls-8" d="m666.81,818.83s33.63,21.54-8.23,40.63c-41.86,19.08-41.86-54.11-24.52-67.6,17.34-13.48,40.68-26.97,76.2,0,35.52,26.97,25.89,113.65-20.34,125.21-46.23,11.56-121.36-15.41-127.14-53.94-5.78-38.53,15.82-96.47,55.11-95.43,39.28,1.04-17.99,14.04-21.14,36.44-3.15,22.4.7,55.14,33.45,66.7,32.75,11.56,59.71,7.71,59.71-13.48s-5.78-48.16-23.12-38.53Z"/><path class="cls-11" d="m474.3,774.32s11.54-17.31,19.23-15.39c7.69,1.92,13.46,19.23,3.85,26.93-9.62,7.69-26.98,20.78-41.38,11.35-14.4-9.43-20.87-43.4,10.26-73.54,31.12-30.14,71.52-16.68,84.98-3.21,13.46,13.46,13.46,34.62-7.69,59.63-21.16,25.01-32.7,48.09-25.01,67.32,7.69,19.23,19.9,19.1,3.22,46.09-16.68,27-5.14,59.7-43.61,61.62-38.47,1.92-53.86-28.85-53.86-28.85,0,0,46.16,26.93,61.55,13.46,15.39-13.46-.32-19.92,6.57-33.04,6.89-13.12,18.43-9.28,12.66-34.28-5.77-25.01-15.23-52.42,2.96-70.45,18.2-18.03,33.58-41.11,18.2-56.5-15.39-15.39-53.86,0-51.93,28.85Z"/><path class="cls-7" d="m399.29,849.89c-6.41,15.59-36.45,17.24-38.18-9.4-1.74-26.64,43.46-30.25,61.53-23.02,18.08,7.23,43.39,52.42,9.04,81.35-34.35,28.92-43.39,5.42-59.66,5.42s-32.54,18.08-37.96,1.81c-5.42-16.27,18.08-37.96,30.73-30.73,12.65,7.23,36.15,21.69,39.77-1.81,3.62-23.5-1.51-32.78-5.27-23.62Z"/><path class="cls-11" d="m334.44,793.1c-11.89-11.89-27.71,2.31-30.02,20.78-2.31,18.47-25.4,27.71-20.78,36.94,4.62,9.24,24.79,11.2,25.09-7.1s.3-27.54,14.16-25.23c13.85,2.31,23.09-13.85,11.54-25.4Z"/><path class="cls-11" d="m332.13,850.83c-4.43-5.32-15.89.43-14.87,11.76,1.02,11.33,26.42,2.1,14.87-11.76Z"/><path class="cls-8" d="m209.87,813.21c-3.74,14.22-17.45,26.57,0,33.49,17.45,6.92,42.25-31.2,31.23-39.47-11.02-8.27-28.93-2.76-31.23,5.97Z"/><path class="cls-6" d="m213.79,816.83c-2.58,9.82-12.05,18.35,0,23.13,12.05,4.78,29.18-21.55,21.57-27.26-7.61-5.71-19.98-1.9-21.57,4.12Z"/><path class="cls-10" d="m218.2,822.32c-1.28,4.86-5.97,9.08,0,11.45,5.97,2.37,14.44-10.66,10.68-13.49-3.77-2.83-9.89-.94-10.68,2.04Z"/><path class="cls-8" d="m192.15,861.58c-7.85,9.28-9.99,47.43,4.99,49.93,14.98,2.5,26.29-5.6,25.38-31.26-.91-25.66-19.39-31.65-30.37-18.67Z"/><path class="cls-6" d="m196.19,868.58c-5.34,6.31-6.79,32.24,3.39,33.94,10.18,1.7,17.87-3.81,17.25-21.25-.62-17.44-13.18-21.51-20.64-12.69Z"/><path class="cls-10" d="m200.26,875.46c-2.87,3.39-3.65,17.33,1.82,18.24,5.47.91,9.6-2.04,9.27-11.42-.33-9.37-7.08-11.56-11.09-6.82Z"/><path class="cls-10" d="m627.59,746.38s37.75-11.2,27.63-37.69c-10.12-26.48-15.14-58.37,21.68-65.03,36.82-6.66,44.07,26.94,42.68,35.3-1.38,8.36-12.49,25.25-25.33,23.24-12.84-2.01-12.38-25.4-5.13-29.38,7.25-3.98,17.23,8.25,4.54,11.49,0,0-1.19,10.8,12.36,2.73,13.55-8.07,1.68-40.04-23.58-33.78-25.26,6.27-24.6,27.28-19.12,41.2,5.48,13.92,14.43,43.75-35.75,51.92Z"/><path class="cls-7" d="m509.28,42.89c-120.28,53.55-235.03,97.49-223.72,227.3,11.31,129.81,415.38,158.51,508.91,65.28,93.54-93.23-55.45-394.86-285.2-292.58Z"/><path class="cls-10" d="m402.38,274.27v-2l3.81-.76c2.67-.57,4.01-2.13,4.01-4.67v-39.39c0-4.45-.03-8.9-.1-13.35h-7.53c-2.04,0-3.53.54-4.48,1.62-.95,1.08-1.91,2.61-2.86,4.58l-3.34,7.06h-2.67l.48-16.12h54.74l.48,16.12h-2.67l-3.34-7.06c-.95-1.97-1.91-3.5-2.86-4.58-.96-1.08-2.45-1.62-4.48-1.62h-7.63v52.74c0,2.61,1.34,4.17,4.01,4.67l3.91.76v2h-29.47Z"/><path class="cls-10" d="m445.48,274.27v-1.81l1.43-.48c1.27-.32,2.15-.86,2.62-1.62.48-.76.71-1.78.71-3.05v-27.94c-.06-1.4-.32-2.46-.76-3.19-.45-.73-1.3-1.22-2.58-1.48l-1.43-.38v-1.72l15.54-5.53,1.14,1.05.86,8.39v.67c.95-1.78,2.16-3.43,3.62-4.96,1.46-1.53,3.05-2.77,4.77-3.72,1.72-.95,3.43-1.43,5.15-1.43,2.42,0,4.23.64,5.44,1.91,1.21,1.27,1.81,2.89,1.81,4.86,0,2.16-.6,3.8-1.81,4.91-1.21,1.11-2.67,1.67-4.39,1.67-2.54,0-4.74-1.14-6.58-3.43l-.19-.19c-.64-.76-1.35-1.19-2.15-1.29-.8-.1-1.57.3-2.34,1.19-.64.64-1.23,1.38-1.76,2.24-.54.86-1.03,1.86-1.48,3v24.99c0,1.21.25,2.21.76,3,.51.8,1.37,1.35,2.57,1.67l2.86.86v1.81h-23.84Z"/><path class="cls-10" d="m498.89,275.61c-3.62,0-6.69-1.03-9.2-3.1-2.51-2.07-3.77-5.04-3.77-8.92,0-3.05,1.48-5.87,4.43-8.44,2.96-2.57,7.61-4.47,13.97-5.67,1.08-.25,2.34-.49,3.77-.72,1.43-.22,2.84-.46,4.24-.72v-6.77c0-4.32-.54-7.31-1.62-8.96-1.08-1.65-2.8-2.48-5.15-2.48h-.29c-1.46,0-2.62.46-3.48,1.38-.86.92-1.42,2.43-1.67,4.53l-.29,1.24c-.19,2.54-.86,4.4-2,5.58-1.14,1.18-2.58,1.76-4.29,1.76-1.59,0-2.91-.49-3.96-1.48-1.05-.98-1.57-2.27-1.57-3.86,0-2.61.89-4.8,2.67-6.58,1.78-1.78,4.15-3.11,7.11-4.01,2.96-.89,6.15-1.34,9.58-1.34,5.66,0,9.98,1.37,12.97,4.1,2.99,2.73,4.48,7.19,4.48,13.35v21.27c0,2.73,1.3,4.1,3.91,4.1h2.19l.95,1.05c-1.14,1.46-2.42,2.59-3.82,3.39-1.4.79-3.31,1.19-5.72,1.19-2.73,0-4.91-.65-6.53-1.96s-2.69-3.04-3.2-5.2c-2.04,2.16-4.04,3.91-6.01,5.25-1.97,1.33-4.55,2-7.73,2Zm5.53-6.1c1.27,0,2.48-.29,3.62-.86s2.58-1.53,4.29-2.86v-15.26c-1.65.25-3.34.57-5.05.95-2.73.64-4.94,1.81-6.63,3.53-1.69,1.72-2.53,4.04-2.53,6.96,0,2.54.59,4.43,1.76,5.67,1.18,1.24,2.69,1.86,4.53,1.86Z"/><path class="cls-10" d="m553.25,274.56l-16.79-40.34c-.7-1.78-1.94-2.92-3.72-3.43l-2-.48v-1.81h24.13v1.81l-2.48.57c-2.04.51-2.64,1.81-1.81,3.91l10.01,26.61,9.35-26.42c.32-1.08.4-1.96.24-2.62-.16-.67-.78-1.13-1.86-1.38l-2.77-.67v-1.81h14.5v1.81l-3.15.76c-1.84.45-3.08,1.59-3.72,3.43l-14.4,40.06h-5.53Z"/><path class="cls-10" d="m603.99,227.06c4,0,7.44.83,10.3,2.48,2.86,1.65,5.07,3.93,6.63,6.82,1.56,2.89,2.34,6.22,2.34,9.97,0,.83-.03,1.61-.1,2.34-.06.73-.19,1.42-.38,2.05h-28.71c.06,6.55,1.29,11.25,3.67,14.11,2.38,2.86,5.87,4.29,10.44,4.29,3.18,0,5.75-.52,7.72-1.57,1.97-1.05,3.78-2.53,5.44-4.43l1.53,1.43c-1.91,3.5-4.5,6.22-7.77,8.15-3.28,1.94-7.17,2.91-11.68,2.91s-8.49-.95-11.92-2.86-6.12-4.66-8.06-8.25c-1.94-3.59-2.91-7.9-2.91-12.92s1.13-9.63,3.38-13.26c2.26-3.62,5.18-6.4,8.77-8.34,3.59-1.94,7.36-2.91,11.3-2.91Zm-.48,2.77c-1.84,0-3.45.52-4.82,1.57-1.37,1.05-2.45,2.89-3.24,5.53-.8,2.64-1.26,6.34-1.38,11.11h17.07c.7-6.42.44-11.06-.76-13.92-1.21-2.86-3.5-4.29-6.87-4.29Z"/><path class="cls-10" d="m626.88,274.27v-1.81l1.43-.38c2.1-.7,3.15-2.29,3.15-4.77,0-2.16.02-4.34.05-6.53.03-2.19.05-4.37.05-6.53v-36.24c0-1.33-.22-2.34-.67-3-.45-.67-1.3-1.16-2.57-1.48l-1.43-.38v-1.81l16.69-4.01,1.24.86-.38,13.45v45.68c.06,1.27.33,2.31.81,3.1.48.8,1.32,1.35,2.53,1.67l1.33.38v1.81h-22.22Z"/><path class="cls-10" d="m677.23,227.06c4.01,0,7.44.83,10.3,2.48,2.86,1.65,5.07,3.93,6.63,6.82,1.56,2.89,2.34,6.22,2.34,9.97,0,.83-.03,1.61-.1,2.34-.06.73-.19,1.42-.38,2.05h-28.71c.06,6.55,1.29,11.25,3.67,14.11,2.38,2.86,5.87,4.29,10.44,4.29,3.18,0,5.75-.52,7.72-1.57,1.97-1.05,3.78-2.53,5.44-4.43l1.53,1.43c-1.91,3.5-4.5,6.22-7.77,8.15-3.28,1.94-7.17,2.91-11.68,2.91s-8.49-.95-11.92-2.86c-3.43-1.91-6.12-4.66-8.06-8.25-1.94-3.59-2.91-7.9-2.91-12.92s1.13-9.63,3.39-13.26c2.26-3.62,5.18-6.4,8.77-8.34,3.59-1.94,7.36-2.91,11.3-2.91Zm-.48,2.77c-1.85,0-3.45.52-4.82,1.57-1.37,1.05-2.45,2.89-3.24,5.53-.8,2.64-1.26,6.34-1.38,11.11h17.07c.7-6.42.44-11.06-.76-13.92-1.21-2.86-3.5-4.29-6.87-4.29Z"/><path class="cls-10" d="m701.36,274.27v-1.81l1.43-.48c1.27-.32,2.15-.86,2.62-1.62.48-.76.71-1.78.71-3.05v-27.94c-.06-1.4-.32-2.46-.76-3.19-.45-.73-1.3-1.22-2.58-1.48l-1.43-.38v-1.72l15.54-5.53,1.14,1.05.86,8.39v.67c.95-1.78,2.16-3.43,3.62-4.96,1.46-1.53,3.05-2.77,4.77-3.72,1.72-.95,3.43-1.43,5.15-1.43,2.42,0,4.23.64,5.44,1.91,1.21,1.27,1.81,2.89,1.81,4.86,0,2.16-.6,3.8-1.81,4.91-1.21,1.11-2.67,1.67-4.39,1.67-2.54,0-4.74-1.14-6.58-3.43l-.19-.19c-.64-.76-1.35-1.19-2.15-1.29-.8-.1-1.57.3-2.34,1.19-.64.64-1.23,1.38-1.76,2.24-.54.86-1.03,1.86-1.48,3v24.99c0,1.21.25,2.21.76,3,.51.8,1.37,1.35,2.58,1.67l2.86.86v1.81h-23.84Z"/><path class="cls-10" d="m493.19,160.41c0,7.06-1.32,12.54-3.96,16.45-2.64,3.91-6.34,6.63-11.11,8.15-4.77,1.53-10.33,2.29-16.69,2.29h-13.92v-53.69h13.92c6.36,0,11.92,1,16.69,3,4.77,2,8.47,4.98,11.11,8.92,2.64,3.94,3.96,8.9,3.96,14.88Zm-41.29,23.08h10.3c5.28,0,9.9-.6,13.88-1.81,3.97-1.21,7.06-3.46,9.25-6.77,2.19-3.31,3.29-8.14,3.29-14.5,0-5.21-1.1-9.52-3.29-12.92-2.19-3.4-5.28-5.91-9.25-7.53-3.97-1.62-8.6-2.43-13.88-2.43h-10.3v45.97Z"/><path class="cls-10" d="m501.11,187.3v-38.72h3.72l.57,9.92c.63-2.73,2.13-5.07,4.48-7.01,2.35-1.94,5.66-2.91,9.92-2.91h2.1v4.86h-2.1c-4.32,0-7.5.68-9.54,2.05-2.04,1.37-3.35,3.19-3.96,5.48-.6,2.29-.91,4.83-.91,7.63v18.69h-4.29Z"/><path class="cls-10" d="m543.45,188.25c-4.13,0-7.55-.98-10.25-2.96-2.7-1.97-4.72-4.5-6.06-7.58-1.34-3.08-1.97-6.28-1.91-9.58,0-3.43.7-6.64,2.1-9.63,1.4-2.99,3.45-5.39,6.15-7.2,2.7-1.81,5.99-2.72,9.87-2.72,4.83,0,8.82,1.57,11.97,4.72,3.15,3.15,4.91,7.36,5.29,12.64.06.32.1,1.02.1,2.1h-31.28c0,5.09,1.21,9.09,3.62,12.02s5.88,4.39,10.4,4.39c3.24,0,6.05-.86,8.44-2.58s3.86-4.04,4.43-6.96h4.29c-.76,3.94-2.69,7.15-5.77,9.63-3.08,2.48-6.88,3.72-11.4,3.72Zm-13.73-22.79h26.51c-.06-1.65-.53-3.5-1.38-5.53-.86-2.03-2.23-3.81-4.1-5.34-1.88-1.53-4.34-2.29-7.39-2.29-4.2,0-7.41,1.3-9.63,3.91-2.23,2.61-3.56,5.69-4.01,9.25Z"/><path class="cls-10" d="m582.36,188.25c-3.56,0-6.52-.91-8.87-2.72s-4.1-4.23-5.24-7.25c-1.14-3.02-1.72-6.37-1.72-10.06s.59-7.23,1.76-10.25c1.18-3.02,2.94-5.34,5.29-6.96,2.35-1.62,5.28-2.43,8.77-2.43,3.75,0,6.74.84,8.96,2.53,2.22,1.69,3.81,3.88,4.77,6.57l.19-.52v-8.58h4.39v38.72h-3.62l-.76-7.84-.19-.17c-1.02,2.35-2.64,4.44-4.86,6.25s-5.18,2.72-8.87,2.72Zm1.62-4.01c4.07,0,7.12-1.41,9.16-4.24,2.03-2.83,3.05-6.72,3.05-11.68,0-5.28-1.07-9.19-3.2-11.73-2.13-2.54-5.13-3.81-9.01-3.81-4.51,0-7.82,1.45-9.92,4.34-2.1,2.89-3.15,6.6-3.15,11.11s1.08,8.55,3.24,11.54c2.16,2.99,5.44,4.48,9.82,4.48Z"/><path class="cls-10" d="m608.01,187.3v-38.72h3.62l.38,10.3h.19c.19-.57.52-1.41,1-2.53.48-1.11,1.19-2.26,2.15-3.43.95-1.18,2.22-2.19,3.81-3.05,1.59-.86,3.56-1.29,5.91-1.29,2.54,0,4.59.49,6.15,1.48,1.56.99,2.78,2.27,3.67,3.86.89,1.59,1.53,3.24,1.91,4.96h.19c.19-.57.56-1.41,1.1-2.53.54-1.11,1.33-2.26,2.38-3.43,1.05-1.18,2.4-2.19,4.05-3.05,1.65-.86,3.66-1.29,6.01-1.29,2.54,0,4.61.51,6.2,1.53,1.59,1.02,2.83,2.31,3.72,3.86.89,1.56,1.53,3.23,1.91,5.01.38,1.78.6,3.48.67,5.1.06,1.62.09,2.97.09,4.05v19.17h-3.91v-19.26c0-1.08-.05-2.46-.14-4.15-.1-1.68-.45-3.4-1.05-5.15-.61-1.75-1.57-3.21-2.91-4.39-1.34-1.18-3.24-1.76-5.72-1.76-2.73,0-4.96.76-6.68,2.29-1.72,1.53-3,3.53-3.86,6.01-.86,2.48-1.29,5.18-1.29,8.11v18.31h-3.91v-19.26c0-1.08-.05-2.46-.14-4.15-.1-1.68-.45-3.4-1.05-5.15-.61-1.75-1.57-3.21-2.91-4.39-1.33-1.18-3.24-1.76-5.72-1.76-2.73,0-4.96.76-6.68,2.29-1.72,1.53-3,3.53-3.86,6.01-.86,2.48-1.29,5.18-1.29,8.11v18.31h-4.01Z"/><path class="cls-3" d="m225,1159.5s-3.86,98.33,5.78,136.89c9.64,38.56,34.7,90.62,152.31,90.62s439.21,0,458.68,0c19.47,0,60.69-20.63,50.68-87.44-10.01-66.8-33.15-167.06-33.15-159.35,0,7.71,10.6,151.35-53.02,178.34-63.62,26.99-471.4,8.68-506.1-26.03-52.2-52.2-75.19-133.03-75.19-133.03Z"/></svg>