<?xml version="1.0" encoding="UTF-8"?><svg id="Capa_2" xmlns="http://www.w3.org/2000/svg" xmlns:xlink="http://www.w3.org/1999/xlink" viewBox="0 0 1080 1434.5"><defs><style>.cls-1{clip-path:url(#clippath);}.cls-2,.cls-3{fill:none;}.cls-2,.cls-4,.cls-5,.cls-6,.cls-7,.cls-8,.cls-9,.cls-10,.cls-11,.cls-12,.cls-13,.cls-14,.cls-15{stroke-width:0px;}.cls-16{stroke:#000;}.cls-16,.cls-3{stroke-miterlimit:10;}.cls-16,.cls-14{fill:#03b083;}.cls-3{stroke:#f9dc5c;}.cls-4{fill:#f9dc5c;}.cls-5{fill:#48bcc4;}.cls-6{fill:#95c1cc;}.cls-7{fill:#0c6b86;}.cls-8{fill:#064862;}.cls-9{fill:#168da2;}.cls-10{fill:#c8b8db;}.cls-11{fill:#97de00;}.cls-12{fill:#fff;}.cls-13{fill:#f26157;}.cls-15{fill:#011720;}</style><clipPath id="clippath"><rect class="cls-2" x="254" y="375.5" width="170" height="883"/></clipPath></defs><rect class="cls-15" x="253.94" y="375.71" width="594.81" height="956.79"/><path class="cls-16" d="m840.83,859.53c.66.43,1.2.62,1.2.62,0,0-.42-.31-1.2-.62Z"/><path class="cls-16" d="m880.03,809.32c-3.54-5.52,0-6.95,0-6.95,0,0,4.25-4.75,0-4.67-4.25.09-5.19-6.46-5.43-10.54-.24-4.08-3.54-4.65-6.37-6.35-2.83-1.7,0-4.19,0-4.19l-9.68-5.44-8.02-1.42v-5.66s-6.14,3.78-9.2,4.48-6.14-5.66-6.14-5.66l-6.84,5.43-2.83-3.07-4.48,2.6-2.6-4.96s-6.61,12.98-11.76,9.68c-2.92-1.87-3.83-2.3-4.97-2.07-3.16-7.77,2.48-9.76,1.63-9.97-.94-.24-.94-5.66-.94-9.91s-3.78-11.56-3.78-11.56l8.06-3.07c-.2-4.25-2.4-11.8-2.4-11.8,0,0,6.61-2.12,6.61-5.9s14.16-21.71,14.16-21.71l-6.37.24s4.25-7.08,7.08-10.86c2.83-3.78-1.89-5.66-.47-11.8,1.42-6.14,0-6.61,0-6.61l2.36-9.91,7.32-15.34-6.61.71c3.78-5.43,1.65-19.82,1.65-19.82,0,0-2.6-4.01-2.6-8.5s-3.07-13.45-3.07-13.45l-4.96-3.54-.24,5.43,4.96,8.97-1.65,4.72,1.65,7.32-4.48,2.83,4.96,15.57-4.96,4.72c1.42,2.6-3.07,12.04-3.07,12.04h-6.84s0,7.32,1.18,9.91c1.18,2.6,0,12.04,0,12.04l-5.43,2.6c0,5.9-6.37,9.44-6.37,9.44l-3.07-2.6s-14.16,19.35-12.51,25.25c1.65,5.9.94,10.86-3.07,12.51-4.01,1.65.94,14.4.94,14.4l-9.44,1.65-.94,6.84-6.61,1.42s-3.07,2.36-3.07,6.84-3.83,18.88-3.83,18.88l-4.67-3.54c-1.18,3.54,4.67,21.47,4.67,21.47l2.7,4.14-5.48,1.8,2.12,6.48-8.5,2.92,1.65,5.19c-1.89-1.41-7.08,0-7.08,0-18.08,31.46-3.85,57.05-3.85,57.05,25.07-5.49,38.44-22.65,38.44-22.65,0,0,1.92-10.5,2.12-15.46.04-1.05.63-2.17,1.52-3.28l1.18,1.8,6.14.24-.47,9.66s7.55.25,8.02-2.58c.47-2.83,3.78-3.38,3.78-3.38,0,0,4.72-2.76,4.72,0s2.12,1.26,1.18,4.56c-.94,3.3,1.18,2.83-.47,5.66-1.65,2.83,0,6.37,0,6.37l5.66-1.42.71-9.22s1.89-.45,3.54,1.91,1.18,3.06,4.96,3.06,3.78.71,4.48,3.07,2.36,1.42,4.96,1.65c2.6.24,1.89,5.43,6.14,4.96,2.42-.27,4.13.15,5.17.56-1.03-.67-2.34-1.95-2.34-4.1,0-3.54,4.48-1.65,6.61-1.65s3.3-.94,5.19,1.18c1.89,2.12,7.79,3.07,7.08.71s1.65-8.5,4.48-9.44c2.83-.94.47,10.55.47,10.55,0,0,4.72-10.32,7.5-10.55,2.78-.23,3.12-8.26,5.95-7.87,2.83.4,3.3-6.53,3.3-11.81s2.6-3.45,5.66-3.45-1.18-8.26-4.72-13.78Zm-26.43,13.78s-6.37-.24-11.56-.71c-5.19-.47,1.18,6.37-1.65,6.65-2.83.28-11.56,0-11.56,0l-5.66-12.08-1.42,4.04-8.73-1.92-2.36-9.77s-.13-1.98-.43-5.03c3.54-.15,6.33.41,6.33.41-1.89-3.3-3.07-7.08,1.18-6.99,4.25.09,8.26,5.17,8.26,5.17l8.02-1.72-3.78-3.45c8.97-1.8,18.17,3.45,18.17,3.45l.24,8.17,7.08-.47c.71,3.45-2.12,14.25-2.12,14.25Z"/><path class="cls-8" d="m858.54,768.28s-21-324-68-356-178.96-43.42-220.48-48.21c0,0-1.52-10.79,29.48-11.79s221.06-25,239.53,0c18.47,25,44.47,299,19.47,416Z"/><polygon class="cls-4" points="833.72 470.86 681.34 452.41 695.23 442.52 556.6 438.68 563.64 429.92 452.92 410.96 590.88 417.78 580.44 427.45 716.45 422.81 703.38 435.38 830.5 421.08 833.72 470.86"/><path class="cls-13" d="m845.03,509.5s-95.26,4.88-129.21-1.8c-33.95-6.68-98.92-27.04-115.76-25.26-16.84,1.78-66.88-7.09-100.6-20.14-33.71-13.04-52.44-19.1-70.74-7.88-18.3,11.22-14.22,69.08-5.26,68.5,8.96-.58,90.38,1.28,92.12-11.91s2.43-28.81-18.21-32.66-49.63-13.4-53.33-1.05c-3.7,12.35,3.46,29.82,12.37,27.02,8.92-2.8,8.1-10.01,5.35-9.83-2.76.18-10.08-.73-8.03-6.4s22.02-7.3,24.91,5.31c2.89,12.61-23.7,24.66-51.09,12.79,0,0-5-45.49,11.47-47.59,16.47-2.1,76.58,7.19,89,25.4,12.42,18.21,19.87,41.95,1.77,45.89-18.1,3.94-131.92,14.76-132.79,1.32s7.55-86.63,26.85-93.07,56.1,3.35,98.62,20.29c42.52,16.94,110.93,11.45,117.3,15.72,6.37,4.27,19.15,9.33,28.18,9.78s68.7,19.08,84.76,15.97c16.06-3.11,92.3,9.6,92.3,9.6Z"/><path class="cls-7" d="m457.73,631.51s-6.26,8.71,0,8.27c6.26-.44,17.22-.44,15.66-11.4-1.57-10.96-21.92-20.35-39.14-7.83-17.22,12.52-18.79,46.22,0,56.77s54.8,13.68,67.32-16.06c12.52-29.75,10.18-83.76-63.41-82.19-73.58,1.57-70.45,62.62-65.75,76.71,4.7,14.09,56.36,75.15,122.12,26.61,0,0-43.84,23.48-68.89,4.7-25.05-18.79-15.66-72.02,10.96-76.71,26.61-4.7,46.97,7.83,43.84,21.92-3.13,14.09-10.96,31.31-36.01,23.48-25.05-7.83,6.26-28.18,13.31-24.27Z"/><path class="cls-8" d="m494.52,682.39s33.62-41.89,65.74-46.39c32.11-4.5,41.23,7.05,45.28,23.19,4.05,16.15,25.97,45.89,58.85,19.28,32.88-26.61,3.13-42.27-3.13-40.71-6.26,1.57-16.44,13.31.78,13.31,0,0,4.7,18.79-21.92,17.22-26.61-1.57-40.95-61.12-1.69-89.27,39.26-28.15,122.24-17.19,134.76,50.13,12.52,67.32-1.57,93.94-53.23,100.2-51.66,6.26-84.54,6.26-122.12-43.84-37.57-50.1-103.33-3.13-103.33-3.13Z"/><path class="cls-6" d="m498.05,601.55s37.96,3.35,39.52-24.83c1.57-28.18,6.26-73.58,65.75-64.19,59.49,9.39,71.29,82.91,12.94,98.6-58.35,15.69-44.37-27.87-40.01-39.36,4.36-11.49,35.68-27.14,43.5-11.49,7.83,15.66-9.39,17.22-14.09,7.83,0,0-9.39,15.66,4.7,20.35,14.09,4.7,35.6-14.4,25.63-32.25-9.97-17.85-36.59-30.37-55.37-5.32-18.79,25.05-35.21,101.33-82.58,50.66Z"/><path class="cls-7" d="m704.5,488.26s-1.41,4.7-22.62,0c-21.21-4.7-103.32,16.82-101.41,82.77,1.92,65.96,82.42,38.64,102.44,12.37,20.02-26.26,54.74-51.85,82.78-33.58,28.04,18.27,102.82,69.23,188.33,33.58,85.51-35.66,38.17-101.85,0-103.98-38.17-2.13-67.92,13.53-74.18-14.65-6.26-28.18-36.36-63.29-88.63-62.96-52.27.33-63.42,40.47-67.24,54.84-3.82,14.37-19.48,31.6-19.48,31.6Z"/><path class="cls-5" d="m683.36,517.06s-16.49,9.62-6.87,15.12,24.2,2.69,31.34-19.96c7.14-22.65-14.99-34.14-51.34-16.03-36.35,18.12-53.92,65.6-23.15,76.9,30.78,11.3,44.52,3.06,65.13-14.81,20.61-17.87,57.41-39.24,92.61-11.38,35.2,27.87,143.99,32.6,163.81,0,19.81-32.6,1.11-68.84-44.51-59.65-45.62,9.19-59.7,7.59-55.41,18.7,4.29,11.1,2.92,30.34-46.56,12.48-49.47-17.87-4.12-53.6,10.99-50.85,15.12,2.75,20.61,9.62,13.74,9.62s-27.65,10.88-14.51,22.62c13.14,11.74,44.75,4.87,40.63-26.74-4.12-31.61-28.86-59.09-76.96-52.22-48.1,6.87-46.73,63.22-60.47,70.09-13.74,6.87,9.01,37.72-36.72,55.96-45.74,18.25-41.61-24.36-27.87-31.23,13.74-6.87,24.74-8.25,26.11,1.37Z"/><path class="cls-15" d="m674.59,741.88s37.75-11.2,27.63-37.69c-10.12-26.48-15.14-58.37,21.68-65.03,36.82-6.66,44.07,26.94,42.68,35.3-1.38,8.36-12.49,25.25-25.33,23.24-12.84-2.01-12.38-25.4-5.13-29.38,7.25-3.98,17.23,8.25,4.54,11.49,0,0-1.19,10.8,12.36,2.73,13.55-8.07,1.68-40.04-23.58-33.78-25.26,6.27-24.6,27.28-19.12,41.2,5.48,13.92,14.43,43.75-35.75,51.92Z"/><path class="cls-15" d="m758.57,818.73s-1.78-10.92,11.69-14.23c0,0,5.27,9.24-11.69,14.23Z"/><path class="cls-15" d="m778.25,815.82s-.74-6.29,2.4-9.06c3.14-2.77,4.99-2.26,4.99-2.26,0,0,2.77,4.22,0,5.64-2.77,1.43-7.4,5.68-7.4,5.68Z"/><path class="cls-15" d="m778.17,796.4s1.79-8.69,4.35-8.69,7.56-2.77,7.56-2.77c0,0,1.48,5.92-1.48,7.77s-6.44,4.44-10.43,3.7Z"/><path class="cls-15" d="m796.93,781.05s2.4-3.7,6.47-3.88c4.07-.18,7.95,0,8.88-1.66,0,0-2.22,7.58-7.68,7.77s-6.01-2.22-7.68-2.22Z"/><path class="cls-15" d="m794.89,798.81s1.29-6.16,7.77-8.07,7.21,0,7.21,0c0,0-1.66,5.67-5.27,6.41-3.61.74-8.97-.37-9.71,1.66Z"/><path class="cls-15" d="m810.88,718.32s-2.18,4.05-6.28,3.29-7.55-10.45,2.07-27.52c9.62-17.07,13.92-20.35,18.4-16.54,0,0,1.85,3.65,2.02,5.14s.26,1.65-3.24,5.99c-3.5,4.34-3.59,7.58-3.59,7.58l4.78.35-14.16,21.71Z"/><path class="cls-15" d="m826.42,783.92c-4.26,0-6.27-4.36-6.3-4.41l.52-.23c.1.22,2.54,5.46,7.83,3.74,5.5-1.79,7.98-9.01,7.98-10.66v-.31l15.18,1.38-4.28-7.48.49-.28,4.82,8.43-15.66-1.42c-.23,2.34-2.86,9.1-8.35,10.89-.8.26-1.54.37-2.22.37Z"/><path class="cls-15" d="m871.61,790.08c-.72,0-1.5-.16-2.22-.65-.83-.55-2.18-.81-3.74-1.11-2.08-.4-4.44-.85-6.46-2.15-3.91-2.51-7.44-2.82-11.1-.99-2.3,1.15-4.53,1.35-6.26.55-1.34-.61-2.29-1.8-2.67-3.34-.76-3.04-3.39-6.39-6.77-6.62-3.54-.24-6.48-6.94-6.6-7.23l.52-.22c.03.07,2.92,6.67,6.12,6.89,2.79.19,6.19,2.67,7.28,7.05.35,1.39,1.16,2.41,2.36,2.96,1.58.73,3.63.53,5.77-.54,3.86-1.93,7.56-1.61,11.66,1.02,1.93,1.24,4.23,1.68,6.26,2.07,1.62.31,3.03.58,3.95,1.19,1.84,1.23,4.2,0,4.23-.01l.27.5c-.07.04-1.21.63-2.58.63Z"/><path class="cls-15" d="m881.72,816.02s-1.69-1.65-6.22-2.62c-2.14-.46-3.82-.53-5.6-.6-2.11-.09-4.28-.18-7.46-.91-4.2-.96-4.77-5.39-5.27-9.29-.22-1.72-.43-3.34-.94-4.41-1.35-2.84-3.95-2.79-7.87-2.71-.67.01-1.36.03-2.09.03-3.41,0-5.81-1.46-8.36-3.01-1.32-.8-2.69-1.63-4.31-2.35-1.06-.47-2.02-.48-2.87-.05-2.26,1.17-3.09,5.14-3.09,5.18l-.56-.11c.03-.17.89-4.28,3.39-5.57,1.01-.52,2.14-.51,3.36.03,1.65.74,3.04,1.58,4.37,2.39,2.58,1.57,4.81,2.93,8.06,2.93.72,0,1.41-.01,2.07-.03,3.99-.08,6.88-.14,8.39,3.03.55,1.15.76,2.82.99,4.58.48,3.72,1.03,7.94,4.84,8.81,3.13.72,5.28.81,7.36.89,1.8.08,3.5.15,5.69.62,4.71,1.01,6.43,2.7,6.5,2.77l-.4.4Z"/><path class="cls-15" d="m844.29,798.28l-.36-.44s3.59-2.97,3.75-5.82c.15-2.75,4.39-4.05,7.49-4.99.52-.16,1-.31,1.41-.45,2.57-.88,7.61-7.57,7.66-7.64l.45.34c-.21.28-5.2,6.9-7.93,7.83-.41.14-.9.29-1.42.45-2.77.85-6.96,2.13-7.09,4.48-.17,3.1-3.8,6.1-3.95,6.23Z"/><path class="cls-15" d="m871.79,789.12c-1.82,0-4.06-2.98-6.24-5.88-.46-.61-.89-1.19-1.32-1.74-2.67-3.42-12.1-7.45-12.2-7.49l.22-.52c.39.17,9.66,4.14,12.42,7.67.43.55.87,1.13,1.33,1.75,2.29,3.05,4.89,6.51,6.39,5.46l.32.46c-.29.21-.6.3-.93.3Z"/><path class="cls-15" d="m873.11,838.87c-.12-.21-3.02-5.29-2.85-8.19.18-3.08.09-7.44-2.74-9.81-1.34-1.12-1.91-2.14-1.75-3.12.21-1.25,1.59-2.33,4.34-3.39,1.43-.55,3.05-2.49,2.89-6.14-.1-2.26-1.03-4.77-2.86-5.3-2.49-.71-2.53-1.95-2.58-3.16-.03-.77-.06-1.51-.72-2.17-1.92-1.92-1.92-3.37-1.92-6.86s3.61-7.14,3.77-7.29l.4.4s-3.6,3.57-3.6,6.89,0,4.7,1.76,6.46c.83.83.86,1.74.89,2.55.04,1.14.08,2.04,2.17,2.64,2.11.6,3.16,3.35,3.27,5.82.11,2.47-.67,5.7-3.25,6.7-2.51.97-3.82,1.93-3.99,2.95-.12.75.4,1.63,1.56,2.59,3.03,2.53,3.13,7.07,2.95,10.27-.16,2.73,2.75,7.82,2.78,7.87l-.49.28Z"/><path class="cls-15" d="m874.53,826.16c-3.45,0-7.92-1.35-11.2-4.12-1.22-1.03-2.48-1.49-3.75-1.35-2.19.23-3.69,2.13-3.71,2.15l-.45-.35c.07-.09,1.67-2.11,4.1-2.36,1.43-.15,2.83.35,4.18,1.49,3.48,2.94,10.17,5.05,13.93,3.47l.22.52c-.89.37-2.03.56-3.32.56Z"/><g class="cls-1"><path class="cls-3" d="m313.62,346.13l26.04,51s-73.93-10.68-77.7-12.61l10.23-25.27,13.79,24.06s17.58-47.11,27.65-37.18Z"/><path class="cls-3" d="m336,357.68l14.22-10.49s18.44,36.44,31.8,38.25c13.36,1.81,27.68,20.76,27.68,20.76l-17.09,15.73-18.38-25.08-10.2,33.64h33.96s-10,22.99-10,22.99l-19.64-4.93-9.46,44.66-21.02-17.19,21.18-33.68-20.03-10.35-27.04-2.57s3.4,11.73-.55,18.84l8.44-8.55,21.44,5.78-15.53,31.71s-18.73-21.07-30.52-19.78c0,0-8.83-26.94-2.8-30.1,6.03-3.16,14.3-13.48,14.3-13.48,0,0-10.64-3.33,2.69-11.45,13.34-8.12,12.06-.82,13.1,8.76,1.04,9.57,11.22-17.16,23.98,6.98l9.02-13.21,5.59-23.22-15.75-5.01-9.42-19.01Z"/><path class="cls-3" d="m289.01,396.65l11.09,1.29s-40.36,28.05-22.58,55.88c17.78,27.83,50.02,32.3,65.81,43.4,15.79,11.1,37.96,41.64,22.53,71.81-15.43,30.17-84.41,72.73-93.84,99.18-9.42,26.45-12.61,75.38,14.04,76.77,26.65,1.39,75.92-21.42,81.69-24.72l-.83,12.99s-46.47,43.6-75.78,37.08c-29.31-6.52-49.74-33.08-47.92-73.03s32.42-79.27,58.55-89.43c26.13-10.16,63.99-23.13,60.88-51.55-3.11-28.42-32.14-49.48-52.07-49.84-19.93-.36-47.28-16.7-50.25-47.88-2.96-31.17,14.43-56.98,28.66-61.95Z"/><path class="cls-3" d="m244.6,400.78s10.74,1.71,19.42,5.87c0,0-24.32,25.57-12.73,66.16l-12.19-3.23s-9.67-40.81,5.49-68.8Z"/><path class="cls-3" d="m251.09,493.5s-11,44.29,9.77,49.74c20.77,5.45,29.06-12.45,28-17.88s-15.27-15.69-18.46-2.42c0,0-4.18-9.29,10.17-9.52,14.35-.23,22.24,27.74,22.24,27.74l-24.16,22.97-14.15-15.51s-14.52,38.23-15.44,38.11,31.42-2.92,31.42-2.92l-10.87,9.37-16.89,1.57-1.54,47.39s16.64-28.07,21.36-36.8c4.71-8.73,14.42-11.29,19.33-.14l17.62-6.61-14.14-21.34,14.82-12.98s7.54,16.43,7.76,24.42c0,0,21.04-5.89,24.58-9.36,0,0-11.63-21.21-22.39-22.52l16.64-21.54,12.27,30.91s5.35-13.76,5.63-22.63c0,0-8.81-23.49-39.53-15.11l1.36-15.05-18.65-2.52s-26.08-20.96-46.74-17.38Z"/><path class="cls-3" d="m331.19,642.01l-13.28-13.14,18.19-17.29,7.49,9.25,23.12-20.79,2.36,25.43-25,8.02s3.15,2.73,4.09,6.93-2.55,9.66-2.55,9.66c0,0,10.05-.34,19.26,3.68,9.21,4.02-6.37,18.73-6.37,18.73l8.27,37.36-16.59,9.03s.47-21.9-1.72-21.69-19.75,13.44-19.75,13.44c0,0,10.77,2.87,9.64,14.58,0,0-11.18-3.38-20.45,1.9s-19.63,6.8-19.63,6.8l-9.16-21.25,9.59-9.73,8.89,9.4,34.47-27.52-4.78-21.66-15.55,7.1,3.09,13.12-23.68,12.98s-5.02-18.32-10.46-23.34l40.49-30.99Z"/><path class="cls-3" d="m313.62,772.63l26.04,51s-73.93-10.68-77.7-12.61l10.23-25.27,13.79,24.06s17.58-47.11,27.65-37.18Z"/><path class="cls-3" d="m336,784.18l14.22-10.49s18.44,36.44,31.8,38.25c13.36,1.81,27.68,20.76,27.68,20.76l-17.09,15.73-18.38-25.08-10.2,33.64h33.96s-10,22.99-10,22.99l-19.64-4.93-9.46,44.66-21.02-17.19,21.18-33.68-20.03-10.35-27.04-2.57s3.4,11.73-.55,18.84l8.44-8.55,21.44,5.78-15.53,31.71s-18.73-21.07-30.52-19.78c0,0-8.83-26.94-2.8-30.1,6.03-3.16,14.3-13.48,14.3-13.48,0,0-10.64-3.33,2.69-11.45,13.34-8.12,12.06-.82,13.1,8.76,1.04,9.57,11.22-17.16,23.98,6.98l9.02-13.21,5.59-23.22-15.75-5.01-9.42-19.01Z"/><path class="cls-3" d="m289.01,823.14l11.09,1.29s-40.36,28.05-22.58,55.88c17.78,27.83,50.02,32.3,65.81,43.4,15.79,11.1,37.96,41.64,22.53,71.81-15.43,30.17-84.41,72.73-93.84,99.18-9.42,26.45-12.61,75.38,14.04,76.77s75.92-21.42,81.69-24.72l-.83,12.99s-46.47,43.6-75.78,37.08c-29.31-6.52-49.74-33.08-47.92-73.03s32.42-79.27,58.55-89.43c26.13-10.16,63.99-23.13,60.88-51.55-3.11-28.42-32.14-49.48-52.07-49.84-19.93-.36-47.28-16.7-50.25-47.88-2.96-31.17,14.43-56.98,28.66-61.95Z"/><path class="cls-3" d="m244.6,827.27s10.74,1.71,19.42,5.87c0,0-24.32,25.57-12.73,66.16l-12.19-3.23s-9.67-40.81,5.49-68.8Z"/><path class="cls-3" d="m251.09,919.99s-11,44.29,9.77,49.74,29.06-12.45,28-17.88c-1.06-5.43-15.27-15.69-18.46-2.42,0,0-4.18-9.29,10.17-9.52s22.24,27.74,22.24,27.74l-24.16,22.97-14.15-15.51s-14.52,38.23-15.44,38.11,31.42-2.92,31.42-2.92l-10.87,9.37-16.89,1.57-1.54,47.39s16.64-28.07,21.36-36.8c4.71-8.73,14.42-11.29,19.33-.14l17.62-6.61-14.14-21.34,14.82-12.98s7.54,16.43,7.76,24.42c0,0,21.04-5.89,24.58-9.36,0,0-11.63-21.21-22.39-22.52l16.64-21.54,12.27,30.91s5.35-13.76,5.63-22.63c0,0-8.81-23.49-39.53-15.11l1.36-15.05-18.65-2.52s-26.08-20.96-46.74-17.38Z"/><path class="cls-3" d="m331.19,1068.5l-13.28-13.14,18.19-17.29,7.49,9.25,23.12-20.79,2.36,25.43-25,8.02s3.15,2.73,4.09,6.93-2.55,9.66-2.55,9.66c0,0,10.05-.34,19.26,3.68,9.21,4.02-6.37,18.73-6.37,18.73l8.27,37.36-16.59,9.03s.47-21.9-1.72-21.69c-2.19.2-19.75,13.44-19.75,13.44,0,0,10.77,2.87,9.64,14.58,0,0-11.18-3.38-20.45,1.9s-19.63,6.8-19.63,6.8l-9.16-21.25,9.59-9.73,8.89,9.4,34.47-27.52-4.78-21.66-15.55,7.1,3.09,13.12-23.68,12.98s-5.02-18.32-10.46-23.34l40.49-30.99Z"/></g><path class="cls-7" d="m410.28,83.39c-120.28,53.55-235.03,97.49-223.72,227.3,11.31,129.81,415.38,158.51,508.91,65.28S640.02-18.89,410.28,83.39Z"/><path class="cls-12" d="m284.16,314.77v-2l1.91-.67c1.14-.32,1.94-.87,2.38-1.67.44-.79.7-1.89.76-3.29v-47.97c-.06-1.33-.29-2.37-.67-3.1-.38-.73-1.18-1.29-2.38-1.67l-2-.67v-2h45.4l.67,15.26h-2.67l-3.81-8.58c-.51-1.21-1.08-2.15-1.72-2.81-.64-.67-1.59-1-2.86-1h-16.21c-.06,3.94-.1,8-.1,12.16v14.07h9.44c1.27,0,2.24-.33,2.91-1,.67-.67,1.29-1.57,1.86-2.72l1.62-3.62h2.1v17.64h-2.1l-1.72-3.62c-.51-1.14-1.08-2.07-1.72-2.77-.64-.7-1.59-1.05-2.86-1.05h-9.54v11.83c0,3.31.02,6.25.05,8.82.03,2.57.05,5.1.05,7.58h18.31c1.27,0,2.26-.33,2.96-1,.7-.67,1.27-1.61,1.72-2.81l3.53-8.58h2.67l-.67,15.26h-47.3Z"/><path class="cls-12" d="m336.04,314.77v-1.81l2.58-.57c1.4-.32,2.53-.76,3.39-1.34.86-.57,1.7-1.43,2.53-2.57l10.4-14.5-12.3-19.46c-.64-.96-1.26-1.68-1.86-2.19-.6-.51-1.45-.89-2.53-1.14l-1.62-.38v-1.81h23.84v1.81l-1.43.38c-1.14.25-1.83.75-2.05,1.48-.22.73-.02,1.61.62,2.62l7.34,11.16,7.82-10.87c.7-1.02,1.03-1.91,1-2.67-.03-.76-.65-1.27-1.86-1.53l-2.1-.57v-1.81h14.69v1.81l-2.29.48c-1.33.32-2.38.78-3.15,1.38-.76.6-1.56,1.48-2.38,2.62l-10.2,13.45,12.49,19.46c1.46,2.16,3.5,3.59,6.1,4.29l1.91.48v1.81h-25.65v-1.81l1.43-.29c1.14-.32,1.86-.86,2.15-1.62.29-.76.08-1.62-.62-2.57l-7.73-12.02-8.39,11.92c-.7,1.02-.92,1.91-.67,2.67.25.76.92,1.27,2,1.53l1.72.38v1.81h-15.16Z"/><path class="cls-12" d="m388.21,336.8v-1.81l1.24-.38c1.27-.32,2.16-.84,2.67-1.57.51-.73.76-1.76.76-3.1,0-2.61.02-5.07.05-7.39.03-2.32.05-4.56.05-6.72v-31.33c0-1.43-.03-3.04-.1-4.82,0-1.33-.22-2.37-.67-3.1-.45-.73-1.3-1.22-2.58-1.48l-1.43-.29v-1.72l15.35-5.53,1.14.95.86,3.53c4.39-2.99,9.35-4.48,14.88-4.48s9.74,2.04,13.02,6.1c3.27,4.07,4.91,10.08,4.91,18.03s-1.8,13.69-5.39,17.98c-3.59,4.29-8.47,6.44-14.64,6.44-2.48,0-4.82-.22-7.01-.67s-4.15-1.11-5.87-2v2.86c0,1.91.01,3.97.05,6.2.03,2.22.05,4.64.05,7.25s1.11,4.13,3.34,4.77l1.81.48v1.81h-22.51Zm25.65-24.51c3.37,0,6.02-1.51,7.96-4.53,1.94-3.02,2.91-8.25,2.91-15.69s-.92-12.54-2.77-15.5c-1.85-2.96-4.45-4.43-7.82-4.43-1.21,0-2.51.19-3.91.57-1.4.38-2.89,1.02-4.48,1.91v36.05c2.54,1.08,5.25,1.62,8.11,1.62Z"/><path class="cls-12" d="m442.47,314.77v-1.81l1.43-.38c2.1-.7,3.15-2.29,3.15-4.77,0-2.16.02-4.34.05-6.53.03-2.19.05-4.37.05-6.53v-36.24c0-1.33-.22-2.34-.67-3-.45-.67-1.3-1.16-2.58-1.48l-1.43-.38v-1.81l16.69-4,1.24.86-.38,13.45v45.68c.06,1.27.33,2.3.81,3.1.48.79,1.32,1.35,2.53,1.67l1.33.38v1.81h-22.22Z"/><path class="cls-12" d="m492.83,316.11c-4.71,0-8.82-.99-12.35-2.96-3.53-1.97-6.26-4.77-8.2-8.39-1.94-3.62-2.91-7.95-2.91-12.97s1.03-9.35,3.1-12.97c2.06-3.62,4.86-6.4,8.39-8.34,3.53-1.94,7.52-2.91,11.97-2.91s8.44.97,11.97,2.91c3.53,1.94,6.33,4.71,8.39,8.3,2.07,3.59,3.1,7.93,3.1,13.02s-.97,9.36-2.91,13.02c-1.94,3.66-4.66,6.45-8.15,8.39-3.5,1.94-7.63,2.91-12.4,2.91Zm0-2.67c2.29,0,4.15-.62,5.58-1.86,1.43-1.24,2.46-3.42,3.1-6.53.64-3.12.95-7.47.95-13.07s-.32-10.06-.95-13.21c-.64-3.15-1.67-5.34-3.1-6.58-1.43-1.24-3.29-1.86-5.58-1.86s-4.13.62-5.53,1.86c-1.4,1.24-2.43,3.43-3.1,6.58-.67,3.15-1,7.55-1,13.21s.33,9.95,1,13.07c.67,3.12,1.7,5.29,3.1,6.53,1.4,1.24,3.24,1.86,5.53,1.86Z"/><path class="cls-12" d="m520.67,314.77v-1.81l1.43-.48c1.27-.32,2.15-.86,2.62-1.62.48-.76.71-1.78.71-3.05v-27.94c-.06-1.4-.32-2.46-.76-3.2-.45-.73-1.3-1.22-2.58-1.48l-1.43-.38v-1.72l15.54-5.53,1.14,1.05.86,8.39v.67c.95-1.78,2.16-3.43,3.62-4.96,1.46-1.53,3.05-2.77,4.77-3.72,1.72-.95,3.43-1.43,5.15-1.43,2.42,0,4.23.64,5.44,1.91,1.21,1.27,1.81,2.89,1.81,4.86,0,2.16-.6,3.8-1.81,4.91-1.21,1.11-2.67,1.67-4.39,1.67-2.54,0-4.74-1.14-6.58-3.43l-.19-.19c-.64-.76-1.35-1.19-2.15-1.29-.8-.09-1.57.3-2.34,1.19-.64.64-1.23,1.38-1.76,2.24-.54.86-1.03,1.86-1.48,3v24.99c0,1.21.25,2.21.76,3,.51.79,1.37,1.35,2.57,1.67l2.86.86v1.81h-23.84Z"/><path class="cls-12" d="m584.57,267.56c4.01,0,7.44.83,10.3,2.48,2.86,1.65,5.07,3.93,6.63,6.82,1.56,2.89,2.34,6.21,2.34,9.97,0,.83-.03,1.61-.1,2.34-.06.73-.19,1.42-.38,2.05h-28.71c.06,6.55,1.29,11.25,3.67,14.11,2.38,2.86,5.87,4.29,10.44,4.29,3.18,0,5.75-.53,7.72-1.57,1.97-1.05,3.78-2.53,5.44-4.43l1.53,1.43c-1.91,3.5-4.5,6.21-7.77,8.15-3.28,1.94-7.17,2.91-11.68,2.91s-8.49-.95-11.92-2.86c-3.43-1.91-6.12-4.66-8.06-8.25-1.94-3.59-2.91-7.9-2.91-12.92s1.13-9.63,3.39-13.26c2.26-3.62,5.18-6.4,8.77-8.34,3.59-1.94,7.36-2.91,11.3-2.91Zm-.48,2.77c-1.84,0-3.45.53-4.82,1.57-1.37,1.05-2.45,2.89-3.24,5.53-.8,2.64-1.26,6.34-1.38,11.11h17.07c.7-6.42.44-11.06-.76-13.92-1.21-2.86-3.5-4.29-6.87-4.29Z"/><path class="cls-12" d="m608.7,314.77v-1.81l1.43-.48c1.27-.32,2.15-.86,2.62-1.62.48-.76.71-1.78.71-3.05v-27.94c-.06-1.4-.32-2.46-.76-3.2-.45-.73-1.3-1.22-2.58-1.48l-1.43-.38v-1.72l15.54-5.53,1.14,1.05.86,8.39v.67c.95-1.78,2.16-3.43,3.62-4.96,1.46-1.53,3.05-2.77,4.77-3.72,1.72-.95,3.43-1.43,5.15-1.43,2.42,0,4.23.64,5.44,1.91,1.21,1.27,1.81,2.89,1.81,4.86,0,2.16-.6,3.8-1.81,4.91-1.21,1.11-2.67,1.67-4.39,1.67-2.54,0-4.74-1.14-6.58-3.43l-.19-.19c-.64-.76-1.35-1.19-2.15-1.29-.8-.09-1.57.3-2.34,1.19-.64.64-1.23,1.38-1.76,2.24-.54.86-1.03,1.86-1.48,3v24.99c0,1.21.25,2.21.76,3,.51.79,1.37,1.35,2.57,1.67l2.86.86v1.81h-23.84Z"/><path class="cls-12" d="m394.19,200.91c0,7.06-1.32,12.54-3.96,16.45-2.64,3.91-6.34,6.63-11.11,8.15s-10.33,2.29-16.69,2.29h-13.92v-53.69h13.92c6.36,0,11.92,1,16.69,3,4.77,2,8.47,4.97,11.11,8.92,2.64,3.94,3.96,8.9,3.96,14.88Zm-41.29,23.08h10.3c5.28,0,9.9-.6,13.88-1.81,3.97-1.21,7.06-3.46,9.25-6.77,2.19-3.31,3.29-8.14,3.29-14.5,0-5.21-1.1-9.52-3.29-12.92-2.19-3.4-5.28-5.91-9.25-7.53-3.97-1.62-8.6-2.43-13.88-2.43h-10.3v45.97Z"/><path class="cls-12" d="m402.11,227.8v-38.72h3.72l.57,9.92c.63-2.73,2.13-5.07,4.48-7.01,2.35-1.94,5.66-2.91,9.92-2.91h2.1v4.86h-2.1c-4.32,0-7.5.68-9.54,2.05-2.04,1.37-3.35,3.2-3.96,5.48-.6,2.29-.91,4.83-.91,7.63v18.69h-4.29Z"/><path class="cls-12" d="m444.45,228.75c-4.13,0-7.55-.99-10.25-2.96-2.7-1.97-4.72-4.5-6.06-7.58-1.33-3.08-1.97-6.28-1.91-9.58,0-3.43.7-6.64,2.1-9.63,1.4-2.99,3.45-5.39,6.15-7.2,2.7-1.81,5.99-2.72,9.87-2.72,4.83,0,8.82,1.57,11.97,4.72,3.15,3.15,4.91,7.36,5.29,12.64.06.32.1,1.02.1,2.1h-31.28c0,5.09,1.21,9.09,3.62,12.02,2.42,2.93,5.88,4.39,10.4,4.39,3.24,0,6.06-.86,8.44-2.58s3.86-4.04,4.43-6.96h4.29c-.76,3.94-2.69,7.15-5.77,9.63-3.08,2.48-6.88,3.72-11.4,3.72Zm-13.73-22.79h26.51c-.06-1.65-.52-3.5-1.38-5.53-.86-2.03-2.23-3.81-4.1-5.34-1.88-1.53-4.34-2.29-7.39-2.29-4.2,0-7.41,1.3-9.63,3.91-2.23,2.61-3.56,5.69-4.01,9.25Z"/><path class="cls-12" d="m483.36,228.75c-3.56,0-6.52-.91-8.87-2.72-2.35-1.81-4.1-4.23-5.25-7.25-1.14-3.02-1.72-6.37-1.72-10.06s.59-7.23,1.76-10.25c1.18-3.02,2.94-5.34,5.29-6.96,2.35-1.62,5.28-2.43,8.77-2.43,3.75,0,6.74.84,8.96,2.53,2.22,1.69,3.81,3.88,4.77,6.57l.19-.52v-8.58h4.39v38.72h-3.62l-.76-7.84-.19-.17c-1.02,2.35-2.64,4.43-4.86,6.25-2.23,1.81-5.18,2.72-8.87,2.72Zm1.62-4.01c4.07,0,7.12-1.41,9.16-4.24,2.03-2.83,3.05-6.72,3.05-11.68,0-5.28-1.07-9.19-3.19-11.73-2.13-2.54-5.14-3.81-9.01-3.81-4.52,0-7.82,1.45-9.92,4.34-2.1,2.89-3.15,6.6-3.15,11.11s1.08,8.55,3.24,11.54c2.16,2.99,5.44,4.48,9.82,4.48Z"/><path class="cls-12" d="m509.01,227.8v-38.72h3.62l.38,10.3h.19c.19-.57.52-1.41,1-2.53.48-1.11,1.19-2.26,2.15-3.43s2.22-2.19,3.81-3.05c1.59-.86,3.56-1.29,5.91-1.29,2.54,0,4.59.49,6.15,1.48,1.56.99,2.78,2.27,3.67,3.86.89,1.59,1.53,3.24,1.91,4.96h.19c.19-.57.56-1.41,1.1-2.53.54-1.11,1.33-2.26,2.38-3.43,1.05-1.18,2.4-2.19,4.05-3.05,1.65-.86,3.66-1.29,6.01-1.29,2.54,0,4.61.51,6.2,1.53,1.59,1.02,2.83,2.31,3.72,3.86.89,1.56,1.53,3.23,1.91,5.01.38,1.78.6,3.48.67,5.1.06,1.62.1,2.97.1,4.05v19.17h-3.91v-19.26c0-1.08-.05-2.46-.14-4.15-.1-1.68-.45-3.4-1.05-5.15-.6-1.75-1.57-3.21-2.91-4.39-1.34-1.18-3.24-1.76-5.72-1.76-2.73,0-4.96.76-6.68,2.29-1.72,1.53-3,3.53-3.86,6.01-.86,2.48-1.29,5.18-1.29,8.11v18.31h-3.91v-19.26c0-1.08-.05-2.46-.14-4.15-.1-1.68-.45-3.4-1.05-5.15-.6-1.75-1.57-3.21-2.91-4.39-1.34-1.18-3.24-1.76-5.72-1.76-2.73,0-4.96.76-6.68,2.29-1.72,1.53-3,3.53-3.86,6.01-.86,2.48-1.29,5.18-1.29,8.11v18.31h-4.01Z"/><path class="cls-10" d="m850.76,1321.27s-26.36,35.71,18.11,60.34c44.47,24.63,51.08-31.5,42.94-48.46-8.14-16.97-38.67-24.6-46.81-2.21-8.14,22.39,14.76,35.67,21.37,22.67,6.61-13-.69-19.6-7.47-17.32s-5.48,4.48-4.33-.67,9.84-14.3,20.08-4.29c10.23,10.01,6.23,36.6-13.5,36.88s-35.33-9.54-30.39-46.94Z"/><path class="cls-12" d="m751.81,1132.51s-36.62-74.61-18.31-119.79c0,0-16.9,6.76-13.38,50.51,3.52,43.75,11.97,82.13,31.69,69.28Z"/><path class="cls-12" d="m688.78,1058.44s19.38,19.9-2.55,60.71c0,0,11.7,1.42,16.1-9.87s5.53-44.26-13.55-50.83Z"/><path class="cls-14" d="m721.39,994.71s9.3-66.71,54.7-73.73,88.19,22,88.19,56.24-36.84,58.42-77.4,40.19c-40.56-18.23-6.7-56.19,7.81-56.56,14.51-.37,29.02,3.35,23.81,21.58-5.21,18.23-16.37,7.82-16.37,7.82,0,0-.74,8.18,6.7,8.93s24.19-10.05,21.21-29.4-20.09-31.63-44.28-26.42c-24.19,5.21-51.89,38.59-55.44,57.3-3.56,18.71-8.93,5.58-8.93-5.95Z"/><path class="cls-11" d="m725.59,934.33s-5.02-49.11,39.9-66.41c44.92-17.3,61.11-3.35,67.8,11.16,6.7,14.51-7.53,27.9-24.55,26.23s-20.65-18.14-10.05-23.16,14.79-1.95,14.79,2.79-3.63,6.98-5.02,5.58,8.09,4.74,10.32-4.74c2.23-9.49-9.77-17.58-30.14-12.56s-57.2,29.86-63.06,61.11Z"/><path class="cls-14" d="m674.8,979.68s14.59-52.12-23.63-64.63c-38.22-12.51-54.21,9.38-55.25,23.28-1.04,13.9,7.64,38.22,27.45,38.22s28.49-26.76,23.63-22.93c-4.86,3.82-9.38,19.81-24.67,15.98-15.29-3.82-26.76-39.24-1.39-49.68,25.37-10.44,55.25,27.64,50.04,51.86-5.21,24.22-45.69,42.64-75.14,23.88-29.45-18.76-33.62-95.56,21.63-116.06,55.25-20.5,86.18,21.2,90.35,31.97,4.17,10.77,18.42,59.07-33.01,68.11Z"/><path class="cls-11" d="m650.29,1016.85c-7.31-3.32-25.92,3.21-27.52,26.99-1.6,23.78,20.31,24.05,28.86,22.71,8.55-1.34,24.05-10.69,22.71-19.77-1.34-9.08-12.29-8.16-10.96-4.88s6.93,10.58-11.76,16.55c-18.68,5.96-22.45-31.72-3.07-34.79,19.37-3.07,37.81,4.95,37.67,22.32s-21.51,40.35-56.51,33.67c-35-6.68-37.94-28.06-35-44.62s39.01-40.08,67.33-24.85c0,0,6.41,4.28,3.47,7.48-2.94,3.21-12.29.53-15.23-.8Z"/><path class="cls-10" d="m721.39,865.08c-5.96-2.88-15.68-4.09-18.64,2.5-2.95,6.58,2.5,14.53,7.26,14.53s4.54-2.95,4.54-2.95c0,0-7.26,1.29-5.68-5.15,1.59-6.43,7.49-8.7,14.08-3.71,6.58,4.99,13.18,16.27-8.17,19.3-21.36,3.03-25.88-14.98-25.88-23.16s11.12-25.65,31.56-20.43c20.43,5.22,6.1,21.57.93,19.07Z"/><path class="cls-7" d="m761.98,1122.23s9.39-46.1,44.12-40.21c34.73,5.89,60.19,32.86,40.04,88.57-20.16,55.71-48.37,90.84-50.1,126.54-1.73,35.71,8.06,55.29,29.95,56.44,21.88,1.15,40.18-24.19,27.29-49.53-12.89-25.34-31.32-16.7-37.08-8.64-5.76,8.06-7.49,25.92,6.91,27.64s16.7-14.22,16.7-14.22c0,0,11.74,22.95-13.82,24.33-25.56,1.37-24.94-31.98-16.21-48.69,8.73-16.7,77.26-108.92,54.51-174.53-22.75-65.61-102.94-46.84-102.29,12.3Z"/><path class="cls-9" d="m758.02,1132.51s-5.76-49.61,32.25-67.46c38.01-17.85,78.9-.58,93.87,28.79,14.97,29.37,14.4,88.23-4.61,117.25s-38.58,48.03-30.52,67.03c8.06,19,19.58,25.92,30.52,17.85s-4.03-16.7-4.03-16.7c0,0,4.38,14.9-6.63,12.02-11.01-2.87-17.72-14.05-10.05-21.08,7.67-7.03,27.55-1.28,30.38,9.58s1.24,42.07-31.98,29.02c-33.22-13.05-21.4-46.91-13.1-59.36,8.3-12.46,42.56-62.21,41.9-94.63-.66-32.43-14.32-84.89-57.22-91.59s-72.98,29.32-70.79,69.28Z"/><path class="cls-5" d="m726.19,1129.81s-7.99-34.49-48.65-26.5-23.6,29.46-23.6,29.46c0,0-34.85-7.68-50.46,23.54-15.61,31.22-2.54,67.16,27.59,68.25,30.13,1.09,45.38-18.88,50.1-30.86,4.72-11.98,19.36-15.61,23.84-14.52,4.48,1.09,15.37,4.36,23.36,17.79s31.49,29.64,67.52,9.08c33.01-18.83,33.46-38.22,32.77-49.86-1.26-21.16-19.7-16.21-19.7-16.21,0,0,5.81-28.68-25.05-28.32-30.86.36-26.14,42.48-57.72,18.15Z"/><path class="cls-7" d="m650.71,1163.68s12.52,8.02-3.06,15.13c-15.59,7.11-15.59-20.15-9.13-25.17s15.15-10.04,28.38,0c13.23,10.04,9.64,42.32-7.57,46.63-17.22,4.3-45.19-5.74-47.34-20.08-2.15-14.35,5.89-35.93,20.52-35.54s-6.7,5.23-7.87,13.57c-1.17,8.34.26,20.53,12.46,24.84,12.19,4.3,22.24,2.87,22.24-5.02s-2.15-17.93-8.61-14.35Z"/><path class="cls-8" d="m738.01,1200.47s26.56-7.88,19.44-26.51c-7.12-18.63-10.65-41.06,15.25-45.75s31,18.95,30.03,24.83c-.97,5.88-8.79,17.76-17.82,16.35-9.03-1.41-8.71-17.87-3.61-20.67,5.1-2.8,12.12,5.8,3.2,8.08,0,0-.84,7.6,8.7,1.92,9.53-5.68,1.18-28.17-16.59-23.76-17.77,4.41-17.3,19.19-13.45,28.98,3.86,9.79,10.15,30.78-25.15,36.53Z"/><path class="cls-12" d="m782.16,1181.25c-3.96-3.96-9.22.77-9.99,6.92-.77,6.15-8.45,9.22-6.92,12.29s8.25,3.73,8.35-2.36.1-9.16,4.71-8.4c4.61.77,7.68-4.61,3.84-8.45Z"/><path class="cls-7" d="m802.39,1181.46c-1.48-1.77-5.29.14-4.95,3.91s8.79.7,4.95-3.91Z"/><path class="cls-7" d="m810.39,1166.46c-1.48-1.77-5.29.14-4.95,3.91s8.79.7,4.95-3.91Z"/><path class="cls-7" d="m813.39,1148.46c-1.48-1.77-5.29.14-4.95,3.91s8.79.7,4.95-3.91Z"/><path class="cls-8" d="m258.28,798.57s31,80.79,27,217.79-34,243,31,275c65,32,343,67,385,57,42-10,17-59-12-58,0,0,9.5,46.5-32.5,46.5-42,0-88-28-75-74,13-46,89-43,150-11,61,32,20,119-38,121-58,2-417-18-442-30-25-12-19.29-42.47-18.65-68.73.65-26.27,25.15-475.56,25.15-475.56Z"/><path class="cls-5" d="m464.09,1191.55s35.38-13.34,45.82-37.7c10.44-24.36,23.78-55.68,40.02-48.72,16.24,6.96-29.58,74.24-85.84,86.42Z"/><path class="cls-5" d="m472.79,1173.76s18.56-9.13,23.2-29.6c4.64-20.47,13.92-28.76,19.14-25.78,5.22,2.99-4.06,38.17-42.34,55.38Z"/><path class="cls-9" d="m586.97,1130.29s-21.08-.42-28.21,16.94c-7.13,17.36-12.9,35.57-35.49,41.29-22.6,5.72-39.32,14.19-34.08,26.98s30.28-7.6,38.06-19.73c7.78-12.13,17.31-13.59,27.23-16.1,27.62-7,45.27-47.96,32.49-49.39Z"/><path class="cls-12" d="m575.99,1181.78c-4.71-.14-6.46,4.16-5.16,8.15,1.3,3.99,7.97,2.47,10-2.27s-4.84-5.87-4.84-5.87Z"/><path class="cls-12" d="m559.3,1199.98c-4.71-.14-6.46,4.16-5.16,8.15s7.97,2.47,10-2.27c2.04-4.75-4.84-5.87-4.84-5.87Z"/><path class="cls-8" d="m463.98,1310.24s1.43-27.99,21.72-32.99c20.29-5,36.32,3.82,51.12-11.62,14.8-15.44,16.01-37.54,5.64-43.75-10.37-6.21-37.82,5.01-37.27,22.85.55,17.84,27.78,2.21,19.26-4.38-8.51-6.59-10.74,2.44-10.74,2.44,0,0-5-8.28,4.64-12.17,9.64-3.89,20.12-4.02,21.3,6.27,1.17,10.3-16.84,33.87-37.79,30.84-20.95-3.03-45.73,9.62-37.87,42.5Z"/><path class="cls-7" d="m478.62,1221.56s-4.06,21.57-25.93,23.04c-21.87,1.47-38.3,2.86-48.32,18.78-10.02,15.91-9.65,32.97,4.94,31.99,14.58-.98,31.98-18.1,8.9-26.84,0,0,11.02,5.89,1.41,12.81-9.62,6.92-16.39,1.91-15.81-8.03.57-9.93,18.61-15.64,26.65-10.58,8.04,5.06,18.69,27.31-4.64,40.18-23.33,12.87-34.14,4.14-37.05-14.35-2.91-18.49,16.69-69.74,89.87-67.01Z"/><path class="cls-5" d="m4.01,719.22s15.98-1.39,43.07-13.2c27.09-11.81,100.36-22.23,139.09,0,38.74,22.23,58.88,43.76,102.64,42.37,43.76-1.39,105.59-5.56,134.76,14.59,29.18,20.14,28.79,32.65,46.69,51.4,17.91,18.76,22.08,33.34,58.2,36.82,36.12,3.47,135.33,20.24,161.44,49.32,0,0-62.11-36.82-112.82-31.26-50.71,5.56-90.69-3.47-106.82-29.87-16.13-26.4-22.38-61.82-56.42-68.08-34.04-6.25-82.66-2.78-116.7,2.08-34.04,4.86-80.58-23.62-106.98-42.37-26.4-18.76-56.96-28.48-101.42-20.14-44.46,8.34-71.55,19.61-84.75,8.34Z"/><path class="cls-5" d="m457.92,727.5s18.78-24.15,55.19-9.23c36.42,14.92,19.35,39.52,7.97,40.59-11.38,1.07-33.57-7.27-27.31-22.73s21.05-2.94,17.64,5.03c0,0,15.05,1.37,2.85-12.52-12.21-13.89-36.92-12.49-56.33-1.14Z"/><path class="cls-7" d="m490.92,704.17s26.74-14.23,47.23,5.69,16.5,27.63,35.28,49.09,57.47,38.54,60.32,11.22c0,0-1.32,13.97-16.19,9.01-14.87-4.96-11.57-23.12,3.3-24.36,14.87-1.24,29.74,4.13,30.15,23.54.41,19.41-14.05,20.23-30.15,19.41-16.1-.83-46.66-17.34-58.63-33.45-11.98-16.1-16.93-36.77-24.36-46.05-7.43-9.28-10.87-21.8-46.94-14.1Z"/><path class="cls-6" d="m554.91,778.85c-8.53-3.94-12.47-5.58-13.12-12.47-.66-6.89-6-6.89-6.61,3.28s10.22,21.98,23.67,21.98,23.95,4.26,25.92,11.81,34.78,17.06,43.3,10.5c8.53-6.56-1.64-2.62-10.5-3.28s-14.11-3.94-16.73-10.83c-2.62-6.89-16.11-13.45-29.87-14.43s-16.06-6.56-16.06-6.56Z"/><path class="cls-7" d="m494.65,760.97c-12.27-.5-22.06-6.21-28.64-13.52-6.57-7.31-12.01-3.29-4.36,10.23,7.65,13.52,18.61,4.38,34.68,15.71,16.07,11.32,23.74,17.53,31.05,33.97,7.31,16.44,51.87,30.68,63.56,25.93,11.69-4.75,9.13-11.56-2.56-10.53-11.69,1.03-49.68-8.49-57.71-27.11-8.04-18.62-17.97-33.96-36.01-34.69Z"/><path class="cls-5" d="m204.44,1004.34s26.53,19.05,47.24,7.66,65.57-44.86,90.76-32.79c25.19,12.08,21.4,32.1,40.03,43.48,18.64,11.39,43.83,13.11,49.35,0,5.52-13.11,8.28-24.85-7.25-32.44-15.53-7.59-31.75,3.11-30.71,11.39,1.04,8.28,14.84,11.04,12.42,6.21-2.42-4.83-10.7-5.87-.35-11.04,10.35-5.18,26.92,6.21,13.11,19.33-13.8,13.11-30.37,2.42-36.58-4.49-6.21-6.9-12.42-27.26,16.57-31.06,28.99-3.8,44.14,8.63,49.85,29.68,5.71,21.05.19,38.31-31.56,32.44-31.75-5.87-47.63-22.14-57.29-32.46s-21.4-23.1-48.66-15.51c-27.26,7.59-74.46,48.19-106.94,9.6Z"/><path class="cls-5" d="m331.97,1141.35s13.87-6.2,17.72,4.43c3.85,10.62,24.15,35.59,43.05,25.03,18.9-10.56,4.9-24.51-7-22.96-11.9,1.55-21.7,5.85-26.6-2.07-4.9-7.93-18.64-15.27-27.17-4.43Z"/><path class="cls-7" d="m322.39,1094.8s9.8-7,15.4,0c5.6,7-9.45,19.95-27.65,18.55-18.2-1.4-22.05-17.5-10.15-27.3,11.9-9.8,46.9-23.1,73.49-22.75,26.6.35,80.08-2.1,90.61-19.6,10.53-17.5,15.78-45.5-4.52-62.29-20.3-16.8-27.73-23.47-41.04-23.86-13.31-.4-20.46,6.36-11.12,7.94,0,0-3.57-5.96,5.96-5.96s8.14,12.71-7.55,13.11c-15.69.4-20.26-10.92-13.5-16.68,6.75-5.76,25.54-9.87,54.87,6.64,29.34,16.52,63.8,42.88,56.11,69.57s-61.23,35.28-84.59,37.39c-23.35,2.12-104.35,11.19-96.32,25.23Z"/><path class="cls-12" d="m392.58,923.82l-7.79,6.47s23.56,2.54,34.42,8.55c0,0,10.11-.77,14.06-4.4,0,0-11.23-4.43-19.29-4.9s-21.4-5.71-21.4-5.71Z"/><path class="cls-12" d="m408.12,915.62s11.54-.63,16.29,1.9,22.93,7.43,22.93,7.43c0,0,7.91-6.64,11.39-6.33,3.48.32,10.28,1.42,12.34.16,0,0-38.59-11.39-45.86-11.7,0,0-12.81,3.48-17.08,8.54Z"/><path class="cls-12" d="m433.27,934.44s10.6-4.27,14.07-9.49c0,0,31.47,10.91,38.9,15.5,0,0-7.43.32-11.86-.79-4.43-1.11-11.07,4.43-11.07,4.43,0,0-18.03-8.54-30.05-9.65Z"/><path class="cls-12" d="m463.32,944.08l-16.13,9.65s25.3,14.23,35.11,25.3c0,0,9.17-10.91,18.34-11.86,0,0-17.87-18.5-37.32-23.09Z"/><path class="cls-12" d="m486.25,940.44s16.29-.32,21.19-6.64c0,0,22.14,10.6,37.8,29.1,0,0-3.64,5.38-14.39,6.48,0,0-30.05-24.67-44.6-28.94Z"/><path class="cls-12" d="m500.64,967.17s8.38-3.8,14.23-.79,10.44,5.54,15.97,3c0,0,14.23,7.75,22.93,31.31,0,0-15.34-4.27-24.35-2.06,0,0-17.4-24.35-28.78-31.47Z"/><path class="cls-12" d="m529.42,998.64s-12.98,2.38-20.97,11.21c0,0,9.14,11.55,7.29,29.39,0,0,17.85-8.66,27.2-5.61,0,0,3.2-17.84-13.52-34.99Z"/><path class="cls-12" d="m553.78,1000.7s8.7,23.09,8.19,39.22c0,0,14.78-1.19,22.93-6.11,0,0-8.83-29.39-14.61-35.16,0,0-6.01,5.47-16.51,2.06Z"/><path class="cls-12" d="m561.96,1039.92s-6.22,1.67-9.78-1.14c-3.56-2.81-6.34-4.57-9.24-5.15,0,0,2.96,19.35-29.33,34.2,0,0,4.32,7.42,10.71,8.63,6.39,1.21,18.87,1.04,18.87,1.04,0,0,25.18-14.56,18.78-37.58Z"/><path class="cls-12" d="m543.18,1077.5h29.49s-10.64,19.87-44.09,27.42c0,0-3.25-6.96-14.97-6.38-11.72.58-24.48-1.55-27.58-5.8,0,0,38.69-1.65,57.15-15.23Z"/><path class="cls-12" d="m513.61,1067.83s-.72-4.3-9.22-2.37c-8.5,1.93-13.53,2.48-14.69-.5,0,0-31.91,6.5-41.19,6.3,0,0,6.41,2.9,15.58,2.71,9.17-.19,10.52,4.64,10.52,4.64,0,0,24.24-2.08,38.99-10.78Z"/><path class="cls-12" d="m474.62,1078.61s5.61,12.18,11.41,14.12c0,0-37.71,6.77-42.74,6.77,0,0-7.16-10.25-15.09-13.54,0,0,24.56-6.38,46.42-7.35Z"/><path class="cls-12" d="m443.29,1099.5s8.4,9.52,19.52,9.14,33.06-.56,39.85,4.82c0,0-30.75,10.61-34.42,13.31,0,0-48.74,1.74-60.34-14.5,0,0,6-10.64,35.39-12.76Z"/><path class="cls-12" d="m428.2,1085.96s-32.1,6.96-35.97,11.41c0,0-18.76-6.58-43.32,0,0,0,12.18-11.41,50.86-16.44,0,0,3.48,2.32,10.25,1.35,6.77-.97,13.54-.39,18.18,3.67Z"/><path class="cls-12" d="m392.23,1097.37s5.43,2.1,8.55,8.33c3.12,6.24,7.12,6.56,7.12,6.56,0,0-6.57,9.41,3.89,20.42,0,0-10.68-1.3-19.56,3.2,0,0-17.69-8.7-17.87-19.26s12.99-18.23,17.87-19.26Z"/><path class="cls-12" d="m392.23,1135.89l-7.78,3.58s26.61,8.07,31.19,13.76c4.59,5.69,4.95,12.29,2.94,14.86,0,0,10.83,1.28,11.74-1.83,0,0,2.02-11.76-5.32-14.14-7.34-2.38-25.88-12.04-32.77-16.23Z"/><path class="cls-12" d="m411.79,1132.68s1.28,6.61,11.56,10.83c10.28,4.22,18.72,15.23,18.9,26.24,0,0,7.17,6.97,14.87,1.1,0,0,1.33-1.47-8.61-11.01-9.93-9.54-2.23-18.9-2.23-18.9,0,0-6.42,1.65-12.84,1.65s-9.17-1.65-11.01-4.95c-1.83-3.3-4.77-6.79-10.64-4.95Z"/><path class="cls-12" d="m442.25,1169.74s-2.39-6.61-11.93-3.49c0,0,3.12,13.71-38.16,25.29,0,0,10.09,10.67,26.42,8.28,0,0,27.34-11.19,23.67-30.09Z"/><path class="cls-12" d="m418.58,1199.84s9.97-2.75,15.9-1.28c5.93,1.47,10.88,3.08,14.55,1.63,0,0-22.75,20.94-35.23,24.24l-30.27-13.15s22.29-3.84,35.05-11.44Z"/><path class="cls-12" d="m392.16,1191.55s-6.97,3.88-16.7,3.7-15.78,1.57-15.78,1.57l-5.14-10.01,27.16-4.01s3.85,5.23,10.46,8.75Z"/><path class="cls-12" d="m359.68,1196.82s7.49,10.33,23.85,14.45l-21.68,2.58-11.61-15.73,9.43-1.3Z"/></svg>