<?xml version="1.0" encoding="UTF-8"?><svg id="Capa_2" xmlns="http://www.w3.org/2000/svg" xmlns:xlink="http://www.w3.org/1999/xlink" viewBox="0 0 1080 1567"><defs><style>.cls-1{clip-path:url(#clippath);}.cls-2{fill:none;}.cls-2,.cls-3,.cls-4,.cls-5,.cls-6,.cls-7,.cls-8,.cls-9,.cls-10,.cls-11{stroke-width:0px;}.cls-3{fill:#f9dc5c;}.cls-4{fill:#48bcc4;}.cls-5{fill:#95c1cc;}.cls-6{fill:#0c6b86;}.cls-7{fill:#064862;}.cls-8{fill:#989898;}.cls-9{fill:#fff;}.cls-10{fill:#eaebed;}.cls-11{fill:#011720;}</style><clipPath id="clippath"><path class="cls-2" d="m472.52,311.92h-175v951.98h265.87s-173.39-88.07-181.58-306.21,25.6-262.17,116.75-360.49c91.15-98.31,43.17-237.73-26.04-285.28Z"/></clipPath></defs><rect class="cls-11" x="297.03" y="311.88" width="594.81" height="954.46"/><path class="cls-8" d="m594.16,1076.67s5.8-67.49,35.62-144.85c29.82-77.36,74.22-207.02,75.25-209.88s-122.81,8.42-175.75,15.14c-52.94,6.72-95.71,2.53-91.82,28.81,3.89,26.28,22.52,125.38,25.81,180.18,3.29,54.8,12.54,141.4,17.87,143.71,0,0,94.13,15.46,113.03-13.11Z"/><path class="cls-7" d="m464.82,1179.34s6.09-17.54,14.31-19.52c8.22-1.98,24.57-7.07,25.97-15.28s-2.92-10.92,10.88-17.57c13.8-6.65,91.94-37.25,84.68-47.49-7.26-10.25-44.69,10.71-60.5,8.7-7.9-1-13.92-3.41-19.92-5.26s-11.97-3.15-19.77-1.95c-15.61,2.4-50.37,5.2-60.52,1.78-10.15-3.42-26.6-7.63-51.77-11.93-25.17-4.29-61-3.56-60.71,3.27.29,6.83,10.8,1.3,18.22,7.35s6.87,5.96,15.71,6.9c8.85.95,54.26-2.85,54.26-2.85,0,0-18.87,6.64-11.76,7.85s25.85,5.25,17.63,7.23c-8.22,1.98-23.4,3.76-17.87,5.9,5.52,2.13,14.64,4.81,21.75,6.03s5.05,3.4,13.53,4.84c8.48,1.45,21.88,6.93,17.24,7.78s-12.09,4.93-12.09,4.93c0,0,6.89-.8,7.07,1.49.17,2.28-11.44,9.31-7.61,9.96,3.83.65,5.68,6.32,11.7,7.34,6.02,1.03,6.02,12.57,8.21,12.94s-19.08,2.94-18.91,5.22,15.45,5.17,20.28,12.33Z"/><path class="cls-3" d="m439.95,1082.76l-4.97-28.74s12.76-6.1,8.31-19.81c-4.44-13.71-27.47-16.22-33.72-5.75-6.25,10.47.64,20.9,4.7,22.03l-10.48,23.2s31.98,6.52,36.16,9.06Z"/><path class="cls-11" d="m457.01,915.24c3.63-.9,9.19-9.86,13.32-10.62,26.55-4.86,74.84-20.55,72.1-21.02s-11.45-.55-11.45-.55l128.79-62.63s-148.78,58.52-146.87,60.53c1.91,2.01,7.96,1.36,7.96,1.36,0,0-32.67,5.03-63.29,10.24"/><path class="cls-6" d="m457.57,892.55c-23.8,4.05-46.35,8.2-51.39,10.17-11.51,4.52-24.25,10.34-2.32,13.6l-34.85,12.27-5.42,18.95s19.83-14.78,36.04-17.36c16.21-2.58,45.13-12.9,40.93-12.61s-13.45.78-13.45.78c0,0,11.88-6.33,31.56-11.23"/><path class="cls-11" d="m506.18,1086.89l1.57.51c.33.11,8.28,2.69,17.14,4.36,12.79,2.42,20.55,1.67,23.73-2.29l.57-.7-.05-.9c0-.16-.85-16.24-1.85-32.13-.59-9.35-1.11-16.81-1.56-22.17-.27-3.21-.51-5.71-.73-7.42-.33-2.63-.57-4.53-2.54-4.87-1.06-.18-8.46-.53-16.1-.17-10.75.51-17.97,2.16-21.46,4.91l-.94.74,2.23,60.13Zm2.62-56.7c1.15,4.91,2.24,15.92,2.81,21.76.34,3.41.63,6.36.9,8.53.93,7.36,3.48,19.87,4.49,24.66-2.65-.69-4.85-1.33-6.23-1.74l-1.97-53.21Zm35.57,56.85c-.75.52-2.15,1.1-4.78,1.3l-6.23-62.68c2.88,0,5.31.06,6.85.15,1.06,7.21,3.04,39.96,4.16,61.23Zm-15.74-61.29l6.22,62.59c-2.62-.16-5.65-.57-9.05-1.21-1.5-.28-2.98-.6-4.41-.92l.63-.14c-.04-.17-3.71-17.34-4.82-26.19-.27-2.11-.55-5.03-.89-8.4-1.34-13.56-2.27-20.42-3.37-23.93,1.81-.46,3.88-.82,6.07-1.09l7.67,60.71,4.68-.59-7.66-60.57c1.65-.12,3.31-.2,4.92-.26Z"/><path class="cls-3" d="m613.29,982.34s-15.06,16.2-41.05,10.15c-25.98-6.04-64.78,9.89-77.77,39.7,0,0,5.83-33.08,29.52-45.77,23.69-12.69,39.75-4.75,47.92-4.7s37.41,2.97,47.21-20.07l-5.83,20.69Z"/><path class="cls-3" d="m621.21,954.83s-10.88,13.17-39.12,12.92c-28.24-.24-72.43,9.6-83.09,39,0,0,3.72-31.74,44.39-45.91,40.68-14.17,72.83-3.21,79.79-12.19l-1.97,6.17Z"/><path class="cls-3" d="m626.91,937.61s-20.43,14.71-36.67,11.7c-16.24-3.01-57.87.61-69.38,21.22,0,0,16.29-36.45,54.43-36.55,38.14-.1,45.54,6.07,54.66-4.88l-3.03,8.51Z"/><path class="cls-3" d="m633.5,919.62s-13.97,12.44-31.18,8.15-41.64,5.08-41.64,5.08c0,0,6.56-17.54,40.41-17.19s39.18-13.38,39.18-13.38l-6.77,17.34Z"/><path class="cls-9" d="m458.71,907.3c-10.51,2.71-28.29,7.68-31.6,11.06l13.45-.78-4.46,2.31s6.89,1.22,8.34,2.59c0,0,7.41-1.63,16.4-3.68"/><path class="cls-11" d="m655.61,861.28l-9.36,4.27s-.08-3.72-5.1-3.8-12.9.73-12.9.73c0,0,13.92-8.23,17.41-12.14s17.93-11.24,17.93-11.24l-7.98,22.18Z"/><path class="cls-11" d="m641.89,837.35l17.66-17.31,8.89,5.46-4.85,13.59s-15.53,1.32-21.7-1.75Z"/><path class="cls-11" d="m641.89,837.35l-10.54-1.23-47.43,20.7s6.78.46,7.87,2.34,3.6,2.02,3.6,2.02l46.51-23.83Z"/><polygon class="cls-11" points="631.35 836.13 659.55 820.05 627.75 835.51 631.35 836.13"/><path class="cls-11" d="m595.38,861.18s6.71,3.99,12.75,2.19c6.04-1.8,16.77-3.53,20.11-.9,0,0-43.33,15.96-48.45,18.52,0,0-3.47-.54-6.06-3.51-2.59-2.98-12.04-2.05-12.04-2.05,0,0,18.38-10.38,33.68-14.24Z"/><path class="cls-11" d="m579.8,880.99s9.07,1.88,16.69.09c7.63-1.8,12.27.69,12.27.69,0,0-15.94,4.32-22.8,9.91-6.86,5.59-24.64,12.41-24.64,12.41,0,0-3.81-2.62-11.24-1.92-7.42.7-15.11,1.29-17.69-.94,0,0,29.78-16.53,47.41-20.23Z"/><path class="cls-11" d="m532.39,901.22s-10.25-.16-12.52-3.37c0,0-5.89,4.81-11.83,5.82s-20.43,6.7-20.71,8.34c0,0,5.96,4.68,11.16,5.56,0,0,29.58-11.64,33.9-16.35Z"/><path class="cls-11" d="m498.49,917.57s15.01,1.15,16.09,4.71c0,0-19.56,7.36-23.12,8.44s-20.08.52-26.91-2.34c0,0,22.67-10.77,33.94-10.82Z"/><path class="cls-11" d="m460.63,918.43c9.4-2.14,20.52-4.74,26.71-6.42,0,0-1.54-2.52-7.88-3.31s-13.16-3.71-13.16-3.71c0,0-3.2.75-7.8,1.94"/><path class="cls-9" d="m464.77,928.77s-9.21-2.98-12.87-5.01c-3.66-2.03-7.45-1.27-7.45-1.27,0,0-8.91,2.7-13.3,5.33-4.39,2.63-12.01,2.74-14.26,6.01,0,0,11.35,2.78,15.17,5.12,0,0,4.71-3.7,12.64-3.97s20.07-6.22,20.07-6.22Z"/><path class="cls-9" d="m432.06,938.96s8.71,1.77,12.02,5.43c0,0-10.79,7.17-24.26,8.53l-8.51-4.55s7.14-4.09,11.54-5.05,9.21-4.36,9.21-4.36Z"/><path class="cls-9" d="m416.89,933.84s-3.51,1.37-6.8,1.37-10.38,5.27-14.85,5.07l-11.49-4.75s14.74-6.34,21.83-6.49c0,0,7.44,4.42,11.31,4.8Z"/><path class="cls-9" d="m395.24,940.28s12.62,5.25,16.07,8.09l-32.03,13.35s-11.45-1.06-11.62-5.03-1.67-5.07-1.67-5.07c0,0,11.39-9.04,29.24-11.34Z"/><path class="cls-11" d="m538.65,866.19l-22,.61,2.26-5.71s-23.27.59-27.12,3.31c0,0-3.16-7.86-2.79-10.05s-19.92,7.95-20.63,3,.66-8.41-1.96-9.4-24.97-.3-25.83-3.55-.18-9.64-.18-9.64c0,0-15.8,1.01-16.84-1.14-1.04-2.15-2.21-19.57-3.88-18.28s-10.85,3.95-11.42-.94c-.57-4.88-1.02-8.9-1.02-8.9l18.94-.43,4.01,23.01,19.76-.65-.92,13.17,24.96,1.1.15,11.77,22.04-6.61.47,10.45,28.87.74-2.8,4.89,24.87-.54-8.95,3.81Z"/><path class="cls-11" d="m531.4,757.14s123.15-10.93,140.16-7.47,15.49,43.87,5.63,38.04-15.29-20.16-29.49-16.16c-14.2,4-15.87,23.7-33.92,17.25s-23.52-18.93-45.39-12.81c-21.88,6.12-20.32,21.76-32.21,19.65s-19.83-1.78-19.82,8.08c0,9.85,7.4,4.48,12.18,10.3,4.78,5.82,11.18,9.57,18.47,3.15,7.28-6.42,20.55-26.03,31.01-24.85s22.5,13.09,29.07,19.13,15.85,5.26,21.46,3.32c5.62-1.94,10.78-24.35,24.54-21.48,13.76,2.87,2.27,20.58,25.53,18.8,23.26-1.79,32.31-38.09,26.39-90.14,0,0-59.57-9.93-175.75,15.14l2.13,20.06Z"/><path class="cls-7" d="m539.33,823.52c-.32,0-.65-.01-.97-.04-4.21-.34-8.29-2.89-12.13-7.57-1.23-1.5-2.64-1.86-4.82-2.31-3.2-.66-8.03-1.66-8.04-9.9,0-4.15,1.24-7.3,3.7-9.36,4.46-3.75,12.08-3.02,19.64-1.67,3.84.68,5.44-.98,9.03-5.12,4.02-4.65,9.52-11.01,21.85-14.46,16.06-4.49,24.4.52,33.22,5.82,4.15,2.49,8.44,5.07,13.99,7.06,8.91,3.19,12.63-.98,17.77-6.74,3.65-4.09,7.79-8.73,14.32-10.57,11.32-3.19,17.97,3.57,23.83,9.54,2.65,2.7,5.15,5.25,8,6.93.15.09.25.13.3.14,1.18-.72,3.28-6.68,2.2-15.67-.89-7.38-4.05-15.72-10.26-16.99-13.12-2.67-96.85,3.76-139.3,7.52l-2.94.26-2.72-25.67,2.63-.57c115.41-24.91,174.42-15.58,176.88-15.17l2.23.37.26,2.25c4.52,39.7.45,69.5-11.46,83.92-4.8,5.81-10.74,9.02-17.67,9.55-15.75,1.2-18.3-6.33-20.16-11.83-1.37-4.05-2.26-6.2-6.22-7.02-6.36-1.33-10.51,4.61-15.26,12.52-2.63,4.37-4.7,7.82-7.69,8.86-7.09,2.45-17.24,2.7-24.47-3.95-.52-.48-1.07-.99-1.65-1.53-6.38-5.93-17.07-15.86-25.73-16.83-6.12-.69-14.97,9.24-21.44,16.49-2.77,3.1-5.16,5.79-7.26,7.63-3.1,2.73-6.35,4.11-9.67,4.11Zm-12.71-25.95c-2.42,0-4.5.36-5.7,1.37-.39.32-1.56,1.31-1.55,4.76,0,3.35.5,3.46,3.25,4.02,2.37.49,5.61,1.16,8.25,4.38,2.77,3.38,5.45,5.19,7.98,5.39,2.01.17,4.03-.69,6.19-2.59,1.82-1.61,4.21-4.29,6.75-7.12,7.75-8.69,17.39-19.5,26.59-18.46,10.63,1.2,21.77,11.55,29.14,18.4.57.53,1.12,1.04,1.63,1.51,6.82,6.27,16.57,3.35,18.45,2.69.99-.42,3.11-3.94,4.51-6.28,4.21-7.01,10.57-17.61,21.62-15.3,7.5,1.56,9.33,7.01,10.68,10.98,1.69,5,2.92,8.62,14.01,7.76,5.24-.4,9.79-2.89,13.51-7.39,10.48-12.69,14.24-40.72,10.38-77.1-5.17-.63-19.24-2-41.78-1.48-26.27.6-69.67,3.93-127.98,16.34l1.53,14.44c19.26-1.68,122.14-10.41,138.08-7.17,6.95,1.41,12.17,7.99,14.34,18.06,2.06,9.57,1.13,21.66-3.98,25.35-2.03,1.47-4.53,1.52-6.85.15-3.52-2.08-6.42-5.04-9.23-7.89-6.21-6.32-10.4-10.09-17.92-7.97-4.85,1.37-8.06,4.97-11.47,8.79-5.42,6.07-11.56,12.95-24.27,8.4-6.11-2.19-10.86-5.04-15.06-7.56-8.68-5.21-14.95-8.98-28.52-5.18-10.59,2.96-15.21,8.31-18.93,12.61-3.74,4.33-7.26,8.41-14.61,7.11-2.95-.52-6.23-1.01-9.04-1.01Z"/><path class="cls-3" d="m539.87,809.88c3.85,2.7,9.42-5,4.63-7.96-4.8-2.96-10.1,4.13-4.63,7.96Z"/><path class="cls-3" d="m619.5,806.85c3.85,2.7,9.42-5,4.63-7.96-4.8-2.96-10.1,4.13-4.63,7.96Z"/><path class="cls-3" d="m676.3,805.56c3.85,2.7,9.42-5,4.63-7.96s-10.1,4.13-4.63,7.96Z"/><path class="cls-3" d="m573.54,787.76c1.97,3.07,10.95-.99,9.5-5.89s-13.53-.36-9.5,5.89Z"/><path class="cls-3" d="m646.91,786.76c1.97,3.07,10.95-.99,9.5-5.89-1.45-4.9-13.53-.36-9.5,5.89Z"/><path class="cls-6" d="m775.8,311.88s-62.56,82.96-10.39,180.24c52.17,97.28,114.81,207.89,38.95,386.09s-36.57,325.67,7.79,388.14h79.69V311.88h-116.04Z"/><path class="cls-3" d="m472.02,311.88h-175v951.98h265.87s-173.39-88.07-181.58-306.21,25.6-262.17,116.75-360.49c91.15-98.31,43.17-237.73-26.04-285.28Z"/><path class="cls-11" d="m752.04,1079.95s-16.39,9.22-36.87,12.29-62.47,21.51-62.47,21.51c0,0,32.77,27.75,49.67,30.77,0,0,20.7-27.13,60.79-28.95l-1.59-31.92s-3.38-.63-9.52-3.7Z"/><path class="cls-11" d="m652.7,1113.75s-9.73-9.73-18.95-12.8c-9.22-3.07-28.68-5.12-28.68-5.12,0,0-30.72,19.46-39.94,29.7-9.22,10.24-51.21,35.84-51.21,35.84,0,0,27.65-2.05,38.92,2.05s36.87,7.17,36.87,7.17c0,0,10.75-17.92,23.04-30.21s39.94-26.63,39.94-26.63Z"/><path class="cls-11" d="m702.37,1144.52s-34.31,18.38-39.43,38.87c0,0,36.87,3.07,49.16,2.05,0,0,14.82-12.29,24.82-14.85s29.68-16.75,30.59-21.43c0,0-36.98,6.68-65.14-4.63Z"/><path class="cls-11" d="m662.94,1183.39s-59.4-4.1-73.22-12.8c0,0-48.65,49.67-99.85,48.65,0,0,47.11,20.42,86.54,23.01,0,0,76.3-30.18,86.54-58.86Z"/><path class="cls-11" d="m712.1,1185.44s-7.17,10.24-19.46,17.41c-12.29,7.17-28.68,27.36-29.7,37.24,0,0,46.09-7.26,61.45-4.33,0,0,30.94-47.01,43.12-58.39,0,0-15.47,3.72-23.66,6.92-8.2,3.2-31.75,1.15-31.75,1.15Z"/><path class="cls-11" d="m489.87,1219.23s-19.46-13.31-35.84-19.46-23.7-26.63-36.43-29.19c0,0-163.28,9.73-197.58,48.65,0,0,41.48-13.31,124.44,33.8,0,0,26.63-16.39,63.5-18.43,36.87-2.05,81.93-15.36,81.93-15.36Z"/><path class="cls-11" d="m576.41,1242.24s-98.83,26.14-109.07,52.77c0,0,49.16,15.36,78.86,7.17,29.7-8.19,77.83-18.43,86.03-16.39l30.72-45.72s-40.96,11.86-86.54,2.16Z"/><path class="cls-11" d="m467.34,1295.02s-83.47-16.9-122.89-41.99c0,0-89.61,35.33-113.16,76.3,0,0,49.56,10.18,65.75,18.92,16.18,8.73,85.82,24.1,105.28,20,0,0,49.16-66.57,65.03-73.22Z"/><path class="cls-11" d="m632.22,1285.8s-5.63,16.9-23.04,31.24c-17.41,14.34-38.92,33.8-39.94,38.92,0,0,100.36-14.34,114.7-12.29,0,0,11.27-15.36,18.43-28.68,7.17-13.31,12.86-45.23,12.86-45.23,0,0-69.18,7.34-83.01,16.05Z"/><path class="cls-11" d="m231.28,1329.32s-50.18-7.17-57.35-28.68-131.09-22.53-131.09-22.53c0,0-15.64,37.92,11.13,47.12,26.77,9.2-24.9,21.83-10.33,43.68,14.57,21.85,88.97,33.84,129.6,3.78,40.63-30.06,58.04-43.38,58.04-43.38Z"/><path class="cls-11" d="m402.31,1368.24s-55.3,69.64-83.98,74.76c0,0,57.35-2.05,99.34-28.68,41.99-26.63,95.24-39.94,104.46,5.12,0,0,28.68-43.01,47.11-63.5l-166.93,12.29Z"/><path class="cls-9" d="m489.87,1219.23s-37.89,10.78-59.91,13.07-72.2,1.27-85.52,20.73c0,0,41.99,29.7,122.89,41.99,0,0,21.51-29.76,109.07-52.77,0,0-44.55-6.63-86.54-23.01Z"/><path class="cls-9" d="m417.59,1170.59s63.57,17.41,96.34-9.22c0,0,23.55-5.12,38.92,2.05,15.36,7.17,36.87,7.17,36.87,7.17,0,0-46.09,50.18-99.85,48.65,0,0-32.85-20.91-41.77-22.49s-31.6-20.01-30.51-26.16Z"/><path class="cls-9" d="m344.44,1253.03s-61.97-42.5-124.44-33.8c0,0-156.68.51-177.17,58.89,0,0,78.45-5.12,103.23,16.9,24.78,22.02,66.77,36.36,85.2,34.31,0,0,65.54-62.47,113.16-76.3Z"/><path class="cls-4" d="m509.89,931.2s-11.31,55.25,108.72,14.32c120.04-40.92,232.2-68.71,282.97-53,50.77,15.71,56.23,45.72,50.77,51.18-5.46,5.46-12.73,14.55-4.55,19.1,8.18,4.55,12.73-3.64,10-4.55-2.73-.91-13.64,4.55-7.28-6.37,6.37-10.91,18.19-7.28,18.19,4.55s-9.09,23.64-18.19,19.1c-9.09-4.55-14.55-6.37-10.91-28.19,3.64-21.83-25.46-60.93-113.67-40.92-88.21,20.01-227.55,69.7-277.01,63.95-49.46-5.75-39.06-39.17-39.06-39.17Z"/><path class="cls-7" d="m721.06,888.07s8.66,11.66,37.23,0c28.57-11.66,102.46-42.73,137.36-22.65,34.9,20.08,43.08,48.27,75.82,43.72,32.74-4.55,45.47-50.02-33.65-68.2-79.12-18.19-120.86,10.7-139.09,19.9-18.23,9.2-54.34,32.52-77.66,27.23Z"/><path class="cls-6" d="m1003.76,857.5c-5.72,4.36-43.63,18.34-68.87,21.89s-66.08,3.97-77.65-2.4c-11.57-6.37-1.85-13.01,11.18-12.29,13.03.71,19.67-3.03,11.73-7.2-7.94-4.17-1.19-15.19,17.77-12.35,18.96,2.84,23.74,13.49,30,10.66,6.26-2.84,15.03-9,24.27-4.49s9.72,9.75,17.06.61c7.35-9.14,20.91-15.14,34.51-9.89,13.6,5.25,0,15.47,0,15.47Z"/><path class="cls-7" d="m610.27,49.89c-134.09,53.55-262.02,97.49-249.41,227.3,12.61,129.81,463.08,158.51,567.36,65.28,104.28-93.23-61.82-394.86-317.95-292.58Z"/><path class="cls-9" d="m427.65,243.27v-2l2.77-.76c1.21-.32,2.05-.92,2.53-1.81.48-.89.71-1.97.71-3.24v-46.16c-.57-1.21-1.06-2.11-1.48-2.72-.42-.6-.84-1.13-1.29-1.57-.45-.44-1.05-.95-1.81-1.53l-1.72-1.24v-2h16.31l31.66,43.3v-35.38c0-1.27-.21-2.38-.62-3.34-.41-.95-1.26-1.59-2.53-1.91l-2.86-.67v-2h14.21v2l-2.38.67c-1.21.38-1.96,1.03-2.24,1.96-.29.92-.43,2.02-.43,3.29v55.5h-5.34l-36.34-49.97v41.68c0,1.33.19,2.45.57,3.34.38.89,1.18,1.49,2.38,1.81l2.58.76v2h-14.69Z"/><path class="cls-9" d="m509.86,196.06c4.01,0,7.44.83,10.3,2.48,2.86,1.65,5.07,3.93,6.63,6.82,1.56,2.89,2.34,6.22,2.34,9.97,0,.83-.03,1.61-.1,2.34-.06.73-.19,1.42-.38,2.05h-28.71c.06,6.55,1.29,11.25,3.67,14.11,2.38,2.86,5.87,4.29,10.44,4.29,3.18,0,5.75-.52,7.72-1.57,1.97-1.05,3.78-2.53,5.44-4.43l1.53,1.43c-1.91,3.5-4.5,6.22-7.77,8.15-3.28,1.94-7.17,2.91-11.68,2.91s-8.49-.95-11.92-2.86c-3.43-1.91-6.12-4.66-8.06-8.25-1.94-3.59-2.91-7.9-2.91-12.92s1.13-9.63,3.39-13.26c2.26-3.62,5.18-6.4,8.77-8.34,3.59-1.94,7.36-2.91,11.3-2.91Zm-.48,2.77c-1.84,0-3.45.52-4.82,1.57-1.37,1.05-2.45,2.89-3.24,5.53-.8,2.64-1.26,6.34-1.38,11.11h17.07c.7-6.42.45-11.06-.76-13.92-1.21-2.86-3.5-4.29-6.87-4.29Z"/><path class="cls-9" d="m551.91,244.61c-3.94,0-7.04-.97-9.3-2.91-2.26-1.94-3.39-5.1-3.39-9.49,0-1.53.02-2.97.05-4.34.03-1.37.05-2.97.05-4.82v-22.6h-6.77v-2.1l2.58-.38c1.84-.32,3.42-.89,4.72-1.72,1.3-.83,2.49-1.97,3.58-3.43l6.2-8.58h2.86l-.29,13.26h10.87v2.96h-10.97v32.52c0,2.29.49,4.01,1.48,5.15.98,1.14,2.21,1.72,3.67,1.72,1.27,0,2.42-.3,3.43-.91,1.02-.6,2.03-1.41,3.05-2.43l1.24,1.43c-1.21,2.1-2.89,3.74-5.05,4.91-2.16,1.18-4.83,1.76-8.01,1.76Z"/><path class="cls-9" d="m588.34,243.56l-14.59-39.67c-.38-1.14-.91-2.02-1.57-2.62-.67-.6-1.54-1.1-2.62-1.48l-1.62-.48v-1.81h22.79v1.81l-1.53.38c-2.42.64-3.21,2.16-2.38,4.58l8.68,25.94,8.01-21.27-1.43-4.29c-.45-1.33-.91-2.38-1.38-3.15-.48-.76-1.16-1.3-2.05-1.62l-1.62-.57v-1.81h19.65v1.81l-1.33.48c-1.02.38-1.64.91-1.86,1.57-.22.67-.11,1.64.33,2.91l8.49,25.37,8.58-25.27c.76-2.48.19-3.97-1.72-4.48l-1.91-.57v-1.81h12.78v1.81l-2.1.57c-1.08.32-1.91.8-2.48,1.43-.57.64-1.05,1.53-1.43,2.67l-13.73,39.58h-4.96l-10.4-30.42-11.25,30.42h-5.34Z"/><path class="cls-9" d="m664.73,244.61c-4.71,0-8.82-.99-12.35-2.96-3.53-1.97-6.26-4.77-8.2-8.39-1.94-3.62-2.91-7.95-2.91-12.97s1.03-9.35,3.1-12.97c2.07-3.62,4.86-6.4,8.39-8.34,3.53-1.94,7.52-2.91,11.97-2.91s8.44.97,11.97,2.91c3.53,1.94,6.33,4.71,8.39,8.3,2.07,3.59,3.1,7.93,3.1,13.02s-.97,9.36-2.91,13.02c-1.94,3.66-4.66,6.45-8.15,8.39-3.5,1.94-7.63,2.91-12.4,2.91Zm0-2.67c2.29,0,4.15-.62,5.58-1.86,1.43-1.24,2.46-3.42,3.1-6.53.63-3.11.95-7.47.95-13.07s-.32-10.06-.95-13.21c-.64-3.15-1.67-5.34-3.1-6.58-1.43-1.24-3.29-1.86-5.58-1.86s-4.13.62-5.53,1.86-2.43,3.43-3.1,6.58c-.67,3.15-1,7.55-1,13.21s.33,9.95,1,13.07c.67,3.12,1.7,5.29,3.1,6.53s3.24,1.86,5.53,1.86Z"/><path class="cls-9" d="m692.58,243.27v-1.81l1.43-.48c1.27-.32,2.15-.86,2.62-1.62.48-.76.71-1.78.71-3.05v-27.94c-.06-1.4-.32-2.46-.76-3.19-.45-.73-1.3-1.22-2.58-1.48l-1.43-.38v-1.72l15.54-5.53,1.14,1.05.86,8.39v.67c.95-1.78,2.16-3.43,3.62-4.96,1.46-1.53,3.05-2.77,4.77-3.72,1.72-.95,3.43-1.43,5.15-1.43,2.42,0,4.23.64,5.44,1.91,1.21,1.27,1.81,2.89,1.81,4.86,0,2.16-.6,3.8-1.81,4.91-1.21,1.11-2.67,1.67-4.39,1.67-2.54,0-4.74-1.14-6.58-3.43l-.19-.19c-.64-.76-1.35-1.19-2.15-1.29-.8-.1-1.57.3-2.34,1.19-.64.64-1.23,1.38-1.76,2.24-.54.86-1.03,1.86-1.48,3v24.99c0,1.21.25,2.21.76,3,.51.8,1.37,1.35,2.58,1.67l2.86.86v1.81h-23.84Z"/><path class="cls-9" d="m732.35,243.27v-1.81l1.43-.48c2.16-.63,3.24-2.19,3.24-4.67v-49.4c0-1.27-.25-2.24-.76-2.91s-1.4-1.16-2.67-1.48l-1.24-.38v-1.81l16.69-4.01,1.24.86-.38,13.45v45.68c0,2.54,1.08,4.13,3.24,4.77l1.34.38v1.81h-22.13Zm34.91,0l-17.26-23.84,16.88-15.64c.83-.7,1.3-1.48,1.43-2.34.13-.86-.41-1.45-1.62-1.76l-1.53-.38v-1.81h14.88v1.81l-2.77.67c-1.4.38-2.54.91-3.43,1.57-.89.67-1.94,1.54-3.15,2.62l-10.49,9.82,16.21,22.22c1.02,1.33,1.94,2.37,2.77,3.1.83.73,1.94,1.35,3.34,1.86l.95.29v1.81h-16.21Z"/><path class="cls-9" d="m786.8,243.27v-1.81l1.43-.38c1.27-.38,2.13-.95,2.57-1.72.44-.76.7-1.78.76-3.05v-23.03c0-1.68-.03-3.42-.1-5.2,0-1.27-.24-2.27-.71-3-.48-.73-1.35-1.22-2.62-1.48l-1.34-.29v-1.72l16.69-5.53,1.14,1.05-.29,13.54v25.75c0,1.27.24,2.29.71,3.05.48.76,1.32,1.34,2.53,1.72l1.05.29v1.81h-21.84Zm10.97-52.45c-2.1,0-3.88-.67-5.34-2-1.46-1.33-2.19-3.02-2.19-5.05s.73-3.8,2.19-5.1c1.46-1.3,3.24-1.96,5.34-1.96s3.88.65,5.34,1.96c1.46,1.3,2.19,3,2.19,5.1s-.73,3.72-2.19,5.05c-1.46,1.34-3.24,2-5.34,2Z"/><path class="cls-9" d="m812.84,243.27v-1.81l1.53-.38c2.1-.63,3.15-2.19,3.15-4.67v-28.13c-.06-1.33-.29-2.37-.67-3.1-.38-.73-1.21-1.22-2.48-1.48l-1.53-.38v-1.72l15.45-5.53,1.14,1.05.67,5.91c2.29-2.03,4.85-3.7,7.68-5.01,2.83-1.3,5.61-1.96,8.34-1.96,4.2,0,7.42,1.14,9.68,3.43,2.26,2.29,3.39,5.79,3.39,10.49v26.51c0,2.48,1.14,4.04,3.43,4.67l1.05.29v1.81h-21.94v-1.81l1.43-.38c2.1-.7,3.15-2.26,3.15-4.67v-28.32c0-2.22-.48-3.85-1.43-4.86-.95-1.02-2.54-1.53-4.77-1.53-3.12,0-6.36,1.37-9.73,4.1v30.71c0,2.48,1.11,4.04,3.34,4.67l.95.29v1.81h-21.84Z"/><path class="cls-9" d="m888.18,226.96c-4.2,0-7.79-.7-10.78-2.1v3.43c0,1.91.95,3.05,2.86,3.43l16.97,3.15c3.24.64,6.1,1.42,8.58,2.34,2.48.92,4.42,2.23,5.82,3.91,1.4,1.69,2.1,3.96,2.1,6.82,0,3.05-1,5.9-3,8.54-2,2.64-4.96,4.77-8.87,6.39-3.91,1.62-8.79,2.43-14.64,2.43-5.02,0-9.01-.52-11.97-1.57-2.96-1.05-5.07-2.4-6.34-4.05-1.27-1.65-1.91-3.43-1.91-5.34,0-2.29.78-4.58,2.34-6.87,1.56-2.29,3.58-4.2,6.06-5.72-3.88-1.46-5.82-3.78-5.82-6.96,0-1.21.29-2.32.86-3.34.57-1.02,1.27-2.03,2.1-3.05l3.43-4.29c-4.58-2.67-6.87-6.83-6.87-12.49,0-4.64,1.64-8.39,4.91-11.25,3.27-2.86,8-4.29,14.16-4.29s10.93,1.43,14.31,4.29c2.03-.32,3.94-.83,5.72-1.53,1.78-.7,3.43-1.65,4.96-2.86l1.33.95v5.34h-10.3c2.03,2.54,3.05,5.66,3.05,9.35,0,4.52-1.64,8.2-4.91,11.06-3.28,2.86-8,4.29-14.16,4.29Zm-13.73,24.61c0,3.5,1.11,6.12,3.34,7.87,2.22,1.75,5.75,2.62,10.59,2.62,5.34,0,9.3-.87,11.87-2.62,2.58-1.75,3.86-4.05,3.86-6.91,0-1.78-.65-3.18-1.96-4.2-1.3-1.02-3.48-1.81-6.53-2.38l-17.07-3.34c-.26-.06-.51-.13-.76-.19-.95,1.27-1.75,2.73-2.38,4.39-.64,1.65-.95,3.24-.95,4.77Zm13.54-27.18c2.67,0,4.62-1.03,5.87-3.1,1.24-2.07,1.86-5.39,1.86-9.97s-.61-7.76-1.81-9.73c-1.21-1.97-3.08-2.96-5.63-2.96s-4.43,1-5.67,3c-1.24,2-1.86,5.29-1.86,9.87s.57,7.87,1.72,9.87,2.99,3,5.53,3Z"/><path class="cls-9" d="m564.43,292.41c0,7.06-1.32,12.54-3.96,16.45-2.64,3.91-6.34,6.63-11.11,8.15s-10.33,2.29-16.69,2.29h-13.92v-53.69h13.92c6.36,0,11.92,1,16.69,3,4.77,2,8.47,4.98,11.11,8.92,2.64,3.94,3.96,8.9,3.96,14.88Zm-41.29,23.08h10.3c5.28,0,9.9-.6,13.88-1.81,3.97-1.21,7.06-3.46,9.25-6.77,2.19-3.31,3.29-8.14,3.29-14.5,0-5.21-1.1-9.52-3.29-12.92-2.19-3.4-5.28-5.91-9.25-7.53-3.97-1.62-8.6-2.43-13.88-2.43h-10.3v45.97Z"/><path class="cls-9" d="m572.34,319.3v-38.72h3.72l.57,9.92c.63-2.73,2.13-5.07,4.48-7.01,2.35-1.94,5.66-2.91,9.92-2.91h2.1v4.86h-2.1c-4.32,0-7.5.68-9.54,2.05-2.04,1.37-3.35,3.19-3.96,5.48-.61,2.29-.91,4.83-.91,7.63v18.69h-4.29Z"/><path class="cls-9" d="m614.69,320.25c-4.13,0-7.55-.98-10.25-2.96-2.7-1.97-4.72-4.5-6.06-7.58-1.33-3.08-1.97-6.28-1.91-9.58,0-3.43.7-6.64,2.1-9.63,1.4-2.99,3.45-5.39,6.15-7.2,2.7-1.81,5.99-2.72,9.87-2.72,4.83,0,8.82,1.57,11.97,4.72,3.15,3.15,4.91,7.36,5.29,12.64.06.32.1,1.02.1,2.1h-31.28c0,5.09,1.21,9.09,3.62,12.02,2.42,2.93,5.88,4.39,10.4,4.39,3.24,0,6.06-.86,8.44-2.58,2.38-1.72,3.86-4.04,4.44-6.96h4.29c-.76,3.94-2.69,7.15-5.77,9.63-3.08,2.48-6.88,3.72-11.4,3.72Zm-13.73-22.79h26.51c-.06-1.65-.52-3.5-1.38-5.53-.86-2.03-2.23-3.81-4.1-5.34-1.88-1.53-4.34-2.29-7.39-2.29-4.2,0-7.41,1.3-9.63,3.91-2.23,2.61-3.56,5.69-4,9.25Z"/><path class="cls-9" d="m653.6,320.25c-3.56,0-6.52-.91-8.87-2.72-2.35-1.81-4.1-4.23-5.25-7.25-1.14-3.02-1.72-6.37-1.72-10.06s.59-7.23,1.76-10.25c1.18-3.02,2.94-5.34,5.29-6.96,2.35-1.62,5.28-2.43,8.77-2.43,3.75,0,6.74.84,8.96,2.53,2.22,1.69,3.81,3.88,4.77,6.57l.19-.52v-8.58h4.39v38.72h-3.62l-.76-7.84-.19-.17c-1.02,2.35-2.64,4.44-4.86,6.25-2.23,1.81-5.18,2.72-8.87,2.72Zm1.62-4.01c4.07,0,7.12-1.41,9.16-4.24,2.03-2.83,3.05-6.72,3.05-11.68,0-5.28-1.07-9.19-3.2-11.73-2.13-2.54-5.13-3.81-9.01-3.81-4.52,0-7.82,1.45-9.92,4.34-2.1,2.89-3.15,6.6-3.15,11.11s1.08,8.55,3.24,11.54c2.16,2.99,5.44,4.48,9.82,4.48Z"/><path class="cls-9" d="m679.25,319.3v-38.72h3.62l.38,10.3h.19c.19-.57.52-1.41,1-2.53.48-1.11,1.19-2.26,2.15-3.43.95-1.18,2.22-2.19,3.81-3.05,1.59-.86,3.56-1.29,5.91-1.29,2.54,0,4.59.49,6.15,1.48,1.56.99,2.78,2.27,3.67,3.86.89,1.59,1.53,3.24,1.91,4.96h.19c.19-.57.56-1.41,1.1-2.53.54-1.11,1.33-2.26,2.38-3.43,1.05-1.18,2.4-2.19,4.05-3.05,1.65-.86,3.66-1.29,6.01-1.29,2.54,0,4.61.51,6.2,1.53,1.59,1.02,2.83,2.31,3.72,3.86.89,1.56,1.53,3.23,1.91,5.01.38,1.78.6,3.48.67,5.1.06,1.62.09,2.97.09,4.05v19.17h-3.91v-19.26c0-1.08-.05-2.46-.14-4.15-.09-1.68-.45-3.4-1.05-5.15-.6-1.75-1.57-3.21-2.91-4.39-1.34-1.18-3.24-1.76-5.72-1.76-2.73,0-4.96.76-6.68,2.29-1.72,1.53-3,3.53-3.86,6.01-.86,2.48-1.29,5.18-1.29,8.11v18.31h-3.91v-19.26c0-1.08-.05-2.46-.14-4.15-.1-1.68-.45-3.4-1.05-5.15-.61-1.75-1.57-3.21-2.91-4.39-1.34-1.18-3.24-1.76-5.72-1.76-2.73,0-4.96.76-6.68,2.29-1.72,1.53-3,3.53-3.86,6.01-.86,2.48-1.29,5.18-1.29,8.11v18.31h-4.01Z"/><path class="cls-9" d="m759.55,320.25c-4.13,0-7.55-.98-10.25-2.96-2.7-1.97-4.72-4.5-6.06-7.58-1.33-3.08-1.97-6.28-1.91-9.58,0-3.43.7-6.64,2.1-9.63,1.4-2.99,3.45-5.39,6.15-7.2,2.7-1.81,5.99-2.72,9.87-2.72,4.83,0,8.82,1.57,11.97,4.72,3.15,3.15,4.91,7.36,5.29,12.64.06.32.1,1.02.1,2.1h-31.28c0,5.09,1.21,9.09,3.62,12.02,2.42,2.93,5.88,4.39,10.4,4.39,3.24,0,6.06-.86,8.44-2.58,2.38-1.72,3.86-4.04,4.43-6.96h4.29c-.76,3.94-2.69,7.15-5.77,9.63-3.08,2.48-6.88,3.72-11.4,3.72Zm-13.73-22.79h26.51c-.06-1.65-.52-3.5-1.38-5.53-.86-2.03-2.23-3.81-4.1-5.34-1.88-1.53-4.34-2.29-7.39-2.29-4.2,0-7.41,1.3-9.63,3.91-2.23,2.61-3.56,5.69-4.01,9.25Z"/><path class="cls-9" d="m785.97,319.3v-38.72h3.72l.57,9.92c.63-2.73,2.13-5.07,4.48-7.01,2.35-1.94,5.66-2.91,9.92-2.91h2.1v4.86h-2.1c-4.32,0-7.5.68-9.54,2.05-2.04,1.37-3.35,3.19-3.96,5.48-.61,2.29-.91,4.83-.91,7.63v18.69h-4.29Z"/><g class="cls-1"><path class="cls-11" d="m349.62,343.63l26.04,51s-73.93-10.68-77.7-12.61l10.23-25.27,13.79,24.06s17.58-47.11,27.65-37.18Z"/><path class="cls-11" d="m372,355.18l14.22-10.49s18.44,36.44,31.8,38.25c13.36,1.81,27.68,20.76,27.68,20.76l-17.09,15.73-18.38-25.08-10.2,33.64,43.96,5.22.08,22.74-39.72-9.9-9.46,44.66-21.02-17.19,21.18-33.68-20.03-10.35-27.04-2.57s3.4,11.73-.55,18.84l8.44-8.55,21.44,5.78-15.53,31.71s-18.73-21.07-30.52-19.78c0,0-8.83-26.94-2.8-30.1,6.03-3.16,14.3-13.48,14.3-13.48,0,0-10.64-3.33,2.69-11.45,13.34-8.12,12.06-.82,13.1,8.76,1.04,9.57,11.22-17.16,23.98,6.98l9.02-13.21,5.59-23.22-15.75-5.01-9.42-19.01Z"/><path class="cls-11" d="m325.01,394.15l11.09,1.29s-40.36,28.05-22.58,55.88c17.78,27.83,50.02,32.3,65.81,43.4,15.79,11.1,37.96,41.64,22.53,71.81-15.43,30.17-84.41,72.73-93.84,99.18-9.42,26.45-12.61,75.38,14.04,76.77,26.65,1.39,75.92-21.42,81.69-24.72l-.83,12.99s-46.47,43.6-75.78,37.08c-29.31-6.52-49.74-33.08-47.92-73.03s32.42-79.27,58.55-89.43c26.13-10.16,63.99-23.13,60.88-51.55-3.11-28.42-32.14-49.48-52.07-49.84-19.93-.36-47.28-16.7-50.25-47.88-2.96-31.17,14.43-56.98,28.66-61.95Z"/><path class="cls-11" d="m287.09,491s-11,44.29,9.77,49.74,29.06-12.45,28-17.88-15.27-15.69-18.46-2.42c0,0-4.18-9.29,10.17-9.52,14.35-.23,22.24,27.74,22.24,27.74l-24.16,22.97-14.15-15.51s-14.52,38.23-15.44,38.11,31.42-2.92,31.42-2.92l-10.87,9.37-16.89,1.57-1.54,47.39s16.64-28.07,21.36-36.8c4.71-8.73,14.42-11.29,19.33-.14l17.62-6.61-14.14-21.34,14.82-12.98s7.54,16.43,7.76,24.42c0,0,21.04-5.89,24.58-9.36,0,0-11.63-21.21-22.39-22.52l16.64-21.54,12.27,30.91s5.35-13.76,5.63-22.63c0,0-8.81-23.49-39.53-15.11l1.36-15.05-18.65-2.52s-26.08-20.96-46.74-17.38Z"/><path class="cls-11" d="m367.19,639.51l-13.28-13.14,18.19-17.29,7.49,9.25,23.12-20.79,2.36,25.43-25,8.02s3.15,2.73,4.09,6.93c.94,4.21-2.55,9.66-2.55,9.66,0,0,10.05-.34,19.26,3.68,9.21,4.02-6.37,18.73-6.37,18.73l8.27,37.36-16.59,9.03s.47-21.9-1.72-21.69-19.75,13.44-19.75,13.44c0,0,10.77,2.87,9.64,14.58,0,0-11.18-3.38-20.45,1.9s-19.63,6.8-19.63,6.8l-9.16-21.25,9.59-9.73,8.89,9.4,34.47-27.52-4.78-21.66-15.55,7.1,3.09,13.12-23.68,12.98s-5.02-18.32-10.46-23.34l40.49-30.99Z"/><polygon class="cls-11" points="286.59 765.12 292.79 802.12 314.36 778.28 286.59 765.12"/><path class="cls-11" d="m392.93,755.24l5.6,37.05s-81.51,22.29-85.59,34.1c-4.08,11.81-13.36,99.94-4.38,99.68,8.99-.26,91.14,27.47,91.14,27.47,0,0,7.6,98.76-.13,117.16l-14.4-9.82s12.14-79.43,8.42-83.81c-3.72-4.38-52.74-31.06-100.73-39.71,0,0-1.28-114.79,5-126.37,6.28-11.58,90.33-59.72,95.06-55.74Z"/><path class="cls-11" d="m380.69,803.29l14.54-5.74-5.06,138.68-75.88-15.81,8.14-87.89s46.06-18.41,46.75-9.61c.68,8.8-.97,85.38-6.04,84.66-5.08-.72-31.25-1.94-31.46-1.75s-.24-41.7,7.67-42.76,4.52,21.91,5.92,25.09c1.4,3.19,10.18,8.45,9.71-2.56-.47-11.01-2.66-34.57-4.46-36.06-1.8-1.49-20.47-.31-20.47-.31,0,0-3.97,52.01-3.59,59.31s9.86,14.16,18.35,13.37c8.49-.79,23.09,1.72,23.09,1.72l12.78-120.33Z"/><path class="cls-11" d="m344.34,1095.17l10.16,26.13s31.99-81.45,32.41-137.57c0,0-24.35-15.95-38.28-18.95-13.93-2.99-29.54-16.46-29.54-16.46l-22.57,43.81,47.88,53.04s15.02-28.49,14.56-33.42c0,0-29.26-20.5-31.24-22.52s-3.68,12.35-3.68,12.35l23.12,14.03-4.47,11.17s-34.77-20.34-32.12-31.86c2.65-11.52,10.77-22.38,10.77-22.38l52.89,30.77-29.9,91.87Z"/><polygon class="cls-11" points="383.19 1067.24 356.56 1147.6 383.28 1225.91 393.05 1145.66 385.37 1138.32 378.21 1157.78 374.45 1142.77 395.76 1078.83 383.19 1067.24"/></g><path class="cls-10" d="m643.35,553.72c-34.47,7.83-51.74,31.62-50.3,68.99,1.44,37.37-10.06,50.3-41.68,48.86-31.62-1.44-79.05,7.19-79.05,40.24s47.43,31.62,64.67,15.81c17.25-15.81,64.01-27.31,69.37-8.62,5.36,18.68,20.73,69.16,94.96,43.92,74.24-25.24,21.06-53.98,26.81-68.35,5.75-14.37,27.31-21.56,37.37-10.06,10.06,11.5,60.36,28.74,53.18-12.93-7.19-41.68-38.8-53.18-58.92-50.3-20.12,2.87-27.31,28.74-4.31,30.18,23,1.44,21.56-11.5,21.56-11.5,0,0,21.56,34.49-4.31,30.18-25.87-4.31-43.12-7.19-40.24-48.86,2.87-41.68-25.87-81.92-89.11-67.55Z"/><path class="cls-6" d="m641.64,561.48c-31.35,7.13-47.06,28.76-45.75,62.74,1.31,33.99-9.15,45.75-37.91,44.44-28.76-1.31-71.89,6.54-71.89,36.6s43.14,28.76,58.82,14.38c15.69-14.38,58.22-24.84,63.1-7.84,4.88,16.99,18.85,62.9,86.37,39.95,67.52-22.95,19.16-49.1,24.38-62.17,5.23-13.07,24.84-19.61,33.99-9.15s54.9,26.14,48.36-11.76c-6.54-37.91-35.29-48.36-53.59-45.75-18.3,2.61-24.84,26.14-3.92,27.45,20.91,1.31,19.61-10.46,19.61-10.46,0,0,19.61,31.37-3.92,27.45-23.53-3.92-39.21-6.54-36.6-44.44,2.61-37.91-23.53-74.51-81.04-61.44Z"/><path class="cls-7" d="m456.39,457.07c4.68,12.77,26,20.76,15.94,42.89-10.06,22.14-12.93,24.66-40.24,24.12-27.31-.54-60.36,33.95-41.68,69.88,18.68,35.93,66.48,11.14,84.98-5.93,18.5-17.07,52.99-37.19,67.36-15.63,14.37,21.56,10.06,70.42,66.11,56.05,56.05-14.37,37.37-60.36,56.05-63.24,18.68-2.87,61.8-5.75,57.49-53.18s-23.93-73.59-57.24-68.41c-33.3,5.18-44.8,38.23-62.05,18.11-17.25-20.12-28.74-45.99-73.3-51.74-44.55-5.75-89.36,3.6-73.42,47.07Z"/><path class="cls-4" d="m814.39,483.71c-6.42,18.69-12.94,47.02-37.38,31.21-24.43-15.81-107.79-23-125.04,20.12-17.25,43.12-1.44,91.98,51.74,80.48,53.18-11.5,66.11-24.43,84.79-2.87,18.68,21.56,68.92,40.81,72.55,13.94,3.62-26.87,3.58-49.48,14.38-48.24,10.8,1.24,23.74,12.74,45.29,24.24,21.56,11.5,70.42,21.56,83.36-24.43,12.93-45.99-2.87-60.36-21.56-71.86s-28.74-7.19-45.99-10.06c-17.25-2.87-2.87-15.81-18.68-28.74s-81.9-46.6-103.47,16.22Z"/><path class="cls-4" d="m505.38,514.91s-12.7-7.55-9.94,4.85c2.76,12.4,23.75,6.35,24.03-3.56s-.27-13.95-12.21-16.96c-11.94-3.01-40.93-5.44-41.52,13.74-.6,19.18,13.78,26.37,23.84,23.49,10.06-2.87,26.84-7.4,29.95.61,3.11,8.01-6.95,20.95-19.89,26.7,0,0,24.29-4.5,26.52-13.03,2.23-8.53-2.66-26.37-25.37-20.32-22.71,6.05-25.58-11.2-22.71-19.82,2.87-8.62,17.25-11.5,27.31,4.31Z"/><path class="cls-6" d="m523.76,473.71s-15.34,3.7-12.9-6.04c2.44-9.74,13.39-8.52,19.48-7.31,6.09,1.22,19.48,17.05,3.65,25.57-15.83,8.52-37.85,8.65-43.28-16.37-5.43-25.02,41.13-19.34,50.72-10.01,9.6,9.33,13.25,21.51,4.73,38.56-8.52,17.05,9.74,54.79,46.27,52.36,36.53-2.44,45.05-9.74,53.57-20.7,8.52-10.96,25.05-28.11,42.97-28.67,17.91-.55,24-13.95,14.26-27.34-9.74-13.39-25.57-29.22-46.27-15.83-20.7,13.39-34.09,32.87-54.79,17.05-20.7-15.83-38.96-47.48-73.05-38.96-34.09,8.52-54.79,20.7-47.48,38.96,7.31,18.26,47.72,23.05,42.12-1.26Z"/><path class="cls-7" d="m955.16,533.8s20.94,13.41-5.12,25.29c-26.06,11.88-26.06-33.68-15.26-42.08,10.79-8.39,25.32-16.79,47.43,0,22.11,16.79,16.12,70.74-12.66,77.94-28.78,7.19-75.54-9.59-79.14-33.57-3.6-23.98,9.85-60.05,34.3-59.4,24.45.65-11.2,8.74-13.16,22.68-1.96,13.94.44,34.32,20.82,41.52,20.38,7.19,37.17,4.8,37.17-8.39s-3.6-29.98-14.39-23.98Z"/><path class="cls-11" d="m835.32,506.09s7.18-10.78,11.97-9.58c4.79,1.2,8.38,11.97,2.39,16.76-5.99,4.79-16.79,12.94-25.76,7.07-8.96-5.87-12.99-27.01,6.38-45.78,19.37-18.76,44.52-10.38,52.9-2,8.38,8.38,8.38,21.55-4.79,37.12-13.17,15.56-20.35,29.93-15.56,41.9,4.79,11.97,12.39,11.89,2,28.69-10.38,16.8-3.2,37.16-27.15,38.36-23.95,1.2-33.52-17.96-33.52-17.96,0,0,28.73,16.76,38.31,8.38,9.58-8.38-.2-12.4,4.09-20.57s11.47-5.77,7.88-21.34c-3.59-15.56-9.48-32.63,1.84-43.85,11.33-11.22,20.9-25.59,11.33-35.17-9.58-9.58-33.52,0-32.33,17.96Z"/><path class="cls-6" d="m788.63,553.14c-3.99,9.71-22.69,10.73-23.77-5.85-1.08-16.58,27.05-18.83,38.3-14.33,11.25,4.5,27.01,32.63,5.63,50.64-21.38,18-27.01,3.38-37.13,3.38s-20.25,11.25-23.63,1.13,11.25-23.63,19.13-19.13,22.5,13.5,24.76-1.13c2.25-14.63-.94-20.41-3.28-14.7Z"/><path class="cls-11" d="m748.27,517.79c-7.4-7.4-17.25,1.44-18.68,12.93s-15.81,17.25-12.93,23c2.87,5.75,15.43,6.97,15.62-4.42s.19-17.14,8.81-15.7c8.62,1.44,14.37-8.62,7.19-15.81Z"/><path class="cls-11" d="m746.83,553.72c-2.76-3.31-9.89.27-9.26,7.32s16.44,1.3,9.26-7.32Z"/><path class="cls-7" d="m669.22,685.94c-14.75,9.39-27.31-2.87-35.93-8.62-8.62-5.75-27.31-1.44-28.74,11.5-1.44,12.93-2.87,12.93,12.93,31.62,15.81,18.68,27.31,35.93,61.8,25.87,34.49-10.06,41.09-24.81,34.2-46.18-6.89-21.37-28.45-24.25-44.26-14.19Z"/><path class="cls-5" d="m679.28,693.13c-10.7,7.13-19.42,12.93-33.42,5.03-14-7.9-25.5-5.03-25.5,6.47s15.81,23,34.49,23,38.2-14.42,36.34-21.58c-1.85-7.16-7.6-15.79-11.91-12.91Z"/><path class="cls-11" d="m669.22,707.5c-15.81,0-27.72-3.84-23.92,4.55s32.54-4.55,23.92-4.55Z"/><path class="cls-4" d="m680.94,616.22s-13.83-1.46-13.17,1.09c.66,2.55,4.35,3.28,7.24,3.46,2.9.18,4.98,2.49-.67,3.43s-23.03-.7-29.88-1.24c-6.85-.55-31.74.91-33.32,12.19-1.58,11.28,15.28,16.2,31.34,14.92s63.48-7.83,64.66-2.73c1.19,5.1-28.84,9.65-47.41,7.83-18.57-1.82-38.98.73-49.91-4.55-10.93-5.28-17.68-9.29-9.57-14.93,0,0-3.14,4.28,1.73,4.46,4.87.18,4.87-6.55,3.29-7.64-1.58-1.09-13.17-1.82-13.43,6.92-.26,8.74,18.57,15.47,28.18,17.84,9.61,2.37,47.67,4.91,63.21,3.82,15.54-1.09,43.2-7.28,40.3-18.93-2.9-11.65-30.55-8.55-37.8-6.19-7.24,2.37-35.56,8.01-46.75,5.28-11.19-2.73-16.46-5.46-11.33-9.83,5.14-4.37,31.87-2,38.06-1.46,6.19.55,18.57,0,20.68-4.73,2.11-4.73-.4-7.1-5.47-9.01Z"/><path class="cls-7" d="m670.73,530.3c-2.33,8.85-10.86,16.54,0,20.85s26.3-19.42,19.44-24.57c-6.86-5.15-18.01-1.72-19.44,3.72Z"/><path class="cls-5" d="m673.16,532.56c-1.61,6.11-7.5,11.42,0,14.4,7.5,2.98,18.17-13.41,13.43-16.97s-12.44-1.18-13.43,2.57Z"/><path class="cls-9" d="m675.91,535.97c-.8,3.03-3.71,5.65,0,7.13,3.71,1.47,8.99-6.64,6.64-8.4-2.35-1.76-6.16-.59-6.64,1.27Z"/><path class="cls-7" d="m659.7,560.41c-4.89,5.78-6.22,29.53,3.11,31.08,9.32,1.55,16.36-3.48,15.8-19.46-.57-15.97-12.07-19.7-18.9-11.62Z"/><path class="cls-5" d="m662.21,564.77c-3.32,3.93-4.23,20.07,2.11,21.13,6.34,1.06,11.12-2.37,10.74-13.23-.39-10.86-8.2-13.39-12.85-7.9Z"/><path class="cls-9" d="m664.75,569.05c-1.79,2.11-2.27,10.78,1.14,11.35,3.41.57,5.98-1.27,5.77-7.11-.21-5.83-4.41-7.2-6.91-4.25Z"/><path class="cls-9" d="m576.41,1242.24s41.48,11.92,86.54-2.16c0,0,11.02-28.25,24.54-33.67,13.52-5.42,23.72-15.54,24.62-20.98,0,0-42.21,1.34-49.16-2.05,0,0-18.63,30.6-86.54,58.86Z"/><path class="cls-9" d="m662.94,1240.08l-17.65,26.26h70.75s6.74-27.83,8.34-30.58c0,0-28.5-3.59-61.45,4.33Z"/><path class="cls-9" d="m702.37,1144.52s28.65,11.78,65.14,4.63c0,0-4.19-25.01-4.35-33.58,0,0-39.41,1.47-60.79,28.95Z"/><path class="cls-9" d="m767.51,1177.36s-13.81,3.21-23.66,6.92c-9.85,3.71-24.65,3.59-31.75,1.15,0,0,15.74-15.26,24.82-14.85s30.59-21.43,30.59-21.43l4.62,22.6-4.62,5.61Z"/><path class="cls-9" d="m702.37,1144.52s-35.48,20.25-39.43,38.87c0,0-57.5-1.22-73.22-12.8,0,0,21.69-41.09,62.98-56.84l49.67,30.77Z"/><path class="cls-9" d="m652.7,1113.75s-13.54-18.1-47.62-17.92c0,0,70.66-28.49,97.29-38.16,0,0,29.86,31.54,39.74,26.94s-61.71,27.89-89.41,29.14Z"/><path class="cls-9" d="m742.12,1084.6l21.04,14.17s-1.88,11.43-1.52-28.67c0,0-10.41,11.11-19.53,14.5Z"/></svg>