<?xml version="1.0" encoding="UTF-8"?><svg id="Capa_2" xmlns="http://www.w3.org/2000/svg" xmlns:xlink="http://www.w3.org/1999/xlink" viewBox="0 0 1080 1567"><defs><style>.cls-1{clip-path:url(#clippath);}.cls-2{fill:none;}.cls-2,.cls-3,.cls-4,.cls-5,.cls-6,.cls-7,.cls-8,.cls-9,.cls-10,.cls-11,.cls-12,.cls-13{stroke-width:0px;}.cls-14{fill:#f9dc5c;}.cls-14,.cls-15{stroke:#011720;stroke-miterlimit:10;}.cls-15{stroke-width:3px;}.cls-15,.cls-12{fill:#03b083;}.cls-4{fill:#47bdc4;}.cls-5{fill:#95c1cc;}.cls-6{fill:#0c6b86;}.cls-7{fill:#0d6b87;}.cls-8{fill:#064862;}.cls-9{fill:#989898;}.cls-10{fill:#fff;}.cls-11{fill:#f26157;}.cls-13{fill:#011720;}</style><clipPath id="clippath"><path class="cls-2" d="m848.73,1269.12s-114.77-62.03-101.67-218.18c13.1-156.15,105.1-361.9,60.35-447.92-44.76-86.02-125.69-214.83-17.54-284.69h121.2v950.79h-62.33Z"/></clipPath></defs><rect class="cls-13" x="318.98" y="319.87" width="592.52" height="950.79"/><path class="cls-15" d="m763.12,780.74c-.42-.88-.94-5.66-.94-9.91s-3.78-11.56-3.78-11.56l8.06-3.07c-.2-4.25-2.4-11.8-2.4-11.8,0,0,6.61-2.12,6.61-5.9s14.16-21.71,14.16-21.71l-6.37.24s4.25-7.08,7.08-10.86c2.83-3.78-1.89-5.66-.47-11.8,1.42-6.14,0-6.61,0-6.61l2.36-9.91,7.32-15.34-6.61.71c3.78-5.43,1.65-19.82,1.65-19.82,0,0-2.6-4.01-2.6-8.5s-3.07-13.45-3.07-13.45l-4.96-3.54-.24,5.43,4.96,8.97-1.65,4.72,1.65,7.32-4.48,2.83,4.96,15.58-4.96,4.72c1.42,2.6-3.07,12.04-3.07,12.04h-6.84s0,7.32,1.18,9.91c1.18,2.6,0,12.04,0,12.04l-5.43,2.6c0,5.9-6.37,9.44-6.37,9.44l-3.07-2.6s-14.16,19.35-12.51,25.25.94,10.86-3.07,12.51.94,14.4.94,14.4l-9.44,1.65-.94,6.84-6.61,1.42s-3.07,2.36-3.07,6.84-3.83,18.88-3.83,18.88l-4.67-3.54c-1.18,3.54,6.88,29.36,6.88,29.36l42.67-33.84s9.57,8.33.95-9.91Z"/><path class="cls-10" d="m770.67,738.5s-2.18,4.05-6.28,3.29c-4.1-.76-7.55-10.45,2.07-27.52,9.62-17.07,13.92-20.35,18.4-16.54,0,0,1.85,3.65,2.02,5.14s.26,1.65-3.24,5.99-3.59,7.58-3.59,7.58l4.78.35-14.16,21.71Z"/><path class="cls-3" d="m790.25,1061.38s-3.28-8.28-7.21-9.55v-17.32l-4.92,1.64s.66-14.42-1.64-14.42-4.26,2.62-4.26,2.62c0,0-8.52-22.29-14.75-24.25,0,0,15.61-24.16,16.39-41.89l16.39,14.87,1.7-4.77s5.5,17.77,9.07,17.77,8.79-2.92,8.79,1.29,1.1,9.4,1.65,7.35,3.57-15.53,0-19.78l3.43-1.87-3.98-11.72,3.98-.82,2.77-2.32-4.52-10.82s10.51-9.65,11.1-16.49c.59-6.84.25-14.76,4.01-17.3s3.22-5.62,3.22-5.62l-10.07-1.98s8.21-13.77,7.19-16.85-5.82-3.42-5.48-8.21c.34-4.79,6.5-14.52,6.5-14.52l18.82,7.33s-1.03,9.58-4.11,15.4c-3.08,5.82-2.05,14.37-2.05,14.37,0,0-11.21,63.37-15.87,63.68s1.65,20.19,8.76,24.11c7.11,3.92,11.56,26.83,13.27,35.56,1.71,8.73.81,19.16,14.95,17.71,14.14-1.45,39.76-10.34,45.43-14.79l-5.76,17.81-77.03,88.94s-13.43-62.82-35.78-75.16Z"/><path class="cls-12" d="m681.01,1055.82s-26.96,28.27-78.9,28.27-61.15-30.25-44.71-54.58c16.44-24.33,63.78-14.47,89.42-11.18,25.64,3.29,121.64-8.55,126.9-73.64,0,0,3.29,84.16-95.34,88.11-98.63,3.95-75.62,24.33-63.12,26.96,12.49,2.63,65.75-3.95,65.75-3.95Z"/><path class="cls-9" d="m615.91,1156.42s-63.74,13.62-93.37-59.84c-31.83-78.9,9.21-114.41,55.89-113.1,0,0-61.02-34.19-87.72,34.19-26.69,68.38,23.28,115.73,34.46,126.9,11.18,11.18,51.14,29.21,90.74,17.19v-5.36Z"/><path class="cls-6" d="m626.89,1151.43s12.94-1.84,25.52-12.18c12.58-10.34,91.69-42.21,131.67-26.28,0,0,5.59,4.2,4.47,8.11-1.12,3.91-2.25-1.95-14.82,0s-52.83-1.36-93.92,14.02c-20.49,7.67-49.76,26.79-54.23,26.51l1.31-10.18Z"/><path class="cls-9" d="m692.05,1005.36s42.12-14.29,37.98-60.66-72.94-98.85-115.54-113.35c-42.6-14.5-73.67-54.55-87.48-89.77-13.81-35.22,11.74-65.6-33.84-100.82,0,0,40.05,22.1,44.19,65.6,4.14,43.5,37.29,73.2,66.29,85.63,29,12.43,117.39,53.17,152.61,100.13,16.87,22.49,22.79,85.63-64.22,113.25Z"/><path class="cls-6" d="m556.68,819.23s-42.15,15.22-40.97,51.51c1.17,36.29,24.58,43.9,54.44,42.73,29.85-1.17,36.88-29.85,36.88-42.15s-8.19-43.28-35.71-48.28c0,0-2.38,2.98-1.04,3.17s3.45,1.15,3.45,1.15l-1.53,1.73,5.75.77-2.3,4.41s8.24-.96,9.01.38l-2.11,6.52s6.14-1.34,6.14.38.38,6.14.38,6.14c0,0,8.05,1.15,5.37,9.59,0,0,6.33,2.11,6.9,5.75l-4.41,5.75s6.71,9.01,6.33,9.59-7.86,3.26-7.86,3.26c0,0,3.45,6.33,2.68,6.33s-6.33-1.73-6.14.19c.19,1.92,3.26,8.05,3.26,8.05,0,0-6.71.58-7.48-.58v5.18l-7.67-.38-2.3,6.9s-5.37-2.3-5.75-4.22l-1.34,6.33-3.26-2.68-2.88.58-3.17-5.37-2.97,4.41-1.15,3.26-4.03-5.56-6.9,3.64-3.64-6.9-6.52,1.92-1.15-6.52-4.98-1.34s-3.64-5.94-3.64-10.74-2.68-6.33-3.07-9.78c-.38-3.45-1.34-11.89,0-14.19,1.34-2.3,1.15-8.83,3.07-10.93s6.14-9.39,9.97-10.92c3.83-1.53,5.37-10.16,8.44-11.31s11.7-5.18,11.7-5.18l.21-2.58Z"/><path class="cls-14" d="m563.2,804.48s.39,3.14-4.12,7.06c-4.51,3.92-7.62,14.71,2.27,19.61,9.89,4.9,12.74-15.98,9.69-22.36-3.05-6.38-5.69-4.31-5.69-4.31,0,0,3.73,17.26,0,17.26s-1.87-12.04-.12-13.93c1.75-1.89.24-5.46-2.03-3.33Z"/><path class="cls-14" d="m565.6,805.7s-9.26-.84-10.2-12.43c-.94-11.59,5.1-13.34,5.1-13.34,0,0,2.49,6.6.85,9.97-1.64,3.37-.23,8.29,4.25,15.8Z"/><path class="cls-14" d="m560.5,779.93s7.67,13.27,4.86,24.55c0,0-4.08.6-2.91-4.77,1.17-5.37-1.94-12.92-1.94-12.92,0,0-1.5-6.74,0-6.87Z"/><path class="cls-14" d="m560.5,779.93s-5.8-10.78-.67-15.76,6.75-7.54,6.14-10.1c0,0,3.68,5.25.12,11.18s-6.83,6.06-5.6,14.69Z"/><path class="cls-14" d="m560.5,779.93s11.33-6.87,10.8-16.17-5.32-9.7-5.32-9.7c0,0-1.17,6.47.12,11.18s-5.78,9.86-5.78,9.86c0,0-2.13,2.67.18,4.83Z"/><path class="cls-14" d="m567.65,755.81s1.62-11.99-13.6-11.86l2.02,4.04s4.33.54,6.61,1.08l-5.53.81,1.62,4.18s5.73-2.62,8.88,1.75Z"/><path class="cls-10" d="m522.12,693.27s3.61-2.05,4.83,4.24l-2.41,7.3,2.41-1.83s1.83,6.09,2.03,8.52l-3.43-1.42,3.43,5.07s.11,3.83,0,5.18l-4.05-3.32,4.1,6.43-.68,1.87-3.94-.52,3.42,2.69s-.42,4.28-3.48,5.51c0,0-3.9-14.03-2.23-39.72Z"/><path class="cls-14" d="m595.45,809.4s-1.25,1.04-2.91,0c0,0-2.29,10.09,2.91,9.83s1.95-9.69,1.32-10.54-.11-2.33,1.58-.95,8.78,16.3,0,17.89-11.96-11.22-10.37-14.82c1.59-3.6,4.34-8.12,6.56-5.12s.9,3.7.9,3.7Z"/><path class="cls-14" d="m596.88,804.5s-3.67,1.41-1.09,3.55c2.58,2.13,3.85-3.33,3.85-3.33,0,0,4.66-16.77-2.38-17.61-7.04-.85-9.65,16.24-5.56,18.59,4.09,2.35,4.23.11,3.44-1.19-.79-1.31-1.11-12.58.9-12.29s2.6,12.29.85,12.29Z"/><path class="cls-14" d="m595.44,793.66s-7.67.52-9.26-5.81c-1.58-6.33-1.09-13.25,3.56-12.87,1.45.12,2.19.63,2.48,1.26s.13,1.38-.22,1.96c-.42.7-1.1,1.18-1.59.94,0,0-.39,9.2,3.23,8.58s.58-8.38-.58-8.45-2.52-3.2.14-3.2,11.1,15.02,2.25,17.58Z"/><path class="cls-14" d="m589.75,774.98s-3.25-7.99-11.01,2.32l3.56,2.62s4.04-5.53,6.08-3.16c2.04,2.37,1.38-1.79,1.38-1.79Z"/><path class="cls-14" d="m694.79,978.5s-1.56.46-2.67-1.16c0,0-6.11,8.35-1.24,10.18s5.65-8.11,5.4-9.14c-.25-1.03.82-2.18,1.83-.24,1.01,1.94,1.57,18.45-7.12,16.41s-6.51-15.05-3.62-17.72c2.89-2.67,7.21-5.72,8.06-2.08.85,3.64-.64,3.76-.64,3.76Z"/><path class="cls-14" d="m698.04,974.57s-3.93-.16-2.41,2.82,4.85-1.53,4.85-1.53c0,0,10.94-13.53,4.82-17.11-6.12-3.58-15.31,11.06-12.49,14.85s3.83,1.79,3.63.27c-.21-1.52,3.99-11.98,5.72-10.91s-2.51,12.31-4.11,11.61Z"/><path class="cls-14" d="m701.04,964.05s-7.25-2.57-6.18-9.01c1.06-6.44,4.28-12.59,8.39-10.39,1.28.69,1.76,1.45,1.77,2.14s-.43,1.31-.98,1.71c-.66.48-1.48.64-1.84.23,0,0-4.02,8.29-.46,9.16s3.87-7.46,2.83-7.98-1.04-3.94,1.4-2.88,4.21,18.19-4.93,17.02Z"/><path class="cls-14" d="m632.88,834.91s-1.49.96-3.15-.39c0,0-3.83,10.61,1.83,11.03,5.67.42,3.42-10.22,2.84-11.22-.57-1,.19-2.53,1.84-.82s7.31,18.81-2.4,19.35c-9.71.54-11.43-13.74-9.23-17.42,2.2-3.68,5.78-8.2,7.79-4.66,2,3.54.48,4.13.48,4.13Z"/><path class="cls-14" d="m635.08,829.81s-4.16,1.04-1.66,3.69,4.61-3.09,4.61-3.09c0,0,7.29-17.52-.21-19.38-7.5-1.86-12.62,16.28-8.51,19.37,4.11,3.09,4.56.69,3.88-.83s.49-13.76,2.62-13.17,1.16,13.64-.73,13.41Z"/><path class="cls-14" d="m634.98,817.88s-8.37-.46-9.24-7.52c-.87-7.06.6-14.48,5.58-13.45,1.55.32,2.28.98,2.51,1.7s-.05,1.51-.5,2.09c-.55.71-1.35,1.13-1.85.8,0,0-1.66,9.91,2.34,9.72s1.75-8.99.51-9.22-2.3-3.8.58-3.44,10,17.74.08,19.32Z"/><path class="cls-14" d="m631.32,796.91s-3.27-8.56-13.06,1.55l5.49,2.54s3.95-5.18,5.84-2.34c1.89,2.84,1.73-1.75,1.73-1.75Z"/><path class="cls-14" d="m703.07,929.41s-1.49.96-3.15-.39c0,0-3.83,10.61,1.83,11.03s3.42-10.22,2.84-11.22.19-2.53,1.84-.82c1.65,1.72,7.31,18.81-2.4,19.35-9.71.54-11.43-13.74-9.23-17.42,2.2-3.68,5.78-8.2,7.79-4.66,2,3.54.48,4.13.48,4.13Z"/><path class="cls-14" d="m705.27,924.31s-4.16,1.04-1.66,3.69,4.61-3.09,4.61-3.09c0,0,7.29-17.52-.21-19.38-7.5-1.86-12.62,16.28-8.51,19.37,4.11,3.09,4.56.69,3.88-.83s.49-13.76,2.62-13.17,1.16,13.64-.73,13.41Z"/><path class="cls-14" d="m705.18,912.38s-8.37-.46-9.24-7.52c-.87-7.06.6-14.48,5.58-13.45,1.55.32,2.28.98,2.51,1.7s-.05,1.51-.5,2.09c-.55.71-1.35,1.13-1.85.8,0,0-1.66,9.91,2.34,9.72s1.75-8.99.51-9.22-2.3-3.8.58-3.44,10,17.74.08,19.32Z"/><path class="cls-14" d="m681.7,858.21s-1.99.27-3.05-1.92c0,0-9.03,9.06-3.41,12.21,5.62,3.15,8.42-8.86,8.31-10.16-.11-1.3,1.41-2.51,2.29.04s-1.52,22.84-11.76,18.73-5.15-19.61-1.12-22.33,9.88-5.65,10.23-1.04c.36,4.6-1.49,4.47-1.49,4.47Z"/><path class="cls-14" d="m686.41,854.02s-4.77-.93-3.48,2.99,6.22-.96,6.22-.96c0,0,15.9-14.49,9.08-20.01-6.81-5.51-20.78,10.66-18.04,15.81,2.74,5.15,4.35,2.9,4.39,1.01.03-1.89,7.11-13.9,9.02-12.27s-5.36,14.57-7.19,13.42Z"/><path class="cls-14" d="m696.38,834.69s-.87-9.55-15.78-3.85l5.96,3.7s6.63-2.71,7.2,1.12,2.62-.97,2.62-.97Z"/><path class="cls-15" d="m721.36,974.94s-3.52-4.1-3.82-8.21c0,0-6.91.92-7.27,4.28l-.69-12.81s.8-7.83-1.65-10.82c0,0,9.26-7.63,0-19.64,0,0,7.06-11.42,5.16-18.55,0,0,23.83,38.1,8.27,65.75Z"/><path class="cls-15" d="m685.99,877.67l-8.97,3.56s1.08,7.28,4.48,7.72,6.23,3.97,4.48,8.83c-1.74,4.85-4.26,6.87.53,7.63s0,6.27,0,6.27l5.76-2.48-2.4,23.22,2.4,3.28s1.26-11.21,4.52-11.69c0,0,0-10.27,1.8-11.62,0,0-5.37-3.48-4.65-13.03s5.22-9.11,5.22-9.11l-13.18-12.57Z"/><path class="cls-15" d="m769.97,824.12c.33,3.26.47,5.38.47,5.38l2.36,9.77,8.73,1.92,1.42-4.04,5.66,12.08s8.73.28,11.56,0-3.54-7.12,1.65-6.65,11.56.71,11.56.71c0,0,2.83-10.8,2.12-14.25l-7.08.47-.24-8.17s-9.2-5.26-18.17-3.45l3.78,3.45-8.02,1.72s-4.01-5.09-8.26-5.17-3.07,3.69-1.18,6.99c0,0-9.54-1.91-15.69,2.26l4.17,1.9s-16.46,10-17.26,13.17c-.79,3.17,4.36,2.38,4.36,2.38,0,0-12.3,6.55-12.5,11.51s-2.12,15.46-2.12,15.46l-41.3-31.55s11.9-4.27,13.79-2.85l-1.65-5.19,8.5-2.92-2.12-6.48,8.02-2.63-2.12-5.19,4.72,1.65s2.6-8.73,2.12-11.8c0,0,3.78,1.89,4.72-1.89l1.89,4.65,10.62-13.82,11.09-7.58s-3.03,7.55,1.91,6.14c4.94-1.42,3.83-2.6,8.98.71s11.76-9.68,11.76-9.68l2.6,4.96,4.48-2.6,2.83,3.07,6.84-5.43s3.07,6.37,6.14,5.66c3.07-.71,9.2-4.48,9.2-4.48v5.66l8.02,1.42,9.68,5.44s-2.83,2.49,0,4.19c2.83,1.7,6.14,2.27,6.37,6.35.24,4.08,1.18,10.62,5.43,10.54s0,4.67,0,4.67c0,0-3.54,1.43,0,6.95,3.54,5.52,7.79,13.78,4.72,13.78s-5.66-1.83-5.66,3.45-.47,12.21-3.3,11.81-3.16,7.63-5.95,7.87-7.5,10.55-7.5,10.55c0,0,2.36-11.49-.47-10.55s-5.19,7.08-4.48,9.44c.71,2.36-5.19,1.42-7.08-.71s-3.07-1.18-5.19-1.18-6.61-1.89-6.61,1.65,3.54,4.72,3.54,4.72c0,0-2.12-1.65-6.37-1.18s-3.54-4.72-6.14-4.96-4.25.71-4.96-1.65c-.71-2.36-.71-3.07-4.48-3.07s-3.3-.7-4.96-3.06-3.54-1.91-3.54-1.91l-.71,9.22-5.66,1.42s-1.65-3.54,0-6.37-.47-2.36.47-5.66c.94-3.3-1.18-1.8-1.18-4.56s-4.72,0-4.72,0c0,0-3.3.55-3.78,3.38-.47,2.83-8.02,2.58-8.02,2.58l.47-9.66-6.14-.24"/><path class="cls-10" d="m718.36,838.91s-1.78-10.92,11.69-14.23c0,0,5.27,9.24-11.69,14.23Z"/><path class="cls-10" d="m738.03,836s-.74-6.29,2.4-9.06c3.14-2.77,4.99-2.26,4.99-2.26,0,0,2.77,4.22,0,5.64-2.77,1.43-7.4,5.68-7.4,5.68Z"/><path class="cls-10" d="m737.96,816.59s1.79-8.69,4.35-8.69,7.56-2.77,7.56-2.77c0,0,1.48,5.92-1.48,7.77-2.96,1.85-6.44,4.44-10.43,3.7Z"/><path class="cls-10" d="m756.71,801.23s2.4-3.7,6.47-3.88,7.95,0,8.88-1.66c0,0-2.22,7.58-7.68,7.77-5.46.18-6.01-2.22-7.68-2.22Z"/><path class="cls-10" d="m754.68,818.99s1.29-6.16,7.77-8.07,7.21,0,7.21,0c0,0-1.66,5.67-5.27,6.41s-8.97-.37-9.71,1.66Z"/><path class="cls-3" d="m578.43,983.49s-29.73,10.86-35.72,24.75c0,0-7.08,1.86-7.35-2.88,0,0,4.9-3.65,4.09-6.65-.82-3,4.36-1.71,4.9-3.99s.64-.64,5.63-3.36,21.96-9.47,28.46-7.87Z"/><path class="cls-3" d="m535.36,1005.36s-2.01-3.67-4.63-3.88c0,0-11.71,8.57-14.16,25.37,0,0,7.63-1.72,11.71,3.18,0,0,1.36-6.26,0-11.98s0-9.63,3-9.44,4.09-3.24,4.09-3.24Z"/><path class="cls-3" d="m528.28,1030.03s1.84,2.84,7.08,0c0,0-4.87,16.99,5.04,33.65,0,0-1.78-.59-3.37.99-1.59,1.59-5.95,1.59-5.95,1.59,0,0-10.31-33.91-8.92-33.91s3.81,2.58,3.81,2.58l2.31-4.89Z"/><path class="cls-3" d="m531.08,1066.25h-16.46s16.86,22.81,25.78,25.78c0,0-12.1-18.05-10.91-17.85s4.76,3.17,4.56,1.39c-.2-1.78-2.97-9.32-2.97-9.32Z"/><path class="cls-10" d="m540.4,1092.03s8.4,2.93,9.57-4.02c1.18-6.96,4.65-6.46,4.65-6.46,0,0,14.66,16.15,40.74,15.9,0,0,.99,3.23-1.74,5.71s-3.97,6.96-3.97,6.96c0,0-12.42-4.22-20.12-5.47-7.7-1.24-25.11-6.53-29.13-12.62Z"/><path class="cls-10" d="m589.66,1110.12s-6.04,5.94-3.92,12.53c2.12,6.59,1.73,10.83,1.73,10.83,0,0,11.68,2.35,20.63,0,8.94-2.35,22.36-5.18,26.6-4,0,0-1.65-18.12-1.18-22.36,0,0-7.06,6.36-13.18,4.94-6.12-1.41-21.58-5.06-30.68-1.94Z"/><path class="cls-10" d="m633.52,1107.12s-1.47-13.71,1.18-20.71c0,0,28.48-10.12,32.48-14.83,0,0,0,11.38,1.65,12.52l-9.18,3.49s4,1.84,6.36,4.45-32.48,15.08-32.48,15.08Z"/><path class="cls-10" d="m634.7,1129.48s23.54-13.89,30.83-13.18c7.3.71,12.9-4.3,16.95-.03s1.92,7.6,1.92,7.6l-41.67,21.85s-7.31-7.1-8.04-16.24Z"/><path class="cls-10" d="m587.47,1133.48s-18.68-6.64-29.27-17.21c-10.59-10.57-13.89-16.69-13.89-16.69,0,0-4.05,4.35-3.91,9,.14,4.65-2.92,12.24-2.92,12.24,0,0,5.41,4.66,9.89,8.89,4.47,4.24,7.06,4.45,10.83,4.81s2.13,2.48,9.78,5.07c7.64,2.59,15.64,7.53,15.64,7.53,0,0,6.06-8.71,3.85-13.65Z"/><path class="cls-10" d="m682.48,1116.27s3.06-6.8,1.18-9.15-9.37-3.77-12.34-7.53c-2.96-3.77-3.67-4.82-2.49-7.94,0,0,32.48-15.13,43.31-15.13,0,0,6.83,1.97,6.83,7.57s-6.83,13.14-2.82,19.14c0,0-24.71,4.3-33.66,13.04Z"/><path class="cls-10" d="m712.14,1076.52s-7.59-.04-5-6.17c2.59-6.14,7.19-11.29,5-12.37s-11.01-3.02-11.01-3.02c0,0,16.57-11.26,45.19-7.35,0,0,1.51,3.04,5.6,4.23s3.01,21.85,3.01,21.85h-5.6l4.52,2.84s-32.21-3.4-41.71,0Z"/><path class="cls-10" d="m716.14,1103.23s5.99-.29,11.95-5.02c5.96-4.73,26.96-5.16,26.96-5.16,0,0,7.4,4.5,7.4,9.24v6.3l-46.32,6.29v-11.65Z"/><path class="cls-3" d="m755.05,1093.05s-7.44-3.66-.13-19.37c0,0,17-3.79,26.9,2.84,9.9,6.63,6.89,9,11.62,10.93,0,0-2.37,14.2-5.81,18.08,0,0-4.3-11.19-11.62-12.48s-17.82-2.58-20.96,0Z"/><path class="cls-3" d="m793.44,1087.45s4.85,4.97,5.55,8.94c.69,3.97,4.35,6.98,6.93,9.13,2.58,2.15,3.66,5.36,3.66,9.35v10.01l9.12-14.93s-14.5-35.44-22.89-37.37c0,0-.43,5.6,1.72,8.18,2.15,2.58,3.23,9.9,3.23,9.9,0,0-4.31-3.21-7.32-3.23Z"/><path class="cls-10" d="m786.21,804.11c-4.26,0-6.27-4.36-6.3-4.41l.52-.23c.1.22,2.54,5.46,7.83,3.74,5.5-1.79,7.98-9.01,7.98-10.66v-.31l15.18,1.38-4.28-7.48.49-.28,4.82,8.43-15.66-1.42c-.23,2.34-2.86,9.1-8.35,10.89-.8.26-1.54.37-2.22.37Z"/><path class="cls-10" d="m831.4,810.26c-.72,0-1.5-.16-2.22-.65-.83-.55-2.18-.81-3.74-1.11-2.08-.4-4.44-.85-6.46-2.15-3.91-2.51-7.44-2.82-11.1-.99-2.3,1.15-4.53,1.35-6.26.55-1.34-.61-2.29-1.8-2.67-3.34-.76-3.04-3.39-6.39-6.77-6.62-3.54-.24-6.48-6.94-6.6-7.23l.52-.22c.03.07,2.92,6.67,6.12,6.89,2.79.19,6.19,2.67,7.28,7.05.35,1.39,1.16,2.41,2.36,2.96,1.58.73,3.63.53,5.77-.54,3.86-1.93,7.56-1.61,11.66,1.02,1.93,1.24,4.23,1.68,6.26,2.07,1.62.31,3.03.58,3.95,1.19,1.84,1.23,4.2,0,4.23-.01l.27.5c-.07.04-1.21.63-2.58.63Z"/><path class="cls-10" d="m841.51,836.2s-1.69-1.65-6.22-2.62c-2.14-.46-3.82-.53-5.6-.6-2.11-.09-4.28-.18-7.46-.91-4.2-.96-4.77-5.39-5.27-9.29-.22-1.72-.43-3.34-.94-4.41-1.35-2.84-3.95-2.79-7.87-2.71-.67.01-1.36.03-2.09.03-3.41,0-5.81-1.46-8.36-3.01-1.32-.8-2.69-1.63-4.31-2.35-1.06-.47-2.02-.48-2.87-.05-2.26,1.17-3.09,5.14-3.09,5.18l-.56-.11c.03-.17.89-4.28,3.39-5.57,1.01-.52,2.14-.51,3.36.03,1.65.74,3.04,1.58,4.37,2.39,2.58,1.57,4.81,2.93,8.06,2.93.72,0,1.41-.01,2.07-.03,3.99-.08,6.88-.14,8.39,3.03.55,1.15.76,2.82.99,4.58.48,3.72,1.03,7.94,4.84,8.81,3.13.72,5.28.81,7.36.89,1.8.08,3.5.15,5.69.62,4.71,1.01,6.43,2.7,6.5,2.77l-.4.4Z"/><path class="cls-10" d="m804.07,818.47l-.36-.44s3.59-2.97,3.75-5.82c.15-2.75,4.39-4.05,7.49-4.99.52-.16,1-.31,1.41-.45,2.57-.88,7.61-7.57,7.66-7.64l.45.34c-.21.28-5.2,6.9-7.93,7.83-.41.14-.9.29-1.42.45-2.77.85-6.96,2.13-7.09,4.48-.17,3.1-3.8,6.1-3.95,6.23Z"/><path class="cls-10" d="m831.57,809.31c-1.82,0-4.06-2.98-6.24-5.88-.46-.61-.89-1.19-1.32-1.74-2.67-3.42-12.1-7.45-12.2-7.49l.22-.52c.39.17,9.66,4.14,12.42,7.67.43.55.87,1.13,1.33,1.75,2.29,3.05,4.89,6.51,6.39,5.46l.32.46c-.29.21-.6.3-.93.3Z"/><path class="cls-10" d="m832.9,859.05c-.12-.21-3.02-5.29-2.85-8.19.18-3.08.09-7.44-2.74-9.81-1.34-1.12-1.91-2.14-1.75-3.12.21-1.25,1.59-2.33,4.34-3.39,1.43-.55,3.05-2.49,2.89-6.14-.1-2.26-1.03-4.77-2.86-5.3-2.49-.71-2.53-1.95-2.58-3.16-.03-.77-.06-1.51-.72-2.17-1.92-1.92-1.92-3.37-1.92-6.86s3.61-7.14,3.77-7.29l.4.4s-3.6,3.57-3.6,6.89,0,4.7,1.76,6.46c.83.83.86,1.74.89,2.55.04,1.14.08,2.04,2.17,2.64,2.11.6,3.16,3.35,3.27,5.82.11,2.47-.67,5.7-3.25,6.7-2.51.97-3.82,1.93-3.99,2.95-.12.75.4,1.63,1.56,2.59,3.03,2.53,3.13,7.07,2.95,10.27-.16,2.73,2.75,7.82,2.78,7.87l-.49.28Z"/><path class="cls-10" d="m834.32,846.35c-3.45,0-7.92-1.35-11.2-4.12-1.22-1.03-2.48-1.49-3.75-1.35-2.19.23-3.69,2.13-3.71,2.15l-.45-.35c.07-.09,1.67-2.11,4.1-2.36,1.43-.15,2.83.35,4.18,1.49,3.48,2.94,10.17,5.05,13.93,3.47l.22.52c-.89.37-2.03.56-3.32.56Z"/><path class="cls-3" d="m849.33,1099.17s-16.38,18.66-41.49,27.39c0,0,12.01,1.09,16.37,9.82,4.37,8.73,13.1,7.64,13.1,7.64l10.14-7.22"/><path class="cls-13" d="m742.35,1254.28s-63.31-4.37-78.05-13.65c0,0-51.85,52.94-106.43,51.85,0,0,50.21,21.77,92.24,24.53,0,0,81.32-32.17,92.24-62.74Z"/><path class="cls-13" d="m650.11,1317.02s-105.34,27.87-116.26,56.25c0,0,52.4,16.37,84.05,7.64,31.66-8.73,82.96-19.65,91.69-17.47l32.75-48.73s-43.66,12.64-92.24,2.31Z"/><path class="cls-13" d="m533.85,1373.26s-88.97-18.01-130.99-44.76c0,0-95.52,37.66-120.62,81.32,0,0,52.83,10.86,70.08,20.16,17.25,9.31,91.48,25.68,112.22,21.32,0,0,52.4-70.95,69.32-78.05Z"/><path class="cls-13" d="m709.6,1363.44s-6,18.01-24.56,33.29c-18.56,15.28-41.48,36.02-42.57,41.48,0,0,106.98-15.28,122.26-13.1,0,0,12.01-16.37,19.65-30.56,7.64-14.19,13.7-48.21,13.7-48.21,0,0-73.74,7.83-88.48,17.1Z"/><path class="cls-13" d="m282.24,1409.83s-53.49-7.64-61.13-30.56c-7.64-22.92-139.73-24.02-139.73-24.02,0,0-16.67,40.42,11.86,50.23s-26.54,23.27-11.01,46.56c15.53,23.29,94.84,36.08,138.14,4.03,43.31-32.05,61.86-46.24,61.86-46.24Z"/><path class="cls-13" d="m464.53,1451.31s-58.95,74.23-89.51,79.69c0,0,61.13-2.18,105.89-30.56,44.76-28.38,101.52-42.57,111.34,5.46,0,0,30.56-45.85,50.21-67.68l-177.93,13.1Z"/><path class="cls-10" d="m557.87,1292.48s-40.38,11.49-63.86,13.93c-23.47,2.44-76.96,1.35-91.15,22.09,0,0,44.76,31.66,130.99,44.76,0,0,22.92-31.72,116.26-56.25,0,0-47.48-7.06-92.24-24.53Z"/><path class="cls-10" d="m480.83,1240.63s67.76,18.56,102.69-9.82c0,0,25.11-5.46,41.48,2.18,16.37,7.64,39.3,7.64,39.3,7.64,0,0-49.12,53.49-106.43,51.85,0,0-35.01-22.28-44.52-23.97s-33.69-21.33-32.52-27.88Z"/><path class="cls-10" d="m402.86,1328.51s-66.05-45.3-132.64-36.02c0,0-167.01.55-188.84,62.77,0,0,83.62-5.46,110.04,18.01,26.41,23.47,71.17,38.75,90.82,36.57,0,0,69.86-66.59,120.62-81.32Z"/><path class="cls-8" d="m353.09,319.87s-4.82,161.48,60.95,236.02c65.77,74.54,318.72,310.59,29.6,691.97l-124.66,40.81V319.87h34.11Z"/><path class="cls-13" d="m731.43,1180.05s-10.37-10.37-20.19-13.65c-9.82-3.27-30.56-5.46-30.56-5.46,0,0-32.75,20.74-42.57,31.66-9.82,10.92-54.58,38.21-54.58,38.21,0,0,29.47-2.18,41.48,2.18,12.01,4.37,39.3,7.64,39.3,7.64,0,0,11.46-19.1,24.56-32.2,13.1-13.1,42.57-28.38,42.57-28.38Z"/><path class="cls-13" d="m794.74,1256.46s-7.64,10.92-20.74,18.56-30.56,29.17-31.66,39.69c0,0,49.12-7.74,65.5-4.61,0,0,32.98-50.1,45.96-62.24,0,0-16.49,3.97-25.22,7.38-8.74,3.41-33.84,1.23-33.84,1.23Z"/><path class="cls-13" d="m784.37,1212.85s-36.57,19.59-42.03,41.43c0,0,39.3,3.27,52.4,2.18,0,0,15.8-13.1,26.46-15.83,10.66-2.73,31.63-17.85,32.61-22.85,0,0-39.41,7.12-69.43-4.94Z"/><path class="cls-13" d="m557.87,1292.48s-20.74-14.19-38.21-20.74c-17.47-6.55-25.27-28.38-38.83-31.11,0,0-174.04,10.37-210.6,51.85,0,0,44.22-14.19,132.64,36.02,0,0,28.38-17.47,67.68-19.65,39.3-2.18,87.33-16.37,87.33-16.37Z"/><path class="cls-10" d="m742.35,1254.28s-56.75-3.01-78.05-13.65c0,0,58.13-59.58,98.7-72.63,0,0,10.67,24.31,19,27,8.33,2.69,5.37,14.85,11,14,0,0-41.31,25.56-50.65,45.28Z"/><path class="cls-11" d="m849.17,1270.66s-114.77-62.03-101.67-218.18c13.1-156.15,105.1-361.9,60.35-447.92-44.76-86.02-125.69-214.83-17.54-284.69h121.2v950.79h-62.33Z"/><g class="cls-1"><path class="cls-8" d="m909.53,1247.26s-49.74-17.35-58.71-15.33c-8.97,2.02-23.87,6.2-34.49,7.58s-34.34-.64-46.48-2.95-27.19-1.16-27.19-1.16c0,0,32.68-21.98,31.81-25.45-.87-3.47-33.84-24-41.07-24.87s62.76-9.54,96.88-13.3,85.03-9.54,85.03-9.54c0,0-22.56,17.06-16.48,19.09,6.07,2.02,32.97,14.46,32.97,18.22s-46.27,8.68-49.74,11.57-43.32,2.81-49.71,2.85,4.6-1.99.84-1.99-18.22-1.45-15.33-2.6,21.98-4.92,18.51-6.36c-3.47-1.45-19.38-7.81-14.46-8.1,4.92-.29,28.05-4.92,27.47-2.6s-3.47,2.02,2.02,5.21.58,5.78,4.34,5.21c3.76-.58,8.68-5.21,17.06-11.57,8.39-6.36,13.01-10.12,8.97-9.83s-97.17,5.49-105.56,8.97c-8.39,3.47-9.83,4.05-2.89,4.92,6.94.87,10.41,3.18,15.04,5.78,4.63,2.6,10.7,4.05,5.49,8.1-5.21,4.05-24,16.77-17.06,18.51,6.94,1.74,37.89,1.45,44.54,0,6.65-1.45,31.81-1.45,40.49-4.05s19.09-1.45,14.75,1.74-4.63,6.36-1.16,6.07,35.28-14.75,32.68-10.99-17.64,15.62-5.78,16.77c11.86,1.16,7.23,10.12,7.23,10.12Z"/><path class="cls-13" d="m900.71,1250.59s-36.15-14.17-48.59-12.44c-12.44,1.74-60.49,12-79.12,6.14-18.63-5.86-40.12-8.9-40.12-8.9,0,0,31.9-16.62,28.72-23.85-3.18-7.23-39.33-29.5-39.33-29.5,0,0,195.22-37.02,198.4-22.85,3.18,14.17-20.97,16.92-11.71,18.36s33.84,20.24,27.19,23.43-48.3,13.88-57.84,14.46c-9.54.58-85.61.58-83.29,3.76,2.31,3.18,23.14-.29,20.82,1.16-2.31,1.45-8.1,6.94-1.16,5.78,6.94-1.16,66.52-8.97,65.94-5.78s29.5-4.63,31.81-3.76-3.18,7.81-3.18,7.81c0,0,41.36-13.3,37.31-22.27-4.05-8.97-21.98-12.5-14.75-24.33,7.23-11.82,59-31.2,54.66-32.36s-32.68,0-35.28-4.34c-2.6-4.34-2.6-8.39-11.57-6.07-8.97,2.31-70.57,7.23-68.54,7.52s7.81,3.18-6.65,3.18-26.03,5.21-48.01,2.02c-21.98-3.18-34.7,8.1-50.03,8.1s-44.54,2.31-50.03,2.31-44.54,15.91-35.57,15.91,47.72-3.76,34.42-1.16c-13.3,2.6-56.4,7.23-50.61,11.86s80.4,22.56,72.01,28.92c-8.39,6.36-60.73,21.69-49.74,26.9,10.99,5.21,76.63,7.52,80.4,9.98s26.32,1.59,21.69,5.93c-4.63,4.34,11.31.58,24.74,0s52.76-4.92,48.14.29c-4.63,5.21,38.9-6.22,38.9-6.22Z"/><path class="cls-13" d="m770.28,1148.5l25.45-7.81s-20.24-93.13,19.96-111.35c0,0-24,4.8-22.7-11.77s7.09-27.15,22.7-29.23c0,0-14.46-5.56-8.97-30.72,5.49-25.16,36.73-32.97,52.64-17.64,15.91,15.33,8.39,21.11,22.27,21.69s12.44-15.91,12.44-34.99,1.45-57.55-8.1-53.79c-9.54,3.76-17.64,2.02-17.35,9.25s8.68,17.93,0,22.27c-8.68,4.34-47.14,22.85-48.59,12.15-1.45-10.7-8.97-44.83-2.6-50.03,6.36-5.21,40.2-32.1,41.36-20.53,1.16,11.57,1.45,26.03,16.2,22.27s13.3-3.47,12.15-21.69-3.47-48.01-8.68-45.41c-5.21,2.6-74.9,33.55-74.9,41.07s-39.62,217.2-33.26,306.27Z"/><path class="cls-13" d="m846.34,880.69c3.23-.65,10.41-.87,9.54-5.78-.87-4.92-4.92-17.93-6.36-17.06s-9.54,5.49-9.25,7.52,3.18,15.91,6.07,15.33Z"/><path class="cls-13" d="m840.26,894.58s6.95,12.14,4.35,13.3-14.46,5.78-14.46,3.47-3.76-13.01-1.74-13.3c2.02-.29,11.85-3.47,11.85-3.47Z"/><path class="cls-13" d="m833.81,869.26s-1.93-.42.96,4.78c2.89,5.21,3.76,12.44,3.76,12.44,0,0-11.57,6.07-11.86,4.63s-.87-16.48-2.6-17.35,9.74-4.49,9.74-4.49Z"/><path class="cls-13" d="m849.52,889.37l8.1-6.65s8.97,12.73,7.81,15.04-11.28,8.1-11.86,6.36-6.36-13.01-4.05-14.75Z"/><path class="cls-8" d="m898.11,961.09s-16.28,14.42-32.58,5.04c0,0,.48,9.13-5.02,13.47,0,0,24.87,3.47,26.9,22.85,2.02,19.38-15.04,18.8-14.75,21.4s-3.18,12.44,9.25,15.91c12.44,3.47,31.81,17.06,31.23,50.03-.58,32.97-10.39,49.79.01,48.61,10.4-1.18,16.76,10.39,13.29-15.64-3.47-26.03-18.22-171.79-28.34-161.67Z"/><path class="cls-13" d="m838.53,993.8s1.45-7.26-4.63-6.97c-6.07.29-21.98-3.76-19.09-22.85s21.11-23.14,31.81-17.93,17.21,25.02,1.01,32.25c-16.2,7.23-25.16-12.44-17.64-20.82,7.52-8.39,19.24-2.45,18.73,3.11s-2.25,7.01-6,6.43-4.03-5.92-.86-6.43c0,0-7.24-1.67-6.66,5.27.58,6.94,16.2,11.28,16.2,0s-6.63-15.04-15.46-15.04c-8.83,0-14.91,6.94-14.04,14.17.87,7.23,2.6,16.77,15.33,17.64,12.73.87,8.1,8.39,11.57,8.68s23.72-3.18,28.05,3.18c4.34,6.36,3.76,19.09-1.74,21.11s-8.39,0-10.41-6.07c-2.02-6.07-6.3-8.07-17.61-7.07-11.31,1-32.25,3.32-32.63,9.39s.2,12.72-5.58,13.01c-5.78.29-8.97-10.41-5.49-19.38,3.47-8.97,21.69-10.12,26.9-10.12s8.24-1.57,8.24-1.57Z"/><path class="cls-13" d="m845.34,1005.69c-6.36.08-14.28.75-13.43,5.84.86,5.09,7.09,116.71,9.78,119.81s17.72,22.02,18.31,14.96c.59-7.06,5.09-16.19,2.22-16.67s-5.61,1.67-6.2-7.35c-.58-9.02-7.81-95.84-7.81-95.84l12.54,89.77s7.59,3.67,6.83,6.52c-.76,2.85-6.59,21.6-3.67,21.21s12.29-20.7,12.97-21.94-23.55-107.69-24.17-111.5c-.63-3.81-3.76-4.85-7.38-4.8Z"/><path class="cls-13" d="m748.33,467.08c1.13,11.28,2.53,81.25,13.82,81.69,11.28.44,32.59,2.29,33.42-4.34s-2.33-89.71-5.8-91.7-30.95-.6-30.64,1.8,6.71,74.86,14.21,73.89c7.49-.97,12.39-6.5,9.93-19.24-2.46-12.73-3.56-30.54-4.75-30.38s-4.51-.77-3.66,18.15c.85,18.92-.61,21.88-2.8,18.58-1.25-1.88-1.08-42.28,2.86-42.79s8.09.58,9.58,15.07c1.48,14.49,5.81,41.67-1.83,44.56-7.64,2.9-12.49,5.7-14.44-.03-1.95-5.73-10.52-37.79-10.47-59.01,0,0-10.12-13.1-9.43-6.25Z"/><path class="cls-8" d="m957.53,520.86c-1.11-11.29-2.32-81.26-13.61-81.72-11.28-.47-32.58-2.38-33.43,4.25s2.1,89.71,5.56,91.72,30.95.68,30.64-1.72c-.31-2.41-6.52-74.88-14.02-73.93-7.49.95-12.4,6.47-9.98,19.21,2.42,12.74,3.49,30.55,4.67,30.4s4.51.79,3.7-18.14c-.8-18.93.67-21.88,2.85-18.58,1.24,1.88.97,42.28-2.97,42.79-3.94.5-8.09-.6-9.54-15.1-1.44-14.5-5.7-41.68,1.95-44.56,7.65-2.88,12.51-5.67,14.44.07,1.93,5.73,10.42,37.82,10.32,59.04,0,0,10.09,13.12,9.42,6.28Z"/><path class="cls-8" d="m838.85,447.86c-10.68.04-38.78,2.06-38.63,5.02.15,2.96,3.64,12.93,4.28,17.91.65,4.98.26,73,7.7,74.53s28.39,3.87,29.43-1.62c1.04-5.5,2.97-41.41,2.6-54.36-.36-12.94,8.82-31.86-8.49-29.91-17.31,1.95-18.68,9.84-12.14,13.77,6.54,3.93,7.2-4.49,9.14.32,1.94,4.81,1.29,9.96-4.83,10.16-6.12.2-6.69,5.93-3.84,7.65,2.86,1.71,12.76-3.15,13.26.66s-1.07,6.83-10.43,6.63c-9.37-.19-3.48,9.5,1.17,9.03,4.65-.47,10.33,21.1,2.77,21.35-7.55.25-8.54-7.37-10.31-17.56s-5.83-14.43-.64-15.11c5.18-.67,5.48-5.18-1.15-5.51-6.63-.33.49-8.27,5.82-10.22,5.33-1.95-.93-6.2-5.75-6.17s-4.6-16.97,2.72-17.18c7.32-.21,23.21,1.29,23.18-2.72s.06-6.7-5.86-6.68Z"/><path class="cls-13" d="m853.49,463.18c1.76,14.3,1.66,78.7,10.09,77.74,8.44-.97,43.37-2.87,43.33-10.23-.04-7.36.35-27.91-3.53-27.15-3.88.76-12.96,9.7-29.51,7.11-16.55-2.59-15.04-54.93-11.72-55.07,3.32-.14,34.88-2.13,34.07-5.97s6.14-9.22-9.53-7.44c-15.67,1.77-35.86-.6-33.21,21.02Z"/><path class="cls-12" d="m877.67,499.58c-2.93.48-11.06.31-8.07,5.06,2.99,4.76,13.95,3.06,21.26-.6s14.65-4.61,11.91-25.64c-2.73-21.03-8.28-24.27-20.65-22.09-12.38,2.18-23.8,7.23-18.19,26.29,5.61,19.06,28.92,17.25,27.09,3.14s-13.55-10.42-13.59-5.54c-.06,6.87,5.44,7.96,5.44,7.96,0,0-5.04,5.53-8.89,1.99-2.69-2.48-5.73-17.2,7.71-20.47,13.43-3.27,16.28,21.27,8.96,24.92-7.32,3.66-6.1,3.86-12.99,4.98Z"/><path class="cls-8" d="m799.52,585.62s88.67,5.66,105.31,6.31c16.65.65,13.15-3.82,13.48-11.11s5.97-19.62-9.63-21.59c-15.6-1.97-107.43-4.73-107.42-.72s46.46,4.1,64.45,4.41c17.99.31,39.21-5.14,38.53,6.33-.69,11.46.72,13.73-6.31,13.41-7.03-.32-97.36-10-97.88-3.52l-.52,6.48Z"/><path class="cls-13" d="m904.26,598.26s10.21-2.34,11.07.14c.86,2.48,5.17,9.2-8.29,9.67-13.46.47-87.52-.57-94.21,6.17-6.69,6.75,24.41,11.46,43.78,9.29,13.94-1.57,57.01-4.41,57.33-1.29s4.09,7.63-9.69,7.83c-13.78.2-96.01,1.03-102.73-1.8s-9.03-31.51-3.57-33.49c5.47-1.99,92.74-.09,106.3,3.48Z"/><path class="cls-12" d="m822.13,639.09c-9.78,3.01-14.72,2.6-14.33,6.15s6.42,3.9,13.66,2.83c7.23-1.07,13.3.63,18.97-1.81,5.68-2.44,63.96-5.27,65.24-1.75,1.28,3.52,3.77,13.54-2.64,14.93-6.41,1.4-70.43,4.05-79.07,5.01s-11.53,1.07-12,4.21c-.46,3.14,34.36,2.22,45.65,2.35s52.48-3.52,58.16-8.22c5.68-4.7,3.58-20.54,1.85-24.1s-85.11-2.81-95.5.39Z"/><path class="cls-8" d="m914.57,673.73s-68.11,4.86-84.89,11.85c-16.79,6.99-11.15,11.87-8.96,16.97,2.19,5.1,6.38,10.18,5.53,13.46-.85,3.28,8.18,7.32,19.16,5.73,10.98-1.59,70.64-17.4,70.64-17.4,0,0,7.23-9.35-13.05-2.73-20.28,6.62-63.66,17.95-68.86,15.39-5.2-2.56-7.34-14.35-4.85-18.75,2.49-4.4,9.97-9.28,28.77-11.1,18.8-1.82,59.57.47,56.52-13.42Z"/><path class="cls-13" d="m808.63,573.75c-2.73.07-6.56-2.06-3.32-3.08s2.74-1.83.23-2.96-1.07-3.77,1.88-3.75,92.05.64,91.92,3.34c-.13,2.7,5.44,9.22-10.84,9.4s-79.87-2.94-79.87-2.94Z"/><path class="cls-10" d="m907.01,609.95s-89.11.99-89.54,5.22c-.42,4.22,90.5-2.98,90.5-2.98l-.96-2.24Z"/><path class="cls-10" d="m907.23,614.8s-76.42,4.89-83.84,2.42c0,0-2.99,1.79.28,2.88,11.44,3.81,74.54-.37,81.24-1.65l2.32-3.65Z"/><path class="cls-8" d="m899.43,646l-10.01-.17s-.81,11.44,1.62,11.9,9.24-.11,10.19-1.38c.95-1.27,2.82-9.79-1.79-10.35Z"/><path class="cls-8" d="m886.89,646.25l-15.97-.36s-1.23,9.68.13,12.73l16.5-.87-.67-11.5Z"/><path class="cls-8" d="m868.17,646.1l-17.3.52s-2.47,9.91-.76,13.03l16.78-1.05s-.17-11.06,1.28-12.51Z"/><path class="cls-8" d="m846.08,647.69s-11.05,3.39-15.24,2.7c0,0-.72,9,.03,10.75l15.38-1.31s-1.68-10.83-.18-12.14Z"/><path class="cls-8" d="m827.9,650.55l-8.91.35.89,10.71,8.6-.51s-1.26-9.26-.58-10.55Z"/><path class="cls-13" d="m832.74,699.13s-2.05,6.75.87,12.7,16.88,5.17,20.96-4.9c4.08-10.08,15.45-16.32,23.83-11.95s17.67,6.63,24.1,2.83c6.43-3.8-3.03-4.68-.07-5.95,2.96-1.27-4.09-3.19-1.79-4.17s-60.3-3.13-67.9,11.45Z"/></g><path class="cls-8" d="m905.21,711.44s16.91,46.38-22.39,74.17c-39.31,27.79-58.42,18.23-68.47,5.81-10.05-12.42.46-28.9,17.37-31.45,16.91-2.55,24.47,12.52,15.42,19.99-9.05,7.47-13.86,5.52-15.02.92-1.16-4.6,1.81-7.65,3.5-6.64,1.69,1.01-9.01-2.61-8.85,7.13.16,9.74,13.78,14.65,32.29,4.78,18.52-9.87,48.13-42.97,46.15-74.71Z"/><path class="cls-10" d="m875.74,745.27c-3.95-1.91-10.39-2.71-12.35,1.65-1.96,4.36,1.65,9.63,4.81,9.63s3.01-1.96,3.01-1.96c0,0-4.81.85-3.76-3.41,1.05-4.26,4.96-5.77,9.33-2.46s8.74,10.78-5.42,12.79c-14.15,2.01-17.15-9.93-17.15-15.34s7.37-17,20.91-13.54c13.54,3.46,4.04,14.29.61,12.64Z"/><path class="cls-8" d="m752.32,407.06s9.3-66.71,54.7-73.73c45.4-7.02,88.19,22,88.19,56.24s-36.84,58.42-77.4,40.19c-40.56-18.23-6.7-56.19,7.81-56.56s29.02,3.35,23.81,21.58-16.37,7.82-16.37,7.82c0,0-.74,8.18,6.7,8.93s24.19-10.05,21.21-29.4c-2.98-19.35-20.09-31.63-44.28-26.42-24.19,5.21-51.89,38.59-55.44,57.3-3.56,18.71-8.93,5.58-8.93-5.95Z"/><path class="cls-13" d="m520.45,52.89c-126.8,53.55-247.78,97.49-235.85,227.3,11.93,129.81,437.9,158.51,536.51,65.28,98.61-93.23-58.46-394.86-300.66-292.58Z"/><path class="cls-10" d="m358.82,227.27v-2l3.82-.76c2.67-.57,4-2.13,4-4.67v-39.39c0-4.45-.03-8.9-.09-13.35h-7.53c-2.04,0-3.53.54-4.48,1.62-.95,1.08-1.91,2.61-2.86,4.58l-3.34,7.06h-2.67l.48-16.12h54.74l.48,16.12h-2.67l-3.34-7.06c-.95-1.97-1.91-3.5-2.86-4.58-.95-1.08-2.45-1.62-4.48-1.62h-7.63v52.74c0,2.61,1.33,4.17,4.01,4.67l3.91.76v2h-29.47Z"/><path class="cls-10" d="m421.96,228.61c-4.71,0-8.82-.99-12.35-2.96-3.53-1.97-6.26-4.77-8.2-8.39s-2.91-7.95-2.91-12.97,1.03-9.35,3.1-12.97c2.06-3.62,4.86-6.4,8.39-8.34,3.53-1.94,7.52-2.91,11.97-2.91s8.44.97,11.97,2.91c3.53,1.94,6.33,4.71,8.39,8.3,2.07,3.59,3.1,7.93,3.1,13.02s-.97,9.36-2.91,13.02c-1.94,3.66-4.66,6.45-8.15,8.39-3.5,1.94-7.63,2.91-12.4,2.91Zm0-2.67c2.29,0,4.15-.62,5.58-1.86s2.46-3.42,3.1-6.53c.64-3.11.96-7.47.96-13.07s-.32-10.06-.96-13.21c-.64-3.15-1.67-5.34-3.1-6.58s-3.29-1.86-5.58-1.86-4.13.62-5.53,1.86c-1.4,1.24-2.43,3.43-3.1,6.58-.67,3.15-1,7.55-1,13.21s.33,9.95,1,13.07c.67,3.12,1.7,5.29,3.1,6.53,1.4,1.24,3.24,1.86,5.53,1.86Z"/><path class="cls-10" d="m449.81,227.27v-1.81l1.43-.48c1.27-.32,2.15-.86,2.62-1.62.48-.76.71-1.78.71-3.05v-27.94c-.06-1.4-.32-2.46-.76-3.19-.45-.73-1.3-1.22-2.58-1.48l-1.43-.38v-1.72l15.54-5.53,1.14,1.05.86,8.39v.67c.95-1.78,2.16-3.43,3.62-4.96,1.46-1.53,3.05-2.77,4.77-3.72s3.43-1.43,5.15-1.43c2.42,0,4.23.64,5.44,1.91,1.21,1.27,1.81,2.89,1.81,4.86,0,2.16-.61,3.8-1.81,4.91-1.21,1.11-2.67,1.67-4.39,1.67-2.54,0-4.74-1.14-6.58-3.43l-.19-.19c-.64-.76-1.35-1.19-2.15-1.29-.8-.1-1.57.3-2.34,1.19-.64.64-1.22,1.38-1.76,2.24-.54.86-1.03,1.86-1.48,3v24.99c0,1.21.25,2.21.76,3,.51.8,1.37,1.35,2.57,1.67l2.86.86v1.81h-23.84Z"/><path class="cls-10" d="m491.29,227.27v-1.91l2.1-.57c1.02-.32,1.68-.78,2-1.38.32-.6.51-1.41.57-2.43v-24.22c0-1.46-.03-3.18-.1-5.15,0-1.08-.16-1.92-.48-2.53-.32-.6-1.02-1.03-2.1-1.29l-2-.48v-1.72l15.45-5.53,1.14,1.05.67,6.39c2.22-2.03,4.71-3.78,7.44-5.25,2.73-1.46,5.53-2.19,8.39-2.19,3.18,0,5.66.64,7.44,1.91,1.78,1.27,3.15,3.21,4.1,5.82,2.42-2.42,5.09-4.31,8.01-5.67,2.92-1.37,5.82-2.05,8.68-2.05,4.32,0,7.57,1.08,9.73,3.24,2.16,2.16,3.24,5.56,3.24,10.2v27.56c0,2.04.89,3.31,2.67,3.81l1.81.48v1.91h-21.46v-1.91l1.72-.48c1.72-.57,2.58-1.87,2.58-3.91v-27.94c0-2.73-.49-4.59-1.48-5.58-.99-.98-2.59-1.48-4.82-1.48-1.72,0-3.34.35-4.86,1.05-1.53.7-3.21,1.78-5.05,3.24.38,1.91.57,4.1.57,6.58v24.22c.06,1.08.27,1.92.62,2.53.35.6,1.03,1.03,2.05,1.29l1.62.48v1.91h-21.55v-1.91l2-.57c1.02-.32,1.7-.78,2.05-1.38.35-.6.52-1.41.52-2.43v-27.85c0-2.61-.48-4.45-1.43-5.53-.95-1.08-2.57-1.62-4.86-1.62-2.93,0-6.07,1.4-9.44,4.2v30.9c0,2.1.89,3.37,2.67,3.81l1.62.48v1.91h-21.84Z"/><path class="cls-10" d="m597.82,180.06c4,0,7.44.83,10.3,2.48,2.86,1.65,5.07,3.93,6.63,6.82,1.56,2.89,2.34,6.22,2.34,9.97,0,.83-.03,1.61-.1,2.34-.06.73-.19,1.42-.38,2.05h-28.71c.06,6.55,1.29,11.25,3.67,14.11,2.38,2.86,5.87,4.29,10.44,4.29,3.18,0,5.75-.52,7.72-1.57,1.97-1.05,3.78-2.53,5.44-4.43l1.53,1.43c-1.91,3.5-4.5,6.22-7.77,8.15-3.28,1.94-7.17,2.91-11.68,2.91s-8.49-.95-11.92-2.86-6.12-4.66-8.06-8.25c-1.94-3.59-2.91-7.9-2.91-12.92s1.13-9.63,3.38-13.26c2.26-3.62,5.18-6.4,8.77-8.34,3.59-1.94,7.36-2.91,11.3-2.91Zm-.48,2.77c-1.84,0-3.45.52-4.82,1.57-1.37,1.05-2.45,2.89-3.24,5.53-.8,2.64-1.26,6.34-1.38,11.11h17.07c.7-6.42.44-11.06-.76-13.92-1.21-2.86-3.5-4.29-6.87-4.29Z"/><path class="cls-10" d="m621.95,227.27v-1.81l1.53-.38c2.1-.63,3.15-2.19,3.15-4.67v-28.13c-.06-1.33-.29-2.37-.67-3.1-.38-.73-1.21-1.22-2.48-1.48l-1.53-.38v-1.72l15.45-5.53,1.14,1.05.67,5.91c2.29-2.03,4.85-3.7,7.68-5.01,2.83-1.3,5.61-1.96,8.34-1.96,4.2,0,7.42,1.14,9.68,3.43,2.26,2.29,3.39,5.79,3.39,10.49v26.51c0,2.48,1.14,4.04,3.43,4.67l1.05.29v1.81h-21.94v-1.81l1.43-.38c2.1-.7,3.15-2.26,3.15-4.67v-28.32c0-2.22-.48-3.85-1.43-4.86-.95-1.02-2.54-1.53-4.77-1.53-3.12,0-6.36,1.37-9.73,4.1v30.71c0,2.48,1.11,4.04,3.34,4.67l.95.29v1.81h-21.84Z"/><path class="cls-10" d="m694.14,228.61c-3.94,0-7.04-.97-9.3-2.91-2.26-1.94-3.39-5.1-3.39-9.49,0-1.53.02-2.97.05-4.34.03-1.37.05-2.97.05-4.82v-22.6h-6.77v-2.1l2.58-.38c1.84-.32,3.42-.89,4.72-1.72,1.3-.83,2.49-1.97,3.58-3.43l6.2-8.58h2.86l-.29,13.26h10.87v2.96h-10.97v32.52c0,2.29.49,4.01,1.48,5.15.98,1.14,2.21,1.72,3.67,1.72,1.27,0,2.42-.3,3.43-.91,1.02-.6,2.03-1.41,3.05-2.43l1.24,1.43c-1.21,2.1-2.89,3.74-5.05,4.91-2.16,1.18-4.83,1.76-8.01,1.76Z"/><path class="cls-10" d="m734,180.06c4,0,7.44.83,10.3,2.48,2.86,1.65,5.07,3.93,6.63,6.82,1.56,2.89,2.34,6.22,2.34,9.97,0,.83-.03,1.61-.1,2.34-.06.73-.19,1.42-.38,2.05h-28.71c.06,6.55,1.29,11.25,3.67,14.11,2.38,2.86,5.87,4.29,10.44,4.29,3.18,0,5.75-.52,7.72-1.57,1.97-1.05,3.78-2.53,5.44-4.43l1.53,1.43c-1.91,3.5-4.5,6.22-7.77,8.15-3.28,1.94-7.17,2.91-11.68,2.91s-8.49-.95-11.92-2.86-6.12-4.66-8.06-8.25c-1.94-3.59-2.91-7.9-2.91-12.92s1.13-9.63,3.39-13.26c2.26-3.62,5.18-6.4,8.77-8.34,3.59-1.94,7.36-2.91,11.3-2.91Zm-.48,2.77c-1.84,0-3.45.52-4.82,1.57-1.37,1.05-2.45,2.89-3.24,5.53-.79,2.64-1.26,6.34-1.38,11.11h17.07c.7-6.42.44-11.06-.76-13.92-1.21-2.86-3.5-4.29-6.87-4.29Z"/><path class="cls-10" d="m778.16,228.61c-3.75,0-7.12-.84-10.11-2.53-2.99-1.68-5.33-4.29-7.01-7.82-1.69-3.53-2.53-8.03-2.53-13.5s.95-10.03,2.86-13.69c1.91-3.66,4.45-6.4,7.63-8.25,3.18-1.84,6.68-2.77,10.49-2.77,2.29,0,4.48.27,6.58.81,2.1.54,3.94,1.35,5.53,2.43v-12.4c0-1.33-.21-2.3-.62-2.91-.41-.6-1.26-1.06-2.53-1.38l-1.91-.38v-1.81l16.59-4.1,1.24.86-.38,13.45v45.87c0,1.21.22,2.21.67,3,.44.8,1.24,1.35,2.38,1.67l1.05.29v1.81l-15.83,1.05-.86-4.01c-1.72,1.34-3.69,2.38-5.91,3.15-2.23.76-4.67,1.14-7.34,1.14Zm5.24-4.39c2.73,0,5.31-.89,7.73-2.67v-35.48c-2.35-1.46-4.9-2.19-7.63-2.19-3.12,0-5.79,1.64-8.01,4.91-2.23,3.28-3.34,8.54-3.34,15.78s1.05,12.34,3.15,15.26c2.1,2.93,4.8,4.39,8.11,4.39Z"/><path class="cls-10" d="m471.43,276.41c0,7.06-1.32,12.54-3.96,16.45-2.64,3.91-6.34,6.63-11.11,8.15s-10.33,2.29-16.69,2.29h-13.92v-53.69h13.92c6.36,0,11.92,1,16.69,3,4.77,2,8.47,4.98,11.11,8.92,2.64,3.94,3.96,8.9,3.96,14.88Zm-41.29,23.08h10.3c5.28,0,9.9-.6,13.88-1.81,3.97-1.21,7.06-3.46,9.25-6.77,2.19-3.31,3.29-8.14,3.29-14.5,0-5.21-1.1-9.52-3.29-12.92-2.19-3.4-5.28-5.91-9.25-7.53-3.97-1.62-8.6-2.43-13.88-2.43h-10.3v45.97Z"/><path class="cls-10" d="m479.34,303.3v-38.72h3.72l.57,9.92c.63-2.73,2.13-5.07,4.48-7.01,2.35-1.94,5.66-2.91,9.92-2.91h2.1v4.86h-2.1c-4.32,0-7.5.68-9.54,2.05-2.04,1.37-3.35,3.19-3.96,5.48-.61,2.29-.91,4.83-.91,7.63v18.69h-4.29Z"/><path class="cls-10" d="m521.69,304.25c-4.13,0-7.55-.98-10.25-2.96-2.7-1.97-4.72-4.5-6.06-7.58-1.33-3.08-1.97-6.28-1.91-9.58,0-3.43.7-6.64,2.1-9.63,1.4-2.99,3.45-5.39,6.15-7.2,2.7-1.81,5.99-2.72,9.87-2.72,4.83,0,8.82,1.57,11.97,4.72,3.15,3.15,4.91,7.36,5.29,12.64.06.32.1,1.02.1,2.1h-31.28c0,5.09,1.21,9.09,3.62,12.02,2.42,2.93,5.88,4.39,10.4,4.39,3.24,0,6.06-.86,8.44-2.58,2.38-1.72,3.86-4.04,4.44-6.96h4.29c-.76,3.94-2.69,7.15-5.77,9.63-3.08,2.48-6.88,3.72-11.4,3.72Zm-13.73-22.79h26.51c-.06-1.65-.52-3.5-1.38-5.53-.86-2.03-2.23-3.81-4.1-5.34-1.88-1.53-4.34-2.29-7.39-2.29-4.2,0-7.41,1.3-9.63,3.91-2.23,2.61-3.56,5.69-4,9.25Z"/><path class="cls-10" d="m560.6,304.25c-3.56,0-6.52-.91-8.87-2.72-2.35-1.81-4.1-4.23-5.25-7.25-1.14-3.02-1.72-6.37-1.72-10.06s.59-7.23,1.76-10.25c1.18-3.02,2.94-5.34,5.29-6.96,2.35-1.62,5.28-2.43,8.77-2.43,3.75,0,6.74.84,8.96,2.53,2.22,1.69,3.81,3.88,4.77,6.57l.19-.52v-8.58h4.39v38.72h-3.62l-.76-7.84-.19-.17c-1.02,2.35-2.64,4.44-4.86,6.25-2.23,1.81-5.18,2.72-8.87,2.72Zm1.62-4.01c4.07,0,7.12-1.41,9.16-4.24,2.03-2.83,3.05-6.72,3.05-11.68,0-5.28-1.07-9.19-3.2-11.73-2.13-2.54-5.13-3.81-9.01-3.81-4.52,0-7.82,1.45-9.92,4.34-2.1,2.89-3.15,6.6-3.15,11.11s1.08,8.55,3.24,11.54c2.16,2.99,5.44,4.48,9.82,4.48Z"/><path class="cls-10" d="m586.25,303.3v-38.72h3.62l.38,10.3h.19c.19-.57.52-1.41,1-2.53.48-1.11,1.19-2.26,2.15-3.43.95-1.18,2.22-2.19,3.81-3.05,1.59-.86,3.56-1.29,5.91-1.29,2.54,0,4.59.49,6.15,1.48,1.56.99,2.78,2.27,3.67,3.86.89,1.59,1.53,3.24,1.91,4.96h.19c.19-.57.56-1.41,1.1-2.53.54-1.11,1.33-2.26,2.38-3.43,1.05-1.18,2.4-2.19,4.05-3.05,1.65-.86,3.66-1.29,6.01-1.29,2.54,0,4.61.51,6.2,1.53,1.59,1.02,2.83,2.31,3.72,3.86.89,1.56,1.53,3.23,1.91,5.01.38,1.78.6,3.48.67,5.1.06,1.62.09,2.97.09,4.05v19.17h-3.91v-19.26c0-1.08-.05-2.46-.14-4.15-.09-1.68-.45-3.4-1.05-5.15-.6-1.75-1.57-3.21-2.91-4.39-1.34-1.18-3.24-1.76-5.72-1.76-2.73,0-4.96.76-6.68,2.29-1.72,1.53-3,3.53-3.86,6.01-.86,2.48-1.29,5.18-1.29,8.11v18.31h-3.91v-19.26c0-1.08-.05-2.46-.14-4.15-.1-1.68-.45-3.4-1.05-5.15-.61-1.75-1.57-3.21-2.91-4.39-1.34-1.18-3.24-1.76-5.72-1.76-2.73,0-4.96.76-6.68,2.29-1.72,1.53-3,3.53-3.86,6.01-.86,2.48-1.29,5.18-1.29,8.11v18.31h-4.01Z"/><path class="cls-10" d="m666.55,304.25c-4.13,0-7.55-.98-10.25-2.96-2.7-1.97-4.72-4.5-6.06-7.58-1.33-3.08-1.97-6.28-1.91-9.58,0-3.43.7-6.64,2.1-9.63,1.4-2.99,3.45-5.39,6.15-7.2,2.7-1.81,5.99-2.72,9.87-2.72,4.83,0,8.82,1.57,11.97,4.72,3.15,3.15,4.91,7.36,5.29,12.64.06.32.1,1.02.1,2.1h-31.28c0,5.09,1.21,9.09,3.62,12.02,2.42,2.93,5.88,4.39,10.4,4.39,3.24,0,6.06-.86,8.44-2.58,2.38-1.72,3.86-4.04,4.43-6.96h4.29c-.76,3.94-2.69,7.15-5.77,9.63-3.08,2.48-6.88,3.72-11.4,3.72Zm-13.73-22.79h26.51c-.06-1.65-.52-3.5-1.38-5.53-.86-2.03-2.23-3.81-4.1-5.34-1.88-1.53-4.34-2.29-7.39-2.29-4.2,0-7.41,1.3-9.63,3.91-2.23,2.61-3.56,5.69-4.01,9.25Z"/><path class="cls-10" d="m692.97,303.3v-38.72h3.72l.57,9.92c.63-2.73,2.13-5.07,4.48-7.01,2.35-1.94,5.66-2.91,9.92-2.91h2.1v4.86h-2.1c-4.32,0-7.5.68-9.54,2.05-2.04,1.37-3.35,3.19-3.96,5.48-.61,2.29-.91,4.83-.91,7.63v18.69h-4.29Z"/><path class="cls-7" d="m451.26,438.56c-1.65,22.86-9.37,26.31-49.46,30.07-40.1,3.76-81.44,28.82-66.41,52.63,15.04,23.81,66.41,15.4,90.84-7.34,24.43-22.73,59.52-51.55,74.55-36.52,15.04,15.04,17.54,50.12,31.32,40.1,13.78-10.02,15.04-33.83,38.84-33.83s57.32,21.3,70.01,3.76c12.69-17.54,19.89-40.01,0-65.11-19.89-25.1-34.01-34.42-62.03-20.99-28.03,13.43-23.94,14.14-40.39,0-16.45-14.14-81.67-40.45-87.28,37.23Z"/><path class="cls-4" d="m609.79,543.81s7.79-2.78,3.27-8.28c-4.52-5.5-20.81-9.26-25.82,3.27s-4.09,28.31,13.62,31.7,40.1-2.13,39.56-20.05c-.55-17.91-1.8-40.47-33.12-51.74-31.32-11.28-70.98,7.25-58.05,36.83,12.94,29.58,27.97,42.11,15.44,57.15-12.53,15.04-44.56,51.04-26.67,70.63,17.89,19.59,35.34,12.07,48.55-2.34,13.2-14.41,37.01-44.48,58.31-35.71,21.3,8.77,25.56,23.47,39.72,38.05,14.16,14.58,40.47,12.07,39.22,5.8-1.25-6.26-1.25-7.52-13.78-8.77-12.53-1.25-7.52-2.51-13.78-8.77-6.26-6.26-7.72,1.68-12.01-7.3-4.28-8.99,3.23-10.24,1.98-17.76-1.25-7.52-8.77-11.28-13.78-7.52-5.01,3.76-17.54,2.51-12.53-6.26,5.01-8.77.6-14.87-6.59-15.58-7.19-.71-14.71,3.05-17.22,9.32-2.51,6.26-7.52,20.05-13.78,10.02-6.26-10.02,12.53-11.28,8.77-22.55-3.76-11.28-11.28-13.78-17.54-13.78s-17.54,7.52-15.04,26.31-3.76,42.6-26.31,46.36c-22.55,3.76-23.81-3.76-22.55-15.04s17.54-16.29,27.57-25.06,18.79-18.79,10.02-35.08c-8.77-16.29-30.07-35.08-16.29-52.63,13.78-17.54,40.1-7.52,45.11,2.51,5.01,10.02,3.76,25.06-5.01,23.81-8.77-1.25-1.25-7.52-1.25-7.52Z"/><path class="cls-4" d="m678.71,562.61s5.01-12.53,12.53-7.52,5.86,27.75-10.85,30.17c-16.71,2.41-31.75-5.11-29.24-35.18,2.51-30.07,28.61-37.45,44.38-29.37,15.77,8.07,32.92,24.21,23.09,53.1-9.83,28.9-3.56,31.4,17.74,17.62,21.3-13.78,34.78-26.47,44.33-17.62,9.55,8.85,54.15,73.54-50.85,101.34,0,0-8.52-1.02.25-8.54,8.77-7.52,17.54-20.05,7.52-17.54s-31.32,11.28-25.06,2.51c6.26-8.77,11.28-20.05,0-15.04-11.28,5.01-25.06,6.26-18.79-6.26,6.26-12.53,15.04-8.77,11.28-15.04s-7.52-13.78-16.29-10.02c-8.77,3.76-8.98-2.58-4.49-8.81,4.49-6.23,4.49-3.72,8.25-9.99s11.86-20.41,7.18-27.75c-4.68-7.34-14.7-13.6-19.71-7.34-5.01,6.26-6.26,12.53-1.25,11.28Z"/><path class="cls-10" d="m553.68,466.42c10.29-5.96,22.55-10.02,33.83-2.51s11.28,7.52,21.3,7.52,8.77,8.77,25.06,7.52c16.29-1.25,31.32-8.77,31.32-22.55s-13.78-16.29-20.05-11.28c-6.26,5.01-13.78,12.53-17.54,3.76-3.76-8.77-12.53-27.57-27.57-28.82-15.04-1.25-21.3,2.51-21.3,8.77s-8.77,21.3-20.05,15.04c-11.28-6.26-27.57-11.28-38.84,1.25-11.28,12.53,10.02,35.08,33.83,21.3Z"/><path class="cls-2" d="m409.1,583.67c-3.02,2.65-6.72,5.73-11.03,9.02,4.15-2.11,8.56-5.11,11.03-9.02Z"/><path class="cls-5" d="m398.07,592.69c4.31-3.29,8.01-6.37,11.03-9.02,1.98-3.14,2.71-6.86,1.02-11.2-5.52-14.16-9.76-23.46,2.17-30.52-29.82,9.53-67.85,36.36-100.07,50,10.21,4.95,12.46,17.28,11.82,21.16-.89,5.37-8.03,16.23-16.28,14.94s-7.96-16.32-3.3-18.88,11.07,5.3,2.92,7.38c0,0-.76,6.94,7.95,1.75,8.71-5.19,1.08-25.74-15.16-21.71-16.24,4.03-15.81,17.54-12.29,26.48.81,2.06,1.73,4.65,2.29,7.5,42.79,2.92,81.14-18.19,104.5-35.33-1.97.49-4.12.94-6.48,1.36,0,0,4.73-1.27,9.88-3.9Zm-34.39-4.91c-8.2-6.02-18.24-4.09-23.49-.92-5.25,3.17-4.3,9.57.7,12.81,5,3.23,10.46-4.73,10.46-4.73,4.97.87,3.65,3.04,3.65,3.04-4.2,8.05-14.73,6.63-19.65,4.05s-6.26-14.88,6.93-21.59c13.19-6.71,23.9,2.66,37.43,7.25s23.01-11.33,23.01-11.33c-3.74,22.03-30.84,17.44-39.03,11.41Z"/><path class="cls-5" d="m280.77,599.79c-31.06,1.04-63.83-17.48-66.92-59.74-3.76-51.37,63.9-63.9,63.9-63.9-48.87-16.29-104,35.08-104,80.19s47.6,66.49,108.01,73.41c-3.73-10.53-5.84-21.99-.99-29.97Zm-82.91-63.25c10.02,6.26,1.25,10.02-3.76,10.02s-.49-12.68,3.76-10.02Zm-.68,42.63c-3.19-3.73.36-13.47,4.22-10.59,11.05,8.24-1.03,14.32-4.22,10.59Zm38.7,20.1c-5.59-8.5-15.68-10.18-21.7-9.04-6.02,1.15-7.36,7.48-3.8,12.25s11.45-.79,11.45-.79c4.35,2.55,2.36,4.12,2.36,4.12-6.74,6.09-16.11,1.09-19.83-3.04-3.72-4.13-.69-16.13,14.01-17.83s21.48,10.81,32.56,19.82c11.08,9.02,25.52-2.62,25.52-2.62-11.17,19.35-34.98,5.62-40.57-2.88Z"/><path class="cls-5" d="m507.05,566.36c-14.85-29.71-46.78-34.26-76.75-28.87,10.58,2.51,11.58,17.64,9.05,23.78-.27.65-.58,1.3-.94,1.94,6.82-2.12,14.68-3.05,24.38-3.01,22.16.11,36.73,32.47,14.18,32.47s-50.12,47.61-5.01,51.37c45.11,3.76,52.63-42.6,35.08-77.69Z"/><path class="cls-5" d="m420.92,570.42c-5.58-6.33,1.05-13.94,4.69-11.84,3.64,2.1.66,7.53-1.77,6.96,0,0,8.08,3.19,9.79-4.22,1.71-7.42,1.33-18.74-10.12-16.38-11.45,2.36-15.39,7.45-12.72,19.55,1.08,4.87,3.14,10.05,3,14.89.66-.63,1.26-1.22,1.79-1.74,2.23-2.23,4.46-4.21,6.75-5.98-.49-.33-.96-.74-1.41-1.24Z"/><path class="cls-8" d="m197.85,536.54c-4.25-2.66-8.77,10.02-3.76,10.02s13.78-3.76,3.76-10.02Z"/><path class="cls-8" d="m201.39,568.58c-3.86-2.88-7.41,6.86-4.22,10.59,3.19,3.73,15.28-2.35,4.22-10.59Z"/><path class="cls-8" d="m300.17,596.59c16.24-4.03,23.87,16.52,15.16,21.71-8.71,5.19-7.95-1.75-7.95-1.75,8.15-2.08,1.74-9.94-2.92-7.38s-4.96,17.59,3.3,18.88,15.39-9.56,16.28-14.94c.64-3.88-1.61-16.21-11.82-21.16-4.07,1.72-8.05,3.25-11.91,4.49-6.22,2-12.84,3.13-19.54,3.35-4.85,7.97-2.74,19.43.99,29.97,1.58.18,3.17.35,4.76.51,1.22.12,2.44.22,3.65.3-.56-2.84-1.48-5.44-2.29-7.5-3.52-8.94-3.95-22.45,12.29-26.48Z"/><path class="cls-8" d="m402.72,576.37s-9.49,15.93-23.01,11.33-24.24-13.96-37.43-7.25c-13.19,6.71-11.85,19.01-6.93,21.59s15.45,4,19.65-4.05c0,0,1.32-2.17-3.65-3.04,0,0-5.46,7.96-10.46,4.73-5-3.23-5.95-9.64-.7-12.81,5.25-3.17,15.29-5.11,23.49.92,8.2,6.02,35.29,10.62,39.03-11.41Z"/><path class="cls-8" d="m250.91,604.76c-11.08-9.02-17.86-21.53-32.56-19.82s-17.72,13.7-14.01,17.83c3.72,4.13,13.09,9.13,19.83,3.04,0,0,1.99-1.57-2.36-4.12,0,0-7.89,5.56-11.45.79s-2.22-11.1,3.8-12.25c6.02-1.15,16.11.53,21.7,9.04,5.59,8.5,29.39,22.24,40.57,2.88,0,0-14.44,11.63-25.52,2.62Z"/><path class="cls-8" d="m430.3,537.5c-5.42.98-10.79,2.27-15.97,3.81-.67.2-1.36.42-2.04.64-11.93,7.06-7.69,16.36-2.17,30.52,1.69,4.34.96,8.07-1.02,11.2,1.82-1.6,3.39-3.05,4.69-4.29.13-4.84-1.93-10.03-3-14.89-2.67-12.1,1.27-17.19,12.72-19.55,11.45-2.36,11.83,8.97,10.12,16.38-1.71,7.42-9.79,4.22-9.79,4.22,2.43.57,5.41-4.86,1.77-6.96-3.64-2.1-10.27,5.5-4.69,11.84.44.5.92.91,1.41,1.24,4.93-3.81,10.11-6.59,16.09-8.45.35-.64.67-1.29.94-1.94,2.52-6.13,1.53-21.26-9.05-23.78Z"/><path class="cls-5" d="m388.19,596.59c2.36-.41,4.52-.87,6.48-1.36,1.17-.86,2.31-1.71,3.4-2.55-5.16,2.63-9.88,3.9-9.88,3.9Z"/></svg>