<?xml version="1.0" encoding="UTF-8"?><svg id="Capa_1" xmlns="http://www.w3.org/2000/svg" viewBox="0 0 1660 672"><defs><style>.cls-1{fill:#01a77e;}.cls-2{fill:#011720;}.cls-3{fill:#fff;}.cls-4{fill:#064862;}.cls-5{fill:#0c6b85;}.cls-6{fill:#48bbc3;}</style></defs><path class="cls-4" d="m396.12,111.77h45.36v-44.7h-201.2v90.7h-94.34v-90.7h-54.78v366.38h46.3v146.69h-46.3v49.2h350.32v-370.87h-45.36V111.77Zm-117.09,288.59h-85.97v-138.55h85.97v138.55Z"/><rect class="cls-2" x="193.06" y="261.82" width="85.97" height="138.55"/><polygon class="cls-6" points="91.17 438.04 49.2 438.04 49.2 575.54 91.17 575.54 132.88 575.54 132.88 438.04 91.17 438.04"/><polygon class="cls-2" points="91.17 433.45 91.17 437.52 91.17 438.04 132.88 438.04 132.88 575.54 91.17 575.54 91.17 576.07 91.17 580.14 137.47 580.14 137.47 433.45 91.17 433.45"/><polygon class="cls-5" points="484.32 115.85 484.32 116.37 441.48 116.37 400.71 116.37 400.71 253.87 441.48 253.87 484.32 253.87 484.32 254.39 484.39 254.39 484.39 115.85 484.32 115.85"/><polygon class="cls-2" points="396.12 111.77 396.12 258.46 441.48 258.46 441.48 254.39 441.48 253.87 400.71 253.87 400.71 116.37 441.48 116.37 441.48 115.85 441.48 111.77 396.12 111.77"/><polygon class="cls-1" points="150.54 16.93 150.54 67.07 150.54 153.18 235.69 153.18 235.69 67.07 235.69 16.93 150.54 16.93"/><polygon class="cls-2" points="236.1 67.07 235.69 67.07 235.69 153.18 150.54 153.18 150.54 67.07 150.13 67.07 145.94 67.07 145.94 157.77 240.28 157.77 240.28 67.07 236.1 67.07"/><path class="cls-3" d="m552.25,317.79l35.25-95.87h12.77l35.59,95.87h-8.17l-11.41-31.5h-44.61l-11.58,31.5h-7.83Zm41.72-92.46l-19.75,54.15h39.51l-19.75-54.15Z"/><path class="cls-3" d="m716.57,228.9v-6.98h71.52v6.98h-31.84v88.89h-7.66v-88.89h-32.01Z"/><path class="cls-3" d="m827.08,317.79h-7.83v-95.87h7.83v42.91h58.92v-42.91h7.49v95.87h-7.49v-46.49h-58.92v46.49Z"/><path class="cls-3" d="m972.5,320c-14.99,0-26.4-4.48-34.23-13.45-7.83-8.97-11.75-21.11-11.75-36.44,0-10.1,1.7-18.87,5.11-26.31,3.41-7.43,8.51-13.22,15.33-17.37,6.81-4.14,15.33-6.22,25.54-6.22,15.1,0,26.5,4.51,34.23,13.54,7.72,9.03,11.58,21.14,11.58,36.35,0,9.88-1.73,18.59-5.19,26.14-3.46,7.55-8.6,13.4-15.41,17.54-6.81,4.14-15.21,6.22-25.2,6.22Zm0-7.32c12.6,0,22.14-3.89,28.61-11.66,6.47-7.78,9.71-18.08,9.71-30.91s-3.18-23.13-9.54-30.91c-6.36-7.77-15.95-11.66-28.78-11.66s-22.14,3.75-28.61,11.24c-6.47,7.49-9.71,17.94-9.71,31.33s3.15,22.99,9.45,30.82c6.3,7.83,15.92,11.75,28.86,11.75Z"/><path class="cls-3" d="m1090,320c-12.49,0-22.11-3.75-28.86-11.24-6.76-7.49-10.13-18.11-10.13-31.84v-55h7.83v55c0,12.04,2.81,21,8.43,26.91,5.62,5.91,13.2,8.86,22.73,8.86,10.1,0,17.85-2.92,23.24-8.77,5.39-5.85,8.09-14.85,8.09-26.99v-55h7.66v55c0,13.96-3.32,24.64-9.96,32.01-6.64,7.38-16.32,11.07-29.03,11.07Z"/><path class="cls-3" d="m1201.19,320c-6.59,0-12.92-1.08-18.99-3.24-6.07-2.15-11.04-5.53-14.9-10.13-3.86-4.6-5.9-10.59-6.13-17.96h7.83c0,.34.11,1.39.34,3.15.23,1.76.82,3.81,1.79,6.13.96,2.33,2.61,4.63,4.94,6.9,2.33,2.27,5.53,4.18,9.62,5.71,4.09,1.53,9.42,2.3,16.01,2.3,5.9,0,10.64-.71,14.22-2.13,3.58-1.42,6.27-3.15,8.09-5.2,1.81-2.04,3.04-4.06,3.66-6.05.62-1.98.99-3.49,1.11-4.51.11-4.32-1-7.81-3.32-10.48-2.33-2.67-5.39-4.82-9.19-6.47-3.81-1.64-8-3.04-12.6-4.17-4.6-1.13-9.2-2.36-13.79-3.66-4.6-1.3-8.8-2.98-12.6-5.02-3.81-2.04-6.84-4.71-9.11-8-2.27-3.29-3.29-7.6-3.06-12.94.23-4.99,1.96-9.28,5.19-12.86,3.23-3.57,7.52-6.33,12.86-8.26,5.34-1.93,11.3-2.89,17.88-2.89s12.2,1.14,17.54,3.41c5.33,2.27,9.56,5.68,12.69,10.22,3.12,4.54,4.57,10.22,4.34,17.03h-7.66c.11-4.77-.77-8.69-2.64-11.75-1.87-3.07-4.29-5.45-7.24-7.15-2.95-1.7-6.02-2.86-9.2-3.49-3.18-.62-6.02-.94-8.51-.94-7.83,0-14.3,1.62-19.41,4.85-5.11,3.23-7.72,7.35-7.83,12.35-.11,4.32.99,7.78,3.32,10.39,2.33,2.61,5.39,4.68,9.19,6.22,3.8,1.53,8,2.87,12.6,4,4.6,1.14,9.17,2.33,13.71,3.58,4.54,1.25,8.71,2.89,12.52,4.94,3.8,2.04,6.81,4.8,9.03,8.26,2.21,3.46,3.26,7.92,3.15,13.37-.23,5.22-1.93,9.65-5.11,13.28-3.18,3.63-7.41,6.41-12.68,8.34-5.28,1.93-11.15,2.89-17.63,2.89Z"/><path class="cls-3" d="m1263.34,317.79l35.25-95.87h12.77l35.59,95.87h-8.17l-11.41-31.5h-44.61l-11.58,31.5h-7.83Zm41.72-92.46l-19.75,54.15h39.51l-19.75-54.15Z"/><path class="cls-3" d="m1446.23,221.92h7.66v95.87h-14.3l-55.17-92.3h-.34v92.3h-7.66v-95.87h13.45l56.02,92.29h.34v-92.29Z"/><path class="cls-3" d="m1574.11,269.77c0,12.6-2.36,22.39-7.07,29.37-4.71,6.98-11.33,11.83-19.84,14.56-8.51,2.72-18.45,4.09-29.8,4.09h-24.86v-95.87h24.86c11.35,0,21.29,1.79,29.8,5.36,8.51,3.57,15.13,8.88,19.84,15.92,4.71,7.04,7.07,15.89,7.07,26.56Zm-73.73,41.21h18.39c9.42,0,17.68-1.08,24.78-3.24,7.09-2.15,12.6-6.19,16.52-12.09,3.92-5.9,5.88-14.53,5.88-25.88,0-9.31-1.96-17-5.88-23.07-3.92-6.07-9.43-10.56-16.52-13.45-7.1-2.89-15.35-4.34-24.78-4.34h-18.39v82.08Z"/><path class="cls-3" d="m667.53,478.01c0,50.37-40.64,91.02-91.02,91.02h-46.55v-9.73h46.55c11.12,0,21.54-2.08,31.61-6.25,9.73-4.17,18.41-10.07,25.71-17.37,7.64-7.64,13.55-16.33,17.37-26.05,4.52-10.08,6.6-20.5,6.6-31.61s-2.08-21.54-6.6-31.61c-3.82-9.73-9.73-18.41-17.37-25.71-7.29-7.64-15.98-13.55-25.71-17.37-10.07-4.52-20.5-6.6-31.61-6.6h-36.82v162.58h-9.73v-172.3h46.55c50.37,0,91.02,40.99,91.02,91.02Z"/><path class="cls-3" d="m576.51,570.73h-48.25v-185.43h48.25c51.12,0,92.71,41.59,92.71,92.71s-41.59,92.71-92.71,92.71Zm-44.85-3.4h44.85c49.25,0,89.32-40.07,89.32-89.32s-40.07-89.32-89.32-89.32h-44.85v168.9h6.33v-162.58h38.52c11.61,0,22.18,2.21,32.31,6.75,9.85,3.87,18.7,9.85,26.24,17.75,7.84,7.48,13.82,16.34,17.72,26.26,4.45,9.92,6.72,20.79,6.72,32.23s-2.21,22.17-6.75,32.31c-3.78,9.63-9.75,18.59-17.72,26.56-7.53,7.53-16.35,13.49-26.24,17.73-10.4,4.3-20.95,6.39-32.28,6.39h-44.85v6.33Zm9.73-9.73h35.12c10.87,0,21-2,30.96-6.12,9.46-4.06,17.93-9.78,25.15-17,7.63-7.63,13.35-16.2,16.99-25.47,4.37-9.76,6.48-19.87,6.48-30.99s-2.17-21.37-6.45-30.92c-3.75-9.53-9.45-17.98-16.99-25.17-7.25-7.6-15.7-13.3-25.15-17.02-9.76-4.37-19.87-6.48-30.99-6.48h-35.12v159.18Z"/><path class="cls-3" d="m817.24,568.68l-23.27-34.74c-13.2,9.03-28.48,13.9-45.51,13.9h-19.11v21.19h-9.73v-182.03h28.83c44.47,0,80.59,35.78,80.59,80.25,0,24.32-10.77,46.2-27.44,60.79l27.44,40.64h-11.81Zm-18.76-51.07c6.6-6.6,11.81-14.24,15.29-22.58,3.82-8.68,5.56-18.06,5.56-27.79s-1.74-18.76-5.56-27.44c-3.47-8.34-8.68-15.98-15.29-22.58-6.25-6.25-13.89-11.46-22.23-14.94-9.03-3.82-18.06-5.56-27.79-5.56h-19.11v141.39h19.11c9.73,0,18.76-1.74,27.79-5.56,8.34-3.47,15.98-8.68,22.23-14.94Z"/><path class="cls-3" d="m731.06,570.73h-13.13v-185.43h30.53c45.38,0,82.29,36.76,82.29,81.95,0,23.36-9.79,45.53-26.9,61.07l28.4,42.06h-15.92l-22.83-34.08c-13.41,8.79-28.56,13.24-45.04,13.24h-17.41v21.19Zm-9.73-3.4h6.33v-21.19h20.81c16.37,0,31.36-4.58,44.55-13.6l1.42-.97,23.73,35.41h7.71l-26.49-39.24,1.13-.99c17.07-14.94,26.86-36.63,26.86-59.51,0-43.31-35.39-78.55-78.89-78.55h-27.13v178.63Zm27.13-27.52h-20.81v-144.78h20.81c10.09,0,19.4,1.86,28.45,5.69,8.38,3.49,16.25,8.78,22.77,15.3,6.84,6.84,12.11,14.62,15.65,23.13,3.77,8.57,5.69,18.03,5.69,28.1s-1.92,19.88-5.7,28.47c-3.53,8.47-8.8,16.26-15.64,23.1-6.52,6.52-14.4,11.81-22.78,15.3-9.04,3.83-18.35,5.69-28.44,5.69Zm-17.41-3.4h17.41c9.63,0,18.51-1.77,27.13-5.42,7.99-3.33,15.48-8.37,21.69-14.57,6.53-6.53,11.55-13.94,14.92-22.03,3.6-8.2,5.43-17.32,5.43-27.14s-1.82-18.59-5.41-26.76c-3.39-8.12-8.4-15.54-14.93-22.06-6.21-6.21-13.71-11.25-21.69-14.57-8.64-3.65-17.51-5.43-27.14-5.43h-17.41v137.99Z"/><path class="cls-3" d="m888.8,396.72v100.05h64.96v9.73h-64.96v52.8h99.7v9.73h-109.43v-182.03h109.43v9.73h-99.7Z"/><path class="cls-3" d="m990.2,570.73h-112.82v-185.43h112.82v13.13h-99.7v96.65h64.96v13.13h-64.96v49.4h99.7v13.13Zm-109.43-3.4h106.03v-6.33h-99.7v-56.2h64.96v-6.33h-64.96v-103.45h99.7v-6.33h-106.03v178.63Z"/><path class="cls-3" d="m1178.51,569.03l-7.64-20.15c-15.63,12.51-35.43,20.15-56.97,20.15s-41.34-7.64-56.97-20.15l-7.64,20.15h-10.42l69.82-181.68v-.35h10.42v.35l69.82,181.68h-10.42Zm-11.46-29.53l-53.15-138.61-53.15,138.61c6.25,5.56,13.55,10.08,21.54,13.55,10.07,4.17,20.5,6.25,31.61,6.25s21.54-2.08,31.61-6.25c7.99-3.47,14.94-7.99,21.54-13.55Z"/><path class="cls-3" d="m1191.41,570.73h-14.07l-7.24-19.09c-16.22,12.33-36.08,19.09-56.2,19.09s-39.98-6.76-56.2-19.09l-7.24,19.09h-14.07l70.6-183.73v-1.7h13.82v1.73l70.6,183.7Zm-11.72-3.4h6.77l-68.65-178.63h-7.82l-68.65,178.63h6.77l8.05-21.23,1.82,1.46c15.94,12.75,35.8,19.78,55.91,19.78s39.97-7.02,55.91-19.78l1.82-1.46,8.05,21.23Zm-65.79-6.33c-11.33,0-21.88-2.09-32.26-6.38-8.37-3.64-15.77-8.29-22.02-13.85l-.88-.78,55.16-143.84,55.17,143.87-.92.78c-7.04,5.93-14.22,10.45-21.96,13.81-10.26,4.25-21.12,6.39-32.29,6.39Zm-51.14-22c5.79,4.98,12.58,9.18,20.2,12.49,9.93,4.11,20.06,6.11,30.94,6.11s21.14-2.06,30.96-6.12c7.06-3.07,13.67-7.17,20.16-12.51l-51.13-133.33-51.14,133.36Z"/><path class="cls-3" d="m1408.48,386.99v182.03h-9.73v-161.19l-69.13,140h-10.77l-69.48-140v161.19h-9.73v-182.03h10.42l73.99,150.07,74.34-150.07h10.07Z"/><path class="cls-3" d="m1410.18,570.73h-13.13v-155.61l-66.37,134.42h-12.88l-66.72-134.45v155.64h-13.13v-185.43h13.18l.47.95,72.47,146.99,73.28-147.93h12.83v185.43Zm-9.73-3.4h6.33v-178.63h-7.32l-75.4,152.21-75.05-152.21h-7.67v178.63h6.33v-166.74l72.23,145.55h8.66l71.88-145.58v166.77Z"/><path class="cls-3" d="m1575.21,523.52c0,27.79-22.93,45.51-54.89,45.51s-49.33-13.9-59.06-29.88l8.34-6.25c9.03,14.24,22.93,26.75,50.37,26.75,24.32,0,44.12-13.55,44.12-36.13,0-18.41-9.38-29.18-29.53-39.6-2.78-1.39-5.56-2.78-8.34-3.82l-17.37-7.64c-6.95-3.13-12.85-6.25-18.06-9.73-13.9-9.03-20.5-19.8-20.5-36.13,0-24.66,20.5-39.95,45.51-39.95,22.93,0,36.48,10.77,45.51,22.58l-8.34,6.25c-7.64-10.77-18.06-19.11-37.17-19.11-21.89,0-34.74,11.81-34.74,29.88,0,13.89,5.56,21.88,18.41,29.87,4.17,2.08,8.68,4.52,13.9,6.95l17.02,7.64c4.86,2.08,9.38,4.17,13.2,6.25,21.19,11.81,31.61,25.71,31.61,46.55Z"/><path class="cls-3" d="m1520.33,570.73c-27.36,0-48.28-10.61-60.51-30.69l-.8-1.32,11.04-8.28.98,1.55c14.76,23.27,35,25.96,48.93,25.96,24.97,0,42.42-14.16,42.42-34.43,0-16.76-8.02-27.44-28.61-38.09-2.69-1.34-5.47-2.73-8.15-3.74l-17.46-7.68c-7.4-3.33-13.21-6.46-18.32-9.87-14.69-9.55-21.25-21.13-21.25-37.54,0-24.13,19.85-41.65,47.21-41.65,19.57,0,34.89,7.6,46.86,23.25l1.04,1.36-11.11,8.33-1.01-1.42c-6.07-8.56-15.63-18.39-35.78-18.39s-33.04,10.8-33.04,28.18c0,12.75,4.77,20.45,17.61,28.43,1.21.6,2.6,1.31,4.03,2.04,3.04,1.56,6.18,3.17,9.69,4.81l17,7.63c5.47,2.34,9.84,4.41,13.32,6.31,22.48,12.53,32.5,27.34,32.5,48.04,0,28.24-22.74,47.21-56.59,47.21Zm-56.79-31.15c11.81,18.42,30.91,27.75,56.79,27.75,31.81,0,53.19-17.61,53.19-43.81,0-19.58-9.19-33.06-30.74-45.07-3.37-1.84-7.64-3.86-13.04-6.17l-17.05-7.65c-3.58-1.67-6.76-3.3-9.83-4.87-1.42-.73-2.8-1.44-4.14-2.1-13.96-8.67-19.35-17.45-19.35-31.39,0-19.48,13.96-31.57,36.44-31.57,20.61,0,30.93,9.55,37.53,18.41l5.57-4.18c-11.12-13.83-25.23-20.56-43.1-20.56-25.79,0-43.81,15.73-43.81,38.25,0,15.34,5.9,25.72,19.72,34.7,4.97,3.31,10.63,6.36,17.83,9.6l17.36,7.64c2.77,1.04,5.63,2.46,8.39,3.85,21.95,11.35,30.49,22.88,30.49,41.13,0,22.27-18.84,37.83-45.82,37.83-29.46,0-43.12-14.4-50.81-26l-5.63,4.23Z"/><path class="cls-3" d="m1592.34,191.11c9.03,0,16.38,7.35,16.38,16.38s-7.35,16.38-16.38,16.38-16.38-7.35-16.38-16.38,7.35-16.38,16.38-16.38m0-2.28c-10.31,0-18.66,8.35-18.66,18.66s8.35,18.66,18.66,18.66,18.66-8.35,18.66-18.66-8.35-18.66-18.66-18.66h0Z"/><path class="cls-3" d="m1596.86,210.64l3.96,1.26c-.61,2.21-1.62,3.85-3.03,4.92-1.41,1.07-3.2,1.61-5.37,1.61-2.69,0-4.89-.92-6.62-2.75-1.73-1.84-2.59-4.34-2.59-7.53,0-3.37.87-5.98,2.61-7.84,1.74-1.86,4.02-2.79,6.86-2.79,2.47,0,4.48.73,6.03,2.19.92.86,1.61,2.11,2.07,3.73l-4.04.97c-.24-1.05-.74-1.88-1.5-2.48-.76-.61-1.68-.91-2.77-.91-1.5,0-2.72.54-3.65,1.61-.93,1.08-1.4,2.82-1.4,5.23,0,2.56.46,4.38,1.38,5.46.92,1.09,2.12,1.63,3.59,1.63,1.09,0,2.02-.34,2.8-1.03.78-.69,1.34-1.78,1.68-3.26Z"/></svg>