<?xml version="1.0" encoding="UTF-8"?><svg id="Capa_1" xmlns="http://www.w3.org/2000/svg" viewBox="0 0 1173.57 460.84"><defs><style>.cls-1{fill:#fff;}</style></defs><path class="cls-1" d="m1172.48,1.55s-6.3,7.38-18.61,6.2c-12.32-1.17-62.05-7.76-62.05-7.76,0,0,30.52,21.5,42.03,24.05,0,0,27.03.67,39.73-4.14l-.09-16.81-1-1.55Z"/><path class="cls-1" d="m1173.57,36.22s-52.41,2.83-68.12,10.99c0,0-41.14-11.86-45.04-13.99,0,0,5.96-12.71,19.57-11.9,13.6.81,44.29,4.65,53.87,2.73,0,0,23.84,10.92,39.73,12.17Z"/><path class="cls-1" d="m1060.4,33.22s-4.29,9.68-3.46,22.95c.83,13.27,1.36,39.25,1.73,39.04s-.37.21-.37.21c0,0-48.94-16.92-50.25-17.86,0,0-.3-14.46-1.55-24.82-1.25-10.36-1.12-30.57,6.2-37.23l47.7,17.71Z"/><path class="cls-1" d="m1105.45,47.22s-23.64,7.04-19.04,17.83c4.6,10.79,18.14,23.88,15.21,40.34,0,0,20.49,4.2,24.32,1.64,0,0-9.31-20.17-6.2-31.02,3.23-11.3,32.6-12.91,35.68-15.51l-49.97-13.28Z"/><path class="cls-1" d="m1058.68,95.22s29.25,9.05,42.94,10.18c0,0,3.69,55.32-106.37,43.57l-12.84-12.43s48.82,8.35,63.69-6.03c14.87-14.38,12.58-35.27,12.58-35.27Z"/><path class="cls-1" d="m995.24,148.96l19.01,15.47s-48.46-2.97-58.95,7.76c0,0-26.75-9.76-44.61-19.17,0,0-7.39-19.14,84.54-4.05Z"/><path class="cls-1" d="m982.4,136.52l-14.68-18.63s-20.54-2.76-43.43-7.76c-22.89-4.99-76.01-18.61-94.62-3.1,0,0,40.99,28.81,50.81,29.49,0,0-.4-13.87,21.65-11.39,22.05,2.48,74.58,13.91,80.28,11.39Z"/><path class="cls-1" d="m880.47,136.52s22.51,14.39,30.23,16.48c0,0,.82,19.71,9.11,37.59,11.39,24.59,14.86,45.32-9.25,56.69,0,0-22.87-8.83-36.89-16.76,0,0,13.96-12.21,11.51-34.52-2.95-26.8-8.77-55.69-4.7-59.49Z"/><path class="cls-1" d="m910.56,247.29s27.69,5.56,36.99,5.56c0,0-17.06,13.96-66.7,15.51-37.83,1.18-55.84,6.2-55.84,6.2,0,0-19.81-6.69-25.21-10.02,0,0,46.8-7.51,57.46-8.3,10.66-.79,51.2-5.63,53.3-8.96Z"/><path class="cls-1" d="m843.62,214.07l30.05,16.47s-7.57,16.07-42.78,17.63c-35.21,1.55-66.9-3.29-68.31-.87,0,0-59.83-32.42-61.67-37.87,0,0,72.91,13.96,107.03,15.51s35.68-10.86,35.68-10.86Z"/><path class="cls-1" d="m762.58,247.29l37.22,17.26s-98.69,19.43-114.69,28.51l-77.51-39.76s124.43-12.26,154.97-6Z"/><path class="cls-1" d="m685.11,293.05s61.46,28.05,71.95,28.79l-13.49,21.05s-63.04-3.55-123.72-24.08c0,0,18.67-6.15,30.45-11.74,11.78-5.59,34.82-14.02,34.82-14.02Z"/><path class="cls-1" d="m607.61,253.29s-82.34,9.57-97.36,19.61c0,0-63.15-33.3-84.47-46.79,0,0,84.91-13.01,111.06-13.24l70.76,40.42Z"/><path class="cls-1" d="m619.84,318.81s-77.96-27.83-109.6-45.91c0,0-64.42,31.02-137.52,38.43,0,0,67.69,7.3,87.88,33.47,0,0,23.84-8.28,42.35-7.06,18.52,1.22,90.63-4.81,116.89-18.94Z"/><path class="cls-1" d="m550.96,377.33l-90.25-31.84s-19.52-2.44-40.7,13.44c-12.87,9.66-69.75,17.73-71.42,20.74,0,0,127.99,50.04,154.36,51.62,0,0,1.29-13.22,2.86-21.01,1.57-7.79,8.19-23.59,45.15-32.95Z"/><path class="cls-1" d="m292.34,278.15l80.39,33.19-21.76,3.74s-36.44,8.43-93.11,35.46l-114.19-39.07s50.29,1.4,70.85-3.65c20.56-5.05,77.83-29.66,77.83-29.66Z"/><path class="cls-1" d="m257.85,350.53l90.74,29.13s-142.45,49.83-179.86,81.18c0,0-128.39-3.27-168.73-33.09,0,0,167.54-70.97,257.85-77.22Z"/></svg>