<svg width="253" height="54" viewBox="0 0 253 54" fill="none" xmlns="http://www.w3.org/2000/svg">
<g id="Group 33773">
<g id="Group">
<g id="Group_2">
<path id="Vector" d="M44.1833 25.782V23.7797H45.5601V33.9893H44.1833V31.9897C43.2227 33.4873 41.8175 34.2347 39.9675 34.2347C38.4796 34.2347 37.2054 33.7188 36.1479 32.6841C35.1046 31.6495 34.583 30.3834 34.583 28.8859C34.583 27.3883 35.1046 26.1223 36.1479 25.0876C37.2054 24.053 38.4796 23.5371 39.9675 23.5371C41.8175 23.5371 43.2227 24.2873 44.1833 25.782ZM37.1513 31.7639C37.9437 32.5391 38.9185 32.9268 40.073 32.9268C41.2274 32.9268 42.2023 32.5391 42.9947 31.7639C43.7871 30.9607 44.1833 30.0014 44.1833 28.8859C44.1833 27.7704 43.7871 26.8027 42.9947 26.0274C42.2023 25.2382 41.2274 24.8422 40.073 24.8422C38.9185 24.8422 37.9437 25.2382 37.1513 26.0274C36.3588 26.8027 35.9626 27.7564 35.9626 28.8859C35.9626 30.0153 36.3588 30.9607 37.1513 31.7639Z" fill="white"/>
<path id="Vector_2" d="M59.3563 23.7795V25.0874H56.352V31.2728C56.352 31.8305 56.4631 32.2293 56.6855 32.4664C56.9078 32.7062 57.2413 32.8261 57.686 32.8345C58.1306 32.8428 58.6865 32.8317 59.3563 32.8038V33.989C57.8684 34.2065 56.7653 34.1006 56.0498 33.6739C55.3315 33.2444 54.9752 32.4468 54.9752 31.2756V25.0902H52.7832V23.7823H54.9752V21.331L56.352 20.9238V23.7823H59.3563V23.7795Z" fill="white"/>
<path id="Vector_3" d="M66.5967 23.5365C67.848 23.5365 68.8428 23.913 69.5811 24.6687C70.3194 25.4245 70.6871 26.4424 70.6871 27.7224V33.9914H69.3103V27.7224C69.3103 26.8105 69.0623 26.1021 68.5692 25.6002C68.0761 25.0954 67.3749 24.8444 66.4713 24.8444C65.428 24.8444 64.6042 25.1651 63.9971 25.8037C63.3928 26.4424 63.0906 27.3905 63.0906 28.6427V33.9914H61.7139V19.6992H63.0906V25.3743C63.8688 24.15 65.0375 23.5365 66.5967 23.5365Z" fill="white"/>
<path id="Vector_4" d="M82.1653 32.7036C81.0936 33.7243 79.7995 34.2347 78.283 34.2347C76.7666 34.2347 75.4383 33.7243 74.3807 32.7036C73.3232 31.669 72.7959 30.3974 72.7959 28.8859C72.7959 27.3744 73.3232 26.1083 74.3807 25.0876C75.4383 24.053 76.7381 23.5371 78.283 23.5371C79.828 23.5371 81.1078 24.0558 82.1653 25.0876C83.2371 26.1083 83.773 27.3744 83.773 28.8859C83.773 30.3974 83.2371 31.6551 82.1653 32.7036ZM75.3613 31.7639C76.1537 32.5391 77.1286 32.9268 78.283 32.9268C79.4374 32.9268 80.4123 32.5391 81.2047 31.7639C81.9972 30.9607 82.3934 30.0014 82.3934 28.8859C82.3934 27.7704 81.9972 26.8027 81.2047 26.0274C80.4123 25.2382 79.4374 24.8422 78.283 24.8422C77.1286 24.8422 76.1537 25.2382 75.3613 26.0274C74.5689 26.8027 74.1727 27.7564 74.1727 28.8859C74.1727 30.0153 74.5689 30.9607 75.3613 31.7639Z" fill="white"/>
<path id="Vector_5" d="M93.4793 29.13V23.7812H94.856V33.9908H93.4793V32.3984C92.7011 33.6227 91.5324 34.2362 89.9732 34.2362C88.7219 34.2362 87.7271 33.8597 86.9888 33.104C86.2505 32.3482 85.8828 31.3303 85.8828 30.0503V23.7812H87.2596V30.0503C87.2596 30.9622 87.5076 31.6706 88.0007 32.1725C88.4938 32.6773 89.1922 32.9283 90.0986 32.9283C91.1419 32.9283 91.9657 32.6076 92.5728 31.9689C93.1771 31.3303 93.4793 30.3822 93.4793 29.13Z" fill="white"/>
<path id="Vector_6" d="M98.9271 26.4552C98.9271 27.2444 99.6425 27.8245 101.076 28.1898C101.481 28.2846 101.743 28.3488 101.869 28.385C101.994 28.4185 102.242 28.4938 102.61 28.6109C102.978 28.728 103.237 28.8257 103.382 28.9065C103.528 28.9874 103.733 29.1129 103.998 29.283C104.263 29.4531 104.448 29.6232 104.562 29.7933C104.674 29.9635 104.779 30.181 104.876 30.4459C104.973 30.7108 105.021 30.9953 105.021 31.2937C105.021 32.1638 104.665 32.8721 103.958 33.4187C103.277 33.9625 102.373 34.2358 101.244 34.2358C100.27 34.2358 99.4287 34.021 98.719 33.5916C98.0092 33.1621 97.5075 32.5932 97.2168 31.8877L98.3855 31.2128C98.5793 31.7427 98.9299 32.161 99.4401 32.4677C99.9475 32.7745 100.549 32.9279 101.244 32.9279C101.94 32.9279 102.53 32.7912 102.978 32.5207C103.422 32.2474 103.645 31.8403 103.645 31.2965C103.645 30.5073 102.929 29.9272 101.495 29.5619C101.091 29.4671 100.828 29.4029 100.703 29.3667C100.577 29.3332 100.329 29.2579 99.9618 29.1436C99.5941 29.0292 99.3347 28.9288 99.1893 28.848C99.0439 28.7671 98.8387 28.6416 98.5736 28.4715C98.3085 28.3014 98.1204 28.1313 98.0092 27.9611C97.8981 27.791 97.7926 27.5735 97.6957 27.3086C97.5988 27.0437 97.5503 26.762 97.5503 26.4608C97.5503 25.6298 97.8838 24.9354 98.5537 24.3776C99.2492 23.8199 100.104 23.541 101.119 23.541C101.954 23.541 102.695 23.7251 103.342 24.0932C103.989 24.4613 104.465 24.9716 104.773 25.6242L103.625 26.2768C103.234 25.323 102.399 24.8461 101.119 24.8461C100.492 24.8461 99.9703 24.9884 99.5542 25.2756C99.138 25.5628 98.9271 25.956 98.9271 26.4608V26.4552Z" fill="white"/>
<path id="Vector_7" d="M116.351 25.782V23.7797H117.728V33.9893H116.351V31.9897C115.391 33.4873 113.985 34.2347 112.135 34.2347C110.648 34.2347 109.373 33.7188 108.316 32.6841C107.273 31.6495 106.751 30.3834 106.751 28.8859C106.751 27.3883 107.273 26.1223 108.316 25.0876C109.373 24.053 110.648 23.5371 112.135 23.5371C113.985 23.5371 115.391 24.2873 116.351 25.782ZM109.319 31.7639C110.112 32.5391 111.087 32.9268 112.241 32.9268C113.395 32.9268 114.37 32.5391 115.163 31.7639C115.955 30.9607 116.351 30.0014 116.351 28.8859C116.351 27.7704 115.955 26.8027 115.163 26.0274C114.37 25.2382 113.395 24.8422 112.241 24.8422C111.087 24.8422 110.112 25.2382 109.319 26.0274C108.527 26.8027 108.131 27.7564 108.131 28.8859C108.131 30.0153 108.527 30.9607 109.319 31.7639Z" fill="white"/>
<path id="Vector_8" d="M125.595 23.5371C126.846 23.5371 127.841 23.9136 128.579 24.6693C129.317 25.4251 129.685 26.443 129.685 27.723V33.992H128.308V27.723C128.308 26.8111 128.06 26.1027 127.567 25.6008C127.074 25.096 126.373 24.845 125.469 24.845C124.426 24.845 123.602 25.1657 122.995 25.8043C122.391 26.443 122.086 27.3911 122.086 28.6433V33.992H120.709V23.7825H122.086V25.3749C122.864 24.1506 124.033 23.5371 125.592 23.5371H125.595Z" fill="white"/>
<path id="Vector_9" d="M141.395 25.7803V19.6953H142.772V33.9875H141.395V31.988C140.435 33.4856 139.029 34.2329 137.179 34.2329C135.691 34.2329 134.417 33.717 133.36 32.6824C132.317 31.6478 131.795 30.3817 131.795 28.8842C131.795 27.3866 132.317 26.1205 133.36 25.0859C134.417 24.0513 135.691 23.5354 137.179 23.5354C139.029 23.5354 140.435 24.2856 141.395 25.7803ZM134.363 31.7621C135.156 32.5374 136.13 32.925 137.285 32.925C138.439 32.925 139.414 32.5374 140.207 31.7621C140.999 30.959 141.395 29.9997 141.395 28.8842C141.395 27.7687 140.999 26.801 140.207 26.0257C139.414 25.2365 138.439 24.8405 137.285 24.8405C136.13 24.8405 135.156 25.2365 134.363 26.0257C133.571 26.801 133.175 27.7547 133.175 28.8842C133.175 30.0136 133.571 30.959 134.363 31.7621Z" fill="white"/>
<path id="Vector_10" d="M146.383 19.6953H148.053L146.802 24.2883H145.551L146.386 19.6953H146.383Z" fill="white"/>
<path id="Vector_11" d="M165.083 25.7803V19.6953H166.46V33.9875H165.083V31.988C164.122 33.4856 162.717 34.2329 160.867 34.2329C159.379 34.2329 158.105 33.717 157.047 32.6824C156.004 31.6478 155.482 30.3817 155.482 28.8842C155.482 27.3866 156.004 26.1205 157.047 25.0859C158.105 24.0513 159.376 23.5354 160.867 23.5354C162.717 23.5354 164.122 24.2856 165.083 25.7803ZM158.051 31.7621C158.843 32.5374 159.818 32.925 160.972 32.925C162.127 32.925 163.102 32.5374 163.894 31.7621C164.687 30.959 165.083 29.9997 165.083 28.8842C165.083 27.7687 164.687 26.801 163.894 26.0257C163.102 25.2365 162.127 24.8405 160.972 24.8405C159.818 24.8405 158.843 25.2365 158.051 26.0257C157.258 26.801 156.862 27.7547 156.862 28.8842C156.862 30.0136 157.258 30.959 158.051 31.7621Z" fill="white"/>
<path id="Vector_12" d="M170.82 23.7789V25.4745C171.461 24.2363 172.559 23.6172 174.118 23.6172V24.9251C173.118 24.9251 172.317 25.2068 171.718 25.7729C171.119 26.339 170.82 27.184 170.82 28.3162V33.9912H169.443V23.7817H170.82V23.7789Z" fill="white"/>
<path id="Vector_13" d="M180.879 23.5371C182.438 23.5371 183.681 24.0753 184.616 25.149C185.576 26.2115 186.055 27.4692 186.055 28.9277C186.055 28.9947 186.041 29.2066 186.013 29.5608H176.851C176.991 30.5814 177.436 31.3985 178.188 32.0121C178.941 32.6256 179.878 32.9295 181.004 32.9295C182.589 32.9295 183.709 32.3523 184.365 31.1949L185.576 31.8893C185.117 32.6256 184.488 33.2 183.687 33.6156C182.886 34.0311 181.985 34.2374 180.984 34.2374C179.342 34.2374 178.006 33.7327 176.977 32.726C175.948 31.7192 175.432 30.4392 175.432 28.8887C175.432 27.3381 175.939 26.0776 176.954 25.0709C177.969 24.0502 179.277 23.5399 180.876 23.5399L180.879 23.5371ZM180.879 24.845C179.793 24.845 178.886 25.1574 178.157 25.7848C177.427 26.4123 176.991 27.235 176.851 28.2556H184.636C184.482 27.1652 184.057 26.3286 183.362 25.743C182.638 25.1434 181.811 24.845 180.879 24.845Z" fill="white"/>
<path id="Vector_14" d="M197.284 25.782V23.7797H198.661V33.9893H197.284V31.9897C196.323 33.4873 194.918 34.2347 193.068 34.2347C191.58 34.2347 190.306 33.7188 189.248 32.6841C188.205 31.6495 187.684 30.3834 187.684 28.8859C187.684 27.3883 188.205 26.1223 189.248 25.0876C190.306 24.053 191.577 23.5371 193.068 23.5371C194.918 23.5371 196.323 24.2873 197.284 25.782ZM190.252 31.7639C191.044 32.5391 192.019 32.9268 193.174 32.9268C194.328 32.9268 195.303 32.5391 196.095 31.7639C196.888 30.9607 197.284 30.0014 197.284 28.8859C197.284 27.7704 196.888 26.8027 196.095 26.0274C195.303 25.2382 194.328 24.8422 193.174 24.8422C192.019 24.8422 191.044 25.2382 190.252 26.0274C189.459 26.8027 189.063 27.7564 189.063 28.8859C189.063 30.0153 189.459 30.9607 190.252 31.7639Z" fill="white"/>
<path id="Vector_15" d="M212.771 23.536C213.954 23.536 214.9 23.9041 215.61 24.6375C216.32 25.371 216.673 26.3666 216.673 27.6187V33.9881H215.296V27.6187C215.296 26.7486 215.068 26.0682 214.606 25.5773C214.147 25.0865 213.529 24.8411 212.748 24.8411C211.844 24.8411 211.135 25.1339 210.619 25.7196C210.103 26.3052 209.846 27.1753 209.846 28.3326V33.9881H208.469V27.6187C208.469 26.7347 208.253 26.0514 207.822 25.5662C207.392 25.0837 206.793 24.8411 206.027 24.8411C205.149 24.8411 204.43 25.1395 203.866 25.7391C203.302 26.3387 203.019 27.2032 203.019 28.3326V33.9881H201.643V23.7786H203.019V25.2678C203.772 24.1105 204.835 23.5332 206.212 23.5332C207.728 23.5332 208.786 24.1523 209.384 25.3905C210.137 24.1523 211.263 23.5332 212.765 23.5332L212.771 23.536Z" fill="white"/>
<path id="Vector_16" d="M220.492 26.4552C220.492 27.2444 221.207 27.8245 222.641 28.1898C223.046 28.2846 223.308 28.3488 223.433 28.385C223.559 28.4185 223.807 28.4938 224.174 28.6109C224.542 28.728 224.801 28.8257 224.947 28.9065C225.092 28.9874 225.297 29.1129 225.562 29.283C225.828 29.4531 226.013 29.6232 226.127 29.7933C226.238 29.9635 226.343 30.181 226.44 30.4459C226.537 30.7108 226.586 30.9953 226.586 31.2937C226.586 32.1638 226.232 32.8721 225.523 33.4187C224.841 33.9625 223.938 34.2358 222.809 34.2358C221.834 34.2358 220.993 34.021 220.283 33.5916C219.574 33.1621 219.072 32.5932 218.781 31.8877L219.95 31.2128C220.144 31.7427 220.497 32.161 221.005 32.4677C221.512 32.7745 222.113 32.9279 222.809 32.9279C223.504 32.9279 224.094 32.7912 224.542 32.5207C224.987 32.2474 225.209 31.8403 225.209 31.2965C225.209 30.5073 224.494 29.9272 223.06 29.5619C222.655 29.4671 222.393 29.4029 222.267 29.3667C222.142 29.3332 221.894 29.2579 221.526 29.1436C221.159 29.0292 220.899 28.9288 220.754 28.848C220.608 28.7671 220.403 28.6416 220.138 28.4715C219.873 28.3014 219.685 28.1313 219.574 27.9611C219.462 27.791 219.357 27.5735 219.26 27.3086C219.163 27.0437 219.115 26.762 219.115 26.4608C219.115 25.6298 219.448 24.9354 220.115 24.3776C220.811 23.8199 221.666 23.541 222.684 23.541C223.519 23.541 224.26 23.7251 224.907 24.0932C225.554 24.4613 226.03 24.9716 226.338 25.6242L225.189 26.2768C224.799 25.323 223.963 24.8461 222.684 24.8461C222.056 24.8461 221.535 24.9884 221.119 25.2756C220.702 25.56 220.492 25.956 220.492 26.4608V26.4552Z" fill="white"/>
</g>
<g id="Group_3">
<path id="Vector_17" d="M239.911 25.7146H243.688V29.3622H239.911V33.0573H236.183V29.3622H232.406V25.7146H236.183V22.0195H239.911V25.7146Z" fill="white"/>
<path id="Vector_18" d="M244.775 21.0271L249.259 19.457H252.893V35.6233H248.669V23.7991L245.79 24.5158L244.775 21.0299V21.0271Z" fill="white"/>
</g>
</g>
<g id="Group_4">
<path id="Vector_19" d="M9.61542 46.5217C0.467951 47.7997 -0.53353 35.5167 0.747571 36.9576C2.02867 38.3985 4.6993 46.3082 11.4814 45.4318C18.2636 44.5555 22.629 38.7833 22.6547 36.9576C22.6547 36.9576 25.7562 44.2662 9.61256 46.5217H9.61542Z" fill="#0B6C86"/>
<path id="Vector_20" d="M10.9429 53.5265C12.8061 53.5265 13.3453 45.0494 11.4793 45.4034L9.61328 45.7573" fill="#0B6C86"/>
<path id="Vector_21" d="M14.9154 30.2257C14.9154 30.2257 13.6486 35.4473 10.2247 32.5093C6.79796 29.5713 9.72537 25.9029 13.1863 25.6417C16.6473 25.3805 20.5049 28.2623 20.2395 32.5851C19.9742 36.9079 15.8769 45.6181 8.67538 42.0481C1.47382 38.4809 -1.34517 29.1527 0.597878 16.2602C2.54093 3.37049 6.13316 -2.52525 15.449 1.01107C15.449 1.01107 7.53124 1.60092 5.80218 14.3081C4.07312 27.0152 6.33573 34.8771 11.7911 35.5316C17.2465 36.1861 18.1795 32.2565 17.1152 30.4223C16.051 28.5882 12.7241 26.2287 11.3917 28.5882C10.0621 30.9476 13.9196 32.7817 14.9183 30.2257H14.9154Z" fill="url(#paint0_linear_3135_129)"/>
<path id="Vector_22" d="M11.5889 6.90656C11.5889 6.90656 15.0498 1.40406 16.7789 2.58377C18.5079 3.76348 18.2797 6.90656 18.2797 6.90656H11.5889Z" fill="#47BBC3"/>
<path id="Vector_23" d="M9.96401 8.81475C10.2408 9.89895 7.95818 13.1151 11.2993 13.1151C14.6405 13.1151 18.6007 13.7471 18.3753 11.5112C18.1499 9.27258 18.1499 8.31196 15.3081 8.4187C12.4663 8.52544 9.62732 7.50583 9.96115 8.81475H9.96401Z" fill="#47BBC3"/>
<path id="Vector_24" d="M9.96502 15.0751C10.4929 16.1537 9.12903 18.1339 9.96502 18.7069C10.801 19.2799 13.289 19.1564 16.7243 18.7069C20.1568 18.2575 17.9997 15.5302 17.158 15.0751C16.3163 14.6201 9.4657 14.0527 9.96787 15.0751H9.96502Z" fill="#0B6C86"/>
<path id="Vector_25" d="M10.4643 21.0365C10.4643 21.0365 9.62833 22.5645 10.4643 23.365C11.3003 24.1627 17.897 25.3958 18.1053 23.365C18.3164 21.3342 18.8985 20.5983 18.1053 20.5955C17.3121 20.5927 10.296 20.2922 10.4643 21.0365Z" fill="#094963"/>
</g>
</g>
<defs>
<linearGradient id="paint0_linear_3135_129" x1="-0.00130093" y1="21.4425" x2="20.2509" y2="21.4425" gradientUnits="userSpaceOnUse">
<stop stop-color="#49BCC3"/>
<stop offset="0.52" stop-color="#198EA2"/>
<stop offset="0.78" stop-color="#0C6C87"/>
<stop offset="0.99" stop-color="#0C6C87"/>
</linearGradient>
</defs>
</svg>
