<svg width="391" height="225" viewBox="0 0 391 225" fill="none" xmlns="http://www.w3.org/2000/svg">
<g clip-path="url(#clip0_2983_2986)">
<path d="M192.402 78.0207C207.355 88.6769 174.799 111.372 160.721 92.0631C146.643 72.7539 106.778 55.1957 89.7493 78.0207C72.7202 100.839 97.0173 116.98 121.827 116.81C146.636 116.639 111.437 125.422 95.5965 130.688C79.7559 135.955 46.3193 157.574 70.9579 181.878C95.5965 206.181 127.23 194.442 147.497 181.878C167.757 169.314 194.158 158.78 222.314 169.314C250.47 179.847 324.537 222.758 369.346 196.036C414.156 169.314 377.195 135.955 366.635 132.446C356.074 128.937 336.716 134.204 326.155 132.446C315.595 130.688 297.999 120.155 313.833 109.628C329.673 99.0946 350.794 102.604 347.269 83.2943C343.751 63.985 313.833 55.2093 303.272 62.2271C303.272 62.2271 289.194 2.54145 232.874 14.8261C176.555 27.1175 180.073 69.245 192.395 78.0275L192.402 78.0207Z" fill="#064862"/>
<path d="M229.965 189.112C217.669 179.301 180.599 175.07 175.359 189.112C170.12 203.155 188.324 207.154 198.584 199.891C208.844 192.628 211.897 194.869 221.809 199.891C231.72 204.912 238.763 196.137 229.965 189.112Z" fill="#03AF82"/>
<path d="M204.199 211.849C198.345 206.889 187.723 222.471 194.758 224.222C201.801 225.98 220.674 225.803 204.199 211.849Z" fill="#48BBC3"/>
<path d="M20.3554 98.1328C20.3554 98.1328 0.997009 63.0164 20.3554 48.095C39.7138 33.1736 45.8752 30.5368 67.8771 28.7857C89.879 27.0278 93.3968 15.6153 86.3611 8.5975C79.3186 1.56604 43.2317 -9.83965 18.5931 16.4943C-6.05235 42.8282 -6.92668 84.9625 20.3554 98.1328Z" fill="#48BBC3"/>
<path d="M41.9141 83.6476C41.9141 83.6476 22.1936 50.1119 44.8171 39.6669C67.4406 29.2219 90.6994 31.6748 89.6338 39.6669C88.5614 47.6591 79.0666 52.8441 61.8121 51.1271C44.5576 49.4101 38.3962 76.623 41.9209 83.6476H41.9141Z" fill="#03AF82"/>
<path d="M55.6229 83.6491C55.6229 83.6491 47.6309 67.4059 59.0724 60.3881C70.5139 53.3634 82.2287 52.4845 82.5293 60.3881C82.8298 68.2917 67.8704 70.9217 64.3526 70.9217C60.8347 70.9217 54.8168 79.6974 55.6229 83.6491Z" fill="#48BBC3"/>
<path d="M258.189 101.418C258.189 101.418 235.395 99.6869 236.474 102.719C237.56 105.751 243.64 106.616 248.414 106.834C253.189 107.052 256.625 109.798 247.308 110.915C237.991 112.033 209.329 110.084 198.044 109.437C186.76 108.79 145.721 110.52 143.111 123.95C140.509 137.379 168.296 143.225 194.786 141.705C221.276 140.186 299.433 132.391 301.387 138.455C303.341 144.519 253.838 149.936 223.223 147.769C192.607 145.603 158.959 148.635 140.932 142.353C122.913 136.071 111.779 131.301 125.16 124.59C125.16 124.59 119.982 129.68 128.015 129.898C136.048 130.116 136.048 122.103 133.446 120.802C130.843 119.5 111.731 118.635 111.3 129.032C110.863 139.43 141.916 147.442 157.763 150.256C173.611 153.07 236.358 156.102 261.98 154.801C287.603 153.499 333.191 146.141 328.416 132.276C323.642 118.417 278.046 122.096 266.106 124.91C254.166 127.724 207.485 134.442 189.028 131.192C170.571 127.942 161.889 124.692 170.352 119.5C178.823 114.302 222.895 117.116 233.1 117.77C243.305 118.417 263.715 117.77 267.185 112.142C270.662 106.514 266.536 103.693 258.176 101.424L258.189 101.418Z" fill="#48BBC3"/>
<path d="M364.531 72.9715C364.531 72.9715 333.068 98.2493 308.935 78.6607C284.795 59.0721 270.013 31.8797 237.991 35.5794C205.968 39.2791 199.376 65.3541 207.478 74.3274C215.579 83.3006 235.989 94.1613 250.682 80.9296C250.682 80.9296 255.027 77.5092 245.539 71.9767C245.539 71.9767 228.353 84.0638 220.593 73.6937C212.833 63.3237 215.75 49.5673 228.872 47.0668C241.994 44.5663 263.975 48.2319 276.147 66.7031C288.32 85.1743 340.186 115.024 364.531 72.9715Z" fill="#0C6B85"/>
</g>
<defs>
<clipPath id="clip0_2983_2986">
<rect width="391" height="225" fill="white"/>
</clipPath>
</defs>
</svg>
