<svg width="190" height="195" viewBox="0 0 190 195" fill="none" xmlns="http://www.w3.org/2000/svg">
<g id="Group 33702">
<path id="Vector" d="M147.074 41.5586H53.0693V191.318H147.074V41.5586Z" fill="url(#paint0_radial_2819_1911)"/>
<path id="Vector_2" d="M6.28893 21.5703C2.68226 14.8949 0 8.37109 0 8.37109L9.87286 25.3436C9.87286 25.3436 10.1267 59.6675 10.9639 61.3155C11.805 62.9635 37.8661 75.4277 38.8436 73.2683C39.821 71.1088 44.515 52.8293 40.6962 47.6693C36.8811 42.5093 19.4275 31.4734 16.7111 33.0646C13.9948 34.6558 15.5026 54.7008 16.9384 55.9093C18.3781 57.1216 34.6573 66.2671 35.4642 63.778C36.2712 61.289 41.9161 52.3974 35.8469 48.2262C29.7777 44.0513 22.2992 39.5581 21.9961 43.036C21.6892 46.5138 24.7844 58.3112 28.1297 54.0719C31.4749 49.8325 25.9248 48.7149 25.9248 48.7149C25.9248 48.7149 29.7246 48.0254 30.8233 51.4086C31.922 54.7917 26.8378 60.7018 23.8184 54.769C20.7951 48.8362 19.7343 39.4141 21.6324 38.6564C23.5304 37.8987 36.794 43.6876 38.7375 48.6695C40.6848 53.6514 39.2831 65.5738 36.3924 66.4224C33.5018 67.271 16.4156 60.6146 15.1502 57.3148C13.8849 54.0151 11.9414 32.3599 13.2711 30.0338C14.0478 28.6737 8.08468 17.9939 2.99292 9.34474C7.31182 15.9443 12.9226 23.4721 17.484 26.0331C26.2051 30.9317 48.1103 40.1188 47.6632 46.9874C47.3526 51.7988 46.7995 68.1386 45.1287 77.3333C44.2043 83.3268 59.5516 98.7801 61.2564 112.123C62.965 125.466 59.6273 130.524 59.6273 130.524C51.6866 91.1311 33.8882 80.8377 33.8882 80.8377C23.1592 76.5453 6.39879 68.8546 5.78884 67.0627C4.944 64.5888 9.88801 28.238 6.28135 21.5665L6.28893 21.5703Z" fill="#48AAB2"/>
<path id="Vector_3" d="M65.0948 106.828C65.9358 113.833 62.4958 121.565 63.2725 129.942C63.2725 129.942 78.8243 106.688 67.6141 90.4352C58.999 77.9445 63.9127 65.897 64.5378 53.77C65.1629 41.643 62.6663 38.6652 59.4726 31.0352C58.5975 28.9439 58.7149 26.5079 59.3362 24.0719C61.723 19.0824 64.678 14.3051 67.5762 15.9683C70.6032 17.7072 75.2517 25.7578 75.6874 27.3793C76.1231 29.0008 75.8958 29.2508 73.706 29.7016C71.5163 30.1562 67.4701 30.4972 67.402 27.921C67.3338 25.3448 67.7391 22.3633 68.7999 22.7687C69.8607 23.174 69.7281 24.1704 69.2773 25.0493C68.8264 25.9321 69.4818 27.7846 72.1944 26.7201C74.907 25.6555 73.0961 24.9584 71.1298 22.4732C69.1636 19.9879 67.5611 16.5479 66.8716 19.412C66.182 22.2724 62.367 30.4328 64.3787 31.1791C66.3904 31.9255 78.8849 33.4977 80.2867 30.2661C81.6846 27.0345 75.8352 21.2002 72.9256 17.8966C70.9972 15.7031 69.3606 13.1837 68.0498 11.9297C73.3272 14.3657 83.8441 20.6206 83.7986 22.9581C83.7494 25.6138 82.9121 30.9291 80.7564 33.1227C78.6008 35.3124 80.3965 40.5557 81.7225 40.2375C83.0485 39.9192 92.9365 23.568 91.978 17.8739C91.0195 12.1798 83.4122 11.5395 75.5586 6.29243C67.7012 1.04534 63.1247 -2.75454 59.4878 2.56453C55.8508 7.8836 47.6828 25.307 54.1611 36.646C61.4464 49.3943 60.0447 55.9787 53.8808 72.2277C50.956 79.9373 63.3596 92.4242 65.0872 106.832L65.0948 106.828ZM66.1252 11.3008C66.1934 11.2137 66.2313 11.1682 66.2313 11.1682C66.2578 11.1796 66.2919 11.191 66.3184 11.2023C66.3146 11.2023 66.3109 11.2023 66.3071 11.2061C66.254 11.2289 66.1934 11.2629 66.1252 11.3046V11.3008Z" fill="#011720"/>
<path id="Vector_4" d="M74.3385 41.4078C74.3385 41.4078 71.2698 41.2866 71.8949 43.9385C72.52 46.5905 76.0206 46.5905 77.5625 44.9084C79.1044 43.2263 79.2446 36.2213 72.8004 36.0811C66.3561 35.941 64.5338 40.7031 66.2159 47.5679C67.0342 50.9056 72.6602 62.4189 67.4775 80.3499C67.4775 80.3499 76.5851 69.9845 74.3423 60.8769C72.0995 51.7694 66.2879 38.9528 74.3423 41.404L74.3385 41.4078Z" fill="#039E80"/>
<path id="Vector_5" d="M70.4739 123.842C70.4739 123.842 76.1718 131.328 83.3813 123.842C90.5908 116.356 85.9802 108.4 83.3813 102.782C80.7824 97.1635 82.7751 96.3907 87.2456 96.3566C91.7122 96.3225 108.063 96.7165 106.54 81.6685C105.021 66.6205 97.1715 63.4079 100.324 58.7821C103.476 54.1564 112.905 50.2201 125.142 51.4855C137.379 52.7508 152.806 36.0473 133.113 19.465C113.424 2.88266 94.2316 15.4908 89.3255 40.7071C86.2909 56.3158 92.129 78.6718 83.0214 78.6718C70.4625 78.6718 71.9552 87.2187 75.0352 96.743C78.1191 106.271 70.1064 116.061 70.4701 123.842H70.4739Z" stroke="black" stroke-miterlimit="10"/>
<path id="Vector_6" d="M120.066 69.5711C120.066 69.5711 124.407 59.6263 131.594 69.5711C138.781 79.5159 128.249 86.6686 120.066 84.7744C111.883 82.8801 106.98 74.1931 110.625 66.6274C114.269 59.0618 123.441 47.4879 142.532 55.3756C161.618 63.2632 153.738 82.4634 142.566 95.2042C131.393 107.945 94.5654 129.479 80.9268 135.131C80.9268 135.131 88.7008 117.128 94.7245 108.445C100.748 99.7579 110.03 94.0828 121.221 93.9085C132.409 93.7342 143.968 82.9521 142.532 71.3214C141.096 59.6907 120.054 54.2314 120.07 69.5711H120.066Z" fill="#039E80"/>
<path id="Vector_7" d="M83.0251 144.373C83.0251 144.373 104.419 153.06 120.691 129.942C120.691 129.942 116.788 130.643 113.564 132.325C110.344 134.007 104.661 134.568 109.113 129.942C113.564 125.32 118.607 122.797 131.776 123.498C144.945 124.199 180.526 116.072 182.208 83.7109C182.208 83.7109 170.722 97.5807 161.474 96.5995C152.226 95.6182 144.945 104.445 144.945 104.445C144.945 104.445 149.707 93.5194 156.852 92.2578C156.852 92.2578 153.419 88.6966 133.318 107.81C116.228 124.059 116.595 122.63 103.059 127.142C93.936 130.181 82.1841 141.433 83.0251 144.373Z" stroke="black" stroke-miterlimit="10"/>
<path id="Vector_8" d="M92.8298 176.732C92.8298 176.732 93.2503 150.394 114.826 149.273C136.401 148.151 146.206 162.302 145.365 167.765C144.524 173.228 143.747 177.221 136.534 176.732C129.325 176.243 128.624 165.594 136.886 165.454C136.886 165.454 134.784 156.346 127.222 161.392C119.656 166.435 113.492 191.511 140.671 194.314C167.85 197.118 174.574 161.813 163.645 151.447C152.719 141.082 145.153 145.143 139.269 145.143C133.386 145.143 130.12 141.988 132.594 137.332C135.068 132.675 140.671 133.657 138.288 136.316C138.288 136.316 138.148 140.938 141.649 138.559C145.149 136.176 145.808 128.194 132.59 129.944C119.372 131.694 111.666 143.461 105.082 144.863C98.4974 146.265 87.1508 151.588 92.8222 176.736L92.8298 176.732Z" fill="#48AAB2"/>
<path id="Vector_9" d="M135.034 127.147C135.034 127.147 150.275 124.048 161.421 120.028C172.563 116.009 186.467 123.726 188.604 136.762C190.74 149.794 175.314 156.277 168.725 148.499C162.137 140.721 162.319 127.514 135.034 127.147Z" fill="#064862"/>
<path id="Vector_10" d="M153.383 175.059C153.383 175.059 161.805 174.407 163.782 172.922C163.782 172.922 163.771 175.203 162.687 176.744L153.311 177.514C153.311 177.514 153.303 176.491 153.383 175.055V175.059Z" fill="#064862"/>
<path id="Vector_11" d="M153.339 178.5C153.339 178.5 153.706 180.015 152.934 181.182L160.056 182.917C160.056 182.917 161.086 181.47 161.924 178.818L153.339 178.504V178.5Z" fill="#064862"/>
<path id="Vector_12" d="M158.31 172.988C163.197 172.01 164.917 168.301 165.618 166.108C166.315 163.914 165.675 153.386 159.25 154.648C152.824 155.909 151.911 161.186 151.502 163.963C150.203 172.794 153.423 173.969 158.31 172.991V172.988ZM159.314 169.658C156.795 170.548 155.2 169.457 154.34 167.623C153.48 165.79 153.006 161.471 157.837 160.16C162.667 158.845 162.584 161.796 162.822 164.763C163.061 167.725 161.288 168.961 159.31 169.661L159.314 169.658Z" fill="#064862"/>
<path id="Vector_13" d="M158.746 168.827C160.22 168.308 161.542 167.387 161.364 165.175C161.186 162.966 161.247 160.765 157.648 161.742C154.045 162.72 154.401 165.94 155.041 167.308C155.681 168.675 156.871 169.49 158.75 168.823L158.746 168.827ZM157.621 167.19C156.409 167.251 155.996 165.08 157.072 164.607C158.148 164.133 159.307 164.258 159.19 165.489C159.072 166.724 159.114 167.115 157.621 167.19Z" fill="#064862"/>
<path id="Vector_14" d="M153.946 188.381C156.583 186.657 156.594 184.948 155.283 183.622C153.973 182.296 150.301 185.213 149.926 186.657C149.404 188.676 151.313 190.104 153.95 188.381H153.946ZM150.911 186.566C151.165 185.585 153.662 183.603 154.552 184.505C155.442 185.407 155.435 186.566 153.643 187.736C151.851 188.911 150.555 187.937 150.908 186.566H150.911Z" fill="#064862"/>
<path id="Vector_15" d="M151.892 186.49C152.029 185.963 153.37 184.898 153.851 185.38C154.329 185.865 154.325 186.486 153.362 187.119C152.4 187.747 151.703 187.228 151.892 186.49Z" fill="#064862"/>
<path id="Vector_16" d="M97.9443 110.759C97.9443 110.759 102.172 104.531 107.056 106.175C110.973 107.497 115.546 108.459 116.565 103.102C117.584 97.7416 112.697 96.6429 111.477 96.8323C110.257 97.0218 107.779 98.6205 108.056 100.496C108.332 102.371 111.742 102.333 112.333 101.284C112.924 100.231 111.155 98.7607 110.666 100.606C110.666 100.606 109.09 100.765 110.284 98.7986C111.481 96.8323 116.125 98.6091 115.178 102.28C114.231 105.955 111.102 105.978 109.147 105.012C105.624 103.273 99.2097 103.455 97.9481 110.759H97.9443Z" fill="#011720"/>
<path id="Vector_17" d="M86.1436 130.812C86.1436 130.812 94.5995 110.157 102.824 108.456C111.049 106.751 115.554 109.771 113.947 114.662C112.341 119.553 105.185 115.272 107.446 113.275C109.708 111.279 111.936 112.938 111.208 113.525C110.485 114.116 113.785 112.127 111.943 110.46C110.102 108.79 98.8767 108.339 86.1436 130.816V130.812Z" fill="#011720"/>
<path id="Vector_18" d="M89.2313 127.639C89.2313 127.639 99.5399 111.553 105.401 114.25C111.262 116.951 104.829 121.774 103.988 119.478C103.15 117.183 105.601 116.417 105.601 116.417C105.601 116.417 99.6422 115.675 89.2275 127.639H89.2313Z" fill="#011720"/>
<path id="Vector_19" d="M154.111 128.383C154.111 128.383 161.074 127.769 165.443 136.138C169.811 144.503 174.043 149.136 179.767 145.564C185.491 141.991 177.509 132.774 174.599 131.387C171.69 129.997 165.931 132.084 168.955 137.214C171.978 142.344 176.115 141.843 176.99 139.798C177.865 137.752 174.755 135.304 172.986 136.532C172.986 136.532 170.902 134.801 173.334 134.251C175.766 133.702 181.339 139.567 178.918 142.434C176.498 145.302 171.428 144.639 169.678 141.158C167.928 137.676 163.188 127.314 154.107 128.39L154.111 128.383Z" fill="#48AAB2"/>
<path id="Vector_20" d="M90.1244 175.375C90.1244 175.375 87.6278 176.459 83.0172 175.375C83.0172 175.375 81.5435 179.868 81.4525 182.778C81.3578 185.687 78.543 191.317 78.543 191.317H95.4018C95.4018 191.317 89.1053 189.059 90.1244 175.375Z" fill="#011720"/>
<path id="Vector_21" d="M83.0179 175.374C83.0179 175.374 86.3177 163.3 88.1968 161.558C88.1968 161.558 85.9692 154.708 81.4533 154.113C81.4533 154.113 78.3012 157.095 77.6117 160.41C76.0016 168.127 76.6684 168.798 75.3311 172.419C75.3311 172.419 75.9675 175.39 83.0217 175.378L83.0179 175.374Z" fill="#011720"/>
<path id="Vector_22" d="M74.656 150.425C74.656 150.425 71.7199 154.948 70.841 157.646C69.9621 160.343 67.204 164.738 67.204 164.738C67.204 164.738 62.5896 159.006 62.457 156.994C62.457 156.994 68.0375 149.671 69.4696 146.629C69.4696 146.629 71.7048 148.951 74.656 150.425Z" fill="#011720"/>
<path id="Vector_23" d="M74.6562 150.426C74.6562 150.426 77.2552 153.362 81.4528 154.104C81.4528 154.104 84.9004 146.281 87.1773 146.228C87.1773 146.228 90.352 134.438 92.288 133.449C92.288 133.449 78.1417 139.299 74.6562 150.426Z" fill="#011720"/>
<path id="Vector_24" d="M69.4734 146.632C69.4734 146.632 78.6416 132.648 80.4032 128.871L73.9022 130.75C73.9022 130.75 68.4884 140.509 66.4805 141.582C66.4805 141.582 66.9692 144.446 69.4734 146.632Z" fill="#011720"/>
<path id="Vector_25" d="M66.481 141.581C66.481 141.581 63.2646 147.881 59.5102 150.025L57.2295 140.24C57.2295 140.24 65.2232 131.178 65.7839 130.75C66.3446 130.321 65.8067 135.951 66.4772 141.581H66.481Z" fill="#011720"/>
<path id="Vector_26" d="M57.2291 140.241C57.2291 140.241 56.282 128.349 53.0693 122.363V145.822C53.0693 145.822 57.3617 141.579 57.2291 140.237V140.241Z" fill="#011720"/>
<path id="Vector_27" d="M59.5098 150.027C59.5098 150.027 59.2408 151.232 62.4573 156.998C62.4573 156.998 59.5098 162.094 55.888 162.761L53.0693 158.161V155.127C53.0693 155.127 57.7633 152.308 59.506 150.027H59.5098Z" fill="#011720"/>
<path id="Vector_28" d="M55.8918 162.762C55.8918 162.762 59.5098 170.937 60.582 172.547C60.582 172.547 55.8804 175.29 53.0693 174.991V162.762C53.0693 162.762 53.6111 163.163 55.888 162.762H55.8918Z" fill="#011720"/>
<path id="Vector_29" d="M60.582 172.55C60.582 172.55 63.2643 179.01 68.5568 184.09C68.5568 184.09 74.1184 178.582 75.3269 172.414C75.3269 172.414 71.2808 170.474 67.2043 164.742C67.2043 164.742 65.1396 169.197 60.582 172.547V172.55Z" fill="#011720"/>
<path id="Vector_30" d="M68.5571 184.09C68.5571 184.09 72.857 189.307 78.5852 191.315H57.1953C57.1953 191.315 67.5531 185.173 68.5571 184.09Z" fill="#011720"/>
<path id="Vector_31" d="M57.1951 191.312C57.1951 191.312 53.0695 185.857 53.0732 181.883V191.312H57.1951Z" fill="#011720"/>
<path id="Vector_32" d="M74.3385 41.4078C74.3385 41.4078 71.2698 41.2866 71.8949 43.9385C72.52 46.5905 76.0206 46.5905 77.5625 44.9084C79.1044 43.2263 79.2446 36.2213 72.8004 36.0811C66.3561 35.941 64.5338 40.7031 66.2159 47.5679C67.0342 50.9056 72.6602 62.4189 67.4775 80.3499C67.4775 80.3499 76.5851 69.9845 74.3423 60.8769C72.0995 51.7694 66.2879 38.9528 74.3423 41.404L74.3385 41.4078Z" stroke="#011720" stroke-miterlimit="10"/>
<path id="Vector_33" d="M120.066 69.5711C120.066 69.5711 124.407 59.6263 131.594 69.5711C138.781 79.5159 128.249 86.6686 120.066 84.7744C111.883 82.8801 106.98 74.1931 110.625 66.6274C114.266 59.0618 123.441 47.4879 142.532 55.3756C161.618 63.2632 153.738 82.4634 142.566 95.2042C131.393 107.945 94.5654 129.479 80.9268 135.131C80.9268 135.131 88.7008 117.128 94.7245 108.445C100.748 99.7579 110.03 94.0828 121.221 93.9085C132.409 93.7342 143.968 82.9521 142.532 71.3214C141.096 59.6907 120.054 54.2314 120.07 69.5711H120.066Z" stroke="#011720" stroke-miterlimit="10"/>
<path id="Vector_34" d="M92.8298 176.732C92.8298 176.732 93.2503 150.394 114.826 149.273C136.401 148.151 146.206 162.302 145.365 167.765C144.524 173.228 143.747 177.221 136.534 176.732C129.325 176.243 128.624 165.594 136.886 165.454C136.886 165.454 134.784 156.346 127.222 161.392C119.656 166.435 113.492 191.511 140.671 194.314C167.85 197.118 174.574 161.813 163.645 151.447C152.719 141.082 145.153 145.143 139.269 145.143C133.386 145.143 130.12 141.988 132.594 137.332C135.068 132.675 140.671 133.657 138.288 136.316C138.288 136.316 138.148 140.938 141.649 138.559C145.149 136.176 145.808 128.194 132.59 129.944C119.372 131.694 111.666 143.461 105.082 144.863C98.4974 146.265 87.1508 151.588 92.8222 176.736L92.8298 176.732Z" stroke="#011720" stroke-miterlimit="10"/>
<path id="Vector_35" d="M135.034 127.147C135.034 127.147 150.275 124.048 161.421 120.028C172.563 116.009 186.467 123.726 188.604 136.762C190.74 149.794 175.314 156.277 168.725 148.499C162.137 140.721 162.319 127.514 135.034 127.147Z" stroke="#011720" stroke-miterlimit="10"/>
<path id="Vector_36" d="M153.383 175.059C153.383 175.059 161.805 174.407 163.782 172.922C163.782 172.922 163.771 175.203 162.687 176.744L153.311 177.514C153.311 177.514 153.303 176.491 153.383 175.055V175.059Z" stroke="#011720" stroke-miterlimit="10"/>
<path id="Vector_37" d="M153.339 178.5C153.339 178.5 153.706 180.015 152.934 181.182L160.056 182.917C160.056 182.917 161.086 181.47 161.924 178.818L153.339 178.504V178.5Z" stroke="#011720" stroke-miterlimit="10"/>
<path id="Vector_38" d="M158.31 172.988C163.197 172.01 164.917 168.301 165.618 166.108C166.315 163.914 165.675 153.386 159.25 154.648C152.824 155.909 151.911 161.186 151.502 163.963C150.203 172.794 153.423 173.969 158.31 172.991V172.988ZM159.314 169.658C156.795 170.548 155.2 169.457 154.34 167.623C153.48 165.79 153.006 161.471 157.837 160.16C162.667 158.845 162.584 161.796 162.822 164.763C163.061 167.725 161.288 168.961 159.31 169.661L159.314 169.658Z" stroke="#011720" stroke-miterlimit="10"/>
<path id="Vector_39" d="M158.746 168.827C160.22 168.308 161.542 167.387 161.364 165.175C161.186 162.966 161.247 160.765 157.648 161.742C154.045 162.72 154.401 165.94 155.041 167.308C155.681 168.675 156.871 169.49 158.75 168.823L158.746 168.827ZM157.621 167.19C156.409 167.251 155.996 165.08 157.072 164.607C158.148 164.133 159.307 164.258 159.19 165.489C159.072 166.724 159.114 167.115 157.621 167.19Z" stroke="#011720" stroke-miterlimit="10"/>
<path id="Vector_40" d="M153.946 188.381C156.583 186.657 156.594 184.948 155.283 183.622C153.973 182.296 150.301 185.213 149.926 186.657C149.404 188.676 151.313 190.104 153.95 188.381H153.946ZM150.911 186.566C151.165 185.585 153.662 183.603 154.552 184.505C155.442 185.407 155.435 186.566 153.643 187.736C151.851 188.911 150.555 187.937 150.908 186.566H150.911Z" stroke="#011720" stroke-miterlimit="10"/>
<path id="Vector_41" d="M151.892 186.49C152.029 185.963 153.37 184.898 153.851 185.38C154.329 185.865 154.325 186.486 153.362 187.119C152.4 187.747 151.703 187.228 151.892 186.49Z" stroke="#011720" stroke-miterlimit="10"/>
<path id="Vector_42" d="M154.111 128.383C154.111 128.383 161.074 127.769 165.443 136.138C169.811 144.503 174.043 149.136 179.767 145.564C185.491 141.991 177.509 132.774 174.599 131.387C171.69 129.997 165.931 132.084 168.955 137.214C171.978 142.344 176.115 141.843 176.99 139.798C177.865 137.752 174.755 135.304 172.986 136.532C172.986 136.532 170.902 134.801 173.334 134.251C175.766 133.702 181.339 139.567 178.918 142.434C176.498 145.302 171.428 144.639 169.678 141.158C167.928 137.676 163.188 127.314 154.107 128.39L154.111 128.383Z" stroke="#011720" stroke-miterlimit="10"/>
<path id="Vector_43" d="M125.532 70.2895C124.877 72.0701 126.29 74.5365 128.472 74.1652C130.651 73.7939 130.995 71.2215 129.749 69.8766C127.999 67.9937 126.192 68.5089 125.536 70.2895H125.532ZM129.166 70.9488C129.544 71.8466 128.821 73.3128 127.756 73.1385C126.692 72.9604 125.207 70.1418 126.904 69.8046C128.601 69.4712 128.87 70.2517 129.169 70.9488H129.166Z" fill="#064862"/>
<path id="Vector_44" d="M128.616 71.479C128.608 71.7858 126.786 72.6572 126.759 71.3691C126.729 70.081 128.661 69.6946 128.616 71.479Z" fill="#064862"/>
<path id="Vector_45" d="M134.159 74.5231C135.818 77.4061 135.64 77.5501 134.489 77.891C133.337 78.232 131.693 79.4784 131.064 77.7168C130.435 75.9551 130.7 74.0078 130.7 74.0078" fill="#064862"/>
<path id="Vector_46" d="M129.616 74.9658C129.616 74.9658 129.15 76.4319 129.219 77.47C129.287 78.5118 128.423 79.5461 126.881 78.4625C125.339 77.3828 124.964 77.5836 124.153 77.4056C123.343 77.2275 125.377 74.5831 125.676 74.496C125.976 74.4088 128.518 75.8636 129.616 74.962V74.9658Z" fill="#064862"/>
<path id="Vector_47" d="M124.199 73.5197C124.199 73.5197 119.892 75.2435 119.687 73.1674C119.482 71.0912 121.43 71.7088 121.168 70.3411C120.907 68.9735 122.35 66.5034 124.544 68.9659C124.544 68.9659 123.392 71.83 124.199 73.5197Z" fill="#064862"/>
<path id="Vector_48" d="M125.854 67.9958C125.854 67.9958 123.327 66.7342 124.778 65.3249C126.229 63.9118 127.881 65.8325 128.23 67.3782C128.578 68.9239 125.854 67.9996 125.854 67.9996V67.9958Z" fill="#064862"/>
<path id="Vector_49" d="M125.532 70.2895C124.877 72.0701 126.29 74.5365 128.472 74.1652C130.651 73.7939 130.995 71.2215 129.749 69.8766C127.999 67.9937 126.192 68.5089 125.536 70.2895H125.532ZM129.166 70.9488C129.544 71.8466 128.821 73.3128 127.756 73.1385C126.692 72.9604 125.207 70.1418 126.904 69.8046C128.601 69.4712 128.87 70.2517 129.169 70.9488H129.166Z" stroke="#011720" stroke-miterlimit="10"/>
<path id="Vector_50" d="M128.616 71.479C128.608 71.7858 126.786 72.6572 126.759 71.3691C126.729 70.081 128.661 69.6946 128.616 71.479Z" stroke="#011720" stroke-miterlimit="10"/>
<path id="Vector_51" d="M134.159 74.5231C135.818 77.4061 135.64 77.5501 134.489 77.891C133.337 78.232 131.693 79.4784 131.064 77.7168C130.435 75.9551 130.7 74.0078 130.7 74.0078" stroke="#011720" stroke-miterlimit="10"/>
<path id="Vector_52" d="M129.616 74.9658C129.616 74.9658 129.15 76.4319 129.219 77.47C129.287 78.5118 128.423 79.5461 126.881 78.4625C125.339 77.3828 124.964 77.5836 124.153 77.4056C123.343 77.2275 125.377 74.5831 125.676 74.496C125.976 74.4088 128.518 75.8636 129.616 74.962V74.9658Z" stroke="#011720" stroke-miterlimit="10"/>
<path id="Vector_53" d="M124.199 73.5197C124.199 73.5197 119.892 75.2435 119.687 73.1674C119.482 71.0912 121.43 71.7088 121.168 70.3411C120.907 68.9735 122.35 66.5034 124.544 68.9659C124.544 68.9659 123.392 71.83 124.199 73.5197Z" stroke="#011720" stroke-miterlimit="10"/>
<path id="Vector_54" d="M125.854 67.9958C125.854 67.9958 123.327 66.7342 124.778 65.3249C126.229 63.9118 127.881 65.8325 128.23 67.3782C128.582 68.9202 125.854 67.9996 125.854 67.9996V67.9958Z" stroke="#011720" stroke-miterlimit="10"/>
<path id="Vector_55" d="M102.1 38.7612C104.744 41.4397 124.335 49.9411 133.23 41.8337C142.122 33.7263 134.446 28.1193 130.279 25.2476C117.023 16.1135 109.393 18.5988 102.661 24.7816C95.9285 30.9645 99.4556 36.0828 102.104 38.765L102.1 38.7612ZM106.771 28.7861C109.571 25.259 114.246 24.4748 118.947 25.1415C123.649 25.8083 132.052 29.0627 126.002 35.4804C119.951 41.8943 114.916 39.2272 109.298 36.8935C103.684 34.5636 104.578 31.5517 106.771 28.7861Z" fill="#064862"/>
<path id="Vector_56" d="M109.215 28.893C107.578 30.9539 106.911 33.2005 111.098 34.9394C115.284 36.6784 119.038 38.6673 123.551 33.8862C128.063 29.1051 121.796 26.6767 118.292 26.1804C114.788 25.6841 111.302 26.2675 109.215 28.8968V28.893ZM114.034 29.0938C116.023 27.7185 120.546 29.1657 119.523 30.7531C118.497 32.3405 116.269 33.496 114.307 32.2913C112.34 31.0865 111.586 30.7834 114.038 29.0938H114.034Z" fill="#064862"/>
<path id="Vector_57" d="M94.7547 34.6953C94.7547 34.6953 98.1643 43.7877 110.666 48.3339C110.666 48.3339 103.923 49.7319 103.506 50.7359L93.2393 41.5146C93.2393 41.5146 94.8304 34.718 94.7547 34.6953Z" fill="#064862"/>
<path id="Vector_58" d="M101.953 52.1541C101.953 52.1541 98.543 54.7757 98.1641 55.9123L92.0419 50.0666C92.0419 50.0666 91.7237 47.5776 92.4814 43.7891C92.4814 43.7891 100.058 51.0478 101.953 52.1541Z" fill="#064862"/>
<path id="Vector_59" d="M102.1 38.7612C104.744 41.4397 124.335 49.9411 133.23 41.8337C142.122 33.7263 134.446 28.1193 130.279 25.2476C117.023 16.1135 109.393 18.5988 102.661 24.7816C95.9285 30.9645 99.4556 36.0828 102.104 38.765L102.1 38.7612ZM106.771 28.7861C109.571 25.259 114.246 24.4748 118.947 25.1415C123.649 25.8083 132.052 29.0627 126.002 35.4804C119.951 41.8943 114.916 39.2272 109.298 36.8935C103.684 34.5636 104.578 31.5517 106.771 28.7861Z" stroke="#011720" stroke-miterlimit="10"/>
<path id="Vector_60" d="M109.215 28.893C107.578 30.9539 106.911 33.2005 111.098 34.9394C115.284 36.6784 119.038 38.6673 123.551 33.8862C128.063 29.1051 121.796 26.6767 118.292 26.1804C114.788 25.6841 111.302 26.2675 109.215 28.8968V28.893ZM114.034 29.0938C116.023 27.7185 120.546 29.1657 119.523 30.7531C118.497 32.3405 116.269 33.496 114.307 32.2913C112.34 31.0865 111.586 30.7834 114.038 29.0938H114.034Z" stroke="#011720" stroke-miterlimit="10"/>
<path id="Vector_61" d="M94.7547 34.6953C94.7547 34.6953 98.1643 43.7877 110.666 48.3339C110.666 48.3339 103.923 49.7319 103.506 50.7359L93.2393 41.5146C93.2393 41.5146 94.8304 34.718 94.7547 34.6953Z" stroke="#011720" stroke-miterlimit="10"/>
<path id="Vector_62" d="M101.953 52.1541C101.953 52.1541 98.543 54.7757 98.1641 55.9123L92.0419 50.0666C92.0419 50.0666 91.7237 47.5776 92.4814 43.7891C92.4814 43.7891 100.058 51.0478 101.953 52.1541Z" stroke="#011720" stroke-miterlimit="10"/>
<path id="Vector_63" d="M129.964 120.793C129.964 120.793 167.114 124.483 179.616 88.8711C179.616 88.8711 157.643 118.8 129.964 120.793Z" fill="#064862"/>
<path id="Vector_64" d="M132.594 118.671C132.594 118.671 154.707 113.629 165.838 100.301C165.838 100.301 144.293 107.185 132.594 118.671Z" fill="#064862"/>
<path id="Vector_65" d="M129.964 120.793C129.964 120.793 167.114 124.483 179.616 88.8711C179.616 88.8711 157.643 118.8 129.964 120.793Z" stroke="#011720" stroke-miterlimit="10"/>
<path id="Vector_66" d="M132.594 118.671C132.594 118.671 154.707 113.629 165.838 100.301C165.838 100.301 144.293 107.185 132.594 118.671Z" stroke="#011720" stroke-miterlimit="10"/>
<path id="Vector_67" d="M86.1436 92.7393C86.1436 92.7393 96.9901 95.592 100.207 87.7839C103.423 79.9758 97.941 70.2734 97.941 70.2734C97.941 70.2734 101.063 91.1065 86.1436 92.7393Z" fill="#011720"/>
<path id="Vector_68" d="M85.999 89.8291C85.999 89.8291 93.1972 83.7675 93.6821 64.9727C93.6821 64.9727 101.153 86.0406 85.999 89.8291Z" fill="#011720"/>
</g>
<defs>
<radialGradient id="paint0_radial_2819_1911" cx="0" cy="0" r="1" gradientUnits="userSpaceOnUse" gradientTransform="translate(100.077 116.438) rotate(-180) scale(62.5142 62.5142)">
<stop stop-color="#48BBC3"/>
<stop offset="0.52" stop-color="#168CA1"/>
<stop offset="0.78" stop-color="#0C6B85"/>
<stop offset="0.99" stop-color="#0C6B85"/>
</radialGradient>
</defs>
</svg>
