<svg width="194" height="76" viewBox="0 0 194 76" fill="none" xmlns="http://www.w3.org/2000/svg">
<g clip-path="url(#clip0_1797_2252)">
<path d="M43.0916 11.7719H48.7257V6.22266H23.7331V17.4765H12.0143V6.22266H5.21191V51.692H10.9617V69.8973H5.21191V76.0042H48.7257V29.9771H43.0916V11.7719ZM28.5458 47.5849H17.8677V30.3914H28.5458V47.5849Z" fill="#064862"/>
<path d="M28.5492 30.3906H17.8711V47.584H28.5492V30.3906Z" fill="#011720"/>
<path d="M5.21145 52.2617H0V69.3237H5.21145H10.395V52.2617H5.21145Z" fill="#48B5BD"/>
<path d="M5.21191 51.6914V52.1933V52.2611H10.3955V69.323H5.21191V69.3908V69.8927H10.9656V51.6914H5.21191Z" fill="#011720"/>
<path d="M54.0481 12.2773V12.3411H48.729H43.665V29.403H48.729H54.0481V29.4708H54.056V12.2773H54.0481Z" fill="#0C6B80"/>
<path d="M43.0908 11.7734V29.9747H48.7289V29.4728V29.4051H43.665V12.3431H48.7289V12.2794V11.7734H43.0908Z" fill="#011720"/>
<path d="M12.5879 0V6.22246V16.9106H23.1663V6.22246V0H12.5879Z" fill="#01A17E"/>
<path d="M23.214 6.22266H23.1662V16.9108H12.5878V6.22266H12.5359H12.0176V17.4804H23.7364V6.22266H23.214Z" fill="#011720"/>
<path d="M62.4854 37.3406L66.8634 25.4414H68.4504L72.8724 37.3406H71.8556L70.4401 33.4326H64.8977L63.4583 37.3406H62.4854ZM67.6689 25.8677L65.2167 32.5881H70.1251L67.6729 25.8677H67.6689Z" fill="white"/>
<path d="M82.8965 26.3098V25.4414H91.7803V26.3098H87.8248V37.3406H86.8719V26.3098H82.8965Z" fill="white"/>
<path d="M96.6253 37.3406H95.6523V25.4414H96.6253V30.7675H103.942V25.4414H104.871V37.3406H103.942V31.5722H96.6253V37.3406Z" fill="white"/>
<path d="M114.687 37.6117C112.825 37.6117 111.41 37.054 110.437 35.9426C109.464 34.8311 108.978 33.3213 108.978 31.4211C108.978 30.1663 109.189 29.0787 109.612 28.1545C110.034 27.2303 110.668 26.5133 111.513 25.9994C112.359 25.4855 113.415 25.2266 114.687 25.2266C116.561 25.2266 117.981 25.7883 118.938 26.9077C119.895 28.0271 120.377 29.5329 120.377 31.4211C120.377 32.6481 120.162 33.7277 119.731 34.6638C119.301 35.6 118.663 36.325 117.817 36.8389C116.972 37.3528 115.927 37.6117 114.687 37.6117ZM114.687 36.7034C116.254 36.7034 117.439 36.2214 118.24 35.2574C119.046 34.2933 119.444 33.0146 119.444 31.4211C119.444 29.8277 119.05 28.5489 118.26 27.5849C117.471 26.6208 116.278 26.1388 114.687 26.1388C113.096 26.1388 111.936 26.6049 111.135 27.5331C110.329 28.4613 109.931 29.76 109.931 31.4211C109.931 33.0823 110.321 34.2734 111.103 35.2454C111.884 36.2174 113.081 36.7034 114.687 36.7034Z" fill="white"/>
<path d="M129.285 37.6154C127.734 37.6154 126.538 37.1493 125.7 36.2211C124.863 35.2929 124.44 33.9743 124.44 32.2693V25.4453H125.413V32.2693C125.413 33.7632 125.764 34.8746 126.462 35.6076C127.16 36.3406 128.101 36.7071 129.285 36.7071C130.541 36.7071 131.502 36.3446 132.172 35.6195C132.842 34.8945 133.177 33.7791 133.177 32.2693V25.4453H134.13V32.2693C134.13 34.0022 133.719 35.3248 132.894 36.241C132.068 37.1572 130.868 37.6154 129.289 37.6154H129.285Z" fill="white"/>
<path d="M143.093 37.6116C142.276 37.6116 141.49 37.4762 140.737 37.2093C139.983 36.9424 139.365 36.5241 138.887 35.9505C138.408 35.3808 138.153 34.6359 138.125 33.7196H139.098C139.098 33.7634 139.114 33.8909 139.142 34.11C139.17 34.3291 139.245 34.5841 139.365 34.8709C139.485 35.1617 139.688 35.4445 139.979 35.7274C140.266 36.0102 140.665 36.2453 141.175 36.4365C141.682 36.6277 142.348 36.7233 143.165 36.7233C143.899 36.7233 144.489 36.6356 144.931 36.4604C145.374 36.2851 145.709 36.07 145.936 35.815C146.163 35.5601 146.315 35.3131 146.391 35.0661C146.467 34.8191 146.514 34.6319 146.526 34.5084C146.538 33.9746 146.403 33.5404 146.116 33.2097C145.825 32.8791 145.446 32.6122 144.975 32.405C144.501 32.2018 143.982 32.0266 143.408 31.8871C142.838 31.7477 142.268 31.5963 141.694 31.433C141.123 31.2697 140.601 31.0625 140.127 30.8076C139.652 30.5526 139.277 30.222 138.994 29.8156C138.711 29.4053 138.584 28.8715 138.615 28.2102C138.643 27.5888 138.859 27.059 139.261 26.6128C139.664 26.1706 140.194 25.828 140.856 25.589C141.518 25.35 142.26 25.2305 143.077 25.2305C143.895 25.2305 144.592 25.3699 145.254 25.6527C145.916 25.9356 146.443 26.3578 146.829 26.9195C147.216 27.4852 147.396 28.1863 147.368 29.0349H146.415C146.427 28.4413 146.319 27.9553 146.088 27.5768C145.856 27.1984 145.557 26.8996 145.191 26.6885C144.824 26.4773 144.445 26.3339 144.05 26.2543C143.655 26.1786 143.305 26.1387 142.994 26.1387C142.021 26.1387 141.215 26.3379 140.581 26.7403C139.947 27.1426 139.62 27.6525 139.608 28.274C139.592 28.8078 139.732 29.238 140.019 29.5647C140.306 29.8874 140.689 30.1463 141.159 30.3375C141.63 30.5287 142.152 30.692 142.726 30.8355C143.297 30.9749 143.867 31.1263 144.429 31.2776C144.991 31.433 145.51 31.6362 145.984 31.8911C146.455 32.1461 146.829 32.4847 147.104 32.9149C147.38 33.3452 147.511 33.8989 147.495 34.5721C147.467 35.2215 147.256 35.7712 146.861 36.2213C146.467 36.6715 145.94 37.0181 145.286 37.2571C144.632 37.4961 143.903 37.6156 143.097 37.6156L143.093 37.6116Z" fill="white"/>
<path d="M150.817 37.3406L155.195 25.4414H156.782L161.204 37.3406H160.188L158.772 33.4326H153.23L151.79 37.3406H150.817ZM156.001 25.8677L153.549 32.5881H158.457L156.005 25.8677H156.001Z" fill="white"/>
<path d="M173.533 25.4414H174.486V37.3406H172.708L165.853 25.8876H165.809V37.3406H164.856V25.4414H166.527L173.485 36.8944H173.529V25.4414H173.533Z" fill="white"/>
<path d="M189.419 31.381C189.419 32.9466 189.128 34.1616 188.542 35.0261C187.956 35.8945 187.134 36.496 186.078 36.8346C185.021 37.1732 183.785 37.3406 182.377 37.3406H179.287V25.4414H182.377C183.789 25.4414 185.021 25.6645 186.078 26.1067C187.134 26.5489 187.956 27.2101 188.542 28.0826C189.128 28.955 189.419 30.0545 189.419 31.381ZM180.26 36.496H182.545C183.717 36.496 184.742 36.3606 185.623 36.0937C186.504 35.8268 187.19 35.3248 187.676 34.5918C188.163 33.8589 188.406 32.7872 188.406 31.381C188.406 30.2258 188.163 29.2697 187.676 28.5168C187.19 27.7639 186.504 27.2062 185.623 26.8476C184.742 26.4891 183.717 26.3098 182.545 26.3098H180.26V36.496Z" fill="white"/>
<path d="M76.8045 57.2196C76.8045 63.4699 71.7565 68.5132 65.5004 68.5132H59.7188V67.3062H65.5004C66.88 67.3062 68.1759 67.0472 69.4279 66.5294C70.6361 66.0115 71.7167 65.2785 72.6218 64.3742C73.5708 63.4261 74.3044 62.3465 74.7789 61.1395C75.3411 59.8886 75.6003 58.5939 75.6003 57.2156C75.6003 55.8373 75.3411 54.5426 74.7789 53.2917C74.3044 52.0847 73.5708 51.0051 72.6218 50.1008C71.7167 49.1527 70.6361 48.4197 69.4279 47.9456C68.1759 47.384 66.884 47.125 65.5004 47.125H60.9269V67.3022H59.7188V45.918H65.5004C71.7565 45.918 76.8045 51.0051 76.8045 57.2116V57.2196Z" fill="white"/>
<path d="M65.4998 68.7245H59.5068V45.7109H65.4998C71.8516 45.7109 77.0152 50.8737 77.0152 57.2157C77.0152 63.5577 71.8477 68.7205 65.4998 68.7205V68.7245ZM59.9295 68.3022H65.4998C71.6164 68.3022 76.5926 63.3306 76.5926 57.2197C76.5926 51.1088 71.6164 46.1372 65.4998 46.1372H59.9295V67.0991H60.715V46.922H65.4998C66.9432 46.922 68.2551 47.1968 69.5111 47.7585C70.7352 48.2366 71.8357 48.9815 72.7687 49.9615C73.7416 50.8897 74.4873 51.9892 74.9697 53.2201C75.524 54.4511 75.8031 55.8015 75.8031 57.2197C75.8031 58.6379 75.528 59.9724 74.9657 61.2272C74.4952 62.4223 73.7536 63.5338 72.7647 64.5217C71.8317 65.4579 70.7352 66.1948 69.5071 66.7207C68.2152 67.2545 66.9033 67.5134 65.4958 67.5134H59.9255V68.2982L59.9295 68.3022ZM61.1377 67.0951H65.4998C66.8515 67.0951 68.1075 66.8482 69.3476 66.3343C70.5239 65.8323 71.5765 65.1193 72.4737 64.2229C73.4226 63.2748 74.1324 62.2112 74.583 61.0599C75.1252 59.8489 75.3884 58.5941 75.3884 57.2157C75.3884 55.8374 75.1173 54.5626 74.5869 53.3795C74.1204 52.1963 73.4147 51.1486 72.4776 50.2563C71.5765 49.3122 70.5278 48.607 69.3516 48.1449C68.1394 47.6032 66.8834 47.3402 65.5038 47.3402H61.1416V67.0951H61.1377Z" fill="white"/>
<path d="M95.4048 68.4693L92.514 64.159C90.8752 65.2784 88.9772 65.8839 86.8599 65.8839H84.4875V68.5131H83.2793V45.9219H86.8599C92.3824 45.9219 96.8721 50.3636 96.8721 55.881C96.8721 58.9006 95.5364 61.6135 93.463 63.426L96.8721 68.4693H95.4048ZM93.0762 62.1313C93.8976 61.3107 94.5435 60.3626 94.9742 59.3308C95.4487 58.2513 95.664 57.088 95.664 55.881C95.664 54.6739 95.4487 53.5545 94.9742 52.475C94.5435 51.4392 93.8936 50.4911 93.0762 49.6745C92.2987 48.8977 91.3497 48.2523 90.313 47.8221C89.1925 47.348 88.0681 47.1329 86.8599 47.1329H84.4875V64.6809H86.8599C88.0681 64.6809 89.1885 64.4657 90.313 63.9917C91.3497 63.5615 92.2987 62.9121 93.0762 62.1393V62.1313Z" fill="white"/>
<path d="M84.6953 68.7245H83.0645V45.7109H86.8564C92.4945 45.7109 97.0799 50.2722 97.0799 55.8812C97.0799 58.7813 95.8638 61.53 93.7386 63.4621L97.2674 68.6806H95.2896L92.4546 64.45C90.7879 65.5415 88.9059 66.0913 86.8604 66.0913H84.6993V68.7205L84.6953 68.7245ZM83.4871 68.3022H84.2726V65.673H86.8564C88.89 65.673 90.752 65.1033 92.3908 63.9839L92.5663 63.8644L95.5129 68.2584H96.4699L93.1803 63.3904L93.3199 63.2669C95.4411 61.4145 96.6573 58.7215 96.6573 55.8812C96.6573 50.5072 92.2593 46.1332 86.8564 46.1332H83.4871V68.3022ZM86.8564 64.8882H84.2726V46.922H86.8564C88.1084 46.922 89.2648 47.153 90.3892 47.6271C91.4299 48.0613 92.4068 48.7186 93.2162 49.5273C94.0655 50.3758 94.7194 51.3438 95.162 52.3995C95.6286 53.4631 95.8678 54.6383 95.8678 55.8852C95.8678 57.132 95.6286 58.351 95.158 59.4187C94.7194 60.4703 94.0655 61.4344 93.2162 62.2869C92.4068 63.0956 91.4299 63.7529 90.3852 64.1871C89.2608 64.6611 88.1044 64.8922 86.8524 64.8922L86.8564 64.8882ZM84.6953 64.4659H86.8564C88.0526 64.4659 89.1531 64.2468 90.2257 63.7927C91.2186 63.3784 92.1476 62.753 92.9212 61.9841C93.7306 61.1755 94.3566 60.2552 94.7753 59.2514C95.2218 58.2355 95.4491 57.1042 95.4491 55.8852C95.4491 54.6662 95.2218 53.5786 94.7753 52.5628C94.3566 51.5549 93.7306 50.6347 92.9212 49.826C92.1516 49.0572 91.2186 48.4318 90.2257 48.0175C89.1531 47.5633 88.0486 47.3442 86.8564 47.3442H84.6953V64.4699V64.4659Z" fill="white"/>
<path d="M104.293 47.1328V59.5499H112.363V60.7569H104.293V67.31H116.678V68.517H103.085V45.9258H116.678V47.1328H104.293Z" fill="white"/>
<path d="M116.885 68.7245H102.869V45.7109H116.885V47.3402H104.5V59.335H112.57V60.9643H104.5V67.0951H116.885V68.7245ZM103.292 68.3022H116.462V67.5174H104.077V60.5421H112.148V59.7573H104.077V46.918H116.462V46.1332H103.292V68.3022Z" fill="white"/>
<path d="M140.279 68.5131L139.33 66.0114C137.388 67.565 134.928 68.5131 132.252 68.5131C129.577 68.5131 127.116 67.565 125.175 66.0114L124.226 68.5131H122.93L131.602 45.9657V45.9219H132.898V45.9657L141.57 68.5131H140.275H140.279ZM138.855 64.8482L132.252 47.6468L125.649 64.8482C126.427 65.5373 127.332 66.099 128.325 66.5293C129.577 67.0471 130.872 67.3061 132.252 67.3061C133.632 67.3061 134.928 67.0471 136.18 66.5293C137.172 66.099 138.034 65.5373 138.855 64.8482Z" fill="white"/>
<path d="M141.882 68.7245H140.135L139.234 66.3542C137.221 67.8839 134.753 68.7245 132.252 68.7245C129.752 68.7245 127.284 67.8839 125.271 66.3542L124.37 68.7245H122.623L131.391 45.9221V45.7109H133.11V45.9261L141.878 68.7245H141.882ZM140.427 68.3022H141.268L132.739 46.1332H131.766L123.237 68.3022H124.078L125.079 65.669L125.307 65.8483C127.288 67.4298 129.752 68.3022 132.252 68.3022C134.753 68.3022 137.217 67.4298 139.198 65.8483L139.426 65.669L140.427 68.3022ZM132.256 67.5174C130.849 67.5174 129.537 67.2585 128.249 66.7247C127.208 66.2745 126.291 65.6969 125.514 65.0077L125.406 64.9121L132.256 47.0614L139.111 64.9161L138.995 65.0117C138.122 65.7487 137.229 66.3064 136.268 66.7247C134.992 67.2505 133.644 67.5174 132.256 67.5174ZM125.905 64.7886C126.622 65.4061 127.468 65.9279 128.413 66.3383C129.645 66.8482 130.905 67.0951 132.256 67.0951C133.608 67.0951 134.884 66.8402 136.104 66.3343C136.981 65.9518 137.803 65.4459 138.608 64.7806L132.256 48.2326L125.905 64.7806V64.7886Z" fill="white"/>
<path d="M168.843 45.9258V68.517H167.635V48.5152L159.047 65.8878H157.711L149.082 48.5152V68.517H147.874V45.9258H149.17L158.361 64.5493L167.595 45.9258H168.847H168.843Z" fill="white"/>
<path d="M169.055 68.7245H167.424V49.4117L159.179 66.0913H157.58L149.29 49.4078V68.7245H147.659V45.7109H149.298L149.358 45.8304L158.361 64.0716L167.464 45.7109H169.059V68.7245H169.055ZM167.847 68.3022H168.633V46.1332H167.723L158.357 65.0237L149.035 46.1332H148.082V68.3022H148.867V47.6111L157.839 65.673H158.915L167.843 47.6072V68.3022H167.847Z" fill="white"/>
<path d="M189.554 62.8692C189.554 66.319 186.708 68.518 182.736 68.518C178.765 68.518 176.608 66.793 175.399 64.8092L176.436 64.0324C177.557 65.8011 179.283 67.3508 182.692 67.3508C185.715 67.3508 188.171 65.6697 188.171 62.8652C188.171 60.5786 187.007 59.244 184.503 57.9494C184.156 57.7781 183.813 57.6028 183.466 57.4753L181.309 56.5272C180.447 56.1408 179.714 55.7504 179.064 55.3201C177.337 54.2007 176.516 52.8622 176.516 50.8385C176.516 47.7791 179.064 45.8789 182.17 45.8789C185.017 45.8789 186.7 47.2134 187.824 48.6794L186.787 49.4562C185.838 48.1217 184.542 47.086 182.17 47.086C179.451 47.086 177.856 48.5519 177.856 50.7947C177.856 52.5196 178.545 53.5116 180.144 54.5035C180.663 54.7624 181.225 55.0652 181.871 55.364L183.984 56.3121C184.59 56.571 185.148 56.8299 185.623 57.0889C188.255 58.5549 189.55 60.2798 189.55 62.8652L189.554 62.8692Z" fill="white"/>
<path d="M182.736 68.7252C179.339 68.7252 176.739 67.4067 175.22 64.9169L175.12 64.7535L176.492 63.7258L176.615 63.917C178.45 66.8051 180.962 67.1397 182.692 67.1397C185.794 67.1397 187.959 65.383 187.959 62.8653C187.959 60.7858 186.963 59.4593 184.407 58.1367C184.072 57.9694 183.729 57.7981 183.394 57.6746L181.225 56.7225C180.308 56.3082 179.582 55.9218 178.948 55.4995C177.122 54.3164 176.308 52.8783 176.308 50.8387C176.308 47.843 178.773 45.6719 182.174 45.6719C184.606 45.6719 186.508 46.616 187.995 48.556L188.123 48.7233L186.743 49.7551L186.62 49.5798C185.866 48.5162 184.678 47.2972 182.174 47.2972C179.67 47.2972 178.071 48.6357 178.071 50.7948C178.071 52.3764 178.665 53.3324 180.26 54.3244C180.411 54.4 180.583 54.4877 180.762 54.5793C181.141 54.7745 181.532 54.9737 181.966 55.1769L184.08 56.125C184.758 56.4158 185.3 56.6707 185.734 56.9097C188.526 58.4634 189.77 60.3038 189.77 62.8733C189.77 66.3789 186.947 68.7332 182.74 68.7332L182.736 68.7252ZM175.682 64.8611C177.15 67.1477 179.522 68.307 182.736 68.307C186.687 68.307 189.343 66.1239 189.343 62.8693C189.343 60.4393 188.203 58.7661 185.523 57.2762C185.104 57.0492 184.574 56.7982 183.904 56.5114L181.787 55.5633C181.34 55.3561 180.95 55.153 180.567 54.9578C180.391 54.8661 180.22 54.7785 180.052 54.6948C178.318 53.6192 177.648 52.5277 177.648 50.7988C177.648 48.3808 179.383 46.8789 182.174 46.8789C184.734 46.8789 186.018 48.0621 186.835 49.1655L187.529 48.6477C186.149 46.9307 184.395 46.0941 182.174 46.0941C178.968 46.0941 176.731 48.0461 176.731 50.8426C176.731 52.7468 177.465 54.0335 179.179 55.149C179.797 55.5593 180.499 55.9377 181.396 56.3401L183.553 57.2882C183.896 57.4157 184.251 57.5949 184.598 57.7662C187.325 59.1764 188.386 60.6066 188.386 62.8693C188.386 65.6339 186.045 67.562 182.696 67.562C179.036 67.562 177.341 65.7734 176.384 64.3353L175.686 64.8611H175.682Z" fill="white"/>
<path d="M191.684 21.6149C192.804 21.6149 193.717 22.5271 193.717 23.6465C193.717 24.7659 192.804 25.6782 191.684 25.6782C190.563 25.6782 189.65 24.7659 189.65 23.6465C189.65 22.5271 190.563 21.6149 191.684 21.6149ZM191.684 21.332C190.404 21.332 189.367 22.3678 189.367 23.6465C189.367 24.9253 190.404 25.961 191.684 25.961C192.964 25.961 194 24.9253 194 23.6465C194 22.3678 192.964 21.332 191.684 21.332Z" fill="white"/>
<path d="M192.241 24.0395L192.732 24.1948C192.656 24.4697 192.533 24.6729 192.357 24.8043C192.182 24.9358 191.958 25.0035 191.691 25.0035C191.356 25.0035 191.085 24.888 190.87 24.6609C190.655 24.4338 190.547 24.1231 190.547 23.7287C190.547 23.3105 190.655 22.9878 190.87 22.7567C191.085 22.5257 191.368 22.4102 191.723 22.4102C192.03 22.4102 192.281 22.5018 192.473 22.681C192.588 22.7886 192.672 22.944 192.728 23.1431L192.226 23.2627C192.198 23.1312 192.134 23.0316 192.038 22.9559C191.942 22.8802 191.831 22.8444 191.695 22.8444C191.508 22.8444 191.356 22.9121 191.241 23.0436C191.125 23.179 191.065 23.3941 191.065 23.6929C191.065 24.0116 191.121 24.2347 191.237 24.3701C191.352 24.5056 191.5 24.5733 191.683 24.5733C191.819 24.5733 191.934 24.5295 192.03 24.4458C192.126 24.3621 192.198 24.2267 192.238 24.0435L192.241 24.0395Z" fill="white"/>
</g>
<defs>
<clipPath id="clip0_1797_2252">
<rect width="194" height="76" fill="white"/>
</clipPath>
</defs>
</svg>
