<svg width="223" height="34" viewBox="0 0 223 34" fill="none" xmlns="http://www.w3.org/2000/svg">
<g id="Capa_1" clip-path="url(#clip0_2819_2323)">
<path id="Vector" d="M16.725 0.371014C25.9412 0.371014 33.45 7.88685 33.45 17.1857C33.45 26.4846 25.9412 34.0005 16.725 34.0005C7.50883 34.0005 0 26.5631 0 17.1857C0 7.80838 7.50883 0.371014 16.725 0.371014ZM147.851 0.000453284V29.4622C147.851 31.6943 148.744 32.2915 150.451 32.7362L150.525 33.1068H141.087V29.4622C139.972 32.1389 137.668 33.7781 134.693 33.7781C129.636 33.7781 126.291 29.1657 126.291 22.3213C126.291 18.4544 127.406 15.1803 129.488 12.7216C131.496 10.3413 134.244 9.077 137.293 9.077C138.778 9.077 140.041 9.37345 141.082 10.0448V6.02533C141.082 5.13162 140.86 4.53873 140.412 4.0897C139.815 3.57091 138.852 3.34422 137.363 3.49244H137.289V3.12188L147.842 -0.00390625L147.851 0.000453284ZM183.679 9.15111V29.4622C183.679 31.6943 184.572 32.2915 186.279 32.7362V33.1068H176.841V29.3881C175.726 32.0648 173.274 33.7781 170.521 33.7781C167.25 33.7781 165.168 32.2915 164.349 29.3881L164.201 28.6426C164.053 27.8971 163.979 27.156 163.979 26.4105V15.5465C163.979 13.1662 163.461 12.4208 161.379 12.2725H161.305V11.902L170.743 9.15111V26.2666C170.743 28.7952 171.858 30.212 173.94 30.212C175.203 30.212 176.244 29.5407 176.841 28.4246V15.5509C176.841 13.0965 176.396 12.351 174.685 12.2028H174.611V11.8322L183.679 9.15547V9.15111ZM115.516 9.077C118.042 9.077 120.494 9.97071 122.132 11.5314C123.991 13.3188 124.958 15.9215 125.032 19.3437V19.4178H110.834C110.537 24.3267 113.582 28.3461 117.598 28.4944C120.498 28.7167 123.025 26.9336 124.436 24.0302L124.806 24.1784C123.987 29.6104 120.79 33.704 115.215 33.704C108.895 33.704 105.328 28.4203 105.18 21.7981V20.0848C105.476 17.1814 106.369 14.5787 107.929 12.6431C108.895 11.4529 110.01 10.5592 111.348 9.96635C112.463 9.36909 114.096 9.07264 115.437 9.07264H115.511L115.516 9.077ZM213.858 9.15111C217.874 9.15111 220.326 11.6796 220.326 15.9956V29.8327C220.326 31.4676 221.071 32.2872 222.926 32.7362H223V33.1068H213.483V16.2223C213.483 13.5455 212.516 12.2028 210.509 12.2028C208.875 12.2028 208.056 13.3929 207.608 14.4349C207.682 14.9537 207.756 15.4768 207.756 15.9956V30.0594C207.756 31.7727 208.274 32.3656 209.764 32.7362H209.838V33.1068H200.992V16.2223C200.992 13.5455 199.951 12.2028 198.017 12.2028C196.458 12.2028 195.639 13.3188 195.269 14.2125V30.1336C195.269 31.8468 195.787 32.4397 197.277 32.8103H197.351V33.1809H188.505V15.4768C188.505 13.0965 187.908 12.351 185.904 12.2028H185.83V11.8322L195.269 9.22959V13.175C196.236 10.6464 198.466 9.15547 201.288 9.15547C204.485 9.15547 206.715 10.7162 207.46 13.5455C208.427 10.8688 210.879 9.15547 213.854 9.15547L213.858 9.15111ZM78.2721 1.48705L87.1181 22.2472L95.964 1.48705H105.481L105.407 1.85761L105.298 1.88377C103.66 2.25869 102.802 2.87339 102.802 4.90929V30.2077C102.95 31.8425 103.843 32.3656 105.402 32.7362H105.476V33.1068H93.3595V32.7362H93.4335C94.9928 32.3656 95.8857 31.8425 96.0337 30.2077V5.58066L84.3654 33.037H83.6947L72.3226 6.32614V29.6148C72.3226 31.6986 73.2154 32.2915 74.9228 32.6664H74.9968V33.037H68.0106V32.6664H68.0847C69.7964 32.2959 70.6849 31.6986 70.6849 29.6148V4.90929C70.6849 2.82543 69.792 2.23253 68.0847 1.85761H68.0106V1.48705H78.2678H78.2721ZM159.371 9.15111V29.6017C159.41 31.7204 160.299 32.3002 161.971 32.7362L162.045 33.1068H152.607V15.5509C152.607 13.1706 152.089 12.4251 150.007 12.2769H149.933V11.9063L159.371 9.15547V9.15111ZM43.485 1.33883C48.019 1.33883 51.8083 8.47974 51.8083 17.1857C51.8083 25.8917 48.0931 33.0326 43.485 33.0326C38.8769 33.0326 35.1617 25.9658 35.1617 17.1857C35.1617 8.40563 38.8769 1.33883 43.485 1.33883ZM56.2683 2.97366C57.98 2.97366 59.2431 9.37345 59.2431 17.1857C59.2431 24.998 57.906 31.3978 56.2683 31.3978C54.6306 31.3978 53.3196 25.1244 53.2935 17.4211V17.1857C53.2935 9.37345 54.6306 2.97366 56.2683 2.97366ZM138.408 10.4154C135.433 10.4154 133.578 14.3608 133.578 20.4597C133.578 23.3632 134.096 25.8917 134.989 27.6007C135.808 29.2355 136.997 30.1292 138.334 30.1292C139.671 30.1292 140.638 29.5319 141.082 28.4159V12.0546C140.564 11.0126 139.597 10.4197 138.408 10.4197V10.4154ZM115.437 10.4895C112.763 10.4895 111.199 13.6894 110.977 18.1535V18.2277H119.079C119.227 14.7313 118.634 12.4251 117.519 11.3091C116.923 10.7903 116.256 10.4895 115.437 10.4895ZM155.73 0.222789C157.886 0.222789 159.519 1.85761 159.519 4.01558C159.519 6.17355 157.886 7.80838 155.73 7.80838C153.574 7.80838 151.941 6.17355 151.941 4.01558C151.941 1.85761 153.574 0.222789 155.73 0.222789Z" fill="black"/>
</g>
<defs>
<clipPath id="clip0_2819_2323">
<rect width="223" height="34" fill="white"/>
</clipPath>
</defs>
</svg>
