<svg width="219" height="197" viewBox="0 0 219 197" fill="none" xmlns="http://www.w3.org/2000/svg">
<g id="Capa_1" clip-path="url(#clip0_2819_1609)">
<path id="Vector" d="M109.5 197C109.5 197 111.2 192.666 100.437 184.939C94.5391 180.708 103.08 173.632 106.103 172.125C109.123 170.618 107.99 164.965 99.305 164.588C90.6198 164.211 80.4212 156.674 88.3515 148.384C96.2817 140.094 104.589 145.747 117.808 142.354C131.026 138.964 138.237 126.921 131.612 119.75C124.983 112.579 107.235 109.942 103.835 114.089C100.437 118.236 105.196 129.526 109.803 124.823C114.411 120.12 121.773 126.336 115.73 132.743C109.687 139.15 96.8462 142.164 87.7835 132.743C78.7208 123.323 86.6511 102.219 102.134 102.219C117.617 102.219 138.766 109.002 141.789 123.7C144.809 138.397 142.544 146.311 127.438 147.064C112.333 147.817 100.624 149.701 102.134 155.354C103.644 161.008 107.422 161.008 112.329 159.501C117.24 157.995 121.392 164.025 116.862 167.415C112.329 170.805 104.399 176.459 107.045 182.112C109.687 187.766 111.2 192.286 109.5 197Z" fill="#064862"/>
<path id="Vector_2" d="M106.995 38.1434C103.707 45.3037 104.416 52.0556 94.3305 50.2779C84.2448 48.5036 52.5096 48.5036 47.1721 69.2206C41.8347 89.9377 52.5096 104.146 67.0437 107.698C81.5779 111.25 92.5525 89.3463 107.083 94.0811C121.617 98.8159 158.69 132.474 199.474 109.43C240.254 86.3857 205.852 64.7815 197.248 62.4124C188.647 60.0432 174.526 52.8547 165.216 35.4785C152.612 11.9487 122.623 4.10549 106.995 38.1434Z" fill="url(#paint0_linear_2819_1609)"/>
<path id="Vector_3" d="M82.9113 72.6244C82.9113 72.6244 91.025 69.4456 86.9682 66.2984C82.9113 63.1512 72.5293 68.7767 71.6403 74.1029C70.7513 79.4292 71.6403 87.4203 85.8781 83.2768C100.116 79.1334 109.902 68.7732 115.243 56.343C120.58 43.9128 124.436 30.0005 138.97 27.9306C153.504 25.8571 176.681 34.7036 168.504 56.1775C160.327 77.6514 141.641 70.5509 141.641 62.5598C141.641 54.5687 153.187 51.5765 155.272 56.0332C155.272 56.0332 158.249 46.2819 144.904 49.5382C131.558 52.7945 123.138 66.492 132.391 76.9579C141.641 87.4238 155.286 77.0952 162.108 71.6035C168.931 66.1118 188.506 61.0813 197.699 75.5815C206.893 90.0851 202.148 114.946 167.742 110.211C133.336 105.476 128.295 97.4848 122.658 89.7894C117.024 82.094 105.753 77.6549 92.4044 89.4937C79.0591 101.333 62.4471 107.254 54.7355 88.3109C47.024 69.3681 70.9665 49.679 90.2877 58.0433C109.605 66.4075 90.9227 80.9112 82.9148 72.6244H82.9113Z" fill="white"/>
<path id="Vector_4" d="M190.835 8.61719L196.359 33.4072L217.801 40.2859L191.911 51.1636L174.509 77.0414V48.3967L152.612 33.5199L177.673 31.6294L190.835 8.61719Z" fill="white"/>
<path id="Vector_5" d="M178.587 36.6177L190.835 8.61719L191.212 36.9979L217.801 40.2859L190.599 47.059L174.509 77.0414L178.361 46.4394L152.612 33.5199L178.587 36.6177Z" fill="#03AF82"/>
<path id="Vector_6" d="M71.8703 21.5797C71.8703 21.5797 76.8761 15.0108 82.0266 21.5797C87.1735 28.1486 79.4408 37.84 71.8703 33.8128C64.2998 29.7891 54.5916 23.3856 64.9595 7.2943C75.3274 -8.79704 92.5497 6.43886 95.6188 14.092C98.6914 21.7452 94.7404 31.7604 97.2098 37.8365C99.6792 43.9125 105.436 49.8231 113.335 49.9886C113.335 49.9886 105.722 56.7194 97.5167 49.9886C89.3113 43.2578 91.0399 33.4854 89.5582 25.276C88.0766 17.0667 79.3561 9.51209 71.8703 21.5832V21.5797Z" fill="#064862"/>
<path id="Vector_7" d="M59.2828 12.793C59.2828 12.793 49.2465 24.9451 58.6231 34.4675C68.0033 43.9899 73.9404 39.3431 80.6819 44.6236C87.4198 49.9041 95.978 57.2932 103.545 54.3361C103.545 54.3361 93.3428 53.185 89.0637 44.1554C84.7846 35.1258 74.9141 38.0793 70.4691 36.108C66.0278 34.1366 56.1537 29.2117 59.2793 12.793H59.2828Z" fill="#48BBC3"/>
<path id="Vector_8" d="M38.3039 22.8919C42.2832 24.631 45.5428 29.2954 47.8464 24.6978C50.1499 20.1003 50.3334 10.085 23.7486 12.7922C23.7486 12.7922 33.5309 5.1566 44.7208 6.46968C52.4712 7.38144 51.7974 10.247 56.2388 8.60299C60.6801 6.96252 64.3031 1.79471 46.6963 0.189448C29.086 -1.41229 2.43066 6.80059 0.127071 29.9501C0.127071 29.9501 -1.06882 34.7941 3.8488 29.9501C8.76642 25.1062 23.0819 16.2385 38.3004 22.8884L38.3039 22.8919Z" fill="#0C6B85"/>
</g>
<defs>
<linearGradient id="paint0_linear_2819_1609" x1="45.7752" y1="66.2988" x2="219" y2="66.2988" gradientUnits="userSpaceOnUse">
<stop stop-color="#48BCC4"/>
<stop offset="0.52" stop-color="#168DA2"/>
<stop offset="0.78" stop-color="#0C6B86"/>
<stop offset="0.99" stop-color="#0C6B86"/>
</linearGradient>
<clipPath id="clip0_2819_1609">
<rect width="219" height="197" fill="white"/>
</clipPath>
</defs>
</svg>
