<?xml version="1.0" encoding="UTF-8"?><svg id="Capa_2" xmlns="http://www.w3.org/2000/svg" xmlns:xlink="http://www.w3.org/1999/xlink" viewBox="0 0 1080 1663"><defs><style>.cls-1{clip-path:url(#clippath);}.cls-2,.cls-3{fill:none;}.cls-2,.cls-4,.cls-5,.cls-6,.cls-7,.cls-8,.cls-9,.cls-10,.cls-11,.cls-12,.cls-13,.cls-14,.cls-15,.cls-16,.cls-17{stroke-width:0px;}.cls-3{stroke:#48bcc4;stroke-miterlimit:10;}.cls-5{fill:#f9dc5c;}.cls-6{fill:#f8db5c;}.cls-7{fill:#48b8c0;}.cls-8{fill:#47bdc4;}.cls-9{fill:#48bcc4;}.cls-10{fill:#0c6b86;}.cls-11{fill:#0d6b87;}.cls-12{fill:#064862;}.cls-13{fill:#97de00;}.cls-14{fill:#fff;}.cls-15{fill:#f26157;}.cls-16{fill:#04052e;}.cls-17{fill:#011720;}</style><clipPath id="clippath"><path class="cls-2" d="m731.52,311.97h155.94v959.56h-86.11s-128.87-62.98-122.31-259.79c6.56-196.81,56.7-218.74,50.22-340.08-6.48-121.34-124.57-158.51,2.27-359.69Z"/></clipPath></defs><rect class="cls-2" x="294.79" y="312.66" width="592.52" height="950.79"/><path class="cls-16" d="m543.49,311.75s52.48,75.26-24.05,199.97c-76.54,124.71,48.11,307.48,72.16,352.63,24.05,45.15,100.59,255.47,0,398.66h-297.4V311.75h249.29Z"/><path class="cls-17" d="m731.55,312h155.94v959.56h-86.11s-128.87-62.98-122.31-259.79c6.56-196.81,56.7-218.74,50.22-340.08s-124.57-158.51,2.27-359.69Z"/><path class="cls-17" d="m681.25,1234.82s17.49-2.19,26.24-10.93c0,0-26.24,0-17.49-24.05l-26.24-4.37s-19.68,26.24,17.49,39.36Z"/><path class="cls-17" d="m707.5,1223.89l34.16-3.54s8.32,22.76,27.54,28.46l-17.96,7.89s-37.18-4.37-43.74-32.8Z"/><path class="cls-17" d="m751.23,1256.69l-21.87,8.75s10.93,19.68-10.93,28.43c0,0,35.92-13.12,50.76,0,0,0,17.03-21.87-17.96-37.18Z"/><path class="cls-17" d="m769.19,1293.86l23.59,2.19s4.37,16.66,0,26.92c0,0-22.09-2.19-40.57-14.55,0,0,13.08-1.43,16.98-14.55Z"/><path class="cls-17" d="m752.21,1308.42s-10.13-5.13-30.7,0c-20.58,5.13-31.54-1.14-31.54-1.14,0,0-67.76,10.64-67.76,15.02,0,0,39.36,26.24,54.67,19.68,0,0,47.88-25.57,75.33-33.56Z"/><path class="cls-17" d="m718.43,1293.86l-28.46,13.41s-27.65-1.99-35.68-1.14c-8.03.85-18.96-3.52-18.96-3.52l34.11-14.42s22.75,5.67,48.99,5.67Z"/><path class="cls-17" d="m669.44,1288.19s14.08-3.08,20.6-12.92l-19.72-3.28s-4.37,15.31-30.61,15.31l29.73.89Z"/><path class="cls-17" d="m690.04,1275.28l39.32-9.84s-2.19-11.39-21.87-14.44c-19.68-3.05-26.24-16.17-26.24-16.17l-30.61,6.56s35.07,13.12,39.4,33.9Z"/><path class="cls-17" d="m650.64,1241.38l-10.93,5.31-18.94-14.03,7.11-20.82s11.82,22.99,22.76,29.55Z"/><path class="cls-17" d="m635.33,1302.61s-31.67,7.9-56.86,4.37c0,0-19.68-6.56-28.43-8.75,0,0,44.16,0,53.79-4.37,0,0,22.75,8.75,31.5,8.75Z"/><path class="cls-17" d="m578.48,1306.98l-48.84,8.73c8.23,3.41,15.34,8.85,18.23,17.51l74.35-10.93s-24.05-2.19-37.18-10.93c-2.23-1.49-3.97-3.14-6.56-4.37"/><path class="cls-17" d="m676.88,1341.97s32.8,10.93,56.86,8.75c0,0-40.19,12.94-50.71,14.12,0,0-43.63-10.93-53.31-11.43,0,0,38.42-7.06,47.17-11.43Z"/><path class="cls-17" d="m629.71,1353.41s-49.05,23-79.66,24.37c-30.61,1.37-56.86,27.61-56.86,27.61,0,0-85.03-14.81-99.37-25.99,0,0,75.32-43.99,154.04-46.17,0,0,9.84,14.21,22.96,14.21s52.17,3.19,58.89,5.97Z"/><path class="cls-17" d="m683.02,1364.84s20.51,2.1,30.69,0c0,0-61.98,25.76-74.01,27.14-12.03,1.38-36.08,18.87-36.08,18.87l-37.18-2.19s30.61-15.31,48.11-17.49,68.47-26.33,68.47-26.33Z"/><path class="cls-17" d="m529.63,1315.72s-16.32-6.97-36.77-7.3c0,0-121.04,21.53-151.65,39.02,0,0,19.68,6.56,21.87,10.93s7.51,6.47,7.51,6.47c0,0,117.86-45.86,159.04-49.12Z"/><path class="cls-17" d="m341.21,1347.44s-38.27-5.22-47.02-10.81c-8.75-5.59-20.48-12.05-20.48-12.05,0,0-117.29,52.38-93.23,146.41l113.71-5.02s-61.23-36.53,47.02-118.54Z"/><path class="cls-17" d="m370.59,1364.84s-82.95,33.99-67.65,101.78h18.17s-15.73-47.61,72.71-87.22l-23.23-14.56Z"/><path class="cls-17" d="m493.19,1405.39s-50.3,32.8,24.05,45.92l45.92-15.31s-15.31-13.12,3.28-27.33c0,0-55.76-1.09-73.26-3.28Z"/><path class="cls-17" d="m563.17,1436l51.73-7.65s41.47,8.75,68.13,3.83l-32.39,23.41s-65.6-8.65-87.47-19.59Z"/><path class="cls-17" d="m517.25,1451.31s29.73,6.37,54.23,4.28,59.48,6.65,63.86,11.03c0,0-34.99,7.43-68.88,7-33.9-.44-68.88,21.43-68.88,21.43,0,0-134.22,17.49-176.45-28.43,0,0,107.57,25.15,196.13-15.31Z"/><path class="cls-17" d="m497.56,1495.05s-10.93,30.61-34.99,37.18c-24.05,6.56-52.48,19.68-54.67,28.43,0,0,122.46.21,158.54,9.95,0,0,24.52-15.04,33.58-23.43,9.06-8.39,29.68-20.94,29.68-20.94,0,0-42.49-39.93-132.15-31.19Z"/><path class="cls-17" d="m635.33,1466.62s13.12-6.75,15.31-11.03c0,0,89.66,8.84,109.34,2.28,0,0-48.11,28.07-62.32,32.62,0,0,0-16.22-17.49-18.41s-43.74-2.19-44.83-5.47Z"/><path class="cls-17" d="m629.71,1526.23l67.94-35.74s1.09,15.49,31.71,13.3c30.61-2.19,94.03-6.56,100.59,0,0,0-25.77,20.82-52.25,22.44-26.48,1.62-76.77,23.7-80.05,44.36,0,0-40.46-7.76-53.58-18.69-13.12-10.93-14.37-25.67-14.37-25.67Z"/><path class="cls-17" d="m759.98,1457.87s82.72,4.37,112.43-6.56c0,0,25.34-24.05,40.64-30.61,0,0-83.69,18.36-130.41,19.02,0,0-7.36,9.41-22.66,18.16Z"/><path class="cls-17" d="m872.41,1451.31s-24.96,19.68-27.15,30.61c-2.19,10.93-15.31,21.87-15.31,21.87,0,0,39.36,0,65.6-8.75,26.24-8.75,65.6-6.56,65.6-6.56l54.77-32.9s-33.28-23.96-143.53-4.28Z"/><path class="cls-17" d="m823.39,1567.21s-94.03,6.77-125.74,3.39c0,0-7.65,11.92-22.96,16.3s-26.24,24.05-26.24,32.8c0,0,63.42,12.59,87.47,8.48,0,0,19.11-29.79,35.8-30.07,16.69-.28,51.67-15.59,51.67-30.89Z"/><path class="cls-17" d="m823.39,1567.21s85.28-56.86,137.77-78.72c0,0,67.79,0,91.84-4.37s30.61-4.37,30.61-4.37c0,0-37.18,34.99-54.67,41.55s-45.92,28.43-45.92,28.43"/><path class="cls-17" d="m663.76,1195.46s-23.56,6.56-31.46,0c0,0,35.83-10.93,42.39-17.49h11.5s-11.5,10.93-22.43,17.49Z"/><path class="cls-17" d="m690,1199.83l21.87-19.68,6.56,1.63,15.31,24.62s-21.87,0-43.74-6.56Z"/><path class="cls-17" d="m711.87,1180.15l-25.68-2.19s13.12-7.14,12.84-16.69l6.28-7.36s10.93,15.31,6.56,26.24Z"/><path class="cls-17" d="m699.03,1161.27s-7.9,5.76-12.84,5.76c0,0-9.31-39.36-24.62-43.74l24.62-5.08s13.12,13.25,12.84,43.06Z"/><path class="cls-17" d="m661.57,1123.3l-19.43,9.17-2.44-24.08s13.12,8.35,21.87,14.91Z"/><path class="cls-17" d="m686.19,1118.21s-9.31-16.1-46.49-18.97v-19.68s37.18-8.75,63.42,39.36l-16.93-.71Z"/><path class="cls-2" d="m376.77,1243.71l-26.87-38.62s-18.28,2.27-24.63,0c0,0,1.04,20.19-8.92,40.94,21.89,3.7,60.42-2.33,60.42-2.33Z"/><path class="cls-2" d="m324.6,1133.72l-4.83-.28,3.7,33.83,6.05.11c-4.18-9.56-4.92-33.66-4.92-33.66Z"/><path class="cls-2" d="m369.1,1020.99c-1.99,1.14-19.05,1.71-19.05,1.71,0,0,2.22,6.36.75,10.79-1.46,4.43-1.34,4.99-15.47,7.7,8.45.43,24.82,6.11,24.82,6.11,13.08-2.84,8.96-26.3,8.96-26.3Z"/><path class="cls-2" d="m335.32,1064.25l-18.21-4.68,1.51,41.46,6.4.89s3.96-30.94,10.3-37.67Z"/><path class="cls-2" d="m440.77,1118.2s-.02.03-.02.03c0,0,.01-.02.02-.03Z"/><path class="cls-12" d="m229.96,643.41c.14,2.41.33,4.82.55,7.24.36-2.37.09-4.82-.55-7.24Z"/><path class="cls-12" d="m232.23,658.25c-.22.51-.44,1-.66,1.49,2.03,14.63,5.57,28.47,10.33,38.11,4.92,2.19,10.03,3.14,13.41,2.68,7.73-1.06,12.86-9.28,10.39-15.08-2.47-5.8-8.89-4.78-12.76-4.37-3.87.41-4.67,6.48-4.67,6.48-9.82-7.8,6.54-12.24,13.87-9.48,7.33,2.77,12.62,17.89-1.69,24.95-4.99,2.46-10.12,2.39-15,.84,3.72,5.24,8.01,8.03,12.77,7.2,2.47-.43,5.62-1.01,9.19-1.71-.28-2.56-.11-5.08-.11-5.08,0,0,3.13,1.72,5.53,3.98,1.36-.29,2.75-.58,4.17-.9-2.03-2.49-3.75-6.28-4.08-9.22,0,0,2.01-2.41,7.25.51,3.45,1.92,4.79,4.49,4.38,6.95,17.64-4.35,36.32-10.7,37.93-18.41,2.56-12.23,6.82-53.17,3.13-55.44-3.7-2.27-7.11,2.56-7.11,7.96s4.55,19.9-21.32,28.15c-6.37,2.03-11.49,3.73-15.65,4.9.07.21.12.43.16.64.63,3.59-4.44,10.46-6.96,10.1,0,0-3.48-4.42-2.44-9.02-1.17,0-2.19-.14-3.09-.44-.87,1.34-1.89,2.2-1.89,2.2,0,0-6.45-3.67-6.48-7.14-.01-1.78,1.06-3.54,2.65-4.21-.15-.68-.29-1.38-.42-2.15-2.84-16.21-10.52-35.54-1.14-39.24s17.34-7.39,20.47,3.98c.53,1.92-3.7,1.71-7.96,1.71s-8.81,9.38-5.12,16.21c3.7,6.82,7.96,11.94,26.44,2.56,18.48-9.38,18.2-16.21,7.68-37.25s-15.92-17.63-38.1-14.22c-20.02,3.08-34.02,7.33-35.5,33.86,9.45,7.39,5.95,19.79,2.41,27.9Zm28.76,27.12c3.71,2.13,1.6,8.6-1.37,8.89-2.3.22-5.24-2.31-5.39-4.72s3.05-6.3,6.76-4.17Zm19,.49c2.6-3.28,14.09-.41,9.03,5.43-5.06,5.84-13.05,2.4-13.05,2.4,3.74-1.92,1.41-4.55,4.01-7.83Zm-32.58-24.34c2.07-3.47,4.32-1.8,7.76,1.23,3.44,3.03-.96,9.66-.96,9.66-8.2-.88-8.87-7.42-6.8-10.89Zm-4.66,11.27c2.7,2.13,2.08,4.96,2.08,4.96,0,0-7.66,6.11-8.47-.2s3.69-6.89,6.39-4.76Z"/><path class="cls-12" d="m321.33,625.49c8.25-.57,8.25,3.41,8.53,8.53.28,5.12,0,10.24,14.5,7.11,14.5-3.13,65.11-17.06,72.79-7.96,7.68,9.1,5.69,46.36,0,48.06s-12.51-4.27-10.8-18.77,4.55-30.99-5.4-29.29c-9.95,1.71-5.03,11.53-3.94,19.41s9.34,39.03-4.74,36.11c-14.07-2.92-8.15-29.21-9.41-36.11s-3.53-8.61-10.36-7.47-8.32-.06-5.3,13.33c3.03,13.4,6.56,29.86-3.59,30.44-10.16.58-16.98-1.98-13.85-21.31,3.13-19.33-3.03-21.55-10.9-20.44-7.87,1.11-5.88,1.68-4.74,11.06,1.14,9.38,2.27,37.25-1.14,42.36,0,0,52.56,8.13,80.86,1.26,1.88-5.25,6.69-10.51,12.82-16.19,6.44-5.96,8-23.78,8.36-30.47.04-1.47.07-2.94.09-4.42-1.01-.38-1.72-.75-1.97-1.09-.85-1.14.58-4.47,1.93-7.05-.2-10.29-.99-20.21-2.35-28.26-1.19.62-2.03,1.12-2.03,1.12,0,0-.46-8.75-.29-11.13-.5-1.57-1.03-2.98-1.61-4.15,0,0,3.65-4.81-9.41-6.25-13.05-1.43-22.72-5.41-20.45,5.96,2.27,11.37,6.54,20.76-1.99,22.75s-11.94,6.26-13.36-9.1c-1.42-15.35,1.36-23.02-17.23-21.46s-18.02,2.13-12.91,15.77c5.12,13.65,9.38,21.32-1.99,22.75s-16.21,4.83-18.77-7.96c-2.56-12.79-.85-21.89-20.47-17.34,0,0,.85,20.76,9.1,20.19Z"/><path class="cls-12" d="m350.62,863.76c-6.82-2.84-14.78,0-16.78,4.55-1.99,4.55,5.69,42.36,14.06,40.66,8.37-1.7,10.68-.29,21.48,0,10.8.28.57-17.06-1.84-23.6s-6.41,7.11-8.68,0-.28-8.25,20.19-10.8c20.47-2.56,18.48-23.31,18.77-38.95.28-15.64-1.14-71.08-3.98-93.83-2.84-22.75-20.76-19.33-32.18-19.7-11.43-.37-3.93,18.28,0,43.44,3.93,25.16,4.32,21.18,12.04,19.41,7.72-1.77-1.75-27.52-1.75-27.52l6.54-2.84c6.54-2.84,3.7,29.29,3.7,47.77s3.13,24.45-8.49,21.48c-11.62-2.97-14.26,20.88-13.12,35.38,1.14,14.5-3.13,7.39-9.95,4.55Z"/><path class="cls-10" d="m322.64,952.82c4.65.72,7.59-10.46,1.63-15.13-2.58-2.02-5.97-1.62-7.52,2.02-1.55,3.64,1.24,12.39,5.89,13.12Zm-3.22-13.41c1.76-.96,4.42.51,5.93,3.28,1.51,2.77,1.31,5.8-.46,6.76-1.76.96-4.42-.51-5.93-3.28-1.51-2.77-1.31-5.8.46-6.76Z"/><path class="cls-10" d="m133.11,1342.85c-8.25-21.04,17.06-28.43,32.98-36.11,15.92-7.68,46.35-24.74,48.9-40.94.85-5.39-50.61,1.42-66.53,3.98-15.92,2.56-16.21,16.49-40.94,17.63-24.74,1.14-26.16-10.8-13.36-24.45,12.79-13.65,29.57-10.52,37.53-1.99s-3.13,13.36-12.23,10.52-4.83-7.11-4.83-7.11c-13.93,5.12-11.66,15.07,2.56,14.5,6.1-.24,10-3.84,16.29-8.22,8.36-5.83,20.94-13.06,48.54-15.66,48.34-4.55,60.56-10.8,91.84-44.64,31.28-33.83,24.17-152.11,24.45-170.6.28-18.48,28.43-19.62,39.81-33.55s-8.53-75.63-11.94-100.94c-3.41-25.3-8.81-26.16-19.62-26.73-10.8-.57-15.64-5.69-21.89-40.94-6.26-35.26-.85-59.99,6.54-63.69,7.39-3.7,9.95-14.78,21.04-14.51,2.01.05,4.07,1.4,6.12,3.63.31-.86.98-1.6,2.13-2.12,4.53-2.03,5.12,4.87,5.12,4.87,0,0-.22,4.18-1.79,5.09.58,1.03,1.16,2.1,1.73,3.21-1.06-4.37,1.57-7.06,5.57-6.97,4.66.11,9,5.57,6.18,10.21-2.41,3.97-7.29,3.4-9.86.6,5.61,11.87,10.22,25.99,12.07,31.24,3.41,9.67-8.25,15.64-15.64,13.87-7.39-1.76-3.13-9.04,0-11.88,0,0,5.4-15.35-8.81-15.35s-13.36,17.34-10.8,29.57c2.56,12.23-5.69,21.89,12.79,19.9,18.48-1.99,39.71-7.42,37.62-29.73-1.97-21.06-3.1-85.36-26.92-94.85-1.52,1.4-3.74,3.09-3.77,4.59-.06,2.95,8.21,7.83,2.6,9.47-5.61,1.64-.82,3.81-7.59,7.33-6.78,3.53-6.2-7.14-7.81-5.92-1.62,1.22-.63,7.13-.43,9.29.2,2.16-9.23-2.09-11.52-5.7-2.29-3.61,4.77-9.07,4.77-9.07,14.97,6.09,15.93-2.85,14.52-7.91-.44-1.58-.22-2.73.45-3.54-1.52-.11-3.02-.19-4.5-.25.49.09.97.21,1.42.37,4.32,1.54.58,11.01-7.01,11.85-7.59.84-4.72-15.27-4.47-11.05.32,5.39,3.85,8.21,7.66,7.56,3.81-.65,5.34-6.92,1.37-7.67-3.97-.75-3,2.58-3,2.58,0,0,1.14-1.24,3.11-.81,1.97.43-1.88,5.67-5.31,1.72-2.23-2.57-.14-4.22,2.79-4.63-3.1-.02-6.11.09-9.01.35,0,0,0,.01-.02.02-1.57,1.3.23,7.2.23,7.2,0,0-1.78,7.77-5.77,9.94s-4.69-6.83-6.43-14.11c-.07-.29-.11-.56-.15-.82-11.97,3.63-20.27,11.39-21.7,25.41-.04.41-.08.83-.12,1.27.64-.22,1.38-.26,2.26-.06,4.84,1.11,1.15,6.98,1.15,6.98,0,0-2.36,2.8-4.14,2.99-.04.71-.08,1.43-.12,2.17,1.95-2.79,5.13-2.94,7.86-.77,3.65,2.9,3.83,9.87-1.21,11.87-2.99,1.19-5.61-.08-7.06-2.23-.09,2.19-.17,4.45-.25,6.79l2.44-2.04s3.04,3.74,3.97,8.24c.91,4.37-3.83,4.01-6.72,4.68-.77,34.69-.1,77.81,3.92,88.33,5.97,15.64,18.61,26.85,34.18,33.89,0,0,9.89,50.27,9.32,62.49-.57,12.23,3.41,15.92-12.79,23.31-16.21,7.39-39.24,12.23-40.09,27.86-.85,15.64,11.37,154.96-.85,169.17-12.23,14.22-76.2,62.84-109.47,53.45-33.27-9.38-86.15,11.94-84.16,27.86,1.99,15.92,4.83,34.97,37.53,24.45,32.7-10.52,65.39-15.07,66.53-9.38,1.14,5.69-69.38,34.12-62.55,53.74,6.82,19.62,55.73,25.3,76.77,10.24,0,0-43.22,11.66-51.46-9.38Zm207.27-548.42c-1.82,2.32-2.31,2.59-7.39-3.8l1.95-8.35s4.68,1.16,8.13,4.18c3.45,3.02-.88,5.65-2.7,7.97Zm8.24-24.01c-.33,2.01-1.12,2.68-.05,7.18,1.07,4.5-2.07,5.54-4.38,4.44-2.31-1.1-6.07-1.36-6.07-1.36,3.05-1.69,2.03-8.81,2.5-9.41.47-.61,8.34-2.85,8.01-.84Zm-13.43-13.21c2.88,1.83,3.24-3.16,7.79-.82,4.55,2.34-3.28,10.61-3.28,10.61-3.12-3.37-10.7-3.34-10.7-3.34-3.64-7.23,3.3-8.29,6.19-6.46Zm-59.75-1.76c1.45-7.96,7.63-4.63,8.83-1.43s4.49-.57,6.71,4.03c2.22,4.61-9.01,6.5-9.01,6.5-.46-4.57-6.53-9.11-6.53-9.11Zm1.05,23.8c-1.18-2.27-4.03-4.74-4.03-4.74,3.45.49,6.92-5.81,7.66-6.01s8.38,2.75,6.91,4.15c-1.47,1.41-2.51,1.46-4.37,5.7-1.86,4.24-4.99,3.17-6.17.9Zm38.39,236.19c-14.73,2.91-25.08,11.21-27.88,15.71-.54,1.43-.71,2.34-.71,2.34-.16-.52.09-1.34.71-2.34,1.48-3.92,5.79-11.73,17.26-15.27,15.64-4.83,24.45-13.36,24.74-18.48,0,0,3.9,14.48-14.11,18.05Zm20.02-40.95c-2.3,10.82-5.35,10.22-7.71,8.59-2.36-1.64-4.26-6.82-4.26-6.82-.78-2.86-3.79-7.69.52-9.37,4.31-1.68,13.75-3.21,11.45,7.6Zm-22.27-38.38c2.72-6.39,8.67-7.09,13.2-3.55,10.48,8.21,5.31,27.85-2.86,26.58-8.17-1.27-13.07-16.65-10.35-23.03Zm-26.33,73.79c16.54-4.82,37.01-13.92,38.72-19.61,0,0-1.24,15.3-23.22,18.88-21.98,3.58-28.47,18.83-28.5,18.88,0,0-3.54-13.34,13-18.16Zm-12.46,125.4c-2.84-51.75-9.1-105.2-9.1-105.2,0,0,15.32,11.84,29.27,9.76,0,0,12.53,118.33-29.27,163.33,0,0,11.94-16.14,9.1-67.88Z"/><path class="cls-10" d="m325.84,975.72s1.13,3.09,2.54,4.07c1.41.98,3.23,1.33,4.6-5.12,1.37-6.45-4.26-5.54-6.83-4.54s-.78,3.88-.31,5.59Zm3.3-4.83c1.2-.04,2.23,1.46,2.3,3.35.06,1.89-.86,3.46-2.06,3.5s-2.23-1.46-2.3-3.35c-.06-1.89.86-3.46,2.06-3.5Z"/><path class="cls-10" d="m329.34,776c1.7,1.68,5.71,1.35,6.27-1.24s-4.54-8.53-6.83-4.96c-2.3,3.57-.76,4.89.56,6.2Zm3.15-5.11c2.91,1.23-.73,4.6-1.43,4.34-4.11-1.51-1.48-5.57,1.43-4.34Z"/><path class="cls-10" d="m274.03,768.28c2.01-1.73,1.52-9.54-2.47-8.08s-3.56,3.45-3.28,5.29c.35,2.37,3.75,4.52,5.75,2.79Zm-.16-4.97c1.58,2.73-3.35,3.23-3.75,2.6-2.37-3.68,2.17-5.34,3.75-2.6Z"/><path class="cls-14" d="m306.55,1151.21s-7.39,48.62-28.15,66.53-47.2,33.55-51.46,40.37c-4.26,6.82-21.61,29.57-39.81,40.37-18.2,10.8-50.61,22.46-49.19,37.25,1.42,14.78,31.28,21.89,50.04,6.26s18.2-27.58,5.69-31.28c-12.51-3.7-26.44,9.1-23.88,14.78,2.56,5.69,16.49,11.37,16.21-3.7,0,0,7.11,15.07-9.1,16.78-16.21,1.71-18.48-6.82-10.24-18.2,8.25-11.37,19.62-13.08,26.73-17.63,7.11-4.55,27.86-23.03,33.55-32.98,5.69-9.95,19.9-21.61,38.67-35.54s41.51-33.27,40.94-83.02Z"/><path class="cls-12" d="m294.02,1039.85c-13.95,2.08-29.27-9.76-29.27-9.76,0,0,6.26,53.45,9.1,105.2s-9.1,67.88-9.1,67.88c41.8-44.99,29.27-163.33,29.27-163.33Zm-20.46,15.83c.57-6.26,4.78-5.84,10.65-3.62,6.96,2.63,9.82,23.24-1.01,25.66-10.83,2.42-10.21-15.78-9.65-22.04Zm16.21,81.89s-9.67,3.97-12.79.85v-7.39s7.19,2.84,13.69,0l-.89,6.54Zm-2.56-13.36c-3.13,2.27-11.37-4.26-11.37-15.35s7.98-17.35,7.98-17.35c15.37-5.69,6.52,30.42,3.39,32.7Z"/><path class="cls-9" d="m276.98,1131.02v7.39c3.13,3.12,12.79-.85,12.79-.85l.89-6.54c-6.5,2.84-13.69,0-13.69,0Z"/><path class="cls-9" d="m283.82,1091.5s-7.98,6.26-7.98,17.35,8.25,17.63,11.37,15.35c3.13-2.27,11.98-38.39-3.39-32.7Zm0,19.15c-1.97-2.75,1.31-10.55,3.11-8.34,6.26,7.68-1.14,11.09-3.11,8.34Z"/><path class="cls-14" d="m283.82,1110.65c1.97,2.75,9.36-.66,3.11-8.34-1.8-2.2-5.08,5.59-3.11,8.34Z"/><path class="cls-9" d="m283.21,1077.71c10.83-2.42,7.96-23.02,1.01-25.66-5.87-2.22-10.08-2.63-10.65,3.62-.57,6.26-1.18,24.46,9.65,22.04Zm-1.36-18.96c1.75-.62,4.22,1.75,4.45,5.49.23,3.74-5.63,2.8-7.62,2.23-1.99-.57-.36-6.48,3.17-7.72Z"/><path class="cls-14" d="m278.68,1066.48c1.99.57,7.84,1.51,7.62-2.23-.23-3.74-2.7-6.11-4.45-5.49-3.53,1.24-5.16,7.15-3.17,7.72Z"/><path class="cls-14" d="m301.8,1009.16c21.98-3.58,23.22-18.88,23.22-18.88-1.71,5.69-22.18,14.78-38.72,19.61s-13,18.16-13,18.16c.02-.05,6.51-15.3,28.5-18.88Z"/><path class="cls-14" d="m286.31,1033.48s.17-.91.71-2.34c-.62,1-.87,1.82-.71,2.34Z"/><path class="cls-14" d="m304.27,1015.87c-11.47,3.54-15.77,11.35-17.26,15.27,2.79-4.49,13.15-12.79,27.88-15.71,18.01-3.56,14.11-18.05,14.11-18.05-.28,5.12-9.1,13.65-24.74,18.48Z"/><path class="cls-14" d="m381.35,996.26c6.03-7.23,2.79-72.05-20.89-71.55-23.68.5-16.7,71.55-16.7,71.55,0,0,31.56,7.23,37.59,0Z"/><path class="cls-9" d="m436.02,632.33c-5.13.3,14.5,3.8,13.47-5.45-1.03-9.25-12.57-13.81-14.45-8.55-1.88,5.26.27,13.52,5.09,9.34,4.82-4.18-1.57-8.87-2.1-6.47-.53,2.4.99,3.79.99,3.79,0,0-4.06,1.18-3.15-3.66.91-4.84,8.56-2.97,9.35,1.67.79,4.64-2.65,8.95-9.21,9.34Z"/><path class="cls-10" d="m435.12,650.74c4.91,1.84,16.99,3.73,18.65,1.32,2-2.9-3.95-13.72-7.69-14.12-3.74-.4-9.11,1.34-9.11,1.34,0,0-.92,1.47-1.89,3.32.05,2.7.07,5.42.04,8.14Z"/><path class="cls-10" d="m433.15,649.65c.25.33.96.71,1.97,1.09.03-2.72.02-5.44-.04-8.14-1.35,2.58-2.79,5.91-1.93,7.05Z"/><path class="cls-10" d="m452.82,635.78s4.78,10.59,10.6,7.33c5.82-3.26,12.79-12.2,7.2-19.21-5.59-7.01-15.39,1.09-15.39,1.09,0,0,.33,9.29-2.41,10.79Z"/><path class="cls-10" d="m451.48,619.54c1.15,3.08,14.56-2.17,12.79-7.64s-6.27-13.48-10.44-11.11c-4.17,2.37-9.4,12.33-9.4,12.33,0,0,5.34,1.83,7.05,6.42Z"/><path class="cls-10" d="m440.67,612.01c2.21,1.16,7.92-13,1.08-13.22-6.83-.22-11.15,3.18-11.33,5.52,0,0,0,.02,0,.03.9,2.81,1.67,6.19,2.32,10,2.45-1.28,6.44-3.11,7.93-2.33Z"/><path class="cls-10" d="m430.71,615.46s.84-.5,2.03-1.12c-.65-3.82-1.42-7.19-2.32-10-.17,2.37.29,11.13.29,11.13Z"/><path class="cls-12" d="m413.85,701.81c-1.61,4.48-1.08,8.95,2.59,13.67,7.96,10.24,17.91,13.36,23.31,18.77,5.4,5.4,6.82,18.99,0,19.16-6.82.17-11.66,1.03-17.34-2.67s-12.51-6.26-15.64,5.4c-3.13,11.66,10.52,27.58,16.21,30.71,5.69,3.13,23.03,13.93,23.03,19.9s-.85,19.05-9.95,16.21c-9.1-2.84-12.79-4.83-17.34-6.54-4.55-1.71-11.09,3.13-11.09,10.8s11.94,19.05,20.19,19.9c8.25.85,16.78,17.34,13.65,26.73s-7.39,11.66-13.65,9.95c-6.26-1.71-13.08-2.84-14.78,2.84-1.71,5.69,11.66,24.89,32.98,27.66,0,0-17.2-14.15-15.5-22.11,1.71-7.96,8.53-6.54,13.65-5.97,5.12.57,7.68-.28,8.53-7.39.85-7.11,1.99-22.18-14.78-34.12-16.78-11.94-18.2-15.92-12.23-18.2s10.8,2.27,14.78,3.7c3.98,1.42,8.25-1.14,11.09-7.68s6.82-19.33-5.12-29c-11.94-9.67-29-24.17-28.43-30.42s3.98-5.69,8.53-3.7,19.33,9.67,24.17.85c4.83-8.81,5.4-28.43-7.11-35.83-12.51-7.39-21.32-10.8-15.07-24.45,6.26-13.65,12.67-35.67,6.62-47.4,0,0-.02.97-.11,2.58-.36,12.89-1.65,25.39-3.95,34.59-1.52,6.09-8.12,9.85-17.23,12.06Z"/><path class="cls-12" d="m413.85,701.81c9.11-2.21,15.71-5.97,17.23-12.06,2.3-9.2,3.6-21.71,3.95-34.59-.36,6.68-1.92,24.51-8.36,30.47-6.14,5.67-10.94,10.94-12.82,16.19Z"/><path class="cls-13" d="m417.01,737.09c-.57,4.26.85,12.51,9.1,7.68,8.25-4.83,6.26-10.8-1.42-16.49-7.68-5.69-18.48-3.7-19.9,1.42s-11.66,38.95,4.55,59.99c0,0-10.95-24.31-4.98-42.22,5.97-17.91,12.79-17.34,17.63-15.07,4.83,2.27,1.99,8.81.28,7.39-1.71-1.42-1-4.12-1-4.12,0,0-3.7-2.84-4.26,1.42Z"/><path class="cls-13" d="m400.29,819.83c1.51,17.2,8.05,25.73,13.16,28.58,0,0-11.55-14.59-9.47-27.2,2.08-12.61,8.33-22.56,14.87-21.42,6.54,1.14,4.55,4.55,4.55,4.55,0,0-5.61-4.55-5.93,0-.32,4.55,8.04,11.48,12.96,8.16,4.92-3.32-.99-17.96-12.97-18.46-11.97-.5-18.68,8.59-17.18,25.8Z"/><path class="cls-13" d="m410.32,905.84c5.4,4.83,11.37,12.79,5.21,14.81-6.16,2.02-5.64-6.35-5.64-6.35,5.83-.06,1.85-4.49-2.13-5.28s-5.97,5.34-4.84,9.04c1.14,3.7,7.96,13.93,18.2,4.26,10.24-9.67-11.09-22.75-16.78-27.58s-6.82-18.77,1.96-29.01c8.78-10.24,16.24-7.1,22.49-1.42,6.26,5.69-1.14,11.66-7.68,9.7-6.54-1.96,0-7.99,0-7.99,0,0-5.69-4.83-7.96,3.13-2.27,7.96,5.97,11.37,13.36,11.09,7.39-.28,11.37-11.37,6.82-18.77-4.55-7.39-29-14.78-35.51,8.99-6.5,23.78,7.07,30.53,12.47,35.36Z"/><path class="cls-9" d="m383.99,1077.93c-7,13.16-16.32,1.63-20.6,9.73-4.28,8.1,7.65,49.8,7.65,49.8,0,0,.04-21.51,0-35.54-.04-14.04,7.44-8.14,19.38-15.6,6.18-3.86,8.63-59.71,8.17-112.57-1.73-4.67-2.22-9.32-.17-13.02-.79-44.14-3.63-82.84-8-82.47-9.95.85-6.43,56.63-6.43,56.63,6.37,37.86,7,129.89,0,143.05Z"/><path class="cls-10" d="m380.56,1158.74c17.72,6.11,38.58,20.05,58.48,29.14,19.9,9.1,0-6.54-8.25-8.81-8.25-2.27-21.32-13.65-40.66-19.9-19.33-6.26-17.34-12.79-17.34-12.79,0,0-9.95,6.25,7.77,12.37Z"/><path class="cls-12" d="m385.3,1115.95c-5.12.57-8.53,5.4-8.53,7.39s1.99,8.25,7.48,7.24c5.49-1.01,3.04-6.39,1.05-7.81s-2.84,2.27-3.79,1.87c-.94-.4-.48-3.01,2.65-3.01s6.54,7.68,6.35,15.82-12.52,8.91-12.52,8.91c1.79,8.53,8.73,10.52,8.73,10.52-.57-4.55,7.96-15.35,8.25-23.6.28-8.25-4.55-17.91-9.67-17.34Z"/><path class="cls-12" d="m392.13,1105.72v13.63s5.3,8.8,3.36,17.06c0,0,.58,11.05,3.16,12.22s11.2-2.25,11.2-2.25c0,0-13.17-7.96-12.61-25.3.57-17.34,1.14-20.47,5.12-19.33,3.98,1.14,2.92,4.64,1.18,4.74-1.74.1-6.29,2.66-2.88,6.35s6.64-1.62,8.15-6.35c1.52-4.74-.11-8.52-5.27-10.04s-11.41,5.59-11.41,9.29Z"/><path class="cls-13" d="m413.14,1148.87c7.93.79,13.89-.94,13.89-.94-4.62,1.27-13.89-1.55-13.89-1.55-19.36,9.38-19.3-.85-19.3-.85-5.12,13.36,19.3,3.35,19.3,3.35Z"/><path class="cls-13" d="m452.69,993.98c-9.67-4.26-21.61,2.84-25.83,10.64-4.22,7.8.52,12.67,9.05,13.81s12.79-7.11,7.75-10.57c-5.04-3.46-9.17,4.88-9.17,4.88,0,0-1.99-10.24,5.12-10.8s11.94,4.83,11.04,13.5-18.43,12.09-27.24,22.9-2.56,22.18.85,32.98c3.41,10.8-10.8,5.69-13.08,32.7s17.34,43.79,17.34,43.79c-8.25-9.1-8.53-19.33-11.37-37.25s5.97-23.31,9.88-26.74c9.05-7.94,1.49-18.46-2.77-27.85s12.51-22.46,25.87-31.84,12.23-25.87,2.56-30.14Z"/><path class="cls-10" d="m416.29,1074.73c6.26-6.54-8.53-18.48-12.23-18.2,0,0,.85,4.26.85,9.95s5.12,14.78,11.37,8.25Z"/><path class="cls-10" d="m432.79,1063.35c28.72-4.55,17.34-22.18,17.34-22.18-14.5,2.27-17.34,22.18-17.34,22.18Z"/><path class="cls-10" d="m485.39,1124.77c-13.65-.28-24.58,11.94-16.84,21.61,7.74,9.67,18.26-.85,16.56-5.12-1.71-4.26-7.21-5.99-8.58-4.85,0,0,.33-3.68,7.44-1.69,7.11,1.99,13.08,9.67,5.4,16.21-7.68,6.54-39.17,12.95-56.12-2.06,0,0,4.94,17.13,37.35,15.7s38.38-13.08,37.53-21.32c-.85-8.25-9.1-18.2-22.75-18.48Z"/><path class="cls-12" d="m476.29,1118.23c7.39-2.27,7.96-6.54,7.96-8.25s-1.14-7.11-5.97-3.41c-4.83,3.7,1.14,6.26,1.14,6.26,0,0-4.55.28-14.78,6.26-10.24,5.97-3.38,26.44-3.38,26.44-3.95-22.46,7.65-25.02,15.04-27.3Z"/><path class="cls-12" d="m454.61,1143.91c1.39,3.64,2.91,6.16,2.91,6.16-1.15-2.17-2.1-4.21-2.91-6.16Z"/><path class="cls-12" d="m468.04,1112.83c4.26-2.84,6.54-9.38,1.71-13.93-4.83-4.55-13.08-2.27-13.08,1.14s4.26,10.8,7.96,4.26c0,0,4.55,3.41-.28,5.69-2.98,1.4-10.95,4.88-12.86,14.42.06,1.94-.06,3.99-.35,6.1.24,3.76,1.29,8.19,3.48,13.41-2-5.22-3.73-12.76-.32-18.5,5.79-9.74,9.49-9.74,13.75-12.59Z"/><path class="cls-12" d="m440.78,1118.19s0,0,0,.01c0,0,0,0,0-.01Z"/><path class="cls-12" d="m451.49,1124.4c-.22-7.54-3.01-13.28-7.9-13.28-6.26,0-6.54,7.39-5.12,9.1,1.42,1.71,8.25,2.84,6.54-1.42-1.6-3.99-3.94-1.01-4.23-.61,0,0,0,0,0,.01-.01.02-.02.03-.02.03,0,0,0-.01.02-.03,0,0,0,0,0-.01.36-.49,4.03-5.29,5.66,1.46,1.71,7.11,2.91,15.35-13.19,26.73,0,0,16.18-4.75,17.81-15.31.03-.19.05-.37.07-.56-.15-2.27,0-4.3.35-6.1Z"/><path class="cls-12" d="m451.49,1124.4c-.36,1.81-.5,3.84-.35,6.1.3-2.11.41-4.17.35-6.1Z"/><path class="cls-12" d="m432.79,1113.91c5.4-11.6,6.82-7.62,11.37-11.32,4.55-3.7.27-10.73-6.83-9.77s-7.31,8.45-1.81,8.4c0,0-4.02,2.51-8.5,6.35-4.48,3.84,1.57,31.33,6.22,33.22,0,0-5.86-15.27-.46-26.88Z"/><path class="cls-10" d="m508.21,1023.24c1.91,8.84-2.95,33.29-10.75,35.42-7.81,2.13-19.46,3.58-42.63-8.09,0,0,23.17,24.16,40.23,22.45,0,0,25.02-31.28,21.04-47.2-3.02-12.08-23.22-20.23-32.79-23.46-.59.04-1.17.08-1.74.11,7.45,3.9,25.14,13.81,26.65,20.77Z"/><path class="cls-12" d="m485.67,1052.27c15.92-6.82,20.18-31.56,5.4-39.24,0,0-23.2-8.38-32.07,9.89s10.75,36.17,26.67,29.35Zm-10.35-32.61c19.51.94,9.77,24.36,0,20.19-9.78-4.17-8.33-20.59,0-20.19Z"/><path class="cls-14" d="m475.33,1039.85c9.77,4.17,19.51-19.25,0-20.19-8.33-.4-9.78,16.02,0,20.19Z"/><path class="cls-10" d="m451.51,973.77c-2.8,13.1,5.11,22.77,5.28,13.67.16-9.1,6.44-37.22,18.8-32.54,12.36,4.68,19.33,36.23,11.01,37.8-8.32,1.57-29.81,0-29.81,0l15.67,9.71s4.07.31,9.09.06c-2.01-1.05-3.28-1.67-3.28-1.67,0,0,1.98.53,5.02,1.56,7.49-.56,16.22-2.49,16.87-8.41,1.14-10.49-8.13-47.58-21.69-52.07-13.56-4.48-24.16,18.8-26.97,31.89Z"/><path class="cls-10" d="m481.56,1002.47c.57-.03,1.15-.06,1.74-.11-3.04-1.03-5.02-1.56-5.02-1.56,0,0,1.27.62,3.28,1.67Z"/><path class="cls-15" d="m477.56,967.23c-6.69-7.98-15.77,19.64-15.77,19.64,5.12-.57,22.46-11.66,15.77-19.64Zm-7.13,7.21c-.74-2.19,2.97-4.95,3.87-3.5,2.27,3.7-3.13,5.69-3.87,3.5Z"/><path class="cls-14" d="m470.43,974.45c.74,2.19,6.14.2,3.87-3.5-.89-1.45-4.61,1.31-3.87,3.5Z"/><path class="cls-10" d="m413.91,994.83c3.31,1.42,12.05,0,12.05,0-35.54-24.17-9.1-56.01-9.1-56.01-4.26,1.42-11.09,9.95-18.22,21.48-.09.14-.15.28-.23.42.08,4.3.13,8.65.17,13.02,3.71,10.02,13.09,20.13,15.32,21.08Z"/><path class="cls-10" d="m398.59,973.75c-.04-4.37-.1-8.72-.17-13.02-2.05,3.7-1.56,8.35.17,13.02Z"/><path class="cls-10" d="m450.91,967.23s6.33-19.89-8.34-28.71c-14.67-8.83-25.71.3-25.71.3,27.86-3.7,34.05,28.42,34.05,28.42Z"/><path class="cls-12" d="m427.1,986.02c3.41,13.08,16.49-1.99,17.91-7.11s-.85-27.3-17.82-27.95c-16.97-.66-16.3,13.45-15.68,22s6.2,8.8,15.58,4.82c9.38-3.98-1.14-15.07-4.83-14.5-3.7.57-.95,7.27-.95,7.27,0,0-7.29-10.12,1.24-11.25,8.53-1.14,15.35,3.98,16.83,16.07,1.47,12.09-12.28,10.66-12.28,10.66Z"/><path class="cls-12" d="m499.32,1194.71c-21.48-5.69-54.51-9.91-51.71,6.85,2.81,16.75,43.18,18.87,51.71,13.69,8.53-5.18,9.67-17.97,0-20.53Zm-33.55,10.8c-6.26-7.68-.08-11.13,13.93-9.38,2.27.28,5.4.57,8.08,7.58,2.68,7.01-15.76,9.48-22.02,1.8Z"/><path class="cls-17" d="m479.7,1196.13c-14.01-1.75-20.19,1.71-13.93,9.38,6.26,7.68,24.7,5.21,22.02-1.8-2.68-7.01-5.81-7.3-8.08-7.58Zm-2.9,7.58c-2.62-2.37,1.24-5.36,3.47-3.6,5.4,4.26-.85,5.97-3.47,3.6Z"/><path class="cls-13" d="m480.27,1200.11c-2.23-1.76-6.09,1.23-3.47,3.6s8.88.66,3.47-3.6Z"/><path class="cls-14" d="m369.1,1005.41l-20.57-2.84,1.52,20.13s17.06-.57,19.05-1.71v-15.58Z"/><path class="cls-14" d="m350.8,1033.48c1.46-4.43-.75-10.79-.75-10.79h-15.84s.63,9.81,0,12.52c-.63,2.71-17.09,4.63-17.09,4.63l18.21,1.33c14.14-2.7,14.01-3.27,15.47-7.7Z"/><path class="cls-14" d="m360.14,1047.29s16.71,6.81,17.74,9.24c0,0,7.5-5.38,6.11-36.88l-14.9,1.34s4.12,23.46-8.96,26.3Z"/><path class="cls-14" d="m360.14,1047.29s-16.37-5.69-24.82-6.11c0,0-18.29,5-18.21,9.39.09,4.4,0,9,0,9l18.21,4.68s-1.34-11.84,24.82-16.96Z"/><path class="cls-14" d="m346.48,1101.92s-.55-10.84.3-21.65,13.36-12.28,13.36-12.28c-10.8.51-24.82-3.74-24.82-3.74-6.34,6.73-10.3,37.67-10.3,37.67,5.83,2.88,21.45,0,21.45,0Z"/><polygon class="cls-14" points="299.01 1054.79 302.71 1099.04 318.63 1101.03 317.12 1059.57 299.01 1054.79"/><path class="cls-14" d="m325.03,1101.92l-6.4-.89,1.14,32.41,4.83.28c-2.7-4.95.43-31.81.43-31.81Z"/><path class="cls-14" d="m306.56,1131.02v35s14.35,1.82,16.91,1.25l-3.7-33.83-13.21-2.42Z"/><path class="cls-14" d="m354.83,1168.54s-10.04-21.74-10.04-33.96l-20.19-.85s.73,24.1,4.92,33.66c0,0,21.71,2.14,25.32,1.16Z"/><path class="cls-14" d="m349.9,1205.09s-7.39-10.52-15.07-22.18c-7.68-11.66-5.32-15.53-5.32-15.53l-6.05-.11c3.13,9.38,1.81,37.82,1.81,37.82,6.36,2.27,24.63,0,24.63,0Z"/><path class="cls-14" d="m428.66,1234.66c-5.97-6.26,1.71-12.51,1.71-12.51-7.39,0-42.4-22.57-42.4-22.57l-38.06,5.51,26.87,38.62,51.89-9.05Z"/><path class="cls-14" d="m316.35,1255.03s-6.47,20.87-20.58,31.9c0,0,45.31,7.91,64.93,4.49,19.62-3.41,40.28-10.11,40.28-10.11l-24.22-28.61s-38.53,6.02-60.42,2.33Z"/><path class="cls-14" d="m400.99,1281.32l21.42,29.73s67.67-26.73,70.51-34.12c0,0-31.1-9.1-40.28-16.92,0,0-8.24,13.19-51.65,21.31Z"/><path class="cls-14" d="m325.27,1205.09l-14.71-.3-45.96,36.69,51.75,4.55c9.95-20.76,8.92-40.94,8.92-40.94Z"/><path class="cls-9" d="m289.84,973.3c-3.99,3.59-9.06,3.83-13.69,2.57,1.22,7.53,2.75,12.52,4.69,12.21,7.39-1.2,20.55,1.1,19.94-16.26-.15-4.31.02-9.59.3-15.15-1.81,6.62-7.05,12.84-11.24,16.62Z"/><path class="cls-9" d="m287.33,970.1c8.38-2.89,12.12-15.56,10.91-21.2-1.21-5.64-7.55-8.96-11.69-6.82s-3.03,6.81-2.51,9.65c.52,2.83,5.03,3.08,5.03,3.08-5.2,7.67-9.39-4.14-7.75-9.69,1.63-5.56,12.48-10.3,18.48-.14.86,1.46,1.4,2.96,1.68,4.48.2-3.29.4-6.56.57-9.69-.98.08-1.7.09-1.7.09,0,0,.74-1.63,1.86-3.26.07-1.5.13-2.96.17-4.35-1.69,1.75-4.59,3.39-6.86,3.81,0,0-1.89-1.35-.03-5.37,1.69-3.65,4.51-4.43,6.95-2.87-.03-5-.46-8.53-1.65-9.33-4.02-2.69-28.82-10.25-28.93-5.47,0,0,.26,12.59,1.07,27.45,3.1-2.76,6.75.95,6.75.95,0,0-2.35,4.96-4.9,5.17-.51.04-1.03-.04-1.5-.22.07,1.2.15,2.4.23,3.6,2.03.16,4.09,1.31,4.09,1.31-.11,3.46-1.7,5.23-3.55,5.87.39,4.77.85,9.4,1.38,13.56,3.38.91,6.92,1.13,11.92-.6Zm-.58-24.55c1.37-2.85,6.25-1.66,6.63.51.29,1.69-1.41,3.99-3.18,4.23-1.77.25-4.81-1.9-3.45-4.75Zm2.81-20.99c4.58,3.4,2.49,9.48,2.49,9.48-1.62-2.65-3.43-.79-5.99-2.52-2.56-1.74-1.08-10.36,3.5-6.96Zm-13.25,12.71c-4.1-2.15-2.14-5.63.47-6.29,2.61-.66,7.95,2.69,7.83,4.57,0,0-4.21,3.87-8.3,1.72Zm2.19,22.43c1.42-2.11,3.54-1.81,3.54-1.81,0,0,4.93,5.31.32,6.25-4.61.94-5.28-2.34-3.86-4.44Z"/><path class="cls-14" d="m301.49,949.46c-.14,2.42-.28,4.85-.41,7.22.65-2.39.85-4.83.41-7.22Z"/><path class="cls-14" d="m281.32,945.12c-1.63,5.56,2.55,17.36,7.75,9.69,0,0-4.52-.25-5.03-3.08-.52-2.83-1.63-7.51,2.51-9.65s10.48,1.18,11.69,6.82c1.21,5.64-2.53,18.3-10.91,21.2-5,1.73-8.54,1.51-11.92.6.23,1.82.48,3.56.74,5.18,4.62,1.26,9.7,1.01,13.69-2.57,4.2-3.78,9.43-10,11.24-16.62.12-2.38.26-4.8.41-7.22-.28-1.52-.82-3.02-1.68-4.48-6-10.16-16.85-5.42-18.48.14Z"/><path class="cls-14" d="m295.48,930.7c-1.86,4.02.03,5.37.03,5.37,2.27-.43,5.17-2.06,6.86-3.81.04-1.57.06-3.05.06-4.43-2.44-1.56-5.26-.78-6.95,2.87Z"/><path class="cls-14" d="m302.05,939.77c.06-1.08.11-2.13.16-3.17-1.12,1.63-1.86,3.26-1.86,3.26,0,0,.72,0,1.7-.09Z"/><path class="cls-14" d="m286.07,931.53c2.56,1.74,4.37-.12,5.99,2.52,0,0,2.09-6.08-2.49-9.48-4.58-3.4-6.06,5.22-3.5,6.96Z"/><path class="cls-15" d="m290.2,950.31c1.77-.25,3.47-2.55,3.18-4.23-.38-2.17-5.26-3.37-6.63-.51-1.37,2.85,1.68,4.99,3.45,4.75Z"/><path class="cls-14" d="m282.36,964.15c4.61-.94-.32-6.25-.32-6.25,0,0-2.12-.3-3.54,1.81-1.42,2.11-.75,5.38,3.86,4.44Z"/><path class="cls-14" d="m277.59,951.28s-2.06-1.15-4.09-1.31c.16,2.4.34,4.81.54,7.18,1.84-.64,3.44-2.41,3.55-5.87Z"/><path class="cls-14" d="m274.77,946.59c2.56-.21,4.9-5.17,4.9-5.17,0,0-3.65-3.71-6.75-.95.11,1.93.22,3.91.34,5.9.48.18.99.26,1.5.22Z"/><path class="cls-14" d="m276.79,930.98c-2.61.66-4.57,4.15-.47,6.29,4.1,2.15,8.3-1.72,8.3-1.72.12-1.88-5.22-5.23-7.83-4.57Z"/><path class="cls-13" d="m229.78,639.71c.05,1.23.11,2.47.19,3.71.65,2.42.91,4.87.55,7.24.29,3.04.64,6.08,1.05,9.09.22-.49.44-.98.66-1.49,3.53-8.12,7.04-20.52-2.41-27.9-.16,2.86-.18,5.96-.04,9.36Z"/><path class="cls-13" d="m260.44,703.03c14.31-7.07,9.02-22.18,1.69-24.95-7.33-2.77-23.68,1.68-13.87,9.48,0,0,.8-6.07,4.67-6.48,3.87-.41,10.29-1.43,12.76,4.37,2.47,5.8-2.66,14.02-10.39,15.08-3.38.46-8.48-.49-13.41-2.68,1.11,2.25,2.29,4.27,3.54,6.02,4.88,1.54,10.01,1.62,15-.84Z"/><path class="cls-10" d="m280.16,698.65c-5.24-2.92-7.25-.51-7.25-.51.33,2.94,2.05,6.73,4.08,9.22,2.46-.54,4.99-1.13,7.55-1.76.41-2.46-.93-5.03-4.38-6.95Z"/><path class="cls-10" d="m267.4,709.37c1.72-.34,3.53-.7,5.42-1.1-2.4-2.26-5.53-3.98-5.53-3.98,0,0-.17,2.52.11,5.08Z"/><path class="cls-10" d="m289.03,691.29c5.06-5.84-6.43-8.71-9.03-5.43s-.28,5.91-4.01,7.83c0,0,7.99,3.44,13.05-2.4Z"/><path class="cls-7" d="m259.63,694.26c2.97-.29,5.07-6.75,1.37-8.89s-6.91,1.76-6.76,4.17,3.09,4.94,5.39,4.72Z"/><path class="cls-10" d="m244.83,677.76s.62-2.83-2.08-4.96c-2.7-2.13-7.19-1.56-6.39,4.76s8.47.2,8.47.2Z"/><path class="cls-10" d="m254.21,672.42s4.4-6.63.96-9.66c-3.44-3.03-5.7-4.7-7.76-1.23-2.07,3.47-1.39,10.01,6.8,10.89Z"/><path class="cls-10" d="m260.82,669.1c.03,3.47,6.48,7.14,6.48,7.14,0,0,1.02-.86,1.89-2.2-2.96-1.01-4.57-3.84-5.72-9.15-1.59.67-2.66,2.43-2.65,4.21Z"/><path class="cls-10" d="m274.71,683.5c2.52.35,7.59-6.51,6.96-10.1-.04-.22-.09-.43-.16-.64-3.84,1.08-6.85,1.71-9.24,1.73-1.04,4.6,2.44,9.02,2.44,9.02Z"/><path class="cls-4" d="m324.9,949.44c1.76-.96,1.97-3.99.46-6.76-1.51-2.77-4.16-4.24-5.93-3.28-1.76.96-1.97,3.99-.46,6.76,1.51,2.77,4.16,4.24,5.93,3.28Z"/><path class="cls-4" d="m329.38,977.74c1.2-.04,2.13-1.61,2.06-3.5-.06-1.89-1.09-3.39-2.3-3.35s-2.13,1.61-2.06,3.5c.06,1.89,1.09,3.39,2.3,3.35Z"/><path class="cls-14" d="m322.99,959.14c8.17,1.27,13.34-18.37,2.86-26.58-4.53-3.55-10.49-2.84-13.2,3.55-2.72,6.39,2.18,21.76,10.35,23.03Zm-6.24-19.44c1.55-3.64,4.94-4.04,7.52-2.02,5.97,4.67,3.02,15.86-1.63,15.13-4.65-.72-7.44-9.48-5.89-13.12Z"/><path class="cls-14" d="m323.47,966.88c-4.31,1.68-1.3,6.51-.52,9.37,0,0,1.89,5.19,4.26,6.82,2.36,1.64,5.41,2.23,7.71-8.59s-7.14-9.29-11.45-7.6Zm9.52,7.78c-1.37,6.45-3.19,6.1-4.6,5.12-1.41-.98-2.54-4.07-2.54-4.07-.47-1.71-2.26-4.59.31-5.59s8.2-1.92,6.83,4.54Z"/><path class="cls-5" d="m311.01,718.91c1.14,0,2.29.04,3.45.08-1.14-.21-2.35-.23-3.45-.08Z"/><path class="cls-5" d="m308.22,723.53c3.43,3.95,7.28-1.29,5.31-1.72-1.97-.43-3.11.81-3.11.81,0,0-.97-3.33,3-2.58,3.97.75,2.44,7.02-1.37,7.67-3.81.65-7.34-2.17-7.66-7.56-.25-4.21-3.12,11.9,4.47,11.05,7.59-.84,11.33-10.31,7.01-11.85-.45-.16-.93-.28-1.42-.37-1.16-.04-2.31-.07-3.45-.08-2.93.41-5.03,2.05-2.79,4.63Z"/><path class="cls-15" d="m326.38,776.36c.28.58.65,1.1,1.08,1.57-.62-1.32-1.25-2.6-1.9-3.85.17.72.44,1.47.82,2.27Z"/><path class="cls-15" d="m337.31,777.33c2.81-4.64-1.52-10.1-6.18-10.21-4-.1-6.63,2.6-5.57,6.97.64,1.24,1.28,2.53,1.9,3.85,2.57,2.8,7.44,3.37,9.86-.6Zm-8.53-7.52c2.3-3.57,7.39,2.37,6.83,4.96s-4.57,2.92-6.27,1.24c-1.33-1.31-2.86-2.64-.56-6.2Z"/><path class="cls-5" d="m331.07,775.23c.7.26,4.34-3.11,1.43-4.34s-5.54,2.82-1.43,4.34Z"/><path class="cls-12" d="m334.95,782.27l-1.95,8.35c5.08,6.39,5.57,6.12,7.39,3.8,1.82-2.32,6.15-4.95,2.7-7.97-3.45-3.02-8.13-4.18-8.13-4.18Z"/><path class="cls-12" d="m338.11,780.67s3.76.26,6.07,1.36c2.31,1.1,5.45.06,4.38-4.44-1.07-4.5-.28-5.17.05-7.18.33-2.01-7.54.24-8.01.84-.47.61.55,7.72-2.5,9.41Z"/><path class="cls-12" d="m339.71,767s7.83-8.27,3.28-10.61c-4.55-2.34-4.9,2.65-7.79.82-2.88-1.83-9.82-.77-6.19,6.46,0,0,7.58-.04,10.7,3.34Z"/><path class="cls-12" d="m325.61,765.78s-.59-6.91-5.12-4.87c-1.15.52-1.82,1.26-2.13,2.12,1.85,2,3.69,4.72,5.47,7.85,1.57-.91,1.79-5.09,1.79-5.09Z"/><path class="cls-15" d="m273.84,771.35c5.04-2.01,4.86-8.98,1.21-11.87-2.73-2.17-5.91-2.02-7.86.77-.15,2.76-.29,5.73-.42,8.88,1.45,2.15,4.07,3.42,7.06,2.23Zm-2.28-11.14c3.98-1.46,4.47,6.35,2.47,8.08s-5.4-.42-5.75-2.79c-.27-1.84-.7-3.83,3.28-5.29Z"/><path class="cls-5" d="m273.87,763.32c-1.58-2.73-6.12-1.08-3.75,2.6.41.63,5.34.13,3.75-2.6Z"/><path class="cls-12" d="m272.95,782.11c-.93-4.49-3.97-8.24-3.97-8.24l-2.44,2.04c-.11,3.5-.21,7.14-.3,10.88,2.88-.67,7.62-.31,6.72-4.68Z"/><path class="cls-12" d="m287.04,772.65c1.47-1.41-6.16-4.35-6.91-4.15s-4.21,6.5-7.66,6.01c0,0,2.85,2.47,4.03,4.74,1.18,2.27,4.32,3.33,6.17-.9,1.86-4.24,2.89-4.29,4.37-5.7Z"/><path class="cls-12" d="m281.98,764.55s11.23-1.89,9.01-6.5c-2.22-4.61-5.51-.84-6.71-4.03s-7.38-6.53-8.83,1.43c0,0,6.07,4.54,6.53,9.11Z"/><path class="cls-12" d="m271.45,755.09s3.69-5.87-1.15-6.98c-.88-.2-1.63-.16-2.26.06-.25,2.73-.5,6.08-.72,9.91,1.78-.19,4.14-2.99,4.14-2.99Z"/><path class="cls-12" d="m296.44,736.42c3.99-2.18,5.77-9.94,5.77-9.94,0,0-1.8-5.9-.23-7.2,0,0,.01-.01.02-.02-4.34.39-8.42,1.11-12.14,2.24.04.26.08.53.15.82,1.73,7.28,2.43,16.28,6.43,14.11Z"/><path class="cls-12" d="m318.52,722.77c1.42,5.06.46,14-14.52,7.91,0,0-7.06,5.47-4.77,9.07,2.29,3.61,11.73,7.86,11.52,5.7-.2-2.16-1.19-8.07.43-9.29,1.62-1.22,1.04,9.45,7.81,5.92,6.78-3.53,1.99-5.69,7.59-7.33,5.61-1.64-2.66-6.52-2.6-9.47.03-1.5,2.25-3.18,3.77-4.59-1.4-.56-2.88-.94-4.45-1.1-1.46-.15-2.91-.27-4.36-.37-.67.81-.89,1.96-.45,3.54Z"/><path class="cls-15" d="m294,358c37.62,10.64,84.97,38.02,94.16,82.81,9.19,44.79,49.07,52.05,69.94,47.31,20.87-4.74,44.5-48.44,18.51-70.75-25.99-22.31-41.52-.42-39.77,14.6,0,0,1.01-12.75,8.05-12.32,7.04.43,28.76,17.59,8.24,35.14s-50.73-34.64-13.26-60.44c37.47-25.8,114.11,56.51,38.75,127.41-75.36,70.91-125.86-27.54-130.52-49.75-4.42-21.08-10.12-68.15-54.08-88.94"/><path class="cls-14" d="m294.02,383.08s40.53,7.67,60.95,51.23c20.42,43.56,55.46,103,117.88,68.67,0,0-25.02,36.64-68.94,16.53-43.92-20.12-51.97-81.98-60.2-94.09-8.23-12.11-26.46-33.28-49.7-42.33Z"/><ellipse class="cls-14" cx="344.63" cy="398.36" rx="2.54" ry="4" transform="translate(-157.45 557.65) rotate(-66.74)"/><path class="cls-14" d="m341.53,390.24c-4.03,0-7,2.97-5.73,7.66,1.27,4.69,10.61,11.03,15.65,8.2s-.61-15.87-9.92-15.86Zm7,12.53c-2.87,1.61-8.19-2-8.91-4.67-.72-2.67.97-4.36,3.26-4.36,5.3,0,8.52,7.42,5.65,9.03Z"/><path class="cls-7" d="m575.4,955.55s-2.07,12.91-5.38,17.02c0,0-6.79,3.9-12.42,2.49,0,0,9.04,3.64,9.48,5.04,0,0,1.36,9.95.39,14.38,0,0,3.2-10.44,6-13.91,0,0,2.8-3.47,12.3-3.63,0,0-6.77-1.29-9.55-4.31,0,0-2.58-3.9-.83-17.07Z"/><path class="cls-7" d="m515.4,870.55s-2.07,12.91-5.38,17.02c0,0-6.79,3.9-12.42,2.49,0,0,9.04,3.64,9.48,5.04,0,0,1.36,9.95.39,14.38,0,0,3.2-10.44,6-13.91,0,0,2.8-3.47,12.3-3.63,0,0-6.77-1.29-9.55-4.31,0,0-2.58-3.9-.83-17.07Z"/><path class="cls-3" d="m482.15,788.17s3.8-3.34.99-11.97c0,0,3.82,8.26,6.33,7.72,0,0,6.57-.11,9.03-1.79,0,0-9.74,8.24-9.11,9.94.63,1.7,2.11,11.99,1.43,12.24s-3.64-9.84-6.59-10.51c0,0-7.58-1.67-10.09-1.13l8.01-4.51Z"/><path class="cls-7" d="m339.26,530.51s-1.63,8.48-3.9,11.12c0,0-4.56,2.44-8.25,1.39,0,0,5.89,2.59,6.15,3.52,0,0,.69,6.59-.04,9.5,0,0,2.33-6.82,4.25-9.06,0,0,1.92-2.23,8.19-2.14,0,0-4.44-.99-6.21-3.04,0,0-1.63-2.63-.19-11.28Z"/><g class="cls-1"><path class="cls-6" d="m809.18,1258.94s-52.96-56.83-72.79-105.44c-19.83-48.61-25.39-96.49-20.07-96.98,5.32-.48,19.59,23.22,20.8,27.33s5.08,21.57-2.66,12.09c-8.59-10.52-7.98-15.48-8.22-18.38-.24-2.9-4.11-.73-3.14,4.59.97,5.32,22.01,93.83,86.09,176.78Z"/><path class="cls-15" d="m813.17,1252.77s-37.24-52.96-48.61-99.15c-11.37-46.19-4.59-43.29,8.22-44.26s41.35,16.45,29.99,32.89c-11.37,16.45-24.79,3.51-26.96-1.57-2.18-5.08-5.32-14.75,3.39-16.69,8.71-1.93,6.78,12.16,6.78,12.16,0,0,8.7-4.42,5.55-10.71-3.14-6.29-17.17-14.03-23.22-6.05-6.05,7.98,27.81,108.1,44.86,133.37Z"/><path class="cls-8" d="m817.63,1252.77s3.52-6.7-1.8-22.21c-5.32-15.51-13.78-57.35-4.84-79.12,8.95-21.77,20.8-48.37,21.28-62.88,0,0-7.74,22.49-29.75,17.17-22.01-5.32-52.24-23.22-85.37-145.83,0,0-5.32,14.41,0,44.81s11.97,51.32,13.66,50.59-2.42-6.05.24-7.01c2.66-.97,12.09,19.83,4.35,22.97-7.74,3.14-15.48-29.75-19.11-42.32-3.63-12.58-12.33-53.45-11.61-74.73.73-21.28,3.87-51.03,7.98-51.03s4.84,17.9,5.32,25.39c.48,7.5,5.56,46.67,22.25,82.71,16.69,36.03,45.71,83.09,68.92,80.12,23.22-2.97,13.3-9.5,21.04-15.79,7.74-6.29,13.83-9.55,12.72,2.36s-7.64,50.12-15.14,64.87c-7.5,14.75-14.63,37.36-6.89,54.53,7.74,17.17,17.78,46.8,13.91,76.3l-17.18-20.92Z"/><path class="cls-15" d="m840.66,1252.77s-7.12-26.82,2.41-45.57c9.52-18.75,23.81-38.11,35.17-49.47,11.36-11.36,26.81-32.96,15.94-48.4-10.87-15.44-28.29-9.23-31.31,0-3.02,9.23-2.17,27.97,3.39,27.73s10.16-4.35,4.35-10.4c-5.8-6.05-12.82-11.12-3.63-13.06,9.19-1.93,18.62.48,18.38,9.67-.24,9.19-3.63,36.52-28.78,31.2-25.15-5.32-8.29-43.05,2.27-54.53,10.55-11.49,19.74-23.34,34.98-20.92s23.46,22.25,24.67,29.02c1.21,6.77,3.14,27.09-17.65,51.27-20.8,24.18-31.2,35.31-36.28,39.18-5.08,3.87-28.69,24.67-23.9,54.29Z"/><path class="cls-11" d="m849.69,1278.89s-5.8-41.6,22.97-64.81c28.78-23.22,61.91-59.73,60.7-90.21s-15.48-66.02-36.76-84.89c-21.28-18.86-47.16-53.2-50.79-84.89-3.63-31.68-2.42-50.54,5.56-84.16,0,0,3.97,68.25,27.26,108.61,23.29,40.36,43.91,68.71,54.76,83.31,10.85,14.6,22.02,37.73,17.62,72.89-3.87,30.96-25.06,74.76-44.01,88.75-31.44,23.22-59.01,40.15-57.32,55.38Z"/><path class="cls-6" d="m896.61,1072.12s-3.87,1.69-13.06-6.29c-9.19-7.98-29.5-26.36-42.56-62.88-13.06-36.52-9.92-68.68-7.74-78.36,0,0,.12,54.53,18.5,89.84,18.38,35.31,44.74,57.56,44.86,57.68Z"/><path class="cls-11" d="m874.43,1074.42s-5.13,4.53-13.36-2.15c-8.24-6.68-35.87-45.22-42.13-73.84-6.25-28.61-13.99-59.81,15.51-100.68,0,0-17.04,57.13-10.03,89.08,7.01,31.96,23.12,69.44,50.01,87.58Z"/><path class="cls-6" d="m835.18,1063.9s-11.22,12-22.06-12.14c-10.83-24.14-24.86-71.05-14.95-108.05,9.92-37,21.52-60.7,31.44-66.26,0,0-29.87,46.31-23.34,106.05,6.53,59.73,28.9,80.41,28.9,80.41Z"/><path class="cls-15" d="m813.12,1074.42s3.92,5.83-3.94,2.49c-7.86-3.34-39.58-15.74-64.47-90.07-24.89-74.33-18.12-117.14-3.13-139.63,14.99-22.49,34.82-32.65,43.29-70.86,0,0,10.52,26,3.26,51.63-7.26,25.63-10.88,72.79-3.87,72.31s16.69-31.44,14.75-51.51c0,0,6.95,31.68-2.33,57.44-9.28,25.76-17.14,48.37-11.7,88.88,4.48,33.34,14.66,72.31,28.13,79.32Z"/><path class="cls-8" d="m915.37,892.15s-52.63-19.81-49.75-74.08c2.88-54.28,30.53-99.89,22.58-114.98-7.95-15.1-22.05-5.53-36.71,8.24-14.66,13.77-84.63,5.08-105.18-7.98,0,0-6.15-45.15-.16-69.37,5.99-24.22,7.29-22.91,14.52-22.77,7.23.14,57.56-24.6,97.78,19.09,0,0-16.51,47.58-25.62,48.84-9.11,1.26-53.48-15.89-56.36-20.78-2.88-4.89.52-30.77,5.59-30.96,5.07-.19,19.63,1.96,26.08,2.35,6.45.39,12.22,1.62,9.38,8.26-2.84,6.65-.85,3.38-11.4.44-10.55-2.94-21.18-6.56-21.11,4.98,0,0,5.62,3.38,13.23,5.74,7.61,2.36,19.69,12.51,23.51,6.75,3.83-5.76,6.07-18.1,10.56-22.91,4.5-4.81,4.11-11-14.7-15.82-18.81-4.82-41.57-15.61-51.45.87s-17.08,61.22-13,64.58,16.82,5.24,28.15,7.85c11.33,2.6,38.14,11.21,43.9,13.73,5.76,2.52,14.11,8.96,19.12-6.1,5.01-15.07,25.66-56.65,27.97-60.95,0,0-23.53-42.15-71.29-42.32-47.76-.17-59.97,16.99-59.72,20.38.24,3.38.62,33.56-24.14,99.27,0,0,61.7,12.83,73.44,17.72,11.74,4.89,45.09,25.81,58.09,7.09,12.99-18.72,16.03-20.62,17.09-15.11,1.06,5.51-4.44,47.84-13.5,70.12s7.35,84.95,40.28,98.74l22.82-.89Z"/><path class="cls-14" d="m996.47,462.3c-1.29-1.39-3.17-1.96-4.91-2.41-1.16-.27-2.32-.47-3.48-.6-2.9-.36-5.9-.4-8.81.05-4,.69-8.68,2.4-10.32,6.47-1.28,3.73,1.92,5.98,5.32,6.17,2.38.18,4.96.13,7.05-1.24,1.63-1.07,2.5-3.09,2.24-5.01,0,0-.98.16-.98.16.23,4.65-4.68,5.25-8.2,4.78-6.79-.88-4.47-6.31.48-8.28,5.01-2.1,11.03-1.7,16.22-.46,1.43.4,2.8.84,3.75,1.84.21.25.29.47.31.7.07.45-.23,1.26-.78,2.04-2.6,3.47-6.46,5.88-10.12,8.23-2.85,1.79-5.97,3.47-8.95,5.03-3.14,1.69-6.56,3.6-9.79,5.82-2-2.61-4.65-4.7-8.05-5.93-12.8-4.66-27.82,3.65-38.11,12.17,1.56-4.1.91-8.88-1.51-12.9-1.12-1.82-2.49-3.6-4.35-4.72-4.66-2.61-10.23-1.59-15.01-.03-6.6,2.38-12.58,6.22-17.9,10.88-5.65-8.13-8.34-18.85-8.73-28.59-.09-3.78.19-7.38.55-11.23,1.62-14.52,1.68-26.33-5.73-39.81-1.97-3.67-4.39-7.19-6.93-10.48-1.79-2.23-3.71-4.61-5.71-6.64-3-3.08-6.48-5.47-10.23-7.23-.72-1.8-1.56-3.55-2.46-5.21-1.94-3.56-4.11-6.73-6.56-9.86-.74-.96-1.64-1.97-2.53-2.82-2.48-2.38-5.49-4.31-8.51-5.84-24.9-12.1-67.89-10.02-79.64,19.3-3.22,8.05-3.48,16.81-2.11,25.19.23,1.67.76,3.91,1.08,5.55.54,2.46.92,5.04,1.13,7.46.01.16.02.33.03.5-5.58,3.14-10.88,7.29-12.72,12.43-1.46,3.98.2,8.15,3.97,9.98,4.62,2.37,10.48.6,13.74-3.21,3.09-3.64,4.46-8.22,4.84-13.05,1.13-.51,2.27-.98,3.4-1.44,16.4-6.76,34.08-8.94,50.88-2.27,14.09,5.44,26.12,16.54,36.52,27.61,1.23,1.39,2.36,2.9,3.37,4.47.46.66,1.06,1.76,1.48,2.45,0,0,.67,1.28.67,1.28.18.31.5.98.64,1.3,0,0,.61,1.32.61,1.32,0,0,.55,1.36.55,1.36,1.98,4.98,3.11,10.35,3.35,15.7.45,10.33-2.65,20.69-10.29,27.93-.32.28-1.22,1.1-1.53,1.37-.84.64-1.87,1.5-2.77,2.05-.69.47-1.67,1.1-2.42,1.51-1.13.68-2.57,1.4-3.78,1.92-1.24.55-2.45.99-3.63,1.32-3.96-5.47-8.68-10.51-14.82-13.48-2.25-1.01-4.68-1.72-7.2-1.47-2.79.24-5.56,2.18-5.28,5.31.7,5.62,4.79,11.71,9.17,15.18,4.12,3.33,8.9,4.76,13.8,4.72.57.94,1.31,2.08,1.66,3.1,3.01,8.22-1.14,17.83-6.13,24.58-8.05,10.85-21.37,18.14-35.03,17.22-9.1-.5-17.71-4.42-25.03-9.75-2.95-2.22-5.93-4.47-8.69-6.9-.6-.55-1.84-1.6-2.45-2.15-1.07-1.03-2.46-2.3-3.49-3.35-10.68-10.75-18.26-23.57-17.06-39.11.52-6.95,2.52-13.52,4.82-20.1.43-1.21,1.14-3.36,1.62-4.62.73-1.82,1.79-3.34,3.27-4.86,5.27-5.1,13.67-8.31,22.67-9.85,2.02,6.01,5.37,11.54,9.35,16.54-2.38,2.46-4.52,5.14-6.35,8.08-1.23,1.99-2.28,4.13-3.08,6.33,0,0-.59,1.67-.59,1.67,0,0-.46,1.71-.46,1.71l-.22.85-.16.87-.31,1.74s-.17,1.76-.17,1.76c-1.36,13.72,7.35,23.73,19.86,27.97,6.26,2.25,18.88,3.98,24-1.21.86-.96,1.3-2.17,1.61-3.38,1.09-4.69-.24-9.58-1.91-13.95-3.53-8.69-9.19-16.47-16.19-22.69-3.56-2.95-6.84-6.14-9.82-9.67-.54-.65-1.09-1.33-1.62-2.01,5.68-5.2,12.51-9.44,19.19-12.65,5.49,1.72,11.02,3.77,16.51,5.66,4.85,1.62,9.73,3.36,15.02,3.75,4.46.34,9.17-1.16,11.48-5.32,2.57-4.39,1.1-8.79-1.46-12.46-3.2-4.5-6.87-7.69-10.98-10.99-13.76-10.8-43.77-26.98-58.54-10.84-5.46,5.73-7.83,13.3-6.84,21.07-12.61,2.08-25.18,7.2-30.67,17.3-.39.76-.81,1.67-1.09,2.49-1.21,3.46-2.66,7.2-3.71,10.7-1.32,4.17-2.35,8.49-2.93,12.83-2.72,20.41,6.89,37.05,21.22,50.74,1.1,1.1,2.71,2.51,3.87,3.55,5.75,4.96,11.71,9.72,18.5,13.22,17.53,9.21,37.61,7.58,53.22-4.67,11.67-9.13,21.37-24.65,18.46-39.94-.27-1.17-.58-2.34-1.03-3.46-.21-.56-.44-1.11-.7-1.65.17-.06.34-.13.51-.19,2.17-.82,4.38-1.9,6.39-3.06.92-.53,2.15-1.24,3.01-1.86.85-.52,2.09-1.47,2.87-2.09,5.12-4.02,9.25-9.33,11.94-15.25.45-.88.99-2.37,1.36-3.28.57-1.6,1.11-3.44,1.52-5.1,3.08-13.23.8-27.5-5.66-39.39-.85-1.48-1.82-3.13-2.8-4.51-.93-1.32-1.95-2.61-2.99-3.86-9.3-9.97-19.43-19.59-31.37-26.27,5.52-.13,11.01-1.08,16.03-4.07,5.4-3.23,8.78-9.09,8.97-15.38,0-.17,0-.34,0-.51,1.42,1.19,2.75,2.54,3.97,4.06,1.08,1.22,2.28,2.7,3.28,3.99,5.23,6.72,9.43,14.48,10.79,22.96,1.95,11.48-1.37,23-.51,34.59.86,11.24,4.26,22.99,11.1,32.09-3.01,3.23-5.76,6.68-8.24,10.2-4.38,6.37-9.22,14.87-8.62,22.84.22,3.09,1.66,6.16,4.19,8.01,2.44,1.85,5.58,2.57,8.59,2.71,17.81.48,30.11-12.15,39.94-25.42,1.2-1.56,2.98-4,4.21-5.49,8.01-9.48,21.71-19.9,34.43-20.58,4.43-.17,9.03,1.22,12.07,4.55.21.23.41.47.6.72-4.21,3.4-7.78,7.45-9.51,12.4-1.22,3.69-.97,7.84.65,11.38,1.61,3.57,4.6,8.15,9.38,7.31,5.14-1.16,6.95-7.71,7.62-12.2.88-6.23.11-13.32-2.97-18.88,2.24-1.61,4.5-3.02,6.47-4.2,4.74-2.85,28.66-14.79,22.81-21.68Zm-216.51,26.49c1.69,1.65,3.6,3.21,5.42,4.72,6.53,5.57,12.03,12.84,15.42,20.77,1.19,2.9,2.11,5.85,2.21,8.91.04,1.08-.05,2.24-.37,3.27-.1.39-.36,1.03-.55,1.23-.38.46-1.11.91-1.75,1.17-8.97,3.37-22.67-.36-29.65-6.71-5.34-4.68-7.86-11.52-7.28-18.55.48-8.32,4.42-15.61,10.08-21.76,2.05,2.46,4.24,4.78,6.48,6.97Zm-4.14-11.75c-3.15-4.2-6.03-8.92-7.78-13.9,9.07-.93,18.26-.27,25.08,1.76.42.12.84.25,1.26.38-6.59,3.14-13.03,6.97-18.56,11.77Zm-9.17-27.44c.79-4.43,3.33-8.38,6.62-11.39,2.47-2.23,5.78-3.34,9.07-3.64,13.61-.93,29.95,8.5,40.38,16.76,2.94,2.35,13.08,11.02,10.89,14.97-1.89,4.04-8.82,1.86-12.2.95-13.27-3.96-26.04-10.8-40.09-11.55-4.44-.31-9.59-.27-14.91.28-.2-2.11-.14-4.24.23-6.38Zm43.5,54.23s-.01,0-.02,0c-.08,0-.06,0,.02,0Zm-56.44-92.96s-.06.02-.09.04c-.43-3.15-1.06-6.19-1.69-8.95-1.39-7.16-1.53-14.88,1.19-21.72,7.22-17.84,29.49-21.65,46.66-19.78,8.4,1,17.02,3.06,24.03,7.97.23.16.44.34.66.51l.33.26.31.27c.2.19.42.36.61.55,0,0,.58.58.58.58,1.89,2.23,3.67,4.6,5.24,7.1-5.95-.66-12.09-.03-17.86,1.79-5.79,1.87-11.38,4.61-15.6,9.36-4.16,4.67-5.07,10.71-2.3,15.51-14.16-1.83-28.47.88-42.1,6.51Zm69.08-7.23c-2.26.19-4.54.16-6.82.04-3.37-.24-6.79-.46-9.84-1.87-3.57-1.66-3.55-4.28-1.16-7.06,4.58-4.9,11.51-7.26,18.06-8.16,4.54-.59,9-.26,13.14.98,2.95,10.36-2.97,15.32-13.37,16.07Zm84.31,76.16c.35.02.65.03,1.01.09.86.16,1.37.28,1.89.72,1.9,1.91,3.21,4.98,2.7,7.6-.29,1.67-1.53,2.97-2.94,3.84-2.71,1.73-6.83,2.5-10.17,2.75-5.65.57-10.5-1.16-14.5-4.6,5.96-4.98,14.21-10.37,22-10.4Zm2.52,21.81c-.66.86-2.54,3.23-3.22,4.1-5.41,6.86-11.12,13.69-18.47,18.12-5.46,3.24-11.98,5.09-18.21,4.39-1.7-.27-3.57-.82-4.63-2.26-1.85-2.9-.52-7.32.7-10.51,1.7-4.27,4.36-8.44,7.13-12.16,1.99-2.67,4.14-5.23,6.44-7.65,6.18,5.5,13.96,7.92,22.69,6.58,3.06-.42,6.18-1.1,9.02-2.38-.5.58-.99,1.17-1.46,1.77Zm56.57,4.95c-.54,5.02-3.68,13.57-8.55,6.09-1.2-1.85-2.11-3.95-2.35-6.16-.62-6.09,3.46-11.39,8.45-15.64,2.51,4.7,3.04,10.48,2.44,15.71Z"/></g><path class="cls-4" d="m527.28,42.89c-120.28,53.55-235.03,97.49-223.72,227.3,11.31,129.81,415.38,158.51,508.91,65.28,93.54-93.23-55.45-394.86-285.2-292.58Z"/><path class="cls-14" d="m396.77,198.27v-2l1.91-.48c1.27-.38,2.1-.95,2.48-1.72.38-.76.57-1.81.57-3.15.06-3.62.1-7.3.1-11.02v-26.18c0-3.69-.03-7.37-.1-11.06,0-1.34-.21-2.37-.62-3.1-.41-.73-1.26-1.32-2.53-1.76l-1.81-.57v-2h22.98c9.28,0,16.04,1.73,20.27,5.2,4.23,3.47,6.34,8.03,6.34,13.69,0,3.56-.88,6.85-2.62,9.87-1.75,3.02-4.63,5.42-8.63,7.2-4.01,1.78-9.41,2.67-16.21,2.67h-3.43v8.25c0,2.83.03,5.71.1,8.63,0,2.61,1.18,4.2,3.53,4.77l2.86.76v2h-25.18Zm18.69-27.18h4.01c3.18,0,5.77-.49,7.77-1.48,2-.98,3.5-2.69,4.48-5.1.98-2.42,1.48-5.75,1.48-10.01s-.52-7.58-1.57-9.97c-1.05-2.38-2.62-4.07-4.72-5.05-2.1-.99-4.71-1.48-7.82-1.48h-3.53c-.06,4.39-.1,8.82-.1,13.3v19.79Z"/><path class="cls-14" d="m472.02,199.61c-4.71,0-8.82-.99-12.35-2.96-3.53-1.97-6.26-4.77-8.2-8.39-1.94-3.62-2.91-7.95-2.91-12.97s1.03-9.35,3.1-12.97c2.06-3.62,4.86-6.4,8.39-8.34,3.53-1.94,7.52-2.91,11.97-2.91s8.44.97,11.97,2.91c3.53,1.94,6.33,4.71,8.39,8.3,2.07,3.59,3.1,7.93,3.1,13.02s-.97,9.36-2.91,13.02c-1.94,3.66-4.66,6.45-8.15,8.39-3.5,1.94-7.63,2.91-12.4,2.91Zm0-2.67c2.29,0,4.15-.62,5.58-1.86,1.43-1.24,2.46-3.42,3.1-6.53.64-3.11.95-7.47.95-13.07s-.32-10.06-.95-13.21c-.64-3.15-1.67-5.34-3.1-6.58-1.43-1.24-3.29-1.86-5.58-1.86s-4.13.62-5.53,1.86c-1.4,1.24-2.43,3.43-3.1,6.58-.67,3.15-1,7.55-1,13.21s.33,9.95,1,13.07c.67,3.12,1.7,5.29,3.1,6.53,1.4,1.24,3.24,1.86,5.53,1.86Z"/><path class="cls-14" d="m517.32,199.61c-3.94,0-7.04-.97-9.3-2.91-2.26-1.94-3.39-5.1-3.39-9.49,0-1.53.02-2.97.05-4.34.03-1.37.05-2.97.05-4.82v-22.6h-6.77v-2.1l2.57-.38c1.84-.32,3.42-.89,4.72-1.72,1.3-.83,2.49-1.97,3.58-3.43l6.2-8.58h2.86l-.29,13.26h10.87v2.96h-10.97v32.52c0,2.29.49,4.01,1.48,5.15.98,1.14,2.21,1.72,3.67,1.72,1.27,0,2.42-.3,3.43-.91,1.02-.6,2.03-1.41,3.05-2.43l1.24,1.43c-1.21,2.1-2.89,3.74-5.05,4.91-2.16,1.18-4.83,1.76-8.01,1.76Z"/><path class="cls-14" d="m557.18,151.06c4.01,0,7.44.83,10.3,2.48,2.86,1.65,5.07,3.93,6.63,6.82,1.56,2.89,2.34,6.22,2.34,9.97,0,.83-.03,1.61-.1,2.34-.06.73-.19,1.42-.38,2.05h-28.71c.06,6.55,1.29,11.25,3.67,14.11,2.38,2.86,5.87,4.29,10.44,4.29,3.18,0,5.75-.52,7.72-1.57,1.97-1.05,3.78-2.53,5.44-4.43l1.53,1.43c-1.91,3.5-4.5,6.22-7.77,8.15-3.28,1.94-7.17,2.91-11.68,2.91s-8.49-.95-11.92-2.86c-3.43-1.91-6.12-4.66-8.06-8.25-1.94-3.59-2.91-7.9-2.91-12.92s1.13-9.63,3.39-13.26c2.26-3.62,5.18-6.4,8.77-8.34,3.59-1.94,7.36-2.91,11.3-2.91Zm-.48,2.77c-1.84,0-3.45.52-4.82,1.57-1.37,1.05-2.45,2.89-3.24,5.53-.8,2.64-1.26,6.34-1.38,11.11h17.07c.7-6.42.44-11.06-.76-13.92-1.21-2.86-3.5-4.29-6.87-4.29Z"/><path class="cls-14" d="m581.31,198.27v-1.81l1.53-.38c2.1-.63,3.15-2.19,3.15-4.67v-28.13c-.06-1.33-.29-2.37-.67-3.1-.38-.73-1.21-1.22-2.48-1.48l-1.53-.38v-1.72l15.45-5.53,1.14,1.05.67,5.91c2.29-2.03,4.85-3.7,7.68-5.01,2.83-1.3,5.61-1.96,8.34-1.96,4.2,0,7.42,1.14,9.68,3.43,2.26,2.29,3.39,5.79,3.39,10.49v26.51c0,2.48,1.14,4.04,3.43,4.67l1.05.29v1.81h-21.94v-1.81l1.43-.38c2.1-.7,3.15-2.26,3.15-4.67v-28.32c0-2.22-.48-3.85-1.43-4.86-.95-1.02-2.54-1.53-4.77-1.53-3.12,0-6.36,1.37-9.73,4.1v30.71c0,2.48,1.11,4.04,3.34,4.67l.95.29v1.81h-21.84Z"/><path class="cls-14" d="m653.51,199.61c-3.94,0-7.04-.97-9.3-2.91-2.26-1.94-3.39-5.1-3.39-9.49,0-1.53.02-2.97.05-4.34.03-1.37.05-2.97.05-4.82v-22.6h-6.77v-2.1l2.57-.38c1.84-.32,3.42-.89,4.72-1.72,1.3-.83,2.49-1.97,3.58-3.43l6.2-8.58h2.86l-.29,13.26h10.87v2.96h-10.97v32.52c0,2.29.49,4.01,1.48,5.15.98,1.14,2.21,1.72,3.67,1.72,1.27,0,2.42-.3,3.43-.91,1.02-.6,2.03-1.41,3.05-2.43l1.24,1.43c-1.21,2.1-2.89,3.74-5.05,4.91-2.16,1.18-4.83,1.76-8.01,1.76Z"/><path class="cls-14" d="m669.81,198.27v-1.81l1.43-.38c1.27-.38,2.13-.95,2.57-1.72.44-.76.7-1.78.76-3.05v-23.03c0-1.68-.03-3.42-.1-5.2,0-1.27-.24-2.27-.71-3-.48-.73-1.35-1.22-2.62-1.48l-1.33-.29v-1.72l16.69-5.53,1.14,1.05-.29,13.54v25.75c0,1.27.24,2.29.72,3.05.48.76,1.32,1.34,2.53,1.72l1.05.29v1.81h-21.84Zm10.97-52.45c-2.1,0-3.88-.67-5.34-2-1.46-1.33-2.19-3.02-2.19-5.05s.73-3.8,2.19-5.1c1.46-1.3,3.24-1.96,5.34-1.96s3.88.65,5.34,1.96c1.46,1.3,2.19,3,2.19,5.1s-.73,3.72-2.19,5.05c-1.46,1.34-3.24,2-5.34,2Z"/><path class="cls-14" d="m709.68,199.61c-3.62,0-6.69-1.03-9.2-3.1-2.51-2.07-3.77-5.04-3.77-8.92,0-3.05,1.48-5.87,4.44-8.44,2.96-2.57,7.61-4.47,13.97-5.67,1.08-.25,2.34-.49,3.77-.72,1.43-.22,2.84-.46,4.24-.72v-6.77c0-4.32-.54-7.31-1.62-8.96-1.08-1.65-2.8-2.48-5.15-2.48h-.29c-1.46,0-2.62.46-3.48,1.38-.86.92-1.42,2.43-1.67,4.53l-.29,1.24c-.19,2.54-.86,4.4-2,5.58-1.14,1.18-2.58,1.76-4.29,1.76-1.59,0-2.91-.49-3.96-1.48-1.05-.98-1.57-2.27-1.57-3.86,0-2.61.89-4.8,2.67-6.58s4.15-3.11,7.1-4.01c2.96-.89,6.15-1.34,9.58-1.34,5.66,0,9.98,1.37,12.97,4.1,2.99,2.73,4.48,7.19,4.48,13.35v21.27c0,2.73,1.3,4.1,3.91,4.1h2.19l.95,1.05c-1.14,1.46-2.42,2.59-3.81,3.39-1.4.79-3.31,1.19-5.72,1.19-2.73,0-4.91-.65-6.53-1.96s-2.69-3.04-3.19-5.2c-2.04,2.16-4.04,3.91-6.01,5.25-1.97,1.33-4.55,2-7.73,2Zm5.53-6.1c1.27,0,2.48-.29,3.62-.86s2.57-1.53,4.29-2.86v-15.26c-1.65.25-3.34.57-5.05.95-2.73.64-4.94,1.81-6.63,3.53-1.69,1.72-2.53,4.04-2.53,6.96,0,2.54.59,4.43,1.76,5.67,1.18,1.24,2.69,1.86,4.53,1.86Z"/><path class="cls-14" d="m745.06,198.27v-1.81l1.43-.38c2.1-.7,3.15-2.29,3.15-4.77,0-2.16.02-4.34.05-6.53.03-2.19.05-4.37.05-6.53v-36.24c0-1.33-.22-2.34-.67-3-.45-.67-1.3-1.16-2.58-1.48l-1.43-.38v-1.81l16.69-4.01,1.24.86-.38,13.45v45.68c.06,1.27.33,2.31.81,3.1.48.8,1.32,1.35,2.53,1.67l1.33.38v1.81h-22.22Z"/><path class="cls-14" d="m399.25,288.42v-2l1.91-.67c2.03-.63,3.05-2.22,3.05-4.77.06-3.62.1-7.33.1-11.11v-25.99c0-3.69-.03-7.37-.1-11.06,0-2.61-.99-4.23-2.96-4.86l-2-.57v-2h25.08c6.68,0,12.43,1.24,17.26,3.72,4.83,2.48,8.55,6.06,11.16,10.73,2.61,4.67,3.91,10.32,3.91,16.93s-1.42,12.46-4.24,17.17c-2.83,4.71-6.8,8.3-11.92,10.78-5.12,2.48-11.08,3.72-17.88,3.72h-23.37Zm18.79-2.77h4.86c4.51,0,8.19-.89,11.02-2.67,2.83-1.78,4.91-4.78,6.25-9.01,1.33-4.23,2-9.93,2-17.12s-.67-12.87-2-17.07c-1.34-4.2-3.39-7.18-6.15-8.96-2.77-1.78-6.34-2.67-10.73-2.67h-5.25c-.06,4.39-.1,8.82-.1,13.3v30.71c0,4.55.03,9.04.1,13.49Z"/><path class="cls-14" d="m460.67,288.42v-1.81l1.43-.48c1.27-.32,2.15-.86,2.62-1.62.48-.76.71-1.78.71-3.05v-27.94c-.06-1.4-.32-2.46-.76-3.19-.45-.73-1.3-1.22-2.58-1.48l-1.43-.38v-1.72l15.54-5.53,1.14,1.05.86,8.39v.67c.95-1.78,2.16-3.43,3.62-4.96,1.46-1.53,3.05-2.77,4.77-3.72,1.72-.95,3.43-1.43,5.15-1.43,2.42,0,4.23.64,5.44,1.91,1.21,1.27,1.81,2.89,1.81,4.86,0,2.16-.6,3.8-1.81,4.91-1.21,1.11-2.67,1.67-4.39,1.67-2.54,0-4.74-1.14-6.58-3.43l-.19-.19c-.64-.76-1.35-1.19-2.15-1.29-.8-.1-1.57.3-2.34,1.19-.64.64-1.23,1.38-1.76,2.24-.54.86-1.03,1.86-1.48,3v24.99c0,1.21.25,2.21.76,3,.51.8,1.37,1.35,2.57,1.67l2.86.86v1.81h-23.84Z"/><path class="cls-14" d="m524.57,241.21c4.01,0,7.44.83,10.3,2.48,2.86,1.65,5.07,3.93,6.63,6.82,1.56,2.89,2.34,6.22,2.34,9.97,0,.83-.03,1.61-.1,2.34-.06.73-.19,1.42-.38,2.05h-28.71c.06,6.55,1.29,11.25,3.67,14.11,2.38,2.86,5.87,4.29,10.44,4.29,3.18,0,5.75-.52,7.72-1.57,1.97-1.05,3.78-2.53,5.44-4.43l1.53,1.43c-1.91,3.5-4.5,6.22-7.77,8.15-3.28,1.94-7.17,2.91-11.68,2.91s-8.49-.95-11.92-2.86c-3.43-1.91-6.12-4.66-8.06-8.25-1.94-3.59-2.91-7.9-2.91-12.92s1.13-9.63,3.39-13.26c2.26-3.62,5.18-6.4,8.77-8.34,3.59-1.94,7.36-2.91,11.3-2.91Zm-.48,2.77c-1.84,0-3.45.52-4.82,1.57-1.37,1.05-2.45,2.89-3.24,5.53-.8,2.64-1.26,6.34-1.38,11.11h17.07c.7-6.42.44-11.06-.76-13.92-1.21-2.86-3.5-4.29-6.87-4.29Z"/><path class="cls-14" d="m562.05,289.75c-3.62,0-6.69-1.03-9.2-3.1-2.51-2.07-3.77-5.04-3.77-8.92,0-3.05,1.48-5.87,4.44-8.44,2.96-2.57,7.61-4.47,13.97-5.67,1.08-.25,2.34-.49,3.77-.72,1.43-.22,2.84-.46,4.24-.72v-6.77c0-4.32-.54-7.31-1.62-8.96-1.08-1.65-2.8-2.48-5.15-2.48h-.29c-1.46,0-2.62.46-3.48,1.38-.86.92-1.42,2.43-1.67,4.53l-.29,1.24c-.19,2.54-.86,4.4-2,5.58-1.14,1.18-2.58,1.76-4.29,1.76-1.59,0-2.91-.49-3.96-1.48-1.05-.98-1.57-2.27-1.57-3.86,0-2.61.89-4.8,2.67-6.58s4.15-3.11,7.1-4.01c2.96-.89,6.15-1.34,9.58-1.34,5.66,0,9.98,1.37,12.97,4.1,2.99,2.73,4.48,7.19,4.48,13.35v21.27c0,2.73,1.3,4.1,3.91,4.1h2.19l.95,1.05c-1.14,1.46-2.42,2.59-3.81,3.39-1.4.79-3.31,1.19-5.72,1.19-2.73,0-4.91-.65-6.53-1.96s-2.69-3.04-3.19-5.2c-2.04,2.16-4.04,3.91-6.01,5.25-1.97,1.33-4.55,2-7.73,2Zm5.53-6.1c1.27,0,2.48-.29,3.62-.86s2.57-1.53,4.29-2.86v-15.26c-1.65.25-3.34.57-5.05.95-2.73.64-4.94,1.81-6.63,3.53-1.69,1.72-2.53,4.04-2.53,6.96,0,2.54.59,4.43,1.76,5.67,1.18,1.24,2.69,1.86,4.53,1.86Z"/><path class="cls-14" d="m596.95,288.42v-1.91l2.1-.57c1.02-.32,1.68-.78,2-1.38.32-.6.51-1.41.57-2.43v-24.22c0-1.46-.03-3.18-.1-5.15,0-1.08-.16-1.92-.48-2.53-.32-.6-1.02-1.03-2.1-1.29l-2-.48v-1.72l15.45-5.53,1.14,1.05.67,6.39c2.22-2.03,4.7-3.78,7.44-5.25,2.73-1.46,5.53-2.19,8.39-2.19,3.18,0,5.66.64,7.44,1.91,1.78,1.27,3.15,3.21,4.1,5.82,2.42-2.42,5.09-4.31,8.01-5.67,2.92-1.37,5.82-2.05,8.68-2.05,4.32,0,7.57,1.08,9.73,3.24,2.16,2.16,3.24,5.56,3.24,10.2v27.56c0,2.04.89,3.31,2.67,3.81l1.81.48v1.91h-21.46v-1.91l1.72-.48c1.72-.57,2.58-1.87,2.58-3.91v-27.94c0-2.73-.49-4.59-1.48-5.58-.99-.98-2.59-1.48-4.82-1.48-1.72,0-3.34.35-4.86,1.05-1.53.7-3.21,1.78-5.05,3.24.38,1.91.57,4.1.57,6.58v24.22c.06,1.08.27,1.92.62,2.53.35.6,1.03,1.03,2.05,1.29l1.62.48v1.91h-21.55v-1.91l2-.57c1.02-.32,1.7-.78,2.05-1.38.35-.6.52-1.41.52-2.43v-27.85c0-2.61-.48-4.45-1.43-5.53-.95-1.08-2.57-1.62-4.86-1.62-2.93,0-6.07,1.4-9.44,4.2v30.9c0,2.1.89,3.37,2.67,3.81l1.62.48v1.91h-21.84Z"/><path class="cls-14" d="m703.48,241.21c4.01,0,7.44.83,10.3,2.48,2.86,1.65,5.07,3.93,6.63,6.82,1.56,2.89,2.34,6.22,2.34,9.97,0,.83-.03,1.61-.1,2.34-.06.73-.19,1.42-.38,2.05h-28.71c.06,6.55,1.29,11.25,3.67,14.11,2.38,2.86,5.87,4.29,10.44,4.29,3.18,0,5.75-.52,7.72-1.57,1.97-1.05,3.78-2.53,5.44-4.43l1.53,1.43c-1.91,3.5-4.5,6.22-7.77,8.15-3.28,1.94-7.17,2.91-11.68,2.91s-8.49-.95-11.92-2.86c-3.43-1.91-6.12-4.66-8.06-8.25-1.94-3.59-2.91-7.9-2.91-12.92s1.13-9.63,3.39-13.26c2.26-3.62,5.18-6.4,8.77-8.34,3.59-1.94,7.36-2.91,11.3-2.91Zm-.48,2.77c-1.84,0-3.45.52-4.82,1.57-1.37,1.05-2.45,2.89-3.24,5.53-.8,2.64-1.26,6.34-1.38,11.11h17.07c.7-6.42.44-11.06-.76-13.92-1.21-2.86-3.5-4.29-6.87-4.29Z"/><path class="cls-14" d="m727.61,288.42v-1.81l1.43-.48c1.27-.32,2.15-.86,2.62-1.62.48-.76.71-1.78.71-3.05v-27.94c-.06-1.4-.32-2.46-.76-3.19-.45-.73-1.3-1.22-2.58-1.48l-1.43-.38v-1.72l15.54-5.53,1.14,1.05.86,8.39v.67c.95-1.78,2.16-3.43,3.62-4.96,1.46-1.53,3.05-2.77,4.77-3.72,1.72-.95,3.43-1.43,5.15-1.43,2.42,0,4.23.64,5.44,1.91,1.21,1.27,1.81,2.89,1.81,4.86,0,2.16-.6,3.8-1.81,4.91-1.21,1.11-2.67,1.67-4.39,1.67-2.54,0-4.74-1.14-6.58-3.43l-.19-.19c-.64-.76-1.35-1.19-2.15-1.29-.8-.1-1.57.3-2.34,1.19-.64.64-1.23,1.38-1.76,2.24-.54.86-1.03,1.86-1.48,3v24.99c0,1.21.25,2.21.76,3,.51.8,1.37,1.35,2.57,1.67l2.86.86v1.81h-23.84Z"/><path class="cls-12" d="m527.28,42.89c-120.28,53.55-235.03,97.49-223.72,227.3,11.31,129.81,415.38,158.51,508.91,65.28,93.54-93.23-55.45-394.86-285.2-292.58Z"/><path class="cls-14" d="m472.88,199.89c-6.17,0-11.73-1.27-16.69-3.81-4.96-2.54-8.89-6.29-11.78-11.25-2.89-4.96-4.34-11-4.34-18.12,0-5.34.87-10.08,2.62-14.21,1.75-4.13,4.16-7.61,7.25-10.44,3.08-2.83,6.63-4.96,10.63-6.39,4.01-1.43,8.26-2.15,12.78-2.15,3.5,0,6.77.4,9.82,1.19,3.05.8,5.98,1.96,8.77,3.48l.38,12.49h-2.58l-4.01-7.53c-.64-1.27-1.32-2.42-2.05-3.43-.73-1.02-1.67-1.75-2.81-2.19-1.59-.76-3.47-1.14-5.63-1.14-3.75,0-7.17.95-10.25,2.86-3.08,1.91-5.55,5.07-7.39,9.49-1.84,4.42-2.77,10.44-2.77,18.07s.87,13.58,2.62,18.02c1.75,4.45,4.12,7.61,7.1,9.49,2.99,1.88,6.36,2.81,10.11,2.81,1.72,0,3.11-.13,4.2-.38,1.08-.25,2.16-.6,3.24-1.05,1.27-.51,2.26-1.25,2.96-2.24.7-.99,1.3-2.11,1.81-3.39l3.62-8.68h2.57l-.38,13.73c-2.73,1.53-5.75,2.7-9.06,3.53-3.31.83-6.9,1.24-10.78,1.24Z"/><path class="cls-14" d="m497.77,198.27v-1.81l1.43-.38c2.1-.7,3.15-2.29,3.15-4.77,0-2.16.02-4.34.05-6.53.03-2.19.05-4.37.05-6.53v-36.24c0-1.33-.22-2.34-.67-3-.45-.67-1.3-1.16-2.58-1.48l-1.43-.38v-1.81l16.69-4.01,1.24.86-.38,13.45v45.68c.06,1.27.33,2.31.81,3.1.48.8,1.32,1.35,2.53,1.67l1.33.38v1.81h-22.22Z"/><path class="cls-14" d="m537.16,199.61c-3.62,0-6.69-1.03-9.2-3.1-2.51-2.07-3.77-5.04-3.77-8.92,0-3.05,1.48-5.87,4.44-8.44,2.96-2.57,7.61-4.47,13.97-5.67,1.08-.25,2.34-.49,3.77-.72,1.43-.22,2.84-.46,4.24-.72v-6.77c0-4.32-.54-7.31-1.62-8.96-1.08-1.65-2.8-2.48-5.15-2.48h-.29c-1.46,0-2.62.46-3.48,1.38-.86.92-1.42,2.43-1.67,4.53l-.29,1.24c-.19,2.54-.86,4.4-2,5.58-1.14,1.18-2.58,1.76-4.29,1.76-1.59,0-2.91-.49-3.96-1.48-1.05-.98-1.57-2.27-1.57-3.86,0-2.61.89-4.8,2.67-6.58s4.15-3.11,7.1-4.01c2.96-.89,6.15-1.34,9.58-1.34,5.66,0,9.98,1.37,12.97,4.1,2.99,2.73,4.48,7.19,4.48,13.35v21.27c0,2.73,1.3,4.1,3.91,4.1h2.19l.95,1.05c-1.14,1.46-2.42,2.59-3.81,3.39-1.4.79-3.31,1.19-5.72,1.19-2.73,0-4.91-.65-6.53-1.96s-2.69-3.04-3.19-5.2c-2.04,2.16-4.04,3.91-6.01,5.25-1.97,1.33-4.55,2-7.73,2Zm5.53-6.1c1.27,0,2.48-.29,3.62-.86s2.57-1.53,4.29-2.86v-15.26c-1.65.25-3.34.57-5.05.95-2.73.64-4.94,1.81-6.63,3.53-1.69,1.72-2.53,4.04-2.53,6.96,0,2.54.59,4.43,1.76,5.67,1.18,1.24,2.69,1.86,4.53,1.86Z"/><path class="cls-14" d="m588.85,199.61c-3.05,0-5.8-.33-8.25-1-2.45-.67-4.78-1.6-7.01-2.81v-11.25h2.57l2.86,5.44c1.21,2.35,2.59,4.1,4.15,5.25,1.56,1.14,3.54,1.72,5.96,1.72,2.99,0,5.37-.65,7.15-1.96,1.78-1.3,2.67-3.07,2.67-5.29,0-2.03-.67-3.69-2-4.96-1.33-1.27-3.72-2.45-7.15-3.53l-4.2-1.33c-3.75-1.14-6.72-2.88-8.92-5.2-2.19-2.32-3.29-5.23-3.29-8.73,0-2.73.73-5.23,2.19-7.49,1.46-2.26,3.59-4.05,6.39-5.39,2.8-1.33,6.2-2,10.2-2,2.61,0,5.01.3,7.2.91,2.19.6,4.34,1.45,6.44,2.53l-.57,10.2h-2.48l-2.96-5.44c-1.02-2.03-2.05-3.45-3.1-4.24-1.05-.79-2.66-1.19-4.82-1.19-2.29,0-4.31.59-6.06,1.76-1.75,1.18-2.62,2.81-2.62,4.91,0,1.97.73,3.58,2.19,4.82,1.46,1.24,3.81,2.4,7.06,3.48l4.1,1.24c4.64,1.46,7.95,3.4,9.92,5.82,1.97,2.42,2.96,5.31,2.96,8.68,0,4.52-1.8,8.15-5.39,10.92-3.59,2.77-8.66,4.15-15.21,4.15Z"/><path class="cls-14" d="m630.33,199.61c-3.05,0-5.8-.33-8.25-1-2.45-.67-4.78-1.6-7.01-2.81v-11.25h2.57l2.86,5.44c1.21,2.35,2.59,4.1,4.15,5.25,1.56,1.14,3.54,1.72,5.96,1.72,2.99,0,5.37-.65,7.15-1.96,1.78-1.3,2.67-3.07,2.67-5.29,0-2.03-.67-3.69-2-4.96-1.33-1.27-3.72-2.45-7.15-3.53l-4.2-1.33c-3.75-1.14-6.72-2.88-8.92-5.2-2.19-2.32-3.29-5.23-3.29-8.73,0-2.73.73-5.23,2.19-7.49,1.46-2.26,3.59-4.05,6.39-5.39,2.8-1.33,6.2-2,10.2-2,2.61,0,5.01.3,7.2.91,2.19.6,4.34,1.45,6.44,2.53l-.57,10.2h-2.48l-2.96-5.44c-1.02-2.03-2.05-3.45-3.1-4.24-1.05-.79-2.66-1.19-4.82-1.19-2.29,0-4.31.59-6.06,1.76-1.75,1.18-2.62,2.81-2.62,4.91,0,1.97.73,3.58,2.19,4.82,1.46,1.24,3.81,2.4,7.06,3.48l4.1,1.24c4.64,1.46,7.95,3.4,9.92,5.82,1.97,2.42,2.96,5.31,2.96,8.68,0,4.52-1.8,8.15-5.39,10.92-3.59,2.77-8.66,4.15-15.21,4.15Z"/><path class="cls-14" d="m655.22,198.27v-1.81l1.43-.38c1.27-.38,2.13-.95,2.57-1.72.44-.76.7-1.78.76-3.05v-23.03c0-1.68-.03-3.42-.1-5.2,0-1.27-.24-2.27-.71-3-.48-.73-1.35-1.22-2.62-1.48l-1.33-.29v-1.72l16.69-5.53,1.14,1.05-.29,13.54v25.75c0,1.27.24,2.29.72,3.05.48.76,1.32,1.34,2.53,1.72l1.05.29v1.81h-21.84Zm10.97-52.45c-2.1,0-3.88-.67-5.34-2-1.46-1.33-2.19-3.02-2.19-5.05s.73-3.8,2.19-5.1c1.46-1.3,3.24-1.96,5.34-1.96s3.88.65,5.34,1.96c1.46,1.3,2.19,3,2.19,5.1s-.73,3.72-2.19,5.05c-1.46,1.34-3.24,2-5.34,2Z"/><path class="cls-14" d="m704.62,199.61c-4.32,0-8.23-.94-11.73-2.81-3.5-1.88-6.25-4.61-8.25-8.2-2-3.59-3-7.96-3-13.11s1.11-9.54,3.34-13.16c2.22-3.62,5.2-6.4,8.92-8.34,3.72-1.94,7.8-2.91,12.25-2.91,3.62,0,6.71.61,9.25,1.81,2.54,1.21,4.48,2.75,5.82,4.63,1.34,1.88,2,3.86,2,5.96,0,1.78-.52,3.15-1.57,4.1-1.05.95-2.4,1.43-4.05,1.43-1.78,0-3.23-.63-4.34-1.91-1.11-1.27-1.76-2.89-1.96-4.86-.06-1.27-.05-2.35.05-3.24.1-.89.08-1.75-.05-2.58-.25-1.08-.68-1.81-1.29-2.19-.6-.38-1.45-.57-2.53-.57-4.01,0-7.07,1.61-9.2,4.82-2.13,3.21-3.2,8.41-3.2,15.59,0,6.17,1.18,10.9,3.53,14.21,2.35,3.31,6.01,4.96,10.97,4.96,2.92,0,5.34-.56,7.25-1.67,1.91-1.11,3.66-2.72,5.25-4.82l1.53,1.14c-1.59,3.81-4.02,6.72-7.3,8.73-3.28,2-7.17,3-11.68,3Z"/><path class="cls-14" d="m476.43,247.41c0,7.06-1.32,12.54-3.96,16.45-2.64,3.91-6.34,6.63-11.11,8.15s-10.33,2.29-16.69,2.29h-13.92v-53.69h13.92c6.36,0,11.92,1,16.69,3,4.77,2,8.47,4.98,11.11,8.92,2.64,3.94,3.96,8.9,3.96,14.88Zm-41.29,23.08h10.3c5.28,0,9.9-.6,13.88-1.81,3.97-1.21,7.06-3.46,9.25-6.77,2.19-3.31,3.29-8.14,3.29-14.5,0-5.21-1.1-9.52-3.29-12.92-2.19-3.4-5.28-5.91-9.25-7.53-3.97-1.62-8.6-2.43-13.88-2.43h-10.3v45.97Z"/><path class="cls-14" d="m484.34,274.3v-38.72h3.72l.57,9.92c.63-2.73,2.13-5.07,4.48-7.01,2.35-1.94,5.66-2.91,9.92-2.91h2.1v4.86h-2.1c-4.32,0-7.5.68-9.54,2.05-2.04,1.37-3.35,3.19-3.96,5.48-.6,2.29-.91,4.83-.91,7.63v18.69h-4.29Z"/><path class="cls-14" d="m526.69,275.25c-4.13,0-7.55-.98-10.25-2.96-2.7-1.97-4.72-4.5-6.06-7.58-1.33-3.08-1.97-6.28-1.91-9.58,0-3.43.7-6.64,2.1-9.63,1.4-2.99,3.45-5.39,6.15-7.2,2.7-1.81,5.99-2.72,9.87-2.72,4.83,0,8.82,1.57,11.97,4.72,3.15,3.15,4.91,7.36,5.29,12.64.06.32.1,1.02.1,2.1h-31.28c0,5.09,1.21,9.09,3.62,12.02,2.42,2.93,5.88,4.39,10.4,4.39,3.24,0,6.06-.86,8.44-2.58s3.86-4.04,4.43-6.96h4.29c-.76,3.94-2.69,7.15-5.77,9.63-3.08,2.48-6.88,3.72-11.4,3.72Zm-13.73-22.79h26.51c-.06-1.65-.52-3.5-1.38-5.53-.86-2.03-2.23-3.81-4.1-5.34-1.88-1.53-4.34-2.29-7.39-2.29-4.2,0-7.41,1.3-9.63,3.91-2.23,2.61-3.56,5.69-4.01,9.25Z"/><path class="cls-14" d="m565.6,275.25c-3.56,0-6.52-.91-8.87-2.72-2.35-1.81-4.1-4.23-5.25-7.25-1.14-3.02-1.72-6.37-1.72-10.06s.59-7.23,1.76-10.25c1.18-3.02,2.94-5.34,5.29-6.96,2.35-1.62,5.28-2.43,8.77-2.43,3.75,0,6.74.84,8.96,2.53,2.22,1.69,3.81,3.88,4.77,6.57l.19-.52v-8.58h4.39v38.72h-3.62l-.76-7.84-.19-.17c-1.02,2.35-2.64,4.44-4.86,6.25-2.23,1.81-5.18,2.72-8.87,2.72Zm1.62-4.01c4.07,0,7.12-1.41,9.16-4.24,2.03-2.83,3.05-6.72,3.05-11.68,0-5.28-1.07-9.19-3.19-11.73-2.13-2.54-5.14-3.81-9.01-3.81-4.52,0-7.82,1.45-9.92,4.34-2.1,2.89-3.15,6.6-3.15,11.11s1.08,8.55,3.24,11.54c2.16,2.99,5.44,4.48,9.82,4.48Z"/><path class="cls-14" d="m591.25,274.3v-38.72h3.62l.38,10.3h.19c.19-.57.52-1.41,1-2.53.48-1.11,1.19-2.26,2.15-3.43.95-1.18,2.22-2.19,3.81-3.05,1.59-.86,3.56-1.29,5.91-1.29,2.54,0,4.59.49,6.15,1.48,1.56.99,2.78,2.27,3.67,3.86.89,1.59,1.53,3.24,1.91,4.96h.19c.19-.57.56-1.41,1.1-2.53.54-1.11,1.33-2.26,2.38-3.43,1.05-1.18,2.4-2.19,4.05-3.05,1.65-.86,3.66-1.29,6.01-1.29,2.54,0,4.61.51,6.2,1.53,1.59,1.02,2.83,2.31,3.72,3.86.89,1.56,1.53,3.23,1.91,5.01.38,1.78.6,3.48.67,5.1.06,1.62.1,2.97.1,4.05v19.17h-3.91v-19.26c0-1.08-.05-2.46-.14-4.15-.1-1.68-.45-3.4-1.05-5.15-.6-1.75-1.57-3.21-2.91-4.39-1.34-1.18-3.24-1.76-5.72-1.76-2.73,0-4.96.76-6.68,2.29-1.72,1.53-3,3.53-3.86,6.01-.86,2.48-1.29,5.18-1.29,8.11v18.31h-3.91v-19.26c0-1.08-.05-2.46-.14-4.15-.1-1.68-.45-3.4-1.05-5.15-.6-1.75-1.57-3.21-2.91-4.39-1.34-1.18-3.24-1.76-5.72-1.76-2.73,0-4.96.76-6.68,2.29-1.72,1.53-3,3.53-3.86,6.01-.86,2.48-1.29,5.18-1.29,8.11v18.31h-4.01Z"/><path class="cls-14" d="m671.55,275.25c-4.13,0-7.55-.98-10.25-2.96-2.7-1.97-4.72-4.5-6.06-7.58-1.33-3.08-1.97-6.28-1.91-9.58,0-3.43.7-6.64,2.1-9.63,1.4-2.99,3.45-5.39,6.15-7.2,2.7-1.81,5.99-2.72,9.87-2.72,4.83,0,8.82,1.57,11.97,4.72,3.15,3.15,4.91,7.36,5.29,12.64.06.32.1,1.02.1,2.1h-31.28c0,5.09,1.21,9.09,3.62,12.02,2.42,2.93,5.88,4.39,10.4,4.39,3.24,0,6.06-.86,8.44-2.58s3.86-4.04,4.43-6.96h4.29c-.76,3.94-2.69,7.15-5.77,9.63-3.08,2.48-6.88,3.72-11.4,3.72Zm-13.73-22.79h26.51c-.06-1.65-.52-3.5-1.38-5.53-.86-2.03-2.23-3.81-4.1-5.34-1.88-1.53-4.34-2.29-7.39-2.29-4.2,0-7.41,1.3-9.63,3.91-2.23,2.61-3.56,5.69-4.01,9.25Z"/><path class="cls-14" d="m697.97,274.3v-38.72h3.72l.57,9.92c.63-2.73,2.13-5.07,4.48-7.01,2.35-1.94,5.66-2.91,9.92-2.91h2.1v4.86h-2.1c-4.32,0-7.5.68-9.54,2.05-2.04,1.37-3.35,3.19-3.96,5.48-.6,2.29-.91,4.83-.91,7.63v18.69h-4.29Z"/></svg>