<?xml version="1.0" encoding="UTF-8"?><svg id="Capa_2" xmlns="http://www.w3.org/2000/svg" xmlns:xlink="http://www.w3.org/1999/xlink" viewBox="0 0 1080 1434.5"><defs><style>.cls-1,.cls-2,.cls-3,.cls-4,.cls-5,.cls-6,.cls-7,.cls-8{stroke-miterlimit:10;}.cls-1,.cls-4{stroke-width:5px;}.cls-1,.cls-4,.cls-5{stroke:#000;}.cls-1,.cls-9{fill:#fff;}.cls-2{stroke:#064862;stroke-width:3px;}.cls-2,.cls-10,.cls-4,.cls-5,.cls-6,.cls-7,.cls-8{fill:none;}.cls-11{clip-path:url(#clippath);}.cls-10,.cls-12,.cls-13,.cls-14,.cls-15,.cls-16,.cls-17,.cls-18,.cls-19,.cls-20,.cls-21,.cls-9,.cls-22,.cls-23,.cls-24,.cls-25{stroke-width:0px;}.cls-3{stroke:#fff;}.cls-6{stroke:#011720;}.cls-7{stroke:#48bbc3;}.cls-8{stroke:#c8b8db;}.cls-13{fill:#f9dc5c;}.cls-14{fill:#48bcc4;}.cls-15{fill:#48bbc3;}.cls-16{fill:#95c1cc;}.cls-17{fill:#0c6b86;}.cls-18{fill:#064862;}.cls-19{fill:#168da2;}.cls-20{fill:#c8b8db;}.cls-21{fill:#97de00;}.cls-22{fill:#f26157;}.cls-23{fill:#03b083;}.cls-24{fill:#04052e;}.cls-25{fill:#011720;}</style><clipPath id="clippath"><rect class="cls-10" x="233.32" y="341.33" width="594.81" height="954.46"/></clipPath></defs><path class="cls-25" d="m379.85,1178.48s-7.08-94.63-99.97-82.31c-92.89,12.33-16.89,239.33,24.11,239.33s466.04,39,476.52,0,23.82-91.17-2.35-100.09-99.09-36.21-110.13-3.06"/><rect class="cls-10" x="242.54" y="362.69" width="594.81" height="954.46"/><g class="cls-11"><path class="cls-15" d="m44.37,704.29s5.66,10.45,5.55,15.23c0,0-2.73,6.57-7.57,8.67,0,0,8.53-2.39,9.62-1.62,0,0,6.49,6.41,8.24,10.14,0,0-3.47-9.29-3.38-13.34,0,0,.09-4.05,6.85-9.42,0,0-5.59,2.82-9.26,2.18,0,0-4.02-1.38-10.05-11.84Z"/><path class="cls-15" d="m650.92,688.14s-1.36,11.8-4.2,15.66c0,0-6.01,3.82-11.17,2.76,0,0,8.35,2.94,8.81,4.19,0,0,1.63,8.97.94,13.03,0,0,2.49-9.6,4.89-12.87,0,0,2.4-3.26,11.02-3.79,0,0-6.2-.9-8.84-3.52,0,0-2.5-3.44-1.44-15.46Z"/><path class="cls-15" d="m755.23,538.51s-2.85,17.76-7.4,23.41c0,0-9.34,5.37-17.09,3.43,0,0,12.44,5.01,13.04,6.93,0,0,1.87,13.68.54,19.78,0,0,4.41-14.36,8.26-19.14,0,0,3.85-4.78,16.92-4.99,0,0-9.31-1.77-13.13-5.92,0,0-3.56-5.37-1.14-23.48Z"/><path class="cls-2" d="m89.93,454.46s5.22-4.59,1.37-16.47c0,0,5.26,11.36,8.71,10.62,0,0,9.04-.15,12.42-2.46,0,0-13.4,11.34-12.54,13.68s2.9,16.5,1.96,16.84-5-13.54-9.07-14.46c0,0-10.43-2.29-13.88-1.55l11.02-6.2Z"/><path class="cls-15" d="m677.98,457.29s-2.25,11.67-5.37,15.3c0,0-6.28,3.35-11.35,1.91,0,0,8.11,3.56,8.47,4.84,0,0,.95,9.07-.05,13.07,0,0,3.2-9.39,5.84-12.46,0,0,2.64-3.07,11.27-2.95,0,0-6.11-1.36-8.55-4.18,0,0-2.24-3.62-.27-15.52Z"/><path class="cls-16" d="m345.23,543.83l-41.17,197.7,41.96,8.75,91.92-183.31s-38.17,13.92-92.71-23.15Z"/><path class="cls-14" d="m428.34,428.24l-107.76,94.03s57.97,70.52,140.32,40.16l-32.56-134.19Z"/><path class="cls-17" d="m362.83,524.51c-8.34-2.82-13.01-13.47-23.06-6.37-4.6,3.25-9.52,2.9-6.57,5.3s35.24,21.52,70.24,27.12c35,5.6,37.77-.44,37.74-12.67-.03-12.23-13.59-73.98-16.49-83.5s-5.15-10.37-15.69.95-56.88,47.33-52.56,57.58c4.32,10.25,49.22,23.94,54.1,22.55,4.88-1.39,9.63-13.32,9.82-23.06.19-9.74-4.79-33.34-9.59-33.1-4.8.24-16.99,10.6-20.49,18.06-3.5,7.46,4.16,15.23,8.2,16.09s7.52-5.41,4.68-6.85-5.94-.64-4.96-4.31,3.4-9,4.68-6.26c1.29,2.74,7.4,11.22,3.79,17.73-3.61,6.51-2.87,5.03-8.92,3.45s-20.99-3.74-14.38-14.38,19.69-32.33,29.05-28.46c9.36,3.87,16.82,55.36,13.33,62.22-3.49,6.86-29.86-.9-62.92-12.07Z"/><path class="cls-13" d="m503.06,630.55s119.23,19.83,135.15,332.76h-15.14s-8.73-144.88-53.46-220.95c-44.73-76.06-49.72-94.95-71.42-98.78l4.86-13.03Z"/><path class="cls-17" d="m625.77,980.74l-27.05-3.68s3.15-276.06-153.57-317.86c0,0-1.71-33.14,45.79-22.22,47.5,10.91,131.14,158.26,134.82,343.77Z"/><path class="cls-13" d="m482.82,728.34s64.93-14.75,106.44,259.82l9.47-11.11s11.68-270.83-153.57-317.86c0,0,45.38,24.09,37.66,69.14Z"/><path class="cls-17" d="m463.3,759.68s16.27-12.05,19.52-31.34c0,0,64.93-21.21,106.44,259.82l-18.26,21.32s-11.74-264.22-107.7-249.8Z"/><path class="cls-24" d="m332.29,746.64l34.13-120.93s-22.72-2.53-21.95-14.7,18.67-74.24,34.94-67.18c16.27,7.06,133.59,51.87,133.59,55.75s-22.93,75.78-33.48,72.54c-10.56-3.24-25.11-9.49-25.11-9.49,0,0-49.11,112.29-75.57,124.07-26.46,11.78-46.54-40.07-46.54-40.07Z"/><path class="cls-3" d="m80.95,680.16l76.54,82.46,33.01-16.84-54.78-99.53s-29.88,28-54.78,33.92Z"/><path class="cls-24" d="m292.87,518.73l-23.67,223.63-28.27-7.85-82.35-190.87s56.15,20.01,134.29-24.92Z"/><path class="cls-13" d="m198.13,360.51l-69.99,174.04s109.72,47.92,187.91-36.57l-117.92-137.46Z"/><path class="cls-17" d="m240.97,673.33l2.93,27.1s50.57,16.9,86.15-8.01l4.84-30.21s-38.28,25.39-93.92,11.11Z"/><path class="cls-17" d="m240.97,704.74l2.93,27.1s50.57,16.9,86.15-8.01l4.84-30.21s-38.28,25.39-93.92,11.11Z"/><path class="cls-24" d="m178.42,516.54c-11.42,1.67-25.08-3.48-30.31,1.74s-9.41,9.06-4.53,10.1c4.88,1.05,53.99,4.18,98.23-10.1,44.24-14.28,43.89-22.99,36.58-37.27-7.32-14.28-59.91-78.38-68.97-87.78-9.06-9.41-12.19-9.06-17.77,10.45-5.57,19.51-38.32,89.17-27.17,98.58,11.15,9.41,64.09,1.39,68.97-3.14s5.92-21.6.35-33.09c-5.57-11.5-16.59-35.18-22.05-32.05-5.47,3.14-17.31,19.16-16.96,29.96.35,10.8,13.93,15.33,19.16,13.93,5.23-1.39,5.57-10.8,1.39-10.8s-7.33,2.79-8.37-2.09c-1.04-4.88-1.39-12.54,1.75-10.1s15.33,8.71,14.98,18.46c-.35,9.75,1.74,11.5-6.27,13.24-8.01,1.74-28.32,7.83-26.93-8.54,1.39-16.37,3.23-53.12,16.47-54.16,13.24-1.05,41.53,56.5,41.53,66.6s-24.8,19.44-70.09,26.05Z"/><path class="cls-3" d="m81.03,662.91c17.45-7.86,34.36-18.36,38.51-12.44,4.15,5.92-13.63,17.77-32.58,24.29s-30.21,18.36-34.36-2.96c-4.15-21.33-15.99-142.77-17.77-148.1s-2.96-12.44,4.74-10.07c7.7,2.37,101.3,87.67,107.82,98.93,6.52,11.26-24.29,31.4-24.29,31.4,0,0-54.5-95.19-60.42-95.88s1.78,81.07,2.96,92.32c1.18,11.26.63,29.17,15.4,22.51Z"/><path class="cls-1" d="m150.43,672.83s-11.26,11.26-18.01,0c-6.75-11.26-31.4-43.93-21.78-50.34,9.62-6.4,16.71-14.06,18.8-9.1,2.08,4.95,2.52,17.61,13.56,13.53s14.64-11.73,7.44-18.94c-7.2-7.2,17.11-16.66,18.01-12.16s4.95,22.52,18.46,17.11c13.51-5.4-7.66-17.56,2.7-22.52,10.36-4.95,21.61-13.51,26.57,0,4.95,13.51,12.78,47.28-4.42,52.24l29.19,91.86s-37.83,18.46-50.43,11.26l-40.08-72.95Z"/><path class="cls-9" d="m127.63,671.45c-3.2-1.71-2.18-7.78-7.78-3.73s-26.76,14-24.27,18.05,61.3,68.14,65.34,66.59c4.05-1.56,14.16-7.16,13.77-11.82s-42.39-66.59-47.06-69.08Z"/><path class="cls-9" d="m252.82,745.69c-3.96-4.13-8.21-5.46-14.91,2.19-2.11,2.41-5.97,7.07-.75,12.49,5.22,5.41,15.38-2.19,16.68-4.35s2.94-6.19-1.02-10.32Zm-2.97,9.42c-2.92,2.1-5.5,4.42-9.1.07-3.6-4.35.78-7.32,3.29-8.13,2.51-.81,5.08-.54,6.77,1.89,1.33,1.9,1.97,4.08-.95,6.18Z"/><path class="cls-9" d="m244.03,747.05c-2.51.81-6.89,3.78-3.29,8.13,3.6,4.35,6.19,2.04,9.1-.07s2.28-4.27.95-6.18c-1.69-2.43-4.26-2.7-6.77-1.89Z"/><path class="cls-9" d="m244.44,747.77c-1.87.6-5.13,2.82-2.45,6.06,2.68,3.24,4.61,1.52,6.79-.05,2.18-1.57,1.7-3.19.71-4.6-1.26-1.81-3.18-2.01-5.05-1.41Z"/><path class="cls-9" d="m246.89,749.65c1.41,1.09,1.02,1.36.02,2.39s-2.26.32-2.9-.79c-.64-1.11,1.74-2.48,2.88-1.6Z"/><path class="cls-12" d="m121.21,677.37c-6.89-1.53-13.1,2.39-12.73,10.89s13.91,22.92,23.61,20.01,5.05-27.36-10.88-30.91Zm7.16,24.1c-5.53,1.65-13.23-6.56-13.44-11.39-.21-4.84,3.33-7.07,7.25-6.2,9.07,2.02,11.72,15.94,6.19,17.6Z"/><path class="cls-12" d="m136.7,716.6c-3.88,4.14,2,7.89,4.37,10.64,0,0,4.83,4.73,8.31,5.3,3.47.56,7.16-.39,3.99-13.57-3.17-13.18-12.8-6.51-16.68-2.37Zm14.63,3.58c1.89,7.86-.31,8.43-2.38,8.1-2.07-.34-4.96-3.16-4.96-3.16-1.42-1.64-4.92-3.88-2.61-6.35,2.31-2.47,8.06-6.45,9.95,1.41Z"/><ellipse class="cls-12" cx="123.4" cy="692.44" rx="2.88" ry="4.52" transform="translate(-509.88 386.4) rotate(-54.1)"/><ellipse class="cls-12" cx="147.04" cy="721.75" rx="1.86" ry="2.93" transform="translate(-316.45 149.28) rotate(-27.48)"/><path class="cls-24" d="m174.69,945.42l-51.29-147.65s50.46-93.42,151.66-56.25c0,0,17.42-49.9,37.33-49.09s19.91,54.2,19.91,54.2c0,0,46.45,10.9,50.6,21.06l-38.99,182.7s-37.33-53.09-83.78-48.11c-46.45,4.98-85.44,43.13-85.44,43.13Z"/><path class="cls-9" d="m194.73,931.81s-39.74-39.65-12.97-56.46c26.77-16.82,37.85,40.2,37.85,40.2,0,0-19.63,12.09-24.88,16.26Z"/><path class="cls-9" d="m238.35,607.49s-20.23-52.36,11.06-56.87,18.27,52.1,18.27,52.1c0,0-22.84,3.08-29.34,4.76Z"/><path class="cls-9" d="m233.44,905.69s-38.85-85.61,19.71-99.16c58.56-13.55,44.04,69.77,25.84,96.77,0,0-21.08-5.41-45.55,2.38Z"/><path class="cls-9" d="m294.12,908.28s9.17-46.63,37.66-31.22c28.49,15.41,3.86,59.94,3.86,59.94,0,0-28.71-19.96-41.53-28.72Z"/><path class="cls-12" d="m193.62,650.38s-15.17,59.25,1.6,65.15c16.77,5.91,38.06-3.28,26.02-17.65-12.04-14.37-21.63-18.82-27.61-7.99-5.99,10.83,7.28,26.61,16.21,21.29,8.94-5.32-.25-19.29-5.44-15.3-5.19,3.99,0,5.8,0,5.8,0,0-6.47.5-3.65-5.39,2.83-5.89,9.99-2.18,11.79,1.16,1.8,3.34,5.74,14.51-6.5,15.96-12.24,1.45-16.32-13.1-14.65-20.99s12.05-12.38,2.23-42.05Z"/><path class="cls-14" d="m152.92,792.56l-12.98-1.5s41.12-71.4,118.56-46.23l-11.95,25.55s-54.11-12.78-93.63,22.18Z"/><path class="cls-14" d="m242.5,777.16l-2.11,8.09s-46.91-7.36-69.27,10.67h-11.25s33.27-29.06,82.63-18.76Z"/><path class="cls-21" d="m305.5,727.02c5.9-9.77,10.14-20.58,5.94-22.18s-2.8,2.24-14.33,20.25c-11.54,18.01-45.32,60.05-38.04,63.5,7.28,3.45,36.3-44.8,46.43-61.58Z"/><path class="cls-22" d="m315.12,736.72c4.76-7.87,8.17-16.58,4.79-17.87s-2.25,1.81-11.55,16.32c-9.29,14.51-36.52,48.38-30.65,51.16,5.87,2.78,29.24-36.09,37.41-49.61Z"/><path class="cls-21" d="m322.96,746.58c3.48-5.75,5.97-12.12,3.5-13.06s-1.65,1.32-8.44,11.93c-6.79,10.6-26.69,35.37-22.4,37.4s21.37-26.38,27.35-36.26Z"/><path class="cls-14" d="m370.6,556.08c-2.95,7.5-24.8,52.16-17.81,56.11,6.99,3.94,19.85,12.04,22.53,8.12,2.68-3.92,27.67-57.44,26.13-59.83-1.54-2.39-19.36-10.44-19.95-8.82s-20.08,49.49-15.03,51.31c5.05,1.82,9.94-.08,12.53-8.93,2.59-8.84,7.67-20.45,6.87-20.74s-2.6-1.95-8.21,10.28c-5.61,12.24-7.49,13.63-7.81,10.83-.18-1.59,13.05-27.07,15.71-26.11,2.66.96,4.93,3,1.15,12.64-3.77,9.64-9.87,28.22-15.64,27.56-5.77-.65-9.75-.46-9.11-4.71s5.63-27.3,12.56-40.69c0,0-2.14-11.56-3.93-7.02Z"/><path class="cls-17" d="m485.32,658.03c2.97-7.49,24.93-52.1,17.96-56.06-6.98-3.96-19.81-12.09-22.51-8.17-2.69,3.91-27.82,57.37-26.28,59.76,1.54,2.39,19.33,10.49,19.92,8.87s20.21-49.43,15.16-51.27c-5.05-1.83-9.94.06-12.55,8.9-2.61,8.84-7.72,20.43-6.93,20.72s2.59,1.96,8.23-10.26c5.64-12.22,7.53-13.61,7.83-10.81.17,1.59-13.12,27.03-15.78,26.07-2.66-.96-4.92-3.01-1.12-12.64s9.94-28.19,15.71-27.52c5.77.67,9.74.48,9.1,4.73-.64,4.25-5.7,27.28-12.66,40.66,0,0,2.11,11.57,3.91,7.03Z"/><path class="cls-17" d="m434.04,573.34c-6.76-3.44-25.17-11.3-26.04-9.38s-1.9,9.35-3.11,12.71c-1.21,3.36-23.56,46.21-19.35,49.6,4.21,3.39,16.68,11.67,19.12,8.54,2.44-3.13,15.33-25.2,19.3-33.5,3.98-8.3,15.92-17.27,4.35-21.66-11.57-4.39-15,.15-12.15,4.76s6.01-.5,5.67,3.17-2.42,6.71-6.35,4.85c-3.93-1.86-6.16,1.57-4.91,3.58,1.25,2.01,9.09,2.16,8.16,4.73-.92,2.57-2.89,3.97-8.75.8-5.86-3.16-5.28,4.87-2.19,6.09,3.09,1.21-.33,16.69-5.19,14.39-4.85-2.3-3-7.43-.81-14.45,2.2-7.01,1.01-11.01,4.5-9.75,3.49,1.26,5.14-1.49,1.06-3.86-4.08-2.36,3-5.07,7-4.57,4,.5,1.43-4.22-1.63-5.77-3.06-1.55,2.61-12.22,7.3-9.97,4.69,2.25,14.25,8.36,15.53,5.81,1.29-2.54,2.22-4.22-1.53-6.12Z"/><path class="cls-20" d="m438.32,587.79c-3.54,9.61-24.52,50.27-18.88,52.4,5.65,2.13,28.34,12.28,30.7,7.61,2.37-4.66,9.29-17.52,6.59-18.3-2.7-.78-11.34,1.92-20.96-5.09s8.34-39.6,10.49-38.6c2.15.99,22.73,9.99,23.47,7.3.74-2.69,6.88-3.83-3.6-7.8-10.48-3.97-22.47-12.03-27.81,2.49Z"/><path class="cls-14" d="m441.77,618.64c-2.01-.65-7.09-3.4-6.74.58.34,3.98,7.82,6.47,13.63,6.53s10.75,1.85,15.86-12.33c5.11-14.18,2.66-18.03-5.87-20.67s-17.39-3.16-20.03,10.71c-2.65,13.87,12.67,20.3,16.1,10.79,3.43-9.51-5.17-10.99-6.79-7.92-2.27,4.32.85,6.79.85,6.79,0,0-4.98,1.86-6.26-1.63-.9-2.44,1.97-12.73,11.52-10.43,9.55,2.3,3.38,18.73-2.43,18.66-5.81-.07-5.11.46-9.82-1.07Z"/><path class="cls-20" d="m366.06,644.46s54.19,32.39,64.5,38.2c10.31,5.82,9.55,1.86,12.12-2.64,2.57-4.5,10.14-10.46.93-16.77-9.22-6.31-66.34-37.89-67.64-35.36-1.3,2.54,28.02,17.68,39.29,23.73s26.45,9.49,22.29,16.51c-4.16,7.02-4.01,8.91-8.35,6.42-4.34-2.48-58.27-37.95-60.71-34.03l-2.43,3.93Z"/><path class="cls-17" d="m429.43,683.95s7.21,1.84,6.95,3.69c-.26,1.85.28,7.49-8.38,3.42-8.66-4.07-55.12-28.8-61.54-26.71-6.42,2.09,11.7,15.18,24.64,20.09,9.32,3.54,37.46,15.74,36.65,17.81s.11,6.15-8.67,1.8c-8.77-4.35-61-30.54-64.33-34.51s4.53-22.84,8.63-22.32,58.63,30.08,66.04,36.73Z"/><path class="cls-21" d="m365.57,680.53c-7.16-1.28-10.15-3.14-11.05-.77s2.79,4.55,7.71,6.23c4.92,1.68,8.2,4.72,12.58,5.02,4.38.31,42.13,17.45,41.79,20.09s-2.01,9.78-6.52,8.58c-4.51-1.2-45.82-20.32-51.59-22.52-5.77-2.2-7.63-3.07-8.95-1.24-1.31,1.83,20.99,12.57,28.08,16.32,7.09,3.75,34.31,14.83,39.42,13.7s8.93-11.82,9-14.62c.06-2.81-52.87-29.43-60.47-30.78Z"/><path class="cls-17" d="m414.35,729.3s-44.62-19.06-57.49-20.09c-12.88-1.03-10.9,3.88-11.18,7.81s.72,8.5-.88,10.3c-1.6,1.8,2.79,7.28,10.24,9.85,7.46,2.56,50.29,11.96,50.29,11.96,0,0,7.61-3.56-7.36-5.97-14.96-2.41-46.06-9.34-48.51-12.65-2.45-3.31.02-11.45,3.02-13.42,3-1.97,9.32-2.62,21.79,2.34,12.47,4.96,37.48,19.65,40.07,9.88Z"/><path class="cls-14" d="m375.67,639.92c-1.75-.84-3.48-3.43-1.1-3.03s2.33-.27,1.11-1.8.55-2.73,2.41-1.76c1.86.97,57.96,30.31,57,31.97s.45,7.59-9.91,2.42c-10.35-5.18-49.51-27.81-49.51-27.81Z"/><path class="cls-23" d="m427.38,692.23s-56.63-28.33-58.27-25.79c-1.64,2.53,58.15,27.52,58.15,27.52l.12-1.73Z"/><path class="cls-23" d="m425.94,695.36s-49.88-21.74-53.76-25.71c0,0-2.47.16-.76,1.91,5.99,6.12,47.23,23.99,51.87,25.35l2.65-1.55Z"/><path class="cls-23" d="m412.17,710.02l-6.27-3.36s-4.23,6.97-2.85,8.04,5.87,2.93,6.89,2.44,4.97-5.27,2.23-7.12Z"/><path class="cls-23" d="m404.16,706.1l-9.97-5.42s-3.92,5.72-4.05,8.09l10.71,4.82,3.31-7.49Z"/><path class="cls-23" d="m392.38,699.92l-11.1-5.29s-4.78,5.46-4.71,7.99l10.94,4.79s3.49-7.04,4.87-7.49Z"/><path class="cls-23" d="m377.91,693.75s-8.08-1.45-10.51-3.25c0,0-3.38,5.46-3.47,6.8l10.14,4.17s2.45-7.39,3.83-7.73Z"/><path class="cls-23" d="m365.49,689.65l-5.74-2.67-2.92,7.06,5.6,2.47s2.21-6.26,3.06-6.86Z"/><path class="cls-14" d="m354.39,718.76s-3.49,3.6-3.57,8.31c-.08,4.71,8.99,8.75,14.84,3.71,5.85-5.04,15.06-5.3,18.94.19s9.01,9.93,14.31,9.62-.4-3.94,1.89-3.78-1.55-3.34.22-3.22c1.77.12-37.09-21.57-46.63-14.83Z"/><path class="cls-23" d="m55.14,1034.34s43.47,5.43,72.45-33.51c28.98-38.94,64-98.66,132.53-98.24s107.26,75.59,122.76,96.42c15.5,20.83,38.19,82.3,96.63,54.34,91.54-43.8,143.6,35.53,109.19,39.15-34.42,3.62-210.92-22.85-161.22,8.85,49.7,31.7,42.75,79.7-30.76,50.72-73.5-28.98-111.59-40.76-180.85-.91-69.26,39.85-264.89,61.59-225.94,5.43,38.94-56.15,28.08-72.45-17.21-72.45s11.77-55.25,82.42-49.81Z"/><path class="cls-9" d="m187.67,934.46s63.79,38.32,160.11-2.21c96.33-40.53,24.69-115.69,24.69-115.69l-13.44,62.98s-58.21,39.42-131.01,31.25c0,0-29.1,7.68-40.35,23.67Z"/><path class="cls-9" d="m455.01,665.84s34.42,16.01,27.81,62.5c-6.61,46.49-83.53,72.44-217.37,93.08-133.85,20.63-291.31,17.49-306.45-4.86-15.14-22.35,63.64-82.87,194.06-54.23l-11.03,10.65s-87.95,8.52-79.47,22.45,120.05,10.11,182.36,3.54c58.42-6.16,222.73-53.06,191.5-98.57"/><path class="cls-9" d="m158.59,958.91s70.2,39.87,192.45-5.08l26.69,37.42s-142.23,63.64-250.13,9.27l30.99-41.62Z"/><path class="cls-9" d="m111.07,1017.38s-16.67,16.57-41.59,16.43c0,0,39.05,3.49,53.32,40.77,14.27,37.28,213.24,44.07,291.88-38.03,0,0-22.07-19.8-31.78-37.83,0,0-111.2,102.4-271.82,18.67Z"/><path class="cls-12" d="m102.36,1047.23l5.98-2.51s-14.51-9.61-15.66-16.78c0,0-13.94,5.38-23.2,5.87,0,0,20.39,3.32,32.88,13.42Z"/><path class="cls-12" d="m101.4,1023.5l9.67-6.12s22.75,10.95,28.91,13.34c0,0-7.28.57-14,6.86,0,0-19.12-9.25-24.58-14.08Z"/><path class="cls-12" d="m125.98,1037.59s-4.83,4.61-17.65,7.14c0,0,34.46,19.33,43.28,20.59,0,0,12.4-9.45,15.34-10.5,0,0-29.08-11.1-40.97-17.22Z"/><path class="cls-12" d="m151.61,1065.31s-15.34,11.54-27,12.6c0,0,5.98,10.43,27,15.07,21.02,4.64,31.68,6.12,31.68,6.12,0,0,11.81-16.76,13.7-21.17,0,0-18.07-7.14-30.04-8.19s-15.34-4.41-15.34-4.41Z"/><path class="cls-12" d="m166.95,1054.81s11.31-6.14,14.06-11.05c0,0,19.4,4.22,30.07,5.14l-6.73,16.42s-20.85-3.98-37.4-10.5Z"/><path class="cls-12" d="m204.35,1065.31l-7.35,12.61s20.38,6.72,40.97,6.09c0,0,3.13-11.19,3.13-18.7,0,0-23.52,2.99-36.75,0Z"/><path class="cls-12" d="m237.96,1084.01s19.03,2.08,32.48-1.81c0,0-1.99,9.87-4.48,16.19,0,0-26.22,3.62-35.68,2.73,0,0,5.68-8.34,7.68-17.1Z"/><path class="cls-12" d="m158.59,958.91l-9.81,12.6s2.2,1.71,8.79,5.37c6.59,3.66,8.3,5.86,14.16,5.62,0,0,8.04-9.12,8.66-15.18,0,0-12.25-3.63-21.8-8.4Z"/><path class="cls-12" d="m141.01,982.51s5.96,7.91,19.73,9.31c0,0-13.53,10.44-23.1,13.39l-10.05-4.69,13.42-18.02Z"/><path class="cls-12" d="m160.74,991.82s5.79-2.37,10.98-9.33c0,0,19.33,5.79,28.64,3.85,0,0-7.14,7.86-11.49,10.77,0,0-17.84-2.67-28.13-5.28Z"/><path class="cls-12" d="m188.87,997.1s-13.86,12.34-25.09,17.2c0,0,24.94,7.8,45.87,7.54,0,0,10.42-12.79,15.67-21.07,0,0-28.15-2.33-36.45-3.67Z"/><path class="cls-12" d="m233.82,988.16s6.67-6.38,7.28-12.95c0,0-17.76.46-32.36-2.02,0,0-1.19,3.97-8.37,13.15,0,0,22.94,2.55,33.45,1.82Z"/><path class="cls-12" d="m184.83,931.43s4.16,6,20.11,10.53c0,0,4.25-7.82,7.61-9.59,0,0-15.03-4.19-17.1-9.25,0,0-7.71,5.76-10.61,8.31Z"/><path class="cls-12" d="m203.44,917.88s5.1,6.5,14.16,8.11l10.42-15.21s-4.94.83-9.29-.6c0,0-12.35,4.12-15.29,7.7Z"/><path class="cls-12" d="m217.6,925.99s-.75,4.12-5.05,6.37c0,0,5.49,1.38,9.88,5.03,4.38,3.65,10.23,3.22,10.23,3.22,0,0,7.09-8.21,8.44-12,0,0-16.67-.28-23.49-2.62Z"/><path class="cls-12" d="m241.09,1065.31s.86-8.09,0-15.04c0,0,23.04-1.19,30.6-2.57,0,0,1.56,14.28,1.13,17.91,0,0-19.11,1.17-31.73-.3Z"/><path class="cls-12" d="m272.83,1065.61s-.05,6.96-2.39,16.59c0,0,36.34-8.7,44.97-14.17l1.66-16.58s-27.38,13.86-44.24,14.16Z"/><path class="cls-12" d="m314.29,1037.09s2.6.94,2.78,14.36c0,0,22.65-9.88,32.64-17.92,0,0,.38-4.66-1.01-11.68,0,0-22.52,11.51-34.4,15.24Z"/><path class="cls-12" d="m315.41,1068.03s29.05-9.7,34.34-15.7c0,0-2.19,18,0,25.64,0,0-23.49,9.78-37.54,12,0,0,2.5-14.96,3.2-21.94Z"/><path class="cls-12" d="m349.7,1033.53s-.99,2.55.05,7c1.03,4.45,0,11.8,0,11.8,0,0,29.67-14.38,41.09-18.8,11.42-4.42,10.7-10.09,10.7-10.09l-13.19-16.33-38.65,26.42Z"/><path class="cls-12" d="m225.33,1000.77l8.49-12.61s21.02,1.09,31.74-2.55l-7.28,15.97s-18.6.45-32.95-.81Z"/><path class="cls-12" d="m258.27,1001.58l-9.28,20.27s27.63-1.35,40.09-4.84c0,0,.32-15.83,2.55-20.88,0,0-13.12,5.56-33.35,5.46Z"/><path class="cls-12" d="m265.55,985.61s3.47-8.82,3.45-11.99c0,0,24.72-3.51,32.4-5.26l-5.33,16.24s-12.33,1.62-18.8,1.01-11.72,0-11.72,0Z"/><path class="cls-12" d="m296.08,984.6s0,5.86-4.45,11.52c0,0,23.04-6.19,28.5-6.33,0,0,.81-9.77,2.43-12.74,0,0-16.95,6.62-26.48,7.55Z"/><path class="cls-12" d="m325.23,962.33s.56,6.58-2.67,14.73c0,0,19-1.25,25.47-6.35,6.47-5.1,11.52-5.71,11.52-5.71,0,0-3.08-8.39-8.51-11.17,0,0-19.43,6.71-25.8,8.5Z"/><path class="cls-12" d="m320.13,989.8s-2.12,7.16.96,20.29c0,0,42.68-10.57,56.64-18.83l-12.12-18.98s-13.75,14.63-45.48,17.52Z"/><path class="cls-12" d="m241.09,928.61s5.59-11.37,6.03-16.71c0,0,17.51.03,29.7-2.18,0,0-.18,7.5-4.57,14.67,0,0-15.48,5.28-31.17,4.22Z"/><path class="cls-12" d="m232.65,940.61s-2.93,4.68-8.11,6.65c0,0,21.06,3.84,33.59,3.59,0,0,5.66-9.37,6.83-12.14,0,0-21.63,2.92-32.3,1.9Z"/><path class="cls-12" d="m272.26,924.39s-1.71,4.24-7.31,14.32l26.31-7.16,3.75-14.76s-16.09,5.76-22.75,7.6Z"/><path class="cls-12" d="m291.26,931.55s-3.5,12.75-4.24,17.55c0,0,36-5.01,48.63-12.1,0,0-9.81-7.26-14.73-15.94,0,0-19,8.44-29.67,10.49Z"/><path class="cls-12" d="m295.01,916.79s1.72-6.64,1.31-10.95c0,0,23.24-7.12,25.38-7.94l-.78,6.78s-12.25,9.62-25.91,12.11Z"/><path class="cls-12" d="m320.92,904.68v16.38s10.76-2.97,22.84-9.76c0,0-5.6-13.25-5.27-13.41s-17.58,6.78-17.58,6.78Z"/><path class="cls-12" d="m338.5,897.89l-2.85-5.8s10.6-5.17,17.99-9.13l3.87,3.72c.06.52-10.18,9.07-19,11.21Z"/><path class="cls-12" d="m343.77,911.3s17.24-8.37,24.74-16.71c0,0,2.29-.42,6.46,4.8,4.17,5.21,14.1,2.9,14.1,2.9,0,0-6.67,14.65-30.04,24.68,0,0-10.82-9.8-15.26-15.67Z"/><path class="cls-12" d="m368.51,894.6s-3.25-6.24-11.01-7.91c0,0,12.05-18.15,9.76-24.61l21.81,3.96s-5.42,17.11-20.56,28.56Z"/><path class="cls-12" d="m367.26,862.07h-4.5l4.28-20.06s1.16,7.26.22,20.06Z"/><path class="cls-12" d="m389.07,866.03s-7.68-34.26-11.87-37.66l1.71-4s18.03,23.09,18.9,43.81l-8.74-2.14Z"/><path class="cls-12" d="m377.2,828.37l-8.43,5.5,2.66-12.46s1.05-.25,5.77,6.96Z"/><path class="cls-3" d="m222.9,752.13c-1.91-8.45-6.39-13.5-21.06-8.8-4.61,1.48-13.27,4.52-10.72,15.62,2.55,11.1,21.67,9.16,25.04,7.36,3.37-1.8,8.65-5.74,6.74-14.19Zm-11.2,9.91c-5.43.45-10.59,1.44-11.87-7.02s6.72-8.9,10.61-7.99,7.01,3.26,7.31,7.73c.24,3.51-.63,6.82-6.05,7.27Z"/><path class="cls-3" d="m210.43,747.03c-3.88-.91-11.89-.47-10.61,7.99s6.44,7.47,11.87,7.02c5.43-.45,6.29-3.77,6.05-7.27-.3-4.47-3.43-6.82-7.31-7.73Z"/><path class="cls-3" d="m210.4,748.28c-2.9-.68-8.86-.35-7.91,5.96.95,6.3,4.8,5.57,8.85,5.23,4.05-.34,4.69-2.81,4.51-5.42-.23-3.33-2.56-5.09-5.45-5.77Z"/><path class="cls-3" d="m212.11,752.63c.98,2.52.26,2.56-1.84,3.11-2.1.55-3.19-1.36-3.15-3.29s4.19-1.87,4.99.18Z"/><path class="cls-23" d="m193.62,650.38s85.03,33.53,89.02,39.12c3.99,5.59,77.45-50.7,87.03-55.09,9.58-4.39-47.11-46.62-73.06-51.26,0,0-80.24,34.89-103,67.22Z"/><path class="cls-24" d="m282.38,679.72c5.88-9.05,10.25-8.08.38-12.23-14.05-5.9-39.46-20.7-39.46-28.75s45.62-36.3,50.91-36.92c5.3-.62,33.18,18.95,35.14,23.84,1.96,4.89-31.8,37.18-38.64,35.22-6.85-1.96-24.37-20.21-25.29-22.66s16.43-21.61,22.79-19.16c6.36,2.45,22.27,8.55,17.87,12.95s-9.06,14.76-18.39,10.36c-14.93-7.05-8.16-8.66-3.98-12.83s9.96.96,6.75,4.18c-3.21,3.21-4.18,4.46-.32,7.05,3.86,2.59,11.25-5.76,10.61-7.69s-8.08-12.05-15.15-10.13c-7.07,1.93-15.44,8.24-14.48,14.02s18.13,20.68,24.86,16.8c6.73-3.88,25.9-19.16,24.6-26.42-1.29-7.25-23.05-20.46-27.71-19.42s-42.26,23.05-41.85,29.01c.41,5.96,23.2,27.97,39.52,29.01,16.32,1.04,49.72-27.19,51.8-34.7,2.07-7.51-15.02-25.38-28.49-31.08-13.47-5.7-15.8-13.21-49.21,9.32-33.41,22.53-43.17,32.37-30.82,41.44,12.35,9.06,48.57,28.8,48.57,28.8Z"/><path class="cls-5" d="m135.04,804.67s-.88,21.72,5.58,29.14"/><path class="cls-5" d="m155.82,803.21s-.88,21.72,5.58,29.14"/><path class="cls-5" d="m174.69,803.21s.45,18.14,15.82,27.18"/><path class="cls-5" d="m413.12,741.53s29.72,18.71,50.18,18.15"/><path class="cls-24" d="m337.7,881.33s13.47,2.88-2.05,55.67l8.26,13.4,17.26-80.87-23.46,11.8Z"/><path class="cls-12" d="m137.13,759.21l-3.6,5.81,14.76,1.63,4.77-4.34s-10.46-2.22-15.93-3.11Z"/><polygon class="cls-12" points="130.76 769.48 127.58 774.62 142.03 772.97 145 770.1 130.76 769.48"/><path class="cls-12" d="m133.53,765.03l-2.76,4.46-20.51-.18s.76-1.79.52-3.7.32-2.48.32-2.48l22.43,1.91Z"/><path class="cls-12" d="m110.25,769.3s-.98,5.33-3.97,8.41c0,0-14.53,2.67-17.37,3.32,0,0-2.56-2.06-3.12-4.64-.62-2.91,1-4.37,1.03-6.14,0,0,21.57-1.76,23.42-.95Z"/><path class="cls-12" d="m111.1,763.56l-22.4-.87s1-7.35-1.95-7.92c0,0,15.6,0,29.16,1.54,0,0-3.66,1.82-4.81,7.24Z"/><path class="cls-12" d="m86.83,770.25s1.71-5.42,1.87-7.55c0,0-23.5-.15-31.73,1.27,0,0,.52,6.49,2.28,10.06,0,0,17.1-3.56,27.59-3.78Z"/><path class="cls-12" d="m59.24,774.03s3.45,9.64,12.43,11.9c0,0-9.92,3.37-9.67,7.26,0,0-14.17-6.67-27.38-5.79,0,0,1.83-8.32,24.62-13.37Z"/><path class="cls-12" d="m56.96,763.96s.21-3.9.71-7.65c0,0-41.69,2.95-70.7,21.04,0,0,10.53,4.54,15.77,6.25,0,0,10.61-15.51,54.21-19.64Z"/><path class="cls-12" d="m2.75,783.6s12.53,4.58,18.83,4.69c6.29.12,13.04-.9,13.04-.9,0,0-6,10.47,11.75,17.28,0,0-13.39,6.04-21.28,3.81-7.89-2.23-26.68,0-26.68,0,0,0-12.31-9.71,4.34-24.88Z"/><path class="cls-12" d="m-1.59,808.48s-26.35,3.75-36.18,11.22c0,0,13.43,12.52,77.99,14.47,0,0,12.3-5.87,16.41-9.56,0,0-43.59-1.74-58.22-16.13Z"/><path class="cls-12" d="m46.37,804.67s12.8-5.63,16.19-9.25c0,0,1.09,2.76,7.41,4.32,0,0,1.35,4.42-1.73,10.12,0,0-14.91-1.6-21.87-5.19Z"/><path class="cls-12" d="m68.24,809.86s-2.15,7.19-11.61,14.74c0,0,26.35,1.62,30.35,1.05,0,0,5.47-8.99,5.88-13.46,0,0-19.36-1.46-24.63-2.33Z"/><path class="cls-12" d="m95.38,803.68l-2.51,8.51,22.44.59s-.66-5.46.6-8.11l-20.53-.99Z"/><path class="cls-12" d="m86.98,825.65l28.69-.54s-1.45,6.4-4.57,9.8l-32.5.34s6.5-5.16,8.39-9.59Z"/><path class="cls-12" d="m115.67,825.11s1.42-4.63.54-6.74-.9-5.59-.9-5.59l19.83-.1s.51,8.03,1.4,11.44l-20.87.99Z"/><path class="cls-12" d="m135.04,804.67l.1,8.01,20.85-.3s-.23-6.45-.2-7.81c0,0-18.61.21-20.75.1Z"/><path class="cls-12" d="m136.54,824.12s1.02,6.4,4.32,9.69l21.04-1.22s-2.04-.56-4.52-9.67l-20.84,1.2Z"/><path class="cls-12" d="m155.98,812.38s.22,6.26,1.39,10.54l23.43-1.65s-3.58-5.82-4.53-9.55c0,0-17.61.58-20.29.66Z"/><path class="cls-12" d="m174.69,803.94s.29,4.31,1.59,7.79c0,0,22.28-1.11,25.25-1.3,0,0-3.12-6.23-3.74-7.66,0,0-20.63,1.08-23.09,1.18Z"/><path class="cls-12" d="m180.81,821.28s3.76,5.94,9.7,9.12l24.03-2.35s-5.7-5.17-7.74-8.93c0,0-20.36,1.67-26,2.17Z"/><path class="cls-12" d="m201.52,810.42s2.38,4.7,5.28,8.68l31.1-3.09s-5.86-5.18-7.99-7.73c0,0-24.8,1.93-28.39,2.13Z"/><path class="cls-12" d="m229.91,808.29s-4.23-5.15-5.66-7.41c0,0,25.9-2.51,29.28-3.02l9.44,6.93s-27.84,3.09-33.06,3.49Z"/><path class="cls-12" d="m237.91,816.02s6.8,5.28,12.41,7.7c0,0,33.91-4.97,37.04-5.82,0,0-11.03-4.84-13.44-6.23,0,0-32.83,4.04-36.01,4.35Z"/><path class="cls-12" d="m262.97,804.8l10.94,6.87s31-4.57,34.04-5.07c0,0-9.53-5.41-11.32-6.71,0,0-30.24,4.53-33.66,4.91Z"/><path class="cls-12" d="m286.66,791.54s6.41,6.51,9.97,8.35c0,0,29.08-5.61,33.92-6.77,0,0-11.23-8.37-12.16-9.7,0,0-26.41,7.24-31.74,8.12Z"/><path class="cls-12" d="m307.96,806.6s9.38,4.35,13.31,5.22c0,0,28.5-5.43,31.1-6.52,0,0-9.02-4.28-10.41-5.05,0,0-28.68,5.91-34.01,6.35Z"/><path class="cls-12" d="m330.56,793.12l11.41,7.13s32.99-7.46,34.93-8.59c0,0-12.22-6.33-13.51-7.62,0,0-27.3,8.32-32.84,9.09Z"/><path class="cls-12" d="m363.39,784.04l-14.81-10.01s27.57-9.57,35.67-13.83c0,0,11.11,7.38,15.29,8.81,0,0-24.9,12.44-36.15,15.04Z"/><path class="cls-12" d="m376.9,791.66s34.25-10.58,40.82-15.76c0,0,12.4,3.04,17.65,2.7,0,0-28.11,12.86-48.27,17.79,0,0-7.85-2.84-10.2-4.74Z"/><path class="cls-12" d="m417.72,775.9s-14.7-4.21-18.18-6.9c0,0,25.42-15.72,28.83-19.2,0,0,11.4,5.3,17.09,6.87,0,0-13.81,12.69-27.74,19.24Z"/><path class="cls-12" d="m428.38,749.8s-10.41-4.51-12.37-6.54c0,0,14.42-9.92,18.21-15.88l18.84-2.81s-3.89,9.98-24.68,25.23Z"/><path class="cls-12" d="m470.42,720.74s-5.77,17.89-24.96,35.93c0,0,12.45,4.52,19.84,2.55,0,0,20.61-16.09,18.36-43.23,0,0-10.39,4-13.24,4.75Z"/><path class="cls-12" d="m470.42,720.74s-13.43,3.24-17.37,3.83c0,0,10.1-15.47-2.95-25.54,0,0,1.65-1.92,8.19-3.08,6.06-1.07,9.6-4.93,9.6-4.93,0,0,9.09,10.56,2.52,29.71Z"/><path class="cls-12" d="m467.9,691.02s3.58-3.18,4.33-7.43c0,0-6.33-9.77-14.73-15.89,0,0-.07,5-5.8,10.92,0,0,11.03,4.75,16.21,12.4Z"/><path class="cls-12" d="m450.11,699.03s-9.13,3.12-11.42,5.38c0,0-1.59-3.79-2.29-4.07l3.53-6.55s6.24,1.15,10.18,5.25Z"/><path class="cls-12" d="m443.59,686.16s6.24-4.46,8.11-7.54c0,0-2.9-1.18-4.06-1.08l-4.06,8.62Z"/><circle class="cls-7" cx="567.97" cy="526.41" r="41.03"/><circle class="cls-8" cx="647.83" cy="599.22" r="25.59"/><circle class="cls-4" cx="91" cy="910.73" r="19.41"/><path class="cls-20" d="m576.73,1000.58s-43.04-31.35-68.86,7.01c-25.82,38.36,23.98,57.42,41.81,50.04,0,0-28.28,44.88,19.06,63.33,47.34,18.45,75.63-38.12,73.17-46.11,0,0,44.27.22,44.27-46.93,0,0,17.22,15.57,20.91-13.33s-25.21-49.69-45.5-26.07c0,0,2.67-32.74-31.56-32.54-34.23.2-54.88,26.27-53.29,44.61Z"/></g><path class="cls-17" d="m838.64,533.41s3.65-93.19-5.48-129.73c-9.14-36.54-32.89-85.88-144.35-85.88H254.1c-18.45,0-57.52,19.56-48.03,82.87,9.49,63.31,31.41,158.33,31.41,151.02s-10.05-143.44,50.25-169.02,446.75-8.22,479.64,24.67c49.47,49.47,71.26,126.08,71.26,126.08Z"/><path class="cls-18" d="m794,1356.5s8.27,2.82-3.96-.85c-12.23-3.67-19.08-3.42-21.77-7.58-2.69-4.16-7.09-9.29-13.94-9.05-6.85.24-10.52,5.14-19.32,1.71s-14.43-3.42-16.88-3.42-3.18-3.67-10.03-4.16-13.21-4.16-17.12-10.27-14.43-10.76-20.06-11.99c-5.63-1.22-19.57-12.96-22.5-28.13-2.94-15.17-8.07-67.02-50.39-49.65,0,0,15.9,3.18,18.34,14.92,2.45,11.74,10.76,41.83,22.99,56.01,12.23,14.19,20.79,18.34,28.13,19.57,7.34,1.22,11.34,4.16,12.03,6.6s13.41,5.63,20.26,6.36c6.85.73,6.6,3.18,10.76,6.85,4.16,3.67,16.88,4.16,20.3,6.85s11.01-.49,16.63-1.96c5.63-1.47,15.65-.49,21.52,3.18s10.03,9.54,18.83,10.03c8.81.49,6.16-5.02,6.16-5.02Z"/><path class="cls-22" d="m592.65,1234.42s8.85-4.77,12.94,5.11,6.47,21.12,18.39,22.14c11.92,1.02,19.75,4.09,26.91,7.49s11.92,2.72,24.52,0c12.6-2.72,33.04,3.07,45.3,12.26,12.26,9.2,14.3,11.92,26.22,18.05,11.92,6.13,31.33,18.05,41.55,16.35,10.22-1.7,20.77-5.11,29.97,3.41,9.2,8.51,2.51,5.28,4.55,5.28s-4.25,7-8,7-11.15-.36-12-1,1.69,1.1,0,0,17.34-8.04,11.83-6.77c-5.51,1.27-15.25,2.97-23.52,1.69-8.26-1.27-22.03-4.03-38.98-12.92-16.95-8.9-30.3-19.7-40.68-20.55s-17.37-8.26-33.26-4.03c-15.89,4.24-24.58,5.93-30.51-1.27-5.93-7.2-29.66-3.39-38.77-10.81-9.11-7.42-13.77-8.47-13.14-16.74s.12-23.33-3.33-24.7Z"/><path class="cls-9" d="m586.32,1235.41s-5.18,9.79-1.09,14.97c4.09,5.18,10.36,13.91,9.27,19.63-1.09,5.73-5.36,9-5.36,9,0,0-2.82-1.91-3.37-9-.55-7.09-13.36-3.54-13.36-3.54,0,0-1.09-5.7-4.09-9.26-3-3.56-1.36-10.1,2.18-12.28,3.54-2.18,9.9-5.67,8.77-9.52,0,0,2.69-5.15,7.05,0Z"/><path class="cls-9" d="m561.78,1240.3s-8.18,4.36-7.09,6c1.09,1.64,5.03,4.64,4.97,8.18s-.35,10.91-.35,10.91c0,0-6.81-1.36-6.26-7.91.55-6.54,0-10.36-15-6.82-15,3.54-10.09-2.18-10.09-2.18,0,0,19.42-2.56,33.81-8.18Z"/><path class="cls-9" d="m572.42,1266.47s-8.83,1.18-13.1-1.09c0,0-2.17,3.27-7.9,3.82s-30.54,5.73-30.26,7.63c0,0,1.21,1.36,7.97,0,6.76-1.36,22.84-1.91,18.75,17.18,0,0,15.96-6.54,18.88-6.54s1.02-5.45,2.38-7.77c1.36-2.32,4.67-8.66,3.27-13.22Z"/><path class="cls-9" d="m589.14,1279.01s-6.37,6.54-12.36,11.18c-6,4.64-8.6,11.72-4.03,17.45,4.57,5.73.08,11.76-5.99,14.6,0,0,7.49,2.3,13.93-1.79,0,0-.92,19.36,5.9,21.27l20.72-19.48s-4.09-6.15,0-11.88c4.09-5.73-1.64-9.54,0-12.54s6.06-10.51,5.73-15.19c0,0-.55,3.35-5.45,0-4.91-3.35-10.44,6.46-18.45-3.63Z"/><path class="cls-9" d="m566.76,1322.24s-19.98,4.48-18.88-28.24c0,0-3,3.54-6.54,3.54s-4.64,4.36,0,8.18c4.64,3.82,10.36,10.81.27,16.72-10.09,5.91-9.27,9.56-9.27,9.56l21.81,9.71s12.69-13.6,12.61-19.48Z"/><path class="cls-9" d="m532.34,1332.01s-12.81-4.74-27.54-6.65c-14.72-1.91-30.54-6-29.99-11.18,0,0-6.54,2.18-15.81,2.45s-21.27,4.36-24.81,3.54c0,0-1.64,9.27,6,7.36s32.72-7.09,33.54.27-11.18,18.81-10.63,22.9c.55,4.09,3.82,12.27,18.54,12.27s27.54,3,28.36,6c0,0,18.27-7.91,14.18-9.54s-12.54-2.45-4.64-12.81c7.91-10.36,12.81-14.62,12.81-14.62Z"/><path class="cls-9" d="m554.15,1341.72s11.47,6.9,32.45,0c0,0,16.37,16.16,28.5,17.01s19.81,7.69,19.81,7.69c0,0-9.4-6.83-29.47-2.99s-35.45,9.34-35.45,9.34c0,0-3.03,6.83,0,0s-4.88-17.45-8.21-19.59-12.37-1.57-7.63-11.46Z"/><path class="cls-18" d="m589.77,1207.21s45.73-32.39,52.72-46.12,29.33-68.86,32.12-81.97,6.55-34.06,6.55-34.06c0,0-1.3,19.05.85,23.54s9.77,15.41,9.18,30.23l-52.18,153.67-49.23-45.29Z"/><path class="cls-25" d="m654.7,1096.17s7.52,2.29,6.54,6.9c-.98,4.61-4.93,14.19-1.89,18.17,0,0-13.68,37.09-19.56,43.6,0,0-.8-9.5,1.51-15.52s3.65-14.88,1.82-14.71-4.83-.35-4.83-.35c0,0,4.08-13.29,6.02-16.3,1.95-3.01.75-5.49,2.85-10.99s8-7.42,7.53-10.8Z"/><path class="cls-25" d="m638.29,1134.26s-2.15-11.59,0-19.69,1.98-12.88,1.98-12.88h-5.44l-7.69,18.28s.42,6.02,0,8.93c-.42,2.91-1.66,5.61,0,12.05,1.66,6.44-.84,11.01-.84,11.01,0,0,4.99,1.45,5.62-1.45s1.53-16.6,6.37-16.24Z"/><path class="cls-12" d="m735.02,1249.72s-14.53,2.55-27.02,1.53c0,0,1.63-1.98.85-4.92s5.42-9.91,6.04-11.77c0,0,4.03-1.24,7.9-3.56,3.87-2.32,8.21,0,8.21,0,0,0-3.56,4.34-1.7,5.42s5.55,2.63,5.72,4.96-3.57,5.08,0,8.35Z"/><path class="cls-12" d="m714.9,1234.56s-3.1,2.84-5.27-1.29c-2.17-4.13-15.45-.05-18.64,0s-5.05-1.85-5.05-1.85c0,0,11.15-4.92,10.38-7.39s2.4-11,7.63-13.94c0,0,7.55-1.86,10.96-2.32,3.41-.46,5.02-.31,6.62,1.08,0,0-10.95,8.98-9.56,11.93s4.96,7.59,2.94,13.78Z"/><path class="cls-12" d="m685.94,1231.42s-5.73,1.63-4.49,4.09c1.24,2.46,5.58,4.62,3.1,6.79s-8.83,7.43-8.83,7.43l-14.39-2.79s7.73-3.56,5.09-8.83c0,0,4.35,3.56,7.21.93s6.42-7.05,12.3-7.63Z"/><path class="cls-12" d="m666.42,1238.12s-5.89-8.72-8.83-8.16c-2.94.57-10.69,8.93-13.47,9.09l5.69-15.43s12.28-13.69,14.14-14.46c0,0-.93,4.96,1.86,2.79s14.4-13.16,20.13-1.39c0,0-.58,3.87-6.41,4.96-5.83,1.08-17.75,4.65-13.11,22.61Z"/><path class="cls-12" d="m685.94,1210.55s2.48,5.11,6.66,4.49c4.18-.62,11.35-4.96,11.35-4.96,0,0,21.64-8.83,24.59-12.39,0,0-8.52-4.96-7.74-5.89s4.49-3.25,4.49-3.25c0,0-15.02-4.8-26.33-4.18l-1.39,2.94-6.56-3s-8.31-.1-8.15,3.62-1.7,7.59,1.86,11,5.89,8.67,1.24,11.62Z"/><path class="cls-25" d="m690.99,1184.32s-13.26-4.46-15.56-4.15-7.39,1.38-7.39,1.38c0,0,6.92-6.92,6.92-10.77s-6.07-15.21-2.31-21.54c0,0,4.77-5.39,14.16-4.31s18.7,10,18.7,10c0,0-4.85,3.54-4.23,8.46s4.72,17.18-2.33,20.98l-7.96-.06Z"/><path class="cls-12" d="m728.53,1197.7s2.67,3.68-.94,6.57c-3.61,2.89-6.08,4.58-6.08,4.58,0,0,4.45,1.38,5.17,3.54s7.47,1.26,8.34,1.63c0,0-5.63-9.21-3.82-11.92s5.6-5.6,5.6-6.23-8.27,1.83-8.27,1.83Z"/><path class="cls-25" d="m705.51,1154.94s7.42,2.75,8.41,8.21,5.71,12.41,13.4,8.44,21.1-6.2,24.32-4.22c0,0,8.44-1.74,7.69-6.95-.74-5.21,13.65-8,15.39-8.47s-1.99-3.69-1.99-3.69c0,0-10.92,2.73-12.16,2.48-1.24-.25-4.22-5.2-6.95-4.84s-19.86-1.12-26.31-4.35l-6.45-3.23-15.36,16.61Z"/><path class="cls-25" d="m725.28,1188.56s7.03,1.15,9.75,2.39c0,0,2.23-11.91,21.83-12.91v-5.28s-25.19,6.7-31.58,15.8Z"/><path class="cls-25" d="m684.53,1144.8s12.44-5.45,12.26-9.05c0,0-7.21-1.28-7.39-5.24,0,0-13.16,7.04-15.32,9.92,0,0,.68,6.59,5.57,5.48l4.89-1.11Z"/><path class="cls-25" d="m696.79,1135.75s15.95-1.35,24.08,2.59l10.71-5.11s-11,4.15-13.88,0c-2.88-4.15-8.47-9.37-11.18-8.29-2.7,1.08-4.15,3.79-6.31,3.79s-3.42,7.03-3.42,7.03Z"/><path class="cls-25" d="m774.73,1151.96s5.9,7.04,9.86,7.04,11.86-1.98,11.86-1.98l-7.91-7.91-13.81,2.85Z"/><path class="cls-25" d="m756.86,1172.76s23.21-9.81,24.9-13.77c0,0,5.08-.4,5.08,5.59s-2.82,11.92,5.65,11.36c8.47-.56,24.29-4.16,28.25.04,0,0-7.94,5.29-10.89,5.88s-4.65,9.09-4.65,9.09c0,0-13.56-4.27-18.36-3.42s-3.67-7.34-6.78-7.34-16.1,1.09-18.93,1.68-4.28-3.81-4.28-3.81v-5.28Z"/><path class="cls-25" d="m801.54,1162.67s5.37,11.33,14.41,12.3c9.04.97,16.38-2.7,16.67-12.3v-2.82s-18.65,9.32-27.4,3.25l-3.67-.43Z"/><path class="cls-25" d="m434.31,1111.82s53.95-6.83,54.93,0,4.58,19.24-2.29,19.74-20.09,1.49-24.27,4.59l-32.11-23.37,3.74-.96Z"/><path class="cls-25" d="m526.38,1124.58c-7.29.16-34.07.54-35.33,3.05s-3.47,2.03-2.96,9.66c.51,7.62-.17,16.43,3.73,16.26,3.9-.17,3.56-.84,7.62,0s7.96,1.7,14.4,0,16.26-.17,17.28-.34.51-22.53,0-25.41c-.51-2.88-1.51-3.29-4.74-3.22Z"/><path class="cls-25" d="m569.06,1129.64s-3.99-17.53,0-17.85c3.99-.33,26.92,1.22,27.2,4.22.28,3-.66,19.4-2.01,18.76-1.35-.65-13.51-5.4-25.2-5.12Z"/><path class="cls-25" d="m626.81,1125.39s-30.05-10.96-30.04-7.25c.01,3.7-2.01,18.76-2.01,18.76l25.57,5.75s5.64-13.96,6.48-17.26Z"/><path class="cls-25" d="m546.17,1169.17s-5.25-13.5,2.22-13.62c7.47-.12,22.64-.85,22.67,2.2s3.77,19.72-1.02,19.92c-4.79.19-13.22.57-15.14.77-1.92.19,1.92-.19,1.92-.19l-10.65-9.07Z"/><path class="cls-12" d="m736.04,1249.35s51.34-2.34,47.97-30.14c-3.38-27.8-31.18-39.49-31.18-39.49,0,0-12.7,1.92-14.19,6.87-1.5,4.95-.12,8.98-.58,9.79s-5.41,4.38-5.53,6.33,2.53,9.79,3.8,10.83-3.35,3.57-3.8,4.95-1.16,4.15,0,7.72c1.16,3.57-1.33,6.12-1.9,7.47s-.78,2.28,1.21,2.99,5.25,3.85,4.97,4.84-2.78,6.57-.76,7.84Z"/><path class="cls-22" d="m481.61,1108.79s47.71-4.71,85.15,3v4.22s-50.86-6.23-77.73-4.19l-7.42-3.04Z"/><path class="cls-22" d="m534.29,1154.25s49-4.71,87.44,3v4.22s-52.23-6.23-79.82-4.19l-7.62-3.04Z"/><path class="cls-22" d="m536.97,1177.93s48.58-6.14,87.03,1.57l-5,5s-46.82-5.57-74.4-3.54l-7.62-3.04Z"/><path class="cls-18" d="m354.89,1175.71l-36.87-120.94,93.68,82-6-42.09,111.34,81.03-4-35.61,102.05,89.51s-13.48,11.62-35.82,5.79c-22.34-5.83-149.27-23.03-149.27-23.03l-75.12-36.67Z"/><path class="cls-9" d="m409.34,1145.91c-12.15-1.95-22.73,5.11-22.34,15.69s18.7,22.73,31.1,8.62c12.4-14.11-8.76-24.31-8.76-24.31Z"/><path class="cls-9" d="m571.72,1207.02c-5.06-8.51-22.33-10.92-26.21,2.18-3.88,13.1,5.58,20.87,15.53,20.38,9.95-.49,16.74-12.38,10.68-22.57Z"/><path class="cls-9" d="m463.3,1223.89s-24.19,2.07-23.49-18.29c.69-20.36,5.99-37.31,34.49-33.51,28.5,3.79,25.11,41.65,12.56,48.27-12.55,6.61-23.55,3.53-23.55,3.53Z"/><path class="cls-23" d="m307.08,1111.82s8.55,13.63,5.75,24.12-.7,19.93,3.85,24.13,11.19,7.34,11.54,15.39,10.14,15.04,20.28,12.59c10.14-2.45,30.42-6.35,34.97.5s22.03,25.74,39.51,35.35c17.48,9.61,28.67,9.48,36.36,5.7,7.69-3.78,23.08-3.21,29.02,0,5.94,3.21,13.29,4.13,23.08,0,9.79-4.13,15.73,2.76,15.73,2.76,0,0,3.2-10.39,1.4-8.47s-4.9-1.93-10.14-1.93-6.64-5.24-16.08-3.15c-9.44,2.1-15.73,2.45-24.83-.35-9.09-2.8-13.99-2.68-22.73-1.86-8.74.81-15.04,1.86-21.33-4.78-6.29-6.64-5.55-10.49-15.36-13.64s-10.51-14.69-18.56-17.48c-8.04-2.8-13.99-9.88-27.62-8.61s-17.83,3.37-29.37-2.23c-11.54-5.59-16.08-5.94-15.39-16.78.7-10.84-3.85-6.64-3.15-16.43.7-9.79-9.05-16.77-16.94-24.82Z"/><path class="cls-18" d="m240.1,1256.58s8.04,1.75,15.04-5.94c6.99-7.69,14.34-6.29,20.63-9.79,6.29-3.5,14.69-9.43,14.69-16.95s4.9-17.66,11.54-26.4c6.64-8.74,14.05-17.96,28.01-16.5s24.31,5.49,29.82,4.77c0,0-23.56,6.84-33.7,6.49-10.14-.35-16.75,20.28-19.04,28.32-2.29,8.04-9.63,22.73-20.47,26.92s-31.82,17.13-46.51,9.09Z"/><path class="cls-6" d="m379.85,1185.9s-20.52,5.29-32.76,12.63-25.18,3.83-32.17,2.44c-6.99-1.39-6.99-6.99-16.43-10.48-9.44-3.5-15.73-6.64-17.13-12.94s-10.49-9.44-8.39-17.13c2.1-7.69,3.85-10.49,3.15-19.93-.7-9.44.9-20.28,3.77-25.53,2.87-5.24,9.17-19.58,11.26-20.28,0,0-3.85,6.64-2.1,10.49,1.75,3.85-.35,13.64-2.8,16.78s-2.45,5.94.35,7.69-1.05,5.94.7,6.99,1.75,3.5.7,6.29-3.5,9.79,2.45,15.39,2.8,9.09,7.69,11.54c4.9,2.45,2.8,4.8,5.24,10.97,2.45,6.16,7.33,11.39,13.29,11.76s9.32,8.2,16.08,3.15c6.76-5.05,36.14-17.23,47.09-9.84Z"/><path class="cls-22" d="m260.73,1116.01s-2.1,6.99-6.64,12.59c-4.55,5.59-2.8,11.54-2.8,15.04s-2.8,7.69-4.2,10.49-2.45,5.59-1.75,10.84c.7,5.24-6.74,8.39-.22,18.53,6.52,10.14,5.12,15.73,13.51,21.33,8.39,5.59,16.57,16.23,31.19,22.63,14.62,6.39,12.52,11.45,27.56,4.9,15.04-6.55,19.23-14.12,24.83-15.75,5.59-1.63,16.43-13.25,26.92-13.56s9.44-5.21,12.59-4.16,11.89-2.1,11.89-2.1c0,0-11.19-2.1-18.18-.7s-18.88,3.07-23.43,6.96-25.18,17.78-32.52,16.95c-7.34-.83-7.34-.22-15.39,0-8.04.22-11.89,6.28-18.53-3.39-6.64-9.68-13.29-17.02-16.43-19.47-3.15-2.45-3.85-7.34-3.85-14.69s-8.04-11.89-7.34-19.23,1.05-10.84.35-19.93c-.7-9.09,2.45-27.27,2.45-27.27Z"/><path class="cls-25" d="m609.67,1220.69s5.02-6.18,9.65-9.27c4.63-3.09,5.32-18.54,7.87-20.47,2.55-1.93,11.05-14.03,15.3-14.35s8.7-10.23,9.18-15.51,8.56-13.14,8.43-16.02,2-1.75,2-1.75v10.38l1.13-4.25,1.5,2.75-1.13,10.26,1.13-.25v13.44l-23.17,72.97-31.89-27.93Z"/><path class="cls-18" d="m572.79,1176.61s-8.55-32.68,12.5-34.87c21.05-2.19,14.69,33.78,14.69,33.78l-6.36,6.35s-2.85-5.38-20.84-5.25Z"/><path class="cls-25" d="m576.29,1176.61s-5.33-26.06,8.11-27.19c13.45-1.14,9.21,32.44,9.21,32.44,0,0-4.39-5.69-17.33-5.25Z"/><path class="cls-18" d="m531.13,1153.21s-9.01-39.94,16.87-41.39c25.88-1.45,20.62,45.93,20.62,45.93h-6.36s4.86-40.36-12.92-40.79c-17.78-.44-12.52,37.58-12.52,37.58l-5.69-1.32Z"/><path class="cls-25" d="m626.3,1151.96s6.36,12.22,14.7,12.54c0,0-14.07,17.79-36.12,31.37,0,0,3.47-17.09,3.82-20.8.35-3.71-2.12-2.81,3.32-3.51s1.37-16.72,14.29-19.6Z"/><path class="cls-22" d="m556.93,1229.59s-30.65,8.33-36.22,23.85c-5.57,15.52-9.16,22.29-28.66,20.3-19.5-1.99-29.46.8-35.03-3.58-5.57-4.38-6.77-3.58-11.94-.4-5.17,3.18-11.94,4.26-19.11,4.32-7.16.06-16.72,2.85-19.5,6.83s-8.76,4.25-21.1,1.73c-12.34-2.53-21.49.26-26.67,5.44-5.17,5.17-13.53,3.98-19.5,7.56-5.97,3.58-40.6,31.45-59.31,25.87,0,0,19.5-5.57,22.29-12.34,2.79-6.77,14.73-7.16,20.3-13.93,5.57-6.77,37.02-22.69,54.53-23.49,17.51-.8,21.89-15.13,39.01-15.52,17.12-.4,41.4,6.37,57.72,6.37s29.85-3.58,32.64-15.13c2.79-11.54,21.89-34.17,50.55-17.88Z"/><path class="cls-18" d="m962.91,449.48s3.95-18.79-16.81-8.57c-20.76,10.22-29.66,52.07-5.6,66.57,24.06,14.5,62.84-22.31,54.3-74.24-8.55-51.93-23.01-69.68-54.56-60.48-31.55,9.2-46.67,77.57-48.65,104.52-1.97,26.95-6.56,132.5,5.37,190.32s11.01,221.65-128.49,291.86c0,0,83.52-7.8,149.6-141.8,66.08-134,4.59-224.86-5.51-262.49-10.1-37.63-20.19-95.45,9.18-125.74,29.37-30.29,46.81-16.52,52.31-6.42s5.66,35.04-11.14,26.47Z"/><path class="cls-17" d="m819.51,642.8s1.23-2.46,3.89,0c2.66,2.46-4.71,10.85-12.28,8.39-7.57-2.46-5.18-12.69,6.42-19.65,11.59-6.96,21.62-10.23,33.08-3.07,11.46,7.16,11.26,19.44-2.87,26.81-14.12,7.37-30.09,14.12-29.88,24.15.2,10.03,13.1,10.23,22.72,11.87,9.62,1.64,36.45,4.93,38.04,42.17,1.59,37.24-12.08,76.99-35.94,89.8-23.86,12.81-35.43,25.63-33.78,35.96,1.65,10.33,13.23,14.88,24.39,2.89,11.16-11.99,16.12-16.53,19.02-6.2,2.89,10.33-2.09,18.33-9.56,16.07-7.48-2.26-1.54-12.43,1.56-11.58,0,0-2.83-1.41-9.89,5.09s-43.79,25.71-60.74,13.56c-16.95-12.15,27.69-35.03,43.79-48.03,16.1-13,42.37-55.39,35.11-85.24-7.26-29.85-14.92-44.77-42.35-55.26-27.43-10.49-20.97-29.04-4.84-30.25s28.64-10.89,26.62-18.55c-2.02-7.66-11.93-6.46-12.51,1.06Z"/><path class="cls-19" d="m813.28,702.85c-12.24-8.6-34.74-13.89-33.41,0s30.1,28.78,35.73,42.34c5.62,13.56,4.63,41.35-5.62,48.96-10.26,7.61-38.71,26.8-36.39,41.02s61.86-5.15,69.14-61.53c7.28-56.38-29.44-70.8-29.44-70.8Z"/><path class="cls-17" d="m801.37,737.92c-8.45-13.77-27.51-16.21-31.45-8.6-3.94,7.61,24.17,20.18,20.87,28.78s-22.64,13.43-27.46,25.47c-4.63,11.58-.99,22.16,11.58,22.83,12.57.66,47.97-33.41,26.47-68.48Z"/><path class="cls-19" d="m747.87,895.34s10.21-5.11,7.66-22.25c-2.55-17.14,6.91-26.99,12.94-23.34,6.03,3.65,3.77,14.78-3.69,19.88-7.47,5.11-3.04,29.35-16.9,25.71Z"/><path class="cls-19" d="m747.87,906.27s7.84-14.88,24.05-10.56c16.21,4.32,12.24-3.91,21.89-7.03s14,23.84-9.03,22.42c-23.03-1.42-15.87-20.72-36.9-4.82Z"/><path class="cls-14" d="m592.26,1051.99s130.79-47.46,130.79-173.62-15.05-104.59-6.94-159.36c8.1-54.77,54.4-95.28,98.39-134.64,43.98-39.35,62.5-98.39,49.77-136.58-12.73-38.2-24.21-73.45-2.61-81.35,21.6-7.9,44.26,22.66,39.52,34.78-4.74,12.12-21.6,12.65-24.77,1.05-3.16-11.59,8.96-11.07,8.96-11.07,0,0-5.27-13.7-16.86-3.69-11.59,10.01-6.32,21.08,2.11,34.25,8.43,13.17,33.57,64.14-5.98,125.81-39.55,61.67-123.34,112.95-126.69,171.43-3.35,58.48,8.26,108.01,9.09,147.64.83,39.63-24.92,150.29-154.78,185.35Z"/><path class="cls-25" d="m722.2,1026.25s-4.57-5.45-11.43-3.87c-6.86,1.58-13.54,4.29-16.71,1.79,0,0,35.71-12.7,49.96-20.44,0,0,18.82,3.17,26.39,2.29,0,0-37.29,19.17-48.2,20.23Z"/><path class="cls-25" d="m770.4,1006.02s13.9,0,20.4-2.29c0,0,25.68-17.77,30.78-24.8,0,0-2.29-2.99-9.32,0,0,0-27.38,19.96-41.87,27.09Z"/><path class="cls-25" d="m812.26,978.93s-15.66,5.45-27.27,3.69c0,0,25.15-14.07,34.13-24.1,0,0,13.54-.7,21.46-2.64,0,0-13.19,15.3-28.32,23.04Z"/><path class="cls-25" d="m840.58,955.89s21.11-23.22,24.8-28.85c0,0,6.86-1.41,13.54-4.93,0,0-23.75,28.67-27.79,31.66l-10.55,2.11Z"/><path class="cls-25" d="m865.38,927.04l-13.54,2.81s21.46-21.46,22.34-24.27c0,0,11.26-2.64,12.49-4.4,0,0-6.51,11.26-10.03,14.34s-11.26,11.52-11.26,11.52Z"/><path class="cls-25" d="m851.84,929.85s-8.08,1.18-12.37,0c0,0-22.27,21.9-40.74,26.03,0,0,9.91,3.51,20.4,2.64,0,0,27.27-21.23,32.72-28.67Z"/><path class="cls-25" d="m874.18,905.58s15.6-18.8,17.41-25.07c0,0-7.68,1.74-12.66,1.03l-21.32,26.51s6.74.41,16.57-2.48Z"/><path class="cls-25" d="m886.67,901.18l17.13-25.12s10.39-3.96,12.7-6.27c0,0-10.7,19.96-14.92,25.24,0,0-10.93,6.87-14.92,6.15Z"/><path class="cls-25" d="m903.8,876.06s-6.3,3.49-12.21,4.45c0,0,13.2-17.98,15.01-23.26,0,0,17.15-8.08,20.12-11.38,0,0-14.85,24.25-22.93,30.19Z"/><path class="cls-25" d="m906.6,857.25l12.21-22.6s-6.93,3.63-13.36,3.96l-13.1,24.09s7.96-2.36,14.25-5.45Z"/><path class="cls-25" d="m918.81,834.65s4.29-7.92,7.92-13.69c3.63-5.77,5.28-14.56,5.28-14.56,0,0,9.9-9.19,10.72-11.5,0,0-3.46,17.98-6.93,30.02,0,0-8.04,6.44-16.99,9.73Z"/><path class="cls-25" d="m932,806.41s10.06-22.55,10.72-33.11c0,0-4.12,6.27-6.27,9.24s-5.69,4.62-5.69,4.62l-9.77,24.42,11.01-5.17Z"/><path class="cls-25" d="m942.73,773.29l3.63-39.09s7.13-28.71,7.39-35.91c0,0,1.03,30.74-3.86,67.44l-7.16,7.56Z"/><path class="cls-17" d="m212.78,533.41s72.74,563.31,82.96,638.88c10.23,75.57,2.92,137.69,63.22,141.35s243.02,12.79,306.97,16.44c63.95,3.65,113.29-7.31,109.63-49.33s-42.94-37.46-46.59-33.8c-3.65,3.65-7.5,3.6,1.73,10.02,9.23,6.42,11.06,21.04.1,37.48-10.96,16.44-67.61,21.93-87.71-7.31-20.1-29.24-1.83-69.43,7.31-89.53s34.72-27.41,105.98-14.62c71.26,12.79,95.02,38.37,87.71,80.4-7.31,42.03-7.31,105.98-107.81,111.46-100.5,5.48-454.98-3.65-498.83-12.79s-29.24-37.09-28.32-99.58l3.65-729.06Z"/><path class="cls-14" d="m585.9,986.68s-43.04-31.35-68.86,7.01c-25.82,38.36,23.98,57.42,41.81,50.04,0,0-28.28,44.88,19.06,63.33,47.34,18.45,75.63-38.12,73.17-46.11,0,0,44.27.22,44.27-46.93,0,0,17.22,15.57,20.91-13.33,3.69-28.9-25.21-49.69-45.5-26.07,0,0,2.67-32.74-31.56-32.54s-54.88,26.27-53.29,44.61Z"/><path class="cls-25" d="m556.82,1178.24s45.52,2.27,52.85,5.26l-4.8,12.36-15.11,11.35-32.94-28.98Z"/><path class="cls-18" d="m488.72,45.39c-149.34,53.55-291.8,97.49-277.76,227.3,14.04,129.81,515.72,158.51,631.85,65.28,116.13-93.23-68.85-394.86-354.09-292.58Z"/><path class="cls-9" d="m285.07,276.77v-2l3.81-.76c2.67-.57,4.01-2.13,4.01-4.67v-39.39c0-4.45-.03-8.9-.1-13.35h-7.53c-2.04,0-3.53.54-4.48,1.62s-1.91,2.61-2.86,4.58l-3.34,7.06h-2.67l.48-16.12h54.74l.48,16.12h-2.67l-3.34-7.06c-.95-1.97-1.91-3.5-2.86-4.58-.95-1.08-2.45-1.62-4.48-1.62h-7.63v52.74c0,2.61,1.34,4.16,4.01,4.67l3.91.76v2h-29.47Z"/><path class="cls-9" d="m330.65,276.77v-1.81l1.43-.38c1.27-.38,2.13-.95,2.57-1.72.44-.76.7-1.78.76-3.05v-23.03c0-1.68-.03-3.42-.1-5.2,0-1.27-.24-2.27-.71-3-.48-.73-1.35-1.22-2.62-1.48l-1.33-.29v-1.72l16.69-5.53,1.14,1.05-.29,13.54v25.75c0,1.27.24,2.29.72,3.05.48.76,1.32,1.34,2.53,1.72l1.05.29v1.81h-21.84Zm10.97-52.45c-2.1,0-3.88-.67-5.34-2-1.46-1.33-2.19-3.02-2.19-5.05s.73-3.8,2.19-5.1c1.46-1.3,3.24-1.96,5.34-1.96s3.88.65,5.34,1.96c1.46,1.3,2.19,3,2.19,5.1s-.73,3.72-2.19,5.05c-1.46,1.34-3.24,2-5.34,2Z"/><path class="cls-9" d="m356.69,276.77v-1.91l2.1-.57c1.02-.32,1.68-.78,2-1.38.32-.6.51-1.41.57-2.43v-24.22c0-1.46-.03-3.18-.1-5.15,0-1.08-.16-1.92-.48-2.53-.32-.6-1.02-1.03-2.1-1.29l-2-.48v-1.72l15.45-5.53,1.14,1.05.67,6.39c2.22-2.04,4.7-3.78,7.44-5.25,2.73-1.46,5.53-2.19,8.39-2.19,3.18,0,5.66.64,7.44,1.91,1.78,1.27,3.15,3.21,4.1,5.82,2.42-2.42,5.09-4.31,8.01-5.67,2.92-1.37,5.82-2.05,8.68-2.05,4.32,0,7.57,1.08,9.73,3.24,2.16,2.16,3.24,5.56,3.24,10.21v27.56c0,2.04.89,3.31,2.67,3.82l1.81.48v1.91h-21.46v-1.91l1.72-.48c1.72-.57,2.58-1.88,2.58-3.91v-27.94c0-2.73-.49-4.59-1.48-5.58-.99-.98-2.59-1.48-4.82-1.48-1.72,0-3.34.35-4.86,1.05s-3.21,1.78-5.05,3.24c.38,1.91.57,4.1.57,6.58v24.22c.06,1.08.27,1.92.62,2.53.35.6,1.03,1.03,2.05,1.29l1.62.48v1.91h-21.55v-1.91l2-.57c1.02-.32,1.7-.78,2.05-1.38.35-.6.52-1.41.52-2.43v-27.85c0-2.61-.48-4.45-1.43-5.53-.95-1.08-2.57-1.62-4.86-1.62-2.93,0-6.07,1.4-9.44,4.2v30.9c0,2.1.89,3.37,2.67,3.82l1.62.48v1.91h-21.84Z"/><path class="cls-9" d="m463.22,229.56c4.01,0,7.44.83,10.3,2.48,2.86,1.65,5.07,3.93,6.63,6.82,1.56,2.89,2.34,6.21,2.34,9.97,0,.83-.03,1.61-.1,2.34-.06.73-.19,1.42-.38,2.05h-28.71c.06,6.55,1.29,11.25,3.67,14.11,2.38,2.86,5.87,4.29,10.44,4.29,3.18,0,5.75-.53,7.72-1.57,1.97-1.05,3.78-2.53,5.44-4.43l1.53,1.43c-1.91,3.5-4.5,6.21-7.77,8.15-3.28,1.94-7.17,2.91-11.68,2.91s-8.49-.95-11.92-2.86c-3.43-1.91-6.12-4.66-8.06-8.25-1.94-3.59-2.91-7.9-2.91-12.92s1.13-9.63,3.39-13.26c2.26-3.62,5.18-6.4,8.77-8.34,3.59-1.94,7.36-2.91,11.3-2.91Zm-.48,2.77c-1.84,0-3.45.53-4.82,1.57-1.37,1.05-2.45,2.89-3.24,5.53-.8,2.64-1.26,6.34-1.38,11.11h17.07c.7-6.42.44-11.06-.76-13.92-1.21-2.86-3.5-4.29-6.87-4.29Z"/><path class="cls-9" d="m489.16,254.64v-4.01h23.84v4.01h-23.84Z"/><path class="cls-9" d="m525.68,276.77v-2l3.81-.76c2.67-.57,4.01-2.13,4.01-4.67v-39.39c0-4.45-.03-8.9-.1-13.35h-7.53c-2.04,0-3.53.54-4.48,1.62s-1.91,2.61-2.86,4.58l-3.34,7.06h-2.67l.48-16.12h54.74l.48,16.12h-2.67l-3.34-7.06c-.95-1.97-1.91-3.5-2.86-4.58-.95-1.08-2.45-1.62-4.48-1.62h-7.63v52.74c0,2.61,1.34,4.16,4.01,4.67l3.91.76v2h-29.47Z"/><path class="cls-9" d="m568.79,276.77v-1.81l1.43-.48c1.27-.32,2.15-.86,2.62-1.62.48-.76.71-1.78.71-3.05v-27.94c-.06-1.4-.32-2.46-.76-3.2-.45-.73-1.3-1.22-2.58-1.48l-1.43-.38v-1.72l15.54-5.53,1.14,1.05.86,8.39v.67c.95-1.78,2.16-3.43,3.62-4.96,1.46-1.53,3.05-2.77,4.77-3.72,1.72-.95,3.43-1.43,5.15-1.43,2.42,0,4.23.64,5.44,1.91,1.21,1.27,1.81,2.89,1.81,4.86,0,2.16-.6,3.8-1.81,4.91-1.21,1.11-2.67,1.67-4.39,1.67-2.54,0-4.74-1.14-6.58-3.43l-.19-.19c-.64-.76-1.35-1.19-2.15-1.29-.8-.09-1.57.3-2.34,1.19-.64.64-1.23,1.38-1.76,2.24-.54.86-1.03,1.86-1.48,3v24.99c0,1.21.25,2.21.76,3,.51.79,1.37,1.35,2.57,1.67l2.86.86v1.81h-23.84Z"/><path class="cls-9" d="m622.2,278.11c-3.62,0-6.69-1.03-9.2-3.1-2.51-2.06-3.77-5.04-3.77-8.92,0-3.05,1.48-5.87,4.44-8.44,2.96-2.57,7.61-4.46,13.97-5.67,1.08-.25,2.34-.49,3.77-.71,1.43-.22,2.84-.46,4.24-.72v-6.77c0-4.32-.54-7.31-1.62-8.96-1.08-1.65-2.8-2.48-5.15-2.48h-.29c-1.46,0-2.62.46-3.48,1.38-.86.92-1.42,2.43-1.67,4.53l-.29,1.24c-.19,2.54-.86,4.4-2,5.58-1.14,1.18-2.58,1.76-4.29,1.76-1.59,0-2.91-.49-3.96-1.48-1.05-.98-1.57-2.27-1.57-3.86,0-2.61.89-4.8,2.67-6.58,1.78-1.78,4.15-3.11,7.1-4,2.96-.89,6.15-1.34,9.58-1.34,5.66,0,9.98,1.37,12.97,4.1,2.99,2.73,4.48,7.19,4.48,13.35v21.27c0,2.73,1.3,4.1,3.91,4.1h2.19l.95,1.05c-1.14,1.46-2.42,2.59-3.81,3.39-1.4.79-3.31,1.19-5.72,1.19-2.73,0-4.91-.65-6.53-1.96-1.62-1.3-2.69-3.04-3.19-5.2-2.04,2.16-4.04,3.91-6.01,5.25-1.97,1.33-4.55,2-7.73,2Zm5.53-6.1c1.27,0,2.48-.29,3.62-.86s2.57-1.53,4.29-2.86v-15.26c-1.65.25-3.34.57-5.05.95-2.73.64-4.94,1.81-6.63,3.53-1.69,1.72-2.53,4.04-2.53,6.96,0,2.54.59,4.43,1.76,5.67,1.18,1.24,2.69,1.86,4.53,1.86Z"/><path class="cls-9" d="m676.56,277.06l-16.79-40.34c-.7-1.78-1.94-2.92-3.72-3.43l-2-.48v-1.81h24.13v1.81l-2.48.57c-2.04.51-2.64,1.81-1.81,3.91l10.01,26.61,9.35-26.42c.32-1.08.4-1.96.24-2.62-.16-.67-.78-1.13-1.86-1.38l-2.77-.67v-1.81h14.5v1.81l-3.15.76c-1.84.45-3.08,1.59-3.72,3.43l-14.4,40.05h-5.53Z"/><path class="cls-9" d="m727.29,229.56c4.01,0,7.44.83,10.3,2.48,2.86,1.65,5.07,3.93,6.63,6.82,1.56,2.89,2.34,6.21,2.34,9.97,0,.83-.03,1.61-.1,2.34-.06.73-.19,1.42-.38,2.05h-28.71c.06,6.55,1.29,11.25,3.67,14.11,2.38,2.86,5.87,4.29,10.44,4.29,3.18,0,5.75-.53,7.72-1.57,1.97-1.05,3.78-2.53,5.44-4.43l1.53,1.43c-1.91,3.5-4.5,6.21-7.77,8.15-3.28,1.94-7.17,2.91-11.68,2.91s-8.49-.95-11.92-2.86c-3.43-1.91-6.12-4.66-8.06-8.25-1.94-3.59-2.91-7.9-2.91-12.92s1.13-9.63,3.39-13.26c2.26-3.62,5.18-6.4,8.77-8.34,3.59-1.94,7.36-2.91,11.3-2.91Zm-.48,2.77c-1.84,0-3.45.53-4.82,1.57-1.37,1.05-2.45,2.89-3.24,5.53-.8,2.64-1.26,6.34-1.38,11.11h17.07c.7-6.42.44-11.06-.76-13.92-1.21-2.86-3.5-4.29-6.87-4.29Z"/><path class="cls-9" d="m750.18,276.77v-1.81l1.43-.38c2.1-.7,3.15-2.29,3.15-4.77,0-2.16.02-4.34.05-6.53.03-2.19.05-4.37.05-6.53v-36.24c0-1.33-.22-2.34-.67-3-.45-.67-1.3-1.16-2.58-1.48l-1.43-.38v-1.81l16.69-4,1.24.86-.38,13.45v45.68c.06,1.27.33,2.3.81,3.1.48.79,1.32,1.35,2.53,1.67l1.33.38v1.81h-22.22Z"/><path class="cls-9" d="m800.54,229.56c4.01,0,7.44.83,10.3,2.48,2.86,1.65,5.07,3.93,6.63,6.82,1.56,2.89,2.34,6.21,2.34,9.97,0,.83-.03,1.61-.1,2.34-.06.73-.19,1.42-.38,2.05h-28.71c.06,6.55,1.29,11.25,3.67,14.11,2.38,2.86,5.87,4.29,10.44,4.29,3.18,0,5.75-.53,7.72-1.57,1.97-1.05,3.78-2.53,5.44-4.43l1.53,1.43c-1.91,3.5-4.5,6.21-7.77,8.15-3.28,1.94-7.17,2.91-11.68,2.91s-8.49-.95-11.92-2.86c-3.43-1.91-6.12-4.66-8.06-8.25-1.94-3.59-2.91-7.9-2.91-12.92s1.13-9.63,3.39-13.26c2.26-3.62,5.18-6.4,8.77-8.34,3.59-1.94,7.36-2.91,11.3-2.91Zm-.48,2.77c-1.84,0-3.45.53-4.82,1.57-1.37,1.05-2.45,2.89-3.24,5.53-.8,2.64-1.26,6.34-1.38,11.11h17.07c.7-6.42.44-11.06-.76-13.92-1.21-2.86-3.5-4.29-6.87-4.29Z"/><path class="cls-9" d="m824.66,276.77v-1.81l1.43-.48c1.27-.32,2.15-.86,2.62-1.62.48-.76.71-1.78.71-3.05v-27.94c-.06-1.4-.32-2.46-.76-3.2-.45-.73-1.3-1.22-2.58-1.48l-1.43-.38v-1.72l15.54-5.53,1.14,1.05.86,8.39v.67c.95-1.78,2.16-3.43,3.62-4.96,1.46-1.53,3.05-2.77,4.77-3.72,1.72-.95,3.43-1.43,5.15-1.43,2.42,0,4.23.64,5.44,1.91,1.21,1.27,1.81,2.89,1.81,4.86,0,2.16-.6,3.8-1.81,4.91-1.21,1.11-2.67,1.67-4.39,1.67-2.54,0-4.74-1.14-6.58-3.43l-.19-.19c-.64-.76-1.35-1.19-2.15-1.29-.8-.09-1.57.3-2.34,1.19-.64.64-1.23,1.38-1.76,2.24-.54.86-1.03,1.86-1.48,3v24.99c0,1.21.25,2.21.76,3,.51.79,1.37,1.35,2.57,1.67l2.86.86v1.81h-23.84Z"/><path class="cls-9" d="m496.19,162.91c0,7.06-1.32,12.54-3.96,16.45-2.64,3.91-6.34,6.63-11.11,8.15s-10.33,2.29-16.69,2.29h-13.92v-53.69h13.92c6.36,0,11.92,1,16.69,3,4.77,2,8.47,4.97,11.11,8.92,2.64,3.94,3.96,8.9,3.96,14.88Zm-41.29,23.08h10.3c5.28,0,9.9-.6,13.88-1.81,3.97-1.21,7.06-3.46,9.25-6.77,2.19-3.31,3.29-8.14,3.29-14.5,0-5.21-1.1-9.52-3.29-12.92-2.19-3.4-5.28-5.91-9.25-7.53-3.97-1.62-8.6-2.43-13.88-2.43h-10.3v45.97Z"/><path class="cls-9" d="m504.11,189.8v-38.72h3.72l.57,9.92c.63-2.73,2.13-5.07,4.48-7.01,2.35-1.94,5.66-2.91,9.92-2.91h2.1v4.86h-2.1c-4.32,0-7.5.68-9.54,2.05-2.04,1.37-3.35,3.2-3.96,5.48-.6,2.29-.91,4.83-.91,7.63v18.69h-4.29Z"/><path class="cls-9" d="m546.45,190.75c-4.13,0-7.55-.99-10.25-2.96-2.7-1.97-4.72-4.5-6.06-7.58-1.33-3.08-1.97-6.28-1.91-9.58,0-3.43.7-6.64,2.1-9.63,1.4-2.99,3.45-5.39,6.15-7.2,2.7-1.81,5.99-2.72,9.87-2.72,4.83,0,8.82,1.57,11.97,4.72,3.15,3.15,4.91,7.36,5.29,12.64.06.32.1,1.02.1,2.1h-31.28c0,5.09,1.21,9.09,3.62,12.02,2.42,2.93,5.88,4.39,10.4,4.39,3.24,0,6.06-.86,8.44-2.58s3.86-4.04,4.43-6.96h4.29c-.76,3.94-2.69,7.15-5.77,9.63-3.08,2.48-6.88,3.72-11.4,3.72Zm-13.73-22.79h26.51c-.06-1.65-.52-3.5-1.38-5.53-.86-2.03-2.23-3.81-4.1-5.34-1.88-1.53-4.34-2.29-7.39-2.29-4.2,0-7.41,1.3-9.63,3.91-2.23,2.61-3.56,5.69-4.01,9.25Z"/><path class="cls-9" d="m585.36,190.75c-3.56,0-6.52-.91-8.87-2.72-2.35-1.81-4.1-4.23-5.25-7.25-1.14-3.02-1.72-6.37-1.72-10.06s.59-7.23,1.76-10.25c1.18-3.02,2.94-5.34,5.29-6.96,2.35-1.62,5.28-2.43,8.77-2.43,3.75,0,6.74.84,8.96,2.53,2.22,1.69,3.81,3.88,4.77,6.57l.19-.52v-8.58h4.39v38.72h-3.62l-.76-7.84-.19-.17c-1.02,2.35-2.64,4.43-4.86,6.25-2.23,1.81-5.18,2.72-8.87,2.72Zm1.62-4.01c4.07,0,7.12-1.41,9.16-4.24,2.03-2.83,3.05-6.72,3.05-11.68,0-5.28-1.07-9.19-3.19-11.73-2.13-2.54-5.14-3.81-9.01-3.81-4.52,0-7.82,1.45-9.92,4.34-2.1,2.89-3.15,6.6-3.15,11.11s1.08,8.55,3.24,11.54c2.16,2.99,5.44,4.48,9.82,4.48Z"/><path class="cls-9" d="m611.01,189.8v-38.72h3.62l.38,10.3h.19c.19-.57.52-1.41,1-2.53.48-1.11,1.19-2.26,2.15-3.43s2.22-2.19,3.81-3.05c1.59-.86,3.56-1.29,5.91-1.29,2.54,0,4.59.49,6.15,1.48,1.56.99,2.78,2.27,3.67,3.86.89,1.59,1.53,3.24,1.91,4.96h.19c.19-.57.56-1.41,1.1-2.53.54-1.11,1.33-2.26,2.38-3.43,1.05-1.18,2.4-2.19,4.05-3.05,1.65-.86,3.66-1.29,6.01-1.29,2.54,0,4.61.51,6.2,1.53,1.59,1.02,2.83,2.31,3.72,3.86.89,1.56,1.53,3.23,1.91,5.01.38,1.78.6,3.48.67,5.1.06,1.62.1,2.97.1,4.05v19.17h-3.91v-19.26c0-1.08-.05-2.46-.14-4.15-.1-1.68-.45-3.4-1.05-5.15-.6-1.75-1.57-3.21-2.91-4.39-1.34-1.18-3.24-1.76-5.72-1.76-2.73,0-4.96.76-6.68,2.29-1.72,1.53-3,3.53-3.86,6.01-.86,2.48-1.29,5.18-1.29,8.11v18.31h-3.91v-19.26c0-1.08-.05-2.46-.14-4.15-.1-1.68-.45-3.4-1.05-5.15-.6-1.75-1.57-3.21-2.91-4.39-1.34-1.18-3.24-1.76-5.72-1.76-2.73,0-4.96.76-6.68,2.29-1.72,1.53-3,3.53-3.86,6.01-.86,2.48-1.29,5.18-1.29,8.11v18.31h-4.01Z"/></svg>