<?xml version="1.0" encoding="UTF-8"?><svg id="Capa_2" xmlns="http://www.w3.org/2000/svg" viewBox="0 0 1080 1434.5"><defs><style>.cls-1,.cls-2,.cls-3,.cls-4,.cls-5,.cls-6,.cls-7,.cls-8,.cls-9,.cls-10,.cls-11,.cls-12,.cls-13,.cls-14,.cls-15,.cls-16,.cls-17{stroke-width:0px;}.cls-2{fill:#f9dc5c;}.cls-3{fill:#48b5bd;}.cls-4{fill:#48bcc4;}.cls-5{fill:#95c1cc;}.cls-6{fill:#0c6b86;}.cls-7{fill:#0c6b80;}.cls-8{fill:#064862;}.cls-9{fill:#16869b;}.cls-10{fill:#c8b8db;}.cls-11{fill:#97de00;}.cls-12{fill:#fff;}.cls-13{fill:#f26157;}.cls-14{fill:#03a980;}.cls-15{fill:#03b083;}.cls-16{fill:#04052e;}.cls-17{fill:#011720;}</style></defs><rect class="cls-16" x="279.59" y="376.72" width="594.81" height="954.46"/><path class="cls-8" d="m456.7,376.58s372.63-56.44,417.36,0c53.94,68.06,70.95,209.28,40.33,209.28s-47.64-144.62-125.91-165.04c-78.27-20.42-272.23-35.73-331.78-44.24Z"/><path class="cls-6" d="m647.85,608.42c-37.58-.97-71.69-22.97-94.88-46.76-34.81-35.71,11.21-88.99,43.57-84.57,32.35,4.41,38.17,13.22,18.1,21.59-20.07,8.38,41.85,45.29,44.58,0,2.73-45.29-98.13-63.34-135.85,21.87-28.38,64.11,64.55,117.95,132.17,116.22-1.04-.56-2.08-1.27-3.09-2.18-8.03-7.24-8.18-17.19-4.6-26.17Z"/><path class="cls-6" d="m687.81,610.41c-1.2-3.65-1.1-6.7-.22-9.26-10.83,4.38-21.59,6.64-32.12,7.18-2.8,4.31-4.31,7.75-3.88,9.6,1.53,6.67,10.1,15.62,13.74,13.34,3.63-2.28,14.23-19.24,7.21-16.37,0,0-4.3,4.31-4.85.47-.55-3.84,1.04-7.52,6.07-6.69,5.03.83,8.01,7.06,5.01,15.95-1.32,3.91-4.57,8.13-8.67,10.82,11.4-1.85,21.62-5.61,29.8-11.58-4.19-1.17-9.22-4.83-12.07-13.46Z"/><path class="cls-6" d="m706.04,591.58c-2.28,1.45-4.56,2.79-6.85,4.04-1.34,1.13-2.74,1.99-3.87,2.65-3.65,2.13-4.37,6.94-1.69,13.2,2.68,6.26,8.93,6.54,11.31,4.68,2.38-1.86,3.56-10.27.22-11.13-3.34-.86-3.64,4.05-3.64,4.05,1.01.04,4.01,2.73,1.1,3.31-2.91.58-5.64-.05-3.14-6.72,2.5-6.68,8.32-7.11,12.16,2,.52,1.23.82,2.42.95,3.58,49.96-51.14,183.09-11.34,183.09-11.34,0,0-130.83-45.82-189.64-8.32Z"/><path class="cls-12" d="m703.53,583.06c0-.06-.02-.09-.02-.09,0,.03,0,.06.02.09Z"/><path class="cls-8" d="m699.48,605.66c-2.5,6.68.23,7.3,3.14,6.72,2.91-.58-.09-3.27-1.1-3.31,0,0,.3-4.91,3.64-4.05,3.34.86,2.16,9.27-.22,11.13-2.38,1.86-8.63,1.58-11.31-4.68-2.68-6.26-1.96-11.07,1.69-13.2,1.13-.66,2.53-1.52,3.87-2.65-3.87,2.12-7.74,3.96-11.61,5.52-.88,2.56-.98,5.61.22,9.26,2.85,8.64,7.88,12.29,12.07,13.46,3.35-2.45,6.37-5.26,8.97-8.47,1.18-1.46,2.44-2.83,3.74-4.16-.13-1.15-.44-2.35-.95-3.58-3.85-9.11-9.66-8.68-12.16-2Z"/><path class="cls-11" d="m678.76,624.63c2.99-8.88.02-15.12-5.01-15.95-5.03-.83-6.63,2.85-6.07,6.69.56,3.84,4.85-.47,4.85-.47,7.03-2.87-3.57,14.09-7.21,16.37-3.63,2.28-12.2-6.67-13.74-13.34-.43-1.85,1.08-5.29,3.88-9.6-2.55.13-5.09.16-7.62.1-3.57,8.97-3.43,18.93,4.6,26.17,1.01.91,2.04,1.63,3.09,2.18,5.01-.13,9.87-.56,14.54-1.32,4.11-2.69,7.35-6.91,8.67-10.82Z"/><path class="cls-8" d="m878.14,1265.01s-50.54-55.35-49.4-82.84c1.13-27.49,10.24-48.05,20.64-63.58s22.07-29.56,20.73-63.01-40.47-68.56-46.12-69.53c0,0,36.32,32.92,36.11,74.59-.21,41.67-17.42,43.07-29.86,66.28-9.09,16.96-25.71,68.43,47.91,138.09Z"/><path class="cls-15" d="m891.31,1044.75s-16.49-42.18,7.22-83.78c23.7-41.59,26.56-51.35,19.53-110.63-7.03-59.28-22.65-147.76-42.42-175.8s-46.91-70.22-95.88-51.63c-48.97,18.58-29.94,60.92,8.7,67.7,38.64,6.78,47.49-15.04,43.07-35.4-4.42-20.35-23.6-27.14-38.94-19.47s-7.67,23.01.29,23.3c7.96.29,9.14-5.31,7.37-7.67s1.77-4.42,4.42,3.54c2.65,7.96,1.18,18.88-11.5,20.65-12.68,1.77-27.43-3.83-27.73-12.09-.29-8.26,7.08-42.77,35.69-40.41,28.61,2.36,48.97,30.68,55.75,42.18,6.78,11.5,33.63,45.43,39.23,84.66,5.6,39.23,14.16,57.23,5.9,104.13s-38.54,134.52-10.71,190.71Z"/><path class="cls-15" d="m797.85,565.34s21.63-5.52,22.91-25.05c1.28-19.54,9.55-30.93,14.85-32.92,0,0-21.92,2.66-32.78,24.42-10.86,21.76-4.98,33.55-4.98,33.55Z"/><path class="cls-15" d="m768.62,572.09s15.57-8.16,18.02-21.54c2.45-13.38.12-22.41,4.88-29.71,0,0-29.26,15.17-22.9,51.25Z"/><path class="cls-15" d="m745.83,572.93s14.81-16.39,14.86-27.08c.05-10.69-2.61-12.71.74-19.16,0,0-27.4,23.66-15.59,46.24Z"/><path class="cls-15" d="m716.59,583.28s15.63-8.57,12.56-24.16c-3.07-15.59,8.45-26.56,8.45-26.56,0,0-35.04,12.92-21.01,50.72Z"/><path class="cls-15" d="m830.11,981.54s-12.56-13.93-3.51-66.89c9.05-52.95,3.29-98.97-35.57-139.38-38.86-40.41-101.11-54.28-149.19-28.32-48.08,25.96-39.82,83.78-16.22,113.28,23.6,29.5,58.8,40.41,71.73,13.57,0,0-18-13.03-1.5-24.95,16.5-11.92,23.25,12.56,20.61,24.95-2.64,12.39-23.75,41.55-68.21,33.02-44.46-8.53-74.26-51.3-65.7-99.39,8.55-48.08,47.72-93.12,107.78-93.61,60.07-.49,125.65,44.91,157.31,133.86,31.67,88.95,13.67,146.48,1.87,143.82-11.8-2.65-19.41-9.96-19.41-9.96Z"/><path class="cls-11" d="m879.61,909.2s6.19-25.96-3.83-46.61c-10.03-20.65-17.99-31.56-17.99-36.58,0,0-5.31,53.1,21.83,83.19Z"/><path class="cls-11" d="m886.72,867.6s8.17-24.19-5.23-45.58c-13.4-21.39-20.43-22.68-24.14-32.06,0,0-.15,22.32,15.92,41.57,16.07,19.25,13.45,36.07,13.45,36.07Z"/><path class="cls-11" d="m891.7,802.41s1.77-31.86-12.39-45.43c-14.16-13.57-32.74-20.35-34.22-26.55,0,0,9.22,31.19,23.34,42,14.12,10.81,23.27,29.98,23.27,29.98Z"/><path class="cls-11" d="m889.19,746.38s-7.61-30.52-23.79-41.08c-16.18-10.56-25.03-6.72-32.41-14.1,0,0,17.02,26.51,32.41,29.63,15.38,3.12,23.79,25.55,23.79,25.55Z"/><path class="cls-1" d="m809.57,888.67s-3.85-39.7-23.55-39.82c-19.69-.12-4.35,23.48-9.66,31.44-5.31,7.96-24.98,8.66-25.91-4.08-.93-12.74,6.74-17.46,13.23-15.69,6.49,1.77,6.49,15.63,2.06,16.52s-9.44.59-8.26-4.72c1.18-5.31,5.31-.59,5.31-.59,0,0-2.95-6.78-7.67-1.18-4.72,5.6,5.01,13.27,9.73,10.91,4.72-2.36,9.14-5.9,6.49-17.11-2.65-11.21-16.87-6.79-20.97-1.77s-9.37,17.64,8.01,26.08c17.39,8.44,25.65,2.24,23.88-10.44-1.77-12.68-5.31-22.12,2.36-23.01,7.67-.88,18.34,5.25,24.95,33.45Z"/><path class="cls-1" d="m773.26,836.19s0,13.85-8.12,16.51c0,0,7.97,3.31,7.16,7.41,0,0,7.15-16.84.96-23.92Z"/><path class="cls-8" d="m668.02,852.7c2.29,2.98,7.74,5.17,4.2,13.13-3.54,7.96-13.58,9.14-19.03,0-5.45-9.14-6.02-14.75-1.9-19.62,4.12-4.87,3.42-18.16-9.5-12.84s-10.58,40.85,21.43,44.32c32.01,3.47,21.7-20.47,18.45-27.97-3.25-7.5-23.76-10.16-13.65,2.97Z"/><path class="cls-8" d="m625.82,822.73c5.46-6.16,10.14-13.2,25.47-9.39,15.33,3.81,23.18,19.45,14.83,22.84-8.35,3.39-15.05-6.64-11.4-10.18s-8.87-11.57-18.25-3.28c-9.38,8.29-7.19,25.06-10.64,18.15-3.45-6.91-3.63-14.05,0-18.15Z"/><path class="cls-4" d="m561.96,794c5.13-1.32,10.38,16.05,0,16.5s-10.86-13.7,0-16.5Z"/><path class="cls-6" d="m563.38,838.11c3.52-.39,9.68,5.85,8.09,10.74s-12.12,2.24-12.17-2.63c-.05-4.87-1.23-7.52,4.08-8.11Z"/><path class="cls-6" d="m589.04,881.17c3.92,2.39,8.55,11.52,0,11.36s-10.9-10.18-7.96-11.36c2.94-1.18,2.65-3.24,7.96,0Z"/><path class="cls-4" d="m599.95,927.78c1.18-.07,7.37,5.31,6.19,10.32-1.18,5.01-11.29,2.89-12.28-2.24-.99-5.13.78-7.79,6.09-8.08Z"/><path class="cls-4" d="m628.86,914.51s3.83,3.24,2.65,7.37c-1.18,4.13-8.44,4.13-8.35,0,.09-4.13.09-7.37,5.69-7.37Z"/><path class="cls-8" d="m816.24,981.54s-27.65-55.06-63.41-50.28c-35.76,4.78-79.86,12.6-106.49-11.52,0,0,9.1,34.88,68.82,23.53,59.72-11.36,101.14,38.34,101.08,38.27Z"/><path class="cls-4" d="m845.09,815.25s-12.63-18.24-18.04-42.46c-5.41-24.22-32.85-80.82-61.91-88.95,0,0,39.88,37.62,44.42,65.7,4.55,28.09,35.52,65.7,35.52,65.7Z"/><path class="cls-4" d="m809.57,768.82s-8.52-20.7-13.2-33.08c-4.68-12.38-41.24-56-64.41-57.79,0,0,50.17,38.03,60.7,65.17,10.53,27.14,16.9,25.7,16.9,25.7Z"/><path class="cls-4" d="m776.8,734.56s-21.65-17.68-30.52-30.07c-8.87-12.4-30.68-40.07-64.61-38.92,0,0,35.41,15.31,39.97,25.64,4.56,10.32,43.21,42.17,55.15,43.36Z"/><path class="cls-4" d="m715.16,703.89s-12.55-7.05-22.73-20.05c-10.18-13-30.99-38.15-64.98-27.34,0,0,34.06.92,46.64,22.38,12.58,21.46,41.06,25.01,41.06,25.01Z"/><path class="cls-4" d="m674.1,698s-19.72-8.81-27.76-23c-8.04-14.18-38.63-23.64-59.47-9.47,0,0,36.63-5.85,47.57,12.42,10.94,18.27,39.66,20.05,39.66,20.05Z"/><path class="cls-4" d="m650.1,703.88s-15.81,1.18-29.44-12.68c-13.63-13.86-42.96-6.76-48.94,3.85,0,0,30.09-11.81,39.19-1.34,9.1,10.47,29.16,14.89,39.19,10.17Z"/><path class="cls-4" d="m634.44,713.82s-36.68-20.55-62.72,2.46c0,0,24.05-14.36,62.72-2.46Z"/><path class="cls-4" d="m627.46,723.39s-40.22-13.03-59.52,11.17c0,0,21.54-17.03,59.52-11.17Z"/><path class="cls-4" d="m610.91,734.56s-37.02-2.37-49.95,19.62c0,0,23.74-20.21,49.95-19.62Z"/><path class="cls-10" d="m480.04,531.64c4.62-6.26-1.42-16.19-7.83-16.83s-12.7,5.24,1.83,12.54c14.53,7.29,25.21-9.96,25.21-9.96"/><path class="cls-10" d="m500.28,521.2s9.16,12.18-7.52,18.32c-16.67,6.14-15.84-8.65-7.45-8.46,8.39.19,6.34,17.85-5.1,17.56s-10.44-8.94-8.31-15.1c2.13-6.17-4.01-13.27-13.42-9.41-9.42,3.86-2,15.98,3.25,16.13,5.25.15,8.48,8.7,3.36,14.39s-15.14,2.18-16.36-2.61c-1.22-4.79-7.78-18.85-19.8-5.84-12.03,13.01,10.99,17.45,15.37,11.64,4.37-5.81,14.37-12.25,25.96-.26"/><path class="cls-2" d="m467.6,557.13s-8.27-7.3-8.93,2.28c-.66,9.58,13.66,13.4,22.55,5.63,8.89-7.77,11.1-23.25,7.4-22.04s-3.93,13.28,4.34,13.71c8.27.43,8.65-9.4,4.94-11.17-3.72-1.77.06,5.72,5.42,8.11,5.36,2.39-8.82,17.73,2.57,21.46,11.39,3.73,12.19-15.66,6.16-16.24-6.03-.58-5.19,5.9-16.61,16.41s-19.95-.81-14.63-5.32c5.31-4.51,12.3-.33,6.3,3.68"/><path class="cls-12" d="m480.04,531.64c5-6.12-.86-17.15-8.44-17.51-3.02-.2-7.26,1.33-7.12,4.95.43,4.24,5.87,7.16,9.27,8.92,3.59,1.78,7.74,2.31,11.61,1.17,5.98-1.79,10.73-6.55,13.89-11.78-.89,1.24-1.89,2.39-2.95,3.5-5.49,5.79-13.07,9.83-20.91,6.3-3.03-1.4-7.99-4.12-9.27-7.28-.51-1.19-.06-2.52.99-3.24,1.6-1.21,4.03-1.51,6.02-1.06,6.16,1.63,10.7,10.41,6.91,16.04h0Z"/><path class="cls-12" d="m500.28,521.2c1.89,2.82,2.98,6.41,2.07,9.76-1.16,4.05-5.02,6.5-8.74,7.95-.7.29-1.71.62-2.42.85-2.39.69-5.02,1.22-7.48.7l-.24-.05c-.14-.04-.56-.18-.7-.22-.27-.13-.63-.26-.87-.42-1.71-.92-2.44-3.08-1.77-4.9.63-1.83,2.38-3.14,4.29-3.31,1.92-.27,3.84.59,4.69,2.38,2.2,4.63-.28,11.29-4.98,13.33-2.73,1.24-6.87.81-9.5-.51-4.47-2.31-3.69-8.16-2.36-12.2.21-.66.47-1.38.6-2.07.41-2.22-.13-4.6-1.47-6.42-2.71-3.81-7.85-4.51-12.04-3.06-3.94,1.19-6.62,4.04-6.07,8.34.47,3.97,3.95,9.09,8.17,9.6.6.03,1.23.12,1.78.37,1.09.47,1.99,1.4,2.61,2.49,1.93,3.36,1.17,7.89-1.56,10.6-3.66,3.76-10.46,2.96-13.9-.71-.67-.72-.99-1.59-1.22-2.51-1.5-4.63-4.77-10.4-10.12-10.96-4.28-.36-7.86,2.71-10.59,5.64-4.36,4.67-5.3,10.26,1.32,13.35,3.74,1.65,8.58,2.09,12.43.53.66-.29,1.29-.67,1.83-1.18.52-.52.87-1.09,1.34-1.62,2.62-3.08,6.27-5.51,10.36-5.92,5.6-.62,10.71,2.69,14.5,6.51-.96-.99-1.95-1.96-3.03-2.82-5.86-4.84-12.98-5.69-19.23-1.02-1.13.83-2.16,1.79-3.09,2.84-.45.49-.85,1.1-1.32,1.54-1.51,1.31-3.6,1.69-5.56,1.81-7.88.31-16.47-4.38-9.43-12.54,2.32-2.62,5.34-5.45,8.93-5.91,5.68-.6,9.25,6.01,10.56,10.72,1.08,3.76,5.51,5.73,9.11,6.05,6.43.62,11.51-4.5,11.17-10.88-.17-3.49-2.44-7.42-6.24-7.81-2.07-.02-3.81-1.55-5.05-3.11-1.96-2.5-3.38-6.31-1.5-9.22.96-1.47,2.62-2.3,4.25-2.83,2.44-.81,5.2-.96,7.55.15,2.9,1.29,4.74,4.58,4.15,7.72-.12.65-.35,1.26-.55,1.9-.42,1.34-.75,2.73-.94,4.15-.38,2.85-.04,6.16,2.18,8.28,2.14,2.07,5.27,2.63,8.13,2.66,6.28.16,10.62-5.57,10.6-11.52.06-2.88-1.32-6.31-4.42-6.95-1.44-.33-3.02-.12-4.33.55-3.14,1.55-4.32,5.98-1.59,8.46.56.49,1.21.85,1.9,1.11,0,0,.52.15.52.15l.26.08c2.54.53,5.13.07,7.56-.67l.5-.15.49-.17.98-.35.97-.39c3.79-1.56,7.7-4.18,8.8-8.36.86-3.41-.34-7.03-2.32-9.83h0Z"/><path class="cls-12" d="m467.6,557.13c-4.03-3.48-8.59-4.55-9.1,2.24-.02.42-.04.94,0,1.36.27,5.19,5.39,8.33,10.15,8.75,7.75.79,14.12-3.71,17.94-10.17,2.33-3.78,5.33-11.26,4.07-15.66-.72-2.07-2.83-1.47-3.82-.01-2.05,3.08-1.6,7.95.54,10.87,1.46,2.02,3.97,3.02,6.41,2.91,2.13-.03,4.29-.91,5.59-2.66,2.12-2.69,2.2-7.99-1.06-9.82-.81-.47-2.24-.7-2.57.55-.21,1.12.42,2.15.92,3.04,1.33,2.13,3.1,3.92,5.26,5.22.42.27,1.12.53,1.46.79.28.23.43.58.47,1.06.07,1.04-.26,2.18-.56,3.21-.68,2.22-1.59,4.44-2.17,6.81-.59,2.42-.92,5.24.62,7.46,1.58,2.17,4.25,3.09,6.81,3.2,4.27.12,6.9-3.6,7.6-7.43.76-3.52.22-10.6-4.59-10.62-.82,0-1.66.1-2.43.46-1.2.54-2.07,1.54-2.83,2.54-1.42,1.94-2.63,3.94-4.06,5.85-2.1,2.84-4.48,5.46-7.06,7.87-2.51,2.3-5.64,4.35-9.16,4.3-3.37.04-6.86-2.79-6.53-6.34.21-2.36,2.52-3.91,4.63-4.53,4.46-1.18,7.54,2.2,3.01,5.26,4.82-3.05,1.48-6.7-3.09-5.56-2.29.62-4.73,2.22-5.03,4.77-.45,3.88,3.29,7.07,6.98,7.11,5.04.14,9.04-3.49,12.36-6.86,1.68-1.7,3.25-3.51,4.71-5.41,1.45-1.86,2.73-3.91,4.14-5.78,1.13-1.51,2.42-2.59,4.32-2.47,0,0,.41.03.41.03,1.29.11,2.07,1.21,2.56,2.46,1.11,3.12.79,6.87-.78,9.79-1.78,3.28-5.07,3.85-8.33,2.43-2.1-.83-3.35-2.59-3.32-4.86.04-4.11,2.22-7.82,3.09-11.86.28-1.31.36-3.08-.83-4.04-.61-.48-1.08-.56-1.65-.93-2.29-1.4-4.48-3.61-5.44-6.14-.04-.18-.1-.36-.07-.49,0,0,0,.02-.03.05-.03.03-.07.07-.11.09-.07.03-.04,0,.03.02.24.04.66.21.89.4.49.35.82.86,1.08,1.45,1.2,2.9-.13,6.89-3.29,7.83-3.28,1-6.67-.11-8.08-3.38-.88-2-1.05-4.41-.44-6.5.3-.9.73-1.84,1.63-2.2.75-.29.87,1.49.89,2.04.05,2.27-.49,4.6-1.18,6.78-2.15,6.48-6.3,13.07-13,15.46-4.31,1.51-9.51,1.35-13.3-1.38-2.44-1.75-3.69-4.55-3.35-7.54.47-6.29,5.09-4.77,8.71-1.83h0Z"/><path class="cls-10" d="m523.51,491.63c-4.4,4.07-12.33,6.91-6.98,13.01,5.35,6.1,11.65.95,10.3-.77s-11.72-6.32-19.4.77c-7.68,7.09-12.59,3.01-12.89.19-.29-2.82,13.35-13.26,12.23,2.54-1.12,15.8-23.7-2.22-29.92-4.2-6.23-1.98-13.9,4.89-10.46,8.67,3.44,3.78,13.03.8,9.69-13.19-3.35-13.99,13.54-9.62,10.56-4.6-2.98,5.02-10.7,12.94-15.7,3.83-5-9.12-1.37-12.12-1.86-18.86-.48-6.74-7.3-14.35-11.49-8.33-4.19,6.02,8.83,15.89,14.41,15.85,5.58-.03,10.42-13.99,4.41-19.34-6-5.35-8.24,3.64-3.28,10.24,4.96,6.6,21.54,12.88,26.51,6.66,4.97-6.22,5.25-15.12-4.21-15.45-9.45-.33-1.48,16.5,6.05,17.67s6.8-4.45,15.41-9.24c8.61-4.78,8.82,7.79,3.85,7.32-4.98-.47-13.31-6.83-8.77-10.58,4.54-3.76,12.74-8.01,6.52-13.06-6.22-5.05-16.44,3.95.96,11.21,17.4,7.25,13.6,14.98,8.92,17.33"/><path class="cls-16" d="m532.2,489.8s-8.27-18.12-15.91-6.88c-7.64,11.24.06,16.19,2.02,12.72,1.96-3.46,3.61-15.42-8.51-7.99-12.12,7.43-1.81,25.41-15.26,17.17s11.73-8.96,13.64-5.57c1.91,3.4-1.71-22.73-18.29-14.32-16.58,8.41,2.01,18.59,5.2,15.65,3.2-2.94,7.03-6.53-6.14-18.62-13.17-12.09-1.98-15.49-1.98-15.49"/><path class="cls-12" d="m523.33,491.64c-2.61,2.65-9.55,5.61-8.73,9.91.26,1.31,1.08,2.42,1.96,3.39,1.33,1.46,3.14,2.58,5.15,2.66,1.94.08,4.15-.76,5.06-2.58.34-.78-.05-1.29-.68-1.73-1.09-.77-2.32-1.28-3.57-1.69-5.01-1.66-10.92-.96-14.94,2.62-1.92,1.73-4.05,3.42-6.61,4.04-2.46.67-5.51-.31-6.34-2.88-.24-.62-.05-1.2.31-1.73.35-.54.78-1.02,1.24-1.48,2.38-2.39,7.8-5.24,9.61-.83.85,2.11.75,4.49.55,6.72-.34,3.15-1.93,5.56-5.36,5.57-5.84-.09-12.86-4.6-17.95-7.42-1.14-.65-2.28-1.31-3.45-1.93-1.18-.61-2.38-1.27-3.7-1.51-2.67-.52-5.45.36-7.61,1.93-8.91,6.91,3.35,13.42,7.5,4.73,1.7-3.72,1.05-7.92.16-11.76-.45-2.42-.41-5.38,1.65-7.05,2-1.57,5.02-1.36,7.16-.16,1.01.58,2.05,1.64,1.71,2.87-.44,1.17-1.32,2.2-2.07,3.21-2.22,2.69-5.82,6.23-9.6,4.98-2.48-.92-3.72-3.46-4.79-5.72-1.86-3.98-1.97-7.12-1.18-11.38.42-2.6.63-5.37-.12-7.94-.98-3.44-3.94-8.31-7.96-8.23-2.12.15-3.85,2.01-4.34,4-.45,2.06.47,4.1,1.6,5.76,2.62,3.82,8.78,8.45,13.49,8.83,1.96.14,3.61-1.29,4.71-2.77,1.96-2.71,2.96-6.07,3.04-9.41.04-2.66-.65-5.54-2.64-7.43-2.23-2.25-5.51-3.06-6.48.8-.58,2.68.17,5.43,1.42,7.79,1.25,2.38,3.28,4.24,5.48,5.74,5.06,3.38,12.67,6.4,18.8,5.03,1.3-.34,2.59-.94,3.51-1.98,2.54-3,4.42-7.15,3.5-11.13-.66-2.81-3.2-4.5-5.93-4.89-1.34-.18-2.73-.32-4.03.21-4.09,1.91-1.6,8.07.13,10.91,1.38,2.27,3.15,4.36,5.43,5.77,1.14.72,2.47,1.13,3.82,1.2,1.32.12,2.73,0,3.96-.63,1.23-.61,2.18-1.59,3.08-2.54,2.6-2.86,5.58-5.66,9.26-7.01,1.87-.68,3.95-.15,4.7,1.83.67,1.72.48,3.99-.88,5.32-.98.94-2.39.59-3.57.25-2.47-.77-4.78-2.19-6.54-4.08-2.04-2.25-2.46-4.58.3-6.43,2.59-2.15,7.53-4.95,8.06-8.45.18-1.37-.59-2.68-1.54-3.59-1.38-1.43-3.4-2.33-5.42-2.1-2.16.15-4.34,1.9-4.15,4.21.07,1.18.66,2.25,1.38,3.16,2.58,3.08,6.42,4.6,10.01,6.16,2.38,1.09,4.72,2.33,6.8,3.93,3.11,2.33,5.93,6.27,3.39,10.05-.73,1.09-1.77,1.97-2.94,2.56,2.34-1.14,4.23-3.6,3.92-6.3-.33-2.67-2.3-4.77-4.33-6.37-2.08-1.62-4.42-2.87-6.8-3.98-3.81-1.7-8.08-3.35-10.49-6.96-2.89-4.8,2.97-7.9,6.94-5.4.26.13.56.38.8.55,0,0,.37.32.37.32.6.53,1.16,1.16,1.49,1.88,2.15,4.64-6.71,8.54-9.14,11.45-2.99,4.46,5.94,10,9.78,10.09,5.34.07,4.58-13.26-4.95-7.18-2.57,1.51-4.76,3.6-6.75,5.79-.9.95-1.82,1.88-2.97,2.45-1.14.58-2.45.69-3.74.58-1.29-.07-2.53-.46-3.62-1.15-2.2-1.37-3.93-3.43-5.26-5.63-2.68-4.4-4.38-11.78,3.42-10.39,8.25,1.36,6.34,10.45,2.13,15.17-4.93,5-16.73.31-21.63-3.14-3.27-2.15-5.86-5.26-6.63-9.17-.69-2.83.09-7.78,4.02-5.48,1.09.65,2.02,1.56,2.68,2.65,2.45,4.3,1.16,10.75-1.65,14.61-1.83,2.44-3.65,3.11-6.55,2.04-4.22-1.57-8.07-4.45-10.71-8.09-1.41-1.97-2.41-4.86-.74-6.96,1.71-2.44,4.28-2.38,6.41-.55,1.96,1.65,3.28,4.02,4,6.47.72,2.51.52,5.14.11,7.7-.8,4.36-.68,7.62,1.23,11.7,1.05,2.23,2.29,4.69,4.63,5.81,4.19,1.85,8.22-1.95,10.69-4.97.62-.78,1.2-1.59,1.72-2.45.39-.56.65-1.35.47-2.06-.65-2.39-3.67-3.36-5.89-3.39-5.67.07-6.68,5.14-5.48,9.75.79,3.42,1.16,7.2-.32,10.48-.54,1.15-1.34,2.18-2.39,2.9-2.02,1.45-5.22,1.38-6.77-.7-1.58-2.28.52-4.97,2.4-6.33,2.55-1.89,6.13-2.7,9.07-1.27,1.79.81,3.48,1.81,5.19,2.78,5,2.73,14.5,8.84,20.17,7.1,2.77-.86,3.7-3.97,3.79-6.57.1-1.98.09-4.04-.68-5.91-1.25-3.08-4.38-2.93-6.92-1.58-1.19.61-2.27,1.4-3.23,2.33-.7.71-1.43,1.48-1.71,2.47-.22,1.68,1.37,3.32,2.82,3.89,2.56,1.05,5.39,0,7.57-1.44,1.11-.72,2.11-1.61,3.08-2.48,1.97-1.72,4.41-2.87,6.99-3.28,2.58-.42,5.26-.15,7.75.63,1.24.4,2.47.91,3.54,1.66.25.19.52.4.67.67.33.94-.59,1.82-1.28,2.34-1.06.75-2.38,1.14-3.68,1.08-1.98-.07-3.78-1.17-5.1-2.61-.88-.95-1.69-2.05-1.96-3.34-.83-4.26,6.08-7.25,8.67-9.9h0Z"/><path class="cls-10" d="m540.25,641.04c-4.96-5.99-16.06-2.52-18.22,3.55s2.03,13.59,12.61,1.25c10.58-12.35-3.6-26.87-3.6-26.87"/><path class="cls-2" d="m534.99,618.89s14.02-5.96,15.97,11.7-12.21,13.29-10.01,5.2c2.2-8.1,18.85-1.85,15.81,9.17-3.04,11.03-11.19,7.98-16.66,4.43-5.47-3.55-13.84.69-12.37,10.76,1.48,10.07,15.03,5.78,16.44.73,1.41-5.06,10.49-6.13,14.78.2,4.29,6.34-1.53,15.22-6.47,15.25-4.94.03-20.16,3.01-10.43,17.82,9.73,14.8,19.58-6.47,14.99-12.11-4.59-5.64-8.43-16.89,6-25.26"/><path class="cls-15" d="m562,659.25s-9.07,6.27.07,9.21c9.14,2.95,16.29-10.03,10.89-20.54-5.4-10.5-19.89-16.37-19.61-12.49.28,3.88,11.95,7.01,14.35-.91,2.41-7.92-7.04-10.66-9.66-7.48-2.61,3.18,5.57,1.32,9.17-3.31,3.61-4.63,15.09,12.83,21.45,2.67,6.36-10.16-12.27-15.6-14.28-9.89-2.01,5.71,4.48,6.46,11.93,20.07,7.45,13.61-5.58,19.17-8.68,12.92s2.64-12.02,5.09-5.23"/><path class="cls-12" d="m540.25,641.04c-4.65-6.17-16.18-3.44-18.84,3.4-1.13,2.98-.9,7.87,2.9,8.68,4.22.6,8.36-3.98,10.89-6.85,2.59-3.05,4.11-6.95,3.93-10.98-.3-6.24-3.78-11.99-8.09-16.32.99,1.17,1.87,2.42,2.69,3.7,4.3,6.73,6.39,15.04,1.08,21.81-2.09,2.6-5.93,6.77-9.3,7.25-1.28.21-2.45-.55-2.91-1.74-.78-1.85-.49-4.27.42-6.09,3.06-5.59,12.68-7.88,17.23-2.85h0Z"/><path class="cls-12" d="m534.99,618.89c3.19-1.15,6.94-1.35,9.97.34,3.65,2.1,5.1,6.44,5.61,10.4.11.75.19,1.81.24,2.55.1,2.49-.03,5.17-1.12,7.43l-.11.22c-.07.12-.31.5-.38.63-.19.23-.4.55-.62.74-1.31,1.44-3.57,1.63-5.18.54-1.62-1.05-2.47-3.06-2.18-4.96.2-1.92,1.5-3.58,3.44-3.98,5.02-1.02,10.89,2.99,11.74,8.04.55,2.95-.86,6.86-2.78,9.1-3.32,3.78-8.81,1.62-12.41-.65-.58-.36-1.22-.79-1.86-1.08-2.06-.93-4.5-.98-6.59-.12-4.35,1.72-6.27,6.53-5.86,10.95.2,4.11,2.32,7.4,6.63,7.9,3.96.5,9.77-1.65,11.28-5.62.18-.58.41-1.16.79-1.64.72-.95,1.84-1.6,3.05-1.93,3.73-1.06,7.94.76,9.92,4.07,2.77,4.46.35,10.87-4.03,13.32-.87.48-1.78.58-2.73.58-4.87.34-11.23,2.12-13.07,7.19-1.38,4.07.74,8.29,2.93,11.64,3.49,5.36,8.69,7.61,13.28,1.94,2.5-3.24,4.1-7.83,3.51-11.93-.12-.71-.34-1.42-.7-2.06-.38-.63-.85-1.11-1.25-1.69-2.36-3.29-3.84-7.41-3.25-11.48.74-5.58,5.19-9.75,9.81-12.51-1.19.69-2.37,1.42-3.47,2.26-6.11,4.53-8.65,11.21-5.62,18.41.76,1.98,1.99,3.63,3.19,5.34.91,1.78.77,3.9.42,5.83-1.59,7.72-8.21,14.93-14.44,6.13-1.99-2.89-4-6.48-3.59-10.09.8-5.71,8.17-7.56,13.09-7.68,3.85-.24,6.76-4,7.92-7.37,2.15-6.09-1.6-12.26-7.87-13.46-3.43-.67-7.79.58-9.08,4.18-.52,2-2.42,3.33-4.24,4.15-2.85,1.28-6.72,1.73-9.15-.6-1.3-1.31-1.76-3.18-1.87-4.97-.2-2.57.32-5.28,1.96-7.29,1.95-2.51,5.58-3.5,8.49-2.17.61.27,1.14.64,1.72.99,1.2.73,2.47,1.39,3.8,1.91,2.67,1.05,5.97,1.52,8.56-.12,2.52-1.58,3.82-4.49,4.54-7.25,1.66-6.06-2.85-11.65-8.63-13.06-2.78-.75-6.44-.24-7.81,2.62-.66,1.32-.85,2.9-.51,4.34,1.2,4.79,7.18,6.11,9.64,1.53.95-1.73,1.25-3.72,1.33-5.64.05-1.35-.05-2.83-.2-4.18-.49-3.75-1.53-7.75-4.43-10.37-3.16-2.91-8.01-2.84-11.81-1.32h0Z"/><path class="cls-12" d="m562,659.25c-4.35,3.08-6.49,7.24-.01,9.37.4.12.9.27,1.32.33,5.09,1,9.4-3.23,10.94-7.74,2.63-7.33-.2-14.6-5.55-19.86-3.1-3.17-9.66-7.89-14.22-7.72-2.18.2-2.11,2.4-.93,3.7,2.48,2.73,7.34,3.46,10.68,2.09,2.31-.93,3.89-3.13,4.36-5.52.48-2.07.15-4.38-1.24-6.07-2.1-2.7-7.22-4.06-9.79-1.34-.65.67-1.22,2.01-.09,2.62,1.03.47,2.19.11,3.17-.16,2.39-.78,4.55-2.06,6.33-3.84.36-.34.79-.96,1.11-1.23.29-.22.66-.28,1.15-.2,1.02.18,2.06.77,2.98,1.32,1.99,1.2,3.93,2.61,6.09,3.75,2.21,1.15,4.86,2.15,7.39,1.2,2.49-1.01,4.02-3.38,4.75-5.84,1.14-4.12-1.83-7.56-5.38-9.17-3.24-1.59-10.23-2.77-11.41,1.9-.21.8-.3,1.63-.14,2.47.24,1.3,1,2.38,1.79,3.36,1.54,1.84,3.19,3.5,4.7,5.35,2.25,2.72,4.22,5.66,5.94,8.75,1.63,2.99,2.87,6.52,1.97,9.92-.78,3.28-4.35,5.99-7.72,4.82-2.24-.78-3.19-3.39-3.28-5.59-.07-4.62,3.95-6.79,5.83-1.66-1.81-5.41-6.15-3.05-6.14,1.66.04,2.38,1.01,5.13,3.42,6.03,3.66,1.37,7.65-1.49,8.58-5.06,1.35-4.86-1.21-9.62-3.68-13.65-1.24-2.04-2.63-4-4.12-5.87-1.46-1.86-3.14-3.59-4.61-5.41-1.2-1.46-1.93-2.97-1.36-4.79.63-2.67,4.25-2.53,6.46-2.11,2.18.45,4.35,1.42,5.98,2.94,2.75,2.52,2.51,5.85.36,8.67-1.31,1.84-3.32,2.63-5.52,2.05-3.98-1.02-7.06-4.04-10.76-5.85-1.2-.59-2.91-1.09-4.12-.16-.61.48-.8.91-1.3,1.38-1.78,1.8-5.02,3.78-7.59,3.79-.09,0-.17-.03-.17-.04,0,0,.02,0,.05.04.02.03.05.09.06.12.01.07,0,.04.03-.03.39-.84,1.33-1.34,2.26-1.46,2.56-.36,5.52,1.07,6.47,3.55.6,1.5.4,3.22-.15,4.71-1.14,3.33-4.83,4.45-8.04,3.83-1.73-.32-4.51-1.31-4.85-3.23-.1-.8,1.66-.48,2.19-.38,2.22.5,4.34,1.59,6.3,2.77,5.78,3.64,11.17,9.26,11.87,16.34.43,4.55-.98,9.56-4.54,12.58-2.28,1.95-5.31,2.48-8.12,1.44-6-1.97-3.4-6.09.32-8.89h0Z"/><path class="cls-15" d="m511.88,589.22c2.89,5.25,3.74,13.63,10.95,9.91,7.21-3.73,3.73-11.08,1.73-10.18-2,.9-8.96,9.85-3.92,19.01,5.04,9.16-.11,12.95-2.92,12.55-2.8-.39-9.66-16.15,5.41-11.26,15.06,4.89-7.86,22.46-11.28,28.04-3.42,5.57,1.4,14.67,5.9,12.24s3.91-12.46-10.47-12.58c-14.39-.12-6.08-15.45-1.93-11.35s9.99,13.5-.06,16.16c-10.05,2.66-12.1-1.58-18.75-2.74-6.66-1.15-15.69,3.63-10.85,9.15,4.84,5.52,17.55-4.75,18.86-10.17s-11.07-13.48-17.71-8.94c-6.64,4.54,1.55,8.88,9.15,5.65,7.6-3.23,17.69-17.8,12.84-24.12-4.84-6.32-13.41-8.73-16.01.36-2.59,9.1,15.66,5.41,18.61-1.62,2.95-7.02-2.69-7.67-5.26-17.17-2.57-9.5,9.68-6.69,8.03-1.97-1.65,4.72-9.83,11.27-12.38,5.97-2.56-5.31-4.71-14.3-11.1-9.47-6.39,4.82-.12,16.91,11.11,1.77,11.22-15.14,17.82-9.6,18.97-4.49"/><path class="cls-16" d="m512.2,580.34s-19.58,3.66-10.51,13.78c9.07,10.12,15.72,3.84,12.84,1.1-2.89-2.74-14.09-7.22-9.8,6.33,4.29,13.55,24.23,7.87,13,18.95-11.23,11.08-5.88-13.54-2.12-14.57,3.76-1.03-22.48-3.81-18.3,14.31,4.17,18.12,18.53,2.53,16.44-1.28-2.09-3.81-4.65-8.4-19.55,1.47-14.9,9.87-15.52-1.8-15.52-1.8"/><path class="cls-12" d="m511.85,589.4c1.94,3.17,3.14,10.62,7.52,10.86,1.33.06,2.61-.46,3.76-1.09,1.74-.94,3.26-2.43,3.82-4.36.54-1.86.26-4.22-1.29-5.53-.68-.52-1.26-.27-1.84.24-1.01.87-1.8,1.94-2.5,3.06-2.82,4.46-3.56,10.37-1.05,15.14,1.22,2.28,2.34,4.75,2.33,7.38.06,2.55-1.63,5.28-4.32,5.46-1.99.32-3.85-4.28-4.18-5.89-.65-2.61-.14-5.5,2.94-5.92,2.26-.31,4.54.35,6.66,1.08,2.98,1.09,4.93,3.21,4.11,6.54-1.49,5.64-7.57,11.38-11.52,15.64-.91.95-1.82,1.9-2.7,2.88-.87,1-1.8,2-2.36,3.22-1.15,2.46-.96,5.38.04,7.86.93,2.38,3.35,5.25,6.19,4.13,1.3-.54,2.26-1.7,2.69-3,1.38-4.33-2.15-7.94-6.02-9.17-2.52-.9-5.2-1.02-7.85-1.09-2.46-.14-5.32-.89-6.44-3.3-1.04-2.32-.11-5.2,1.57-6.99.8-.84,2.09-1.59,3.2-.97,1.03.71,1.82,1.82,2.61,2.78,1.85,2.51,3.72,5.58,3.22,8.81-.65,3.41-4.43,4.44-7.41,4.98-2.53.49-5.19.54-7.68-.21-2.51-.73-4.84-2.09-7.41-2.71-2.59-.71-5.37-.61-7.93.19-3.04.89-7.06,3.5-5.78,7.18.5,1.3,1.41,2.45,2.66,3.08,4.15,1.93,9.65-1.73,12.72-4.39,2.05-1.83,5.5-5.38,5.24-8.32-.23-2.07-1.64-3.77-3.12-5.12-3-2.61-6.95-4.4-10.99-4.19-2.04.11-4.01.99-5.45,2.46-3.5,3.71,1.22,6.13,4.73,6.15,4.12.2,7.9-1.63,10.87-4.38,4.5-4.1,9.26-10.75,9.4-17.04-.01-1.34-.29-2.74-1.07-3.89-.77-1.12-1.69-2.08-2.69-2.96-2.9-2.57-7.66-4.51-11.08-1.79-1.87,1.47-3.43,4.85-3.13,7.22.87,4.43,7.44,3.5,10.62,2.5,3.37-1.1,7.1-2.97,8.64-6.36,1.43-3.32.97-5.61-1.04-8.53-2.15-3.22-4.15-6.78-4.57-10.68-.21-1.97.81-3.87,2.91-4.12,2.23-.35,5.82,1.2,5.15,3.91-1.13,3.28-4.76,6.89-8.13,7.84-2.26.59-3.6-.49-4.38-2.56-1.46-3.03-2.99-8.5-6.26-9.85-1.29-.51-2.74-.08-3.86.64-2.32,1.31-3.9,4.07-3.26,6.75.63,2.65,3,3.66,5.48,2.84,4.11-1.49,6.74-5.27,9.31-8.6,1.64-2.05,3.4-4.02,5.46-5.66,3.01-2.46,7.51-4.24,10.57-.88.89.97,1.49,2.19,1.78,3.47-.55-2.54-2.48-4.98-5.17-5.32-2.67-.33-5.18,1.09-7.23,2.67-2.07,1.63-3.85,3.6-5.5,5.65-2.57,3.29-5.19,7.04-9.28,8.5-5.36,1.65-6.96-4.79-3.57-8.04.19-.22.51-.45.72-.64,0,0,.4-.28.4-.28.66-.45,1.4-.84,2.18-1,5.02-.97,6.67,8.57,8.91,11.63,3.6,3.98,11.14-3.36,12.15-7.06,1.35-5.17-11.77-7.63-8.16,3.07.85,2.86,2.35,5.48,4,7.94.7,1.1,1.39,2.22,1.66,3.47.28,1.24.08,2.55-.34,3.76-.38,1.23-1.05,2.35-1.99,3.24-1.86,1.81-4.27,2.98-6.73,3.75-4.9,1.55-12.5,1.4-9.26-5.82,2.54-5.99,8.48-4.94,12.64-1.28.97.85,1.88,1.81,2.6,2.86.71,1.04.97,2.34.99,3.61-.13,6.91-6.62,15.42-12.35,18.96-3.23,1.92-7.59,2.67-11.07,1.03-1.06-.52-2.04-1.58-1.65-2.82.16-.57.54-1.08.98-1.53.89-.9,2-1.59,3.21-1.96,5.1-1.49,12.38,2.1,14.84,6.71,1.03,1.86.47,3.59-.65,5.26-1.06,1.63-2.41,3.06-3.87,4.34-3.12,2.74-10.01,7.25-13.5,3.15-1.96-2.25-1.28-4.72,1.01-6.35,2.6-1.86,6-2.58,9.16-2.24,3.29.38,6.15,2.12,9.29,3.07,3.87,1.13,8.04.52,11.79-.83,4.73-1.93,4.89-6.15,2.79-10.24-.9-1.79-2.08-3.42-3.41-4.9-.48-.5-.88-1.04-1.51-1.39-1.33-.75-2.91.08-3.83,1.07-2.95,3.13-3.16,8.48,1.29,10.33,2.49,1.13,5.22.74,7.84,1.07,3.7.43,7.96,1.93,9.41,5.67.44,1.18.49,2.51.09,3.7-.86,2.57-3.59,3.95-5.81,1.97-2.79-2.51-3.78-7.18-2.23-10.6.54-1.18,1.43-2.15,2.28-3.12,4.52-5.14,12.55-12.12,14.26-18.73.96-3.99-1.78-6.26-5.3-7.28-2.46-.7-5.47-1.53-7.79-.03-3.21,2.39-.85,8.49,1.36,10.91.35.35.79.76,1.33.8,1.55.14,3.05-.74,3.94-1.96,1.64-2.23,1.29-5.24.43-7.69-.43-1.25-1.05-2.43-1.66-3.59-1.2-2.32-1.73-4.97-1.5-7.58.22-2.61,1.12-5.14,2.48-7.37.69-1.11,1.48-2.18,2.46-3.03.25-.2.52-.41.81-.49.99-.1,1.62,1.01,1.97,1.81.47,1.21.53,2.58.16,3.83-.55,1.9-2.05,3.39-3.76,4.32-1.13.63-2.4,1.15-3.72,1.1-4.32-.21-5.57-7.65-7.52-10.8h0Z"/><path class="cls-10" d="m631.59,440.34c5.92,5.05,16.25-.28,17.34-6.62,1.09-6.34-4.34-13.04-12.64.94-8.3,13.98,8.17,25.85,8.17,25.85"/><path class="cls-2" d="m640.57,461.27s-12.79,8.28-17.75-8.79c-4.95-17.06,9.74-15.19,8.96-6.84-.78,8.36-18.25,5.07-17.16-6.32,1.1-11.39,9.65-9.78,15.65-7.22,6,2.56,13.52-3.06,10.34-12.73-3.18-9.67-15.8-3.11-16.32,2.11-.52,5.22-9.28,7.84-14.59,2.34-5.32-5.51-1.11-15.26,3.75-16.13s19.35-6.43,7.22-19.34c-12.13-12.91-18.18,9.74-12.69,14.51,5.49,4.77,11.21,15.19-1.57,25.91"/><path class="cls-15" d="m607.03,426.14s7.86-7.73-1.65-9.06c-9.51-1.33-14.33,12.68-7.2,22.1s22.41,12.71,21.47,8.94c-.94-3.77-12.97-4.85-13.98,3.37-1.01,8.22,8.77,9.29,10.8,5.71,2.03-3.58-5.71-.34-8.47,4.84-2.76,5.18-17.07-10.05-21.59,1.06-4.52,11.1,14.76,13.26,15.77,7.29,1-5.98-5.52-5.59-15.2-17.72-9.68-12.13,2.21-19.84,6.33-14.22,4.13,5.62-.53,12.29-4.12,6.03"/><path class="cls-12" d="m631.59,440.34c5.64,5.28,16.53.6,17.97-6.58.61-3.13-.47-7.91-4.35-8.05-4.26.13-7.55,5.36-9.55,8.62-2.03,3.45-2.85,7.55-1.98,11.49,1.37,6.1,5.78,11.16,10.78,14.69-1.17-.98-2.26-2.06-3.28-3.18-5.39-5.88-8.88-13.73-4.82-21.3,1.61-2.92,4.67-7.68,7.92-8.74,1.22-.43,2.51.12,3.17,1.21,1.09,1.69,1.22,4.12.63,6.08-2.06,6.03-11.14,9.95-16.49,5.77h0Z"/><path class="cls-12" d="m640.57,461.27c-2.94,1.68-6.61,2.52-9.88,1.38-3.95-1.44-6.13-5.46-7.32-9.28-.17-.5-.44-1.47-.55-1.98,0,0-.13-.5-.13-.5l-.1-.5c-.49-2.36-.72-4.93,0-7.25.05-.13.22-.54.27-.68.14-.26.3-.61.48-.84,1.04-1.64,3.24-2.22,5.01-1.42,1.94.82,3.14,2.92,3,4.99-.04,3.52-3.42,4.87-6.52,4.57-5.29-.41-10.21-4.66-9.59-10.26.25-2.55.89-5.29,2.86-7.05,1.96-1.75,4.81-1.76,7.29-1.25,1.3.27,2.58.68,3.84,1.19.64.26,1.34.57,2.02.75,3.69,1,7.79-.89,9.57-4.24,1.98-3.59,1.5-8.12-.34-11.64-3.18-5.61-10.67-3.83-14.58,0-1.09,1.07-2.03,2.34-2.29,3.91-.14,1.89-1.44,3.37-3.16,4.18-4.66,2.29-11.01-.53-12.22-5.63-1.06-3.9.99-9.98,5.04-11.31,3.47-.71,6.86-2.05,9.57-4.39,4.64-4.07,3.67-9.21.23-13.71-2.21-2.74-4.76-5.63-8.4-6.31-3.1-.55-5.73,1.71-7.07,4.28-2.07,3.8-3.16,10.61-.36,14.27.48.56,1.02.94,1.52,1.45.96.95,1.85,2,2.6,3.13,2.3,3.37,3.26,7.7,2.09,11.66-1.14,3.99-3.94,7.28-7.02,9.97,7.09-5.7,10.65-13.62,5.4-21.93-.75-1.19-1.64-2.28-2.61-3.28-.46-.48-1.03-.93-1.45-1.43-.39-.5-.69-1.1-.89-1.72-1.43-4.48.1-11.83,4.05-14.63,3.27-2.29,7.03.37,9.31,2.87,1.98,2.17,3.93,4.71,4.46,7.65.8,4.18-2.53,7.26-6.01,8.93-1.82.9-3.77,1.51-5.76,1.9-3.59,1.09-5.68,5.09-6.24,8.56-1.07,6.37,3.68,11.8,10.07,11.91,2.98.02,6.17-1.23,7.66-3.99.33-.63.54-1.34.62-2.05.09-.62.32-1.21.69-1.78,2.21-3.34,7.93-6.07,11.65-3.78,1.63,1.02,2.45,2.89,2.89,4.7.64,2.49.6,5.26-.68,7.52-1.49,2.81-4.9,4.4-7.99,3.59-.64-.17-1.23-.44-1.86-.68-1.31-.52-2.67-.94-4.07-1.23-2.82-.58-6.14-.47-8.41,1.59-2.22,1.99-3,5.08-3.23,7.92-.6,6.26,4.81,10.99,10.74,11.38,2.87.26,6.39-.87,7.25-3.92.43-1.41.34-3-.24-4.36-1.32-3.24-5.66-4.73-8.33-2.18-.52.52-.93,1.15-1.24,1.82,0,0-.19.51-.19.51l-.09.26c-.71,2.5-.43,5.11.13,7.59,0,0,.11.51.11.51l.14.5.28,1.01.33.99c1.29,3.89,3.63,7.97,7.72,9.37,3.34,1.1,7.04.15,9.97-1.63h0Z"/><path class="cls-12" d="m607.03,426.14c3.75-3.78,5.15-8.25-1.6-9.24-.42-.05-.93-.11-1.36-.1-5.2-.1-8.69,4.79-9.44,9.51-1.33,7.67,2.71,14.35,8.88,18.61,3.6,2.59,10.87,6.11,15.34,5.16,2.11-.57,1.66-2.72.28-3.8-2.93-2.26-7.81-2.15-10.88-.22-2.12,1.31-3.29,3.75-3.35,6.18-.12,2.13.61,4.34,2.26,5.76,2.53,2.3,7.81,2.76,9.87-.37.53-.77.86-2.19-.36-2.6-1.1-.29-2.18.27-3.1.7-2.22,1.18-4.13,2.81-5.58,4.88-.3.4-.61,1.08-.89,1.4-.25.26-.61.39-1.09.4-1.04,0-2.16-.41-3.16-.79-2.17-.84-4.32-1.9-6.64-2.65-2.37-.76-5.16-1.28-7.48.09-2.28,1.42-3.38,4.02-3.67,6.57-.42,4.25,3.11,7.13,6.88,8.11,3.46,1.01,10.56.97,10.92-3.83.07-.82.01-1.66-.29-2.45-.46-1.24-1.39-2.17-2.34-3-1.83-1.55-3.75-2.9-5.55-4.46-2.68-2.29-5.13-4.86-7.35-7.6-2.12-2.66-3.94-5.93-3.65-9.44.2-3.36,3.26-6.64,6.78-6.07,2.34.38,3.72,2.79,4.19,4.94.86,4.54-2.72,7.37-5.46,2.64,2.71,5.02,6.58,1.94,5.76-2.69-.45-2.33-1.88-4.88-4.4-5.35-3.84-.72-7.28,2.78-7.59,6.46-.49,5.02,2.84,9.27,5.97,12.81,1.58,1.8,3.28,3.49,5.07,5.08,1.76,1.58,3.71,3,5.47,4.54,1.43,1.24,2.42,2.6,2.16,4.49-.07,1.5-1.22,2.34-2.69,2.79-3.19.89-6.91.3-9.71-1.47-3.14-2.01-3.48-5.33-1.84-8.48.98-2.04,2.82-3.16,5.08-2.97,4.1.33,7.65,2.77,11.61,3.92,1.28.37,3.05.58,4.09-.55.52-.58.64-1.04,1.04-1.58,1.56-2.18,3.92-4.22,6.51-4.99.18-.03.36-.07.49-.04,0,0-.02,0-.05-.03-.03-.03-.07-.08-.08-.11-.02-.07,0-.04-.02.03-.03.14-.14.39-.26.59-.38.62-1,1-1.71,1.24-2.98.99-6.86-.61-7.58-3.83-.77-3.35.58-6.65,3.94-7.83,2.05-.73,4.47-.74,6.51.02.88.36,1.78.86,2.08,1.78.24.77-1.55.76-2.09.75-2.27-.11-4.55-.82-6.68-1.65-6.32-2.6-12.59-7.2-14.51-14.06-1.21-4.4-.68-9.58,2.31-13.17,1.91-2.31,4.8-3.36,7.75-2.81,6.26.93,4.4,5.4,1.22,8.81h0Z"/><path class="cls-2" d="m668.44,486.52c-3.75-4.68-6.03-12.79-12.49-7.88-6.46,4.91-1.77,11.55.04,10.33,1.81-1.23,7.13-11.24.6-19.4-6.53-8.16-2.11-12.77.72-12.87s12.29,14.25-3.39,12.02,3.88-23.48,6.29-29.56c2.41-6.08-3.9-14.21-7.91-11.05-4.01,3.16-1.71,12.94,12.48,10.59,14.19-2.35,8.65,14.18,3.85,10.85-4.8-3.33-12.16-11.58-2.71-15.93,9.44-4.35,12.19-.52,18.95-.53,6.76,0,14.83-6.27,9.12-10.88-5.71-4.6-16.47,7.69-16.83,13.26s13.22,11.37,18.98,5.76c5.76-5.61-3.05-8.48-9.99-3.99s-14.36,20.58-8.51,25.97c5.86,5.4,14.71,6.3,15.71-3.11.99-9.41-16.35-2.64-18.05,4.79-1.7,7.43,3.97,7.09,8.13,16.02,4.16,8.92-8.39,8.25-7.58,3.32.82-4.93,7.74-12.79,11.17-8,3.43,4.79,7.09,13.28,12.56,7.42,5.47-5.85-2.79-16.68-11.24.17-8.46,16.84-15.9,12.52-17.92,7.68"/><path class="cls-16" d="m669.65,495.32s18.66-6.97,7.98-15.38-16.15-1.08-12.83,1.12c3.32,2.2,15.12,4.69,8.57-7.92-6.56-12.61-25.22-3.59-16.06-16.43,9.16-12.84,8.12,12.33,4.59,13.99s22.8-.11,15.57-17.24c-7.23-17.13-18.69.69-15.98,4.09,2.71,3.39,6.02,7.47,19.01-4.81s15.6-.89,15.6-.89"/><path class="cls-12" d="m668.44,486.34c-2.46-2.79-4.92-9.92-9.27-9.41-1.32.17-2.49.9-3.52,1.72-1.55,1.22-2.79,2.95-3.02,4.95-.21,1.93.47,4.2,2.22,5.23.76.4,1.29.04,1.77-.55.84-1.03,1.44-2.22,1.94-3.44,2.01-4.88,1.73-10.83-1.57-15.09-1.59-2.04-3.13-4.28-3.56-6.87-.5-2.5.69-5.48,3.32-6.12.64-.2,1.2.03,1.71.43.51.38.97.85,1.39,1.34,2.21,2.54,4.68,8.15.15,9.65-2.17.69-4.53.44-6.75.08-3.12-.56-5.41-2.32-5.18-5.74.5-5.81,5.5-12.51,8.66-17.39.73-1.09,1.47-2.18,2.17-3.3.69-1.13,1.43-2.28,1.77-3.58.71-2.62.03-5.47-1.39-7.73-6.26-9.37-13.62,2.4-5.24,7.15,3.59,1.96,7.83,1.6,11.72.99,2.45-.28,5.4-.03,6.91,2.15,1.42,2.11,1,5.11-.35,7.16-.65.96-1.78,1.92-2.99,1.5-1.14-.52-2.1-1.48-3.05-2.29-2.25-2.16-4.62-4.86-4.69-8.12.06-3.47,3.6-5.13,6.44-6.18,2.41-.92,5.02-1.42,7.6-1.11,2.6.29,5.12,1.22,7.77,1.4,2.68.26,5.4-.32,7.78-1.55,3.77-1.85,7.27-6.11,3.12-9.63-3.47-2.94-8.11.05-10.87,2.59-2.8,2.64-5.73,6.34-6.53,10.18-.65,4.06,4.38,6.94,7.66,8.03,4.35,1.49,10.06,1.38,12.87-2.8,1.53-2.1.84-4.25-1.69-5-1.97-.59-4.05-.39-5.99.17-3.26.9-5.96,3.13-7.99,5.76-3.72,4.81-7.28,12.18-6.34,18.4.47,3,2.45,4.58,4.89,6.1,2.29,1.35,5,2.29,7.69,1.82,2.85-.46,4.71-2.88,5.3-5.57.44-1.92.67-4.43-1.17-5.71-1.75-1.17-4.02-.87-5.93-.4-3.82,1.08-7.47,3.23-9.86,6.45-.8,1.09-1.3,2.38-1.47,3.72-.21,1.31-.19,2.73.35,3.99,1.1,2.48,3.35,4.08,4.93,6.19,1.66,2.15,4.2,5.92,3.87,8.68-.2,2.03-2.3,3.06-4.17,2.91-1.76-.05-4.09-1.15-3.86-3.21.52-3.11,2.62-6.11,5.02-8.1,2.39-1.88,4.74-2.14,6.39.75,1.96,2.73,4.41,7.86,7.86,8.63,1.36.28,2.71-.4,3.69-1.29,1.52-1.28,2.57-3.23,2.47-5.25,0-2.16-1.59-4.46-3.9-4.44-1.18-.01-2.29.5-3.25,1.15-3.25,2.35-5.04,6.08-6.85,9.55-1.26,2.3-2.66,4.55-4.4,6.51-2.54,2.94-6.67,5.47-10.27,2.68-1.04-.8-1.84-1.9-2.35-3.11.98,2.41,3.29,4.48,6.01,4.35,2.69-.14,4.92-1.96,6.66-3.87,1.76-1.96,3.17-4.21,4.45-6.51,1.96-3.68,3.91-7.83,7.68-9.97,5-2.54,7.68,3.52,4.9,7.3-.15.25-.42.53-.6.76,0,0-.34.34-.34.34-.57.56-1.23,1.07-1.98,1.36-4.78,1.82-8.05-7.3-10.78-9.93-4.23-3.3-10.39,5.22-10.75,9.04-.45,5.33,12.9,5.5,7.51-4.43-1.32-2.67-3.25-5-5.3-7.14-.88-.96-1.75-1.95-2.23-3.13-.49-1.18-.52-2.5-.31-3.77.16-1.28.63-2.49,1.4-3.53,1.52-2.1,3.7-3.67,5.99-4.85,4.56-2.37,12.07-3.52,10.12,4.14-1.47,6.34-7.5,6.32-12.24,3.43-1.1-.67-2.16-1.46-3.05-2.37-.88-.91-1.36-2.13-1.59-3.38-1.06-6.83,3.87-16.33,8.91-20.8,1.94-1.69,4.39-2.8,6.94-3.14,1.82-.22,3.97-.16,5.36,1.14,1.79,1.98-1.24,4.86-3,5.74-4.46,2.14-10.8.4-14.46-2.67-2.3-2-2.85-3.86-1.57-6.67,1.86-4.1,5.01-7.74,8.82-10.12,2.07-1.27,5.02-2.07,7-.25,2.31,1.88,2.07,4.43.09,6.43-1.78,1.84-4.24,2.99-6.73,3.53-2.56.55-5.17.16-7.69-.43-4.29-1.11-7.55-1.21-11.76.4-2.29.89-4.84,1.96-6.12,4.21-2.14,4.05,1.37,8.33,4.2,11.01.73.67,1.51,1.31,2.32,1.89.54.43,1.31.74,2.02.62,2.43-.48,3.61-3.43,3.8-5.64.33-5.66-4.66-7.03-9.35-6.15-3.47.54-7.26.65-10.43-1.05-1.11-.62-2.09-1.49-2.73-2.59-1.3-2.12-1.01-5.31,1.18-6.7,2.38-1.42,4.92.87,6.15,2.84,1.71,2.68,2.27,6.3.63,9.14-.94,1.72-2.05,3.35-3.14,4.99-3.07,4.8-9.84,13.84-8.5,19.62.66,2.83,3.7,3.97,6.29,4.25,1.97.24,4.03.37,5.94-.26,3.16-1.03,3.24-4.16,2.07-6.79-.52-1.23-1.24-2.36-2.09-3.38-.66-.75-1.38-1.53-2.35-1.88-1.65-.35-3.41,1.14-4.08,2.54-1.23,2.48-.38,5.38.9,7.65.64,1.16,1.45,2.21,2.25,3.25,1.58,2.08,2.56,4.6,2.78,7.21.24,2.61-.22,5.26-1.18,7.69-.49,1.21-1.08,2.4-1.9,3.41-.21.24-.44.5-.71.62-.96.27-1.77-.71-2.25-1.44-.68-1.11-.97-2.45-.82-3.75.21-1.97,1.44-3.69,2.96-4.9,1.01-.81,2.17-1.55,3.47-1.72,4.3-.53,6.8,6.57,9.26,9.34h0Z"/><path class="cls-2" d="m571.91,468.06c-5.44,2.51-13.86,2.78-10.65,10.23,3.21,7.45,10.79,4.5,10.03,2.44-.75-2.05-9.2-9.63-18.69-5.25-9.49,4.38-12.91-1.02-12.32-3.79.59-2.77,16.78-8.5,10.85,6.19-5.93,14.68-21.86-9.42-27.17-13.22-5.32-3.8-14.73.36-12.63,5.02,2.1,4.66,12.15,4.78,13.28-9.56,1.13-14.34,15.84-4.98,11.46-1.12s-14.17,9.01-16.11-1.2,2.43-11.96,4.05-18.52c1.62-6.56-2.52-15.9-8.36-11.47-5.84,4.44,3.5,17.84,8.82,19.53,5.32,1.69,14.22-10.1,10.16-17.04-4.06-6.94-8.96.92-6.28,8.73,2.68,7.81,16.52,18.89,23.16,14.51,6.65-4.38,9.65-12.77.76-15.99-8.89-3.23-6.49,15.24.3,18.67,6.8,3.44,7.84-2.14,17.5-4.04,9.66-1.89,5.99,10.13,1.4,8.15-4.59-1.98-10.55-10.6-5.08-12.77,5.47-2.18,14.59-3.69,10.23-10.41-4.36-6.72-16.86-1.31-2.55,10.95,14.31,12.26,8.32,18.45,3.14,19.24"/><path class="cls-16" d="m580.74,469s-2.28-19.79-13.01-11.45c-10.73,8.34-4.94,15.41-2,12.73,2.93-2.69,8.19-13.55-5.63-10.22-13.82,3.33-9.56,23.61-19.81,11.63-10.26-11.98,13.92-4.91,14.69-1.09.77,3.82,5.38-22.15-12.98-19.26-18.37,2.89-3.82,18.31.12,16.49,3.95-1.81,8.7-4.05-.1-19.61-8.8-15.56,2.89-15.35,2.89-15.35"/><path class="cls-12" d="m571.74,468.01c-3.3,1.71-10.81,2.39-11.36,6.74-.15,1.32.28,2.64.82,3.83.81,1.8,2.19,3.42,4.08,4.12,1.82.67,4.19.56,5.61-.89.57-.64.35-1.24-.11-1.86-.8-1.07-1.81-1.93-2.87-2.71-4.26-3.13-10.09-4.28-15.03-2.11-2.36,1.06-4.9,2-7.53,1.8-2.55-.12-5.15-1.99-5.15-4.7-.04-.67.32-1.15.83-1.55.49-.41,1.06-.73,1.64-1.02,3-1.53,9.04-2.58,9.4,2.17.15,2.27-.67,4.5-1.55,6.57-1.29,2.89-3.55,4.69-6.81,3.64-5.51-1.88-10.83-8.36-14.79-12.59-.88-.97-1.77-1.95-2.68-2.9-.93-.94-1.87-1.94-3.05-2.58-2.38-1.32-5.3-1.34-7.84-.51-2.44.76-5.47,2.97-4.55,5.88.45,1.34,1.53,2.38,2.8,2.9,4.23,1.68,8.06-1.58,9.57-5.36,1.07-2.45,1.39-5.12,1.64-7.75.31-2.44,1.27-5.25,3.75-6.19,2.39-.87,5.2.26,6.86,2.06.78.86,1.44,2.19.74,3.26-.78.98-1.94,1.69-2.96,2.41-3.05,1.96-7.86,4.31-11.03,1.48-1.77-1.71-2.13-4.27-2.44-6.62-.54-4.36.32-7.38,2.39-11.19,1.21-2.35,2.25-4.91,2.34-7.59.13-3.57-1.18-9.11-5.04-10.29-2.06-.51-4.28.73-5.36,2.47-1.06,1.82-.82,4.04-.25,5.98,1.31,4.44,5.75,10.74,10.11,12.56,1.83.74,3.84-.11,5.34-1.18,2.71-1.98,4.69-4.86,5.8-8.01.86-2.52,1.09-5.47-.22-7.88-1.43-2.82-4.3-4.61-6.41-1.24-1.38,2.37-1.51,5.22-1.05,7.85.45,2.65,1.82,5.05,3.44,7.15,3.77,4.77,10.08,10,16.33,10.58,3.02.26,5.04-1.27,7.1-3.28,1.87-1.9,3.42-4.3,3.62-7.03.24-2.88-1.66-5.27-4.14-6.48-1.22-.58-2.5-1.15-3.9-1.04-4.48.56-4.01,7.18-3.24,10.42.62,2.58,1.65,5.12,3.38,7.17.87,1.04,2,1.84,3.26,2.32,1.22.52,2.6.84,3.96.62,1.36-.2,2.57-.84,3.72-1.47,2.28-1.3,4.61-2.49,7.15-3.17,2.83-.85,7.35-1.46,7.73,2.55.11,1.84-.77,3.94-2.48,4.79-1.22.59-2.46-.17-3.47-.86-2.11-1.5-3.87-3.56-4.97-5.9-.78-1.65-1.17-4.01.52-5.21.5-.38,1.13-.57,1.74-.81,1.23-.45,2.48-.86,3.72-1.3,1.24-.45,2.48-.92,3.64-1.56,1.16-.64,2.32-1.45,2.9-2.69.6-1.25.27-2.73-.36-3.89-.88-1.79-2.52-3.27-4.5-3.67-3.45-.73-6.12,1.69-5.21,5.2,1.2,4.21,4.78,7.1,7.92,9.89,1.93,1.78,3.77,3.67,5.26,5.84,2.24,3.18,3.71,7.79.13,10.61-1.03.82-2.29,1.33-3.58,1.53,2.58-.37,5.14-2.12,5.67-4.79.52-2.64-.72-5.24-2.16-7.4-1.48-2.18-3.32-4.09-5.25-5.88-3.1-2.79-6.66-5.67-7.83-9.85-1.26-5.46,5.27-6.6,8.27-3,.21.21.41.54.59.77,0,0,.25.42.25.42.41.69.74,1.46.84,2.25.61,5.08-9.02,6.05-12.23,8.07-4.22,3.32,2.57,11.35,6.19,12.61,5.06,1.71,8.44-11.2-2.49-8.36-2.91.64-5.64,1.96-8.2,3.43-1.15.62-2.32,1.23-3.58,1.41-1.26.2-2.55-.1-3.73-.6-1.2-.46-2.27-1.21-3.09-2.21-1.67-1.98-2.68-4.47-3.27-6.98-1.2-5-.51-12.57,6.46-8.83,5.8,2.95,4.33,8.8.39,12.7-.92.9-1.94,1.75-3.03,2.39-1.09.64-2.4.81-3.67.73-6.88-.62-14.91-7.69-18.04-13.65-1.68-3.36-2.13-7.76-.25-11.11.59-1.02,1.72-1.93,2.92-1.45.55.2,1.04.62,1.45,1.08.83.95,1.44,2.11,1.73,3.34,1.13,5.19-2.97,12.21-7.73,14.33-1.93.9-3.62.21-5.2-1.01-1.55-1.17-2.88-2.62-4.06-4.16-2.51-3.3-6.52-10.49-2.19-13.69,2.38-1.79,4.8-.94,6.26,1.46,1.67,2.73,2.15,6.17,1.59,9.3-.61,3.26-2.55,5.98-3.72,9.05-1.4,3.78-1.08,7.99,0,11.82,1.59,4.86,5.79,5.31,10.02,3.5,1.85-.78,3.55-1.83,5.13-3.06.53-.45,1.09-.81,1.49-1.41.84-1.27.13-2.91-.8-3.9-2.91-3.16-8.24-3.75-10.39.56-1.3,2.4-1.11,5.16-1.62,7.75-.69,3.66-2.48,7.81-6.32,8.99-1.21.36-2.54.31-3.7-.17-2.5-1.04-3.68-3.86-1.56-5.94,2.69-2.6,7.43-3.27,10.73-1.48,1.14.62,2.04,1.58,2.95,2.49,4.81,4.87,11.21,13.37,17.68,15.55,3.44,1.09,5.89-.78,7.25-3.86.9-2.12,1.72-4.4,1.56-6.75-.56-5.78-8.45-3.83-11.57-1.36-.38.33-.82.74-.89,1.27-.24,1.53.53,3.1,1.67,4.06,2.11,1.79,5.13,1.66,7.64.97,1.28-.34,2.5-.88,3.7-1.41,2.4-1.03,5.08-1.37,7.66-.96,2.59.4,5.05,1.48,7.18,2.99,1.06.77,2.07,1.63,2.85,2.67.18.26.38.54.43.84.03,1-1.12,1.55-1.94,1.83-1.24.39-2.61.35-3.83-.11-1.86-.68-3.24-2.28-4.05-4.05-.54-1.17-.98-2.48-.83-3.78.52-4.3,8.02-5.02,11.3-6.74h0Z"/><path class="cls-10" d="m741.26,671.14c.29-5.9-8.26-9.14-6.75-4.33,1.51,4.82,9.7,1.67,8.82-2.75-.88-4.42-2.95-7.37.34-7.56s4.08,3.72-2.56,3.7-10.18-13.84-5.46-19.15c4.72-5.31,15.93,6.78,2.36,6.78s-8.55-8.85-1.47-16.81c7.08-7.96-3.24-16.22-5.87-12.69-2.62,3.53.26,13.87,7.34,7.97s12.09-3.83,13.86.88c1.77,4.72-7.08,9.73-9.49,2.85-2.41-6.89,1.23-11.99,13.64-11.7,12.4.29,6.48-13.56,3.82-13.86s-5.6,9.44,2.65,12.98c8.26,3.54,12.39-1.47,14.31-7.43,1.92-5.96-8.11-1.42-4.28,5.37,3.83,6.78,12.39,4.42,17.99.59,5.6-3.83,7.96-18.88,15.63-5.9,7.67,12.98-6.19,8.26-3.83,5.6s10.91-1.18,13.27-9.73c2.36-8.55-2.36-6.78-7.37-.59-5.01,6.19,14.16,12.68,17.99,5.6,3.83-7.08,13.86,1.77,13.32,7.37-.54,5.6-4.77,5.02-9.49-1.17-4.72-6.19,6.49-19.76,12.98-8.55,6.49,11.21,17.7,8.85,21.01-2.36,3.31-11.21-6.85-7.37-8.62,0-1.77,7.37,10.91,18.88,18.85,14.06s18.03,2.46,11.29,9.73c-6.74,7.27-9.19.69-8.11-6.34s-7.87-9.48-14.68-5.36c-6.82,4.12,2.39,14.46,5.67,9.37,3.28-5.09-12.43-7.6-16.26-5.53s.29,7.67-2.36,9.37c-2.65,1.7-5.6-4.06,0-6.12,5.6-2.06,6.49,5.01,6.78,14.75.29,9.73,13.27,3.83,13.27-.29s-5.01-3.83-7.54,1.68c-2.52,5.51,6.06,12.18,11.5,9.14,5.44-3.05,25.83-2.56,15.35,3.82-10.47,6.38-15.48-8.44-8.35-9.39,7.14-.94,6.14,5.37,5.78,8.75-.36,3.38-2,7.24-4.69,6.33-2.69-.91-.26-6.46,5.75-2.85s-1.29,14.67,6.87,17.03c8.16,2.36,2.76-9.44-2.32-11.98-5.08-2.54-6.13,2.84-6.04,9.53.09,6.69,2.86,9.53,8.36,8.26s20.16,7.76,9.54,16.02c-10.62,8.26-14.75-9.14-11.86-9.6s11.27,4.59,6.13,13.43c-5.15,8.84.72,16.82,6.08,16.23,5.36-.59,6.15-15.05-4.56-10.51-10.71,4.54-7.65-7.85-7.65-7.85,0,0-7.9-13.46-3.03-14.07s-7.78-1.2-6.62-9.46c1.16-8.26,1.29-11.28-1.28-11.98-2.57-.7-3.13-8.1-4.47-8.53s-11.23,1.59-15.73-6.06c0,0-7.45-2.04-7.74-10.6-.29-8.55-1.77-3.24-4.13-3.24-2.36,0-8.55-2.95-5.6-6.78,2.95-3.83,5.01-10.11,1.47-9.92-3.54.19-1.18,4.91-3.83,6.09-2.65,1.18-6.16,3.64-12.37-3.04-6.21-6.69-15.35-4.03-17.12-4.33s1.57,3.64-4.82,4.33c-6.39.69-10.62-3.16-7.03-6.7,3.59-3.53.05-6.78-1.42-4.12-1.47,2.65-9.11,18.1-27.71,10.82,0,0-6.15,1.97-9.42,0,0,0-11.83-.49-10.06,1.28,1.77,1.77,7.08,7.08,2.06,10.91-5.01,3.83-8.55,1.18-11.8,1.47s-10.03,1.47-2.36,3.24,10.78,6.95,7.45,9.08c-3.32,2.13-9.81,2.72-9.52,5.37.29,2.65,1.04,6.01,3.77,2.71,2.72-3.3,8.36,1.2,7.46,3.37-.9,2.18-3.55,3.06-3.26,5.72.29,2.65-3.83,7.67-3.83,7.67Z"/><path class="cls-12" d="m897.53,713.61c-1.1-1.7-1.69-3.64-1.75-5.67-1.14,0-2.08-.33-2.81-.95-2.81-2.4-1.38-8.37-1.31-8.63l1.15.28c-.01.06-1.33,5.52.93,7.45.52.44,1.21.67,2.06.67.13-2.13.82-4.33,2.05-6.43.15-.25.28-.5.4-.74-1.11-.08-2.02-.46-2.75-.91-3.49-2.16-5.21-7.77-4.66-10.49.25-1.23.92-1.52,1.29-1.58,1.87-.3,5.13,1.21,6.98,3.92,1.54,2.25,1.85,4.92.95,7.72,1.15-.29,2.38-.93,3.66-1.93,3.29-2.56,4.3-5.42,2.94-8.28-2.01-4.23-8.67-7.46-11.99-6.69-2.65.61-4.76.31-6.29-.88-1.81-1.42-2.75-4.09-2.8-7.95-.08-5.85.76-9.12,2.63-10.3.4-.25.84-.4,1.31-.45-.28-1.39-.88-2.56-2.16-3.34-.32-.19-.64-.36-.95-.51-.49,1.32-1.21,2.49-2.18,3.12-.76.49-1.63.59-2.5.3-.83-.28-1.36-.93-1.47-1.77-.13-1.03.41-2.11,1.39-2.77-.67-.26-1.21-.59-1.62-.9-1.64-1.22-2.75-3.18-3.05-5.13-1.14.27-2.13.6-2.87,1.01-3.38,1.89-7.58.31-10.05-1.97-1.06-.98-1.83-2.07-2.29-3.2-.09,0-.17,0-.26,0-3.39.05-5.4-2.09-5.52-5.86-.18-5.98-.58-12.49-3.01-14.13-.54-.37-1.19-.49-1.96-.36.02.52.08,1.09.16,1.72.22,1.79.46,3.65-1.07,4.62-.82.52-1.75.54-2.56.04-1.04-.64-1.65-1.97-1.52-3.32.17-1.7,1.47-3.12,3.56-3.89.09-.03.19-.07.28-.1.12-1.22.62-2.37,2.01-3.11,1.55-.84,4.75-.98,7.98-.56.23-.9.72-1.72,1.44-2.4-1.27-.96-2.42-2.08-3.4-3.28-1.05.54-2.17.9-3.35,1.04-4.56.55-8.95-2.21-12.05-7.55-1.57-2.71-3.53-4.09-5.7-4-1.83.08-3.72,1.23-5.14,3.02.15.04.3.08.45.12,4.33,1.32,8.37,6.55,8,10.35-.29,3.02-1.56,3.99-2.57,4.28-2.11.6-5.02-1.28-7.97-5.16-1.56-2.05-1.66-5.03-.28-7.99.09-.18.18-.36.27-.54-1.02.18-2.05.8-2.84,2.26-1.25,2.31-4.04,3.52-7.87,3.38-2.49-.08-5.37-.8-7.69-1.98-.85.48-1.72.84-2.58,1.13.99,2.9.32,4.3-.59,4.98-1.72,1.27-4.74.25-5.94-1.06-.74-.81-.8-1.71-.18-2.41.9-1.01,2.45-1.46,4.25-1.98.3-.09.6-.17.91-.27-.36-.81-.82-1.7-1.39-2.67-1.91-3.22-3.59-4.87-5.02-4.89,0,0-.02,0-.03,0-1.79,0-3.38,2.52-5.05,5.18-1.4,2.23-2.86,4.54-4.7,5.8-4.52,3.09-9.45,4.42-13.18,3.56-1.84-.43-3.37-1.36-4.58-2.78-.61.5-1.26.92-1.95,1.23-2.5,1.14-5.49.98-8.88-.48-.24-.1-.48-.21-.7-.33-1.22.79-2.99,1.32-5.56,1.26-6.15-.14-10.45,1.07-12.44,3.53,1.72-.49,3.09-.4,4.11-.13,2.14.57,3.83,2.22,4.74,4.66.57,1.53.22,3.23-.97,4.66-1.45,1.73-3.75,2.65-5.74,2.29-1.78-.32-3.16-1.64-3.89-3.7-.71-2.02-.9-3.87-.58-5.5-.56.32-1.13.7-1.71,1.12-.16,1.93-1.02,3.83-2.56,5.56-3.8,4.28-8.04,10.04-6.64,13.18.41.9,1.28,1.58,2.61,2.02.25-2.53,1.09-4.65,2.25-5.95,1.54-1.73,3.98-2.03,6.37-.77,2.04,1.08,3.94,3.35,3.42,5.45-.35,1.41-1.84,3.08-6.99,3.08-1.5,0-2.8-.1-3.93-.31.03,2.3.55,4.69,1.42,6.64,1.37,3.08,3.42,4.85,5.6,4.85.14,0,.28,0,.41,0-.3-1.2-.39-2.12.1-2.82.38-.53,1.03-.82,2.01-.88,1.25-.07,2.32.38,2.82,1.18.35.57.37,1.23.04,1.82-.32.57-1.17,1.44-3.45,1.76,0,.02.01.04.02.06.28.95.6,2.02.84,3.21.39,1.96-.75,3.71-2.4,4.78.26.75.39,1.57.34,2.44l-1.18-.06c.03-.64-.06-1.25-.23-1.82-.32.14-.65.25-.98.33-2.64.67-4.8-.36-5.52-2.64-.47-1.51-.04-2.27.4-2.65.72-.62,1.96-.59,3.33.08,1.29.63,2.56,1.75,3.36,3.22,1.2-.83,2-2.08,1.72-3.46-.23-1.14-.54-2.18-.81-3.11-.03-.1-.06-.2-.09-.29-.24,0-.48.01-.74.01-2.67-.01-5.1-2.03-6.68-5.55-1.14-2.54-1.59-5.1-1.54-7.41-1.84-.54-3.04-1.46-3.62-2.76-1.36-3.02.88-7.75,6.83-14.44,1.15-1.3,1.78-2.55,2.08-3.7-3.56,2.84-5.86,1.61-6.93.6-2.32-2.2-2.86-7.1-1.05-9.55.63-.84,1.64-1.21,2.84-1.04,2.42.35,5.01,2.72,6.03,5.51.24.65.39,1.31.46,1.97.79-.53,1.54-.96,2.24-1.29.18-.4.41-.78.67-1.14,2.17-2.98,6.75-4.42,13.61-4.26,1.78.04,3.23-.22,4.35-.77-3.58-2.45-4.45-6.44-3.6-9.67.58-2.18,1.83-3.56,3.12-3.41,1.95.22,4.54,5,4.27,9.01-.08,1.16-.43,2.7-1.61,3.94.05.02.11.05.16.07,3.07,1.32,5.74,1.48,7.92.49.61-.28,1.19-.65,1.73-1.11-.13-.2-.25-.4-.37-.61-1.84-3.26-.75-6.09.89-7.66,1.31-1.25,2.91-1.69,3.9-1.07.5.31,1.23,1.15.56,3.26-.85,2.65-1.99,4.73-3.41,6.23,1.05,1.25,2.38,2.07,3.98,2.44,4.02.93,8.97-1.13,12.25-3.38,1.64-1.12,3.02-3.32,4.36-5.45,1.85-2.95,3.61-5.73,6.05-5.73.01,0,.03,0,.05,0,1.92.03,3.83,1.76,6.02,5.47.64,1.09,1.13,2.05,1.5,2.91.6-.21,1.2-.44,1.79-.73-1.29-.83-2.29-1.82-2.8-2.94-.63-1.37-.41-2.77.61-4.03,1.51-1.87,3.01-3.36,4.33-4.31,1.52-1.09,2.73-1.41,3.6-.96,1.31.67,1.46,2.76.46,6.39-.77,2.8-2.19,4.59-3.84,5.8,1.93.88,4.29,1.47,6.58,1.54,1.94.07,5.4-.2,6.79-2.77,1.07-1.98,2.68-2.98,4.64-2.94,1.67-2.36,4.08-3.91,6.43-4.02,1.83-.08,4.5.65,6.77,4.58,2.85,4.91,6.81,7.45,10.89,6.97.97-.12,1.89-.39,2.76-.82-.36-.5-.69-1.02-.98-1.54-1.37-2.44-1.84-4.8-1.36-6.81.93-3.88,3.96-6.67,6.34-7.33,1.27-.35,2.37-.13,3.12.62.83.84,1.56,2.75.3,7.01-1.11,3.77-3.12,6.69-5.67,8.4.94,1.12,2.07,2.19,3.34,3.13.06-.04.11-.07.17-.11,4.23-2.56,9.51-2.8,12.82-.58.58.39,1.07.83,1.48,1.33,4.08-1.17,8.13.23,10.18,2.74.83,1.01,3.2,4.66-.94,9.13-2.69,2.9-4.96,3.94-6.76,3.07-2.5-1.21-2.99-5.84-2.37-9.9.24-1.54-.05-2.72-.56-3.61-.62.22-1.2.49-1.73.82-3.37,2.05-7.91,1.51-12.27-1.42-.68.59-1.06,1.24-1.24,1.88,3.17.54,6.2,1.61,7.55,3.08,1.02,1.11,1.14,2.41.32,3.68-.85,1.32-2.14,1.87-3.64,1.57-2.48-.5-4.99-3.33-5.48-6.16-.07-.4-.1-.79-.09-1.17-2.98-.39-5.92-.29-7.26.44-.8.43-1.18,1.03-1.33,1.8.96-.1,1.82.09,2.55.58,2.61,1.76,3.28,7.07,3.52,15.07.12,3.88,2.34,4.72,4.22,4.72h.02c-.26-1.22-.14-2.44.37-3.56,1.76-3.85,4.55-5.17,6.4-4.77,1.42.31,2.27,1.56,2.27,3.33,0,2.43-3.75,5.32-7.44,6.02.45.95,1.13,1.81,1.86,2.48,2.16,2,5.8,3.41,8.67,1.8.81-.45,1.98-.84,3.37-1.14.01-.44.07-.88.18-1.3.46-1.79,1.8-2.96,3.67-3.2,2.31-.31,4.05.1,5.18,1.2.74.73,1.15,1.69,1.35,2.72,2.52.28,4.54.92,5.19,2.03.77,1.32-.23,2.84-2.99,4.52-.94.57-1.82.97-2.64,1.24.36.16.73.36,1.13.6,1.74,1.05,2.48,2.63,2.77,4.41.54.11,1.12.31,1.73.62,3.62,1.81,7.88,8.58,6.61,11.8-.35.89-1.42,2.23-4.72,1.27-4.82-1.39-4.73-5.65-4.65-9.41.02-1.1.05-2.18-.04-3.18-.31.03-.59.13-.84.29-1.45.91-2.15,4.03-2.08,9.28.05,3.48.84,5.85,2.35,7.04,1.23.96,3.01,1.19,5.29.66,3.79-.87,11.07,2.6,13.32,7.34,2.16,4.55-1.13,8.05-3.28,9.72-1.85,1.44-3.48,2.1-4.88,2.29-.2.46-.44.91-.71,1.37-1.1,1.88-1.72,3.84-1.87,5.73.78-.14,1.67-.42,2.65-.84,4-1.69,6.24-.76,7.42.32,2.01,1.85,2.11,5.17,1.35,7.48-.73,2.21-2.19,3.64-3.91,3.83-.21.02-.42.03-.63.03-2.37,0-4.75-1.44-6.34-3.87Zm2.57-6.71c-1.15.49-2.2.81-3.14.95.05,1.84.57,3.59,1.56,5.12,1.48,2.27,3.72,3.54,5.85,3.31,1.25-.14,2.34-1.27,2.92-3.03.64-1.96.6-4.75-1.03-6.24-.68-.63-1.58-.94-2.65-.94-1.01,0-2.19.28-3.5.83Zm-1.96-15.69c-1.66-2.43-4.51-3.63-5.82-3.42-.1.02-.24.22-.32.64-.41,2.05.87,7.24,4.12,9.26.83.51,1.7.76,2.64.76,1.27-3.29.42-5.7-.62-7.23Zm-7.22-25.06c-.08,3.82-.15,7.11,3.8,8.25,1.83.53,2.94.34,3.29-.57.96-2.45-2.66-8.62-6.04-10.32-.38-.19-.74-.33-1.07-.43.07,1,.04,2.04.02,3.07Zm-153.77-.09c-1.02-.5-1.77-.48-2.04-.25-.24.21-.25.72-.04,1.4.62,1.97,2.52,2.25,4.1,1.84.28-.07.55-.16.81-.27-.68-1.24-1.77-2.21-2.83-2.73Zm145.21-8.3c-.72.47-.97,1.17-.91,1.67.03.27.18.63.68.8.54.18,1.02.13,1.49-.17.66-.42,1.26-1.34,1.71-2.54-1.17-.33-2.2-.26-2.96.24Zm-138.66-.08c-.58.03-.96.16-1.11.38-.25.35-.12,1.11.13,2.05,1.62-.2,2.48-.7,2.75-1.18.12-.21.12-.42,0-.62-.19-.3-.71-.63-1.56-.63-.06,0-.13,0-.19,0Zm142.34-3.28l.05-.43c.12-1.12.28-2.53.17-3.84-2.54-.17-5.57-.03-8.11.42.22,1.66,1.18,3.36,2.6,4.42,1.43,1.06,3.17,1.38,5.05.94.11-.48.19-.99.24-1.5Zm1.22-.3l-.05.43c-.03.32-.08.65-.14.98.6-.23,1.2-.54,1.81-.91,1.98-1.2,2.94-2.29,2.58-2.91-.42-.73-1.98-1.21-4.02-1.45.09,1.36-.07,2.75-.19,3.86Zm-1.19-5.15c-.18-.7-.47-1.32-.94-1.78-.85-.84-2.27-1.13-4.2-.87-1.78.24-2.45,1.4-2.69,2.33-.06.25-.11.51-.13.77,1.88-.32,4.01-.5,6.05-.5.65,0,1.29.02,1.91.06Zm-149.97-6.92c-1.21,1.37-1.83,3.34-1.97,5.47,1.08.22,2.38.33,3.89.33,3.37,0,5.5-.8,5.84-2.19.32-1.31-.92-3.12-2.82-4.13-.4-.21-1.34-.64-2.4-.64-.85,0-1.76.27-2.54,1.14Zm126.78.35c-.46,1-.49,2.01-.25,2.97,3.35-.54,6.67-3.12,6.67-4.9,0-1.22-.48-1.99-1.34-2.18-.13-.03-.27-.04-.41-.04-1.41,0-3.38,1.36-4.66,4.15Zm-120.2-17.78c-.61,1.61-.52,3.56.28,5.82.58,1.67,1.61,2.68,2.98,2.93,1.56.28,3.46-.49,4.63-1.89.91-1.09,1.19-2.36.77-3.49-.78-2.07-2.18-3.47-3.94-3.94-.46-.12-.94-.18-1.45-.18-1.02,0-2.12.25-3.27.75Zm134.79-4.37c.6,1.19.8,2.59.57,4.13-.65,4.22.07,7.87,1.71,8.66,1.24.6,3.15-.4,5.38-2.81,3.4-3.67,1.76-6.52.9-7.58-1.53-1.87-3.84-2.68-6.18-2.68-.8,0-1.61.1-2.38.28Zm-30.23,9.22c-.09.89.31,1.8.96,2.2.29.18.76.32,1.31-.03.84-.53.76-1.67.53-3.48-.06-.49-.13-1.01-.16-1.54-1.59.62-2.52,1.63-2.64,2.84Zm13.74-5.65c.41,2.37,2.54,4.8,4.56,5.21,1.02.21,1.83-.15,2.41-1.05.52-.81.46-1.52-.2-2.24-1.17-1.27-3.93-2.22-6.85-2.72,0,.28.03.55.07.8Zm-123.01-.37c-.97-2.65-3.35-4.49-5.09-4.74-.54-.08-1.27-.04-1.73.57-1.45,1.96-.97,6.21.91,7.99,1.78,1.68,4.02.48,5.58-.82.26-.21.51-.41.76-.61,0-.91-.19-1.71-.43-2.39Zm92.41-12.83c-1.2,2.55-1.14,5.09.15,6.78,3.07,4.03,5.48,5.09,6.71,4.74,1.19-.34,1.6-1.96,1.72-3.26.31-3.2-3.44-7.97-7.17-9.11-.27-.08-.55-.15-.84-.19-.2.33-.39.68-.56,1.05Zm44.25,8.2c-2.83-1.89-7.52-1.69-11.27.44,3.84,2.44,7.74,2.87,10.61,1.14.53-.32,1.06-.59,1.59-.81-.3-.31-.62-.56-.93-.77Zm-68.17-3.78c-1.62.47-3.02.87-3.69,1.63-.1.11-.29.33.17.83.94,1.03,3.32,1.68,4.37.91.76-.56.81-1.84.18-3.67-.35.11-.69.2-1.02.3Zm-48.53-6.84c-.72,2.72-.15,6.44,3.52,8.66.93-.82,1.45-1.97,1.55-3.43.25-3.69-2.24-7.65-3.22-7.76-.02,0-.03,0-.05,0-.55,0-1.38.95-1.8,2.54Zm15.8,1.27c-.64.61-2.58,2.87-.68,6.23.07.12.14.24.21.35,1.22-1.35,2.22-3.23,2.99-5.61.31-.97.29-1.68-.06-1.9-.11-.07-.25-.1-.42-.1-.53,0-1.32.33-2.05,1.03Zm87.78-8.96c-2.08.58-4.72,3.16-5.51,6.47-.52,2.17.36,4.93,2.22,7.49,2.35-1.55,4.22-4.26,5.26-7.79.84-2.86.84-4.99,0-5.85-.32-.33-.74-.44-1.15-.44-.29,0-.57.05-.81.12Zm-52.82,5.82c-.75.92-.89,1.84-.45,2.8.46,1,1.51,1.96,2.91,2.76,1.68-1.09,3.13-2.74,3.89-5.5,1.17-4.24.32-4.93.13-5.02-.09-.05-.2-.07-.33-.07-1.07,0-3.4,1.63-6.15,5.03Z"/><path class="cls-16" d="m809.22,907.24s11.54.04,14.49,6.82c2.95,6.78,12.68,26.25,19.47,26.25,0,0-8.85,3.83-12.98-4.87-4.13-8.7-8.62-27.95-20.98-28.21Z"/><path class="cls-11" d="m825.34,907.24s4.86-.55,7.22,5.64,7.06,15.22,18.58,12.63c11.51-2.6,15.05-9.68,15.35-14.1.29-4.42-6.34-12.83-15.78-9.88-9.44,2.95-9.57,8.78-3.16,11.91,6.41,3.13,7.29.48,7-2.47-.29-2.95-3.26-.22-3.4.77,0,0-4.86-.77-3.68-4.02,1.18-3.24,9.43-1.26,11.06,1.29,1.63,2.55.74,8.74-5.75,10.81-6.49,2.06-11.21.88-12.98-2.95-1.77-3.83-5.29-10.7-14.45-9.63Z"/><path class="cls-16" d="m854.13,941.16s3.87,4.69,0,4.88-7.38-1.76-6.07-6.69c1.31-4.93,7.8-7.29,16.36-3.45,8.55,3.83,17.7,17.7,7.37,27.14-10.32,9.44-23.89,5.31-33.63-2.65-9.73-7.96-21.53-19.17-26.84-30.68s-23.07-34.77-40.3-39.81c0,0,26.58,6.03,39.56,26.68,12.98,20.65,37.76,46.61,44.54,45.72s16.52-8.55,14.6-12.39c-1.92-3.84-17.77-16.02-15.6-8.75Z"/><path class="cls-6" d="m807.63,946.37c-1.89,6.54,5.88,12.16,7.95-6.75,2.08-18.91,1.78-111.83-40.7-148.71-42.48-36.87-87.02-39.23-113.57-35.4-26.55,3.83-7.37,39.45,0,48.48,7.37,9.04,26.84,19.66,32.45,1.37,5.6-18.29,18.88-26.25,25.07-16.81,6.19,9.44,3.24,14.45-7.08,15.93-10.32,1.47-26.44,31.81,7.13,44.37,33.57,12.56,24.72-10.74,24.13-22.25-.59-11.5,3.54-25.07,19.47-10.62,15.93,14.45,7.05,35.09-2.52,36.72-9.57,1.63-36.42,24.64-1.61,44.11,34.81,19.47,31.56-16.22,30.09-20.65-1.47-4.42,0-23.6,5.6-12.09,5.6,11.5,21.24,55.75,13.57,82.3Z"/><path class="cls-15" d="m739.76,773.89c6.58,5.05,16.97,5.82,11.57,14.94s-29.63.68-27.57-6.81c2.06-7.5,11.95-11.23,15.99-8.13Z"/><path class="cls-8" d="m739.26,776.86c4.55,3.49,11.72,4.02,7.99,10.32-3.73,6.3-20.46.47-19.04-4.71,1.42-5.18,8.26-7.75,11.05-5.61Z"/><path class="cls-12" d="m739.19,780.83c2.25,1.73,5.8,1.99,3.96,5.11-1.84,3.12-10.13.23-9.42-2.33.7-2.56,4.09-3.84,5.47-2.78Z"/><path class="cls-15" d="m763.53,790.1c6.16.28,21.08,12.66,16.83,19.09-4.24,6.43-11.15,7.84-20.38-1.36-9.22-9.2-5.07-18.13,3.54-17.73Z"/><path class="cls-8" d="m764.73,794.01c4.19.19,14.32,8.61,11.44,12.98-2.88,4.37-7.58,5.33-13.85-.92-6.27-6.25-3.45-12.32,2.41-12.05Z"/><path class="cls-12" d="m765.88,797.9c2.25.1,7.7,4.62,6.15,6.97-1.55,2.35-4.07,2.86-7.44-.5-3.37-3.36-1.85-6.62,1.29-6.48Z"/><path class="cls-8" d="m738.67,799.84s-8.61,6.26-6.03,18.36c2.57,12.09,6.11,28.91-12.77,20.35-18.88-8.55-12.34-21.82-7.79-24.18,4.55-2.37,13.4-3.25,16.94-8.86,3.54-5.6,9.66-5.67,9.66-5.67Z"/><path class="cls-15" d="m728.13,814.36s-3.1,1.91-1.63,8.4c1.47,6.49.29,9.44-5.9,7.96-6.19-1.47-6.19-6.49-4.42-9.14s9.15-2.64,11.95-7.22Z"/><path class="cls-8" d="m721.65,769.26s-39.39-14.05-52.67-3.43c-13.27,10.62,0,26.84,4.13,30.97,4.13,4.13,14.95,3.07,20.16-6.72,5.21-9.8,14.96-21.82,28.37-20.82Z"/><path class="cls-15" d="m686.68,769.37c5.6-.19,12.98,4.13,7.96,9.14-5.01,5.01-17.58,7.75-20,1.96-2.42-5.79,3.48-10.81,12.04-11.1Z"/><path class="cls-2" d="m687.83,772.79c1.51,2.18-.26,6.21-2.62,3.75-2.36-2.46,1.11-5.94,2.62-3.75Z"/><path class="cls-2" d="m679.04,776.1c.18-.87,2.64-1.17,2.64,1.21,0,2.38-3.49,2.86-2.64-1.21Z"/><path class="cls-11" d="m804.24,856.25s-3.47-27.17-19.29-45.74l-3.84,2.84s12.51,6.32,19.59,37.29l3.54,5.6Z"/><path class="cls-11" d="m780.21,815.25l-3.41,2.06s10.32,8.55,15.04,29.5c0,0,3.16.83,4.53,2.92,0,0-5.98-24.15-16.17-34.48Z"/><path class="cls-11" d="m774.15,818.19l-3.24,1.18s9.73,12.39,8.55,26.84c0,0,3.01-.88,5.19,0,0,0-3.72-20.94-10.5-28.02Z"/><path class="cls-11" d="m684.95,886.63s1.76-4.56,8.35-3.78c6.58.78,16.76.8,19.8-10.61,3.04-11.4-1.6-17.82-5.38-20.14-3.78-2.31-14.31-.33-16.07,9.4-1.76,9.73,3.35,12.55,9.09,8.32,5.74-4.22,3.8-6.24,1.05-7.35-2.75-1.11-1.71,2.79-.89,3.37,0,0-2.94,3.95-5.27,1.4-2.33-2.55,3.26-8.94,6.27-9.2s8.09,3.4,6.91,10.1-4.41,10.34-8.63,10.13c-4.22-.21-11.93-.27-15.23,8.34Z"/><path class="cls-2" d="m608.4,815.59c4.37-.22-11.92,4.57-11.91-3.36,0-7.92,9.35-12.86,11.43-8.58,2.08,4.28,1.03,11.46-3.43,8.38-4.46-3.09.5-7.65,1.17-5.67.67,1.98-.48,3.3-.48,3.3,0,0,3.55.62,2.32-3.39-1.23-4.01-7.52-1.72-7.76,2.28-.24,4,3.07,7.32,8.66,7.04Z"/><path class="cls-11" d="m609.28,854.06c-2.1,4.36.9,10.94,6.51,10.53,5.62-.41,7.1-6.85,4.27-10.56-3.98-5.2-8.68-4.33-10.78.03Zm9.05,2.55c.75,2.36-1.45,5.91-4.1,5.21s-5.74-8.22-1.36-8.66,4.88,1.6,5.46,3.45Z"/><path class="cls-2" d="m616.81,857.83c-.09.77-4.92,2.54-4.68-.73.24-3.27,5.22-3.78,4.68.73Z"/><path class="cls-6" d="m630.12,866.88c3.51,7.71,3.02,8.03.02,8.62-3,.59-7.47,3.35-8.64-1.27-1.16-4.62-.03-9.49-.03-9.49"/><path class="cls-6" d="m618.5,866.91s-1.54,3.6-1.61,6.25c-.08,2.65-2.52,5.07-6.17,1.96s-4.65-2.69-6.66-3.34,3.78-6.85,4.56-7,6.87,4.16,9.88,2.13Z"/><path class="cls-6" d="m605.12,861.93s-11.34,3.33-11.35-1.98c-.01-5.31,4.77-3.28,4.43-6.81-.33-3.53,3.93-9.44,8.89-2.67,0,0-3.61,6.99-1.97,11.46Z"/><path class="cls-6" d="m610.65,848.33s-6.1-3.81-2.08-7.03c4.02-3.23,7.74,2.04,8.26,6.04.52,4-6.17,1-6.17,1Z"/><path class="cls-6" d="m611.25,822.29s4.27,9.34-3.43,8.37c-7.7-.96-17.07-.66-15.28-5.03,1.79-4.37,9.6-7.08,9.6-7.08,0,0,6.29,1.19,7.45-.58,1.16-1.77,1.66,4.32,1.66,4.32Z"/><path class="cls-6" d="m597.59,817.19s-4.83,7.9-8.82,5.95c-3.98-1.95-9.43-11.2-7.19-11.24s8.46.31,9.53-1.5c1.07-1.81-9.86,0-7-7.39,2.87-7.39,5.65-2.69,6.7-8.66,1.05-5.97,7.03,2,10.06,1.6s5.87-9.65,7.27-4.51c1.4,5.14,1.33,10.76-4.05,9.88-5.38-.89-14.49,1.12-6.51,15.87Z"/><path class="cls-2" d="m570.94,578.24c3.02-3.16-5.52,11.5-10.96,5.74-5.44-5.76-2.04-15.77,2.41-14.09s8.62,7.62,3.26,8.45c-5.37.82-4.89-5.9-3.04-4.92s1.91,2.73,1.91,2.73c0,0,3-1.98-.64-4.06-3.64-2.07-6.64,3.92-4.07,6.99s7.26,3.21,11.13-.84Z"/><path class="cls-15" d="m598.01,605.59c1.47,4.61,8.17,7.34,11.97,3.18,3.8-4.16.45-9.86-4.15-10.61-6.46-1.04-9.28,2.82-7.81,7.43Zm8.33-4.37c2.17,1.21,3.01,5.29.59,6.6-2.41,1.31-9.81-2.03-6.93-5.36,2.88-3.33,4.65-2.19,6.34-1.25Z"/><path class="cls-2" d="m606.07,603.16c.46.62-1.83,5.23-3.9,2.69-2.07-2.54,1.19-6.34,3.9-2.69Z"/><path class="cls-8" d="m621.96,600.59c7.85,3.19,7.72,3.76,5.94,6.25-1.78,2.49-3.13,7.57-7.15,5.01-4.02-2.55-6.54-6.88-6.54-6.88"/><path class="cls-8" d="m613.54,608.6s1.36,3.67,3.12,5.65c1.77,1.98,1.65,5.41-3.14,5.66-4.79.25-5.23,1.23-7.13,2.15-1.9.91-1.96-7.58-1.5-8.22.47-.65,7.85-1.7,8.64-5.23Z"/><path class="cls-8" d="m600.39,614.17s-5.95,10.21-9.61,6.36c-3.66-3.85,1.21-5.66-1.45-7.99-2.66-2.34-3.63-9.56,4.63-8.04,0,0,2.17,7.56,6.44,9.68Z"/><path class="cls-8" d="m595.07,600.49s-7.05,1.43-6.35-3.68c.7-5.11,7.02-3.84,10.15-1.29,3.12,2.55-3.8,4.97-3.8,4.97Z"/><path class="cls-8" d="m577.62,581.16s9.51,3.85,3.26,8.44c-6.26,4.59-12.86,11.25-14.56,6.84-1.7-4.4,2.11-11.74,2.11-11.74,0,0,5.38-3.45,5.02-5.54s4.17,1.99,4.17,1.99Z"/><path class="cls-8" d="m564.19,586.83s1.92,9.06-2.32,10.38c-4.23,1.32-14.55-1.66-12.94-3.23,1.61-1.57,6.36-5.59,5.9-7.64s-7.16,6.78-10.16-.56c-3-7.34,2.25-5.84-1.09-10.9-3.34-5.06,6.48-3.37,8.41-5.75,1.93-2.38-2.36-11.05,2.18-8.27,4.55,2.78,8.36,6.91,3.84,9.96-4.51,3.05-9.76,10.76,6.17,16Z"/><path class="cls-15" d="m825.92,1081.95s-3.41-3.33,1.69-4.94c5.1-1.6,13.74,2.64,12.84,13.04-.9,10.39-7.11,13.13-12.82,11.14-5.72-1.99-17.27-12.11-17.12-20.53.16-8.42,1.98-18.72,11.23-21.6,9.25-2.88,21.04-11.2,19.72-23.73-1.33-12.52-7.49-33.11-23.98-34.66-16.49-1.55-20.04,14.69-15.07,21.12,4.97,6.43,21.83,11.41,17.4-.83,0,0-4.01,4.93-7.65,3.18-3.64-1.75-9.87-4.34-8.89-10.8.98-6.47,9.98-10.94,17.38-7.67,7.4,3.27,18.72,17.95,15.1,29.86-3.62,11.91-10.04,14.69-17.72,20.04s-17.77,14.63-12.8,26.63c4.97,11.99,15.23,26.49,25.66,23.82,10.43-2.67,16.97-12.8,14.6-21.03-2.36-8.23-9.5-16.36-19.33-12.35-9.84,4.02-3.69,18.07,1,18.42s8.36-4.49,4.57-7.98-5.82-1.14-5.82-1.14Z"/><path class="cls-10" d="m803.82,998.21s-3.09,1.04-6.13-4.39c-3.04-5.43-.99-9.56,3.68-10.65,4.68-1.1,4.94,9.75,2.44,15.04Z"/><path class="cls-10" d="m795.09,1013.4s.82,3.15-4.8,5.81c-5.63,2.66-9.6.33-10.37-4.41-.77-4.74,10.07-4.26,15.18-1.4Z"/><path class="cls-11" d="m797.57,1022.23s2.17,2.43-1.64,7.36c-3.8,4.93-8.4,4.66-11.24.79-2.84-3.87,7.03-8.37,12.88-8.15Z"/><path class="cls-11" d="m812.12,995.83s-3.08-5.41-3.2-9.39c-.12-3.98,4.88-3.6,6.73-.87,1.85,2.73-3.53,10.26-3.53,10.26Z"/><path class="cls-11" d="m798.69,1000.47s-5.19-7.38-12.83-4.98c-7.64,2.4.94,11.19,5.03,9.71,4.09-1.48,3.46-5.07,7.81-4.73Z"/><path class="cls-2" d="m813.43,1008.87c-2.78-1.36-8.16,3.2-6.04,7.11,2.11,3.9,7.06,2.21,8.24,0s-.04-6.05-2.19-7.1Z"/><path class="cls-11" d="m824.26,1023.69s3.09,6.69,7.98,3.89c4.89-2.8-2.44-6.99-4.29-6.81-1.86.17-4.79,1.48-3.69,2.92Z"/><path class="cls-11" d="m817.53,1031.49s-2.09,2.17-.86,5.52c1.23,3.35,5.5,5.29,8.23-.73,2.73-6.02-7.37-4.79-7.37-4.79Z"/><path class="cls-10" d="m806.34,1031.11s-7.49,3.47-6.1,8.01c1.39,4.55,2.48,7.25,6.19,5.31,3.71-1.94,6.68-8.08-.08-13.32Z"/><circle class="cls-13" cx="831.11" cy="1033.4" r="1.33"/><circle class="cls-13" cx="820.43" cy="994.58" r="1.33"/><circle class="cls-13" cx="827.22" cy="999.01" r="1.33"/><path class="cls-4" d="m416.21,1013.11c-13.89,3.16-37.28,1.97-36.75,38.74.53,36.77,16.56,42.66,35.2,44.43s46.6,7.64,43.62-11.51c0,0,3.99-46.02-3.71-60.38-7.7-14.36-24.47-14.44-38.36-11.28Zm31.26,60.09c5.1,19.58-13.06,15.47-22.66,17.07-9.6,1.6-23.26-2.93-33.58-21.8-10.32-18.87,6.27-32.09,14.07-34.7,40.74-13.64,37.07,19.85,42.17,39.44Z"/><path class="cls-12" d="m391.23,1068.47c10.32,18.87,23.99,23.4,33.58,21.8,9.6-1.6,27.76,2.51,22.66-17.07s-1.43-53.07-42.17-39.44c-7.8,2.61-24.4,15.83-14.07,34.7Zm34.21-17.39c5.68,4.68,12.46,11.57,3.19,20.3s-15.93,5.62-23.52-2.76c-7.58-8.38-2.41-11.59,1.94-16.17,8.98-9.45,12.71-6.05,18.39-1.37Z"/><path class="cls-4" d="m407.05,1052.45c-4.35,4.58-9.52,7.79-1.94,16.17,7.58,8.38,14.24,11.49,23.52,2.76s2.49-15.62-3.19-20.3c-5.68-4.68-9.41-8.08-18.39,1.37Zm7.48,2.04c2.96.95,13.99,4.28,9.31,11.06s-7.12,4.05-11.73.93c-4.61-3.12-6.1-3.42-4.82-5.37,0,0,4.28-7.56,7.24-6.62Z"/><path class="cls-12" d="m407.29,1061.12c-1.28,1.95.21,2.25,4.82,5.37,4.61,3.12,7.05,5.86,11.73-.93s-6.35-10.12-9.31-11.06c-2.96-.95-7.24,6.62-7.24,6.62Z"/><path class="cls-16" d="m125.6,826.32s-5.74-33.57-3.44-34.43c2.3-.86,18.65-5.45,16.64-8.32s-11.01-10.62-7.8-13.77c3.21-3.16,21.86-10.62,21.86-10.62,0,0-2.87-19.23-4.88-21.81-2.01-2.58,19.8-8.32,19.8-8.32,0,0-1.15-23.82-1.72-26.69-.57-2.87,17.5-5.16,17.5-5.16,0,0-2.01-27.55,0-28.41s19.23-7.46,19.23-7.46c0,0-3.73-20.09-2.01-20.37,1.72-.29,28.98-6.03,28.98-6.03l-2.01-19.51s24.68-4.3,24.68-8.32-4.02-15.78-1.72-16.64c2.3-.86,19.51-3.44,19.51-6.6s0-12.91,0-12.91c0,0,27.83-6.31,34.15-7.75,6.31-1.43,5.16,8.9,5.16,14.06s.08,12.91.08,12.91l-13.57-1.15s3.73,13.77.57,14.35-19.8,1.72-19.8,4.59,3.16,18.94.57,18.94-25.82,4.88-25.54,7.75,11.76,19.23,7.75,19.23-23.82,5.45-23.82,8.61,6.6,16.93,2.58,19.51c-4.02,2.58-25.25,5.45-24.68,10.04s8.08,20.09,5.76,20.95c-2.32.86-23.27,7.46-22.98,9.47s5.45,18.65,3.16,19.8c-2.3,1.15-18.36,4.59-18.08,8.03s7.46,20.21,3.73,21.72c-3.73,1.52-17.22,5.54-17.22,7.26s7.46,15.44,4.59,16.76-8.67,1.89-8.78,4.48,7.35,25.82,1.03,25.82c-6.31,0-39.31,0-39.31,0Z"/><path class="cls-6" d="m375.49,563.06s-35.88,25.41-38.32,50.69c-2.45,25.28.82,47.29,31.8,75.01,30.98,27.72,41.63,95.56-10.24,114.27s-52.41-49.73-41.18-61.5,24.07-9.63,24.6-3.21c0,0-13.37-4.81-12.3,8.02,1.07,12.83,28.34,13.9,30.48,0,2.14-13.9-2.67-37.97-30.48-36.36-27.81,1.6-42.25,25.67-39.04,52.94,3.21,27.27,28.34,58.83,68.99,56.69,40.64-2.14,63.1-20.32,60.96-62.03-2.14-41.71-28.88-86.1-41.71-110.7s-25.83-58-3.56-83.82Z"/><path class="cls-12" d="m327,768.39c-2.64-1.32-7.49,5.35-4.55,8.83,2.94,3.48,10.44-5.89,4.55-8.83Z"/><path class="cls-12" d="m338.88,787.4c-2.95-1.04-5.19.79-5.03,3.93s3.93,3.62,6.45,2.52c2.52-1.1,1.26-5.5-1.42-6.45Z"/><path class="cls-12" d="m360.9,787.1c-2.18.37-4.72,2.65-3.77,6.43s7.71,1.1,8.34-1.26,0-5.94-4.56-5.17Z"/><path class="cls-12" d="m380.18,596.05c-2.22-.42-4.52,2.83-2.83,6.03,1.7,3.2,5.84,3.2,6.22,0s-.38-5.46-3.39-6.03Z"/><path class="cls-6" d="m388.08,618.4c-3.12,0-3.19,4.73-2.36,7.68s6.62,3.31,6.73-1.06-1.89-6.62-4.37-6.62Z"/><path class="cls-12" d="m400.13,643.92c-1.89,0-4.73,3.31-3.31,6.73,1.42,3.43,6.97,1.77,7.09,0s-.24-6.73-3.78-6.73Z"/><path class="cls-6" d="m413.36,662.82c-3.66-.08-6.26,3.66-5.08,8.62,1.18,4.96,6.5,4.49,8.39,2.13,1.89-2.36,1.89-10.63-3.31-10.75Z"/><path class="cls-4" d="m402.4,576.9c-6.61-.72-19.24-3.86-18.73,2.36.51,6.22-1.21,11.15,6.3,11.79,7.51.64,10.72,3.86,11.15,11.15.43,7.29,3.65,38.17,13.08,42.67,9.44,4.5,22.52,4.5,30.45,4.29,7.93-.21,6.43-1.06,5.79-5.25s-22.3,1.17-28.31-6.33c-6-7.51-9.01-34.1-9.22-42.67-.21-8.58-.06-16.88-10.5-18.01Z"/><path class="cls-15" d="m427.19,727.61s-11.93-16.95-9.38-31.75c2.56-14.8,19.11-22.59,20.09-35.25,0,0,8.18,12.27,0,25.52-8.18,13.24-15.97,26.29-10.71,41.49Z"/><path class="cls-15" d="m427.97,770.45s-7.99-20.06,3.31-34.47c11.3-14.41,17.33-21.23,15.19-29.41,0,0,8.84,16.95.43,31.16-8.41,14.22-18.74,13.44-18.93,32.72Z"/><path class="cls-15" d="m417.46,801.81s4.48-17.14,14.99-26.29c10.52-9.15,23.96-9.35,24.15-29.02,0,0,8.76,17.98-7.4,31.49-16.17,13.5-21.42,6.49-31.74,23.83Z"/><path class="cls-11" d="m453.75,659.2s.78,37.6,2.87,44.13c2.09,6.53,2.09,10.18,9.66,10.45,7.57.26,18.8,1.57,18.8-5.74s1.04-10.18-8.62-10.18-19.32-2.09-19.06-15.41c.26-13.32,3.13-23.76-3.66-23.24Z"/><path class="cls-6" d="m479.34,720.57c-6.27-.02-18.02-.52-17.76,4.44s9.66,24.29,6.53,36.3-9.83,28.06-17.58,29.44c-7.75,1.38-17.15,2.68-16.11,9.99,1.04,7.31-2.61,13.32,10.18,12.27,12.8-1.04,67.89-1.83,70.77-12.53,2.87-10.71,2.87-33.95,0-41s-8.88-7.57-16.71-7.57c-7.83,0-15.41-7.57-15.15-17.5s.26-13.83-4.18-13.84Z"/><path class="cls-5" d="m487.79,766.84c-5.87.54-20.21,5.8-23.8,15.81-3.59,10.01-3.02,16.62,13.22,16.62,16.25,0,22.29-14.36,22.29-20.4,0-6.05-2.08-12.91-11.71-12.03Z"/><path class="cls-8" d="m487.22,773.39c-5.41-2.25-15.87,4.9-15.87,9.63s3.3,8.32,9.49,6.24c6.19-2.08,15.41-12.11,6.38-15.87Z"/><path class="cls-12" d="m483.07,778.49c-2.83.38-4.91,2.06-4.16,4.53.76,2.46,5.7-.98,6.21-2.26,1.09-2.71-2.06-2.26-2.06-2.26Z"/><path class="cls-4" d="m294.34,559.06s-11.14-34.93,0-36.4c11.14-1.47,70.98-10.7,73.2-1.79s5.09,39.2,2.23,42.2c-2.86,3-7.96-23.16-7.96-28.54s-7.64-9.1-23.23-8.04c-15.6,1.07-40.74-5.3-40.1,10.61.64,15.91,2.86,23.87-4.14,21.96Z"/><path class="cls-2" d="m329.5,562.98c-1.37,6.6-11.55,13-4.13,14.86,7.43,1.86,23.32,1.86,17.74-7.43-5.57-9.29-4.54-11.76-1.24-15.68s7.89-22.28-8.54-22.28c-16.43,0-15.15,18.78-10.94,22.08,4.21,3.3,8.13,3.51,7.1,8.46Z"/><path class="cls-4" d="m272.08,1047.34c-19.55-3.37-39.12-10.74-41.58-31.22-4.9-40.96,41.97-51.88,96.37-52,54.4-.12,120.87,12.72,131.48-35.62,10.61-48.34,24.32-67.91-27.28-70.35-51.61-2.44-176.04-22.4-211.25-6.02-35.21,16.38-48.85,53.09,13.97,56.46,24.27,1.3,2.28-49.58,22.66-44.32,20.38,5.26,9.75,17.57,43.03,6.25,33.27-11.32,68.75.65,72.68,24.33,3.94,23.68-11.19,45.27-44.08,56.04-32.89,10.76-152.79,40.65-182.62,25.79-29.83-14.86-61.44-74.68-48.81-121.23,12.63-46.55,111.47-64.05,175.73-61.3,64.26,2.75,118.72,6.03,149.13,8.68s70.42-7.23,93.55,2.57c23.13,9.8,33.06,23.19,38.94,73.98,5.87,50.79,14.15,100.44-29.24,106.66-43.39,6.23-135.83,6.66-188.91,12.94-53.08,6.28-62.03,19.85-31.19,23.68,5.01.62,10.72,1.35,16.69,2.26"/><path class="cls-12" d="m318.54,584.91s2.1-2.76,6.74-2.43,15.69,1.6,20.45-.03c0,0-22.55,20.69-24.2,24.23,0,0-3.76-2.87-5.86-2.65,0,0,3.32-6.33,4.75-9.46s1.22-4.02-.11-5.9-1.77-3.76-1.77-3.76Z"/><path class="cls-12" d="m321.52,606.68s5.86,1.33,10.39-2.32c0,0-7.52,8.51-10.39,20.78,0,0-14.15,7.74-19.89,6.74,0,0,10.83-18.68,19.89-25.2Z"/><path class="cls-12" d="m315.67,604.03s-.22,5.28-8.95,14.14c-8.73,8.85-15.47,14.71-15.47,14.71,0,0-5.86,1.22-9.17,0-3.32-1.22-9.84-3.54-12.05-3.54,0,0,7.63-.22,8.62-1.44s5.64-17.57,13.48-21.22c0,0,.44,3.65,3.76,2.32,3.32-1.33,13.04-8.95,19.78-4.97Z"/><path class="cls-12" d="m291.24,632.87l10.39-.99s-14.15,25.92-14.15,38.02c0,0-6.96-3.37-21,1.27,0,0-.33-20.45,24.76-38.29Z"/><path class="cls-12" d="m287.48,669.9s5.15,3.85,11.72,3.38c6.58-.47,12.84-3.6,14.09-5.95,0,0-.63,12.84-1.57,16.75,0,0-4.68,1.88-11.34,8.92-6.66,7.04-13.08,11.43-18.87,10.96,0,0,6.61-18.98,5.97-34.07Z"/><path class="cls-17" d="m266.48,671.17s-.78,16.2-13.3,32.17c0,0-10.49,2.5-17.22,1.88-6.73-.63-10.49.78-10.49.78,0,0,18.47-23.01,17.38-29.59,0,0,18.31-2.35,23.64-5.24Z"/><path class="cls-17" d="m253.18,703.34s5.49.37,9.73-1.04c4.24-1.41,15.82,1.8,18.61,1.66,0,0-6.54,16.96-16.68,27.11,0,0-5.65-4.5-12.84-3.98s-24.13,2.57-26.52.64c0,0,6.74-8.32,12.39-11.23,5.65-2.9,14.72-9.69,15.32-13.17Z"/><path class="cls-17" d="m264.83,731.07s-15.67,18.5-16.83,21.19c0,0,18.11,1.54,25.56-6.55,0,0-.13-6.04,14.26-24.79,0,0-7.19,8.48-11.56,10.15s-9.63,2.31-11.43,0Z"/><path class="cls-17" d="m248.01,752.27s-6.95-.23-12.57-1.68-15.38-1.01-15.98,0c0,0,1.56,12.12,1.12,19.04-.43,6.92-4.97,16.3-4.97,16.3,0,0,10.88,2.02,15.35,0,0,0,2.79-17.42,17.05-33.66Z"/><path class="cls-17" d="m230.96,785.93s10.15.14,17.05-4.47c6.9-4.62,17.86-9.52,24.5-9.23,0,0,1.01,15.29,4.33,17.74,0,0-11.39,9.62-25.39,10.36-13.99.74-20.48,5.5-20.48,5.5,0,0-1.89-12.75,0-19.9Z"/><path class="cls-16" d="m570.95,964.6s-30.83,25.8-33.38,27.49c-2.55,1.69-5.7,7.46-25.98.72-20.28-6.75-58.07-30.72-58.71-50.5-.64-19.79,10.16-27.32,24.19-42.16,14.04-14.83,28.24-27.2,45.45-9.6,17.2,17.61,40.77,42.02,26.9,52.7-13.86,10.67-24.79,22.16-37.23,18.1-12.43-4.06-39.59-12.85-37.01-26.69,2.57-13.84,20-25.78,29.51-23.64,9.51,2.14,13.2,11.71,11.91,16.2-1.29,4.49-4.01,5.93-9.87,5.41s-3.54,10.99,2.4,9.98c5.95-1.01,18.56-1.11,15.28-19.88-3.28-18.77-7.47-22.05-25.69-19.32-18.22,2.73-28.69,15.19-31.8,20.74-3.11,5.56-3.37,11.24.69,18.47,4.06,7.23,21.8,37.53,40.25,42.36,18.46,4.83,26.19,2.64,42.51-7.1,16.32-9.73,20.57-13.29,20.57-13.29Z"/><path class="cls-4" d="m250.19,387.84s-2.47,6.42-2.05,9.17c0,0,2.06,3.57,5,4.42,0,0-5.08-.73-5.65-.22,0,0-3.25,4.17-3.98,6.44,0,0,1.3-5.6.95-7.92,0,0-.36-2.32-4.64-4.9,0,0,3.42,1.2,5.48.56,0,0,2.21-1.09,4.89-7.55Z"/><path class="cls-4" d="m290.92,483.63s5.07,6.93,6.68,7.16l6.55-.75s-5.28,2.09-5.02,4.06,1.82,8.41,1.82,8.41c0,0-3.69-6.26-5.98-7.09-2.29-.83-6.42-1.37-6.42-1.37l4.32-1.72s-.85-5.8-1.97-8.7Z"/><path class="cls-4" d="m317.67,401.56s34.87-4.58,67.85,16.91,26.49,49.17,19.91,48.42-8.56-6.37-7.21-6.53c1.35-.15,3.77,3.37,5.03,1.63s1.3-6.68-3.51-7.21-5.62,6.29-3.72,8.89,12.93,14.23,21.99,4.18c9.06-10.06-1.05-37.05-21.81-50.78-20.76-13.73-54.55-29.39-77.51-19.25,0,0-6.13,1.95-1.02,3.73Z"/><path class="cls-5" d="m314.1,403.19s-3.37-2.1-3.16-4.43c.04-.42.11-.78.22-1.06.77-1.88-27.44,2.17-56.62,38.53l7.66,4.43s12.36-31.67,51.9-37.47Z"/><path class="cls-4" d="m320.49,392.16s-16.5-1.62-38.35,13.54c-21.85,15.16-28.47,29.43-29.23,30.05s-5.43-.39-3.01-5.46c2.42-5.07,26.45-33.98,48.57-41.51,22.12-7.53,22.01,3.39,22.01,3.39Z"/><path class="cls-5" d="m243.16,432.09s3.6,3.06,5.36-2.45,12.65-24.44,31.22-34.24c18.57-9.8,31.55-15.39,44.68-12.86,0,0,10.71-.15,5.11-3.01-5.6-2.86-24.31-10.76-52.76,8.57-28.45,19.33-33.6,43.99-33.6,43.99Z"/><path class="cls-4" d="m296.63,546.34s-32.52-14.59-37.21-55.74c-4.69-41.15,4.06-41.6,2.4-44.67-1.65-3.08-17.29-11.24-19.46-10.66-2.18.58-1.85,2.23-3.17,7.09s-3.51,33.97,15.49,70.42c19.01,36.45,30.06,38.94,41.94,33.57Z"/><path class="cls-12" d="m252.2,468.3c6.59-3.16,6.83-17.43,2.9-22.14-3.93-4.72-9.15-3.8-12.09.36-6.79,9.62,2.59,24.94,9.18,21.79Zm-6.54-17.85c1.67-2.37,4.65-2.89,6.88-.2,2.24,2.69,2.1,10.81-1.65,12.61-3.75,1.8-9.09-6.93-5.23-12.4Z"/><path class="cls-12" d="m246.01,484.34c4.7,8.58,7.13,7.3,8.72,5.31,1.58-1.99,1.87-6.86,1.87-6.86-.07-2.62,1.25-7.48-2.83-7.81s-12.46.78-7.76,9.35Zm6.31-5.92c2.43.2,1.65,3.09,1.69,4.66,0,0-.17,2.91-1.11,4.09-.94,1.18-2.4,1.95-5.2-3.17-2.8-5.12,2.19-5.78,4.63-5.58Z"/><ellipse class="cls-12" cx="249.15" cy="455.63" rx="3.26" ry="2.07" transform="translate(-247.94 605.88) rotate(-78.15)"/><ellipse class="cls-12" cx="250.75" cy="482.76" rx="1.34" ry="2.11" transform="translate(-114.79 79.87) rotate(-14.77)"/><path class="cls-4" d="m404.28,83.39c-120.28,53.55-235.03,97.49-223.72,227.3,11.31,129.81,415.38,158.51,508.91,65.28,93.54-93.23-55.45-394.86-285.2-292.58Z"/><path class="cls-12" d="m375.28,250.17v-2.26l2.15-.65c1.51-.5,2.47-1.17,2.91-1.99.43-.82.65-1.99.65-3.5v-54.44c0-1.43-.21-2.56-.65-3.39-.43-.82-1.36-1.49-2.8-1.99l-2.26-.65v-2.26h26.68v2.26l-2.04.65c-1.36.5-2.28,1.18-2.74,2.04-.47.86-.7,2.04-.7,3.55v59.39h15.82c2.44,0,4.27-.61,5.49-1.83,1.22-1.22,2.37-2.98,3.44-5.27l3.98-8.93h3.01l-1.08,19.26h-51.86Z"/><path class="cls-12" d="m433.27,250.17v-2.04l1.61-.43c1.43-.43,2.4-1.08,2.91-1.94.5-.86.79-2.01.86-3.44v-25.98c0-1.9-.04-3.85-.11-5.86,0-1.43-.27-2.56-.81-3.39-.54-.82-1.52-1.38-2.96-1.67l-1.51-.32v-1.94l18.83-6.24,1.29,1.18-.32,15.28v29.05c0,1.44.27,2.58.81,3.44.54.86,1.49,1.51,2.85,1.94l1.18.32v2.04h-24.64Zm12.37-59.17c-2.37,0-4.38-.75-6.02-2.26-1.65-1.51-2.47-3.41-2.47-5.7s.82-4.28,2.47-5.76c1.65-1.47,3.66-2.21,6.02-2.21s4.38.74,6.03,2.21c1.65,1.47,2.47,3.39,2.47,5.76s-.83,4.2-2.47,5.7c-1.65,1.51-3.66,2.26-6.03,2.26Z"/><path class="cls-12" d="m462.75,250.17v-2.04l1.61-.43c2.87-.79,4.34-2.54,4.41-5.27,0-2.51.02-5,.05-7.48s.05-4.93.05-7.37v-25.71h-6.13v-2.37l2.37-.43c1.43-.21,2.47-.73,3.12-1.56.65-.82,1.11-1.99,1.4-3.5.79-2.87,1.85-5.36,3.17-7.48,1.33-2.12,2.92-4.07,4.79-5.86,2.65-2.58,5.49-4.37,8.5-5.38,3.01-1,5.95-1.51,8.82-1.51s5.36.56,7.69,1.67c2.33,1.11,3.5,3,3.5,5.65,0,1.87-.56,3.35-1.67,4.46-1.11,1.11-2.71,1.67-4.79,1.67-3.3,0-6.2-1.94-8.71-5.81l-1.29-1.51c-.86-1.08-1.72-1.51-2.58-1.29-.86.22-1.47.93-1.83,2.15-.57,2.3-1.02,4.99-1.34,8.07-.32,3.08-.52,6.31-.59,9.68h12.37v3.33h-12.37v25.71c0,2.44.02,4.86.05,7.26.04,2.4.05,4.82.05,7.26,0,2.87,1.43,4.63,4.3,5.27l2.8.75v2.04h-27.76Z"/><path class="cls-12" d="m524.82,196.91c4.52,0,8.39.93,11.62,2.8,3.23,1.87,5.72,4.43,7.48,7.69,1.76,3.26,2.64,7.01,2.64,11.24,0,.93-.04,1.81-.11,2.64-.07.83-.22,1.6-.43,2.31h-32.38c.07,7.39,1.45,12.7,4.14,15.92s6.62,4.84,11.78,4.84c3.59,0,6.49-.59,8.71-1.78,2.22-1.18,4.27-2.85,6.13-5l1.72,1.61c-2.15,3.95-5.08,7.01-8.77,9.2-3.69,2.19-8.09,3.28-13.18,3.28s-9.58-1.08-13.45-3.23c-3.87-2.15-6.9-5.25-9.09-9.31-2.19-4.05-3.28-8.91-3.28-14.58s1.27-10.87,3.82-14.95c2.55-4.09,5.85-7.23,9.9-9.41,4.05-2.19,8.3-3.28,12.75-3.28Zm-.54,3.12c-2.08,0-3.89.59-5.43,1.78-1.54,1.18-2.76,3.26-3.66,6.24-.9,2.98-1.42,7.15-1.56,12.53h19.26c.79-7.24.5-12.48-.86-15.71-1.36-3.23-3.95-4.84-7.75-4.84Z"/><path class="cls-12" d="m342.11,305.6c0,7.96-1.49,14.15-4.46,18.56-2.98,4.41-7.15,7.48-12.53,9.2-5.38,1.72-11.66,2.58-18.83,2.58h-15.71v-60.57h15.71c7.17,0,13.45,1.13,18.83,3.39,5.38,2.26,9.56,5.61,12.53,10.06,2.98,4.45,4.46,10.04,4.46,16.78Zm-46.59,26.04h11.62c5.95,0,11.17-.68,15.65-2.04,4.48-1.36,7.96-3.91,10.44-7.64,2.47-3.73,3.71-9.18,3.71-16.35,0-5.88-1.24-10.74-3.71-14.58-2.47-3.84-5.95-6.67-10.44-8.5-4.48-1.83-9.7-2.74-15.65-2.74h-11.62v51.86Z"/><path class="cls-12" d="m351.04,335.94v-43.68h4.2l.65,11.19c.72-3.08,2.4-5.72,5.06-7.91,2.65-2.19,6.38-3.28,11.19-3.28h2.37v5.49h-2.37c-4.88,0-8.46.77-10.76,2.31-2.3,1.54-3.78,3.6-4.46,6.19-.68,2.58-1.02,5.45-1.02,8.61v21.09h-4.84Z"/><path class="cls-12" d="m398.81,337.01c-4.66,0-8.52-1.11-11.57-3.34-3.05-2.22-5.33-5.07-6.83-8.55-1.51-3.48-2.22-7.08-2.15-10.81,0-3.87.79-7.49,2.37-10.87,1.58-3.37,3.89-6.08,6.94-8.12,3.05-2.04,6.76-3.07,11.13-3.07,5.45,0,9.95,1.77,13.5,5.33,3.55,3.55,5.54,8.3,5.97,14.26.07.36.11,1.15.11,2.37h-35.29c0,5.74,1.36,10.26,4.09,13.56,2.72,3.3,6.63,4.95,11.73,4.95,3.66,0,6.83-.97,9.52-2.91,2.69-1.94,4.36-4.56,5-7.85h4.84c-.86,4.45-3.03,8.07-6.51,10.86-3.48,2.8-7.76,4.2-12.86,4.2Zm-15.49-25.71h29.91c-.07-1.86-.59-3.94-1.56-6.24-.97-2.29-2.51-4.3-4.63-6.03-2.12-1.72-4.9-2.58-8.34-2.58-4.73,0-8.36,1.47-10.87,4.41-2.51,2.94-4.02,6.42-4.52,10.44Z"/><path class="cls-12" d="m442.71,337.01c-4.02,0-7.35-1.02-10.01-3.07-2.65-2.04-4.63-4.77-5.92-8.18-1.29-3.41-1.94-7.19-1.94-11.35s.66-8.16,1.99-11.57c1.33-3.41,3.32-6.02,5.97-7.85,2.65-1.83,5.95-2.74,9.9-2.74,4.23,0,7.6.95,10.11,2.85,2.51,1.9,4.3,4.37,5.38,7.42l.21-.58v-9.68h4.95v43.68h-4.09l-.86-8.84-.21-.19c-1.15,2.65-2.98,5-5.49,7.05-2.51,2.04-5.85,3.07-10.01,3.07Zm1.83-4.52c4.59,0,8.03-1.6,10.33-4.79,2.29-3.19,3.44-7.58,3.44-13.18,0-5.95-1.2-10.36-3.6-13.23-2.4-2.87-5.79-4.3-10.17-4.3-5.09,0-8.82,1.63-11.19,4.9-2.37,3.26-3.55,7.44-3.55,12.53s1.22,9.65,3.66,13.02c2.44,3.37,6.13,5.06,11.08,5.06Z"/><path class="cls-12" d="m471.65,335.94v-43.68h4.09l.43,11.62h.21c.22-.65.59-1.6,1.13-2.85s1.34-2.55,2.42-3.87c1.08-1.33,2.51-2.47,4.3-3.44,1.79-.97,4.02-1.45,6.67-1.45,2.87,0,5.18.56,6.94,1.67,1.76,1.11,3.14,2.57,4.14,4.36,1,1.79,1.72,3.66,2.15,5.59h.22c.21-.65.63-1.6,1.24-2.85.61-1.25,1.51-2.55,2.69-3.87,1.18-1.33,2.71-2.47,4.57-3.44,1.86-.97,4.12-1.45,6.78-1.45,2.87,0,5.2.57,6.99,1.72,1.79,1.15,3.19,2.6,4.2,4.36,1,1.76,1.72,3.64,2.15,5.65.43,2.01.68,3.93.75,5.76.07,1.83.11,3.35.11,4.57v21.62h-4.41v-21.73c0-1.22-.05-2.78-.16-4.68-.11-1.9-.5-3.84-1.18-5.81-.68-1.97-1.78-3.62-3.28-4.95-1.51-1.33-3.66-1.99-6.46-1.99-3.08,0-5.59.86-7.53,2.58s-3.39,3.98-4.36,6.78c-.97,2.8-1.45,5.85-1.45,9.14v20.66h-4.41v-21.73c0-1.22-.05-2.78-.16-4.68-.11-1.9-.5-3.84-1.18-5.81-.68-1.97-1.77-3.62-3.28-4.95-1.51-1.33-3.66-1.99-6.46-1.99-3.08,0-5.59.86-7.53,2.58s-3.39,3.98-4.36,6.78c-.97,2.8-1.45,5.85-1.45,9.14v20.66h-4.52Z"/><path class="cls-12" d="m562.24,337.01c-4.66,0-8.52-1.11-11.57-3.34-3.05-2.22-5.33-5.07-6.83-8.55-1.51-3.48-2.22-7.08-2.15-10.81,0-3.87.79-7.49,2.37-10.87,1.58-3.37,3.89-6.08,6.94-8.12,3.05-2.04,6.76-3.07,11.13-3.07,5.45,0,9.95,1.77,13.5,5.33,3.55,3.55,5.54,8.3,5.97,14.26.07.36.11,1.15.11,2.37h-35.29c0,5.74,1.36,10.26,4.09,13.56,2.72,3.3,6.63,4.95,11.73,4.95,3.66,0,6.83-.97,9.52-2.91,2.69-1.94,4.36-4.56,5-7.85h4.84c-.86,4.45-3.03,8.07-6.51,10.86-3.48,2.8-7.76,4.2-12.86,4.2Zm-15.49-25.71h29.91c-.07-1.86-.59-3.94-1.56-6.24-.97-2.29-2.51-4.3-4.63-6.03-2.12-1.72-4.9-2.58-8.34-2.58-4.73,0-8.36,1.47-10.87,4.41-2.51,2.94-4.02,6.42-4.52,10.44Z"/><path class="cls-12" d="m592.04,335.94v-43.68h4.2l.65,11.19c.72-3.08,2.4-5.72,5.06-7.91,2.65-2.19,6.38-3.28,11.19-3.28h2.37v5.49h-2.37c-4.88,0-8.46.77-10.76,2.31-2.3,1.54-3.78,3.6-4.46,6.19-.68,2.58-1.02,5.45-1.02,8.61v21.09h-4.84Z"/><path class="cls-8" d="m583.75,1328.96s-210.98,1.7-256.92-27.22c-45.94-28.92-61.25-233.1-32.33-238.2,28.92-5.1,52.74,15.31,51.04,27.22s-11.06-24.67-41.69-9.36-11.91,88.47,37.43,81.67,47.64-68.06,22.12-114c-25.52-45.94-114.6-23.82-135.57,0-20.97,23.82,41.99,296.05,57.3,296.05s222.89,8.51,298.6-16.16Z"/><path class="cls-8" d="m285.02,1198.52s18.81,20.33,48.12,10.17c29.31-10.17,47.78-.34,55.92,8.64,0,0-16.08-31.5-40.07-30.58-23.98.92-30.25,19.22-63.97,11.77Z"/><path class="cls-8" d="m210.35,1247.83s18.81,20.33,48.12,10.17c29.31-10.17,47.78-.34,55.92,8.64,0,0-16.08-31.5-40.07-30.58-23.98.92-30.25,19.22-63.97,11.77Z"/><path class="cls-7" d="m336.95,1173.14s28.36-18.27,48.04-10.17c19.68,8.1,64.92,50.97,102.88,28.61,0,0-39.99-2.03-67.27-19.66-27.28-17.62-58.68-21.29-83.65,1.21Z"/><path class="cls-7" d="m137.58,1268.24s28.36-18.27,48.04-10.17c19.68,8.1,64.92,50.97,102.88,28.61,0,0-39.99-2.03-67.27-19.66-27.28-17.62-58.68-21.29-83.65,1.21Z"/><path class="cls-9" d="m485.5,1199.71s12.57,21.44,8.07,40.29c-4.51,18.85,1.42,40.03,31.08,46.98,0,0-27.79-25.76-24.23-49.31,3.56-23.55-5.93-37.11-14.91-37.96Z"/><path class="cls-7" d="m676.49,1286.98s14.46,10.07,33.78,2.11c19.32-7.96,34.57-10.5,60.32-5.25,25.76,5.25,81.39,20.26,106.19-29.69,0,0-13.33,22.15-41.12,25.66-27.79,3.52-53.72,2.5-65.07-3.6-11.35-6.1-27.25-9.35-45.91-3.06-18.65,6.28-30.12,17.81-48.19,13.82Z"/><path class="cls-9" d="m837.87,1269.76s-12.38,6.97-29.32,4.43c-16.94-2.54-26.26-6.78-21.35-12.2,4.91-5.42,26.96,18.6,50.67,7.78Z"/><path class="cls-7" d="m322.18,1224.67s-12.38,6.97-29.32,4.43c-16.94-2.54-26.26-6.78-21.35-12.2s26.96,18.6,50.67,7.78Z"/><path class="cls-8" d="m869.21,1223.86c-12.71-9.83-26.43-13.05-48.29,4.91-6.87,5.65-19.49,16.61-2.71,29.48,16.78,12.88,49.82-4.91,54.05-10,4.24-5.08,9.66-14.57-3.05-24.4Zm-9.83,22.2c-9.49,4.91-17.91,10.34-29.46,0-11.55-10.34,2.69-17.28,10.82-19.15,8.13-1.86,16.44-1.19,21.86,4.58,4.25,4.52,6.27,9.66-3.22,14.57Z"/><path class="cls-9" d="m842.05,1228.62c-6.06,1.39-16.67,6.57-8.07,14.27,8.61,7.71,14.89,3.66,21.96,0,7.07-3.66,5.57-7.5,2.4-10.86-4.04-4.3-10.23-4.8-16.3-3.41Zm7.89,10.12c-3.26,2.4-7.33.71-9.36-1.92-2.03-2.63,5.68-5.83,9.36-3.72,4.54,2.6,3.26,3.24,0,5.64Z"/><path class="cls-3" d="m779.15,1193.98s-17.05,24.58-57.44,9.13c-42.53-16.27-29.06-28.55-66.51-31.26,0,0,21.94-3.98,42.62,10.93,20.67,14.91,57.7,26.73,81.34,11.21Z"/><path class="cls-3" d="m702.03,1171.36s10.87-10.11,31.03-2.65c20.16,7.46,46.09,17.79,59.65,11.52,0,0-16.94,11.69-39.99,1.02-23.05-10.68-36.82-15.71-50.69-9.89Z"/><path class="cls-8" d="m655.2,1143.12c-7.77-4.37-38.8-8.22-47.95,3.98-9.15,12.2-6.27,27.45,20.84,26.1,27.11-1.36,36.14-7.98,36.2-15,.06-7.03.4-9.73-9.09-15.07Zm-14.74,22.84c-15.93,5.14-22.88-2.09-24.86-9.87-1.99-7.79,16.86-10.3,24.86-7.8,15.76,4.91,15.93,12.54,0,17.68Z"/><path class="cls-14" d="m642.3,1157.52c.24-2.79-12.07-7.02-14.92-1.44-2.85,5.59,6.08,6.91,7.46,6.93s6.76,2.73,7.46-5.49Z"/><path class="cls-8" d="m763.31,1141.34c-9.55-5.8-26.1-2.71-27.11,8.81-1.02,11.52,15.93,17.63,27.11,13.3,11.18-4.32,13.39-13.98,0-22.12Zm2.29,14.75c-1.1,8.99-20.42,2.7-22.25-2.74-1.83-5.45,7.27-9.97,13.35-8.45,4.74,1.19,10,2.2,8.9,11.19Z"/><path class="cls-14" d="m754.43,1149.55c-1.35.13-4.43,6.89,1.29,6.54,5.72-.35,6.6-7.31-1.29-6.54Z"/><path class="cls-12" d="m754.35,1266.48c-39.02,4.96-77.9-7.42-113.61-22.1-12.01-5.11-23.77-10.61-35.19-16.98,0,0,1.98-.28,1.98-.28-4.86,5.02-8.36,11.25-9.84,18.01-2.96,13.75,1.86,28.25,9.32,39.85,1.96,2.91,4.09,5.73,6.53,8.17,1.87,2,4.37,3.61,5.97,6.09.88,1.4,1.33,2.94,1.57,4.5.15.84.24,1.82.07,2.69-2.28,7.8-14.33,2.99-19.14.74-10.07-4.87-18.7-11.73-26.8-19.28-8.16-7.66-13.92-17.85-16.41-28.72-2.53-11.35-2.47-23.37.86-34.53,1.27-2.75,2.95-5.6,3.68-8.52,2.86-10.41-3.24-20.61-9.72-28.4-4.61-5.51-9.97-10.29-15.39-15-8.27-7.12-15.79-15.11-22.3-23.87-8.57-11.63-15.79-24.69-18.72-38.93.77,3.53,1.96,6.96,3.33,10.3,6.82,16.7,17.94,31.41,31,43.74,7.73,7.5,16.84,13.87,23.92,22.2,7.18,8.28,13.7,19.34,10.73,30.71-.47,1.86-1.17,3.65-1.96,5.35-.61,1.34-1.74,3.28-2.05,4.69-4.03,17-1.8,36.13,8.6,50.47,4.08,5.8,9.51,10.45,14.98,14.91,8.18,6.32,17.24,12.94,27.51,14.59,1.26.15,2.93.1,3.83-.56.41-.23.46-.88.4-1.39-.26-2.18-.86-3.9-2.6-5.46-14.82-12.82-24.92-35.46-20.57-55.11,1.68-7.36,5.58-14.16,10.85-19.51,0,0,.88-.9.88-.9l1.11.62c42.02,23.11,98.59,46.5,147.17,41.9h0Z"/><path class="cls-3" d="m518.79,1226.23s13.39,16.44,20.33,19.99c0,0,3.39,26.94,15.42,39.48,12.03,12.54-7.84,8.64-12.56,1.27-4.72-7.37,6.46-4.15,7.48-1.78,1.02,2.37-3.43,3.22-3.49,1.78-.06-1.44,4.85,7.54,5.7,1.95.85-5.59-4.91-3.39-11.69-20.67-6.78-17.28-13.39-34.06-21.18-42.02Z"/><path class="cls-3" d="m542.93,1279.82s-6.52.3-5.33,3.18c0,0-20.64-18.47-21.42-39.65-.78-21.18,4.56-13.32,7.4-8.53,2.84,4.8,8.94,16.83,3.68,14.46-5.25-2.37-9.83-7.79-7.63-11.01s3.56,2.88,3.56,2.88c0,0-2.29-8.15-3.6-6.7-1.31,1.45-3.35,10.09.72,16.19,6.78,10.17,6.77,23.47,22.62,29.19Z"/><path class="cls-7" d="m522.35,1249.79s5.76,3.73,8.81.85l2.81,5.54s-6.71,3.11-8.23,1.07c0,0-2.03-6.95-3.39-7.46Z"/><path class="cls-7" d="m526.99,1260.04s6.93-.06,8.09-2.11c0,0,2.43,9.78,3.49,11.83,0,0-4.51,1.58-4.6,3.17,0,0-6.75-7.9-6.98-12.9Z"/><path class="cls-7" d="m535.23,1273.85s2.12-2.91,3.35-3.06c0,0,4.79,7.47,5.47,7.81,0,0-5.59-1.36-8.81-4.74Z"/><path class="cls-3" d="m483.89,1126.94s-15.59,48.8,63.37,119.29c0,0,10.84,3.9,11.1,1.35s2.03.81-7.16-5.61c-9.19-6.42-62.74-44.54-67.31-115.03Z"/><path class="cls-3" d="m487.87,1124.49s4.15,67,62.27,107.76c0,0,8.96,4.66,6.35,0-2.62-4.66.08.57-13.55-12.04-13.63-12.61-42.61-40.72-55.06-95.72Z"/><path class="cls-3" d="m493.56,1124.49s15.67,71.56,63.4,95.72c0,0,11.74,7.7,0-4.32-11.74-12.02-50.51-47.75-63.4-91.4Z"/><path class="cls-3" d="m497.2,1126.94s28.73,67.1,64.98,86.16c0,0,3.72-2.46-3.82-10-7.54-7.54-52.07-55.66-61.15-76.17Z"/><path class="cls-3" d="m604.94,1238.97s25.28,15.14,35.44,21.07c10.16,5.93,59.47,20.64,78.28,15.4l6.03-2.28s-13.44,6.09-36.72-2.37c-23.28-8.46-46.99-20.97-54.54-24.37-7.55-3.4-24.36-10.13-28.49-7.45Z"/><path class="cls-3" d="m604.94,1250.51s25.07,21.46,37.07,24.18c12,2.72,26.74,5.26,33.35,5.6,6.61.34,13.97-.17,15.54-1.69,0,0-2.1,1.11-14.41-1.14-12.31-2.25-28.06-6.76-43.06-13.57-15-6.81-24.02-9.09-28.49-13.37Z"/><path class="cls-3" d="m603.7,1265.45s13.19,8.54,16.16,11.1c2.97,2.55,23.14,9.33,26.87,9.33s13.72,1.53,13.05,0c-.68-1.53-6.38-1.66-17.76-5.49-11.38-3.83-37.97-12.83-38.32-14.94Z"/><path class="cls-3" d="m599.62,1271.98s5.36,7.15,8.87,8.4,14.87,5.91,24.94,5.45c0,0-13.41-2.68-18.36-6.91s-15.62-10.33-15.45-6.94Z"/><path class="cls-12" d="m520.06,1123.8c-1.61-.81-2.67-1.84-2.61.69.06,2.53,1.41,4.96,3.19,3.58,1.79-1.39,1.45-3.25-.59-4.27Z"/><path class="cls-3" d="m829.31,1169.55c3.39-11.32,14.52-19.98,26.53-19.98,5.78.01,11.67,1.06,17.33,1.05,3.58,0,6.83-1.51,9.98-3.27-.65,11.83-13.91,15.24-23.68,15.26-.64-.01-2.31.04-2.92,0-9.74-.04-17.42,3.94-27.24,6.93h0Z"/><path class="cls-8" d="m831.29,1185.74c23.84-.77,46.7-5.7,63.93-22.54,5.38-4.93,9.98-10.61,14.56-16.3,1.33-1.73,2.65-3.49,4.17-5.22-.53,9.06-3.58,17.85-8.49,25.79-9.88,16.3-29.19,26.33-48.03,25.66-9.17-.31-18.41-2.37-26.14-7.39h0Z"/><path class="cls-8" d="m811.43,1167.43s-3.98,3.83-5.8-1.47c-1.82-5.31-.81-10.18,5.8-9.86,6.61.32,11.47,12.07,9.38,19.75-2.09,7.68-5.65,11.24-14.46,5.99-8.81-5.25-18.45-7.21-27.78-31.31-9.33-24.1-13.72-58.2,4.91-72.75,18.63-14.55,13.89,16.29,8.47,17.48-5.42,1.19-7.96-6.1-7.63-8.81.34-2.71,3.22-6.1,5.76-4.24,2.54,1.86-1.02,3.56-2.03,3.39s-.51,6.1,1.86,4.91c2.37-1.19,4.58-11.01.68-11.52-3.9-.51-8.64,3.56-8.98,6.78s-10.97,27.28,2.57,55.92c13.53,28.64,26.28,40.89,30.75,34.17,4.47-6.72-4.06-14.54-5.05-13.43s-1.67,6.03,1.55,5.01Z"/><path class="cls-8" d="m794.3,1095.35s-5.83,11,4.17,20.82c10,9.83,21.92,21.08,25.28,43.33,0,0-1.22-27.06-14.66-39.75-4.69-4.43-16.16-13.63-14.79-24.41Z"/><path class="cls-3" d="m782.71,1096.69s-2.03,3.27,0,4.6c2.03,1.33,6.44,5.91,6.95,2.52.51-3.39.51-4.74-1.19-4.58s-1.36.17-3.56-1.19c-2.2-1.36-1.36-3.39-2.2-1.36Z"/><path class="cls-3" d="m781.18,1108.04s0,8.13,2.71,8.13,4.91-1.69,6.61-1.36c1.69.34,3.94.34,2.99-2.71-.95-3.05-1.8-5.93-4.34-4.74-2.54,1.19-6.95,1.86-7.96.68Z"/><path class="cls-3" d="m781.8,1122.89c1,2.4,2.33,7.85,4.07,8.19s3.07-.4,4.69-1.98c1.63-1.58,4.85-2.25,6.37-2.76,1.53-.51,3.9-1.86,2.2-3.9-1.69-2.03-2.22-5.1-3.23-5.09s-1.35-.33-2.7,1.19-3.73,3.22-6.44,2.71c-2.71-.51-5.7-.13-4.97,1.63Z"/><path class="cls-3" d="m787.45,1138.48s1.18,6.99,6.27,5.64c5.09-1.35,6.49-3.67,9.43-5.64,2.94-1.97,3.96-3.33,3.96-5.19s-1.53-7.12-3.22-7.12-5.59,2.2-7.12,3.73-6.44,9.2-9.32,8.58Z"/><path class="cls-3" d="m794.74,1150.23s4.07,3.73,4.07,4.91,1.98,1.69,4.55,0c2.57-1.69,4.09-3.56,6.64-4.24,2.54-.68,3.39-3.39,2.88-5.76-.51-2.37-1.53-6.1-3.39-5.76s-2.87.68-4.32,2.29c-1.44,1.61-8.22,8.9-10.43,8.56Z"/><path class="cls-12" d="m627.56,1178.93s26.63,21.3,29.51,27.27c0,0,2.61-2.41,16.3,0,0,0-10.07-9.35-11.41-13.63,0,0-22.39-12.98-34.4-13.63Z"/><path class="cls-12" d="m673.37,1206.2s16.65,14.7,27.84,17.92c0,0,3.39,1.36,12.2-4.24,0,0-6.83-2.61-11.38-7.07-4.55-4.46-12.11-8.68-12.11-8.68,0,0-11.01,2.96-16.55,2.07Z"/><path class="cls-12" d="m713.4,1219.88s6.95-1.86,7.29-3.05c0,0,12.64,7.26,22.42,6.51,0,0-3.61,5.01-6.15,5.86,0,0-7.09-1.49-12.27-4.05-5.18-2.56-11.28-5.27-11.28-5.27Z"/><path class="cls-12" d="m736.96,1229.2l-5.76,4.24s14.58,3.75,21.18,2.38c0,0,1.72-1.35,2.05-4.83,0,0-7.64,1.09-17.47-1.79Z"/><path class="cls-12" d="m731.2,1233.43s-7.85,5.09-11.13,5.93c0,0-18.51-2.19-35.63-13.38,0,0,13.16.45,17.59-1.73,0,0,15.44,8.5,29.17,9.18Z"/><path class="cls-12" d="m756.63,1226.07s-.86,1.26-.86,2.11-1.34,2.81-1.34,2.81c0,0,13.71-1.79,15.57-3.65,0,0,.07-1.27-.81-2.33,0,0-3.06,1.51-12.56,1.07Z"/><path class="cls-12" d="m752.38,1235.82s-5.09,7.28-7.29,8.12c0,0,7.29,1.02,12.88,1.02s8.36-1.81,9.69-1.33c0,0,3.37-7.34,2.35-10.97,0,0-5.59,3-17.62,3.16Z"/><path class="cls-12" d="m770,1227.33v5.32s8.47-1.43,12.88-4.14c0,0-1.43-5.42-1.56-5.51s-7.25,3.98-11.32,4.32Z"/><path class="cls-12" d="m782.88,1228.52l2.02,6.44s10.46-4.8,11.76-8.25c0,0-2.6-4.12-2.6-4.97,0,0-6.78,5.42-11.18,6.78Z"/><path class="cls-12" d="m780.17,1221.96l.93,2.3s9.91-3.53,10.92-6.58l-.84-1.79s-4.08,3.48-11.02,6.07Z"/><path class="cls-12" d="m792.03,1217.67l2.03,4.07s8.64-4.07,11.35-10.17c0,0-2.2-3.39-3.05-3.73,0,0-4.58,6.61-10.34,9.83Z"/><path class="cls-12" d="m800.6,1206.48s1.43.69,1.76,1.36c0,0,6.61-7.29,6.78-10,0,0-2.52-1.27-2.7-1.06s-3.2,6.46-5.84,9.69Z"/><path class="cls-12" d="m805.41,1211.57s2.59,3.54,2.57,4.31c0,0,8.97-9.83,10.15-15.04l1.29-3.35s-12.82,12.89-14.01,14.07Z"/><path class="cls-12" d="m815.32,1209.36s-4.69,30.77-21.79,42.59c-17.1,11.82-33.31,15.18-41.73,13.5,0,0,52.92-10.69,63.52-56.09Z"/><path class="cls-3" d="m592.42,1164.34c-6.78-3.35-17.62-11.22-24.65-16.58-7.03-5.36-10.42-8.71-25.63-20.82-15.2-12.12-26.82-13.3-26.82-13.3,0,0,5.12,7.31,19.33,14.84s48.78,35.83,54.03,36.84c5.25,1.02,3.73-.98,3.73-.98Z"/><path class="cls-3" d="m484.74,1113.63s3.7-7.56,11.72-6.58c8.02.98,12.81,4.2,12.81,4.2,0,0-19.18-5.24-24.53,2.38Z"/><path class="cls-14" d="m804.65,1316.72c4.41-1.36,8.47,6.44,1.19,6.78,0,0-.7,2.18.69,3.19,2.83-.71,5.67-1.48,8.51-2.29,4.53-5.66.69-19.6-11.83-19.1-14.49.58-16.49,12.12-15.07,20.33.24,1.39.48,3.03.59,4.81,3.72-.61,7.6-1.37,11.55-2.26-.82-4.62,1.43-10.55,4.37-11.45Z"/><path class="cls-14" d="m870.91,1296.89s-9.83,8.64-24.91,5.59c-11.79-2.38-19.56-6.1-36.43-1.58,11.76,4.36,12.4,17.12,11.26,21.77,24.74-7.65,47.51-18.35,50.08-25.78Zm-43.29,6.52c-.56,0-1.02-.46-1.02-1.02s.46-1.02,1.02-1.02,1.02.46,1.02,1.02-.46,1.02-1.02,1.02Zm5.76,1.02c-.56,0-1.02-.46-1.02-1.02s.46-1.02,1.02-1.02,1.02.46,1.02,1.02-.46,1.02-1.02,1.02Zm5.93,2.03c-.56,0-1.02-.46-1.02-1.02s.46-1.02,1.02-1.02,1.02.46,1.02,1.02-.46,1.02-1.02,1.02Z"/><path class="cls-7" d="m320.88,1295.54c7.79-6.95,19.49-6.61,34.48-3.51,15,3.1,17.71-10.55,17.71-15.3s-1.19-8.64-7.46-8.98c-6.27-.34-19.4,5.72-29.78,2.01-3.85-1.38-21.56,1.88-25.12,5.1-3.56,3.22,8.47,10.17,11.01,10.51,2.54.34.34-4.41,4.91-5.25s5.25,2.88,3.9,5.25c-1.36,2.37-5.93,2.37-10.34,5.93-4.41,3.56-9.15,6.61-13.73,8.3-4.58,1.69-6.44-6.95-6.44-9.66s4.91-3.05,4.24-1.53c-.68,1.53-2.2,2.03,1.53,3.9,3.73,1.86,3.73-5.25,3.56-7.63-.17-2.37-8.81-6.61-12.04,2.29-3.23,8.9,1.54,12.62,7.3,18.05,5.76,5.42,8.47-2.54,16.27-9.49Zm47.02-22.11c.66,0,1.19.53,1.19,1.19s-.53,1.19-1.19,1.19-1.19-.53-1.19-1.19.53-1.19,1.19-1.19Zm-1.19,7.79c.66,0,1.19.53,1.19,1.19s-.53,1.19-1.19,1.19-1.19-.53-1.19-1.19.53-1.19,1.19-1.19Zm-5.08-8.98c.66,0,1.19.53,1.19,1.19s-.53,1.19-1.19,1.19-1.19-.53-1.19-1.19.53-1.19,1.19-1.19Z"/><path class="cls-7" d="m379.71,1225.3c-6.1-3.79-14.78-6.31-26.81-4.49-17.96,2.71-4.91,13.56-1.69,10.68,2.36-2.11,16.53-2.59,20.01,3.07.58-3.66,2.75-7.28,8.5-9.26Zm-32.49.17c0-.56.46-1.02,1.02-1.02s1.02.46,1.02,1.02-.46,1.02-1.02,1.02-1.02-.46-1.02-1.02Zm2.03,4.07c-.56,0-1.02-.46-1.02-1.02s.46-1.02,1.02-1.02,1.02.46,1.02,1.02-.46,1.02-1.02,1.02Z"/><path class="cls-7" d="m360.3,1250.43c-3.16,1.24-6.56-4.26-1.24-4.9,0,0,1.05-4.33-4.88-1.76-5.93,2.57-2.79,16.18,7.8,14.96,10.59-1.22,11.43-9.79,9.93-15.73-.2-.78-.4-1.69-.57-2.66-.37.93-.9,1.93-1.64,3.01,0,0-3.13-2.23-8.25-4.14,3,2.88,1.58,10.15-1.16,11.22Z"/><path class="cls-7" d="m348.25,1246.33c.87-2.89,5.08-8.02,9.52-8.32-3.48-.96-7.55-1.61-11.99-1.45-13.73.51-22.71,3.22-21.52,9.49,1.19,6.27,7.41,19.95,10.4,17.77,2.99-2.18,13.13-.63,19.07-3.1.07-.03.14-.05.21-.08-6.01-3.97-6.42-11.92-5.7-14.32Zm-21.02.66c-.56,0-1.02-.46-1.02-1.02s.46-1.02,1.02-1.02,1.02.46,1.02,1.02-.46,1.02-1.02,1.02Zm2.03-2.88c-.56,0-1.02-.46-1.02-1.02s.46-1.02,1.02-1.02,1.02.46,1.02,1.02-.46,1.02-1.02,1.02Zm2.03,4.24c-.56,0-1.02-.46-1.02-1.02s.46-1.02,1.02-1.02,1.02.46,1.02,1.02-.46,1.02-1.02,1.02Z"/><path class="cls-8" d="m357.69,1312.04c1.06-3.22,7.47-2.33,4.57,2.18,0,0,2.66,3.57,4.47-2.63,1.81-6.2-10.67-12.48-16.49-3.55-5.83,8.93.24,15.04,5.76,17.69.36.17.75.36,1.14.57,2.72-2.27,5.44-4.47,7.75-6.17-3.94-.19-8.07-5.45-7.19-8.08Z"/><path class="cls-7" d="m509.81,1328.07c-1.69-10.68-6.78-11.18-10.51-9.49-3.73,1.69-8.47,5.59-15.42-2.54-6.95-8.13-16.1-17.28-26.26-19.83-10.17-2.54-19.83-6.78-16.61-7.46,3.22-.68,9.75.45,11.49,2.17,1.73,1.72,4.54,4.89,4.07-1.52-.47-6.41-3.26-8.4-4.07-10.46s-.75-2.56-4.84-1.55c-4.1,1.01-5.91,3.72-4.75-2.63,1.16-6.35-.89-22.45-2.66-27.19-1.77-4.74-5.48-6.27-14.64-4.24-9.16,2.03-16.14,5.86-7.22,10.81,8.91,4.95,10.27,8.03,7.98,12.25-2.29,4.22-9.25,4.76-18.82-5.68-9.57-10.43-14.99-22.8-20.58-29.24-1.47-1.69-3.27-3.41-5.46-4.98-3.63,2.06-6.9,5.51-5.54,11.14,2.15,8.92,2.82,19.05-4.55,23.28,1.17.45,2.05.98,2.51,1.58,2.2,2.88,7.99,3.3,17.47,1.57,9.47-1.73,15.58.98,19.64,8.09,4.07,7.12,8.98,17.62,2.2,18.13-6.78.51-14.74-1.53-10.51-5.42,4.24-3.9,6.78-5.08,1.78-7.45-5-2.37-6.73-2.54-8.75,0-2.01,2.54-3.03,3.73-5.57,1.52-2.54-2.2-7.08-4.06-8.88-1.52-1.8,2.54-5.19,6.44-.44,6.44s9.15,8.47,5.76,9.32c-3.39.85-6.44,1.69-10.84,1.36-4.41-.34-32.03,0-47.78,9.83-15.76,9.83-13.05,13.22-10.17,17.62,2.88,4.41-.17,8.13,6.1,10.17,6.27,2.03,16.12,8.9,21.45,4.28,1.8-1.56,4.57-4,7.63-6.63-8.53-5.15-14.94-12.62-7.11-23.09,9.18-12.27,20.73-4.22,22.65-1.32,1.55,2.34,2.75,8.14.81,11.84,4.9-2.37,6.09-4.4,7.78-8.63,1.69-4.24,2.37-7.12,16.94-4.74,14.57,2.37,13.89,9.49,12.2,11.01-1.69,1.53-3.9,6.44,3.22,10.84,7.12,4.41,46.54,21.73,55.38,9.34,8.84-12.39,1.84-24.74-4.99-28.22-6.84-3.49-22.09-7.38-30.05-1.28-7.96,6.1-8.81,13.22.51,15.25,9.32,2.03,15.76-.68,12.37-5.59-3.39-4.91-6.1-3.56-7.29-3.56s-1.19-4.41,6.61-3.39c7.79,1.02,16.36,3.04,14.54,12.54-1.83,9.49-10.3,16.78-23.69,10.51-13.39-6.27-21.2-10.31-17.55-24.47,3.65-14.16,15.17-14.16,26.87-12.3,11.69,1.86,33.38,16.94,35.75,27.62,2.37,10.68,4.91,12.03,12.37,12.71,7.46.68,21.18,3.9,19.49-6.78Zm-184.78-10.25c-.66,0-1.19-.53-1.19-1.19s.53-1.19,1.19-1.19,1.19.53,1.19,1.19-.53,1.19-1.19,1.19Zm2.37-6.78c-.66,0-1.19-.53-1.19-1.19s.53-1.19,1.19-1.19,1.19.53,1.19,1.19-.53,1.19-1.19,1.19Zm6.1,0c-.66,0-1.19-.53-1.19-1.19s.53-1.19,1.19-1.19,1.19.53,1.19,1.19-.53,1.19-1.19,1.19Zm2.37-4.74c-.66,0-1.19-.53-1.19-1.19s.53-1.19,1.19-1.19,1.19.53,1.19,1.19-.53,1.19-1.19,1.19Zm95.23-59.31c-.56,0-1.02-.46-1.02-1.02s.46-1.02,1.02-1.02,1.02.46,1.02,1.02-.46,1.02-1.02,1.02Zm4.24,2.37c-.56,0-1.02-.46-1.02-1.02s.46-1.02,1.02-1.02,1.02.46,1.02,1.02-.46,1.02-1.02,1.02Zm68.63,73.71c0-.56.46-1.02,1.02-1.02s1.02.46,1.02,1.02-.46,1.02-1.02,1.02-1.02-.46-1.02-1.02Zm2.03,9.32c-.56,0-1.02-.46-1.02-1.02s.46-1.02,1.02-1.02,1.02.46,1.02,1.02-.46,1.02-1.02,1.02Zm1.02-4.41c-.56,0-1.02-.46-1.02-1.02s.46-1.02,1.02-1.02,1.02.46,1.02,1.02-.46,1.02-1.02,1.02Z"/><path class="cls-8" d="m490.46,1287.29c-1.75-1.04-3.41-2.07-4.96-3.1-23.55-15.67-17.45-36.69-14.45-45.38,3.01-8.69,12.07-16.05,2.42-27.74-9.66-11.69-34.06-8.64-41.85-2.71-7.79,5.93-7.12,23.05,3.39,28.98,10.51,5.93,14.23-7.96,14.23-7.96,1.61-4.15-9.23.59-15.67.42-6.44-.17-2.03-21.35,17.11-22.71,19.15-1.36,15.76,9.49,10.68,17.28-5.08,7.79-11.35,17.96-11.35,40.67,0,11.28,11.18,23.61,30.53,35.18-.08-.12-.15-.24-.22-.36-2.1-3.58,1.08-11.23,10.16-12.57Zm-34.19-23.61c-5.08-.85-4.36-13.79-1.69-16.94,3.73-4.41,10-2.37,10.31,6.34.31,8.71-3.53,11.46-8.61,10.61Zm4.32-21.99c-5.92-2.35-1.27-6.54,0-11.37.78-2.96,6.86-4.83,10.6-2.03,3.74,2.81-4.68,15.74-10.6,13.39Z"/><path class="cls-8" d="m669.4,1321.77c-.62-3.66-1.23-6.98-1.52-9.94-19.18,6.06-33.12,7.04-53.16,6.61,6.41,2.49,11.97,8.03,18.88,12.09,10.68,6.27,21.52-5.59,21.52-5.59-1.24,3.18-2.95,5.52-4.95,7.2,6.49-1.24,12.72-2.7,18.62-4.3.74-1.73,1.01-3.74.61-6.07Z"/><path class="cls-8" d="m567.59,1319.09c4.41-1.36,8.47,6.44,1.19,6.78,0,0-1.86,5.76,6.44,2.88,4.31-1.5,5.6-7.29,3.82-12.42-7.96-1.05-16.06-2.58-24.06-4.46-4.3,4.23-4.8,10.87-3.89,16.13.03.15.05.31.08.47,3.33.91,6.71,1.8,10.16,2.66.72.18,1.44.35,2.16.52-1.44-4.71.94-11.57,4.11-12.55Z"/><path class="cls-8" d="m602.31,1318.05c-1.99-.07-4.04-.15-6.17-.23-4.06-.16-8.21-.47-12.41-.93.76,3.87.4,7.39-.21,8.98-.94,2.45-3.84,6.01-7.38,8.24,6.35,1,12.7,1.65,19,2-.64-.38-1.22-.78-1.7-1.18-3.65-2.98-2.75-13.26,8.88-16.88Z"/><path class="cls-8" d="m547.03,1309.86c-12.83-3.43-25.18-7.72-36.08-12.37,2.76,3.83,5.28,8.21,8.54,12.21,7.83,9.59,22.12,2.25,22.12,2.25-12.87,14.47-30.68-1.36-33.93-9.55-3.26-8.19-11.53-11.39-16.84-11.47-5.31-.08-7.56,5.06-5.37,9.73,2.19,4.67,9.86,1.33,9.86,1.33,3.25,2.92,1.28,3.91,1.28,3.91-1.12.66-2.25,1.04-3.37,1.22,14.2,7.05,31.41,13.65,50.88,19.35-.32-6.15.32-12.09,2.9-16.61Z"/><path class="cls-8" d="m619.98,1327.79c-5.9-6.55-14.77-6.67-19.78-4.89-5.01,1.78-5.33,7.37-1.65,11,3.68,3.62,9.71-2.18,9.71-2.18,4.07,1.61,2.56,3.22,2.56,3.22-.46.56-.95,1.05-1.47,1.46,8.02-.11,15.9-.67,23.53-1.58-5.57-1.45-10.55-4.4-12.91-7.02Z"/><path class="cls-8" d="m779.15,1297.15c-9.79-4.26-45.21-8.82-81.53,3.62,2.44,5.53.86,13.2-1.44,16.62-.43.64-.93,1.27-1.47,1.87,10.19-4.06,18.29-8.22,23.53-11.69,21.52-14.23,60.92-10.42,60.92-10.42Zm-50.8.75c.48-.29,1.11-.14,1.4.34.29.48.14,1.11-.34,1.4-.48.29-1.11.14-1.4-.34-.29-.48-.14-1.11.34-1.4Zm-5.98,1.24c.48-.29,1.11-.14,1.4.34.29.48.14,1.11-.34,1.4-.48.29-1.11.14-1.4-.34-.29-.48-.14-1.11.34-1.4Zm-5.27,4.38c-.48.29-1.11.14-1.4-.34-.29-.48-.14-1.11.34-1.4.48-.29,1.11-.14,1.4.34.29.48.14,1.11-.34,1.4Z"/><path class="cls-8" d="m678.93,1321.92c-3.63-6.35,3.33-11.65,6.05-9.23,2.72,2.42-.76,6.5-2.72,5.6,0,0,6.3,4.13,9.05-1.87,1.94-4.23,3.33-10.29.43-13.5-.68.27-1.37.54-2.05.83-6.63,2.74-12.58,5-18.06,6.85-.19,1.34-.28,2.84-.25,4.51.05,3.9.75,8.16.17,11.97,3.3-.93,6.5-1.91,9.57-2.91-.85-.48-1.59-1.22-2.18-2.24Z"/><path class="cls-9" d="m469.23,1230.15c-2.58-1.94-6.78-.65-7.32,1.4-.88,3.33-4.09,6.23,0,7.85,4.09,1.62,9.9-7.31,7.32-9.25Zm-5.82,7.15c-2.02-.8-.43-2.24,0-3.89.27-1.01,2.34-1.65,3.62-.69,1.28.96-1.6,5.38-3.62,4.58Z"/><path class="cls-9" d="m455.94,1249.11c-1.81,2.14-2.3,10.94,1.15,11.52,3.46.58,6.06-1.29,5.85-7.21-.21-5.92-4.47-7.3-7.01-4.31Zm2,8.52c-1.86-.31-1.59-5.04-.62-6.19,1.36-1.61,3.65-.87,3.76,2.31.11,3.18-1.29,4.18-3.15,3.87Z"/><path class="cls-14" d="m782.52,1311.04c-22.18,8.37-46.63,14.4-62.7,16.35,10.01-.41,26.44-.22,42.14,3.73,4.89,1.23,11.89,1.2,19.99.26-1.06-7.03-1.37-14.43.57-20.34Zm-24.89,14.74c-.56,0-1.02-.46-1.02-1.02s.46-1.02,1.02-1.02,1.02.46,1.02,1.02-.46,1.02-1.02,1.02Zm5.76,2.03c-.56,0-1.02-.46-1.02-1.02s.46-1.02,1.02-1.02,1.02.46,1.02,1.02-.46,1.02-1.02,1.02Zm6.78,1.02c-.56,0-1.02-.46-1.02-1.02s.46-1.02,1.02-1.02,1.02.46,1.02,1.02-.46,1.02-1.02,1.02Z"/><path class="cls-7" d="m710.14,1132.59c-.15.21-.3.43-.47.64,5.8-5.61,9-16.76-7.65-21-19.12-4.86-41.49-.93-56.83,8.12-15.34,9.05-23.27,13.05-45.14,12.07-19.73-.89-30.89-1.89-32.27-9-4.88.85-11.02-.94-10.21-5.64.88-5.15,7.12-4.91,7.53-2.34.4,2.57-3.37,3.24-4.04,1.85,0,0,1.6,5.14,5.84,3.08.33-.16.67-.34,1-.53.63-1.91,2.47-3.58,5.07-4.99.67-1.77.29-3.74-2.11-5.72-1.73-1.43-3.31-2.4-4.81-2.89-13.62,5.98-12.47,15.84-8.31,21.77,5.45,7.75,19.68,16.4,41.03,12.33,21.35-4.07,36.26-12.54,55.07-17.28,12.44-3.14,28.8-4.94,38.31-3.3,1.69-1.6,4.45-2.72,8.8-3.35,13.4-1.94,12.1,11.88,9.18,16.21Z"/><path class="cls-7" d="m577.77,1112.78c9.93-3.43,24.5-4.45,31.02-2.65,10.23,2.83,2.01,9.35-2.39,4.27,0,0-4.24,3.22,1.86,5.93,6.1,2.71,14.91-.85,13.89-5.76-1.02-4.91-7.79-16.27-38.97-12.54-4.52.54-8.37,1.31-11.64,2.25.27.15.54.31.82.48,4.1,2.49,5.51,5.33,5.41,8.03Z"/><path class="cls-7" d="m743.57,1126.68c-18.81,9.66-17.45,18.81-30.67,23.21-13.22,4.41-28.1,8.13-25.57,0,1.96-6.31,8.42-9.05,14.55-11.94-1.64.1-3.12-.49-4.05-2.12-2.59-4.54,2.38-8.32,4.32-6.59,1.94,1.73-.54,4.65-1.94,4,0,0,4.5,2.95,6.46-1.34,1.96-4.28,3.15-11.2-4.09-11.2-2.05,0-3.75.22-5.15.69,1.68.94,2.6,2.21,2.51,3.85-.25,4.29-3.31,6.2-7.44,7.56.44,7.28,1.93,15.41-17.79,14.81,0,0,18.15-1.08,16.31-11.88-.14-.81-.27-1.6-.4-2.36-3.82,1.07-8.26,1.92-12.2,3.74-9.15,4.24-15.01,11.3-4.96,17.6,10.05,6.3,31.06,11.21,49.19-3.19,18.13-14.4,37.62-31.35,44.82-21.94,0,0,7.63,11.86,9.32,2.54,1.69-9.32-14.4-15.08-33.21-5.42Z"/></svg>