<?xml version="1.0" encoding="UTF-8"?><svg id="Capa_2" xmlns="http://www.w3.org/2000/svg" viewBox="0 0 1080 1567"><defs><style>.cls-1{fill:none;}.cls-1,.cls-2,.cls-3,.cls-4,.cls-5,.cls-6,.cls-7,.cls-8,.cls-9,.cls-10,.cls-11,.cls-12,.cls-13,.cls-14{stroke-width:0px;}.cls-15{stroke:#011720;stroke-miterlimit:10;stroke-width:4px;}.cls-15,.cls-12{fill:#fff;}.cls-3{fill:#f8db5c;}.cls-4{fill:#48bbc3;}.cls-5{fill:#94c0cb;}.cls-6{fill:#1b0201;}.cls-7{fill:#0c6b85;}.cls-8{fill:#064862;}.cls-9{fill:#168ca1;}.cls-10{fill:#c7b7da;}.cls-11{fill:#96dd00;}.cls-13{fill:#03af82;}.cls-14{fill:#011720;}</style></defs><rect class="cls-14" x="255.74" y="321.99" width="601.54" height="965.26"/><path class="cls-2" d="m506.28,42.89c-120.28,53.55-235.03,97.49-223.72,227.3,11.31,129.81,415.38,158.51,508.91,65.28,93.54-93.23-55.45-394.86-285.2-292.58Z"/><path class="cls-15" d="m698.85,321.99s-31.4,2.6-27.93,32.07c3.47,29.47,1.73,150.82-43.34,209.76-45.07,58.94-102.28,178.56-97.08,275.63,5.2,97.08,60.67,202.83,69.34,268.7,8.67,65.87-2.2,164.04,33.57,179.1h223.86V321.99h-158.43Z"/><path class="cls-8" d="m255.74,321.99h259.15s45.09-2.6,57.23,47.67c12.13,50.27,41.61,133.97,0,212.6-41.61,78.63-76.28,198.25-58.94,281.46,17.34,83.21,79.74,238.95,43.34,330.97-36.4,92.02-122.29,92.56-122.29,92.56h-178.48V321.99Z"/><path class="cls-12" d="m599.85,1108.16s-12.13,97.08-32.94,131.75l26.69,5.1s10.95-41.4,11.2-56.19c0,0,.25-70.26-4.96-80.66Z"/><path class="cls-12" d="m610.42,1247.2l-16.82-2.2c-1.04,10.3-16.29,27.84-16.29,27.84,6.41,2.75,19.97,3.64,29.47,3.47,0,0,7.28-6.22,3.64-29.11Z"/><path class="cls-12" d="m577.31,1272.84l-32.94-3.47s-19.87,14.96-29,17.88c0,0,30.74,6.39,37.67,6.39,0,0,19.07-13.87,24.27-20.8Z"/><path class="cls-2" d="m515.37,1287.26l-64.11-2.09s-44.16,6.75-55.27,8.48c0,0,72.1,10.4,87.7,10.4l31.67-16.79Z"/><path class="cls-2" d="m553.04,1293.65s34.16,6.92,45.68,6.93c0,0-26.61,50.28-38.75,58.95,0,0-58.94-34.67-67.61-38.14,0,0,48.54-17.34,60.67-27.74Z"/><path class="cls-2" d="m615.45,1300.58l22.54-3.47s39.87,45.07,62.41,50.27c0,0,8.67,24.27-53.74,22.54,0,0-26-52.01-31.2-69.34Z"/><path class="cls-2" d="m598.72,1300.57l4.2-13.32h9.04l3.49,13.32s-5.72,1.72-16.73,0Z"/><path class="cls-12" d="m566.91,1239.91l-18.2-2.6s-15.6,24.27-26,29.47l21.67,2.6s18.2-18.2,22.54-29.47Z"/><path class="cls-2" d="m606.78,1276.31l5.18,10.95h21.46s-9.53-7.49-13.32-12.25l-13.32,1.3Z"/><path class="cls-2" d="m492.37,1321.38s-30.24-.87-44.16,5.2c-13.92,6.07-36.52,1.69-43.39-.87,0,0-91.88,22.54-131.75,62.41,0,0,38.14,10.4,64.14,5.2,26-5.2,58.62,7.95,58.78,9.17l.16,1.23s60.67-69.34,96.21-82.34Z"/><path class="cls-2" d="m559.97,1359.52s-7.8,9.89-3.47,21.85c4.33,11.96-5.2,46.86-11.7,52.81,0,0,140.85,19.82,187.66-23.52,0,0-57.21-31.2-85.81-40.74,0,0-54.61,16.47-86.68-10.4Z"/><path class="cls-2" d="m273.07,1388.12s-31.2-10.4-43.34-10.4c0,0-71.54,10.4-99.05,10.4s-79.51,27.74-79.51,27.74c0,0,39.87,32.94,57.21,32.94,0,0,22.54-29.47,52.01-31.2,29.47-1.73,93.61-12.13,112.68-29.47Z"/><path class="cls-2" d="m395.99,1402.5s-15.44,27.23-39.71,28.96c-24.27,1.73-50.27,27.74-53.74,43.34,0,0,52.97,15.6,98.42,0,45.46-15.6,103.74-15.18,129.21-6.73,0,0,.7-14.08,7.88-19.28,7.18-5.2,6.75-14.62,6.75-14.62,0,0-105.63-5.17-148.81-31.68Z"/><path class="cls-2" d="m318.12,1326.58s-20.78,18.83-45.05,20.25c-24.27,1.42-43.34,30.89-43.34,30.89,0,0-38.82-11.31-73.15-15.19-34.33-3.88-52.39-49.77-60.33-48.95,0,0,55.47-17.34,79.74-17.34s79.74-8.67,79.74-8.67c0,0,22.5,34.67,62.39,39Z"/><path class="cls-2" d="m732.46,1410.66s46.81-26,79.74-19.07c32.94,6.93,53.74,6.93,65.87-5.2,0,0,27.09,26,68.15,17.34,41.06-8.67,63.01,0,63.01,0,0,0-47.73,21.41-64.31,34.98-16.58,13.56-77.25,15.3-91.12,8.36-13.87-6.93-44.64-2.45-46.59,3.98,0,0-55.69-21.31-74.76-40.38Z"/><path class="cls-2" d="m633.42,1287.26l4.57,9.86s21.3.54,27.12-4.93l-6.98-4.93h-24.71Z"/><path class="cls-2" d="m700.39,1347.39s59.81,26.87,94.48,26.87,67.61,1.73,83.21,12.13c0,0,13.87-10.4,24.27-13.87,0,0-46.81-15.6-72.81-17.34-26-1.73-83.21-13.87-91.88-26,0,0-31.2-5.2-37.27,18.2Z"/><path class="cls-2" d="m737.66,1329.18s-51.51-18.52-72.56-37c0,0,33.14-.05,44.18-4.93,0,0,43.89,22.54,64.74,20.96l-36.36,20.96Z"/><path class="cls-1" d="m898.38,754.87c-1.09,1.88-.74,2.89-.1,3.44.42-1.51.8-3.03,1.13-4.56-.39.26-.74.62-1.03,1.12Z"/><path class="cls-7" d="m611.13,626.38c15.32-39.54,51.5-68.42,61.35-78.77,9.85-10.35,37.91-34.95,68.31-30.5,30.4,4.45,29.75,42.21,27.44,50.75-2.3,8.54-19.03,10.82-31.83,5.91-12.79-4.91-11.7-16.64-7-24.3,4.69-7.66,7.88-4.65,5.47-2.62-2.42,2.03-2.54,8.16,5.83,9.78,8.37,1.62,20.07-12.52,5.94-24.22-14.14-11.7-35.76-9.26-45.29,10.89-9.53,20.15-5.58,45.04,36.34,47.31,41.92,2.26,71.98-37.26,25.43-68.47-46.55-31.2-85.04,6.21-112.42,30.65-27.38,24.44-65.04,112.9-86.7,173-21.65,60.1-21.03,70.96-6.37,120.04,14.66,49.08-12.72,89.07-12.72,89.07,42.58-51.86,32.19-150.5,34.91-201.38s15.99-67.58,31.31-107.12Z"/><path class="cls-13" d="m638.01,811.63c-3.96,5.89-11.04,14.16-22.41,8.67-6.71-3.24-10.14-7.43-11.67-11.29-2.32,6.72-4.23,13.12-5.76,19.16.36-.1.72-.18,1.08-.25,9.84-1.93,16.04,2.1,16.22,7.55.18,5.46-3.95,6.63-7.94,5.51-3.99-1.13,1.18-5.08,1.18-5.08,2.86-5.01-6.14-1.99-12.64,1.46-.99,4.87-1.74,9.47-2.25,13.75,2.49,2.87,5.76,5.47,8.75,6.59,4.89,1.83,22.61-8.36,39.09-21.02.55-3.81,1.04-7.91,1.44-12.33-3.08,4.2-5.76,8.5-8.06,11.39-6.41,8.07-14.71,1.94-14.71,1.94,5.79,1.34,16.78-10.43,23.17-18.24.11-1.48.21-2.97.3-4.51.15-2.56.34-5.09.54-7.61-1.77.21-4.19,1.15-6.32,4.33Z"/><path class="cls-11" d="m877.94,811.14c2.94-.09,7.97-7.18,3.51-8.69-4.46-1.52-5.47.49-6.53,2.27-1.35,2.28.08,6.51,3.02,6.42Zm-1.73-4.77c.53-4.83,5.6-3.09,5.05.37-.54,3.47-5.15.45-5.05-.37Z"/><path class="cls-8" d="m905.91,759.12c.63-3.69-3.86-7.13-6.51-5.38-.34,1.53-.71,3.05-1.13,4.56.68.59,1.7.65,1.7.65,0,0-.88-1.65.29-3.55,1.18-1.9,5.25,4.05-.15,6.19-1.28.51-2.2.45-2.85.03-.32.99-.65,1.98-1,2.96,5.19,1.02,8.97-1.51,9.64-5.46Z"/><path class="cls-13" d="m785.82,798.6c-4.97-5.79-2.45-7.42.68-7.91s1.11,3.32.11,3.73c0,0,2.11,4.82,5.15,2.73,3.04-2.1-1.23-10.11-4.31-11.11-3.08-1-9.25,1.59-9.64,8.86-.39,7.28,2.1,11.85,6.55,12.65,1.62.29,3.72.72,5.8,1.62-.71-1.73-1.31-3.6-1.76-5.62,0,0,1.35-.57,3.15-1.67-1.82.03-3.85-1.09-5.73-3.28Z"/><path class="cls-13" d="m620.7,859.78c-8.87,4.37-19.39,6.06-27.72,1.77-.65,17.65,3.21,27.9,8.36,27.93,12.94.08,22.63-5.69,22.63-5.69,0,0,9.43-6.61,15.47-34.73-6.2,4.19-12.83,7.81-18.75,10.73Z"/><path class="cls-11" d="m632.71,714.98c-1.21,5.23-12.15,14.68-27.59,33.78-15.44,19.1-15.26,47.66-15.26,47.66,35.56-24.81,42.85-81.44,42.85-81.44Z"/><path class="cls-11" d="m641.86,677.5c-6.13,8.88-13.78,8.53-32.91,27.59-19.13,19.06-16.46,46.25-16.46,46.25,0,0,1.33-18.16,22.73-34.34,21.4-16.19,26.64-39.49,26.64-39.49Z"/><path class="cls-11" d="m626.94,637.82c-18.04,10.72-23.89,44.36-23.89,44.36,0,0,14.17-17.78,31.5-25.63,17.33-7.85,34.48-38.14,34.48-38.14-3.03,6.1-24.05,8.68-42.08,19.41Z"/><path class="cls-11" d="m650.18,603.49c16.79.47,40.94-23.05,40.94-23.05-9.47,5.91-17.77-.23-37.19,6.87-19.42,7.1-34.72,37.08-34.72,37.08,0,0,14.18-21.36,30.97-20.89Z"/><path class="cls-8" d="m649.75,921.47c16.9,11.4,21.9,33.68,23.27,63.55,1.37,29.87,28.5,28.42,37.48,26.13,8.98-2.29,15.78-6.41,13.4-18.44-2.38-12.03-20.17-33.96-18.16-55.37.74-7.95-13.96-39.89-21.76-45.07-7.81-5.18-15.15,20.93-14.57,25.9.58,4.97,8.5-1.48,12.31,6.77,3.81,8.25-2.92,11.33-8.06,9.91-5.14-1.42-7.35-10.08-16.2-16.7-8.86-6.62-16.91-14.13-22.33-21.97-5.41-7.84,10.04-15.53,15.17-16.84,5.13-1.31,8.14,7.83,4.93,7.28-3.21-.55-4.91-3.19-6.64,4.76-1.73,7.95,11.74,4.52,16.14,3.06,4.41-1.46,8.26-19.86-10.13-21.68-18.39-1.83-23.14,8.99-30.63,22.51-7.48,13.51,8.89,14.81,25.8,26.2Zm64.51,78.31c.32,1.24-.43,2.5-1.67,2.82-1.24.32-2.5-.43-2.82-1.67-.32-1.24.43-2.5,1.67-2.82,1.24-.32,2.5.43,2.82,1.67Zm-3.59-14.11c1.24-.32,2.5.43,2.82,1.67.32,1.24-.43,2.5-1.67,2.82-1.24.32-2.5-.43-2.82-1.67-.32-1.24.43-2.5,1.67-2.82Zm-14.54,13.95c1.24-.32,2.5.43,2.82,1.67.32,1.24-.43,2.5-1.67,2.82-1.24.32-2.5-.43-2.82-1.67-.32-1.24.43-2.5,1.67-2.82Z"/><path class="cls-8" d="m636.28,999.09c6.6.46,8.01,13-1.92,9.69,0,0-5.48,6.75,7.13,7.19,12.61.44,18.46-26.2-1.23-32.92-19.7-6.72-28.35,7.7-30.69,19.43-.15.77-.33,1.58-.52,2.44,5.61,4.05,11.07,8.13,15.41,11.68-1.54-7.55,6.42-17.89,11.82-17.51Z"/><path class="cls-8" d="m775.04,1086.01c-5.07,19.25-10.25,23.3-19.34,21-9.09-2.29-13.46-15.21,1.67-38.34,15.13-23.13,35.92-39.35,45.41-53.03,2.49-3.59,4.87-7.84,6.8-12.73-5.64-5.87-13.76-10.4-23.75-5.12-15.85,8.37-34.68,14.51-46.24,2.6-.28,2.42-.86,4.36-1.77,5.51-4.39,5.56-2.39,16.71,5.46,33.8,7.85,17.09,5.66,29.94-5.85,41.06-11.51,11.13-29.01,25.49-33.24,12.91-4.23-12.58-4.22-28.63,5.2-22.49,9.42,6.14,12.88,10.38,14.96-.23,2.08-10.6,1.56-13.96-4.22-16.55-5.78-2.59-8.51-3.94-5.57-9.81,2.94-5.87,4.28-15.35-1.4-17.53-5.67-2.18-14.68-6.71-12.39,2.26,2.29,8.98-11.62,21.4-14.86,15.39-3.24-6-6.31-11.37-7.79-19.87-1.48-8.5-15.44-60.59-41.63-85.67-26.19-25.08-31.3-18.32-38.24-10.74-6.95,7.57-15.47,3.6-16.3,16.44-.83,12.84-9.08,34.79,2.23,42.64,3.83,2.66,9.77,6.72,16.22,11.25,5.63-18.61,16.68-34.36,40.26-24.58,27.64,11.46,17.97,37.19,13.42,42.21-3.68,4.07-14.07,9.13-22.01,7.24,6.85,8.14,11.27,9.4,20.09,10.56,8.83,1.16,14.61,1.06,17.14,29.77,2.54,28.72-11.26,30.86-14.96,28.39-3.7-2.47-14.06-4.27-18.97,11.32-4.91,15.59-18.69,98.53,9.02,109.29,27.71,10.75,47.69-8.44,50.99-23.05,3.3-14.62,3.32-45.35-12.06-57.48-15.38-12.13-29.25-10.3-28.61,8.31.64,18.61,8.88,29.49,16.54,20.71,7.66-8.78,3.79-13.26,3.22-15.5-.57-2.24,7.76-4.37,9.6,10.87,1.83,15.24,2.13,32.43-16.71,33.55-18.84,1.12-36.71-11.4-31.3-39.75,5.41-28.35,9.29-45.07,37.85-44.99,28.56.08,34.11,21.88,36.22,44.9,2.11,23.02-15.97,71.33-35.02,80.96-19.05,9.63-20.39,15.1-18.08,29.53,2.31,14.43,2.84,41.95,22.22,33.6,19.38-8.35,17.89-18.22,12.89-24.45-5-6.24-14.66-13.33-2.62-30.4,12.04-17.07,24.94-38.79,24.85-59.25-.09-20.46,3.27-40.78,6.1-35.01,2.83,5.76,3.85,18.67,1.42,22.78s-7.07,10.95,4.84,6.96c11.91-3.98,14.32-10.21,17.82-12.74,3.5-2.53,4.49-2.64.59-9.91-3.9-7.27-9.88-9.4,2.69-10.26,12.57-.86,42.05-12.51,50.17-18.14,8.12-5.63,9.22-13.39.96-29.74-8.26-16.35-18.86-27.71-23.93-8.46Zm-162.64-144.26c-1.24.32-2.5-.43-2.82-1.67-.32-1.24.43-2.5,1.67-2.82,1.24-.32,2.5.43,2.82,1.67.32,1.24-.43,2.5-1.67,2.82Zm11.15-.45c-.32-1.24.43-2.5,1.67-2.82,1.24-.32,2.5.43,2.82,1.67.32,1.24-.43,2.5-1.67,2.82-1.24.32-2.5-.43-2.82-1.67Zm5.76,13.21c-1.24.32-2.5-.43-2.82-1.67-.32-1.24.43-2.5,1.67-2.82,1.24-.32,2.5.43,2.82,1.67.32,1.24-.43,2.5-1.67,2.82Zm10.12,2.2c-1.24.32-2.5-.43-2.82-1.67-.32-1.24.43-2.5,1.67-2.82,1.24-.32,2.5.43,2.82,1.67.32,1.24-.43,2.5-1.67,2.82Zm155.27,160.51c-1.06.27-2.14-.37-2.41-1.43s.37-2.14,1.43-2.41,2.14.37,2.41,1.43-.37,2.14-1.43,2.41Zm2.45-9.16c-1.06.27-2.14-.37-2.41-1.43-.27-1.06.37-2.14,1.43-2.41s2.14.37,2.41,1.43c.27,1.06-.37,2.14-1.43,2.41Z"/><path class="cls-8" d="m810.99,998.94c4.23-13.38,4.81-31.01-4.42-52.89-13.79-32.68-28.02-2.76-21.02,1.94,5.14,3.46,12.85,30.07,3.78,39.34,7.23-.68,15.13,1.66,21.66,11.61Zm-20.27-54.14c-1.06.27-2.14-.37-2.41-1.43-.27-1.06.37-2.14,1.43-2.41s2.14.37,2.41,1.43c.27,1.06-.37,2.14-1.43,2.41Zm4.3-7.24c1.06-.27,2.14.37,2.41,1.43.27,1.06-.37,2.14-1.43,2.41-1.06.27-2.14-.37-2.41-1.43-.27-1.06.37-2.14,1.43-2.41Z"/><path class="cls-8" d="m754.1,974.32c-3.86-5.37,4.89-14.47,8.68-4.71,0,0,8.69-.1.98-10.08-7.71-9.98-31.95,2.52-24.54,21.97,7.41,19.45,24.03,16.9,34.55,11.21,1.4-.76,3.03-1.59,4.81-2.38-1.95-.25-4.11-.75-6.54-1.63,0,0,2.72-7,3.86-17.6-4.01,7.07-18.44,7.88-21.79,3.21Z"/><path class="cls-8" d="m756.04,949.55c5.9.25,17.63,5.75,20.32,14.02.14-7.04-.59-15.06-3.04-23.39-7.58-25.72-17.04-41.41-28.33-36.14-11.29,5.27-34.17,23.65-28.61,28.24,5.56,4.6,7.51,24.54,15.05,34.59.09.12.17.24.26.36,4.61-13.29,19.46-17.9,24.34-17.69Zm-3.51-39.41c1.06-.27,2.14.37,2.41,1.43.27,1.06-.37,2.14-1.43,2.41-1.06.27-2.14-.37-2.41-1.43-.27-1.06.37-2.14,1.43-2.41Zm-6.43-2.46c1.06-.27,2.14.37,2.41,1.43.27,1.06-.37,2.14-1.43,2.41s-2.14-.37-2.41-1.43c-.27-1.06.37-2.14,1.43-2.41Zm-.6,8.35c1.06-.27,2.14.37,2.41,1.43.27,1.06-.37,2.14-1.43,2.41-1.06.27-2.14-.37-2.41-1.43-.27-1.06.37-2.14,1.43-2.41Z"/><path class="cls-12" d="m711.44,998.11c-1.24.32-1.99,1.58-1.67,2.82.32,1.24,1.58,1.99,2.82,1.67,1.24-.32,1.99-1.58,1.67-2.82-.32-1.24-1.58-1.99-2.82-1.67Z"/><path class="cls-12" d="m711.8,990.16c1.24-.32,1.99-1.58,1.67-2.82-.32-1.24-1.58-1.99-2.82-1.67-1.24.32-1.99,1.58-1.67,2.82.32,1.24,1.58,1.99,2.82,1.67Z"/><path class="cls-12" d="m697.26,1004.11c1.24-.32,1.99-1.58,1.67-2.82-.32-1.24-1.58-1.99-2.82-1.67-1.24.32-1.99,1.58-1.67,2.82.32,1.24,1.58,1.99,2.82,1.67Z"/><path class="cls-12" d="m628.05,940.15c-.32-1.24-1.58-1.99-2.82-1.67-1.24.32-1.99,1.58-1.67,2.82.32,1.24,1.58,1.99,2.82,1.67,1.24-.32,1.99-1.58,1.67-2.82Z"/><path class="cls-12" d="m628.17,950.02c-1.24.32-1.99,1.58-1.67,2.82.32,1.24,1.58,1.99,2.82,1.67,1.24-.32,1.99-1.58,1.67-2.82-.32-1.24-1.58-1.99-2.82-1.67Z"/><path class="cls-12" d="m611.26,937.25c-1.24.32-1.99,1.58-1.67,2.82.32,1.24,1.58,1.99,2.82,1.67,1.24-.32,1.99-1.58,1.67-2.82-.32-1.24-1.58-1.99-2.82-1.67Z"/><path class="cls-12" d="m638.29,952.22c-1.24.32-1.99,1.58-1.67,2.82.32,1.24,1.58,1.99,2.82,1.67s1.99-1.58,1.67-2.82c-.32-1.24-1.58-1.99-2.82-1.67Z"/><path class="cls-12" d="m789.74,940.95c-1.06.27-1.7,1.35-1.43,2.41.27,1.06,1.35,1.7,2.41,1.43,1.06-.27,1.7-1.35,1.43-2.41-.27-1.06-1.35-1.7-2.41-1.43Z"/><path class="cls-12" d="m753.51,913.99c1.06-.27,1.7-1.35,1.43-2.41-.27-1.06-1.35-1.7-2.41-1.43-1.06.27-1.7,1.35-1.43,2.41.27,1.06,1.35,1.7,2.41,1.43Z"/><path class="cls-12" d="m746.47,919.88c1.06-.27,1.7-1.35,1.43-2.41-.27-1.06-1.35-1.7-2.41-1.43-1.06.27-1.7,1.35-1.43,2.41.27,1.06,1.35,1.7,2.41,1.43Z"/><path class="cls-12" d="m793.72,1113.37c-1.06.27-1.7,1.35-1.43,2.41s1.35,1.7,2.41,1.43,1.7-1.35,1.43-2.41-1.35-1.7-2.41-1.43Z"/><path class="cls-12" d="m796.17,1104.21c-1.06.27-1.7,1.35-1.43,2.41.27,1.06,1.35,1.7,2.41,1.43,1.06-.27,1.7-1.35,1.43-2.41-.27-1.06-1.35-1.7-2.41-1.43Z"/><path class="cls-12" d="m747.08,911.53c1.06-.27,1.7-1.35,1.43-2.41-.27-1.06-1.35-1.7-2.41-1.43-1.06.27-1.7,1.35-1.43,2.41.27,1.06,1.35,1.7,2.41,1.43Z"/><path class="cls-12" d="m796,941.4c1.06-.27,1.7-1.35,1.43-2.41-.27-1.06-1.35-1.7-2.41-1.43s-1.7,1.35-1.43,2.41c.27,1.06,1.35,1.7,2.41,1.43Z"/><path class="cls-12" d="m785.84,997.78c9.99-5.27,18.11-.75,23.75,5.12.5-1.28.97-2.6,1.4-3.97-6.53-9.95-14.43-12.28-21.66-11.61-2.35,2.4-5.83,3.63-10.76,3-1.78.78-3.41,1.62-4.81,2.38-10.52,5.69-27.14,8.24-34.55-11.21-7.41-19.45,16.83-31.95,24.54-21.97,7.71,9.98-.98,10.08-.98,10.08-3.79-9.76-12.54-.66-8.68,4.71,3.35,4.66,17.78,3.86,21.79-3.21.25-2.35.43-4.87.48-7.53-2.69-8.27-14.43-13.77-20.32-14.02-4.88-.21-19.73,4.4-24.34,17.69,5.81,8.08,8.96,24.07,7.9,33.15,11.56,11.91,30.39,5.76,46.24-2.6Z"/><path class="cls-12" d="m654.1,1016.4c4.55-5.02,14.22-30.75-13.42-42.21-23.58-9.78-34.63,5.97-40.26,24.58,2.82,1.98,5.74,4.05,8.63,6.14.2-.85.37-1.67.52-2.44,2.34-11.73,10.99-26.14,30.69-19.43,19.7,6.72,13.84,33.35,1.23,32.92-12.61-.44-7.13-7.19-7.13-7.19,9.93,3.31,8.52-9.23,1.92-9.69-5.4-.38-13.37,9.95-11.82,17.51,3.38,2.76,6.07,5.2,7.61,7.03,0,0,.01.01.02.02,7.94,1.89,18.33-3.17,22.01-7.24Z"/><path class="cls-4" d="m692.4,846.95c-2.74,5.29,14.98,15.38,18.08,4.13,3.1-11.26-12.29-15.32-18.08-4.13Z"/><path class="cls-4" d="m740.34,859.54c-1.31,3.76,3.98,12.07,9.74,11.54,5.76-.52,5.48-12.71.16-13.98-5.32-1.27-7.93-3.23-9.91,2.44Z"/><path class="cls-4" d="m783.08,889.71c-2.03,2.93-4.22,2.09-1.99,8.71,1.64,4.89,10.48,12.25,12.45,2.84,1.97-9.41-8.43-14.48-10.46-11.56Z"/><path class="cls-4" d="m912.45,631.74c-17.55,11.16-33.75,6.11-33.75,6.11,9.31,7.34,31.29,7.58,43.31-1.14,12.02-8.71,40.53,10.86,40.53,10.86-3.68-12.5-32.53-27-50.09-15.84Z"/><path class="cls-4" d="m763.62,589.16c-32.25,1.46-74.53,53.83-86.02,77.76-11.49,23.94-29.06,39.9-29.06,39.9,0,0,41.38-31.73,52.9-59.91,11.53-28.18,62.18-57.75,62.18-57.75Z"/><path class="cls-4" d="m718.53,635.71c-7.87,11.78-21.75,31.29-21.75,31.29,0,0,6.29,3.04,23.82-22.71,17.54-25.74,79.02-53.27,79.02-53.27-24.58-3.73-73.23,32.9-81.1,44.68Z"/><path class="cls-4" d="m778.29,615.23c-12.24,10.78-39.08,23.98-39.08,23.98,12.74,1.65,60.72-22.21,67.97-31.87,7.25-9.66,47.86-17.06,47.86-17.06-35.09-9.4-64.52,14.18-76.75,24.96Z"/><path class="cls-4" d="m810.88,622.14s30.55,3.18,48.85-16.15c18.3-19.33,54.03-12.06,54.03-12.06-32.82-19.47-60.59,1.71-74.34,12.8-13.75,11.09-28.53,15.41-28.53,15.41Z"/><path class="cls-4" d="m889.6,608.65c-11.81,12.84-34.49,17.27-34.49,17.27,0,0,30.36,5.08,46.18-11.32,15.82-16.4,52.59-1.45,52.59-1.45-18.3-19.8-52.47-17.34-64.28-4.5Z"/><path class="cls-4" d="m892.62,651.99c43.19-3.06,64.78,17.72,64.78,17.72-21.59-30.27-64.78-17.72-64.78-17.72Z"/><path class="cls-4" d="m897.59,663.65c41.01,3.06,59.35,26.02,59.35,26.02-14.28-29.89-59.35-26.02-59.35-26.02Z"/><path class="cls-4" d="m912.14,679.29c27.47,5.71,47.33,32.52,47.33,32.52-8.16-26.04-47.33-32.52-47.33-32.52Z"/><path class="cls-12" d="m620.32,837.66s8.3,6.13,14.71-1.94c2.3-2.9,4.98-7.19,8.06-11.39.15-1.59.28-3.23.4-4.9-6.39,7.81-17.38,19.58-23.17,18.24Z"/><path class="cls-12" d="m646.81,807.46s.06.02.1.03c0,0-.04-.01-.1-.03Z"/><path class="cls-12" d="m629.52,814.03c-2.77,3.57-7.98,3.66-14.24-.06-6.27-3.72-5.69-10.39-3.38-12.65,2.31-2.26,11.39-2.34,11.84,1.33.45,3.67-4.81,3.3-4.81,3.3.1-1.07-2.34-4.63-3.36-1.63-1.02,3-.74,5.99,6.69,4.27,7.43-1.72,8.71-7.83-.42-13.18-4.58-2.69-9.12-2.22-12.6-.49-1.98,4.84-3.74,9.54-5.32,14.1,1.54,3.86,4.96,8.05,11.67,11.29,11.37,5.49,18.46-2.79,22.41-8.67,2.13-3.17,4.55-4.12,6.32-4.33.01-.16.03-.32.04-.49-7.73-1.46-12.35,3.99-14.86,7.22Z"/><path class="cls-12" d="m596.06,837.34c6.5-3.44,15.5-6.47,12.64-1.46,0,0-5.17,3.96-1.18,5.08,3.99,1.13,8.12-.05,7.94-5.51-.18-5.46-6.37-9.48-16.22-7.55-.36.07-.72.16-1.08.25-.8,3.16-1.51,6.22-2.11,9.18Z"/><path class="cls-12" d="m602.55,857.68c-2.99-1.12-6.26-3.72-8.75-6.59-.44,3.73-.71,7.21-.83,10.46,8.33,4.29,18.85,2.61,27.72-1.77,5.92-2.92,12.55-6.54,18.75-10.73.8-3.74,1.54-7.86,2.19-12.4-16.48,12.66-34.2,22.85-39.09,21.02Z"/><path class="cls-12" d="m713.57,771.17c.14-4.47,9.25-5.99,9.25-5.99-7.81-4.73-4.47-19.17-4.47-19.17-8.17,5.88-4.78,25.17-4.78,25.17Z"/><path class="cls-13" d="m907.76,745.72c3.07,1.15,11.22-5.72,10.88.76-.35,6.48,3.69,2.25,4.89,10.65,1.2,8.4-9.76,3.87-9.08,6.01.65,2.06,6.75,3.2,9.29,3.8.16-1.6.28-3.21.36-4.83,2.7-52.19-27.24-108.59-89.74-123.62-62.49-15.03-141.82,16.46-196.32,101.53-12.55,19.58-21.91,38.05-28.79,54.9,3.48-1.73,8.02-2.2,12.6.49,9.13,5.36,7.85,11.47.42,13.18-7.43,1.72-7.71-1.27-6.69-4.27,1.02-3,3.45.55,3.36,1.63,0,0,5.25.37,4.81-3.3-.45-3.67-9.53-3.59-11.84-1.33-2.31,2.26-2.88,8.93,3.38,12.65,6.27,3.72,11.47,3.63,14.24.06,2.51-3.23,7.12-8.68,14.86-7.22,4.49-53.67,22.28-97.42,70.17-128.6,50.28-32.74,118.51-32.15,162.36,6.53,18.23,16.08,24.95,35.54,24.34,54.59.01-.02.02-.05.04-.07,2.7-5.02,3.42,5.3,6.49,6.46Z"/><path class="cls-13" d="m923.4,769.64c-2.01,2.72-6.52,6.62-9.59,7.33-4.62,1.07-7.75-8.33-7.75-8.33,11.88-13.45,2.87-17.74-2.95-18.11-1.3-.08-2.23-.46-2.89-1.02-.09.52-.16,1.04-.26,1.56,3.75-1.15,10.11,5.43,8.44,12.67-1.3,5.62-9.03,3.29-12.43,1.62-.31.84-.62,1.69-.96,2.52,2.27.93,5.97,1.08,5.97,1.08,0,0,7.48,4.72,8.3,9.7.81,4.98-8.88,2.41-17.14,1.55-1.19-.12-2.04-.42-2.67-.82-2.34,4.14-4.96,8.07-7.79,11.74,2.18-1.95,4.98-2.72,7.11-.01,3.41,4.34-3.87,6.83-3.87,6.83,0,0-7.7,1.51-6.19-2.53.18-.48.41-.97.69-1.45-4.02,4.84-8.4,9.16-12.97,12.77-27.32,21.57-60.25,26.67-73.35,7.82-.77-.27-1.65-.48-2.67-.59-7.05-.78-17.67-3.22-18.08-15.84-.41-12.62,5.97-18.19,10.47-19.69,4.5-1.5,15,3.11,14.48,13.68-.14,2.79-.66,4.94-1.44,6.52,4.64-4.31,8.32-11.34.12-20.74-14.32-16.41-27.27,7.48-27.52,21.03-.24,13.55,14.71,49.04,63.12,50.89,46.04,1.76,85.7-31.98,91.8-80.18Zm-26.66,36.33c-1.2,3.6,4.27,2.64,2.98,8.17-1.3,5.53-12.31-.68-12.31-.68,2.79-4.26.72-12.42.72-12.42,6.81-5.86,9.82,1.33,8.62,4.93Zm-29.39,16.35c-2.33,4.53-6.32.57-9.31-.76-2.99-1.34-3.41-1.79,2.11-8.98l9.52-.14s.01,5.35-2.32,9.88Zm6.39-20.7c5.4-4.46,10.1-2.41,11.23,2.63,1.13,5.05-3.58,11.19-9.33,9.41-5.75-1.78-5.75-8.86-1.9-12.04Zm-1.32,20.71c.56-2.78-.17-6.91-.17-6.91,2.64,2.83,10.03-.18,10.81.16.78.35,5.32,8.22,3.06,8.4-2.25.19-3.19-.49-7.75,1.87-4.56,2.36-6.52-.75-5.96-3.53Z"/><path class="cls-7" d="m854.54,688.95c-26.75-10.41-73.75-18.71-126.94,9.46-37.97,20.11-60.43,75.2-71.05,112.42-.13.45-.26.91-.38,1.35-1.64,5.84-2.98,11.21-4.04,15.91-1.21,5.35-2.05,9.82-2.54,13.1-.13.88-.24,1.69-.33,2.39-2.41,20.22,7.05,16.24,6.66,8.96-.35-6.61.73-13.87,2.72-21.27,1.18-4.39,2.67-8.82,4.38-13.21,8.25-21.23,21.39-41.19,26.93-48.04,8.62-10.64,5.53,9.71,2.92,13.96-1.33,2.18-5.11,12.76-3.01,21,.21.82.46,1.62.79,2.39,2.87,6.56,10.66,10.61,28.59,5.41,40.99-11.88,18.57-42.35,8.98-46.37s-13.85-27.67,6.24-38.89c20.1-11.22,21.12,3.92,17.73,15.77-3.39,11.85-18.25,34,19.78,29.02,38.03-4.98,28.56-40.5,18.16-44.53-10.41-4.03-12.27-9.97-3.53-18.32,8.74-8.34,20.65,3.17,22.07,23.59,1.42,20.42,24.28,14.05,34.16,6.41,9.87-7.64,38.46-40.13,11.71-50.54Zm-142.16,27.46l3.32,3.89s-14.57,3.57-29.43,34.14l-5.04,4.99s10.19-27.48,31.16-43.02Zm3.79,6.09l3.05,2.97s-12.83,6.42-22.81,27.11c0,0-3.49.1-5.43,1.95,0,0,12.06-23.73,25.18-32.04Zm19.66,56.55c3.06,6.22,5.51,20.65-14.65,25.25-9.03,2.06-15.42,1.48-19.31-.91-.22-.13-.41-.28-.61-.43-4.24-3.06-5.03-8.57-2.44-15.31,4.91-12.79,10.88-21.78,3.1-24.55-7.78-2.78-20.38,1.04-34.09,28.84,0,0,13.61-40.45,34.17-35.82,20.56,4.63-1.13,25.52,2.48,35.11,3.61,9.59,23.94,15.07,27.99,2.01,4.05-13.05-2.8-19.83-10-19.55-7.19.28-10.54,14.73-6.14,16.72,4.4,1.99,9.7,2.9,9.75-2.92.05-5.82-5.39-1.9-5.39-1.9,0,0,4.71-6.36,8.28.62,3.57,6.98-8.43,12.63-12.78,9.03-4.35-3.6-8.11-8.36-2.63-19.4,5.48-11.04,19.23-3,22.29,3.22Zm-13.01-13.88s-9.11,1.52-9.25,5.99c0,0-3.39-19.28,4.78-25.17,0,0-3.34,14.44,4.47,19.17Zm-13.35-10.22s-2.93-1.65-5.41-1.26c0,0,8.94-20.93,17.72-26.67l3.1,2.01s-13.14,10.56-15.4,25.92Zm29.58-35.31c-11.83,7.36-18.7,4.22-21.57-3.51-2.87-7.73,15.67-17.02,22.16-15.83,9.08,1.67,11.24,11.98-.59,19.34Zm13.61-17.71c-3.42-10.81,7.59-9.1,15.67-12.78,4.96-2.25,14.37,4.02,14.71,12.34.34,8.31-26.96,11.25-30.38.44Zm34.75,36.1c4.17,3.57,7.78,18.97-13.97,23.33-21.75,4.36-13.99-12.32-8.39-24.3,5.6-11.99-1.86-20.59-1.86-20.59,0,0,6.36,1.55,8.7,8.25,2.34,6.7,11.35,9.76,15.51,13.32Zm44.86-8.89c-5.3,3.31-16.33-.41-19.39-11.88-3.06-11.47-10.32-26.36-24.55-28.56,0,0,44.45-5.12,55.73,9.15,11.27,14.28-6.49,27.98-11.79,31.29Z"/><path class="cls-13" d="m735.84,779.05c-3.06-6.22-16.82-14.26-22.29-3.22-5.48,11.04-1.72,15.8,2.63,19.4,4.35,3.6,16.35-2.04,12.78-9.03-3.57-6.98-8.28-.62-8.28-.62,0,0,5.45-3.92,5.39,1.9-.05,5.82-5.35,4.92-9.75,2.92-4.4-1.99-1.05-16.44,6.14-16.72,7.19-.28,14.05,6.5,10,19.55-4.05,13.05-24.38,7.57-27.99-2.01-3.61-9.59,18.08-30.48-2.48-35.11-20.56-4.63-34.17,35.82-34.17,35.82,13.71-27.8,26.31-31.62,34.09-28.84,7.78,2.78,1.81,11.76-3.1,24.55-2.59,6.74-1.8,12.25,2.44,15.31.2.15.4.3.61.43,3.89,2.4,10.28,2.97,19.31.91,20.16-4.59,17.72-19.03,14.65-25.25Z"/><path class="cls-8" d="m783.04,701.49c-.34-8.31-9.75-14.59-14.71-12.34-8.08,3.67-19.09,1.97-15.67,12.78s30.72,7.87,30.38-.44Zm-14.91-9.12c3.43-1.56,9.93,2.78,10.16,8.52.23,5.74-18.62,7.77-20.98.31-2.36-7.46,5.24-6.29,10.82-8.83Z"/><path class="cls-3" d="m772.27,700.75c-.12-2.84-3.33-4.99-5.03-4.22-2.76,1.26-6.53.67-5.36,4.37,1.17,3.69,10.5,2.69,10.38-.15Z"/><path class="cls-8" d="m739.05,719.65c11.84-7.36,9.67-17.67.59-19.34-6.49-1.19-25.03,8.11-22.16,15.83,2.87,7.73,9.73,10.87,21.57,3.51Zm-1.62-15.55c6.17,1.13,7.64,8.14-.4,13.14-8.04,5-12.71,2.87-14.66-2.38-1.95-5.25,10.65-11.57,15.06-10.76Z"/><path class="cls-3" d="m735.08,714.94c4.32-2.69,3.53-6.45.22-7.06-2.37-.44-9.14,2.96-8.09,5.78,1.05,2.82,3.56,3.97,7.88,1.28Z"/><path class="cls-9" d="m771.89,724.72c-2.34-6.7-8.7-8.25-8.7-8.25,0,0,7.46,8.61,1.86,20.59-5.6,11.99-13.36,28.66,8.39,24.3,21.75-4.36,18.13-19.76,13.97-23.33-4.17-3.57-13.18-6.63-15.51-13.32Zm9.49,19.86c1.2,3.2,0,8.42-6.82,8.46-6.81.04-7.33-3.32-4.23-9.73,1.67-3.44,1.64-5.82,1.25-7.29-.38-.57-.7-1.19-.92-1.86,0,0,.59.6.92,1.86,2.7,4.05,8.74,5.75,9.79,8.55Z"/><path class="cls-6" d="m770.67,734.16c.22.67.54,1.29.92,1.86-.33-1.27-.92-1.86-.92-1.86Z"/><path class="cls-9" d="m812.87,717.27c3.06,11.47,14.09,15.19,19.39,11.88,5.3-3.31,23.06-17.01,11.79-31.29-11.27-14.28-55.73-9.15-55.73-9.15,14.22,2.2,21.48,17.09,24.55,28.56Zm11.87-20c8.85,2.37,13.78,9.03,9.86,14.48-3.92,5.45-16.36-.43-20.38-6.87-4.02-6.44,4.72-9.16,10.51-7.61Z"/><path class="cls-4" d="m778.28,700.89c-.23-5.74-6.73-10.08-10.16-8.52-5.58,2.54-13.19,1.36-10.82,8.83,2.36,7.46,21.22,5.43,20.98-.31Zm-11.04-4.36c1.7-.77,4.91,1.38,5.03,4.22s-9.22,3.85-10.38.15c-1.17-3.69,2.59-3.11,5.36-4.37Z"/><path class="cls-4" d="m737.03,717.25c8.04-5,6.57-12.01.4-13.14-4.41-.81-17.01,5.51-15.06,10.76,1.95,5.25,6.62,7.38,14.66,2.38Zm-1.74-9.37c3.32.61,4.11,4.38-.22,7.06-4.32,2.69-6.83,1.54-7.88-1.28-1.05-2.82,5.72-6.22,8.09-5.78Z"/><path class="cls-4" d="m770.33,743.31c-3.11,6.41-2.59,9.77,4.23,9.73,6.81-.04,8.03-5.27,6.82-8.46-1.05-2.8-7.1-4.51-9.79-8.55.38,1.47.41,3.84-1.25,7.29Z"/><path class="cls-4" d="m834.61,711.75c3.92-5.45-1.02-12.1-9.86-14.48-5.79-1.55-14.53,1.17-10.51,7.61,4.02,6.44,16.45,12.32,20.38,6.87Zm-3.52-5.62c-.09,4.46-3.61,3.11-3.04.63.57-2.48,3.06-1.58,3.04-.63Zm-8.36-5.57c2.1-1.91,4.88,2.56,1.82,4.55-3.05,1.99-3.93-2.64-1.82-4.55Z"/><path class="cls-12" d="m824.55,705.11c3.05-1.99.28-6.46-1.82-4.55s-1.23,6.54,1.82,4.55Z"/><path class="cls-12" d="m831.09,706.14c.02-.95-2.47-1.86-3.04.63-.57,2.48,2.95,3.83,3.04-.63Z"/><path class="cls-11" d="m715.69,720.3l-3.32-3.89c-20.97,15.54-31.16,43.02-31.16,43.02l5.04-4.99c14.86-30.58,29.43-34.14,29.43-34.14Z"/><path class="cls-11" d="m719.22,725.47l-3.05-2.97c-13.12,8.31-25.18,32.04-25.18,32.04,1.93-1.85,5.43-1.95,5.43-1.95,9.98-20.69,22.81-27.11,22.81-27.11Z"/><path class="cls-11" d="m704.06,753.71c2.49-.4,5.41,1.26,5.41,1.26,2.26-15.35,15.4-25.92,15.4-25.92l-3.1-2.01c-8.78,5.74-17.72,26.67-17.72,26.67Z"/><path class="cls-12" d="m798.2,819.82s.01.06.02.1c0,0,0-.04-.02-.1Z"/><path class="cls-11" d="m797.31,792.12c.51-10.57-9.98-15.18-14.48-13.68-4.5,1.5-10.88,7.07-10.47,19.69.41,12.62,11.03,15.06,18.08,15.84,1.02.11,1.9.32,2.67.59-1.13-1.62-2.12-3.41-2.94-5.39-2.08-.89-4.18-1.32-5.8-1.62-4.45-.8-6.94-5.37-6.55-12.65.39-7.28,6.57-9.86,9.64-8.86,3.08,1,7.35,9.01,4.31,11.11-3.04,2.1-5.15-2.73-5.15-2.73.99-.41,3.02-4.22-.11-3.73s-5.65,2.12-.68,7.91c1.88,2.19,3.91,3.31,5.73,3.28,1.31-.8,2.86-1.89,4.32-3.24.78-1.58,1.3-3.73,1.44-6.52Z"/><path class="cls-3" d="m908.41,763.74c1.67-7.24-4.69-13.82-8.44-12.67-.17.89-.37,1.78-.56,2.67,2.65-1.75,7.13,1.69,6.51,5.38-.67,3.95-4.45,6.49-9.64,5.46-.09.26-.19.52-.29.78,3.4,1.66,11.13,4,12.43-1.62Z"/><path class="cls-13" d="m900.12,761.6c5.4-2.14,1.33-8.09.15-6.19-1.18,1.9-.29,3.55-.29,3.55,0,0-1.02-.06-1.7-.65-.31,1.11-.65,2.22-1,3.32.65.42,1.58.48,2.85-.03Z"/><path class="cls-8" d="m884.97,804.25c-1.13-5.05-5.83-7.09-11.23-2.63-3.85,3.18-3.86,10.26,1.9,12.04,5.75,1.78,10.47-4.36,9.33-9.41Zm-10.05.47c1.05-1.78,2.07-3.79,6.53-2.27,4.46,1.52-.57,8.6-3.51,8.69-2.94.09-4.37-4.13-3.02-6.42Z"/><path class="cls-3" d="m881.26,806.74c.54-3.47-4.53-5.21-5.05-.37-.09.83,4.51,3.84,5.05.37Z"/><path class="cls-11" d="m860.15,812.58c-5.52,7.19-5.09,7.64-2.11,8.98,2.99,1.34,6.98,5.29,9.31.76,2.33-4.53,2.32-9.88,2.32-9.88l-9.52.14Z"/><path class="cls-11" d="m883.06,815.58c-.78-.35-8.17,2.67-10.81-.16,0,0,.73,4.12.17,6.91-.56,2.78,1.4,5.89,5.96,3.53,4.56-2.36,5.49-1.69,7.75-1.87,2.25-.19-2.28-8.06-3.06-8.4Z"/><path class="cls-11" d="m887.41,813.46s11.01,6.21,12.31.68c1.3-5.53-4.17-4.57-2.98-8.17,1.2-3.6-1.81-10.79-8.62-4.93,0,0,2.08,8.16-.72,12.42Z"/><path class="cls-12" d="m879.42,793.97c.77-.92,1.52-1.87,2.27-2.83-.89.8-1.68,1.8-2.27,2.83Z"/><path class="cls-11" d="m884.92,797.95s7.28-2.49,3.87-6.83c-2.13-2.71-4.94-1.93-7.11.01-.74.96-1.5,1.91-2.27,2.83-.27.48-.51.97-.69,1.45-1.51,4.04,6.19,2.53,6.19,2.53Z"/><path class="cls-11" d="m892.15,780.22c8.26.86,17.95,3.44,17.14-1.55-.81-4.98-8.3-9.7-8.3-9.7,0,0-3.7-.15-5.97-1.08-1.6,3.97-3.46,7.82-5.55,11.51.63.4,1.48.7,2.67.82Z"/><path class="cls-11" d="m903.11,750.53c5.82.38,14.83,4.66,2.95,18.11,0,0,3.13,9.4,7.75,8.33,3.07-.71,7.58-4.62,9.59-7.33.11-.9.24-1.8.33-2.71-2.53-.6-8.63-1.74-9.29-3.8-.68-2.14,10.28,2.39,9.08-6.01-1.2-8.4-5.24-4.17-4.89-10.65.35-6.48-7.81.39-10.88-.76-3.07-1.15-3.79-11.48-6.49-6.46-.01.02-.02.05-.04.07-.11,3.42-.46,6.82-1.01,10.18.65.56,1.58.94,2.89,1.02Z"/><path class="cls-11" d="m504.42,659.88s.83-4.49,9.56-4.51c8.73-.02,12.39,5.31,10.54,11.78-1.85,6.48-15.32-.59-20.1-7.27Z"/><path class="cls-10" d="m501.66,671.67s8.73-.07,13.69,2.49c4.96,2.57,1.09,8.44-3.52,8.84-4.61.4-10.17-11.33-10.17-11.33Z"/><path class="cls-10" d="m505.15,652.05s12.59-1.32,14.86-12.33c2.27-11.01-14.36-6.48-15.33-.47-.98,6.02,3.85,7.7.47,12.8Z"/><path class="cls-7" d="m383.65,1262.3s-70.93-56.74-75.82-61.63c-4.89-4.89-19.08-9.29-13.21-57.23,5.87-47.94,42.07-142.34,85.6-152.61,43.53-10.27,65.06,10.27,104.19,34.73,39.13,24.46,72.88,50.38,41.58,96.36-31.31,45.98-74.84,109.08-104.68,83.16-29.84-25.92-60.17-45-56.74-74.35,3.42-29.35,10.76-93.43,42.56-93.92,31.79-.49,66.04,32.77,65.55,54.78s-20.04,34.47-30.56,33.62c-10.52-.85-14.93-6.23-16.39-19.43-1.47-13.21-25.92-2.93-21.03,9.78,4.89,12.72,10.76,40.6,50.87,24.95,40.11-15.65,45.49-26.41,31.31-65.55-14.19-39.13-46.47-56.74-60.17-61.14-13.7-4.4-26.41-2.45-40.6,9.78-14.19,12.23-73.37,65.06-75.82,108.1-2.45,43.05,5.87,59.19,34.73,90.98,28.86,31.79,38.64,39.62,38.64,39.62Z"/><path class="cls-5" d="m327.79,956.15s-7.39-.46-5.68,3.99,10.55,11.8,12.16,2.12c1.61-9.68-5.79-17.2-13.44-18.53s-11.05,3.88-14.26,10.37c-3.21,6.49-4.81,13.27,6.88,22.37,11.69,9.1,15.85,18.54,33.24,11.62,17.39-6.92,5.12-53.05-5.12-75.18-10.24-22.12-25.35-49.66-40.95-74.38-15.6-24.72-23.4-41.85-17.02-66.47,6.38-24.62,25.69-71.04,33.3-81.33,7.61-10.29,10.17-20.22,61.56-7.92,51.38,12.3,62.66,57.01,73.8,76.39,11.14,19.38,39.82,103.44,32.41,105.47-7.41,2.03-28.83-57.08-35.4-58.66-6.57-1.58-13.6-1.75-12.69,4.94.91,6.68,70.24,156.16,57.34,163.45-12.89,7.29-47-92.04-58.82-109.87-11.82-17.84-36.52-47.47-43.91-31.33-7.38,16.14,18.32,123.14,32.85,117.17,14.53-5.97,8.26-29.48,2.96-29.99s-11.95,6.63-5.54,12.73c0,0,.52,11.29-8.46-18.08-8.98-29.37-16.45-43.59-13.36-56.52,3.09-12.92,3.69-14.08,14.4,8.96,10.71,23.04,54.18,149.24,84.39,129.66,30.21-19.58,6.94-47.48.21-64.96-6.73-17.48-39.99-61.87-29.75-69.63,10.24-7.76,23.15,54.13,38.19,47.79,24.08-10.15-57.37-192.63-69.32-207.81-11.96-15.18-18.75-21.7-60.7-29.68-41.95-7.98-64.9-12.41-74.97,12.18-10.07,24.59-44.95,93.61-35.99,115.93,8.97,22.32,42.1,82.05,52.07,96.25,9.97,14.19,40.47,58.12,26.38,72.25-14.09,14.14-31.07,2.04-30.04-8.57s13.28-4.73,13.28-4.73Z"/><path class="cls-4" d="m387.22,980.84s7.77-16.2-1.93-40.24c-9.7-24.04-43.11-91.71-56.74-111.11-13.63-19.4-17.26-27.09-6.5-19.81s47.21,21.94,56.43,11.93c9.22-10.01,40.91-48.88,45.2-73.44,4.29-24.56-2.1-40.21-40.3-54.35-38.2-14.14-56.33-7.77-63.64,7.97-7.31,15.74-27.11,58.96,6.97,75.29,34.08,16.33,50.33,18.34,57.48-10.71,7.15-29.04,7.6-41.83-16.52-51.86-24.12-10.02-57.55,26.88-33.51,38.96,24.03,12.08,36.84-1.86,29.17-17.31-7.67-15.45-17.43,2.35-13.7,7.15,0,0,.54,8.81-10.44,2.74-10.97-6.07-1.68-26.02,19.75-25.18,21.43.84,30.9,27.39,17.27,43.69-13.64,16.29-41.32,15.6-51.81-.34-10.49-15.94-3.27-54.93,12.17-69.67,15.44-14.73,64.27,14.55,66.7,22.03,2.43,7.48,16.89,31.59-8.09,62.91-24.98,31.32-21.41,40.58-54.78,26.7-33.37-13.88-46.16-19.02-41.4-1.18s89.6,145.54,88.22,175.8Z"/><path class="cls-4" d="m398.93,574.66s-20.14,22.03-39.97,10.39c-19.83-11.65-33.68-29.9-56.65-23.61-22.98,6.29-24.86,26.12-17.94,31.79,6.92,5.67,23.05,11.33,32.3,0,0,0,2.79-2.99-4.76-5.98,0,0-11.19,10.78-18.03,4.05-6.83-6.73-6.24-17.13,3.06-20.42,9.3-3.3,25.77-3.08,36.74,9.09,10.97,12.16,52.2,28.22,65.26-5.3Z"/><path class="cls-7" d="m296.76,539.39s6.92-26.12,33.99-18.88c27.07,7.24,14.48,38.07,0,34.77-14.48-3.3-8.18-14-1.89-12.43s8.81,5.35,8.81,5.35c0,0,5.04-10.39-4.72-16.37-9.76-5.98-28.96-1.57-36.19,7.55Z"/><path class="cls-9" d="m299.6,512.01s40.6-3.46,35.88-32.42c-4.72-28.96-3.15-62.32,35.57-61.37,38.71.94,39.03,36.51,35.88,44.69-3.15,8.18-17.94,22.98-30.53,18.25-12.59-4.72-7.24-28.33.94-30.84,8.18-2.52,15.74,11.96,2.2,12.59,0,0-3.46,10.7,11.96,5.35,15.42-5.35,10.07-40.23-16.84-39.16-26.91,1.07-30.63,22.51-27.98,37.76,2.65,15.25,5.48,47.35-47.08,45.15Z"/><path class="cls-4" d="m391.81,491.23s52.88-3.15,47.52-34.62c-5.35-31.47-10.07-50.67,28.96-56.34,39.03-5.67,35.25,34.62,26.75,47.21-8.5,12.59-28.33,22.66-35.88,9.44s6.92-24.23,12.59-19.2c5.67,5.04-1.57,13.53-5.67,11.65,0,0,13.11,8.58,18.83-3.89,5.72-12.48,9.18-32.62-11.91-32.62s-29.9,7.55-29.59,29.9c.31,22.35,10.7,50.36-51.62,48.47Z"/><path class="cls-4" d="m473.01,492.81s31.16,2.52,33.05-25.18c1.89-27.7,4.09-55.39,39.34-56.02,35.25-.63,32.26,27.24,27.62,33.92-4.64,6.68-21.32,14.23-24.15-2.13-2.83-16.37,13.53-8.81,13.53-5.67s.31,4.09-1.89,6.29c0,0,8.81-2.52,2.83-13.53-5.98-11.02-30.06-14.49-38.95,2.35-8.89,16.85-3.22,22.83-6.06,34.47-2.83,11.65-8.5,28.01-45.32,25.49Z"/><path class="cls-7" d="m353.74,521.12s26.56-26.85,43.49-15.94c16.94,10.91,41.39,13.76,52.45,6.67,11.07-7.09,18.3-19.68,23.34-15.59,5.04,4.09-10.07,32.1-34.62,29.59-24.55-2.52-31.47-5.98-39.03-11.65-7.55-5.67-30.21-5.35-45.64,6.92Z"/><path class="cls-9" d="m462,535.3s17.33,2.19,30.07-16.06c12.74-18.25,44.53-31.78,64.04-15.1,19.51,16.68,7.55,35.25,1.57,36.51s-28.01-1.26-28.96-9.13c-.94-7.87-.31-17.63,8.18-17.63s4.62,2.5,2.78,5.34c-1.84,2.84-.58,8.51,5.72,1.58,6.29-6.92-15.18-24.25-34.97-1.58-19.79,22.67-48.43,16.06-48.43,16.06Z"/><path class="cls-7" d="m470.52,564.36s.92-12.38,14.46-13.01,13.85,6.61,24.86,11.33c11.02,4.72,31.47,7.24,41.55-2.83,0,0,.31,17.31-22.98,14.79-23.29-2.52-28.27-14.33-37.14-17-6.29-1.89-16.64-.41-20.75,6.72Z"/><path class="cls-4" d="m385.52,557.01s25.49-22.98,48.47-9.76c22.98,13.22,17.35,31.81,9.77,34.63-7.57,2.82-12.92-.64-12.92-2.21,0,0,4.72,5.04,9.13,0,4.41-5.04-.31-14.48-10.39-13.53-10.07.94-15.74,11.33-6.92,21.09s28.01,6.92,32.1-1.89,11.39-28.34-14.92-44.38c-26.31-16.04-54,11.02-54.32,16.06Z"/><path class="cls-13" d="m386.71,629.82s6.41-1.9,4.9,5.44-12.62,15.03-24.74,6.84c-12.12-8.19-11.24-17.67-4.9-23.31,6.34-5.64,26.63-12.9,36.84-6.96,10.21,5.94,21.59,15.2,18.8,28.5-2.79,13.3-.63,33.43,15.62,40.35,16.25,6.92,45.68,13.42,58.83-5.73,13.15-19.15-4.32-34.58-15.6-32.88-11.27,1.7-28.88,18.97-10.87,21.89,0,0-3.3-8.27,1.32-11.55,4.63-3.27,12.05-9.14,19.31-3.52,7.26,5.61,6.59,19.7-2.47,26.53-9.06,6.84-34.77,10.69-46.9-1.87-12.13-12.56-11.15-22.33-12.47-35.39-1.31-13.06-5.81-31.76-23.89-33.86-18.09-2.1-42.86.59-46.71,15.19-3.85,14.6,4.11,29.53,15.8,32.25,11.69,2.72,26.53-.47,28.33-15.26,1.79-14.79-19.62-16.86-23.25-11.34-3.63,5.52-.2,13.31,6.66,11.04,6.86-2.27,5.37-6.36,5.37-6.36Z"/><path class="cls-3" d="m484.8,664.39c3.56-2.48,1.64-12.18-4.58-12.25-6.23-.07-7.52,7.15-5.61,10.1,1.91,2.95,7.43,4.08,10.2,2.16Z"/><path class="cls-10" d="m459.24,667.54s-10.31-.77-10.21,7.13c.1,7.9,10.22,1.78,11.28-.61,1.05-2.4,1.46-6.88-1.06-6.52Z"/><path class="cls-11" d="m454.28,653.97s-1.23-4.04-6.17-4.82c-4.94-.78-10.24,3.13-4.72,10.58,5.51,7.45,10.9-5.76,10.9-5.76Z"/><path class="cls-10" d="m462.38,640.51s.87-11.55-5.65-12.95c-6.52-1.4-10.57-1.91-10.73,3.96-.16,5.87,5.35,13.7,16.38,8.99Z"/><path class="cls-11" d="m481.71,636.06s3.86-10.21-4.6-13.14c-8.45-2.93-11.2,4.29-8.7,8.68,2.5,4.39,13.3,4.46,13.3,4.46Z"/><path class="cls-11" d="m496.3,640.01s-10.4-4.29-9.97-13.39c.43-9.1,8.27-8.5,11.63-4.38,3.36,4.11,1.8,16.44-1.65,17.78Z"/><circle class="cls-3" cx="442.67" cy="669.3" r="1.86"/><circle class="cls-3" cx="497.52" cy="682.72" r="1.86"/><path class="cls-8" d="m764.95,328.93s-96.83,68.7-42.12,145.59c54.71,76.89,121.38-17.58,100.61-43.17-20.77-25.59-45.29-32.94-67.04-14.85-21.75,18.09-6.45,64.79,10.3,54.38,16.75-10.41,21.19-34.07,7.88-36.29-13.31-2.22,23.52-21.49,23.96,7.37.44,28.86-26.17,64.34-54.27,32.55-28.09-31.79-4.48-123.36,20.68-145.59Z"/><path class="cls-12" d="m375.77,198.27v-2l1.91-.48c1.27-.38,2.1-.95,2.48-1.72.38-.76.57-1.81.57-3.15.06-3.62.1-7.3.1-11.02v-26.18c0-3.69-.03-7.37-.1-11.06,0-1.34-.21-2.37-.62-3.1-.41-.73-1.26-1.32-2.53-1.76l-1.81-.57v-2h22.98c9.28,0,16.04,1.73,20.27,5.2,4.23,3.47,6.34,8.03,6.34,13.69,0,3.56-.88,6.85-2.62,9.87-1.75,3.02-4.63,5.42-8.63,7.2-4.01,1.78-9.41,2.67-16.21,2.67h-3.43v8.25c0,2.83.03,5.71.1,8.63,0,2.61,1.18,4.2,3.53,4.77l2.86.76v2h-25.18Zm18.69-27.18h4.01c3.18,0,5.77-.49,7.77-1.48,2-.98,3.5-2.69,4.48-5.1.98-2.42,1.48-5.75,1.48-10.01s-.52-7.58-1.57-9.97c-1.05-2.38-2.62-4.07-4.72-5.05-2.1-.99-4.71-1.48-7.82-1.48h-3.53c-.06,4.39-.1,8.82-.1,13.3v19.79Z"/><path class="cls-12" d="m451.02,199.61c-4.71,0-8.82-.99-12.35-2.96-3.53-1.97-6.26-4.77-8.2-8.39-1.94-3.62-2.91-7.95-2.91-12.97s1.03-9.35,3.1-12.97c2.06-3.62,4.86-6.4,8.39-8.34,3.53-1.94,7.52-2.91,11.97-2.91s8.44.97,11.97,2.91c3.53,1.94,6.33,4.71,8.39,8.3,2.07,3.59,3.1,7.93,3.1,13.02s-.97,9.36-2.91,13.02c-1.94,3.66-4.66,6.45-8.15,8.39-3.5,1.94-7.63,2.91-12.4,2.91Zm0-2.67c2.29,0,4.15-.62,5.58-1.86,1.43-1.24,2.46-3.42,3.1-6.53.64-3.11.95-7.47.95-13.07s-.32-10.06-.95-13.21c-.64-3.15-1.67-5.34-3.1-6.58-1.43-1.24-3.29-1.86-5.58-1.86s-4.13.62-5.53,1.86c-1.4,1.24-2.43,3.43-3.1,6.58-.67,3.15-1,7.55-1,13.21s.33,9.95,1,13.07c.67,3.12,1.7,5.29,3.1,6.53,1.4,1.24,3.24,1.86,5.53,1.86Z"/><path class="cls-12" d="m496.32,199.61c-3.94,0-7.04-.97-9.3-2.91-2.26-1.94-3.39-5.1-3.39-9.49,0-1.53.02-2.97.05-4.34.03-1.37.05-2.97.05-4.82v-22.6h-6.77v-2.1l2.57-.38c1.84-.32,3.42-.89,4.72-1.72,1.3-.83,2.49-1.97,3.58-3.43l6.2-8.58h2.86l-.29,13.26h10.87v2.96h-10.97v32.52c0,2.29.49,4.01,1.48,5.15.98,1.14,2.21,1.72,3.67,1.72,1.27,0,2.42-.3,3.43-.91,1.02-.6,2.03-1.41,3.05-2.43l1.24,1.43c-1.21,2.1-2.89,3.74-5.05,4.91-2.16,1.18-4.83,1.76-8.01,1.76Z"/><path class="cls-12" d="m536.18,151.06c4.01,0,7.44.83,10.3,2.48,2.86,1.65,5.07,3.93,6.63,6.82,1.56,2.89,2.34,6.22,2.34,9.97,0,.83-.03,1.61-.1,2.34-.06.73-.19,1.42-.38,2.05h-28.71c.06,6.55,1.29,11.25,3.67,14.11,2.38,2.86,5.87,4.29,10.44,4.29,3.18,0,5.75-.52,7.72-1.57,1.97-1.05,3.78-2.53,5.44-4.43l1.53,1.43c-1.91,3.5-4.5,6.22-7.77,8.15-3.28,1.94-7.17,2.91-11.68,2.91s-8.49-.95-11.92-2.86c-3.43-1.91-6.12-4.66-8.06-8.25-1.94-3.59-2.91-7.9-2.91-12.92s1.13-9.63,3.39-13.26c2.26-3.62,5.18-6.4,8.77-8.34,3.59-1.94,7.36-2.91,11.3-2.91Zm-.48,2.77c-1.84,0-3.45.52-4.82,1.57-1.37,1.05-2.45,2.89-3.24,5.53-.8,2.64-1.26,6.34-1.38,11.11h17.07c.7-6.42.44-11.06-.76-13.92-1.21-2.86-3.5-4.29-6.87-4.29Z"/><path class="cls-12" d="m560.31,198.27v-1.81l1.53-.38c2.1-.63,3.15-2.19,3.15-4.67v-28.13c-.06-1.33-.29-2.37-.67-3.1-.38-.73-1.21-1.22-2.48-1.48l-1.53-.38v-1.72l15.45-5.53,1.14,1.05.67,5.91c2.29-2.03,4.85-3.7,7.68-5.01,2.83-1.3,5.61-1.96,8.34-1.96,4.2,0,7.42,1.14,9.68,3.43,2.26,2.29,3.39,5.79,3.39,10.49v26.51c0,2.48,1.14,4.04,3.43,4.67l1.05.29v1.81h-21.94v-1.81l1.43-.38c2.1-.7,3.15-2.26,3.15-4.67v-28.32c0-2.22-.48-3.85-1.43-4.86-.95-1.02-2.54-1.53-4.77-1.53-3.12,0-6.36,1.37-9.73,4.1v30.71c0,2.48,1.11,4.04,3.34,4.67l.95.29v1.81h-21.84Z"/><path class="cls-12" d="m632.51,199.61c-3.94,0-7.04-.97-9.3-2.91-2.26-1.94-3.39-5.1-3.39-9.49,0-1.53.02-2.97.05-4.34.03-1.37.05-2.97.05-4.82v-22.6h-6.77v-2.1l2.57-.38c1.84-.32,3.42-.89,4.72-1.72,1.3-.83,2.49-1.97,3.58-3.43l6.2-8.58h2.86l-.29,13.26h10.87v2.96h-10.97v32.52c0,2.29.49,4.01,1.48,5.15.98,1.14,2.21,1.72,3.67,1.72,1.27,0,2.42-.3,3.43-.91,1.02-.6,2.03-1.41,3.05-2.43l1.24,1.43c-1.21,2.1-2.89,3.74-5.05,4.91-2.16,1.18-4.83,1.76-8.01,1.76Z"/><path class="cls-12" d="m648.81,198.27v-1.81l1.43-.38c1.27-.38,2.13-.95,2.57-1.72.44-.76.7-1.78.76-3.05v-23.03c0-1.68-.03-3.42-.1-5.2,0-1.27-.24-2.27-.71-3-.48-.73-1.35-1.22-2.62-1.48l-1.33-.29v-1.72l16.69-5.53,1.14,1.05-.29,13.54v25.75c0,1.27.24,2.29.72,3.05.48.76,1.32,1.34,2.53,1.72l1.05.29v1.81h-21.84Zm10.97-52.45c-2.1,0-3.88-.67-5.34-2-1.46-1.33-2.19-3.02-2.19-5.05s.73-3.8,2.19-5.1c1.46-1.3,3.24-1.96,5.34-1.96s3.88.65,5.34,1.96c1.46,1.3,2.19,3,2.19,5.1s-.73,3.72-2.19,5.05c-1.46,1.34-3.24,2-5.34,2Z"/><path class="cls-12" d="m688.68,199.61c-3.62,0-6.69-1.03-9.2-3.1-2.51-2.07-3.77-5.04-3.77-8.92,0-3.05,1.48-5.87,4.44-8.44,2.96-2.57,7.61-4.47,13.97-5.67,1.08-.25,2.34-.49,3.77-.72,1.43-.22,2.84-.46,4.24-.72v-6.77c0-4.32-.54-7.31-1.62-8.96-1.08-1.65-2.8-2.48-5.15-2.48h-.29c-1.46,0-2.62.46-3.48,1.38-.86.92-1.42,2.43-1.67,4.53l-.29,1.24c-.19,2.54-.86,4.4-2,5.58-1.14,1.18-2.58,1.76-4.29,1.76-1.59,0-2.91-.49-3.96-1.48-1.05-.98-1.57-2.27-1.57-3.86,0-2.61.89-4.8,2.67-6.58s4.15-3.11,7.1-4.01c2.96-.89,6.15-1.34,9.58-1.34,5.66,0,9.98,1.37,12.97,4.1,2.99,2.73,4.48,7.19,4.48,13.35v21.27c0,2.73,1.3,4.1,3.91,4.1h2.19l.95,1.05c-1.14,1.46-2.42,2.59-3.81,3.39-1.4.79-3.31,1.19-5.72,1.19-2.73,0-4.91-.65-6.53-1.96s-2.69-3.04-3.19-5.2c-2.04,2.16-4.04,3.91-6.01,5.25-1.97,1.33-4.55,2-7.73,2Zm5.53-6.1c1.27,0,2.48-.29,3.62-.86s2.57-1.53,4.29-2.86v-15.26c-1.65.25-3.34.57-5.05.95-2.73.64-4.94,1.81-6.63,3.53-1.69,1.72-2.53,4.04-2.53,6.96,0,2.54.59,4.43,1.76,5.67,1.18,1.24,2.69,1.86,4.53,1.86Z"/><path class="cls-12" d="m724.06,198.27v-1.81l1.43-.38c2.1-.7,3.15-2.29,3.15-4.77,0-2.16.02-4.34.05-6.53.03-2.19.05-4.37.05-6.53v-36.24c0-1.33-.22-2.34-.67-3-.45-.67-1.3-1.16-2.58-1.48l-1.43-.38v-1.81l16.69-4.01,1.24.86-.38,13.45v45.68c.06,1.27.33,2.31.81,3.1.48.8,1.32,1.35,2.53,1.67l1.33.38v1.81h-22.22Z"/><path class="cls-12" d="m378.25,288.42v-2l1.91-.67c2.03-.63,3.05-2.22,3.05-4.77.06-3.62.1-7.33.1-11.11v-25.99c0-3.69-.03-7.37-.1-11.06,0-2.61-.99-4.23-2.96-4.86l-2-.57v-2h25.08c6.68,0,12.43,1.24,17.26,3.72,4.83,2.48,8.55,6.06,11.16,10.73,2.61,4.67,3.91,10.32,3.91,16.93s-1.42,12.46-4.24,17.17c-2.83,4.71-6.8,8.3-11.92,10.78-5.12,2.48-11.08,3.72-17.88,3.72h-23.37Zm18.79-2.77h4.86c4.51,0,8.19-.89,11.02-2.67,2.83-1.78,4.91-4.78,6.25-9.01,1.33-4.23,2-9.93,2-17.12s-.67-12.87-2-17.07c-1.34-4.2-3.39-7.18-6.15-8.96-2.77-1.78-6.34-2.67-10.73-2.67h-5.25c-.06,4.39-.1,8.82-.1,13.3v30.71c0,4.55.03,9.04.1,13.49Z"/><path class="cls-12" d="m439.67,288.42v-1.81l1.43-.48c1.27-.32,2.15-.86,2.62-1.62.48-.76.71-1.78.71-3.05v-27.94c-.06-1.4-.32-2.46-.76-3.19-.45-.73-1.3-1.22-2.58-1.48l-1.43-.38v-1.72l15.54-5.53,1.14,1.05.86,8.39v.67c.95-1.78,2.16-3.43,3.62-4.96,1.46-1.53,3.05-2.77,4.77-3.72,1.72-.95,3.43-1.43,5.15-1.43,2.42,0,4.23.64,5.44,1.91,1.21,1.27,1.81,2.89,1.81,4.86,0,2.16-.6,3.8-1.81,4.91-1.21,1.11-2.67,1.67-4.39,1.67-2.54,0-4.74-1.14-6.58-3.43l-.19-.19c-.64-.76-1.35-1.19-2.15-1.29-.8-.1-1.57.3-2.34,1.19-.64.64-1.23,1.38-1.76,2.24-.54.86-1.03,1.86-1.48,3v24.99c0,1.21.25,2.21.76,3,.51.8,1.37,1.35,2.57,1.67l2.86.86v1.81h-23.84Z"/><path class="cls-12" d="m503.57,241.21c4.01,0,7.44.83,10.3,2.48,2.86,1.65,5.07,3.93,6.63,6.82,1.56,2.89,2.34,6.22,2.34,9.97,0,.83-.03,1.61-.1,2.34-.06.73-.19,1.42-.38,2.05h-28.71c.06,6.55,1.29,11.25,3.67,14.11,2.38,2.86,5.87,4.29,10.44,4.29,3.18,0,5.75-.52,7.72-1.57,1.97-1.05,3.78-2.53,5.44-4.43l1.53,1.43c-1.91,3.5-4.5,6.22-7.77,8.15-3.28,1.94-7.17,2.91-11.68,2.91s-8.49-.95-11.92-2.86c-3.43-1.91-6.12-4.66-8.06-8.25-1.94-3.59-2.91-7.9-2.91-12.92s1.13-9.63,3.39-13.26c2.26-3.62,5.18-6.4,8.77-8.34,3.59-1.94,7.36-2.91,11.3-2.91Zm-.48,2.77c-1.84,0-3.45.52-4.82,1.57-1.37,1.05-2.45,2.89-3.24,5.53-.8,2.64-1.26,6.34-1.38,11.11h17.07c.7-6.42.44-11.06-.76-13.92-1.21-2.86-3.5-4.29-6.87-4.29Z"/><path class="cls-12" d="m541.05,289.75c-3.62,0-6.69-1.03-9.2-3.1-2.51-2.07-3.77-5.04-3.77-8.92,0-3.05,1.48-5.87,4.44-8.44,2.96-2.57,7.61-4.47,13.97-5.67,1.08-.25,2.34-.49,3.77-.72,1.43-.22,2.84-.46,4.24-.72v-6.77c0-4.32-.54-7.31-1.62-8.96-1.08-1.65-2.8-2.48-5.15-2.48h-.29c-1.46,0-2.62.46-3.48,1.38-.86.92-1.42,2.43-1.67,4.53l-.29,1.24c-.19,2.54-.86,4.4-2,5.58-1.14,1.18-2.58,1.76-4.29,1.76-1.59,0-2.91-.49-3.96-1.48-1.05-.98-1.57-2.27-1.57-3.86,0-2.61.89-4.8,2.67-6.58s4.15-3.11,7.1-4.01c2.96-.89,6.15-1.34,9.58-1.34,5.66,0,9.98,1.37,12.97,4.1,2.99,2.73,4.48,7.19,4.48,13.35v21.27c0,2.73,1.3,4.1,3.91,4.1h2.19l.95,1.05c-1.14,1.46-2.42,2.59-3.81,3.39-1.4.79-3.31,1.19-5.72,1.19-2.73,0-4.91-.65-6.53-1.96s-2.69-3.04-3.19-5.2c-2.04,2.16-4.04,3.91-6.01,5.25-1.97,1.33-4.55,2-7.73,2Zm5.53-6.1c1.27,0,2.48-.29,3.62-.86s2.57-1.53,4.29-2.86v-15.26c-1.65.25-3.34.57-5.05.95-2.73.64-4.94,1.81-6.63,3.53-1.69,1.72-2.53,4.04-2.53,6.96,0,2.54.59,4.43,1.76,5.67,1.18,1.24,2.69,1.86,4.53,1.86Z"/><path class="cls-12" d="m575.95,288.42v-1.91l2.1-.57c1.02-.32,1.68-.78,2-1.38.32-.6.51-1.41.57-2.43v-24.22c0-1.46-.03-3.18-.1-5.15,0-1.08-.16-1.92-.48-2.53-.32-.6-1.02-1.03-2.1-1.29l-2-.48v-1.72l15.45-5.53,1.14,1.05.67,6.39c2.22-2.03,4.7-3.78,7.44-5.25,2.73-1.46,5.53-2.19,8.39-2.19,3.18,0,5.66.64,7.44,1.91,1.78,1.27,3.15,3.21,4.1,5.82,2.42-2.42,5.09-4.31,8.01-5.67,2.92-1.37,5.82-2.05,8.68-2.05,4.32,0,7.57,1.08,9.73,3.24,2.16,2.16,3.24,5.56,3.24,10.2v27.56c0,2.04.89,3.31,2.67,3.81l1.81.48v1.91h-21.46v-1.91l1.72-.48c1.72-.57,2.58-1.87,2.58-3.91v-27.94c0-2.73-.49-4.59-1.48-5.58-.99-.98-2.59-1.48-4.82-1.48-1.72,0-3.34.35-4.86,1.05-1.53.7-3.21,1.78-5.05,3.24.38,1.91.57,4.1.57,6.58v24.22c.06,1.08.27,1.92.62,2.53.35.6,1.03,1.03,2.05,1.29l1.62.48v1.91h-21.55v-1.91l2-.57c1.02-.32,1.7-.78,2.05-1.38.35-.6.52-1.41.52-2.43v-27.85c0-2.61-.48-4.45-1.43-5.53-.95-1.08-2.57-1.62-4.86-1.62-2.93,0-6.07,1.4-9.44,4.2v30.9c0,2.1.89,3.37,2.67,3.81l1.62.48v1.91h-21.84Z"/><path class="cls-12" d="m682.48,241.21c4.01,0,7.44.83,10.3,2.48,2.86,1.65,5.07,3.93,6.63,6.82,1.56,2.89,2.34,6.22,2.34,9.97,0,.83-.03,1.61-.1,2.34-.06.73-.19,1.42-.38,2.05h-28.71c.06,6.55,1.29,11.25,3.67,14.11,2.38,2.86,5.87,4.29,10.44,4.29,3.18,0,5.75-.52,7.72-1.57,1.97-1.05,3.78-2.53,5.44-4.43l1.53,1.43c-1.91,3.5-4.5,6.22-7.77,8.15-3.28,1.94-7.17,2.91-11.68,2.91s-8.49-.95-11.92-2.86c-3.43-1.91-6.12-4.66-8.06-8.25-1.94-3.59-2.91-7.9-2.91-12.92s1.13-9.63,3.39-13.26c2.26-3.62,5.18-6.4,8.77-8.34,3.59-1.94,7.36-2.91,11.3-2.91Zm-.48,2.77c-1.84,0-3.45.52-4.82,1.57-1.37,1.05-2.45,2.89-3.24,5.53-.8,2.64-1.26,6.34-1.38,11.11h17.07c.7-6.42.44-11.06-.76-13.92-1.21-2.86-3.5-4.29-6.87-4.29Z"/><path class="cls-12" d="m706.61,288.42v-1.81l1.43-.48c1.27-.32,2.15-.86,2.62-1.62.48-.76.71-1.78.71-3.05v-27.94c-.06-1.4-.32-2.46-.76-3.19-.45-.73-1.3-1.22-2.58-1.48l-1.43-.38v-1.72l15.54-5.53,1.14,1.05.86,8.39v.67c.95-1.78,2.16-3.43,3.62-4.96,1.46-1.53,3.05-2.77,4.77-3.72,1.72-.95,3.43-1.43,5.15-1.43,2.42,0,4.23.64,5.44,1.91,1.21,1.27,1.81,2.89,1.81,4.86,0,2.16-.6,3.8-1.81,4.91-1.21,1.11-2.67,1.67-4.39,1.67-2.54,0-4.74-1.14-6.58-3.43l-.19-.19c-.64-.76-1.35-1.19-2.15-1.29-.8-.1-1.57.3-2.34,1.19-.64.64-1.23,1.38-1.76,2.24-.54.86-1.03,1.86-1.48,3v24.99c0,1.21.25,2.21.76,3,.51.8,1.37,1.35,2.57,1.67l2.86.86v1.81h-23.84Z"/><path class="cls-4" d="m506.28,42.89c-120.28,53.55-235.03,97.49-223.72,227.3,11.31,129.81,415.38,158.51,508.91,65.28,93.54-93.23-55.45-394.86-285.2-292.58Z"/><path class="cls-12" d="m375.77,198.27v-2l1.91-.48c1.27-.38,2.1-.95,2.48-1.72.38-.76.57-1.81.57-3.15.06-3.62.1-7.3.1-11.02v-26.18c0-3.69-.03-7.37-.1-11.06,0-1.34-.21-2.37-.62-3.1-.41-.73-1.26-1.32-2.53-1.76l-1.81-.57v-2h22.98c9.28,0,16.04,1.73,20.27,5.2,4.23,3.47,6.34,8.03,6.34,13.69,0,3.56-.88,6.85-2.62,9.87-1.75,3.02-4.63,5.42-8.63,7.2-4.01,1.78-9.41,2.67-16.21,2.67h-3.43v8.25c0,2.83.03,5.71.1,8.63,0,2.61,1.18,4.2,3.53,4.77l2.86.76v2h-25.18Zm18.69-27.18h4.01c3.18,0,5.77-.49,7.77-1.48,2-.98,3.5-2.69,4.48-5.1.98-2.42,1.48-5.75,1.48-10.01s-.52-7.58-1.57-9.97c-1.05-2.38-2.62-4.07-4.72-5.05-2.1-.99-4.71-1.48-7.82-1.48h-3.53c-.06,4.39-.1,8.82-.1,13.3v19.79Z"/><path class="cls-12" d="m451.02,199.61c-4.71,0-8.82-.99-12.35-2.96-3.53-1.97-6.26-4.77-8.2-8.39-1.94-3.62-2.91-7.95-2.91-12.97s1.03-9.35,3.1-12.97c2.06-3.62,4.86-6.4,8.39-8.34,3.53-1.94,7.52-2.91,11.97-2.91s8.44.97,11.97,2.91c3.53,1.94,6.33,4.71,8.39,8.3,2.07,3.59,3.1,7.93,3.1,13.02s-.97,9.36-2.91,13.02c-1.94,3.66-4.66,6.45-8.15,8.39-3.5,1.94-7.63,2.91-12.4,2.91Zm0-2.67c2.29,0,4.15-.62,5.58-1.86,1.43-1.24,2.46-3.42,3.1-6.53.64-3.11.95-7.47.95-13.07s-.32-10.06-.95-13.21c-.64-3.15-1.67-5.34-3.1-6.58-1.43-1.24-3.29-1.86-5.58-1.86s-4.13.62-5.53,1.86c-1.4,1.24-2.43,3.43-3.1,6.58-.67,3.15-1,7.55-1,13.21s.33,9.95,1,13.07c.67,3.12,1.7,5.29,3.1,6.53,1.4,1.24,3.24,1.86,5.53,1.86Z"/><path class="cls-12" d="m496.32,199.61c-3.94,0-7.04-.97-9.3-2.91-2.26-1.94-3.39-5.1-3.39-9.49,0-1.53.02-2.97.05-4.34.03-1.37.05-2.97.05-4.82v-22.6h-6.77v-2.1l2.57-.38c1.84-.32,3.42-.89,4.72-1.72,1.3-.83,2.49-1.97,3.58-3.43l6.2-8.58h2.86l-.29,13.26h10.87v2.96h-10.97v32.52c0,2.29.49,4.01,1.48,5.15.98,1.14,2.21,1.72,3.67,1.72,1.27,0,2.42-.3,3.43-.91,1.02-.6,2.03-1.41,3.05-2.43l1.24,1.43c-1.21,2.1-2.89,3.74-5.05,4.91-2.16,1.18-4.83,1.76-8.01,1.76Z"/><path class="cls-12" d="m536.18,151.06c4.01,0,7.44.83,10.3,2.48,2.86,1.65,5.07,3.93,6.63,6.82,1.56,2.89,2.34,6.22,2.34,9.97,0,.83-.03,1.61-.1,2.34-.06.73-.19,1.42-.38,2.05h-28.71c.06,6.55,1.29,11.25,3.67,14.11,2.38,2.86,5.87,4.29,10.44,4.29,3.18,0,5.75-.52,7.72-1.57,1.97-1.05,3.78-2.53,5.44-4.43l1.53,1.43c-1.91,3.5-4.5,6.22-7.77,8.15-3.28,1.94-7.17,2.91-11.68,2.91s-8.49-.95-11.92-2.86c-3.43-1.91-6.12-4.66-8.06-8.25-1.94-3.59-2.91-7.9-2.91-12.92s1.13-9.63,3.39-13.26c2.26-3.62,5.18-6.4,8.77-8.34,3.59-1.94,7.36-2.91,11.3-2.91Zm-.48,2.77c-1.84,0-3.45.52-4.82,1.57-1.37,1.05-2.45,2.89-3.24,5.53-.8,2.64-1.26,6.34-1.38,11.11h17.07c.7-6.42.44-11.06-.76-13.92-1.21-2.86-3.5-4.29-6.87-4.29Z"/><path class="cls-12" d="m560.31,198.27v-1.81l1.53-.38c2.1-.63,3.15-2.19,3.15-4.67v-28.13c-.06-1.33-.29-2.37-.67-3.1-.38-.73-1.21-1.22-2.48-1.48l-1.53-.38v-1.72l15.45-5.53,1.14,1.05.67,5.91c2.29-2.03,4.85-3.7,7.68-5.01,2.83-1.3,5.61-1.96,8.34-1.96,4.2,0,7.42,1.14,9.68,3.43,2.26,2.29,3.39,5.79,3.39,10.49v26.51c0,2.48,1.14,4.04,3.43,4.67l1.05.29v1.81h-21.94v-1.81l1.43-.38c2.1-.7,3.15-2.26,3.15-4.67v-28.32c0-2.22-.48-3.85-1.43-4.86-.95-1.02-2.54-1.53-4.77-1.53-3.12,0-6.36,1.37-9.73,4.1v30.71c0,2.48,1.11,4.04,3.34,4.67l.95.29v1.81h-21.84Z"/><path class="cls-12" d="m632.51,199.61c-3.94,0-7.04-.97-9.3-2.91-2.26-1.94-3.39-5.1-3.39-9.49,0-1.53.02-2.97.05-4.34.03-1.37.05-2.97.05-4.82v-22.6h-6.77v-2.1l2.57-.38c1.84-.32,3.42-.89,4.72-1.72,1.3-.83,2.49-1.97,3.58-3.43l6.2-8.58h2.86l-.29,13.26h10.87v2.96h-10.97v32.52c0,2.29.49,4.01,1.48,5.15.98,1.14,2.21,1.72,3.67,1.72,1.27,0,2.42-.3,3.43-.91,1.02-.6,2.03-1.41,3.05-2.43l1.24,1.43c-1.21,2.1-2.89,3.74-5.05,4.91-2.16,1.18-4.83,1.76-8.01,1.76Z"/><path class="cls-12" d="m648.81,198.27v-1.81l1.43-.38c1.27-.38,2.13-.95,2.57-1.72.44-.76.7-1.78.76-3.05v-23.03c0-1.68-.03-3.42-.1-5.2,0-1.27-.24-2.27-.71-3-.48-.73-1.35-1.22-2.62-1.48l-1.33-.29v-1.72l16.69-5.53,1.14,1.05-.29,13.54v25.75c0,1.27.24,2.29.72,3.05.48.76,1.32,1.34,2.53,1.72l1.05.29v1.81h-21.84Zm10.97-52.45c-2.1,0-3.88-.67-5.34-2-1.46-1.33-2.19-3.02-2.19-5.05s.73-3.8,2.19-5.1c1.46-1.3,3.24-1.96,5.34-1.96s3.88.65,5.34,1.96c1.46,1.3,2.19,3,2.19,5.1s-.73,3.72-2.19,5.05c-1.46,1.34-3.24,2-5.34,2Z"/><path class="cls-12" d="m688.68,199.61c-3.62,0-6.69-1.03-9.2-3.1-2.51-2.07-3.77-5.04-3.77-8.92,0-3.05,1.48-5.87,4.44-8.44,2.96-2.57,7.61-4.47,13.97-5.67,1.08-.25,2.34-.49,3.77-.72,1.43-.22,2.84-.46,4.24-.72v-6.77c0-4.32-.54-7.31-1.62-8.96-1.08-1.65-2.8-2.48-5.15-2.48h-.29c-1.46,0-2.62.46-3.48,1.38-.86.92-1.42,2.43-1.67,4.53l-.29,1.24c-.19,2.54-.86,4.4-2,5.58-1.14,1.18-2.58,1.76-4.29,1.76-1.59,0-2.91-.49-3.96-1.48-1.05-.98-1.57-2.27-1.57-3.86,0-2.61.89-4.8,2.67-6.58s4.15-3.11,7.1-4.01c2.96-.89,6.15-1.34,9.58-1.34,5.66,0,9.98,1.37,12.97,4.1,2.99,2.73,4.48,7.19,4.48,13.35v21.27c0,2.73,1.3,4.1,3.91,4.1h2.19l.95,1.05c-1.14,1.46-2.42,2.59-3.81,3.39-1.4.79-3.31,1.19-5.72,1.19-2.73,0-4.91-.65-6.53-1.96s-2.69-3.04-3.19-5.2c-2.04,2.16-4.04,3.91-6.01,5.25-1.97,1.33-4.55,2-7.73,2Zm5.53-6.1c1.27,0,2.48-.29,3.62-.86s2.57-1.53,4.29-2.86v-15.26c-1.65.25-3.34.57-5.05.95-2.73.64-4.94,1.81-6.63,3.53-1.69,1.72-2.53,4.04-2.53,6.96,0,2.54.59,4.43,1.76,5.67,1.18,1.24,2.69,1.86,4.53,1.86Z"/><path class="cls-12" d="m724.06,198.27v-1.81l1.43-.38c2.1-.7,3.15-2.29,3.15-4.77,0-2.16.02-4.34.05-6.53.03-2.19.05-4.37.05-6.53v-36.24c0-1.33-.22-2.34-.67-3-.45-.67-1.3-1.16-2.58-1.48l-1.43-.38v-1.81l16.69-4.01,1.24.86-.38,13.45v45.68c.06,1.27.33,2.31.81,3.1.48.8,1.32,1.35,2.53,1.67l1.33.38v1.81h-22.22Z"/><path class="cls-12" d="m455.43,247.41c0,7.06-1.32,12.54-3.96,16.45-2.64,3.91-6.34,6.63-11.11,8.15s-10.33,2.29-16.69,2.29h-13.92v-53.69h13.92c6.36,0,11.92,1,16.69,3,4.77,2,8.47,4.98,11.11,8.92,2.64,3.94,3.96,8.9,3.96,14.88Zm-41.29,23.08h10.3c5.28,0,9.9-.6,13.88-1.81,3.97-1.21,7.06-3.46,9.25-6.77,2.19-3.31,3.29-8.14,3.29-14.5,0-5.21-1.1-9.52-3.29-12.92-2.19-3.4-5.28-5.91-9.25-7.53-3.97-1.62-8.6-2.43-13.88-2.43h-10.3v45.97Z"/><path class="cls-12" d="m463.34,274.3v-38.72h3.72l.57,9.92c.63-2.73,2.13-5.07,4.48-7.01,2.35-1.94,5.66-2.91,9.92-2.91h2.1v4.86h-2.1c-4.32,0-7.5.68-9.54,2.05-2.04,1.37-3.35,3.19-3.96,5.48-.6,2.29-.91,4.83-.91,7.63v18.69h-4.29Z"/><path class="cls-12" d="m505.69,275.25c-4.13,0-7.55-.98-10.25-2.96-2.7-1.97-4.72-4.5-6.06-7.58-1.33-3.08-1.97-6.28-1.91-9.58,0-3.43.7-6.64,2.1-9.63,1.4-2.99,3.45-5.39,6.15-7.2,2.7-1.81,5.99-2.72,9.87-2.72,4.83,0,8.82,1.57,11.97,4.72,3.15,3.15,4.91,7.36,5.29,12.64.06.32.1,1.02.1,2.1h-31.28c0,5.09,1.21,9.09,3.62,12.02,2.42,2.93,5.88,4.39,10.4,4.39,3.24,0,6.06-.86,8.44-2.58s3.86-4.04,4.43-6.96h4.29c-.76,3.94-2.69,7.15-5.77,9.63-3.08,2.48-6.88,3.72-11.4,3.72Zm-13.73-22.79h26.51c-.06-1.65-.52-3.5-1.38-5.53-.86-2.03-2.23-3.81-4.1-5.34-1.88-1.53-4.34-2.29-7.39-2.29-4.2,0-7.41,1.3-9.63,3.91-2.23,2.61-3.56,5.69-4.01,9.25Z"/><path class="cls-12" d="m544.6,275.25c-3.56,0-6.52-.91-8.87-2.72-2.35-1.81-4.1-4.23-5.25-7.25-1.14-3.02-1.72-6.37-1.72-10.06s.59-7.23,1.76-10.25c1.18-3.02,2.94-5.34,5.29-6.96,2.35-1.62,5.28-2.43,8.77-2.43,3.75,0,6.74.84,8.96,2.53,2.22,1.69,3.81,3.88,4.77,6.57l.19-.52v-8.58h4.39v38.72h-3.62l-.76-7.84-.19-.17c-1.02,2.35-2.64,4.44-4.86,6.25-2.23,1.81-5.18,2.72-8.87,2.72Zm1.62-4.01c4.07,0,7.12-1.41,9.16-4.24,2.03-2.83,3.05-6.72,3.05-11.68,0-5.28-1.07-9.19-3.19-11.73-2.13-2.54-5.14-3.81-9.01-3.81-4.52,0-7.82,1.45-9.92,4.34-2.1,2.89-3.15,6.6-3.15,11.11s1.08,8.55,3.24,11.54c2.16,2.99,5.44,4.48,9.82,4.48Z"/><path class="cls-12" d="m570.25,274.3v-38.72h3.62l.38,10.3h.19c.19-.57.52-1.41,1-2.53.48-1.11,1.19-2.26,2.15-3.43.95-1.18,2.22-2.19,3.81-3.05,1.59-.86,3.56-1.29,5.91-1.29,2.54,0,4.59.49,6.15,1.48,1.56.99,2.78,2.27,3.67,3.86.89,1.59,1.53,3.24,1.91,4.96h.19c.19-.57.56-1.41,1.1-2.53.54-1.11,1.33-2.26,2.38-3.43,1.05-1.18,2.4-2.19,4.05-3.05,1.65-.86,3.66-1.29,6.01-1.29,2.54,0,4.61.51,6.2,1.53,1.59,1.02,2.83,2.31,3.72,3.86.89,1.56,1.53,3.23,1.91,5.01.38,1.78.6,3.48.67,5.1.06,1.62.1,2.97.1,4.05v19.17h-3.91v-19.26c0-1.08-.05-2.46-.14-4.15-.1-1.68-.45-3.4-1.05-5.15-.6-1.75-1.57-3.21-2.91-4.39-1.34-1.18-3.24-1.76-5.72-1.76-2.73,0-4.96.76-6.68,2.29-1.72,1.53-3,3.53-3.86,6.01-.86,2.48-1.29,5.18-1.29,8.11v18.31h-3.91v-19.26c0-1.08-.05-2.46-.14-4.15-.1-1.68-.45-3.4-1.05-5.15-.6-1.75-1.57-3.21-2.91-4.39-1.34-1.18-3.24-1.76-5.72-1.76-2.73,0-4.96.76-6.68,2.29-1.72,1.53-3,3.53-3.86,6.01-.86,2.48-1.29,5.18-1.29,8.11v18.31h-4.01Z"/><path class="cls-12" d="m650.55,275.25c-4.13,0-7.55-.98-10.25-2.96-2.7-1.97-4.72-4.5-6.06-7.58-1.33-3.08-1.97-6.28-1.91-9.58,0-3.43.7-6.64,2.1-9.63,1.4-2.99,3.45-5.39,6.15-7.2,2.7-1.81,5.99-2.72,9.87-2.72,4.83,0,8.82,1.57,11.97,4.72,3.15,3.15,4.91,7.36,5.29,12.64.06.32.1,1.02.1,2.1h-31.28c0,5.09,1.21,9.09,3.62,12.02,2.42,2.93,5.88,4.39,10.4,4.39,3.24,0,6.06-.86,8.44-2.58s3.86-4.04,4.43-6.96h4.29c-.76,3.94-2.69,7.15-5.77,9.63-3.08,2.48-6.88,3.72-11.4,3.72Zm-13.73-22.79h26.51c-.06-1.65-.52-3.5-1.38-5.53-.86-2.03-2.23-3.81-4.1-5.34-1.88-1.53-4.34-2.29-7.39-2.29-4.2,0-7.41,1.3-9.63,3.91-2.23,2.61-3.56,5.69-4.01,9.25Z"/><path class="cls-12" d="m676.97,274.3v-38.72h3.72l.57,9.92c.63-2.73,2.13-5.07,4.48-7.01,2.35-1.94,5.66-2.91,9.92-2.91h2.1v4.86h-2.1c-4.32,0-7.5.68-9.54,2.05-2.04,1.37-3.35,3.19-3.96,5.48-.6,2.29-.91,4.83-.91,7.63v18.69h-4.29Z"/><path class="cls-12" d="m1011.73,1213.87c-.76,0-1.37.61-1.37,1.37s.61,1.37,1.37,1.37,1.37-.61,1.37-1.37-.61-1.37-1.37-1.37Z"/><circle class="cls-12" cx="1010.37" cy="1211.13" r="1.37"/></svg>