<?xml version="1.0" encoding="UTF-8"?><svg id="Color1" xmlns="http://www.w3.org/2000/svg" xmlns:xlink="http://www.w3.org/1999/xlink" viewBox="0 0 1080 1137"><defs><style>.cls-1{fill:#011720;}.cls-2,.cls-3{fill:#fff;}.cls-4{fill:#064862;}.cls-5{fill:#0c6b86;}.cls-6{fill:#48bcc4;}.cls-3,.cls-7{stroke:#011720;stroke-miterlimit:10;}.cls-7{fill:none;}.cls-8{fill:url(#Degradado_sin_nombre_2);}</style><linearGradient id="Degradado_sin_nombre_2" x1="179.32" y1="761.3" x2="770.97" y2="761.3" gradientUnits="userSpaceOnUse"><stop offset="0" stop-color="#48bdc5"/><stop offset=".52" stop-color="#168ea3"/><stop offset=".78" stop-color="#0c6b87"/><stop offset=".99" stop-color="#0c6b87"/></linearGradient></defs><path class="cls-8" d="m508.14,1045s-71.57-135.88,75.72-149.37c147.29-13.48,202.27-50.83,183.6-112.03-18.67-61.2-174.26-53.94-256.21-40.45-81.94,13.48-186.71,24.89-218.87-20.75-32.16-45.64-105.8-191.9-113.06-244.8,0,0,31.49,243.76,134.51,283.7,103.02,39.94,233.72,14,306.33,9.85,72.61-4.15,127.59,10.37,119.29,36.3-8.3,25.93-49.79,50.83-128.62,36.3-78.83-14.52-177.37-9.34-183.6,72.61-6.22,81.94,80.91,128.62,80.91,128.62Z"/><path class="cls-4" d="m179.32,454.43s-21.26-229.03,0-235.44c21.26-6.41,577.24-52.05,637.41-26.12,60.16,25.93,120.32,351.64,100.62,396.24-19.71,44.6-20.98,78.97-146.37,98.61-125.39,19.64-442.44,46.74-474.26,0-31.82-46.74-84.2-169.66-100.79-319.03-16.6-149.37,375.49-145.22,492.71-145.22s153.2-17.25,170.99,225.8c0,0-20.59-173.94-63.12-185.35-42.53-11.41-284.21-6.22-367.2,0-82.98,6.22-215.75,25.93-210.57,107.88,5.19,81.94,54.98,292.51,100.62,303.92,45.64,11.41,497.89-12.45,530.05-66.39,32.16-53.94,36.3-99.58,24.89-189.82-11.41-90.24-37.34-197.08-63.27-203.31-25.93-6.22-416.99-18.67-574.65,35.27,0,0-75.72-2.79-57.05,202.95Z"/><path class="cls-1" d="m305.35,484.35c3.11,14.52,5.19,63.27,15.56,63.27s40.45,4.15,40.45-21.78-3.11-59.12-23.86-53.94c-20.75,5.19-32.16,11.41-25.93,11.41s31.6-9.34,33.43-5.71c1.83,3.63,13.24,51.35,7.02,56.53s-28.01,10.37-30.08,4.15c-2.07-6.22-16.6-53.94-16.6-53.94Z"/><path class="cls-1" d="m340.62,592.23c3.69,14.52,6.15,63.27,18.44,63.27s47.95,4.15,47.95-21.78-3.69-59.12-28.28-53.94c-24.59,5.19-38.11,11.41-30.73,11.41s37.45-9.34,39.62-5.71c2.17,3.63,15.7,51.35,8.32,56.53-7.38,5.19-33.19,10.37-35.65,4.15-2.46-6.22-19.67-53.94-19.67-53.94Z"/><path class="cls-1" d="m436.05,577.71c3.69,14.52,6.15,63.27,18.44,63.27s47.95,4.15,47.95-21.78-3.69-59.12-28.28-53.94c-24.59,5.19-38.11,11.41-30.73,11.41s37.45-9.34,39.62-5.71c2.17,3.63,15.7,51.35,8.32,56.53s-33.19,10.37-35.65,4.15c-2.46-6.22-19.67-53.94-19.67-53.94Z"/><path class="cls-1" d="m397.67,470.87c4.32,14.52,7.2,63.27,21.61,63.27s56.19,4.15,56.19-21.78-4.32-59.12-33.14-53.94c-28.81,5.19-44.66,11.41-36.02,11.41s43.89-9.34,46.43-5.71c2.55,3.63,18.4,51.35,9.75,56.53-8.64,5.19-38.9,10.37-41.78,4.15-2.88-6.22-23.05-53.94-23.05-53.94Z"/><path class="cls-1" d="m276.31,369.21c3.11,14.52,5.19,63.27,15.56,63.27s40.45,4.15,40.45-21.78-3.11-59.12-23.86-53.94c-20.75,5.19-32.16,11.41-25.93,11.41s31.6-9.34,33.43-5.71c1.83,3.63,13.24,51.35,7.02,56.53-6.22,5.19-28.01,10.37-30.08,4.15-2.07-6.22-16.6-53.94-16.6-53.94Z"/><path class="cls-7" d="m404.6,420.11c-3.23,0-6.27-.08-8.95-.15-2.06-.05-3.89-.1-5.42-.1-11.29,0-15.6-25.87-19.06-46.65-1.2-7.2-2.23-13.42-3.37-17.24l1.61-.58c.2.48,20.2,47.77,23.04,53.91.3.65,1.14,1.21,2.44,1.6,7.96,2.45,30.82-1.75,38.12-6.13.83-.5,1.42-1.59,1.78-3.24,2.65-12.48-9.88-49.34-11.79-52.06-1.24-1.77-17.35,1.31-26.98,3.15-7.88,1.5-15.32,2.92-18.75,2.92-1.08,0-3.09,0-3.21-1.35-.34-3.82,28.09-9.79,39.08-11.77,8.19-1.47,15.03.02,20.32,4.44,9.3,7.78,13.83,24.25,13.83,50.34,0,5.49-1.83,10.07-5.45,13.59-8.26,8.05-24.28,9.29-37.23,9.29Zm-33.16-55.51c.46,2.55.93,5.36,1.42,8.34,3.18,19.08,7.53,45.22,17.37,45.22,1.54,0,3.39.05,5.46.1,13.13.33,35.13.9,44.93-8.66,3.27-3.19,4.93-7.35,4.93-12.36,0-25.56-4.32-41.59-13.21-49.03-4.88-4.08-11.24-5.45-18.92-4.07-20.87,3.76-33.85,7.86-37.02,9.68.22.02.51.03.85.03,3.27,0,10.63-1.41,18.43-2.89,16.69-3.19,26.95-4.94,28.71-2.44,2.54,3.62,14.76,40.69,12.06,53.4-.46,2.14-1.32,3.61-2.57,4.36-7.73,4.63-31.05,8.9-39.51,6.3-1.8-.55-2.97-1.4-3.49-2.52-2.1-4.54-13.51-31.4-19.45-45.44Z"/><path class="cls-1" d="m540.81,561.11c4.32,14.52,7.2,63.27,21.61,63.27s56.19,4.15,56.19-21.78-4.32-59.12-33.14-53.94c-28.81,5.19-44.66,11.41-36.02,11.41s43.89-9.34,46.43-5.71c2.55,3.63,18.4,51.35,9.75,56.53-8.64,5.19-38.9,10.37-41.78,4.15-2.88-6.22-23.05-53.94-23.05-53.94Z"/><path class="cls-1" d="m487.91,337.06c4.32,14.52,7.2,63.27,21.61,63.27s56.19,4.15,56.19-21.78-4.32-59.12-33.14-53.94c-28.81,5.19-44.66,11.41-36.02,11.41s43.89-9.34,46.43-5.71c2.55,3.63,18.4,51.35,9.75,56.53s-38.9,10.37-41.78,4.15-23.05-53.94-23.05-53.94Z"/><path class="cls-1" d="m649.73,542.44c4.32,14.52,7.2,63.27,21.61,63.27s56.19,4.15,56.19-21.78-4.32-59.12-33.14-53.94c-28.81,5.19-44.66,11.41-36.02,11.41s43.89-9.34,46.43-5.71c2.55,3.63,18.4,51.35,9.75,56.53-8.64,5.19-38.9,10.37-41.78,4.15-2.88-6.22-23.05-53.94-23.05-53.94Z"/><path class="cls-1" d="m769.01,526.88c4.32,14.52,7.2,63.27,21.61,63.27s56.19,4.15,56.19-21.78-4.32-59.12-33.14-53.94c-28.81,5.19-44.66,11.41-36.02,11.41s43.89-9.34,46.43-5.71c2.55,3.63,18.4,51.35,9.75,56.53-8.64,5.19-38.9,10.37-41.78,4.15-2.88-6.22-23.05-53.94-23.05-53.94Z"/><path class="cls-1" d="m728.56,303.87c4.32,14.52,7.2,63.27,21.61,63.27s56.19,4.15,56.19-21.78-4.32-59.12-33.14-53.94c-28.81,5.19-44.66,11.41-36.02,11.41s43.89-9.34,46.43-5.71c2.55,3.63,18.4,51.35,9.75,56.53-8.64,5.19-38.9,10.37-41.78,4.15-2.88-6.22-23.05-53.94-23.05-53.94Z"/><path class="cls-1" d="m512.81,457.38c4.32,14.52,7.2,63.27,21.61,63.27s56.19,4.15,56.19-21.78-4.32-59.12-33.14-53.94c-28.81,5.19-44.66,11.41-36.02,11.41s43.89-9.34,46.43-5.71c2.55,3.63,18.4,51.35,9.75,56.53-8.64,5.19-38.9,10.37-41.78,4.15-2.88-6.22-23.05-53.94-23.05-53.94Z"/><path class="cls-7" d="m668.07,510.35c-3.23,0-6.27-.08-8.95-.15-2.06-.05-3.89-.1-5.42-.1-11.3,0-15.6-25.87-19.06-46.65-1.2-7.2-2.23-13.41-3.37-17.23l1.62-.58c.2.48,20.2,47.77,23.04,53.91.3.65,1.14,1.21,2.44,1.6,7.97,2.45,30.82-1.75,38.12-6.13.83-.5,1.42-1.59,1.78-3.25,2.65-12.49-9.88-49.34-11.79-52.06-1.25-1.77-17.35,1.31-26.98,3.15-7.88,1.5-15.32,2.92-18.75,2.92-1.08,0-3.09,0-3.21-1.35-.34-3.82,28.09-9.79,39.07-11.77,8.2-1.47,15.03.02,20.32,4.44,9.3,7.78,13.83,24.25,13.83,50.34,0,5.49-1.83,10.07-5.45,13.59-8.26,8.05-24.28,9.3-37.23,9.3Zm-33.16-55.52c.46,2.55.93,5.36,1.42,8.33,3.18,19.08,7.53,45.22,17.37,45.22,1.54,0,3.39.05,5.46.1,13.15.34,35.13.89,44.93-8.66,3.27-3.19,4.93-7.35,4.93-12.36,0-25.56-4.32-41.59-13.21-49.03-4.88-4.08-11.25-5.45-18.92-4.07-20.87,3.76-33.85,7.86-37.02,9.68.22.02.51.03.85.03,3.27,0,10.63-1.41,18.43-2.89,16.69-3.19,26.95-4.94,28.71-2.44,2.54,3.62,14.76,40.69,12.06,53.4-.45,2.14-1.32,3.61-2.57,4.36-7.72,4.64-31.04,8.9-39.51,6.3-1.8-.55-2.97-1.4-3.49-2.53-2.1-4.54-13.51-31.4-19.45-45.44Z"/><path class="cls-7" d="m646.29,386.91c-3.23,0-6.27-.08-8.95-.15-2.06-.05-3.89-.1-5.42-.1-11.3,0-15.6-25.87-19.06-46.65-1.2-7.2-2.23-13.41-3.37-17.23l1.62-.58c.2.48,20.2,47.77,23.04,53.91.3.65,1.14,1.21,2.44,1.6,7.96,2.45,30.82-1.75,38.12-6.13.83-.5,1.42-1.59,1.78-3.25,2.65-12.49-9.88-49.34-11.79-52.06-1.25-1.77-17.35,1.31-26.98,3.15-7.88,1.5-15.32,2.92-18.75,2.92-1.08,0-3.09,0-3.21-1.35-.34-3.82,28.09-9.79,39.07-11.77,8.2-1.47,15.03.02,20.32,4.44,9.3,7.78,13.83,24.25,13.83,50.34,0,5.49-1.83,10.07-5.45,13.59-8.26,8.05-24.28,9.29-37.23,9.29Zm-33.16-55.52c.46,2.55.93,5.36,1.42,8.33,3.18,19.08,7.53,45.22,17.37,45.22,1.54,0,3.39.05,5.46.1,13.14.34,35.13.9,44.93-8.66,3.27-3.19,4.93-7.35,4.93-12.36,0-25.56-4.32-41.59-13.21-49.03-4.88-4.08-11.25-5.45-18.92-4.07-20.88,3.76-33.85,7.86-37.02,9.68.22.02.51.03.85.03,3.27,0,10.63-1.41,18.43-2.89,16.69-3.19,26.95-4.94,28.71-2.44,2.54,3.62,14.76,40.69,12.06,53.4-.45,2.14-1.32,3.61-2.57,4.36-7.72,4.63-31.05,8.9-39.51,6.3-1.8-.55-2.97-1.4-3.49-2.52-2.1-4.54-13.51-31.4-19.45-45.44Z"/><path class="cls-1" d="m749.3,432.49c4.32,14.52,7.2,63.27,21.61,63.27s56.19,4.15,56.19-21.78-4.32-59.12-33.14-53.94c-28.81,5.19-44.66,11.41-36.02,11.41s43.89-9.34,46.43-5.71c2.55,3.63,18.4,51.35,9.75,56.53-8.64,5.19-38.9,10.37-41.78,4.15s-23.05-53.94-23.05-53.94Z"/><path class="cls-6" d="m542.15,476.08c.2,6.6,10.36,8.42,4.53,10.36-5.83,1.94-12.3-5.18-11.65-14.89.65-9.71,12.95-14.24,24.6-6.47,11.65,7.77,11.65,29.78,5.83,34.96-5.83,5.18-31.08,7.77-38.2-1.94-7.12-9.71-8.42-27.84-3.24-31.08,5.18-3.24,2.59-3.88,3.88,11.65,1.29,15.54,15.75,13.79,24.87,12.56,9.12-1.23,7.18-10.94,6.53-14.83-.65-3.88-17.48-11.01-17.16-.32Z"/><path class="cls-5" d="m421.5,520.51s22.01-8.42,21.37-14.24c-.65-5.83-1.28-10.75-10.68-14.44-9.4-3.69-11.18-20.02-1.55-18.33s1.37,3,0,6.23c-1.37,3.23,1.89,11.14,12.24,3.3,10.35-7.84-1.29-26.91-10.69-26.76-9.4.15-23.88,8.26-20.4,22.16,5.83,23.31,36.91,29.14,9.71,42.09Z"/><polygon class="cls-6" points="633.72 331.69 600.7 333.63 635.66 351.76 645.79 394.02 655.08 352.41 688.11 334.93 658.97 331.69 644.4 290.74 633.72 331.69"/><path class="cls-6" d="m660.41,446.54c4.14,2.96-4.87,9.26-8.77,3.9-3.9-5.36-14.93-10.23-19.64-3.9-4.71,6.33,2.01,10.81,8.88,10.76,6.87-.05-2.88,2.39-7.26,3.85-4.38,1.46-13.64,7.46-6.82,14.2s15.58,3.49,21.18,0c5.61-3.49,12.91-6.41,20.71-3.49,7.79,2.92,28.29,14.83,40.69,7.42,12.4-7.42,2.17-16.67-.75-17.65-2.92-.97-8.28.49-11.2,0-2.92-.49-7.79-3.41-3.41-6.33,4.38-2.92,10.23-1.95,9.26-7.31-.97-5.36-9.26-7.79-12.18-5.85,0,0-3.9-16.56-19.48-13.15-15.59,3.41-14.61,15.1-11.2,17.54Z"/><path class="cls-6" d="m673.07,478.69c-3.4-2.72-13.66-3.9-15.11,0-1.45,3.9,3.59,5.01,6.43,2.99,2.84-2.02,3.68-1.39,6.43,0,2.74,1.39,4.69-1.04,2.26-2.99Z"/><path class="cls-6" d="m665.94,485c-1.62-1.38-4.56,2.95-2.61,3.43,1.95.49,7.17.44,2.61-3.43Z"/><path class="cls-6" d="m665.94,497.01c-1.77-1.19-3.1,1.65-1.64,2.63,1.46.97,4.25-.87,1.64-2.63Z"/><path class="cls-2" d="m108.71,375.72c5.54,15.11,30.75,24.55,18.85,50.73-11.9,26.18-15.3,29.17-47.6,28.53-32.3-.64-71.4,40.15-49.3,82.65,22.1,42.5,78.63,13.18,100.51-7.01,21.88-20.19,62.68-43.99,79.68-18.49,17,25.5,11.9,83.3,78.2,66.3,66.3-17,44.2-71.4,66.3-74.8,22.1-3.4,73.1-6.8,68-62.9-5.1-56.1-28.31-87.04-67.7-80.92-39.39,6.12-52.99,45.22-73.39,21.42-20.4-23.8-34-54.4-86.7-61.2-52.7-6.8-105.69,4.26-86.85,55.68Z"/><path class="cls-1" d="m267.21,583.26c-32.04,0-40.31-24.52-47.76-46.59-3-8.88-5.83-17.28-10.03-23.58-3.92-5.87-9.44-9.27-16.41-10.11-17.94-2.14-43.41,12.97-60.67,28.9-14.63,13.5-47.75,33.19-74.32,28.54-12.73-2.23-22.45-9.63-28.89-22-9.58-18.43-8.85-38.26,2.06-55.83,11.11-17.9,30.66-29.68,48.79-29.33,31.97.64,34.64-2.53,46-27.52,7.6-16.73-.83-26.17-8.99-35.3-4.12-4.61-8.01-8.96-9.91-14.14-6.18-16.87-5.2-30.58,2.93-40.76,6.16-7.71,26.84-24.82,85.75-17.21,44.27,5.71,61.22,27.73,77.61,49.03,3.43,4.46,6.67,8.66,10.17,12.75,10.56,12.32,18.57,6.54,31.84-3.03,10.05-7.25,22.56-16.27,39.98-18.97,15.43-2.4,28.78.69,39.65,9.18,16.45,12.85,26.84,38.19,30.03,73.28,4.92,54.17-40.52,60.62-64.94,64.09-1.6.23-3.11.44-4.51.66-6.72,1.03-8.72,7.53-11.68,18.91-4.64,17.87-11.66,44.88-54.45,55.85-8.5,2.18-15.86,3.16-22.27,3.16Zm-77.82-83.92c1.37,0,2.71.08,4.03.23,8.02.96,14.36,4.86,18.86,11.61,4.45,6.68,7.35,15.28,10.43,24.39,8.87,26.29,18.03,53.47,65.91,41.2,40.83-10.47,47.28-35.27,51.98-53.38,2.79-10.74,5.2-20.02,14.48-21.45,1.41-.22,2.93-.43,4.55-.66,23.28-3.31,66.63-9.47,62-60.38-3.1-34.12-13.03-58.63-28.72-70.88-10.09-7.88-22.55-10.74-37.01-8.49-16.61,2.58-28.75,11.33-38.5,18.37-13.32,9.61-23.84,17.19-36.46,2.48-3.56-4.16-6.98-8.6-10.29-12.89-15.96-20.74-32.46-42.19-75.32-47.72-39.67-5.12-70.56.84-82.62,15.95-7.33,9.17-8.13,21.77-2.39,37.43h0c1.67,4.56,5.35,8.67,9.24,13.03,8.48,9.49,18.09,20.24,9.56,39.01-12.02,26.44-15.94,30.2-49.2,29.53-.24,0-.47,0-.71,0-16.46,0-34.91,11.3-45.09,27.71-5.94,9.56-14.08,29.08-1.94,52.44,5.91,11.37,14.81,18.17,26.43,20.2,25.35,4.43,57.24-14.63,71.39-27.68,15.47-14.27,39.67-30.02,59.38-30.02Z"/><path class="cls-3" d="m329.84,490.04c-40.77,9.27-61.2,37.4-59.5,81.6,1.7,44.2-11.9,59.5-49.3,57.8s-93.5,8.5-93.5,47.6,56.1,37.4,76.5,18.7c20.4-18.7,75.71-32.3,82.05-10.2,6.34,22.1,24.51,81.8,112.32,51.95,87.81-29.85,24.91-63.85,31.71-80.85,6.8-17,32.3-25.5,44.2-11.9,11.9,13.6,71.4,34,62.9-15.3-8.5-49.3-45.9-62.9-69.7-59.5-23.8,3.4-32.3,34-5.1,35.7,27.2,1.7,25.5-13.6,25.5-13.6,0,0,25.5,40.8-5.1,35.7-30.6-5.1-51-8.5-47.6-57.8,3.4-49.3-30.6-96.9-105.39-79.9Z"/><path class="cls-6" d="m327.82,499.22c-37.08,8.43-55.66,34.01-54.11,74.21,1.55,40.2-10.82,54.11-44.84,52.57-34.01-1.55-85.04,7.73-85.04,43.29s51.02,34.01,69.57,17.01c18.55-17.01,68.86-29.38,74.63-9.28,5.77,20.1,22.3,74.4,102.16,47.25,79.86-27.15,22.66-58.07,28.84-73.53,6.18-15.46,29.38-23.19,40.2-10.82,10.82,12.37,64.94,30.92,57.21-13.91s-41.74-57.21-63.39-54.11c-21.65,3.09-29.38,30.92-4.64,32.47,24.74,1.55,23.19-12.37,23.19-12.37,0,0,23.19,37.11-4.64,32.47-27.83-4.64-46.38-7.73-43.29-52.57,3.09-44.84-27.83-88.13-95.86-72.67Z"/><path class="cls-6" d="m759.07,307.17c21.37,15.26-25.15,47.78-45.27,20.12-20.12-27.66-77.08-52.81-101.41-20.12-24.33,32.69,10.39,55.81,45.84,55.57,35.45-.24-14.84,12.33-37.48,19.88-22.63,7.54-70.42,38.52-35.21,73.33,35.21,34.81,80.41,18,109.37,0,28.95-18,66.68-33.09,106.92-18,40.24,15.09,146.07,76.57,210.1,38.28,64.03-38.28,11.21-86.07-3.88-91.1-15.09-5.03-42.75,2.51-57.84,0-15.09-2.51-40.24-17.6-17.6-32.69,22.63-15.09,52.81-10.06,47.78-37.72-5.03-27.66-47.78-40.24-62.87-30.18,0,0-20.12-85.51-100.6-67.9-80.48,17.6-75.45,77.96-57.84,90.54Z"/><path class="cls-5" d="m532.15,407.23c-7.59,22.11-15.31,55.61-44.21,36.91-28.9-18.7-127.49-27.2-147.89,23.8-20.4,51-1.7,108.79,61.2,95.2,62.9-13.6,78.2-28.9,100.29-3.4,22.1,25.5,81.52,48.27,85.81,16.49,4.29-31.79,4.24-58.52,17.01-57.05,12.78,1.47,28.07,15.07,53.57,28.67,25.5,13.6,83.3,25.5,98.6-28.9,15.3-54.4-3.4-71.4-25.5-85-22.1-13.6-34-8.5-54.4-11.9-20.4-3.4-3.4-18.7-22.1-34-18.7-15.3-96.87-55.12-122.38,19.19Z"/></svg>