<?xml version="1.0" encoding="UTF-8"?><svg id="Color1" xmlns="http://www.w3.org/2000/svg" xmlns:xlink="http://www.w3.org/1999/xlink" viewBox="0 0 1080 1137"><defs><style>.cls-1{fill:#03b184;}.cls-2,.cls-3{fill:#fff;}.cls-4{fill:#064862;}.cls-5{fill:#0c6b86;}.cls-6{fill:#48bcc4;}.cls-7{fill:url(#Degradado_sin_nombre_2);}.cls-3{stroke:#000;stroke-miterlimit:10;stroke-width:3px;}</style><linearGradient id="Degradado_sin_nombre_2" x1="204.38" y1="740.56" x2="712.08" y2="740.56" gradientUnits="userSpaceOnUse"><stop offset="0" stop-color="#48bdc5"/><stop offset=".52" stop-color="#168ea3"/><stop offset=".78" stop-color="#0c6b87"/><stop offset=".99" stop-color="#0c6b87"/></linearGradient></defs><path class="cls-7" d="m486.54,984s-61.42-116.6,64.98-128.17c126.39-11.57,173.57-43.61,157.55-96.13-16.02-52.52-149.54-46.29-219.85-34.71-70.32,11.57-160.22,21.36-187.81-17.8-27.59-39.16-90.79-164.67-97.02-210.06,0,0,27.02,209.17,115.43,243.44,88.41,34.27,200.56,12.02,262.86,8.46,62.31-3.56,109.48,8.9,102.36,31.15-7.12,22.25-42.72,43.61-110.37,31.15-67.65-12.46-152.21-8.01-157.55,62.31-5.34,70.32,69.43,110.37,69.43,110.37Z"/><path class="cls-4" d="m204.38,477.22s-18.25-196.53,0-202.03c18.25-5.5,495.34-44.66,546.97-22.41,51.63,22.25,103.25,301.74,86.34,340.02-16.91,38.27-18,67.76-125.61,84.62-107.6,16.85-379.67,40.11-406.97,0-27.3-40.11-72.25-145.59-86.49-273.76-14.24-128.17,322.22-124.61,422.8-124.61s131.46-14.8,146.73,193.76c0,0-17.67-149.26-54.16-159.05-36.49-9.79-243.89-5.34-315.1,0-71.21,5.34-185.14,22.25-180.69,92.57,4.45,70.32,47.18,251.01,86.34,260.8,39.16,9.79,427.25-10.68,454.84-56.97,27.59-46.29,31.15-85.45,21.36-162.89-9.79-77.44-32.04-169.12-54.3-174.46-22.25-5.34-357.82-16.02-493.12,30.26,0,0-64.98-2.4-48.96,174.15Z"/><path class="cls-4" d="m312.52,502.9c2.67,12.46,4.45,54.3,13.35,54.3s34.71,3.56,34.71-18.69-2.67-50.74-20.47-46.29c-17.8,4.45-27.59,9.79-22.25,9.79s27.11-8.01,28.69-4.9c1.57,3.12,11.37,44.06,6.02,48.51-5.34,4.45-24.03,8.9-25.81,3.56-1.78-5.34-14.24-46.29-14.24-46.29Z"/><path class="cls-4" d="m342.79,595.47c3.16,12.46,5.27,54.3,15.82,54.3s41.14,3.56,41.14-18.69-3.16-50.74-24.26-46.29c-21.1,4.45-32.7,9.79-26.37,9.79s32.14-8.01,34-4.9c1.87,3.12,13.47,44.06,7.14,48.51-6.33,4.45-28.48,8.9-30.59,3.56-2.11-5.34-16.88-46.29-16.88-46.29Z"/><path class="cls-4" d="m424.68,583.01c3.16,12.46,5.27,54.3,15.82,54.3s41.14,3.56,41.14-18.69-3.16-50.74-24.26-46.29c-21.1,4.45-32.7,9.79-26.37,9.79s32.14-8.01,34-4.9c1.87,3.12,13.47,44.06,7.14,48.51-6.33,4.45-28.48,8.9-30.59,3.56-2.11-5.34-16.88-46.29-16.88-46.29Z"/><path class="cls-4" d="m391.74,491.33c3.71,12.46,6.18,54.3,18.54,54.3s48.21,3.56,48.21-18.69-3.71-50.74-28.43-46.29c-24.73,4.45-38.32,9.79-30.91,9.79s37.66-8.01,39.85-4.9c2.19,3.12,15.79,44.06,8.37,48.51-7.42,4.45-33.38,8.9-35.85,3.56-2.47-5.34-19.78-46.29-19.78-46.29Z"/><path class="cls-4" d="m287.6,404.1c2.67,12.46,4.45,54.3,13.35,54.3s34.71,3.56,34.71-18.69-2.67-50.74-20.47-46.29c-17.8,4.45-27.59,9.79-22.25,9.79s27.11-8.01,28.69-4.9c1.57,3.12,11.37,44.06,6.02,48.51-5.34,4.45-24.03,8.9-25.81,3.56-1.78-5.34-14.24-46.29-14.24-46.29Z"/><path class="cls-4" d="m397.7,447.77c-2.77,0-5.38-.07-7.68-.13-1.77-.04-3.34-.08-4.65-.08-9.69,0-13.39-22.2-16.36-40.03-1.03-6.18-1.92-11.51-2.89-14.79l1.39-.5c.17.41,17.33,40.99,19.77,46.26.26.56.98,1.04,2.09,1.38,6.83,2.1,26.45-1.5,32.71-5.26.71-.43,1.22-1.36,1.52-2.78,2.27-10.71-8.48-42.34-10.12-44.67-1.07-1.52-14.89,1.12-23.15,2.7-6.76,1.29-13.15,2.51-16.09,2.51-.93,0-2.65,0-2.75-1.16-.29-3.28,24.11-8.4,33.53-10.1,7.03-1.26,12.9.02,17.44,3.81,7.98,6.67,11.86,20.81,11.86,43.2,0,4.71-1.57,8.64-4.68,11.66-7.09,6.91-20.84,7.98-31.94,7.98Zm-28.46-47.64c.39,2.19.8,4.6,1.22,7.15,2.73,16.37,6.46,38.8,14.9,38.8,1.32,0,2.91.04,4.69.09,11.27.28,30.15.77,38.56-7.43,2.81-2.74,4.23-6.3,4.23-10.61,0-21.93-3.71-35.69-11.33-42.07-4.19-3.5-9.65-4.68-16.23-3.49-17.91,3.22-29.05,6.74-31.77,8.31.19.01.43.02.73.02,2.81,0,9.13-1.21,15.82-2.48,14.32-2.73,23.13-4.24,24.63-2.1,2.18,3.11,12.67,34.92,10.35,45.82-.39,1.84-1.13,3.1-2.21,3.74-6.63,3.98-26.64,7.64-33.9,5.4-1.54-.47-2.55-1.2-3-2.17-1.8-3.9-11.59-26.95-16.69-38.99Z"/><path class="cls-4" d="m514.58,568.77c3.71,12.46,6.18,54.3,18.54,54.3s48.21,3.56,48.21-18.69-3.71-50.74-28.43-46.29c-24.73,4.45-38.32,9.79-30.91,9.79s37.66-8.01,39.85-4.9,15.79,44.06,8.37,48.51c-7.42,4.45-33.38,8.9-35.85,3.56-2.47-5.34-19.78-46.29-19.78-46.29Z"/><path class="cls-4" d="m469.18,376.51c3.71,12.46,6.18,54.3,18.54,54.3s48.21,3.56,48.21-18.69-3.71-50.74-28.43-46.29c-24.73,4.45-38.32,9.79-30.91,9.79s37.66-8.01,39.85-4.9c2.19,3.12,15.79,44.06,8.37,48.51-7.42,4.45-33.38,8.9-35.85,3.56-2.47-5.34-19.78-46.29-19.78-46.29Z"/><path class="cls-4" d="m608.04,552.75c3.71,12.46,6.18,54.3,18.54,54.3s48.21,3.56,48.21-18.69-3.71-50.74-28.43-46.29c-24.73,4.45-38.32,9.79-30.91,9.79s37.66-8.01,39.85-4.9c2.19,3.12,15.79,44.06,8.37,48.51-7.42,4.45-33.38,8.9-35.85,3.56-2.47-5.34-19.78-46.29-19.78-46.29Z"/><path class="cls-4" d="m710.4,539.39c3.71,12.46,6.18,54.3,18.54,54.3s48.21,3.56,48.21-18.69-3.71-50.74-28.43-46.29c-24.73,4.45-38.32,9.79-30.91,9.79s37.66-8.01,39.85-4.9,15.79,44.06,8.37,48.51c-7.42,4.45-33.38,8.9-35.85,3.56-2.47-5.34-19.78-46.29-19.78-46.29Z"/><path class="cls-4" d="m675.69,348.02c3.71,12.46,6.18,54.3,18.54,54.3s48.21,3.56,48.21-18.69-3.71-50.74-28.43-46.29c-24.73,4.45-38.32,9.79-30.91,9.79s37.66-8.01,39.85-4.9c2.19,3.12,15.79,44.06,8.37,48.51-7.42,4.45-33.38,8.9-35.85,3.56-2.47-5.34-19.78-46.29-19.78-46.29Z"/><path class="cls-4" d="m490.55,479.76c3.71,12.46,6.18,54.3,18.54,54.3s48.21,3.56,48.21-18.69-3.71-50.74-28.43-46.29c-24.73,4.45-38.32,9.79-30.91,9.79s37.66-8.01,39.85-4.9c2.19,3.12,15.79,44.06,8.37,48.51-7.42,4.45-33.38,8.9-35.85,3.56-2.47-5.34-19.78-46.29-19.78-46.29Z"/><path class="cls-4" d="m623.78,525.21c-2.77,0-5.38-.07-7.68-.13-1.77-.04-3.34-.08-4.65-.08-9.69,0-13.39-22.2-16.36-40.03-1.03-6.18-1.92-11.51-2.89-14.79l1.39-.5c.17.41,17.33,40.99,19.77,46.26.26.56.98,1.04,2.09,1.38,6.84,2.1,26.45-1.5,32.71-5.26.71-.43,1.22-1.36,1.52-2.78,2.28-10.72-8.48-42.34-10.12-44.67-1.07-1.52-14.89,1.12-23.15,2.7-6.76,1.29-13.15,2.51-16.09,2.51-.93,0-2.65,0-2.75-1.16-.29-3.28,24.11-8.4,33.53-10.1,7.04-1.27,12.9.02,17.44,3.81,7.98,6.67,11.86,20.81,11.86,43.2,0,4.71-1.57,8.64-4.68,11.66-7.09,6.91-20.84,7.98-31.95,7.98Zm-28.45-47.64c.39,2.19.79,4.6,1.22,7.15,2.73,16.38,6.46,38.8,14.9,38.8,1.32,0,2.91.04,4.69.09,11.28.29,30.15.77,38.56-7.43,2.81-2.74,4.23-6.31,4.23-10.61,0-21.93-3.71-35.69-11.33-42.07-4.19-3.5-9.65-4.68-16.23-3.49-17.91,3.22-29.05,6.74-31.77,8.31.19.01.43.02.73.02,2.81,0,9.13-1.21,15.82-2.48,14.32-2.73,23.13-4.24,24.63-2.1,2.18,3.11,12.67,34.92,10.35,45.82-.39,1.84-1.13,3.1-2.21,3.74-6.63,3.98-26.64,7.64-33.9,5.4-1.54-.47-2.55-1.2-3-2.17-1.8-3.9-11.59-26.95-16.69-38.99Z"/><path class="cls-4" d="m605.09,419.29c-2.77,0-5.38-.07-7.68-.13-1.77-.04-3.34-.08-4.65-.08-9.69,0-13.39-22.2-16.36-40.03-1.03-6.18-1.92-11.51-2.89-14.79l1.39-.5c.17.41,17.33,40.99,19.77,46.26.26.56.98,1.04,2.09,1.38,6.83,2.1,26.45-1.5,32.71-5.26.71-.43,1.22-1.36,1.52-2.79,2.28-10.72-8.48-42.34-10.12-44.67-1.07-1.52-14.89,1.12-23.15,2.7-6.76,1.29-13.15,2.51-16.09,2.51-.93,0-2.65,0-2.75-1.16-.29-3.28,24.11-8.4,33.53-10.1,7.04-1.26,12.9.02,17.44,3.81,7.98,6.67,11.86,20.81,11.86,43.2,0,4.71-1.57,8.64-4.68,11.66-7.09,6.91-20.84,7.98-31.94,7.98Zm-28.46-47.64c.39,2.19.79,4.6,1.22,7.15,2.73,16.38,6.46,38.8,14.9,38.8,1.32,0,2.91.04,4.69.09,11.28.29,30.15.77,38.56-7.43,2.81-2.74,4.23-6.3,4.23-10.61,0-21.93-3.71-35.69-11.33-42.07-4.19-3.5-9.65-4.68-16.23-3.49-17.91,3.22-29.05,6.74-31.77,8.31.19.01.43.02.73.02,2.81,0,9.13-1.21,15.82-2.48,14.32-2.73,23.13-4.24,24.63-2.1,2.18,3.11,12.67,34.92,10.35,45.82-.39,1.84-1.13,3.1-2.21,3.74-6.63,3.98-26.64,7.64-33.9,5.4-1.54-.47-2.55-1.2-3-2.17-1.8-3.9-11.59-26.95-16.69-38.99Z"/><path class="cls-4" d="m693.49,458.4c3.71,12.46,6.18,54.3,18.54,54.3s48.21,3.56,48.21-18.69-3.71-50.74-28.43-46.29c-24.73,4.45-38.32,9.79-30.91,9.79s37.66-8.01,39.85-4.9c2.19,3.12,15.79,44.06,8.37,48.51-7.42,4.45-33.38,8.9-35.85,3.56-2.47-5.34-19.78-46.29-19.78-46.29Z"/><path class="cls-5" d="m739.14,555.26c.17,5.66,8.89,7.22,3.89,8.89-5,1.67-10.56-4.44-10-12.78.56-8.33,11.11-12.22,21.11-5.56,10,6.67,10,25.56,5,30-5,4.44-26.67,6.67-32.78-1.67-6.11-8.33-7.22-23.89-2.78-26.67s2.22-3.33,3.33,10c1.11,13.33,13.51,11.83,21.34,10.78s6.16-9.39,5.61-12.72c-.56-3.33-15-9.45-14.72-.28Z"/><path class="cls-6" d="m515.73,495.8c.17,5.66,8.89,7.22,3.89,8.89-5,1.67-10.56-4.44-10-12.78.56-8.33,11.11-12.22,21.11-5.56,10,6.67,10,25.56,5,30-5,4.44-26.67,6.67-32.78-1.67-6.11-8.33-7.22-23.89-2.78-26.67,4.44-2.78,2.22-3.33,3.33,10,1.11,13.33,13.51,11.83,21.34,10.78,7.83-1.06,6.16-9.39,5.61-12.72-.56-3.33-15-9.45-14.72-.28Z"/><path class="cls-1" d="m368.51,394.41c-.83,9.14-4.59,32.12,6.12,35.94,10.71,3.82,41,11.47,43.44,0,2.44-11.47,7.5-37.7,0-42.94-7.5-5.24-17.44-9.83-25.85-2.94-8.41,6.88-9.18,27.53-1.53,28.29,7.65.76,11.47-5.35,6.12-9.18,0,0,13-6.88,11.47,9.94-1.53,16.82-30.59,12.23-29.06,6.88,1.53-5.35,3.82-27.53-1.53-31.35-5.35-3.82-8.41-3.06-9.18,5.35Z"/><path class="cls-5" d="m412.19,533.93s18.89-7.22,18.34-12.22c-.56-5-1.1-9.22-9.16-12.39-8.06-3.17-9.59-17.18-1.33-15.73,8.27,1.45,1.18,2.58,0,5.35-1.18,2.77,1.62,9.56,10.5,2.83,8.88-6.73-1.11-23.09-9.17-22.97-8.06.13-20.49,7.09-17.51,19.02,5,20,31.67,25,8.33,36.11Z"/><path class="cls-5" d="m490.34,420.39s18.89-7.22,18.34-12.22c-.56-5-1.1-9.22-9.16-12.39-8.06-3.17-9.59-17.18-1.33-15.73,8.27,1.45,1.18,2.58,0,5.35-1.18,2.77,1.62,9.56,10.5,2.83,8.88-6.73-1.11-23.09-9.17-22.97-8.06.13-20.49,7.09-17.51,19.02,5,20,31.67,25,8.33,36.11Z"/><path class="cls-5" d="m545.94,565.18s4.44,4.44-6.11,15.56c-10.56,11.11-9.45,32.23,5.56,28.89,15-3.33-2.59-13.44,1.48-27.84,4.07-14.39-.93-16.61-.93-16.61Z"/><path class="cls-4" d="m549.27,581.3s17.22,8.89,13.33,19.45c-3.89,10.56-9.88,2.28-12.16-6.36-2.28-8.64-1.17-13.09-1.17-13.09Z"/><path class="cls-5" d="m335.08,497.35s4.44,4.44-6.11,15.56c-10.56,11.11-9.45,32.23,5.56,28.89,15-3.33-2.59-13.44,1.48-27.84,4.07-14.39-.93-16.61-.93-16.61Z"/><path class="cls-4" d="m338.41,513.47s17.22,8.89,13.33,19.45c-3.89,10.56-9.88,2.28-12.16-6.36-2.28-8.64-1.17-13.09-1.17-13.09Z"/><polygon class="cls-6" points="594.3 371.9 565.97 373.57 595.97 389.12 604.66 425.39 612.64 389.68 640.97 374.68 615.97 371.9 603.47 336.76 594.3 371.9"/><path class="cls-6" d="m617.21,470.46c3.55,2.54-4.18,7.94-7.52,3.34-3.34-4.6-12.81-8.78-16.86-3.34-4.04,5.43,1.73,9.28,7.62,9.24,5.89-.04-2.47,2.05-6.23,3.3-3.76,1.25-11.7,6.4-5.85,12.19,5.85,5.79,13.37,2.99,18.18,0,4.81-2.99,11.08-5.5,17.77-2.99,6.69,2.51,24.28,12.73,34.92,6.36,10.64-6.36,1.86-14.31-.64-15.14-2.51-.84-7.11.42-9.61,0-2.51-.42-6.69-2.93-2.93-5.43,3.76-2.51,8.78-1.67,7.94-6.27-.84-4.6-7.94-6.69-10.45-5.02,0,0-3.34-14.21-16.72-11.29-13.38,2.93-12.54,12.96-9.61,15.05Z"/><path class="cls-4" d="m460.38,595.16c-7.57-5.85-15.74-7.77-28.75,2.93-4.09,3.36-11.6,9.89-1.61,17.55,9.99,7.67,29.66-2.93,32.18-5.95,2.52-3.03,5.75-8.68-1.82-14.53Zm-5.85,13.21c-5.65,2.93-10.66,6.15-17.54,0-6.87-6.15,1.6-10.29,6.44-11.4,4.84-1.11,9.78-.71,13.01,2.72,2.53,2.69,3.73,5.75-1.92,8.68Z"/><path class="cls-2" d="m443.44,596.97c-4.84,1.11-13.32,5.25-6.44,11.4,6.87,6.15,11.89,2.93,17.54,0,5.65-2.93,4.45-5.99,1.92-8.68-3.23-3.43-8.17-3.83-13.01-2.72Z"/><path class="cls-5" d="m444.21,597.99c-3.61.83-9.93,3.91-4.8,8.5,5.13,4.59,8.86,2.18,13.07,0s3.32-4.46,1.43-6.47c-2.41-2.56-6.09-2.86-9.7-2.03Z"/><path class="cls-2" d="m448.91,600.66c2.7,1.55,1.94,1.93,0,3.36-1.94,1.43-4.37.42-5.57-1.14-1.21-1.56,3.38-3.47,5.57-2.22Z"/><path class="cls-4" d="m749.16,460.88c-12.09-9.35-25.15-12.41-45.94,4.67-6.54,5.37-18.54,15.8-2.58,28.05,15.96,12.25,47.39-4.67,51.42-9.51,4.03-4.84,9.19-13.86-2.9-23.21Zm-9.35,21.12c-9.03,4.67-17.04,9.83-28.02,0-10.99-9.83,2.55-16.44,10.29-18.22,7.74-1.77,15.64-1.13,20.79,4.35,4.05,4.3,5.96,9.19-3.06,13.86Z"/><path class="cls-2" d="m722.08,463.78c-7.74,1.77-21.28,8.38-10.29,18.22,10.99,9.83,19,4.67,28.02,0,9.03-4.67,7.11-9.56,3.06-13.86-5.16-5.48-13.06-6.13-20.79-4.35Z"/><path class="cls-5" d="m723.32,465.41c-5.77,1.32-15.86,6.25-7.67,13.58,8.19,7.33,14.16,3.48,20.89,0,6.73-3.48,5.3-7.13,2.28-10.33-3.85-4.09-9.73-4.57-15.5-3.24Z"/><path class="cls-2" d="m730.82,469.67c4.32,2.47,3.1,3.08,0,5.37-3.1,2.28-6.98.68-8.91-1.82-1.93-2.5,5.4-5.55,8.91-3.54Z"/><path class="cls-3" d="m208.39,666.81c-30.6,6.95-45.93,28.07-44.65,61.24,1.28,33.17-8.93,44.65-37,43.38-28.07-1.28-70.17,6.38-70.17,35.72s42.1,28.07,57.41,14.03c15.31-14.03,56.82-24.24,61.58-7.65,4.76,16.59,18.4,61.39,84.3,38.99,65.9-22.4,18.7-47.92,23.8-60.68,5.1-12.76,24.24-19.14,33.17-8.93,8.93,10.21,53.58,25.52,47.21-11.48-6.38-37-34.45-47.21-52.31-44.65-17.86,2.55-24.24,25.52-3.83,26.79,20.41,1.28,19.14-10.21,19.14-10.21,0,0,19.14,30.62-3.83,26.79-22.96-3.83-38.27-6.38-35.72-43.38,2.55-37-22.96-72.72-79.1-59.96Z"/><path class="cls-6" d="m206.87,673.7c-27.83,6.33-41.77,25.53-40.61,55.7,1.16,30.17-8.12,40.61-33.65,39.45-25.53-1.16-63.82,5.8-63.82,32.49s38.29,25.53,52.22,12.76c13.92-12.76,51.68-22.05,56.01-6.96,4.33,15.08,16.73,55.84,76.67,35.46,59.94-20.38,17.01-43.58,21.65-55.19,4.64-11.6,22.05-17.41,30.17-8.12,8.12,9.28,48.74,23.21,42.93-10.44-5.8-33.65-31.33-42.93-47.58-40.61-16.25,2.32-22.05,23.21-3.48,24.37,18.57,1.16,17.41-9.28,17.41-9.28,0,0,17.41,27.85-3.48,24.37s-34.81-5.8-32.49-39.45c2.32-33.65-20.89-66.14-71.94-54.54Z"/><path class="cls-3" d="m194.59,565.54c4.16,11.34,23.08,18.43,14.15,38.08-8.93,19.65-11.48,21.89-35.72,21.41-24.24-.48-53.58,30.14-37,62.03,16.59,31.9,59.01,9.89,75.44-5.26,16.42-15.15,47.04-33.01,59.8-13.88,12.76,19.14,8.93,62.51,58.69,49.76,49.76-12.76,33.17-53.58,49.76-56.14,16.59-2.55,54.86-5.1,51.03-47.21-3.83-42.1-21.25-65.33-50.81-60.73-29.57,4.59-39.77,33.94-55.08,16.08-15.31-17.86-25.52-40.83-65.07-45.93-39.55-5.1-79.33,3.19-65.18,41.79Z"/><path class="cls-6" d="m620.98,165.83c17.89,12.78-21.05,40-37.9,16.84-16.84-23.16-64.53-44.21-84.9-16.84-20.37,27.37,8.69,46.72,38.37,46.52,29.68-.2-12.43,10.33-31.38,16.64-18.95,6.32-58.95,32.24-29.48,61.39,29.48,29.14,67.32,15.07,91.56,0,24.24-15.07,55.82-27.7,89.51-15.07,33.69,12.63,122.29,64.1,175.89,32.05,53.6-32.05,9.39-72.05-3.24-76.26-12.63-4.21-35.79,2.11-48.42,0-12.63-2.11-33.69-14.74-14.74-27.37,18.95-12.63,44.21-8.42,40-31.58s-40-33.69-52.64-25.27c0,0-16.84-71.58-84.22-56.85-67.37,14.74-63.16,65.27-48.42,75.8Z"/><path class="cls-5" d="m829.49,289.87c-6.35,18.51-12.82,46.56-37.01,30.9-24.19-15.65-106.73-22.77-123.81,19.92-17.08,42.69-1.42,91.08,51.23,79.69,52.66-11.38,65.46-24.19,83.96-2.85,18.5,21.35,68.25,40.41,71.84,13.8,3.59-26.61,3.55-48.99,14.24-47.76,10.7,1.23,23.5,12.61,44.85,24,21.35,11.38,69.73,21.35,82.54-24.19,12.81-45.54-2.85-59.77-21.35-71.16-18.5-11.38-28.46-7.12-45.54-9.96-17.08-2.85-2.85-15.65-18.5-28.46-15.65-12.81-81.1-46.15-102.46,16.06Z"/></svg>