<?xml version="1.0" encoding="UTF-8"?><svg id="Color1" xmlns="http://www.w3.org/2000/svg" xmlns:xlink="http://www.w3.org/1999/xlink" viewBox="0 0 1080 1137"><defs><style>.cls-1{fill:#011720;}.cls-2{fill:#03b184;}.cls-3{fill:#064862;}.cls-4{fill:#0c6b86;}.cls-5{fill:#48bcc4;}.cls-6{fill:url(#Degradado_sin_nombre_34);}</style><radialGradient id="Degradado_sin_nombre_34" cx="153.49" cy="-697.46" fx="153.49" fy="-697.46" r="258.65" gradientTransform="translate(324.5 1294.47) rotate(-14.71)" gradientUnits="userSpaceOnUse"><stop offset="0" stop-color="#48bdc5"/><stop offset=".52" stop-color="#168ea3"/><stop offset=".78" stop-color="#0c6b87"/><stop offset=".99" stop-color="#0c6b87"/></radialGradient></defs><path class="cls-5" d="m883.85,282.11s-15.07-16.91-41.71-5.56c-26.63,11.34-22.04,39.56-15.07,49.94,6.97,10.38,29.56,20.79,49.77,8.16,20.21-12.63,10.23-39.94-3.21-45.36-13.44-5.43-31.67-4.95-34.01,12.54-2.33,17.49,17.39,19.4,22.27,12.78,4.88-6.61,5.28-12.37-3.28-13.52,0,0,11.86-3.06,14.19,7.38,2.33,10.44-17.57,23.41-30.27,15.17-12.71-8.23-14.04-25.49-6.02-33.86,8.02-8.38,15.73-17.16,47.34-7.67Z"/><path class="cls-6" d="m550.54,807.55s6.57-71.2-25.23-66.01c-31.8,5.19-32.57,2.24-16.69-33.51,15.88-35.75,14.57-52.78-20.33-59.4-34.9-6.63-14.89-24.63,19.08-40.6,33.97-15.97,31.73-174.86-111.66-113.53-143.38,61.33-166.32,64.19-192.56,6.34-26.24-57.85,36.79-178.62,108.22-153.16,71.43,25.46,40.28,117.33,7.02,92.9-33.26-24.43,7.72-36.77,7.72-36.77,0,0-12.11-22.08-31.56-5.93-19.44,16.16-34.32,73.75,2.75,76.65,37.08,2.9,105.03-14.94,103.59-74.57-1.44-59.63-46.17-145.79-187.38-88.18-141.21,57.6-177.76,225.11-151.13,284.44,26.63,59.33,60.89,105.6,151.72,48.59,90.83-57.01,179.72-121.03,226.63-101.95,46.9,19.08,46.72,66.5,3.88,77.75-42.84,11.25-98.2,28.94-91.99,52.58,6.21,23.64,36.91,20.31,64.52,5.17,27.61-15.14,69.58-5.64,59.46,15.97-10.12,21.61-54.36,39.54-43.34,63.49,11.03,23.95,57.67,21.18,74.86,2.45,17.19-18.73,42.42,47.29,42.42,47.29Z"/><path class="cls-1" d="m661.41,739.51s-22.79-41.14-2.27-46.43c20.52-5.28,20.21-7.27,1.19-24.6-19.02-17.33-22.73-27.93-3.47-41.15,19.26-13.22,2.45-18.77-22.23-19.4-24.68-.63-65.36-96.91,37.21-97.9,102.57-.99,117.14-5.33,117.64-47.11.5-41.78-69.4-97.84-105.68-63.61-36.28,34.23,6.78,81.31,20.34,57.8,13.57-23.51-14.37-20.1-14.37-20.1,0,0,1.45-16.5,17.44-11.92,15.98,4.59,40.18,35.34,18.61,46.89-21.56,11.55-67.2,18.78-82.11-17.51-14.9-36.29-10.75-100.01,89.52-102.67,100.27-2.66,166.59,88.55,166.24,131.32-.34,42.77-8.74,79.7-78.51,69.39-69.78-10.31-140.24-25.35-163.44-1.45-23.2,23.89-10.55,52.4,18.23,47.85,28.77-4.56,66.79-8.55,69.31,7.33,2.51,15.88-16.86,22-37.49,20.18-20.63-1.82-43.39,15.01-31.58,25.34,11.81,10.33,43.19,9.43,42.89,26.77s-29.13,28.01-44.43,21.28c-15.31-6.73-13.04,39.7-13.04,39.7Z"/><polygon class="cls-5" points="149.25 172.65 145.63 148.03 158.12 167.48 177.87 158.32 162.04 174.7 163.86 202.33 153.33 179.53 130.01 181.68 149.25 172.65"/><polygon class="cls-3" points="275.41 701.43 268.27 678.49 283.09 695.17 300.56 683.47 287.91 701.46 293.79 727.55 280.33 707.38 258.4 712.92 275.41 701.43"/><polygon class="cls-5" points="797.44 607.07 803.52 589.31 805.17 606.67 821.58 607.35 805.3 612.86 796.97 632.02 797.79 613.09 781.41 606.47 797.44 607.07"/><path class="cls-2" d="m459.39,857.77c1.65,9.83,4.04,35.02,16.34,36.08,12.31,1.06,46.25.74,45.65-11.99-.6-12.73-2.52-41.69-11.85-45.12-9.33-3.43-21.04-5.51-27.98,4.04-6.94,9.55-2.05,31.46,6.2,30.15,8.25-1.31,10.58-8.79,3.9-11.33,0,0,11.76-10.82,14.8,7.28,3.03,18.1-28.77,21.3-28.64,15.25.13-6.05-3.58-29.98-10.26-32.53-6.68-2.54-9.68-.89-8.17,8.16Z"/><path class="cls-5" d="m559.93,632.62s6.18,79.95,24.31,62c18.13-17.95,7.94-95.35.75-145.1-7.19-49.74-18.44-62.61-38.71-85.76-20.26-23.15-6.86-25.79,7.02-72.77,13.88-46.98,21.05-67.53-10.89-74.08-31.94-6.55-42.46-7.1-16.24-30.47,26.21-23.37,95.57-46.21,95.25-114.07s-92.31-32.8-111.17-28.4c-18.87,4.4-39.56-12.33,5.89-39.99,45.45-27.66,89.94-16.62,69.57-38.17-20.37-21.55-176.19,67.63-158.1,102.65,18.1,35.02,88.13-14.69,123.54-16.64,35.42-1.95,61.79,14.34,23.84,50.58-37.95,36.24-143.01,73.66-120.28,108.29,22.73,34.63,31.63,22.3,53.6,19.72,21.98-2.57,40.42,11.58,13.4,41.27-27.01,29.7-42.77,60.15-17.04,86.09,25.73,25.94,54.46,18.97,50.71,75.25-3.75,56.28,4.53,99.61,4.53,99.61Z"/><path class="cls-3" d="m656.48,333.51s29.83-49.65,22.83-106.51c-7.01-56.87,1.87-118.06,39.85-136.33,37.97-18.28,89.48-25.19,90.72,1.32,1.24,26.51-32.95,65.83-53.85,41.45-20.9-24.38,31.41-30.63,7.8-44.99-23.61-14.35-42.12,39.17-18.89,56.63,23.23,17.46,68.14,10.13,80.01-27.31,11.87-37.44,6.31-58.58-26.54-63.94-32.85-5.35-80.82-3.52-125.94,72.04-45.12,75.56-17.58,107.04-16.57,140.68,1.01,33.64.36,66.76.59,66.97Z"/><path class="cls-2" d="m674.02,321.26s33.01-27.33,54.05-45.59c21.04-18.25,35.7-32.31,34.29-61.05-1.41-28.73-15.66-30.67-31.82-22.44-16.16,8.22-17.4,38.66-4.84,32.49,12.57-6.17,9.7-21.71,9.7-21.71,0,0,17.13,6,16.4,9.1-.73,3.1-3.34,40.15-27.3,35.78-23.96-4.37-38.33-37.58-6.36-73.67,31.98-36.09,73.46,13.34,57.34,51.85-16.12,38.51-44.71,78.29-101.47,95.25Z"/><path class="cls-1" d="m664.73,705.37s7.47,15.57,1.51,24.79l8.38-1.45s-7.59-18.1-9.89-23.34Z"/><path class="cls-1" d="m672.16,700.09s9.15,20.53,8.78,27.12c0,0,7.62-.51,8.03-2.37,0,0-6.83-24.04-9.5-28.25l-7.31,3.5Z"/><path class="cls-1" d="m679.47,696.6l10.72-5.65s-8.15-12.64-14.86-15.83l-6.58,2.4s8,12.63,10.72,19.08Z"/><path class="cls-1" d="m690.19,690.94l11.4-7.45s6.91,27.39,11.61,31.22l-15.43,5.62s-1.39-21.06-7.57-29.4Z"/><path class="cls-1" d="m701.58,683.5s-7.82-15.93-8.14-18.22l-.21-4.63,16.23,17.41-7.88,5.44Z"/><path class="cls-1" d="m709.46,678.05l3.52-3.55s4.3,26.95,10.22,35.23l-.89,1.48s-12.15-25.21-12.85-33.16Z"/><path class="cls-1" d="m674.63,728.71l6.31-1.5s2.31,12,3.81,16.46c1.5,4.46,4.83,16.88,4.2,20.9,0,0-11.29.8-13.44-.79,0,0,2.05-23.99-.88-35.07Z"/><path class="cls-1" d="m688.97,724.85l8.79-4.51s7.75,31.1,13.85,41.03c0,0-8.17,4.23-14.14,2.34,0,0-1.42-23.38-8.5-38.86Z"/><path class="cls-1" d="m739.19,756.12s-24.41-24.93-26-41.4l9.12-3.51s29.97,37.3,36.71,38.25c0,0-11.98,7.59-19.83,6.66Z"/><path class="cls-1" d="m711.62,761.37l27.57-5.25s35.94,27.87,57.59,29.91c0,0-31.62,1.69-48.49,11.27,0,0-23.87-7.54-29.14-18.73-5.27-11.19-7.53-17.2-7.53-17.2Z"/><path class="cls-1" d="m703.09,805.54s-9.39,2.43-20.06-.29c0,0,10.1-19.73,5.91-40.68l8.53-.86s4.81,19.42,5.62,41.83Z"/><path class="cls-1" d="m665.01,803.11s-14.64.87-24.97-10.06c0,0,20.46-24.9,20.44-35.03,0,0,7.18,4.82,15.03,5.75,0,0,3.23,16.58-10.49,39.33Z"/><path class="cls-1" d="m665.01,803.11s6.99,2.48,18.02,2.14c0,0-10.92,28.34-7.89,35.14,0,0-14.47.59-24.34,3.13s-21.91,5.39-28.17,2.32c0,0,17.35-17.86,26.98-25.18s15.4-17.54,15.4-17.54Z"/><path class="cls-1" d="m703.09,805.54s31.03-2.7,45.19-8.23c0,0,6.22,4.13,17.97,4.24,11.76.11,22.69,3.39,22.69,3.39,0,0-17.18,6.15-32.93,12.48-15.75,6.33-43.31,14.56-46.47,14.14l-6.45-26.02Z"/><path class="cls-1" d="m622.64,845.83s-17.14-1.62-15.05-15.88c0,0-25.51,8.44-37.73,30.71,0,0-.54,23.43,45.25,18.74,0,0-7.04-24.33,7.53-33.56Z"/><path class="cls-1" d="m675.15,840.38s-2.8,20.87,20.87,30.3l30.13-14.13s-10.17,1.02-16.62-25c0,0-20.32,7.53-34.39,8.83Z"/><path class="cls-1" d="m696.03,870.69s-51.73,16.06-80.92,8.71c0,0,18.46,16.12,39.66,22.27s29.01,10.96,29.01,10.96c0,0,43.86-8.49,54.08-15.65,0,0-25.09-12.76-41.84-26.29Z"/><path class="cls-1" d="m683.78,912.62s-41.69,7.73-73.11,2.14c0,0,43.44,14.96,64.65,14.51,21.22-.45,47.57,9.64,47.06,18.13,0,0,22.21-4.62,21.8-6.02-.41-1.4-23.52-18.54-60.4-28.76Z"/><path class="cls-1" d="m610.67,914.76s-47.52-18.05-41.68-50.24c0,0-14.64,9.08-2.83,27.84,11.82,18.75,44.51,22.41,44.51,22.41Z"/><path class="cls-1" d="m787.98,923.18l-50.12-26.2,28.08-13.7s35.91,25.23,43.96,27.34c0,0-9.55,6.39-21.92,12.56Z"/><path class="cls-1" d="m787.98,923.18s-22,12.19-43.8,18.21c0,0,47.2,29.84,20.48,38.99,0,0,56.41,8.91,63.47,4.66,0,0-7.58-3.37-4.99-18.62,2.59-15.26-18.09-34.45-35.16-43.23Z"/><path class="cls-1" d="m764.66,980.37s-7.17-3.69-22.14-2.6-23.35-.66-31.87-10c0,0-28.66,45.25,71.09,68.37,99.76,23.12,184.49,14.38,242.26,28.16,0,0-75.75-28.27-136.37-35.48-60.62-7.21-158.52-30.86-122.98-48.44Z"/><path class="cls-1" d="m828.13,985.03s44.19,9.22,64.75,8c0,0,11.14,24.58,42.81,25.23s66.65,3.36,80.26,10.79c0,0-68.81-9.12-94.45-8.76-25.64.36-96.24-19.38-93.36-35.26Z"/><path class="cls-1" d="m765.95,883.27s-23.14-1.58-39.79-26.71c0,0,60.23-32.68,90.07-27.34,0,0-18.67,24.67,10.48,29.72,0,0-10.52,2.26-60.76,24.33Z"/><path class="cls-1" d="m788.95,804.94s14.04,2.46,22.71,2.18,13.83,4.24,10.09,9.64c-3.74,5.4-5.52,12.47-5.52,12.47,0,0,28.31-1.67,35.75.56,0,0-6.87-10.97,3.06-13.62,9.92-2.64,45.34-9.42,46.52-12.21,0,0-49.22-14.66-112.61.98Z"/><path class="cls-4" d="m304.31,149.85s10.76,9.32-11.29,36.12c-22.04,26.8-16.12,74.31,17.22,64.35,33.34-9.95-8.02-29.95-1.15-63.1,6.87-33.16-4.78-37.37-4.78-37.37Z"/><path class="cls-3" d="m314.44,185.7s40.34,17.29,33.26,41.76c-7.08,24.47-21.95,6.74-28.5-12.4-6.55-19.14-4.76-29.36-4.76-29.36Z"/></svg>