<?xml version="1.0" encoding="UTF-8"?><svg id="Color1" xmlns="http://www.w3.org/2000/svg" xmlns:xlink="http://www.w3.org/1999/xlink" viewBox="0 0 1080 1137"><defs><style>.cls-1{fill:#011720;}.cls-2{fill:#03b184;}.cls-3{fill:#064862;}.cls-4{fill:#0c6b86;}.cls-5{fill:#48bcc4;}.cls-6{fill:none;stroke:#011720;stroke-miterlimit:10;stroke-width:2px;}.cls-7{fill:url(#Degradado_sin_nombre_34);}</style><radialGradient id="Degradado_sin_nombre_34" cx="44.09" cy="510.15" fx="44.09" fy="510.15" r="632.99" gradientUnits="userSpaceOnUse"><stop offset="0" stop-color="#48bdc5"/><stop offset=".52" stop-color="#168ea3"/><stop offset=".78" stop-color="#0c6b87"/><stop offset=".99" stop-color="#0c6b87"/></radialGradient></defs><path class="cls-1" d="m748.34,674.87s27.75,18.35,56.93,20.38c0,0,36.22-34.18,38.28-39.71l-42.07-30.64-53.13,49.97Z"/><path class="cls-1" d="m909.12,707.72l41.95-50.76,77.19-7.89s-27.02,57.4-58.63,77.84l-60.49-19.56-.02.37Z"/><path class="cls-1" d="m909.14,707.35s-95.02-6.06-103.87-12.1c0,0-69.38,57.34-88.41,59.28l89.62,31.84s93.49-52.16,102.66-79.02Z"/><path class="cls-1" d="m748.34,674.87s-51.1,61.05-102.81,68.47l-79.62-15.69s101.84-46.36,117.9-66.43l64.53,13.65Z"/><polygon class="cls-1" points="645.54 743.34 716.86 754.52 619.82 822.67 545.28 806.78 645.54 743.34"/><path class="cls-1" d="m565.91,727.65s-72.31,30.45-130.56,38.37l-97.84-39.57,151.95-25.87,76.45,27.07Z"/><path class="cls-1" d="m692.87,845.83l-73.05-23.17-123.34,55.8,69.94,54.2s69.97-71.25,126.45-86.83Z"/><path class="cls-1" d="m545.28,806.78l-109.93-40.77s-74.79,29.47-152.87,26.36l140.63,60.5s93.28-52.27,122.17-46.09Z"/><polygon class="cls-1" points="423.11 852.88 496.49 878.46 330.68 934.2 263.61 897.77 423.11 852.88"/><path class="cls-1" d="m263.61,897.77l-97.66,31.97s-47.82-50.37-46.68-78.06l95.7-21.45,48.64,67.54Z"/><path class="cls-1" d="m214.97,830.23l-48.19-60.49s55.79-46.13,118.84-34.57l47.48,71.77-118.13,23.29Z"/><path class="cls-1" d="m566.42,932.66l103.96,37.97s-95.78,107.76-234.28,40.99l130.31-78.96Z"/><path class="cls-7" d="m876.14,319.95s-16.99-206.35-80.86-234.86c-23.13-10.33-640.99,93.66-699.28,140.4-58.3,46.74-25.76,423.12,9.43,466.19,35.19,43.07,47,80.47,190.83,64.08,143.83-16.4,500.67-82.66,521.49-143.7,20.82-61.04,41.18-212.07,14.16-381.35-27.01-169.27-456.9-45.9-585.78-10.39-128.89,35.52-173.69,27.46-119.6,300.1,0,0-30.07-197.5,13.24-222.93,43.31-25.43,310.64-92.96,403.77-111.26,93.13-18.3,245.1-36.86,264.23,54.82,19.13,91.68,28.18,338.3-18.55,364.68-46.73,26.38-551.25,137.18-602.96,87.61-51.7-49.57-70.09-98.5-84.89-201.18-14.8-102.69-18.66-228.03,7.97-242.73,26.63-14.7,452.86-146.88,642.57-135.34,0,0,81.01,13.21,124.23,205.87Z"/><path class="cls-1" d="m153.69,395.68c166.07-33.68,331.9-69.2,499.18-96.39,24.23-3.75,53.18-7.94,77.54-10.72,12.95-1.59,25.98-2.66,38.98-3.66,0,0,.06.7.06.7l-9.67,1.49c-9.49,1.33-19.59,2.92-28.94,4.63-64.02,10.86-128.43,23.34-192.39,34.32-128.11,21.45-258.04,47.99-384.78,69.62h0Z"/><path class="cls-1" d="m168.52,496.05c166.07-33.68,331.9-69.2,499.18-96.39,24.23-3.75,53.18-7.94,77.54-10.72,12.94-1.59,25.98-2.66,38.98-3.66l.06.7-9.67,1.49c-9.49,1.33-19.59,2.92-28.94,4.63-64.02,10.86-128.43,23.34-192.39,34.32-128.11,21.45-258.04,47.99-384.78,69.62h0Z"/><path class="cls-1" d="m171.94,595.28c166.07-33.68,331.9-69.2,499.18-96.39,24.23-3.75,53.18-7.94,77.54-10.72,12.95-1.59,25.98-2.66,38.98-3.66,0,0,.06.7.06.7,0,0-9.67,1.49-9.67,1.49-9.49,1.33-19.59,2.92-28.94,4.63-64.02,10.86-128.43,23.34-192.39,34.32-128.11,21.45-258.04,47.99-384.78,69.62h0Z"/><path class="cls-4" d="m699.27,397.94s5.17,19.52-16.35,33.75c-21.52,14.23-40.25-3.05-44.54-13.33-4.29-10.28-.94-32.19,18.39-41.02,19.32-8.83,34.72,12.01,32.15,24.68-2.57,12.66-11.88,25.98-26.03,19.13-14.15-6.86-5.88-22.46,1.44-22.84,7.32-.38,11.8,2.15,8.44,9.08,0,0,8.1-7.32,1.48-14.18-6.62-6.86-26.04,1.56-26.16,15.06s12.05,22.96,22.22,21.11c10.17-1.85,20.49-3.27,28.96-31.44Z"/><path class="cls-4" d="m294.36,460.67s5.17,19.52-16.35,33.75c-21.52,14.23-40.25-3.05-44.54-13.33-4.29-10.28-.94-32.19,18.39-41.02,19.32-8.83,34.72,12.01,32.15,24.68-2.57,12.66-11.88,25.98-26.03,19.13-14.15-6.86-5.88-22.46,1.44-22.84,7.32-.38,11.8,2.15,8.44,9.08,0,0,8.1-7.32,1.48-14.18-6.62-6.86-26.04,1.56-26.16,15.06-.12,13.49,12.05,22.96,22.22,21.11,10.17-1.85,20.49-3.27,28.96-31.44Z"/><path class="cls-4" d="m773.41,384.25s5.17,19.52-16.35,33.75c-21.52,14.23-40.25-3.05-44.54-13.33-4.29-10.28-.94-32.19,18.39-41.02,19.32-8.83,34.72,12.01,32.15,24.68-2.57,12.66-11.88,25.98-26.03,19.13-14.15-6.86-5.88-22.46,1.44-22.84,7.32-.38,11.8,2.15,8.44,9.08,0,0,8.1-7.32,1.48-14.18-6.62-6.86-26.04,1.56-26.16,15.06-.12,13.49,12.05,22.96,22.22,21.11,10.17-1.85,20.49-3.27,28.96-31.44Z"/><path class="cls-5" d="m520.12,316.39s12.46-6.8,10.11-32.2c0,0,5.38,24.99,12.59,25.06,0,0,18.07,3.76,25.84.67,0,0-31.77,16.57-31.1,21.62.67,5.05-1.62,34.15-3.64,34.42-2.02.27-3.89-29.21-11.57-32.86,0,0-19.74-9.24-26.95-9.31l24.72-7.4Z"/><path class="cls-5" d="m598.82,301.56s12.46-6.8,10.11-32.2c0,0,5.38,24.99,12.59,25.06,0,0,18.07,3.76,25.84.67,0,0-31.77,16.57-31.1,21.62.67,5.05-1.62,34.15-3.64,34.42-2.02.27-3.89-29.21-11.57-32.86,0,0-19.74-9.24-26.95-9.31l24.72-7.4Z"/><path class="cls-5" d="m675.24,286.73s12.46-6.8,10.11-32.2c0,0,5.38,24.99,12.59,25.06,0,0,18.07,3.76,25.84.67,0,0-31.77,16.57-31.1,21.62.67,5.05-1.62,34.15-3.64,34.42-2.02.27-3.89-29.21-11.57-32.86,0,0-19.74-9.24-26.95-9.31l24.72-7.4Z"/><path class="cls-2" d="m236.77,553.86c-.86,9.48-4.76,33.33,6.35,37.3,11.11,3.97,42.54,11.9,45.08,0,2.53-11.9,7.78-39.12,0-44.56-7.78-5.43-18.1-10.2-26.83-3.05-8.73,7.14-9.52,28.57-1.59,29.36,7.94.79,11.9-5.55,6.35-9.52,0,0,13.49-7.14,11.9,10.32-1.59,17.46-31.74,12.7-30.15,7.14,1.59-5.55,3.97-28.57-1.59-32.53-5.55-3.97-8.73-3.17-9.52,5.55Z"/><path class="cls-2" d="m309.77,545.87c-.86,9.48-4.76,33.33,6.35,37.3,11.11,3.97,42.54,11.9,45.08,0,2.53-11.9,7.78-39.12,0-44.56-7.78-5.43-18.1-10.2-26.83-3.05-8.73,7.14-9.52,28.57-1.59,29.36,7.94.79,11.9-5.55,6.35-9.52,0,0,13.49-7.14,11.9,10.32-1.59,17.46-31.74,12.7-30.15,7.14,1.59-5.55,3.97-28.57-1.59-32.53-5.55-3.97-8.73-3.17-9.52,5.55Z"/><path class="cls-2" d="m380.48,531.04c-.86,9.48-4.76,33.33,6.35,37.3,11.11,3.97,42.54,11.9,45.08,0,2.53-11.9,7.78-39.12,0-44.56-7.78-5.43-18.1-10.2-26.83-3.05-8.73,7.14-9.52,28.57-1.59,29.36,7.94.79,11.9-5.55,6.35-9.52,0,0,13.49-7.14,11.9,10.32-1.59,17.46-31.74,12.7-30.15,7.14,1.59-5.55,3.97-28.57-1.59-32.53-5.55-3.97-8.73-3.17-9.52,5.55Z"/><path class="cls-3" d="m828.84,625.43s58.84-164.12,24.82-339.95c0,0,90.35,301.75,59.83,324.93-30.52,23.18-84.65,15.02-84.65,15.02Z"/><path class="cls-6" d="m699.3,398.17s5.17,19.52-16.35,33.75c-21.52,14.23-40.25-3.05-44.54-13.33-4.29-10.28-.94-32.19,18.39-41.02,19.32-8.83,34.72,12.01,32.15,24.68-2.57,12.66-11.88,25.98-26.03,19.13-14.15-6.86-5.88-22.46,1.44-22.84,7.32-.38,11.8,2.15,8.44,9.08,0,0,8.1-7.32,1.48-14.18-6.62-6.86-26.04,1.56-26.16,15.06s12.05,22.96,22.22,21.11c10.17-1.85,20.49-3.27,28.96-31.44Z"/><path class="cls-6" d="m773.3,384.17s5.17,19.52-16.35,33.75c-21.52,14.23-40.25-3.05-44.54-13.33-4.29-10.28-.94-32.19,18.39-41.02,19.32-8.83,34.72,12.01,32.15,24.68-2.57,12.66-11.88,25.98-26.03,19.13-14.15-6.86-5.88-22.46,1.44-22.84,7.32-.38,11.8,2.15,8.44,9.08,0,0,8.1-7.32,1.48-14.18-6.62-6.86-26.04,1.56-26.16,15.06s12.05,22.96,22.22,21.11c10.17-1.85,20.49-3.27,28.96-31.44Z"/><path class="cls-6" d="m294.3,460.17s5.17,19.52-16.35,33.75c-21.52,14.23-40.25-3.05-44.54-13.33-4.29-10.28-.94-32.19,18.39-41.02,19.32-8.83,34.72,12.01,32.15,24.68-2.57,12.66-11.88,25.98-26.03,19.13-14.15-6.86-5.88-22.46,1.44-22.84,7.32-.38,11.8,2.15,8.44,9.08,0,0,8.1-7.32,1.48-14.18-6.62-6.86-26.04,1.56-26.16,15.06s12.05,22.96,22.22,21.11c10.17-1.85,20.49-3.27,28.96-31.44Z"/><path class="cls-6" d="m520.14,316.62s12.46-6.8,10.11-32.2c0,0,5.38,24.99,12.59,25.06,0,0,18.07,3.76,25.84.67,0,0-31.77,16.57-31.1,21.62.67,5.05-1.62,34.15-3.64,34.42-2.02.27-3.89-29.21-11.57-32.86,0,0-19.74-9.24-26.95-9.31l24.72-7.4Z"/><path class="cls-6" d="m598.84,301.79s12.46-6.8,10.11-32.2c0,0,5.38,24.99,12.59,25.06,0,0,18.07,3.76,25.84.67,0,0-31.77,16.57-31.1,21.62.67,5.05-1.62,34.15-3.64,34.42-2.02.27-3.89-29.21-11.57-32.86,0,0-19.74-9.24-26.95-9.31l24.72-7.4Z"/><path class="cls-6" d="m675.26,286.96s12.46-6.8,10.11-32.2c0,0,5.38,24.99,12.59,25.06,0,0,18.07,3.76,25.84.67,0,0-31.77,16.57-31.1,21.62.67,5.05-1.62,34.15-3.64,34.42-2.02.27-3.89-29.21-11.57-32.86,0,0-19.74-9.24-26.95-9.31l24.72-7.4Z"/><path class="cls-6" d="m309.79,546.1c-.86,9.48-4.76,33.33,6.35,37.3,11.11,3.97,42.54,11.9,45.08,0,2.53-11.9,7.78-39.12,0-44.56-7.78-5.43-18.1-10.2-26.83-3.05-8.73,7.14-9.52,28.57-1.59,29.36,7.94.79,11.9-5.55,6.35-9.52,0,0,13.49-7.14,11.9,10.32-1.59,17.46-31.74,12.7-30.15,7.14,1.59-5.55,3.97-28.57-1.59-32.53-5.55-3.97-8.73-3.17-9.52,5.55Z"/><path class="cls-6" d="m236.79,554.1c-.86,9.48-4.76,33.33,6.35,37.3,11.11,3.97,42.54,11.9,45.08,0,2.53-11.9,7.78-39.12,0-44.56-7.78-5.43-18.1-10.2-26.83-3.05-8.73,7.14-9.52,28.57-1.59,29.36,7.94.79,11.9-5.55,6.35-9.52,0,0,13.49-7.14,11.9,10.32-1.59,17.46-31.74,12.7-30.15,7.14,1.59-5.55,3.97-28.57-1.59-32.53-5.55-3.97-8.73-3.17-9.52,5.55Z"/><path class="cls-6" d="m380.79,531.1c-.86,9.48-4.76,33.33,6.35,37.3,11.11,3.97,42.54,11.9,45.08,0,2.53-11.9,7.78-39.12,0-44.56-7.78-5.43-18.1-10.2-26.83-3.05-8.73,7.14-9.52,28.57-1.59,29.36,7.94.79,11.9-5.55,6.35-9.52,0,0,13.49-7.14,11.9,10.32-1.59,17.46-31.74,12.7-30.15,7.14,1.59-5.55,3.97-28.57-1.59-32.53-5.55-3.97-8.73-3.17-9.52,5.55Z"/></svg>