<?xml version="1.0" encoding="UTF-8"?><svg id="Color1" xmlns="http://www.w3.org/2000/svg" xmlns:xlink="http://www.w3.org/1999/xlink" viewBox="0 0 1080 1137"><defs><style>.cls-1{fill:#011720;}.cls-2{fill:#03b083;}.cls-3{fill:#064862;}.cls-4{fill:#0c6b86;}.cls-5{fill:#48bcc4;}.cls-6{fill:url(#Degradado_sin_nombre_34);}.cls-7{stroke:#011720;}.cls-7,.cls-8{fill:none;stroke-miterlimit:10;}.cls-8{stroke:#fff;}</style><radialGradient id="Degradado_sin_nombre_34" cx="637.8" cy="685.47" fx="637.8" fy="685.47" r="263.22" gradientUnits="userSpaceOnUse"><stop offset="0" stop-color="#48bdc5"/><stop offset=".52" stop-color="#168ea3"/><stop offset=".78" stop-color="#0c6b87"/><stop offset=".99" stop-color="#0c6b87"/></radialGradient></defs><path class="cls-8" d="m393.47,288.56s18.94,45.84,44.91,55.65"/><path class="cls-8" d="m313.28,328.93s-4.94,51.33,65.9,65.96"/><path class="cls-8" d="m119.16,582.1s34.27,64.87,102.88,52.7c68.61-12.18,105.64-24.67,120.25-25.59"/><path class="cls-8" d="m161.64,484.44s9.77,39.75,54.62,43.75c44.85,4,77.12-45.32,125.45-21.56"/><path class="cls-8" d="m242.96,374.28s.47,53.67,42.44,52.96c41.97-.7,75.77,25.49,75.77,25.49"/><path class="cls-6" d="m760.39,394.89s32.74,30.31,21.34,73.99c-11.4,43.68-20.19,70.4-54.56,99.04-34.37,28.64-69.04,96.43-34.54,124.58,34.5,28.15,53.26,101.77-3.69,125.34-56.95,23.57-154.83,141.67-280.82,123.84-35.61-5.04,255.9,141.44,405.71-134.69,104.1-191.89,51.96-367.4-53.44-412.1Z"/><path class="cls-4" d="m441.48,596.86c-8.62,25.54-105.93,334.05-95.55,338.94,10.38,4.88,232.52-223.32,234.34-254.16,1.82-30.84-83.11-68.72-91.23-60.97-8.12,7.74-64.11,167.69-54.4,175.61,9.7,7.92,76.08-69.02,75.09-78.81-.99-9.79-20.77-28.32-22.38-20.36-1.62,7.96,3.12,35.17-5.01,33.03-8.13-2.14-10.25-31.87,2.61-56.77,12.85-24.9,44.34,22.34,44.74,26.26.4,3.92-47.37,88.86-100.5,111.05-53.13,22.19,44.8-182.55,37.34-197.62-7.46-15.07-20.23-30.46-25.04-16.19Z"/><path class="cls-2" d="m605.25,580.27c-1.99,14.4,4.74,18.74-20.53,13.39-25.27-5.35-78.07-28.68-119.51-57.12-41.45-28.44-64.12-53.79-37.51-75.79,26.61-22,277.96-225.47,293.53-218.15,15.58,7.32-22.34,320.82-39,329.87-16.66,9.04-96.43-22.83-96.18-49.11.25-26.28,111.8-223.5,109.75-224.28-2.06-.78-198.04,163.46-210.84,183.55-12.8,20.09-21.51,21.96,2.29,32.4,23.8,10.44,120.07,50.26,117.99,65.24Z"/><path class="cls-3" d="m788.28,622.57s27.32,13.83-3.13,31.63c-30.45,17.79-36.11-38.04-23.93-49.67,12.18-11.62,28.95-23.71,58.13-5.89,29.18,17.83,28.53,84.69-5.84,97.08-34.37,12.39-93.76-2.38-101.14-31.32-7.38-28.94,4.62-74.81,34.66-77.05s-12.64,12.1-13.31,29.42c-.67,17.33,4.8,42.01,30.67,48.29,25.87,6.29,46.14,1.26,44.51-14.9-1.64-16.16-8.13-36.29-20.61-27.6Z"/><path class="cls-5" d="m830.77,813.79s-41.55-5.03-67.58,13.1c-26.03,18.14-51.96,43.52-66.57,62.85-14.6,19.34-43.65,46.92-68.98,33.91-25.33-13.02-19.69-40.33-6.53-46.77,13.16-6.44,41.33-9.08,42.13-.72s-4.38,16.08-14.63,8.67c-10.24-7.41-19.29-16.83-20.26-2.69s4.61,27.72,18.28,25.44c13.68-2.28,53.79-13.04,40.6-49.5-13.19-36.46-66.03-3.4-80.99,14.76-14.96,18.16-30.74,34.36-23.95,56.61,6.79,22.25,38.13,30.4,48.5,30.79,10.37.39,41.12-.95,72.9-37.07,31.79-36.11,46.24-53.97,50.96-62.36,4.72-8.39,30.86-48,76.12-47.02Z"/><path class="cls-1" d="m396.64,295.48s8.27,17.3,11.13,20.91c0,0,86.16-42.62,172.54-23.09,0,0-97.38-34.87-183.67,2.18Z"/><path class="cls-1" d="m407.77,316.39s5.37,7.15,10.38,12.54c0,0-56.34,43.73-66.85,56.79,0,0-18.94-6.61-26.36-20.95,0,0,44.16-34.09,82.83-48.39Z"/><path class="cls-1" d="m324.94,364.77s-38.46,29.01-59.65,57.47c0,0-16.01-4.56-19.5-29.23,0,0,39.05-39.21,68.82-57.01,0,0-.15,16.24,10.33,28.77Z"/><path class="cls-1" d="m351.3,385.72s-28.08,30.41-38.1,46.81c0,0,18.68,2.39,28.5,8.5,0,0,18.59-49.16,22.26-50.18l-12.67-5.13Z"/><path class="cls-1" d="m313.21,432.53s-6.79-5.13-20.04-5.11c-13.25.02-26.38-1.4-27.87-5.17,0,0-52.52,60.13-65.5,102.49,0,0,16.4,7.01,34.83,2.3,18.43-4.7,32.63-12.2,32.63-12.2,0,0,21.95-53.94,45.95-82.31Z"/><path class="cls-1" d="m267.25,514.84s37.86-22.05,66.38-13.99c0,0-45.03,96.71-44,119.98l-52.61,11.21s10.41-87.09,30.23-117.2Z"/><path class="cls-1" d="m176.38,632.04s5.95-70.87,23.4-107.3c0,0-21.67-5.98-29.86-22.99,0,0-28.49,58.65-33.56,103.19,0,0,22.44,23.99,40.02,27.1Z"/><path class="cls-1" d="m176.38,632.04s23.12,11.21,60.64,0c0,0-7.74,58.28,2.35,111.28,0,0-22.95-.56-31.5,1.15-8.55,1.71-16.93,2.89-16.93,2.89,0,0-21.4-84.41-14.56-115.32Z"/><path class="cls-1" d="m190.94,747.36s20.64,62.25,32.42,79.77c0,0-28.75,11.08-56.84-2.71l-28.67-89s17.83,18.49,53.08,11.93Z"/><path class="cls-1" d="m239.38,743.31s8.16,47.63,16.29,74.49c0,0,21.48-11.79,38.98-8.58,0,0-6.78-54.05-6.28-62.13,0,0-28.64-4.84-48.99-3.77Z"/><polygon class="cls-1" points="223.37 827.13 255.66 817.8 282.19 887.37 252.28 874.94 223.37 827.13"/><path class="cls-5" d="m252.32,919.57s-79.57-53.25-85.79-95.15c-6.22-41.89-33.42-105.4,87.45-132.48,120.87-27.08,84.03-127.19,85.55-160.96,1.52-33.78,17.23-230.19,229.56-242.8,0,0-63.77-24.2-159.52,45.83-95.76,70.03-93.26,182.51-86.56,219.41,6.71,36.9,31.96,110.49-84.22,135.12-116.18,24.63-125.85,114.61-124.35,139.18,1.5,24.57,36.53,87.28,137.87,91.85Z"/><path class="cls-4" d="m119.96,556.53s-32.78,28.88-42.7,73.55c-9.92,44.67,7.6,81.7,23.91,82.13,16.31.44-60.83-41.51,18.79-155.68Z"/><path class="cls-2" d="m124.07,478.47s-53.18,42.73-64.1,100.58c-10.92,57.85-3.49,66.78.23,65.35,3.71-1.43-10.86-90.9,63.87-165.93Z"/><path class="cls-4" d="m824.24,866.49s-2.33,49.79-35.02,90.49c-32.69,40.7-78.17,51.51-90.19,37.3-12.02-14.21,80.36,24.55,125.21-127.79Z"/><path class="cls-2" d="m890.82,807.14s-.11,77.83-43.83,128.83c-43.72,51-56.97,50.74-58.35,46.42-1.38-4.32,88.69-55.18,102.18-175.25Z"/><path class="cls-2" d="m278,224.06c-28.06-29.3-95.92-133.07-82.83-148.08,13.09-15.02,82.83,148.08,82.83,148.08Z"/><path class="cls-3" d="m204.69,268.67c-33.21-23.3-119.91-111.94-109.98-129.21,9.93-17.27,109.98,129.21,109.98,129.21Z"/><path class="cls-7" d="m165.92,331.39c-32.73-11.04-124.85-62.58-120.9-79.08,3.96-16.49,120.9,79.08,120.9,79.08Z"/><path class="cls-7" d="m853.98,404.94c38.08-13.99,144.64-77.38,139.48-96.62-5.16-19.24-139.48,96.62-139.48,96.62Z"/><path class="cls-3" d="m900.23,477.23c40.07-6.34,156.9-47.86,155.57-67.74-1.33-19.88-155.57,67.74-155.57,67.74Z"/><path class="cls-2" d="m907.49,550.6c34.25,4.46,139.65-1.35,143.35-17.9,3.69-16.55-143.35,17.9-143.35,17.9Z"/><path class="cls-5" d="m162.34,398.07s10.69,19.74,10.49,28.79c0,0-5.16,12.42-14.3,16.39,0,0,16.12-4.51,18.18-3.07,0,0,12.26,12.12,15.58,19.16,0,0-6.56-17.56-6.39-25.22,0,0,.17-7.66,12.94-17.81,0,0-10.56,5.33-17.5,4.13,0,0-7.6-2.61-18.99-22.37Z"/><path class="cls-5" d="m423.93,208.73s9.87-8.68,2.59-31.13c0,0,9.94,21.48,16.47,20.07,0,0,17.09-.27,23.48-4.65,0,0-25.33,21.43-23.69,25.85,1.63,4.43,5.48,31.18,3.71,31.83-1.77.65-9.45-25.59-17.13-27.33,0,0-19.71-4.34-26.23-2.93l20.82-11.71Z"/><path class="cls-5" d="m857.79,274.05s-4.25,22.05-10.14,28.91c0,0-11.86,6.33-21.45,3.61,0,0,15.32,6.73,16,9.15,0,0,1.8,17.14-.1,24.69,0,0,6.06-17.74,11.05-23.55,0,0,4.99-5.81,21.3-5.57,0,0-11.55-2.57-16.15-7.9,0,0-4.23-6.84-.51-29.34Z"/><path class="cls-5" d="m934.42,666.41s-9.64,20.28-17.07,25.45c0,0-13.07,3.16-21.67-1.88,0,0,13.15,10.36,13.2,12.87,0,0-2.55,17.05-6.28,23.88,0,0,10.31-15.66,16.59-20.03,0,0,6.29-4.38,22.02-.06,0,0-10.53-5.38-13.66-11.7,0,0-2.38-7.68,6.86-28.53Z"/><path class="cls-7" d="m788.3,621.27s27.32,13.83-3.13,31.63c-30.45,17.79-36.11-38.04-23.93-49.67,12.18-11.62,28.95-23.71,58.13-5.89,29.18,17.83,28.53,84.69-5.84,97.08-34.37,12.39-93.76-2.38-101.14-31.32-7.38-28.94,4.62-74.81,34.66-77.05,30.04-2.24-12.64,12.1-13.31,29.42-.67,17.33,4.8,42.01,30.67,48.29,25.87,6.29,46.14,1.26,44.51-14.9-1.64-16.16-8.13-36.29-20.61-27.6Z"/><path class="cls-7" d="m830.79,812.49s-41.55-5.03-67.58,13.1c-26.03,18.14-51.96,43.52-66.57,62.85-14.6,19.34-43.65,46.92-68.98,33.91-25.33-13.02-19.69-40.33-6.53-46.77,13.16-6.44,41.33-9.08,42.13-.72.8,8.36-4.38,16.08-14.63,8.67-10.24-7.41-19.29-16.83-20.26-2.69-.97,14.13,4.61,27.72,18.28,25.44,13.68-2.28,53.79-13.04,40.6-49.5-13.19-36.46-66.03-3.4-80.99,14.76-14.96,18.16-30.74,34.36-23.95,56.61,6.79,22.25,38.13,30.4,48.5,30.79,10.37.39,41.12-.95,72.9-37.07,31.79-36.11,46.24-53.97,50.96-62.36,4.72-8.39,30.86-48,76.12-47.02Z"/></svg>