<?xml version="1.0" encoding="UTF-8"?><svg id="Color1" xmlns="http://www.w3.org/2000/svg" xmlns:xlink="http://www.w3.org/1999/xlink" viewBox="0 0 1080 1137"><defs><style>.cls-1{fill:#03b083;}.cls-2{fill:#064862;}.cls-3{fill:#0c6b86;}.cls-4{fill:#48bcc4;}.cls-5{fill:none;stroke:#011720;stroke-miterlimit:10;}.cls-6{fill:url(#Degradado_sin_nombre_2);}</style><linearGradient id="Degradado_sin_nombre_2" x1="474.57" y1="543.52" x2="855.04" y2="543.52" gradientUnits="userSpaceOnUse"><stop offset="0" stop-color="#48bdc5"/><stop offset=".52" stop-color="#168ea3"/><stop offset=".78" stop-color="#0c6b87"/><stop offset=".99" stop-color="#0c6b87"/></linearGradient></defs><path class="cls-1" d="m547.24,832.29s-44.16-68.45-55.65-122.28c-11.49-53.84-8.38-104.29-2.8-103.8,5.58.48,15.93,27.58,16.42,32.05.49,4.47,1.25,23.21-4.98,11.99-6.92-12.44-5.38-17.45-5.09-20.49.29-3.04-4.11-1.51-4.09,4.16.02,5.67,5.37,100.92,56.19,198.38Z"/><path class="cls-1" d="m552.5,826.66s-28.65-61.55-31.85-111.33c-3.2-49.78,3.26-45.53,16.67-44.16,13.41,1.37,39.64,24.62,24.87,39.49-14.77,14.87-26.23-.96-27.54-6.61-1.31-5.64-2.77-16.21,6.58-16.6,9.34-.39,4.75,13.8,4.75,13.8,0,0,9.8-2.96,7.71-10.03-2.08-7.07-15.13-17.65-22.85-10.53-7.72,7.12,8.73,116.72,21.66,145.95Z"/><path class="cls-3" d="m557.1,827.48s4.87-6.26,2.25-23.26c-2.62-17-3.63-61.74,9.63-82.56,13.26-20.81,30.41-46.08,33.59-60.97,0,0-12.14,21.78-33.88,12.23-21.73-9.56-49.63-33.62-61.16-166.29,0,0-8.15,13.89-8.28,46.25-.13,32.36,2.87,55.18,4.75,54.75,1.88-.44-1.38-6.69,1.55-7.19s8.82,22.7.25,24.52c-8.57,1.81-10.48-33.56-11.9-47.21-1.42-13.65-2.85-57.44,1.83-79.28,4.68-21.83,13.42-51.95,17.67-51.19,4.24.76,1.69,19.37.8,27.19-.89,7.83-2.88,49.2,7.68,89.48,10.56,40.28,31.82,94.21,56.33,95.43s15.48-7.35,24.63-12.41c9.15-5.06,16.04-7.3,12.69,4.78-3.35,12.09-17.15,50.32-27.61,64.16-10.46,13.84-22.01,35.86-17.19,55.01,4.81,19.15,9.7,51.59.25,81.32l-13.87-24.77Z"/><path class="cls-1" d="m580.88,831.74s-2.39-29,10.9-46.6c13.29-17.6,31.62-34.93,45.44-44.56,13.82-9.63,33.76-29.07,25.4-47.01-8.37-17.94-27.49-14.75-32.32-5.79-4.82,8.97-7.41,28.47-1.63,29.25,5.79.78,11.29-2.62,6.41-9.93-4.87-7.31-11.17-13.85-1.33-14.15,9.84-.3,19.13,3.94,17.18,13.38-1.95,9.44-10.49,37.02-35.47,26.88-24.98-10.14-.6-45.96,12.42-55.87,13.01-9.91,24.69-20.44,39.97-15.13,15.28,5.31,20.1,27.3,20.1,34.51,0,7.21-1.76,28.54-27.7,49.66-25.94,21.12-38.73,30.68-44.68,33.73-5.96,3.06-34.17,20.16-34.7,51.62Z"/><path class="cls-3" d="m585.36,860.36s1.7-44.01,35.69-62.65c33.99-18.64,74.94-50.21,79.32-81.89,4.38-31.67-3.77-71-22.25-94.41-18.48-23.4-38.84-63.63-36.73-97,2.11-33.37,6.84-52.62,21.29-85.84,0,0-8.51,71.18,8.06,117.14,16.58,45.96,32.62,79.04,41.12,96.11,8.5,17.08,15.75,43.01,4.72,78.49-9.71,31.24-39.68,72.53-61.83,83.47-36.74,18.15-68.32,30.53-69.39,46.57Z"/><path class="cls-4" d="m672,655.62s-4.31,1.03-12.32-8.9c-8.01-9.94-25.58-32.66-32.31-72.77-6.73-40.11,2.46-72.72,6.49-82.31,0,0-9.95,56.31,2.49,96.15,12.45,39.84,35.54,67.68,35.64,67.82Z"/><path class="cls-4" d="m648.69,653.89s-6.13,3.73-13.4-4.69c-7.27-8.42-28.67-53.31-29.83-83.99-1.17-30.69-3.39-64.32,34.62-101.05,0,0-28.15,55.81-26.82,90.09,1.33,34.28,11.03,75.95,35.43,99.64Z"/><path class="cls-4" d="m610.12,635.78s-13.8,10.31-20.52-16.61c-6.72-26.91-12.53-77.93,4.54-114.29,17.07-36.36,33.43-58.68,44.7-62.58,0,0-39.39,42.28-43.69,105.14-4.3,62.86,14.97,88.34,14.97,88.34Z"/><path class="cls-4" d="m585.41,642.56s2.97,6.74-4.53,1.85c-7.5-4.9-37.94-23.56-49.9-104.88-11.95-81.32,2.95-124.25,22.58-144.69,19.63-20.44,41.98-27.26,57.78-65.14,0,0,6.05,28.78-6.17,53.9-12.23,25.12-24.69,73.12-17.36,73.92,7.33.8,23.03-29.37,24.75-50.44,0,0,1.32,33.98-13.02,58.85-14.34,24.87-26.63,46.76-28.5,89.57-1.54,35.24,1.76,77.34,14.37,87.07Z"/><path class="cls-2" d="m512.8,969.53c-55.08,0-97.85,7.14-97.85,42.81s-10.19,77.47,76.45,77.47,303.75,12.23,303.75-19.37,11.1-100.91-40.32-100.91-278.72,14.27-286.88,31.6c-8.15,17.33-41.79,65.24,23.44,61.16,65.24-4.08,239.77-3.79,238.13-31.45s-126-40.92-147.41-25.63c-21.41,15.29,16.31,11.21,41.79,11.21s-1.43,14.56-56.78,14.42c-55.35-.15-45.16-34.8,1.73-37.86,46.89-3.06,170.22,0,170.22,32.62s-89.7,48.93-200.8,47.91c-111.1-1.02-98.87-4.08-94.8-34.66,4.08-30.58,9.17-55.04,36.69-55.04s195.71-20.39,195.71-20.39c0,0-151.88,6.12-163.09,6.12Z"/><path class="cls-6" d="m539.3,213.21l118.24-41.79s-26.5,122.32,46.89,211c73.39,88.68,189.59,288.46,11.21,433.2,0,0-55.04,21.41-55.04,63.2s40.26,77.98,40.26,77.98c0,0-29.56-68.29-14.27-84.6,15.29-16.31,71.35-25.48,104.99-80.52,33.64-55.04,78.87-145.15,58.29-280-20.58-134.85-104.16-214.36-137.8-255.13-33.64-40.77-29.87-117.16-29.87-117.16,0,0-141.37-27.58-207.63,13.2"/><path class="cls-4" d="m796.67,892.57c19.37-15.29-2.56-49.18-24.22-44.98-21.65,4.21-32.84,29.91-33.36,40.5-.52,10.59-47.41,15.69-47.41,15.69,0,0,85.62,4.08,104.99-11.21Zm-11.21-29.56c18.35,17.33-37.54,25.93-37.54,25.93,0,0,19.2-43.26,37.54-25.93Z"/><path class="cls-4" d="m796.67,918.06c-19.37-15.29-104.99-11.21-104.99-11.21,0,0,46.89,5.1,47.41,15.69.52,10.59,11.71,36.3,33.36,40.5,21.65,4.21,43.58-29.69,24.22-44.98Zm-11.21,29.56c-18.35,17.33-37.54-25.93-37.54-25.93,0,0,55.89,8.6,37.54,25.93Z"/><path class="cls-2" d="m483.05,209.02s26.84-34.05,27.38-58.5c0,0,4.29,30.39,2.9,42.75,0,0-17.69,28.65-23.44,31.53,0,0-6.01-6.63-6.84-15.78Z"/><path class="cls-2" d="m483.05,209.02s-4.66-9.14-4.66-14.89c0,0-20.91,33.2-24.83,34.81l2.79,13.11,26.71-33.03Z"/><path class="cls-2" d="m489.89,224.8s12.46,21.09,16.29,25.88c0,0-23.96,25.88-33.55,43.13,0,0-9.11-13.9-10.06-23.48,0,0,18.21-35.46,27.32-45.53Z"/><path class="cls-2" d="m456.35,242.05l6.23,28.27s-23.96,33.55-46.96,39.3l-4.52-15.81s36.15-40.73,45.26-51.76Z"/><path class="cls-2" d="m472.64,293.8l13.9,12.94s-34.5,68.05-37.38,65.17c0,0-21.09-16.29-21.09-27.8,0,0,17.43-7.06,25.49-24.62,8.06-17.55,19.08-25.7,19.08-25.7Z"/><path class="cls-2" d="m415.61,309.62l12.46,34.5s-10,10.87-16.98,24.6c-6.98,13.73-17.52,24.28-17.52,24.28l-8.47-21s6.77-6.8,9.06-20.7c2.28-13.9,8.99-35.94,21.45-41.69Z"/><path class="cls-2" d="m393.57,393l17.52,30.46s-42.58,66.35-49.22,66.83c0,0-4.72-23.48-4.72-35.94,0-12.46,35.46-53.67,36.42-61.34Z"/><path class="cls-2" d="m385.1,372.01s-26.04,44.53-27.96,51.45c0,0,5.75-61.13,22.04-79.34,0,0,1.28,16.47,5.91,27.88Z"/><path class="cls-2" d="m411.09,293.8l-.75-9.58s-26.84,37.38-31.15,59.9c0,0,16.17-13.42,21.26-29.95,5.09-16.53,10.64-20.37,10.64-20.37Z"/><path class="cls-4" d="m361.88,501.82s9.44,69.82,57.94,138.16c48.5,68.35,88.07,159.4,28.51,219.3-59.56,59.9-246.1,72.36-304.75-28.75-58.64-101.12,43.04-192.62,90.44-173.22,47.4,19.39,51.35,76.9,19.66,80.73s-68.11-28.75-45.1-45.05c23-16.29,35.6,22.8,26.43,19.55,0,0-5.54-5.37-5.92,0-.38,5.37,16.87,13.04,17.83-4.21.96-17.25-12.46-38.34-40.25-26.84-27.8,11.5-57.51,67.09-29.71,113.1,27.8,46.01,128.65,85.3,173.96,59.9,45.31-25.4,122.65-90.93,80.25-172.22-42.4-81.29-83.73-153.1-69.29-180.45Z"/><path class="cls-2" d="m345,589.01l-9.78-27.26s11.18-35.82,23.75-45.26c0,0,3.65,22.71,7.15,32.51,0,0-4.17,5.97-10.88,18.43-6.71,12.46-10.23,21.57-10.23,21.57Z"/><path class="cls-2" d="m366.11,636.94s-.81,12.45,32.73,55.58l14.38-37.38s-26.82-49.84-29.7-57.51c0,0-17.55,39.32-17.4,39.31Z"/><path class="cls-2" d="m331.75,700.57s15.16,21.43,34.36,41.13c0,0-9.08,21.02-17.18,25.81-8.1,4.79-13.55,15.68-13.55,15.68,0,0-18.16-24.51-18.16-28.14s-5.45-25.42-4.54-31.78c0,0,11.8-9.08,19.07-22.7Z"/><path class="cls-2" d="m366.11,741.69l32.73-49.17s8.63,20.13,37.38,41.21c0,0-15.34,40.25-31.63,53.67,0,0-33.83-36.8-38.48-45.71Z"/><path class="cls-2" d="m362.42,834.37l-28.75-48.88-7.67,8.63s7.67,23,22.04,50.8c0,0,7.67-2.88,14.38-10.54Z"/><path class="cls-2" d="m344.21,593.32l21.9,43.62-34.36,63.63-19.17-30.8s8.63-27.1,8.63-39.56l23-36.9Z"/><path class="cls-2" d="m406.51,789.32l-42.17,46.96s23-6.71,47.92-40.25l-5.75-6.71Z"/><path class="cls-1" d="m355.65,883.1c-32.53-42.97-81.46-157.03-50.29-256.71,31.18-99.68,87.57-174.74,133.65-235.93,46.08-61.19,115.93-178.81,60.4-295.88,0,0-8.67-65.34,6.79-48.94,99.69,105.82,19.44,262.3-23.15,314.54-50.19,61.57-146.35,160.29-156.73,233.13-10.39,72.84-59.39,136.67,57.12,316.57"/><path class="cls-3" d="m456.53,818.79s57.04,91.08,26.18,138.91c0,0,90.21-38.42-26.18-138.91Z"/><path class="cls-5" d="m547.24,832.29s-44.16-68.45-55.65-122.28c-11.49-53.84-8.38-104.29-2.8-103.8,5.58.48,15.93,27.58,16.42,32.05.49,4.47,1.25,23.21-4.98,11.99-6.92-12.44-5.38-17.45-5.09-20.49.29-3.04-4.11-1.51-4.09,4.16.02,5.67,5.37,100.92,56.19,198.38Z"/><path class="cls-5" d="m552.5,826.66s-28.65-61.55-31.85-111.33c-3.2-49.78,3.26-45.53,16.67-44.16,13.41,1.37,39.64,24.62,24.87,39.49-14.77,14.87-26.23-.96-27.54-6.61-1.31-5.64-2.77-16.21,6.58-16.6,9.34-.39,4.75,13.8,4.75,13.8,0,0,9.8-2.96,7.71-10.03-2.08-7.07-15.13-17.65-22.85-10.53-7.72,7.12,8.73,116.72,21.66,145.95Z"/><path class="cls-5" d="m557.1,827.48s4.87-6.26,2.25-23.26c-2.62-17-3.63-61.74,9.63-82.56,13.26-20.81,30.41-46.08,33.59-60.97,0,0-12.14,21.78-33.88,12.23-21.73-9.56-49.63-33.62-61.16-166.29,0,0-8.15,13.89-8.28,46.25-.13,32.36,2.87,55.18,4.75,54.75,1.88-.44-1.38-6.69,1.55-7.19s8.82,22.7.25,24.52c-8.57,1.81-10.48-33.56-11.9-47.21-1.42-13.65-2.85-57.44,1.83-79.28,4.68-21.83,13.42-51.95,17.67-51.19,4.24.76,1.69,19.37.8,27.19-.89,7.83-2.88,49.2,7.68,89.48,10.56,40.28,31.82,94.21,56.33,95.43s15.48-7.35,24.63-12.41c9.15-5.06,16.04-7.3,12.69,4.78-3.35,12.09-17.15,50.32-27.61,64.16-10.46,13.84-22.01,35.86-17.19,55.01,4.81,19.15,9.7,51.59.25,81.32l-13.87-24.77Z"/><path class="cls-5" d="m580.88,831.74s-2.39-29,10.9-46.6c13.29-17.6,31.62-34.93,45.44-44.56,13.82-9.63,33.76-29.07,25.4-47.01-8.37-17.94-27.49-14.75-32.32-5.79-4.82,8.97-7.41,28.47-1.63,29.25,5.79.78,11.29-2.62,6.41-9.93-4.87-7.31-11.17-13.85-1.33-14.15,9.84-.3,19.13,3.94,17.18,13.38-1.95,9.44-10.49,37.02-35.47,26.88-24.98-10.14-.6-45.96,12.42-55.87,13.01-9.91,24.69-20.44,39.97-15.13,15.28,5.31,20.1,27.3,20.1,34.51,0,7.21-1.76,28.54-27.7,49.66-25.94,21.12-38.73,30.68-44.68,33.73-5.96,3.06-34.17,20.16-34.7,51.62Z"/><path class="cls-5" d="m585.36,860.36s1.7-44.01,35.69-62.65c33.99-18.64,74.94-50.21,79.32-81.89,4.38-31.67-3.77-71-22.25-94.41-18.48-23.4-38.84-63.63-36.73-97,2.11-33.37,6.84-52.62,21.29-85.84,0,0-8.51,71.18,8.06,117.14,16.58,45.96,32.62,79.04,41.12,96.11,8.5,17.08,15.75,43.01,4.72,78.49-9.71,31.24-39.68,72.53-61.83,83.47-36.74,18.15-68.32,30.53-69.39,46.57Z"/><path class="cls-5" d="m672,655.62s-4.31,1.03-12.32-8.9c-8.01-9.94-25.58-32.66-32.31-72.77-6.73-40.11,2.46-72.72,6.49-82.31,0,0-9.95,56.31,2.49,96.15,12.45,39.84,35.54,67.68,35.64,67.82Z"/><path class="cls-5" d="m648.69,653.89s-6.13,3.73-13.4-4.69c-7.27-8.42-28.67-53.31-29.83-83.99-1.17-30.69-3.39-64.32,34.62-101.05,0,0-28.15,55.81-26.82,90.09,1.33,34.28,11.03,75.95,35.43,99.64Z"/><path class="cls-5" d="m610.12,635.78s-13.8,10.31-20.52-16.61c-6.72-26.91-12.53-77.93,4.54-114.29,17.07-36.36,33.43-58.68,44.7-62.58,0,0-39.39,42.28-43.69,105.14-4.3,62.86,14.97,88.34,14.97,88.34Z"/><path class="cls-5" d="m585.41,642.56s2.97,6.74-4.53,1.85c-7.5-4.9-37.94-23.56-49.9-104.88-11.95-81.32,2.95-124.25,22.58-144.69,19.63-20.44,41.98-27.26,57.78-65.14,0,0,6.05,28.78-6.17,53.9-12.23,25.12-24.69,73.12-17.36,73.92,7.33.8,23.03-29.37,24.75-50.44,0,0,1.32,33.98-13.02,58.85-14.34,24.87-26.63,46.76-28.5,89.57-1.54,35.24,1.76,77.34,14.37,87.07Z"/><path class="cls-5" d="m796.67,892.57c19.37-15.29-2.56-49.18-24.22-44.98-21.65,4.21-32.84,29.91-33.36,40.5-.52,10.59-47.41,15.69-47.41,15.69,0,0,85.62,4.08,104.99-11.21Zm-11.21-29.56c18.35,17.33-37.54,25.93-37.54,25.93,0,0,19.2-43.26,37.54-25.93Z"/><path class="cls-5" d="m796.67,918.06c-19.37-15.29-104.99-11.21-104.99-11.21,0,0,46.89,5.1,47.41,15.69.52,10.59,11.71,36.3,33.36,40.5,21.65,4.21,43.58-29.69,24.22-44.98Zm-11.21,29.56c-18.35,17.33-37.54-25.93-37.54-25.93,0,0,55.89,8.6,37.54,25.93Z"/><path class="cls-5" d="m355.65,883.1c-32.53-42.97-81.46-157.03-50.29-256.71,31.18-99.68,87.57-174.74,133.65-235.93,46.08-61.19,115.93-178.81,60.4-295.88,0,0-8.67-65.34,6.79-48.94,99.69,105.82,19.44,262.3-23.15,314.54-50.19,61.57-146.35,160.29-156.73,233.13-10.39,72.84-59.39,136.67,57.12,316.57"/></svg>