<?xml version="1.0" encoding="UTF-8"?><svg id="Capa_1" xmlns="http://www.w3.org/2000/svg" viewBox="0 0 1170.93 330.77"><defs><style>.cls-1{fill:#fff;}.cls-2{fill:#064862;}.cls-3{fill:#0c6b81;}</style></defs><path class="cls-3" d="m2.13,224.79s-26.45,129.17,254.2,33.49c280.65-95.68,542.88-160.64,661.59-123.91,118.71,36.74,131.46,106.9,118.71,119.66-12.76,12.76-29.77,34.02-10.63,44.65,19.14,10.63,29.77-8.5,23.39-10.63-6.38-2.13-31.89,10.63-17.01-14.88,14.88-25.51,42.52-17.01,42.52,10.63s-21.26,55.28-42.52,44.65c-21.26-10.63-34.02-14.88-25.51-65.91,8.5-51.03-59.53-142.45-265.77-95.68-206.24,46.78-532.01,162.97-647.65,149.52C-22.19,302.93,2.13,224.79,2.13,224.79Z"/><path class="cls-2" d="m495.84,123.96s20.24,27.26,87.04,0c66.79-27.26,239.55-99.89,321.14-52.95,81.59,46.95,100.72,112.86,177.26,102.22,76.54-10.63,106.31-116.94-78.67-159.46-184.97-42.52-282.56,25.02-325.19,46.53-42.63,21.51-127.05,76.04-181.58,63.66Z"/><path class="cls-1" d="m1156.8,52.49c-13.36,10.19-102,42.88-161.01,51.19-59.01,8.31-154.5,9.29-181.55-5.61-27.05-14.89-4.33-30.41,26.14-28.75,30.47,1.66,46-7.08,27.43-16.84-18.57-9.76-2.78-35.52,41.55-28.87s55.5,31.54,70.13,24.91c14.63-6.63,35.13-21.03,56.74-10.51,21.61,10.53,22.72,22.79,39.89,1.42,17.18-21.37,48.89-35.4,80.68-23.12,31.79,12.28,0,36.16,0,36.16Z"/></svg>