<?xml version="1.0" encoding="UTF-8"?><svg id="Color1" xmlns="http://www.w3.org/2000/svg" viewBox="0 0 1080 1137"><defs><style>.cls-1{fill:none;stroke:#064862;stroke-miterlimit:10;stroke-width:3px;}.cls-2{fill:#011720;}.cls-3{fill:#03b083;}.cls-4{fill:#fff;}.cls-5{fill:#064862;}.cls-6{fill:#0c6b86;}.cls-7{fill:#48bcc4;}</style></defs><path class="cls-7" d="m325.27,688.93s9.87,18.23,9.68,26.59c0,0-4.76,11.47-13.21,15.13,0,0,14.89-4.16,16.79-2.83,0,0,11.32,11.19,14.39,17.69,0,0-6.06-16.22-5.9-23.29,0,0,.16-7.07,11.95-16.45,0,0-9.75,4.92-16.16,3.81,0,0-7.02-2.41-17.54-20.66Z"/><path class="cls-7" d="m848.32,115.74s-4.97,31-12.91,40.86c0,0-16.3,9.37-29.82,5.98,0,0,21.71,8.74,22.77,12.09,0,0,3.26,23.88.94,34.52,0,0,7.69-25.06,14.41-33.4,0,0,6.72-8.34,29.53-8.72,0,0-16.25-3.09-22.92-10.34,0,0-6.2-9.38-1.99-40.99Z"/><path class="cls-1" d="m884.62,285s-8.9,18.73-15.76,23.5c0,0-12.07,2.92-20.01-1.74,0,0,12.14,9.57,12.19,11.88,0,0-2.36,15.74-5.8,22.05,0,0,9.52-14.46,15.32-18.5,0,0,5.8-4.04,20.33-.05,0,0-9.73-4.97-12.61-10.8,0,0-2.19-7.09,6.34-26.35Z"/><path class="cls-5" d="m482.06,185.06s-8.33,15.97-22.21,20.13c-13.88,4.16-30.54-30.54-6.94-43.04,23.6-12.49,53.15,3.12,57.81,21.69,4.66,18.57-.89,54.22-42.19,57.22-41.3,3-53.8-44.9-46.86-69.89,6.94-24.99,78.44-107.59,178.4-104.82,99.96,2.78,186.37,85.9,202.51,174.84,16.15,88.94-59.37,164.13-76.87,183.35-27.69,30.4-127.29,106.26-131.19,116.62,0,0,113.15-130.5,125.64-183.26,12.49-52.76,13.86-120.91-22.92-169.78-36.78-48.87-125.63-84.28-204.07-57.9-78.44,26.38-67.33,74.27-41.65,82.6,25.68,8.33,30.54-27.77,30.54-27.77Z"/><path class="cls-7" d="m804.93,321.68s-12.58,98-79.22,152.84c-66.64,54.84-157.57,143.69-158.27,182.56-.69,38.87,9.72,96.49,64.56,110.37,54.84,13.88,89.55-40.26,76.36-74.27,0,0-4.86,16.66-18.05,9.72-13.19-6.94-12.49-31.24,12.49-36.1,24.99-4.86,37.48,31.24,13.88,73.58-23.6,42.34-90.93,63.86-138.83,37.48-47.9-26.38-79.13-131.19,9.02-207.55,88.16-76.36,123.56-109.68,152.71-140.22,29.15-30.54,67.51-89.8,65.34-108.41Z"/><path class="cls-6" d="m424.81,328.1c-48.05,23.21-150.81,157.1-33.5,265.39,117.31,108.29,202.69-68.03,193.67-142.3-9.02-74.27-86.42-158.72-160.17-123.09Z"/><path class="cls-4" d="m450.51,368.82c-29.23,0-58.99,39.56-66.44,96.43-7.45,56.87,49.16,122.38,101.21,112.51,78.23-14.84,122.32-208.94-34.77-208.94Z"/><path class="cls-5" d="m479.18,405.79c-15.67-3.09-45.15,1.65-56.16,24.78-11.01,23.12-16,102.94,40.18,112.03,56.17,9.09,96.92-120.84,15.98-136.81Z"/><path class="cls-3" d="m474.88,441.8c-17.21-3.97-32.57,4.98-34.38,21.71-1.81,16.74-4.93,41.71,28.98,42.12,33.9.4,34.81-57.04,5.4-63.83Z"/><path class="cls-6" d="m864.34,905.77c-26.34,8.69-58.28-39.42-2.53-34.31,2.78.25,5.47.53,8.14.81-6.53-3.47-13.09-10.93-15.96-26.48-5.14-27.83-82.46,5.23-114.77,13.42-43.01,10.91-38.33-51.82-170.56-35.63-14.58,1.79-29.32,4.7-44.57,8.08-16.49-24.04-25.02-65.34-49.66-111.42-31.93-59.7-161.04-133.28-202.69-161.74-41.65-28.46-114.53-90.93-122.17-119.39-7.64-28.46,29.85-81.91,66.64-127.03,36.79-45.12,103.43-82.6,132.58-83.99,29.15-1.39,53.45,21.52,56.23,43.73,2.78,22.21-20.13,23.6-29.15,21.52-9.02-2.08,2.78-12.49,5.55-29.15,2.78-16.66-38.18-6.25-38.18-6.25,0,0-22.21,38.87-13.19,49.98s86.77,15.27,88.16,9.02c1.39-6.25,24.99-74.27-10.41-98.57-35.4-24.3-105.51-46.51-183.26-13.88-77.75,32.63-148.55,188.12-134.67,247.12,13.88,59,107.19,118.13,167.78,134.73,60.59,16.6,192.48,115.17,189.01,158.9-3.47,43.73-51.37,118.7-100.65,99.96-49.28-18.74-68.03-38.87-107.59-26.38-39.57,12.49-68.48,69.9-162.88,44.91,0,0,46.75,35.41,146.16,3.54l46.15,3.42c14.59,6.08,28.93,15.54,44.47,23.75,31.13,16.45,84.39,5.01,98.91,24.31,14.53,19.31,12.84,59.28-48.92,55.38-61.76-3.9-121.24-1.04-133.69,31.14-12.45,32.18,2.77,122.28,127.97,63.64s152.87-61.5,212.35-44.33c59.49,17.16,107.21-20.02,74.7-56.49-32.51-36.47-25.59-37.18-75.4-33.61-41.49,2.98-70.96-33.74-50.46-45.25l46.55,3.45c38.52,16.81,73.27,58.08,115.28,48.24,51.88-12.16-36.41,68.71,59.61,71.9,96.02,3.18,208.54,16.95,209.34-51.07.81-68.02-57.89-64.66-84.22-55.97Z"/><path class="cls-6" d="m887.1,874.48c-5.42-.84-11.16-1.56-17.16-2.21,8.6,4.57,17.16,2.21,17.16,2.21Z"/><path class="cls-2" d="m514.85,874.48l4.59,13.9s-14.75,6.84-3.97,23.73l-18.96,3.08-18.31-33.8,36.65-6.92Z"/><path class="cls-2" d="m353.78,863.18s-13.72,4.83-14.07,10.59c0,0,32.4,13.87,55.15,11.54,0,0-17.57-10.62-11.82-24.12l-29.26,1.99Z"/><path class="cls-2" d="m436.79,886.23s-18.99-20.08-9.55-33.43l45.49-8.13s-5.51,17.55,5.47,37.07c0,0-20.7,6.29-41.41,4.48Z"/><path class="cls-2" d="m514.85,874.48s38.5-6.61,41.94-9.41c0,0-32.68-10.52-32.67-33.4l-25.64,6.75s13.35,26.04,16.36,36.06Z"/><path class="cls-2" d="m629.23,821.44c-48.28-4.18-86.21,6.19-86.21,6.19,70.02,6.88,68.81,17.54,68.81,17.54,2.98-5.62,34.9-3.08,42.43-3.51l-25.04-20.22Z"/><path class="cls-2" d="m556.79,864.11l54.83-19.54s15.83,5.48,21.87,9.25c6.04,3.77,10.34,8.19,12.82,8.13,0,0-38.5,9.2-45.81,13.18,0,0-12.15-7.58-22.35-7.18-10.19.4-21.36-3.83-21.36-3.83Z"/><path class="cls-2" d="m466.15,916.24s-4.18-8-12.71-12.68c-8.53-4.68-16.65-17.36-16.65-17.36,0,0-20.92,1.86-41.93-.9,0,0,15.06,10.64,22.25,12.97,7.2,2.33,17.78,15.1,17.78,15.1,0,0,17.48,4.72,31.25,2.86Z"/><path class="cls-2" d="m466.15,916.24s13.65,20.11,10.11,42.26c0,0,26.94.56,31.78-3.28,0,0-1.11-26.28-11.52-40.01,0,0-20.45,2.04-30.36,1.04Z"/><path class="cls-2" d="m443.88,955.68s-19.06-4.04-25.49-9.76c0,0,3.19-26.53-21.09-35.98,0,0,26.55,2.44,37.6,3.44,0,0,15.16,16.49,8.99,42.3Z"/><path class="cls-2" d="m443.88,955.68s14.3,3.9,32.38,2.81c0,0,1.44,24.79-28.86,45.41,0,0-45.64,12.41-82.25-10.59,0,0,78.21,2.38,78.73-37.63Z"/><path class="cls-2" d="m487.52,996.09s13.98-3.51,31.51-8.62c17.52-5.11,29.53-10.31,29.53-10.31,0,0-13.04-17.1-16.13-27.5l-24.4,5.56s-1.59,21.9-20.51,40.87Z"/><path class="cls-2" d="m365.15,993.31s-23.56-11.04-25.45-21.32c0,0-85.35-7.37-107.98,26.02,0,0,35.33-14.02,54.49-12.47,19.16,1.55,56.33,12.27,78.93,7.77Z"/><path class="cls-2" d="m346.12,1042.79s46.45-24.21,62.84-25.97c16.39-1.76,38.87-12.88,38.44-12.92s40.12-7.82,40.12-7.82c0,0-21.04,17.4-44.7,23.35-23.65,5.95-41.31,23.35-41.31,23.35,0,0-32.67,11.38-55.39,0Z"/><path class="cls-2" d="m524.68,921.68s2.61,19.37,7.76,27.98c0,0,47.41-8.02,57.17-16.49"/><path class="cls-2" d="m562.03,891.71s32.4-15.4,38.47-16.59c6.07-1.19,18.05,13.53,21.84,23.38,3.79,9.85,20.27,10.71,20.27,10.71l-28.65,13.45s-25.92-16.9-51.93-30.96Z"/><path class="cls-2" d="m642.61,909.21l42.86-26.8s21.45,10.75,46.44,4.15c24.99-6.6,27.82-.36,27.82-.36,0,0-15.14,26.37-38.85,44.05,0,0-7.8-15.51-32.48-15.05-24.69.46-41.16-2.98-45.79-5.99Z"/><path class="cls-2" d="m646.31,861.95s25.39,18.62,39.16,20.47c0,0,24.4-20.01,43.28-21.56,0,0-10.33-.83-22.48-8.93,0,0-45.98,3.2-59.97,10.03Z"/><path class="cls-5" d="m228.64,632.15s-9.67-18.97-36.59-15.01c-26.92,3.95-29.49,30.71-25.62,41.81,3.86,11.1,21.91,25.96,43.3,19.3,21.39-6.66,18.84-33.87,7.91-42.01-10.93-8.14-27.61-12.06-33.91,3.28-6.3,15.34,11.18,21.79,17.2,16.94,6.01-4.85,7.76-9.99.24-13.07,0,0,11.51.05,11.14,10.1-.38,10.05-21.56,17.09-31.15,6.57s-6.68-26.52,2.61-32.22c9.29-5.7,18.4-11.84,44.87,4.33Z"/><path class="cls-7" d="m721.21,541.45s-3.38,17.54-8.07,23.01c0,0-9.44,5.04-17.07,2.87,0,0,12.19,5.36,12.73,7.28,0,0,1.43,13.64-.08,19.65,0,0,4.82-14.12,8.79-18.74,0,0,3.97-4.62,16.95-4.43,0,0-9.19-2.05-12.85-6.29,0,0-3.36-5.44-.4-23.35Z"/><path class="cls-2" d="m427.23,852.8s4.12-17.4,18.12-36.8c0,0-22.81,5.36-33.41,4.45,0,0-14.84,16.46-23.52,19.92,0,0-6.15,5.8-5.39,20.82l44.2-8.38Z"/><path class="cls-2" d="m478.2,816h-32.84s9.95-34.24,9.95-43.69c0,0,16.09,10.47,22.89,43.69Z"/><path class="cls-2" d="m455.31,772.31l-13.6-4.07s9.98-27.63-1.7-45.51c0,0,13.95,6.4,15.3,49.58Z"/><polygon class="cls-2" points="478.2 816 472.73 844.68 498.49 838.43 478.2 816"/><path class="cls-4" d="m441.71,768.24s-16.08,36.45-29.76,52.21c0,0,20.43.44,33.41-4.45,0,0,11.3-32.89,9.95-43.69l-13.6-4.07Z"/><path class="cls-4" d="m445.36,816s-16.52,20.14-18.12,36.8l45.49-8.13,5.47-28.68h-32.84Z"/><path class="cls-4" d="m472.73,844.68l25.76-6.25s12.48,22.19,16.36,36.06l-36.65,7.27s-12.34-17.33-5.47-37.07Z"/><path class="cls-4" d="m427.23,852.8l-44.2,8.38s-6.8,11.62,11.82,24.12c0,0,30.15,4.15,41.93.9,0,0-12-6.88-9.55-33.4Z"/><path class="cls-4" d="m436.79,886.2s23.82,2.44,41.41-4.46l18.31,33.45s-18.18,3.29-30.36,1.04c0,0-7.3-12.06-16.49-15.25-9.19-3.19-12.87-14.78-12.87-14.78Z"/><path class="cls-4" d="m434.89,913.38s16.45,5.11,31.25,2.86c0,0,13.51,13.9,10.11,42.26,0,0-22.22,2.45-32.38-2.81,0,0,1.63-26.72-8.99-42.3Z"/><path class="cls-4" d="m496.51,915.2l18.96-3.08,9.2,9.56s2.57,21.82,7.76,27.98l-24.4,5.56s-1.36-26.65-11.52-40.01Z"/><path class="cls-4" d="m508.03,955.22s-9.49,3.26-31.78,3.28c0,0-1.69,27.38-28.86,45.41,0,0,30.5-5.33,40.12-7.82,0,0,19.26-18.53,20.51-40.87Z"/><path class="cls-4" d="m418.39,945.92s11.36,6.93,25.49,9.76c0,0,5.18,37.35-78.73,37.63,0,0-23.66-9.2-25.45-21.32,0,0,72.78,3.16,78.68-26.07Z"/><path class="cls-4" d="m532.43,949.66s5.48,21.87,16.13,27.5c0,0,79.09-16.43,101.54,0,0,0-15.26-51.8-60.5-43.99,0,0-27.27,15.73-57.17,16.49Z"/><path class="cls-4" d="m447.4,1003.9s-28.13,13.2-38.44,12.92c-10.32-.28-62.84,25.97-62.84,25.97,0,0,28.72-34.91,19.04-49.47,0,0,36.19,21.87,82.25,10.59Z"/><path class="cls-4" d="m524.13,831.68l17.54-4.05s63,2.84,69.95,16.94l-54.83,20.51s-34.02-7.76-32.67-33.4Z"/><path class="cls-4" d="m600.5,875.12s27.66-11.25,45.81-13.18c0,0,29.15,19.92,39.16,20.47l-42.86,26.8s-16.5-1.91-20.27-10.71c-3.77-8.8-15.64-21.77-21.84-23.38Z"/><path class="cls-4" d="m611.62,844.57s9.52-7.76,42.64-2.91c0,0,18.27,12.42,22.32,13.36,0,0-28.18,4.8-30.28,6.92.25,1.12-5.35-1.65-12.89-7.33-5.95-4.48-21.8-10.05-21.8-10.05Z"/><path class="cls-4" d="m524.13,831.68s-33.83-5.72-45.93-15.68l20.29,22.43,25.64-6.75Z"/></svg>