<?xml version="1.0" encoding="UTF-8"?><svg id="Color1" xmlns="http://www.w3.org/2000/svg" xmlns:xlink="http://www.w3.org/1999/xlink" viewBox="0 0 1080 1137"><defs><style>.cls-1{fill:#011720;}.cls-2{fill:#03b184;}.cls-3{fill:#fff;}.cls-4{fill:#064862;}.cls-5{fill:#0c6b86;}.cls-6{fill:#48bcc4;}.cls-7{fill:none;stroke:#011720;stroke-miterlimit:10;}.cls-8{fill:url(#Degradado_sin_nombre_2);}</style><linearGradient id="Degradado_sin_nombre_2" x1="179.32" y1="761.3" x2="770.97" y2="761.3" gradientUnits="userSpaceOnUse"><stop offset="0" stop-color="#48bdc5"/><stop offset=".52" stop-color="#168ea3"/><stop offset=".78" stop-color="#0c6b87"/><stop offset=".99" stop-color="#0c6b87"/></linearGradient></defs><path class="cls-8" d="m508.14,1045s-71.57-135.88,75.72-149.37c147.29-13.48,202.27-50.83,183.6-112.03-18.67-61.2-174.26-53.94-256.21-40.45-81.94,13.48-186.71,24.89-218.87-20.75-32.16-45.64-105.8-191.9-113.06-244.8,0,0,31.49,243.76,134.51,283.7,103.02,39.94,233.72,14,306.33,9.85,72.61-4.15,127.59,10.37,119.29,36.3-8.3,25.93-49.79,50.83-128.62,36.3-78.83-14.52-177.37-9.34-183.6,72.61-6.22,81.94,80.91,128.62,80.91,128.62Z"/><path class="cls-4" d="m179.32,454.43s-21.26-229.03,0-235.44c21.26-6.41,577.24-52.05,637.41-26.12,60.16,25.93,120.32,351.64,100.62,396.24-19.71,44.6-20.98,78.97-146.37,98.61-125.39,19.64-442.44,46.74-474.26,0-31.82-46.74-84.2-169.66-100.79-319.03-16.6-149.37,375.49-145.22,492.71-145.22s153.2-17.25,170.99,225.8c0,0-20.59-173.94-63.12-185.35-42.53-11.41-284.21-6.22-367.2,0-82.98,6.22-215.75,25.93-210.57,107.88,5.19,81.94,54.98,292.51,100.62,303.92,45.64,11.41,497.89-12.45,530.05-66.39,32.16-53.94,36.3-99.58,24.89-189.82-11.41-90.24-37.34-197.08-63.27-203.31-25.93-6.22-416.99-18.67-574.65,35.27,0,0-75.72-2.79-57.05,202.95Z"/><path class="cls-1" d="m305.35,484.35c3.11,14.52,5.19,63.27,15.56,63.27s40.45,4.15,40.45-21.78-3.11-59.12-23.86-53.94c-20.75,5.19-32.16,11.41-25.93,11.41s31.6-9.34,33.43-5.71c1.83,3.63,13.24,51.35,7.02,56.53s-28.01,10.37-30.08,4.15c-2.07-6.22-16.6-53.94-16.6-53.94Z"/><path class="cls-1" d="m340.62,592.23c3.69,14.52,6.15,63.27,18.44,63.27s47.95,4.15,47.95-21.78-3.69-59.12-28.28-53.94c-24.59,5.19-38.11,11.41-30.73,11.41s37.45-9.34,39.62-5.71c2.17,3.63,15.7,51.35,8.32,56.53-7.38,5.19-33.19,10.37-35.65,4.15-2.46-6.22-19.67-53.94-19.67-53.94Z"/><path class="cls-1" d="m436.05,577.71c3.69,14.52,6.15,63.27,18.44,63.27s47.95,4.15,47.95-21.78-3.69-59.12-28.28-53.94c-24.59,5.19-38.11,11.41-30.73,11.41s37.45-9.34,39.62-5.71c2.17,3.63,15.7,51.35,8.32,56.53s-33.19,10.37-35.65,4.15c-2.46-6.22-19.67-53.94-19.67-53.94Z"/><path class="cls-1" d="m397.67,470.87c4.32,14.52,7.2,63.27,21.61,63.27s56.19,4.15,56.19-21.78-4.32-59.12-33.14-53.94c-28.81,5.19-44.66,11.41-36.02,11.41s43.89-9.34,46.43-5.71,18.4,51.35,9.75,56.53c-8.64,5.19-38.9,10.37-41.78,4.15-2.88-6.22-23.05-53.94-23.05-53.94Z"/><path class="cls-1" d="m276.31,369.21c3.11,14.52,5.19,63.27,15.56,63.27s40.45,4.15,40.45-21.78-3.11-59.12-23.86-53.94c-20.75,5.19-32.16,11.41-25.93,11.41s31.6-9.34,33.43-5.71c1.83,3.63,13.24,51.35,7.02,56.53-6.22,5.19-28.01,10.37-30.08,4.15-2.07-6.22-16.6-53.94-16.6-53.94Z"/><path class="cls-7" d="m404.6,420.11c-3.23,0-6.27-.08-8.95-.15-2.06-.05-3.89-.1-5.42-.1-11.29,0-15.6-25.87-19.06-46.65-1.2-7.2-2.23-13.42-3.37-17.24l1.61-.58c.2.48,20.2,47.77,23.04,53.91.3.65,1.14,1.21,2.44,1.6,7.96,2.45,30.82-1.75,38.12-6.13.83-.5,1.42-1.59,1.78-3.24,2.65-12.48-9.88-49.34-11.79-52.06-1.24-1.77-17.35,1.31-26.98,3.15-7.88,1.5-15.32,2.92-18.75,2.92-1.08,0-3.09,0-3.21-1.35-.34-3.82,28.09-9.79,39.08-11.77,8.19-1.47,15.03.02,20.32,4.44,9.3,7.78,13.83,24.25,13.83,50.34,0,5.49-1.83,10.07-5.45,13.59-8.26,8.05-24.28,9.29-37.23,9.29Zm-33.16-55.51c.46,2.55.93,5.36,1.42,8.34,3.18,19.08,7.53,45.22,17.37,45.22,1.54,0,3.39.05,5.46.1,13.13.33,35.13.9,44.93-8.66,3.27-3.19,4.93-7.35,4.93-12.36,0-25.56-4.32-41.59-13.21-49.03-4.88-4.08-11.24-5.45-18.92-4.07-20.87,3.76-33.85,7.86-37.02,9.68.22.02.51.03.85.03,3.27,0,10.63-1.41,18.43-2.89,16.69-3.19,26.95-4.94,28.71-2.44,2.54,3.62,14.76,40.69,12.06,53.4-.46,2.14-1.32,3.61-2.57,4.36-7.73,4.63-31.05,8.9-39.51,6.3-1.8-.55-2.97-1.4-3.49-2.52-2.1-4.54-13.51-31.4-19.45-45.44Z"/><path class="cls-1" d="m540.81,561.11c4.32,14.52,7.2,63.27,21.61,63.27s56.19,4.15,56.19-21.78-4.32-59.12-33.14-53.94c-28.81,5.19-44.66,11.41-36.02,11.41s43.89-9.34,46.43-5.71,18.4,51.35,9.75,56.53c-8.64,5.19-38.9,10.37-41.78,4.15s-23.05-53.94-23.05-53.94Z"/><path class="cls-1" d="m487.91,337.06c4.32,14.52,7.2,63.27,21.61,63.27s56.19,4.15,56.19-21.78-4.32-59.12-33.14-53.94c-28.81,5.19-44.66,11.41-36.02,11.41s43.89-9.34,46.43-5.71,18.4,51.35,9.75,56.53c-8.64,5.19-38.9,10.37-41.78,4.15-2.88-6.22-23.05-53.94-23.05-53.94Z"/><path class="cls-1" d="m649.73,542.44c4.32,14.52,7.2,63.27,21.61,63.27s56.19,4.15,56.19-21.78-4.32-59.12-33.14-53.94c-28.81,5.19-44.66,11.41-36.02,11.41s43.89-9.34,46.43-5.71c2.55,3.63,18.4,51.35,9.75,56.53-8.64,5.19-38.9,10.37-41.78,4.15-2.88-6.22-23.05-53.94-23.05-53.94Z"/><path class="cls-1" d="m769.01,526.88c4.32,14.52,7.2,63.27,21.61,63.27s56.19,4.15,56.19-21.78-4.32-59.12-33.14-53.94c-28.81,5.19-44.66,11.41-36.02,11.41s43.89-9.34,46.43-5.71c2.55,3.63,18.4,51.35,9.75,56.53-8.64,5.19-38.9,10.37-41.78,4.15-2.88-6.22-23.05-53.94-23.05-53.94Z"/><path class="cls-1" d="m728.56,303.87c4.32,14.52,7.2,63.27,21.61,63.27s56.19,4.15,56.19-21.78-4.32-59.12-33.14-53.94c-28.81,5.19-44.66,11.41-36.02,11.41s43.89-9.34,46.43-5.71,18.4,51.35,9.75,56.53c-8.64,5.19-38.9,10.37-41.78,4.15-2.88-6.22-23.05-53.94-23.05-53.94Z"/><path class="cls-1" d="m512.81,457.38c4.32,14.52,7.2,63.27,21.61,63.27s56.19,4.15,56.19-21.78-4.32-59.12-33.14-53.94-44.66,11.41-36.02,11.41,43.89-9.34,46.43-5.71c2.55,3.63,18.4,51.35,9.75,56.53-8.64,5.19-38.9,10.37-41.78,4.15-2.88-6.22-23.05-53.94-23.05-53.94Z"/><path class="cls-7" d="m668.07,510.35c-3.23,0-6.27-.08-8.95-.15-2.06-.05-3.89-.1-5.42-.1-11.3,0-15.6-25.87-19.06-46.65-1.2-7.2-2.23-13.41-3.37-17.23l1.62-.58c.2.48,20.2,47.77,23.04,53.91.3.65,1.14,1.21,2.44,1.6,7.97,2.45,30.82-1.75,38.12-6.13.83-.5,1.42-1.59,1.78-3.25,2.65-12.49-9.88-49.34-11.79-52.06-1.25-1.77-17.35,1.31-26.98,3.15-7.88,1.5-15.32,2.92-18.75,2.92-1.08,0-3.09,0-3.21-1.35-.34-3.82,28.09-9.79,39.07-11.77,8.2-1.47,15.03.02,20.32,4.44,9.3,7.78,13.83,24.25,13.83,50.34,0,5.49-1.83,10.07-5.45,13.59-8.26,8.05-24.28,9.3-37.23,9.3Zm-33.16-55.52c.46,2.55.93,5.36,1.42,8.33,3.18,19.08,7.53,45.22,17.37,45.22,1.54,0,3.39.05,5.46.1,13.15.34,35.13.89,44.93-8.66,3.27-3.19,4.93-7.35,4.93-12.36,0-25.56-4.32-41.59-13.21-49.03-4.88-4.08-11.25-5.45-18.92-4.07-20.87,3.76-33.85,7.86-37.02,9.68.22.02.51.03.85.03,3.27,0,10.63-1.41,18.43-2.89,16.69-3.19,26.95-4.94,28.71-2.44,2.54,3.62,14.76,40.69,12.06,53.4-.45,2.14-1.32,3.61-2.57,4.36-7.72,4.64-31.04,8.9-39.51,6.3-1.8-.55-2.97-1.4-3.49-2.53-2.1-4.54-13.51-31.4-19.45-45.44Z"/><path class="cls-7" d="m646.29,386.91c-3.23,0-6.27-.08-8.95-.15-2.06-.05-3.89-.1-5.42-.1-11.3,0-15.6-25.87-19.06-46.65-1.2-7.2-2.23-13.41-3.37-17.23l1.62-.58c.2.48,20.2,47.77,23.04,53.91.3.65,1.14,1.21,2.44,1.6,7.96,2.45,30.82-1.75,38.12-6.13.83-.5,1.42-1.59,1.78-3.25,2.65-12.49-9.88-49.34-11.79-52.06-1.25-1.77-17.35,1.31-26.98,3.15-7.88,1.5-15.32,2.92-18.75,2.92-1.08,0-3.09,0-3.21-1.35-.34-3.82,28.09-9.79,39.07-11.77,8.2-1.47,15.03.02,20.32,4.44,9.3,7.78,13.83,24.25,13.83,50.34,0,5.49-1.83,10.07-5.45,13.59-8.26,8.05-24.28,9.29-37.23,9.29Zm-33.16-55.52c.46,2.55.93,5.36,1.42,8.33,3.18,19.08,7.53,45.22,17.37,45.22,1.54,0,3.39.05,5.46.1,13.14.34,35.13.9,44.93-8.66,3.27-3.19,4.93-7.35,4.93-12.36,0-25.56-4.32-41.59-13.21-49.03-4.88-4.08-11.25-5.45-18.92-4.07-20.88,3.76-33.85,7.86-37.02,9.68.22.02.51.03.85.03,3.27,0,10.63-1.41,18.43-2.89,16.69-3.19,26.95-4.94,28.71-2.44,2.54,3.62,14.76,40.69,12.06,53.4-.45,2.14-1.32,3.61-2.57,4.36-7.72,4.63-31.05,8.9-39.51,6.3-1.8-.55-2.97-1.4-3.49-2.52-2.1-4.54-13.51-31.4-19.45-45.44Z"/><path class="cls-1" d="m749.3,432.49c4.32,14.52,7.2,63.27,21.61,63.27s56.19,4.15,56.19-21.78-4.32-59.12-33.14-53.94c-28.81,5.19-44.66,11.41-36.02,11.41s43.89-9.34,46.43-5.71c2.55,3.63,18.4,51.35,9.75,56.53-8.64,5.19-38.9,10.37-41.78,4.15-2.88-6.22-23.05-53.94-23.05-53.94Z"/><path class="cls-5" d="m802.5,545.37c.2,6.6,10.36,8.42,4.53,10.36-5.83,1.94-12.3-5.18-11.65-14.89.65-9.71,12.95-14.24,24.6-6.47,11.65,7.77,11.65,29.78,5.83,34.96-5.83,5.18-31.08,7.77-38.2-1.94-7.12-9.71-8.42-27.84-3.24-31.08,5.18-3.24,2.59-3.88,3.88,11.65,1.29,15.54,15.75,13.79,24.87,12.56,9.12-1.23,7.18-10.94,6.53-14.83s-17.48-11.01-17.16-.32Z"/><path class="cls-6" d="m542.15,476.08c.2,6.6,10.36,8.42,4.53,10.36-5.83,1.94-12.3-5.18-11.65-14.89.65-9.71,12.95-14.24,24.6-6.47,11.65,7.77,11.65,29.78,5.83,34.96-5.83,5.18-31.08,7.77-38.2-1.94-7.12-9.71-8.42-27.84-3.24-31.08,5.18-3.24,2.59-3.88,3.88,11.65,1.29,15.54,15.75,13.79,24.87,12.56,9.12-1.23,7.18-10.94,6.53-14.83-.65-3.88-17.48-11.01-17.16-.32Z"/><path class="cls-2" d="m370.59,357.92c-.97,10.65-5.35,37.43,7.13,41.88,12.48,4.46,47.78,13.37,50.62,0,2.85-13.37,8.74-43.93,0-50.04-8.74-6.1-20.32-11.45-30.13-3.43-9.8,8.02-10.69,32.08-1.78,32.97,8.91.89,13.37-6.24,7.13-10.69,0,0,15.15-8.02,13.37,11.58-1.78,19.6-35.64,14.26-33.86,8.02,1.78-6.24,4.46-32.08-1.78-36.54-6.24-4.46-9.8-3.56-10.69,6.24Z"/><path class="cls-5" d="m421.5,520.51s22.01-8.42,21.37-14.24c-.65-5.83-1.28-10.75-10.68-14.44-9.4-3.69-11.18-20.02-1.55-18.33,9.63,1.69,1.37,3,0,6.23-1.37,3.23,1.89,11.14,12.24,3.3,10.35-7.84-1.29-26.91-10.69-26.76-9.4.15-23.88,8.26-20.4,22.16,5.83,23.31,36.91,29.14,9.71,42.09Z"/><path class="cls-5" d="m577.35,556.93s5.18,5.18-7.12,18.13c-12.3,12.95-11.01,37.55,6.47,33.67,17.48-3.88-3.01-15.67,1.73-32.44,4.74-16.77-1.08-19.36-1.08-19.36Z"/><path class="cls-4" d="m581.24,575.71s20.07,10.36,15.54,22.66c-4.53,12.3-11.51,2.66-14.17-7.41-2.66-10.07-1.37-15.25-1.37-15.25Z"/><polygon class="cls-6" points="633.72 331.69 600.7 333.63 635.66 351.76 645.79 394.02 655.08 352.41 688.11 334.93 658.97 331.69 644.4 290.74 633.72 331.69"/><path class="cls-6" d="m660.41,446.54c4.14,2.96-4.87,9.26-8.77,3.9-3.9-5.36-14.93-10.23-19.64-3.9-4.71,6.33,2.01,10.81,8.88,10.76,6.87-.05-2.88,2.39-7.26,3.85-4.38,1.46-13.64,7.46-6.82,14.2s15.58,3.49,21.18,0c5.61-3.49,12.91-6.41,20.71-3.49,7.79,2.92,28.29,14.83,40.69,7.42,12.4-7.42,2.17-16.67-.75-17.65-2.92-.97-8.28.49-11.2,0-2.92-.49-7.79-3.41-3.41-6.33,4.38-2.92,10.23-1.95,9.26-7.31-.97-5.36-9.26-7.79-12.18-5.85,0,0-3.9-16.56-19.48-13.15-15.59,3.41-14.61,15.1-11.2,17.54Z"/><path class="cls-6" d="m673.07,478.69c-3.4-2.72-13.66-3.9-15.11,0-1.45,3.9,3.59,5.01,6.43,2.99,2.84-2.02,3.68-1.39,6.43,0,2.74,1.39,4.69-1.04,2.26-2.99Z"/><path class="cls-6" d="m665.94,485c-1.62-1.38-4.56,2.95-2.61,3.43,1.95.49,7.17.44,2.61-3.43Z"/><path class="cls-6" d="m665.94,497.01c-1.77-1.19-3.1,1.65-1.64,2.63,1.46.97,4.25-.87,1.64-2.63Z"/><path class="cls-4" d="m477.66,591.86c-8.82-6.82-18.34-9.05-33.5,3.41-4.77,3.92-13.52,11.52-1.88,20.45,11.64,8.93,34.56-3.41,37.5-6.94,2.94-3.53,6.7-10.11-2.12-16.93Zm-6.82,15.4c-6.58,3.41-12.42,7.17-20.44,0-8.01-7.17,1.86-11.99,7.51-13.28,5.64-1.29,11.4-.82,15.16,3.17,2.95,3.13,4.35,6.7-2.23,10.11Z"/><path class="cls-3" d="m457.91,593.98c-5.64,1.29-15.52,6.11-7.51,13.28,8.01,7.17,13.85,3.41,20.44,0,6.58-3.41,5.18-6.97,2.23-10.11-3.76-4-9.52-4.47-15.16-3.17Z"/><path class="cls-5" d="m458.81,595.17c-4.21.96-11.57,4.56-5.6,9.9,5.97,5.35,10.33,2.54,15.23,0,4.91-2.54,3.86-5.2,1.67-7.54-2.8-2.98-7.1-3.33-11.3-2.37Z"/><path class="cls-3" d="m464.29,598.27c3.15,1.8,2.26,2.25,0,3.91-2.26,1.67-5.09.49-6.5-1.33s3.94-4.05,6.5-2.58Z"/><path class="cls-4" d="m814.18,435.38c-14.09-10.9-29.3-14.46-53.54,5.45-7.62,6.26-21.6,18.41-3.01,32.69,18.6,14.28,55.23-5.45,59.92-11.08,4.7-5.64,10.71-16.16-3.38-27.05Zm-10.9,24.61c-10.52,5.45-19.85,11.46-32.66,0-12.8-11.46,2.98-19.16,11.99-21.23,9.02-2.07,18.22-1.31,24.23,5.07,4.71,5.01,6.95,10.71-3.57,16.16Z"/><path class="cls-3" d="m782.62,438.76c-9.02,2.07-24.8,9.77-11.99,21.23,12.8,11.46,22.14,5.45,32.66,0,10.52-5.45,8.28-11.15,3.57-16.16-6.01-6.39-15.22-7.14-24.23-5.07Z"/><path class="cls-5" d="m784.07,440.66c-6.72,1.54-18.49,7.28-8.94,15.82,9.54,8.54,16.5,4.06,24.35,0,7.84-4.06,6.18-8.31,2.66-12.04-4.48-4.76-11.34-5.32-18.07-3.78Z"/><path class="cls-3" d="m792.81,445.63c5.03,2.88,3.62,3.59,0,6.25-3.62,2.66-8.13.79-10.38-2.13-2.25-2.91,6.29-6.47,10.38-4.13Z"/><path class="cls-3" d="m108.71,375.72c5.54,15.11,30.75,24.55,18.85,50.73-11.9,26.18-15.3,29.17-47.6,28.53-32.3-.64-71.4,40.15-49.3,82.65,22.1,42.5,78.63,13.18,100.51-7.01,21.88-20.19,62.68-43.99,79.68-18.49,17,25.5,11.9,83.3,78.2,66.3,66.3-17,44.2-71.4,66.3-74.8s73.1-6.8,68-62.9c-5.1-56.1-28.31-87.04-67.7-80.92-39.39,6.12-52.99,45.22-73.39,21.42-20.4-23.8-34-54.4-86.7-61.2s-105.69,4.26-86.85,55.68Z"/><path class="cls-1" d="m267.21,583.26c-32.04,0-40.31-24.52-47.76-46.59-3-8.88-5.83-17.28-10.03-23.58-3.92-5.87-9.44-9.27-16.41-10.11-17.94-2.14-43.41,12.97-60.67,28.9-14.63,13.5-47.75,33.19-74.32,28.54-12.73-2.23-22.45-9.63-28.89-22-9.58-18.43-8.85-38.26,2.06-55.83,11.11-17.9,30.66-29.68,48.79-29.33,31.97.64,34.64-2.53,46-27.52,7.6-16.73-.83-26.17-8.99-35.3-4.12-4.61-8.01-8.96-9.91-14.14-6.18-16.87-5.2-30.58,2.93-40.76,6.16-7.71,26.84-24.82,85.75-17.21,44.27,5.71,61.22,27.73,77.61,49.03,3.43,4.46,6.67,8.66,10.17,12.75,10.56,12.32,18.57,6.54,31.84-3.03,10.05-7.25,22.56-16.27,39.98-18.97,15.43-2.4,28.78.69,39.65,9.18,16.45,12.85,26.84,38.19,30.03,73.28,4.92,54.17-40.52,60.62-64.94,64.09-1.6.23-3.11.44-4.51.66-6.72,1.03-8.72,7.53-11.68,18.91-4.64,17.87-11.66,44.88-54.45,55.85-8.5,2.18-15.86,3.16-22.27,3.16Zm-77.82-83.92c1.37,0,2.71.08,4.03.23,8.02.96,14.36,4.86,18.86,11.61,4.45,6.68,7.35,15.28,10.43,24.39,8.87,26.29,18.03,53.47,65.91,41.2,40.83-10.47,47.28-35.27,51.98-53.38,2.79-10.74,5.2-20.02,14.48-21.45,1.41-.22,2.93-.43,4.55-.66,23.28-3.31,66.63-9.47,62-60.38-3.1-34.12-13.03-58.63-28.72-70.88-10.09-7.88-22.55-10.74-37.01-8.49-16.61,2.58-28.75,11.33-38.5,18.37-13.32,9.61-23.84,17.19-36.46,2.48-3.56-4.16-6.98-8.6-10.29-12.89-15.96-20.74-32.46-42.19-75.32-47.72-39.67-5.12-70.56.84-82.62,15.95-7.33,9.17-8.13,21.77-2.39,37.43h0c1.67,4.56,5.35,8.67,9.24,13.03,8.48,9.49,18.09,20.24,9.56,39.01-12.02,26.44-15.94,30.2-49.2,29.53-.24,0-.47,0-.71,0-16.46,0-34.91,11.3-45.09,27.71-5.94,9.56-14.08,29.08-1.94,52.44,5.91,11.37,14.81,18.17,26.43,20.2,25.35,4.43,57.24-14.63,71.39-27.68,15.47-14.27,39.67-30.02,59.38-30.02Z"/><path class="cls-2" d="m115.66,493.44s18.3-6,6.6-15.75-27,7.25-27,20.85,39.1,17,56.1,8.5c0,0-22.1,20.4-45.9,15.3-23.8-5.1-45.9-27.07-25.5-47.53,20.4-20.47,49.96-11.83,53.88,0,3.92,11.83-4.58,23.73-18.18,18.63Z"/><path class="cls-2" d="m166.65,444.14s-15.02-8.93-11.76,5.73c3.26,14.67,28.1,7.51,28.43-4.21.33-11.72-.32-16.5-14.45-20.06-14.12-3.56-48.41-6.44-49.11,16.25-.71,22.69,16.29,31.19,28.19,27.79,11.9-3.4,31.75-8.76,35.42.72,3.67,9.48-8.23,24.78-23.53,31.58,0,0,28.73-5.33,31.36-15.41,2.63-10.09-3.15-31.19-30.01-24.04-26.86,7.15-30.26-13.24-26.86-23.44,3.4-10.2,20.4-13.6,32.3,5.1Z"/><path class="cls-4" d="m188.39,395.41s-18.14,4.37-15.26-7.15c2.88-11.52,15.84-10.08,23.04-8.64s23.04,20.16,4.32,30.24c-18.72,10.08-44.77,10.23-51.19-19.37-6.42-29.6,48.64-22.88,60-11.84,11.35,11.04,15.67,25.44,5.59,45.6-10.08,20.16,11.52,64.81,54.73,61.93,43.2-2.88,53.28-11.52,63.37-24.48,10.08-12.96,29.63-33.25,50.82-33.91,21.19-.66,28.39-16.5,16.87-32.34-11.52-15.84-30.24-34.56-54.73-18.72-24.48,15.84-40.32,38.88-64.81,20.16-24.48-18.72-46.08-56.17-86.41-46.08-40.32,10.08-64.81,24.48-56.17,46.08,8.64,21.6,56.44,27.26,49.82-1.49Z"/><polygon class="cls-6" points="66.71 197.97 69.35 174.16 76.23 195.32 96.86 191.62 78.11 203 73.06 229.18 68.82 205.37 46.58 201.67 66.71 197.97"/><polygon class="cls-6" points="108.04 268.5 111.84 254.29 114.07 267.78 126.94 267.43 114.5 272.61 109.01 288.05 108.64 273.2 95.47 268.9 108.04 268.5"/><polygon class="cls-6" points="37.05 266.38 36.39 251.68 42.58 263.87 54.75 259.65 44.45 268.35 43.88 284.72 39.04 270.67 25.19 270.55 37.05 266.38"/><polygon class="cls-6" points="996.11 535.08 998.75 511.28 1005.63 532.44 1026.26 528.73 1007.51 540.11 1002.46 566.29 998.22 542.49 975.98 538.79 996.11 535.08"/><polygon class="cls-6" points="1037.44 605.62 1041.24 591.4 1043.47 604.89 1056.34 604.55 1043.9 609.73 1038.42 625.16 1038.04 610.31 1024.87 606.01 1037.44 605.62"/><polygon class="cls-6" points="966.45 603.49 965.79 588.8 971.98 600.98 984.15 596.77 973.85 605.46 973.28 621.83 968.44 607.79 954.59 607.66 966.45 603.49"/><path class="cls-7" d="m329.84,490.04c-40.77,9.27-61.2,37.4-59.5,81.6,1.7,44.2-11.9,59.5-49.3,57.8-37.4-1.7-93.5,8.5-93.5,47.6s56.1,37.4,76.5,18.7c20.4-18.7,75.71-32.3,82.05-10.2s24.51,81.8,112.32,51.95c87.81-29.85,24.91-63.85,31.71-80.85,6.8-17,32.3-25.5,44.2-11.9s71.4,34,62.9-15.3c-8.5-49.3-45.9-62.9-69.7-59.5-23.8,3.4-32.3,34-5.1,35.7,27.2,1.7,25.5-13.6,25.5-13.6,0,0,25.5,40.8-5.1,35.7-30.6-5.1-51-8.5-47.6-57.8,3.4-49.3-30.6-96.9-105.39-79.9Z"/><path class="cls-6" d="m327.82,499.22c-37.08,8.43-55.66,34.01-54.11,74.21,1.55,40.2-10.82,54.11-44.84,52.57-34.01-1.55-85.04,7.73-85.04,43.29s51.02,34.01,69.57,17.01c18.55-17.01,68.86-29.38,74.63-9.28,5.77,20.1,22.3,74.4,102.16,47.25,79.86-27.15,22.66-58.07,28.84-73.53,6.18-15.46,29.38-23.19,40.2-10.82,10.82,12.37,64.94,30.92,57.21-13.91s-41.74-57.21-63.39-54.11c-21.65,3.09-29.38,30.92-4.64,32.47,24.74,1.55,23.19-12.37,23.19-12.37,0,0,23.19,37.11-4.64,32.47-27.83-4.64-46.38-7.73-43.29-52.57,3.09-44.84-27.83-88.13-95.86-72.67Z"/><path class="cls-3" d="m360.44,646.43c-17.45,11.1-32.3-3.4-42.5-10.2-10.2-6.8-32.3-1.7-34,13.6-1.7,15.3-3.4,15.3,15.3,37.4,18.7,22.1,32.3,42.5,73.1,30.6,40.8-11.9,48.6-29.34,40.45-54.62-8.15-25.28-33.65-28.68-52.35-16.78Z"/><path class="cls-3" d="m374.3,563.97s-16.36-1.72-15.58,1.29c.78,3.01,5.14,3.87,8.57,4.09s5.89,2.94-.79,4.05-27.25-.83-35.35-1.47c-8.1-.65-37.54,1.08-39.41,14.42-1.87,13.35,18.07,19.16,37.07,17.65,19-1.51,75.08-9.26,76.48-3.23,1.4,6.03-34.11,11.41-56.08,9.26-21.96-2.15-46.11.86-59.04-5.38-12.93-6.24-20.92-10.99-11.31-17.66,0,0-3.72,5.06,2.05,5.28s5.76-7.75,3.89-9.04c-1.87-1.29-15.58-2.15-15.89,8.18-.31,10.33,21.96,18.3,33.33,21.1,11.37,2.8,56.39,5.81,74.77,4.52,18.38-1.29,51.09-8.61,47.66-22.39-3.43-13.78-36.14-10.12-44.7-7.32-8.57,2.8-42.06,9.47-55.3,6.24-13.24-3.23-19.47-6.46-13.4-11.62,6.07-5.17,37.7-2.37,45.02-1.72,7.32.65,21.96,0,24.46-5.6,2.49-5.6-.47-8.4-6.46-10.66Z"/><path class="cls-5" d="m372.34,654.93c-12.65,8.43-22.97,15.29-39.53,5.95-16.56-9.35-30.16-5.95-30.16,7.65s18.7,27.2,40.8,27.2,45.18-17.05,42.99-25.52c-2.19-8.47-8.99-18.67-14.09-15.27Z"/><path class="cls-3" d="m360.44,671.93c-18.7,0-32.79-4.54-28.29,5.38,4.49,9.92,38.49-5.38,28.29-5.38Z"/><path class="cls-6" d="m759.07,307.17c21.37,15.26-25.15,47.78-45.27,20.12-20.12-27.66-77.08-52.81-101.41-20.12-24.33,32.69,10.39,55.81,45.84,55.57,35.45-.24-14.84,12.33-37.48,19.88-22.63,7.54-70.42,38.52-35.21,73.33s80.41,18,109.37,0c28.95-18,66.68-33.09,106.92-18,40.24,15.09,146.07,76.57,210.1,38.28,64.03-38.28,11.21-86.07-3.88-91.1-15.09-5.03-42.75,2.51-57.84,0-15.09-2.51-40.24-17.6-17.6-32.69,22.63-15.09,52.81-10.06,47.78-37.72-5.03-27.66-47.78-40.24-62.87-30.18,0,0-20.12-85.51-100.6-67.9-80.48,17.6-75.45,77.96-57.84,90.54Z"/><path class="cls-3" d="m853.08,340.69s-32.58-2.48-31.02,1.86c1.55,4.34,10.24,5.58,17.06,5.89,6.83.31,11.74,4.24-1.58,5.84-13.31,1.6-54.27-1.19-70.4-2.12-16.13-.93-74.77,1.55-78.49,20.79-3.72,19.24,35.99,27.61,73.84,25.44,37.85-2.17,149.54-13.34,152.33-4.65s-67.94,16.44-111.69,13.34c-43.75-3.1-91.83,1.24-117.58-7.76-25.75-9-41.66-15.83-22.54-25.44,0,0-7.4,7.3,4.08,7.61s11.48-11.17,7.76-13.03c-3.72-1.86-31.02-3.1-31.65,11.79-.62,14.89,43.75,26.37,66.39,30.4,22.65,4.03,112.31,8.38,148.92,6.52,36.61-1.86,101.76-12.41,94.94-32.27s-71.98-14.58-89.04-10.55c-17.06,4.03-83.77,13.65-110.14,9-26.37-4.65-38.78-9.31-26.68-16.75,12.1-7.45,75.08-3.41,89.66-2.48,14.58.93,43.75,0,48.71-8.07,4.96-8.07-.93-12.1-12.88-15.36Z"/><path class="cls-3" d="m1005.03,299.93s-44.96,36.21-79.45,8.15c-34.49-28.07-55.61-67.02-101.38-61.71-45.76,5.3-55.18,42.65-43.6,55.51,11.58,12.86,40.75,28.41,61.74,9.46,0,0,6.21-4.9-7.35-12.83,0,0-24.55,17.32-35.65,2.46-11.09-14.86-6.92-34.56,11.83-38.14,18.75-3.58,50.16,1.67,67.56,28.13,17.4,26.46,91.51,69.22,126.29,8.98Z"/><path class="cls-5" d="m532.15,407.23c-7.59,22.11-15.31,55.61-44.21,36.91-28.9-18.7-127.49-27.2-147.89,23.8-20.4,51-1.7,108.79,61.2,95.2,62.9-13.6,78.2-28.9,100.29-3.4,22.1,25.5,81.52,48.27,85.81,16.49,4.29-31.79,4.24-58.52,17.01-57.05,12.78,1.47,28.07,15.07,53.57,28.67,25.5,13.6,83.3,25.5,98.6-28.9,15.3-54.4-3.4-71.4-25.5-85-22.1-13.6-34-8.5-54.4-11.9-20.4-3.4-3.4-18.7-22.1-34-18.7-15.3-96.87-55.12-122.38,19.19Z"/><path class="cls-2" d="m698.65,466.48s24.76,15.86-6.06,29.91c-30.82,14.05-30.82-39.84-18.05-49.77,12.76-9.93,29.95-19.86,56.11,0,26.15,19.86,19.06,83.68-14.98,92.19-34.04,8.51-89.35-11.35-93.6-39.71s11.65-71.03,40.57-70.26c28.92.77-13.24,10.34-15.56,26.83-2.32,16.49.52,40.6,24.63,49.11,24.11,8.51,43.97,5.67,43.97-9.93s-4.25-35.46-17.02-28.36Z"/><path class="cls-6" d="m556.91,433.71s8.5-12.75,14.16-11.33c5.66,1.42,9.91,14.16,2.83,19.83-7.08,5.66-19.86,15.3-30.47,8.36-10.6-6.94-15.36-31.95,7.55-54.14s52.65-12.28,62.57-2.36,9.91,25.49-5.66,43.9c-15.58,18.41-24.07,35.4-18.41,49.57,5.66,14.16,14.65,14.06,2.37,33.94-12.28,19.88-3.78,43.95-32.11,45.37-28.32,1.42-39.65-21.24-39.65-21.24,0,0,33.99,19.83,45.32,9.91,11.33-9.91-.24-14.66,4.84-24.33,5.07-9.66,13.57-6.83,9.32-25.24-4.25-18.41-11.22-38.6,2.18-51.87,13.4-13.27,24.73-30.27,13.4-41.6-11.33-11.33-39.65,0-38.24,21.24Z"/><path class="cls-4" d="m501.68,489.35c-4.72,11.48-26.83,12.7-28.11-6.92s31.99-22.27,45.3-16.95c13.31,5.32,31.94,38.6,6.65,59.89-25.29,21.3-31.94,3.99-43.92,3.99s-23.96,13.31-27.95,1.33c-3.99-11.98,13.31-27.95,22.63-22.63,9.32,5.32,26.62,15.97,29.28-1.33,2.66-17.3-1.11-24.14-3.88-17.39Z"/><path class="cls-3" d="m453.94,447.54c-8.75-8.75-20.4,1.7-22.1,15.3s-18.7,20.4-15.3,27.2c3.4,6.8,18.25,8.25,18.47-5.23s.22-20.27,10.42-18.57c10.2,1.7,17-10.2,8.5-18.7Z"/><path class="cls-3" d="m452.24,490.04c-3.26-3.92-11.7.31-10.95,8.66.75,8.34,19.45,1.54,10.95-8.66Z"/><path class="cls-3" d="m362.22,462.34c-2.76,10.47-12.85,19.56,0,24.66,12.85,5.1,31.11-22.97,22.99-29.06-8.12-6.09-21.3-2.03-22.99,4.4Z"/><path class="cls-4" d="m365.1,465.01c-1.9,7.23-8.87,13.51,0,17.03,8.87,3.52,21.49-15.86,15.88-20.07-5.6-4.2-14.71-1.4-15.88,3.04Z"/><path class="cls-3" d="m368.35,469.05c-.94,3.58-4.39,6.69,0,8.43,4.39,1.74,10.63-7.85,7.86-9.93-2.77-2.08-7.28-.69-7.86,1.5Z"/><path class="cls-3" d="m349.18,497.96c-5.78,6.83-7.35,34.92,3.68,36.76s19.36-4.12,18.68-23.02c-.67-18.89-14.27-23.3-22.36-13.75Z"/><path class="cls-4" d="m352.15,503.11c-3.93,4.64-5,23.74,2.5,24.99,7.5,1.25,13.16-2.8,12.7-15.64-.46-12.84-9.7-15.84-15.2-9.34Z"/><path class="cls-3" d="m355.15,508.17c-2.11,2.5-2.69,12.76,1.34,13.43,4.03.67,7.07-1.51,6.82-8.41s-5.21-8.51-8.17-5.02Z"/><path class="cls-7" d="m532.15,407.23c-7.59,22.11-15.31,55.61-44.21,36.91-28.9-18.7-127.49-27.2-147.89,23.8-20.4,51-1.7,108.79,61.2,95.2,62.9-13.6,78.2-28.9,100.29-3.4,22.1,25.5,81.52,48.27,85.81,16.49,4.29-31.79,4.24-58.52,17.01-57.05,12.78,1.47,28.07,15.07,53.57,28.67,25.5,13.6,83.3,25.5,98.6-28.9,15.3-54.4-3.4-71.4-25.5-85-22.1-13.6-34-8.5-54.4-11.9-20.4-3.4-3.4-18.7-22.1-34-18.7-15.3-96.87-55.12-122.38,19.19Z"/><path class="cls-7" d="m698.65,466.48s24.76,15.86-6.06,29.91c-30.82,14.05-30.82-39.84-18.05-49.77,12.76-9.93,29.95-19.86,56.11,0,26.15,19.86,19.06,83.68-14.98,92.19-34.04,8.51-89.35-11.35-93.6-39.71s11.65-71.03,40.57-70.26c28.92.77-13.24,10.34-15.56,26.83-2.32,16.49.52,40.6,24.63,49.11,24.11,8.51,43.97,5.67,43.97-9.93s-4.25-35.46-17.02-28.36Z"/><path class="cls-7" d="m556.91,433.71s8.5-12.75,14.16-11.33c5.66,1.42,9.91,14.16,2.83,19.83-7.08,5.66-19.86,15.3-30.47,8.36-10.6-6.94-15.36-31.95,7.55-54.14s52.65-12.28,62.57-2.36,9.91,25.49-5.66,43.9c-15.58,18.41-24.07,35.4-18.41,49.57,5.66,14.16,14.65,14.06,2.37,33.94-12.28,19.88-3.78,43.95-32.11,45.37-28.32,1.42-39.65-21.24-39.65-21.24,0,0,33.99,19.83,45.32,9.91,11.33-9.91-.24-14.66,4.84-24.33,5.07-9.66,13.57-6.83,9.32-25.24-4.25-18.41-11.22-38.6,2.18-51.87,13.4-13.27,24.73-30.27,13.4-41.6-11.33-11.33-39.65,0-38.24,21.24Z"/><path class="cls-7" d="m501.68,489.35c-4.72,11.48-26.83,12.7-28.11-6.92s31.99-22.27,45.3-16.95c13.31,5.32,31.94,38.6,6.65,59.89-25.29,21.3-31.94,3.99-43.92,3.99s-23.96,13.31-27.95,1.33c-3.99-11.98,13.31-27.95,22.63-22.63,9.32,5.32,26.62,15.97,29.28-1.33,2.66-17.3-1.11-24.14-3.88-17.39Z"/><path class="cls-7" d="m453.94,447.54c-8.75-8.75-20.4,1.7-22.1,15.3s-18.7,20.4-15.3,27.2c3.4,6.8,18.25,8.25,18.47-5.23s.22-20.27,10.42-18.57c10.2,1.7,17-10.2,8.5-18.7Z"/><path class="cls-7" d="m452.24,490.04c-3.26-3.92-11.7.31-10.95,8.66.75,8.34,19.45,1.54,10.95-8.66Z"/><path class="cls-7" d="m852.54,340.92s-32.58-2.48-31.02,1.86c1.55,4.34,10.24,5.58,17.06,5.89,6.83.31,11.74,4.24-1.58,5.84-13.31,1.6-54.27-1.19-70.4-2.12-16.13-.93-74.77,1.55-78.49,20.79-3.72,19.24,35.99,27.61,73.84,25.44,37.85-2.17,149.54-13.34,152.33-4.65,2.79,8.69-67.94,16.44-111.69,13.34-43.75-3.1-91.83,1.24-117.58-7.76-25.75-9-41.66-15.83-22.54-25.44,0,0-7.4,7.3,4.08,7.61s11.48-11.17,7.76-13.03c-3.72-1.86-31.02-3.1-31.65,11.79-.62,14.89,43.75,26.37,66.39,30.4,22.65,4.03,112.31,8.38,148.92,6.52,36.61-1.86,101.76-12.41,94.94-32.27-6.83-19.86-71.98-14.58-89.04-10.55-17.06,4.03-83.77,13.65-110.14,9-26.37-4.65-38.78-9.31-26.68-16.75,12.1-7.45,75.08-3.41,89.66-2.48,14.58.93,43.75,0,48.71-8.07,4.96-8.07-.93-12.1-12.88-15.36Z"/><path class="cls-7" d="m1004.49,300.17s-44.96,36.21-79.45,8.15c-34.49-28.07-55.61-67.02-101.38-61.71-45.76,5.3-55.18,42.65-43.6,55.51,11.58,12.86,40.75,28.41,61.74,9.46,0,0,6.21-4.9-7.35-12.83,0,0-24.55,17.32-35.65,2.46-11.09-14.86-6.92-34.56,11.83-38.14,18.75-3.58,50.16,1.67,67.56,28.13,17.4,26.46,91.51,69.22,126.29,8.98Z"/></svg>