<?xml version="1.0" encoding="UTF-8"?><svg id="Color1" xmlns="http://www.w3.org/2000/svg" xmlns:xlink="http://www.w3.org/1999/xlink" viewBox="0 0 1080 1137"><defs><style>.cls-1,.cls-2,.cls-3{fill:none;}.cls-4{fill:#011720;}.cls-5{fill:#03b083;}.cls-6{fill:#fff;}.cls-7{fill:#064862;}.cls-8{fill:#0c6b86;}.cls-9{fill:#48bcc4;}.cls-2{stroke-width:2px;}.cls-2,.cls-3{stroke:#011720;stroke-miterlimit:10;}.cls-10{fill:url(#Degradado_sin_nombre_34);}</style><radialGradient id="Degradado_sin_nombre_34" cx="620.51" cy="707.84" fx="620.51" fy="707.84" r="140.94" gradientUnits="userSpaceOnUse"><stop offset="0" stop-color="#48bdc5"/><stop offset=".52" stop-color="#168ea3"/><stop offset=".78" stop-color="#0c6b87"/><stop offset=".99" stop-color="#0c6b87"/></radialGradient></defs><path class="cls-10" d="m549.49,861.65c8.78,32.53,146.46,12.03,154.08-21.38,7.62-33.41,36.05-298.79,9.75-302.23-26.3-3.44-177.66,16.02-190.41,24.25-12.75,8.23-6.42,177.13,26.58,299.36Z"/><path class="cls-6" d="m729.59,832.44c-37.03,5.29-55.63,21.1-97.82,17.26-42.2-3.84-128.51,8.63-154.41,37.4-25.89,28.77,34.51,18.29,69.04,32.16,34.54,13.87,71.66,29.28,91.46,58.02,19.8,28.74,33.23,51.76,33.23,65.19s-4.8,54.67,6.71,54.67-9.73-69.33,8.08-79.74c17.81-10.41,55-50.69,80.04-52.61,25.05-1.92,67.24-32.61,67.24-65.22s10.55-48.91-29.73-53.71c-40.28-4.8-46.99-17.26-73.85-13.43Z"/><path class="cls-8" d="m677.8,1100c-2.05,0-3.91-.83-5.4-2.39-5.96-6.26-5.59-24.02-4.56-44.87.21-4.16.38-7.75.38-10.28,0-14.24-17.49-41.45-32.72-63.56-19.78-28.72-58.81-44.39-90.17-56.99-11.96-4.8-27.38-6.63-40.99-8.25-18.17-2.15-32.52-3.86-35.57-11.96-1.69-4.5.36-9.76,6.45-16.53,16.14-17.93,52.44-27.63,72.64-31.82,28.88-5.98,61.91-8.54,84.16-6.52,25.78,2.34,42.68-2.84,60.57-8.33,11.04-3.39,22.46-6.89,36.59-8.91h0c15.46-2.21,24.67.8,36.33,4.61,9.12,2.98,20.46,6.69,38.26,8.81,35.38,4.21,34.42,18.44,32.96,39.99-.33,4.92-.71,10.5-.71,16.56,0,21.04-15.79,38.02-25.21,46.27-13.96,12.23-31.5,20.79-44.68,21.8-15.95,1.22-38.09,19.71-55.87,34.57-9.08,7.58-16.92,14.13-22.94,17.66-8.42,4.92-6.08,29.68-4.38,47.77,1.6,16.95,2.33,26.73-1.2,30.61-1.05,1.15-2.41,1.76-3.95,1.76Zm-63.22-248.15c-46.05,0-113.65,13.34-135.1,37.17-4.26,4.74-6.16,8.53-5.35,10.68,1.82,4.84,16.59,6.59,30.88,8.29,13.96,1.66,29.78,3.53,42.45,8.62,32.07,12.88,71.99,28.91,92.75,59.05,23.65,34.32,33.73,54.3,33.73,66.81,0,2.67-.18,6.32-.39,10.56-.61,12.46-1.76,35.65,2.99,40.64.42.44.76.57,1.07.6,1.86-2.42.52-16.63-.37-26.09-2.05-21.79-4.38-46.48,7.19-53.25,5.61-3.28,13.28-9.69,22.16-17.11,18.41-15.38,41.33-34.53,59.11-35.89,24.34-1.86,64.6-31.78,64.6-62.36,0-6.25.38-11.94.72-16.95,1.45-21.46,2.05-30.34-27.93-33.91-18.36-2.19-30.01-5.99-39.36-9.05-11.38-3.72-19.6-6.41-33.74-4.39h0c-13.69,1.95-24.89,5.39-35.72,8.72-18.44,5.66-35.86,11.01-62.77,8.56-5.16-.47-10.86-.7-16.92-.7Z"/><path class="cls-7" d="m671.53,1024.28s20.79-45.66-9.97-70.8c-30.75-25.14-93.09-42.4-51.85-62.54,41.24-20.14,93.03-41.24,117-36.44,23.98,4.8,48.91,26.85,23.98,30.69-24.94,3.84-8.63,1.92-51.79,9.59-43.16,7.67-53.19,48.26-20.36,44.27,32.83-3.99,86.53-.08,120.58-19.78,34.05-19.69,12.43-71.26-44.86-79.04-57.28-7.79-105.23,27.7-185.79,27.7s-65.22,27.81-27.81,37.4c37.4,9.59,116.93,55.7,130.87,118.96Z"/><path class="cls-9" d="m578.44,737.41s-30.47,4.51-32.81,4.6c-2.34.09-6.71,2.59-17.26-9.94-10.55-12.53-25.63-43.31-18.13-56.5,7.5-13.18,17.57-13.78,32.68-17.85,15.11-4.07,29.34-6.46,33.53,11.93,4.19,18.39,9.81,43.77-3.52,45.19s-25.07,4.55-31.56-3.08c-6.5-7.63-20.71-24.24-13.49-32.25,7.22-8.01,23.39-8.83,28.74-3.63,5.35,5.2,3.93,12.93,1.29,15.35-2.64,2.42-4.99,2.27-8.61-.42-3.62-2.69-6.71,5.76-2.43,7.48,4.29,1.72,12.57,6.7,17.94-6.87,5.37-13.57,3.95-17.4-9.05-22.91-12.99-5.51-24.82-1.56-29.08.82-4.26,2.38-6.71,5.99-6.95,12.34-.24,6.35-.79,33.24,9.34,43.79,10.12,10.55,16.05,12.21,30.61,12.38,14.56.18,18.76-.45,18.76-.45Z"/><path class="cls-5" d="m639.24,630.89s-36.15,5.35-38.93,5.45c-2.78.1-7.97,3.07-20.48-11.79-12.52-14.86-30.42-51.4-21.51-67.04,8.9-15.64,20.85-16.35,38.78-21.18,17.93-4.83,34.82-7.67,39.79,14.15,4.97,21.82,11.64,51.94-4.18,53.63-15.81,1.69-29.74,5.4-37.45-3.65-7.71-9.05-24.58-28.77-16.01-38.27s27.75-10.48,34.1-4.3c6.35,6.18,4.67,15.35,1.53,18.22s-5.92,2.69-10.22-.49c-4.29-3.19-7.97,6.83-2.88,8.88,5.09,2.04,14.91,7.95,21.29-8.15,6.38-16.11,4.68-20.64-10.74-27.18-15.42-6.54-29.45-1.85-34.5.97-5.05,2.83-7.96,7.11-8.24,14.64-.28,7.53-.93,39.44,11.08,51.96,12.01,12.51,19.05,14.49,36.32,14.7,17.28.21,22.26-.53,22.26-.53Z"/><path class="cls-7" d="m659.75,622.47s25.68-.03,27.63.18c1.94.21,5.85-1.32,13.04,10.29,7.18,11.61,15.9,38.84,8.11,48.81-7.79,9.97-16.17,9.24-29.13,10.77-12.96,1.53-24.99,1.78-26.22-13.9-1.23-15.68-2.79-37.3,8.38-36.86,11.17.44,21.23-.72,25.67,6.36,4.44,7.08,14.15,22.51,7.23,28.25-6.93,5.73-20.36,4.45-24.15-.49-3.79-4.94-1.68-11.15.79-12.82,2.47-1.67,4.39-1.27,7.05,1.39s6.24-3.94,2.91-5.88-9.56-7.05-15.63,3.5c-6.08,10.55-5.36,13.87,4.69,20,10.05,6.12,20.29,4.3,24.09,2.84,3.8-1.45,6.26-4.13,7.23-9.34.97-5.21,4.68-27.33-2.4-37.26-7.08-9.93-11.76-12.02-23.76-13.93-11.99-1.91-15.53-1.9-15.53-1.9Z"/><rect class="cls-4" x="612.25" y="735.65" width="66.26" height="106.78"/><path class="cls-6" d="m679.65,843.57h-68.54v-109.06h68.54v109.06Zm-66.26-2.28h63.98v-104.5h-63.98v104.5Z"/><path class="cls-9" d="m718.89,514.54c-16.75,18.08-20.13,43.54-9.26,69.86,7.03,17.03,20.06,29.28,38.72,36.41,35.83,13.68,83.48,4.44,95.55-1.38,5.5-2.66,11.63-3.9,17.81-3.9,15.78,0,31.98,8.1,39.47,21.5,1.15,2.05,2.36,4.4,3.64,6.89,10.02,19.42,26.8,51.91,70.9,53.49,24.8.88,46.55-7.74,59.7-23.66,11.48-13.89,15.44-31.81,11.16-50.45-3.38-14.74-11.48-25.88-24.08-33.09-15.7-8.99-36.05-9.88-48.04-6.1-10.38,3.27-19.97,1.75-26.31-4.15-6.19-5.77-8.48-15.1-6.13-24.97,7.35-30.85-2.4-40.12-12.9-45.11-21.8-10.36-37.88-10.69-57.36-1.18-4.65,2.27-15.33,9.91-14.19,31.78.25,4.78,7.04,7.95,13.25,8.87,6.75,1.01,14.81-.36,16.46-4.89,1.37-3.78,1.47-6.68,1.54-9.01.2-6.3,1.76-9.1,10.93-10.16,5.17-.6,10.08,1.46,13.81,5.8,7.2,8.38,8.96,23.55,4.59,39.6-2.39,8.78-1.93,15.48,1.4,20.49,4.46,6.7,14.36,10.85,31.16,13.04,18.57,2.43,35.46,14.17,36.15,25.13.33,5.22-2.51,12.3-17.94,16.35-15.67,4.12-31.23-.07-46.22-12.44-13.93-11.49-24.02-27.26-30.03-38.47-12.9-24.04-37.48-27.05-50.85-23.2-4.4,1.27-7.92,6.3-11.64,11.62-6.65,9.52-14.92,21.37-32.95,18.47-10.14-1.63-16.48-7.62-17.88-16.86-1.88-12.52,5.96-27.91,13.7-31.72,6.42-3.16,12.29-.7,15.37,2.38,2.57,2.57,3.44,5.64,2.28,8.01-.64,1.29-2.39,3.37-6.98,2.77-1.37-.18-2.2.94-2.65,1.91-.95,2.05-.89,5.12.86,6.72,2.37,2.16,7.65,1.19,14.14-2.58,9.54-5.55,14.6-17.12,13.21-30.18-.79-7.45-6.16-32.65-42.03-44.35-1.37-.45-2.74-.84-4.12-1.2-2.81,5.85-3.71,10.37-3.71,10.37,0,0,.86-4.29,1.21-10.97-22.7-4.97-46.34,1.97-61.74,18.58Z"/><path class="cls-6" d="m1052.17,622.01c-3.7-16.13-12.97-28.85-26.82-36.78-17.92-10.27-39.84-10.62-52.61-6.6-8.48,2.67-15.83,1.65-20.68-2.88-4.73-4.41-6.36-11.5-4.46-19.45,4.39-18.4,6.53-40.9-16.01-51.61-23.28-11.07-41.34-11.4-62.33-1.15-11.81,5.77-18.31,19.68-17.39,37.23.37,7.06,7.48,12.65,18.12,14.24,9.23,1.38,19.83-.75,22.68-8.6,1.69-4.64,1.8-8.2,1.88-10.79.12-3.76.13-3.99,5.86-4.65,4.13-.48,7.08,1.83,8.81,3.85,7.15,8.32,6.31,23.71,3.41,34.36-2.85,10.47-2.14,18.7,2.16,25.16,5.52,8.29,16.37,13.09,35.18,15.55,13.67,1.79,30.62,11.02,31.18,19.81.37,5.87-8.41,9.06-13.68,10.45-13.79,3.62-27.63-.19-41.12-11.32-10.31-8.5-20.48-21.56-28.63-36.75-14.5-27.03-42.32-30.36-57.48-26-6.35,1.83-10.43,7.66-14.75,13.84-6.33,9.06-12.87,18.42-27.34,16.1-7.69-1.24-12.1-5.29-13.12-12.06-1.56-10.36,5.38-23.17,10.56-25.73,3.34-1.65,6.03-.6,7.34.18,1.22.72,1.96,1.61,2.31,2.22-.2,0-.46-.02-.77-.06-3.59-.48-6.88,1.52-8.59,5.18-1.84,3.97-1.68,9.83,2.2,13.36,2.57,2.34,8.7,5.22,20.88-1.87,11.51-6.7,17.65-20.4,16.02-35.73-.88-8.31-6.81-36.42-45.95-49.19-1.01-.33-2.03-.63-3.05-.92-.54.86-1.04,1.72-1.5,2.56-.49.89-.94,1.76-1.34,2.61,1.38.36,2.75.75,4.12,1.2,35.87,11.71,41.24,36.91,42.03,44.35,1.39,13.06-3.67,24.62-13.21,30.18-6.48,3.78-11.77,4.74-14.14,2.58-1.75-1.59-1.81-4.67-.86-6.72.45-.97,1.28-2.09,2.65-1.91,4.58.6,6.34-1.48,6.98-2.77,1.17-2.37.3-5.44-2.28-8.01-3.08-3.08-8.94-5.54-15.37-2.38-7.74,3.81-15.58,19.2-13.7,31.72,1.39,9.25,7.74,15.24,17.88,16.86,18.03,2.9,26.3-8.95,32.95-18.47,3.72-5.33,7.23-10.35,11.64-11.62,13.37-3.85,37.95-.84,50.85,23.2,6.01,11.2,16.1,26.97,30.03,38.47,15,12.37,30.55,16.56,46.22,12.44,15.43-4.05,18.27-11.13,17.94-16.35-.69-10.96-17.59-22.7-36.15-25.13-16.79-2.2-26.69-6.34-31.16-13.04-3.33-5-3.79-11.7-1.4-20.49,4.37-16.05,2.61-31.23-4.59-39.6-3.73-4.34-8.64-6.4-13.81-5.8-9.17,1.06-10.73,3.86-10.93,10.16-.07,2.33-.17,5.23-1.54,9.01-1.65,4.53-9.71,5.9-16.46,4.89-6.2-.93-13-4.1-13.25-8.87-1.15-21.87,9.54-29.51,14.19-31.78,19.48-9.51,35.57-9.18,57.36,1.18,10.5,4.99,20.25,14.26,12.9,45.11-2.35,9.87-.06,19.21,6.13,24.97,6.34,5.9,15.93,7.42,26.31,4.15,11.99-3.77,32.35-2.89,48.04,6.1,12.6,7.22,20.7,18.35,24.08,33.09,4.28,18.64.31,36.56-11.16,50.45-13.15,15.92-34.9,24.54-59.7,23.66-44.1-1.58-60.87-34.07-70.9-53.49-1.28-2.49-2.5-4.84-3.64-6.89-7.49-13.4-23.69-21.5-39.47-21.5-6.18,0-12.31,1.24-17.81,3.9-12.07,5.82-59.72,15.07-95.55,1.38-18.66-7.13-31.69-19.38-38.72-36.41-10.87-26.32-7.49-51.78,9.26-69.86,15.39-16.61,39.03-23.56,61.74-18.58.05-.93.09-1.9.11-2.91.02-.94.04-1.91.03-2.91-24.34-4.95-49.55,2.67-66.09,20.51-18.33,19.79-22.11,47.46-10.35,75.94,7.66,18.54,21.78,31.86,41.97,39.57,37.97,14.5,86.98,4.75,100.08-1.57,17.02-8.21,40.75-.95,49.79,15.23,1.1,1.97,2.29,4.27,3.55,6.72,10.6,20.53,28.33,54.89,75.78,56.59,1.23.04,2.45.07,3.66.07,25.06,0,47.02-9.3,60.66-25.8,12.64-15.29,17.02-34.96,12.33-55.38Z"/><path class="cls-2" d="m813.48,396.48c-45.73-32.65-51.82,33.42-40.12,57.89,5.91,12.37,7.4,25.65,7.42,35.77,0,1,0,1.97-.03,2.91-.03,1.01-.06,1.98-.11,2.91-.35,6.68-1.21,10.97-1.21,10.97,0,0,.89-4.52,3.71-10.37.41-.84.85-1.72,1.34-2.61.46-.84.96-1.7,1.5-2.56,3.4-5.44,8.42-11.2,15.72-15.27,18.19-10.17,57.52-46.98,11.79-79.63Zm4.84,34.95c-.83,13.81-20.37,35.17-31.4,15.6-11.02-19.58-7.04-41.02,9.16-40.47,13.83.47,23.06,11.06,22.24,24.87Z"/><path class="cls-5" d="m358.74,220.69c-71.14,13.13-47.06,86.47-27.81,100.48,19.25,14.02,15.77,43.99,15.77,43.99,5.47-40.5,26.82-37.76,51.44-63.48,10.76-11.24,31.74-94.13-39.4-80.99Zm14.78,68.41c-6.57,13.13-39.4,19.7-40.5-10.94-1.09-30.65,8.76-32.93,27.22-31.33,17.37,1.5,19.84,29.14,13.27,42.27Z"/><path class="cls-7" d="m216.46,381.58c-65.68,38.97-129.15,89.75-110.54,201.39,18.61,111.64,226.56,193.73,331.63,117.11,105.07-76.61,142.83-161.44,97.96-250.09-44.87-88.65-171.84-120.39-249.54-63.48-77.71,56.91-60.2,129.15-29.55,146.66,30.65,17.51,76.61-10.94,63.48-42.69-13.13-31.74-44.87-16.42-44.87-16.42,0,0-1.09-12.04,16.42-16.42,17.51-4.38,71.14,50.35,24.08,99.6-47.06,49.25-112.73,41.59-114.92-32.83-2.19-74.43,67.86-130.24,75.52-143.38,7.66-13.13-27.36-18.61-59.65.55Z"/><path class="cls-6" d="m538.06,448.7c-22.13-43.72-64.66-75.94-116.68-88.39-50.04-11.98-100.02-3.27-137.11,23.9-51.98,38.07-57.76,78.88-56.57,99.82,1.28,22.63,11.99,42.9,27.29,51.64,19.34,11.05,43.27,4.68,56.91-7.33,12.28-10.81,16.25-25.37,10.64-38.94-4.13-9.98-10.44-16.64-18.76-19.82-9.49-3.62-19.24-1.76-24.96,0,1.41-3.08,4.87-7.04,13.31-9.15,5.97-1.49,21.04,7.38,31.1,24.68,6.51,11.2,18.59,40.46-9.78,70.16-24.27,25.4-54.82,36.1-77.84,27.26-19.85-7.62-31.27-28.29-32.15-58.2-1.71-58.23,42.4-105.61,63.6-128.38,5.7-6.12,9.82-10.55,11.53-13.47,2.29-3.92,1.87-7.89-1.14-10.88-4.24-4.21-13.57-6.1-24.96-5.05-12.46,1.15-25.77,5.61-37.49,12.56-30.58,18.14-64.91,41.15-87.78,74.28-24.83,35.98-32.72,78.51-24.13,130.04,8.42,50.51,56.54,99.42,125.6,127.62,34.94,14.27,71.63,21.77,106.39,21.77,1.35,0,2.71-.01,4.05-.03,39.11-.66,73.73-11.18,100.1-30.41,53.53-39.03,89.25-80,106.18-121.77,17.53-43.27,15.06-87.66-7.35-131.93Zm2.04,129.78c-16.52,40.77-51.59,80.9-104.24,119.29-25.42,18.53-58.9,28.67-96.83,29.31-35.16.6-72.59-6.77-108.18-21.31-67.23-27.46-114.02-74.69-122.11-123.26-8.33-49.99-.74-91.16,23.2-125.85,22.23-32.22,55.94-54.78,85.98-72.6,14.84-8.8,29.81-12.01,40.63-12.01,7.28,0,12.67,1.45,14.86,3.63.83.82,1.43,1.87.23,3.93-1.39,2.38-5.53,6.82-10.77,12.46-21.72,23.33-66.92,71.86-65.13,132.45,1.28,43.67,22.99,58.46,35.82,63.38,25.18,9.67,58.16-1.58,84.04-28.65,31.06-32.51,17.76-64.67,10.59-76.99-10.1-17.38-27.25-29.9-37.44-27.36-15.73,3.93-19.03,14.45-18.58,19.45l.38,4.1,3.72-1.78c.13-.06,13.47-6.33,25.52-1.71,6.77,2.59,11.97,8.19,15.47,16.64,4.7,11.37,1.38,23.2-9.13,32.45-12.11,10.66-33.27,16.37-50.28,6.65-13.66-7.81-23.24-26.25-24.42-46.99-1.12-19.78,4.44-58.4,54.24-94.87,35.74-26.17,83.99-34.54,132.4-22.95,50.38,12.07,91.53,43.2,112.9,85.41,21.63,42.73,24.04,85.53,7.15,127.19Z"/><path class="cls-1" d="m71.99,757.18s23.72-10.26,49.14-30.26c-21.37,15.67-49.14,30.26-49.14,30.26h0Z"/><path class="cls-1" d="m380.06,590.46l-21.99-31.96s-.02-.03-.03-.04h0c-16.23,11.54-33.48,23.41-51.06,35.18l-.14.09,4.27,46.5c10.69-6.33,65.41-47.03,68.83-49.58.06-.04.11-.08.17-.13-.02-.03-.04-.05-.05-.08Z"/><path class="cls-1" d="m308.29,643.37c.97-.69,1.93-1.39,2.9-2.08-.04-.67-.07-1.04-.07-1.04-.48.8-1.48,1.87-2.83,3.12Z"/><path class="cls-1" d="m100.82,698.21s-.62.19-1.67.5l1.62-.32c.02-.06.03-.12.05-.18Z"/><path class="cls-1" d="m80.23,689c-2.78,4.97-5.23,9.99-7.28,14.96h.01c.66-1.49,3.41-7.63,7.27-14.96Z"/><path class="cls-1" d="m380.12,590.54l-.05-.08s.04.05.05.08c0,0,0,0,0,0Z"/><path class="cls-1" d="m513.79,414.93c-1.1,1.4-2.22,2.81-3.35,4.23,1.66-1.98,2.84-3.46,3.35-4.22h0Z"/><path class="cls-1" d="m534.95,447.84c-3.87-12.45-21.16-32.91-21.16-32.91,0,0,17.74,23.21,21.16,32.91Z"/><path class="cls-1" d="m466.86,468.45s-.04.04-.06.06h0s.04-.04.06-.06Z"/><path class="cls-1" d="m263.05,622.43s-.09.06-.13.08h0s.13-.08.13-.08Z"/><path class="cls-1" d="m493.88,346.73s0,0,0,0c-2.79,2.57-20.63,16.9-30.21,24.56-3.6,3.11-5.67,4.97-5.67,4.97,0,0,36.35-28.86,35.89-29.53Z"/><polygon class="cls-1" points="520.28 406.54 520.27 406.55 520.27 406.55 520.28 406.54"/><path class="cls-1" d="m445.36,539.85l-65.17,50.64c22.96-17.3,45.1-34.35,65.52-50.33l-.33-.29s-.01-.01-.02-.02Z"/><path class="cls-1" d="m587.03,351.43c-.2.7-3.21,10.94-7.85,23.3,3.36-8.31,5.97-16.12,7.85-23.3Z"/><path class="cls-1" d="m83.48,765.2c1.88.69,4.09,1.05,6.59,1.11-3.74-.34-7.24-1.23-10.37-2.81,1.18.63,2.44,1.2,3.78,1.69Z"/><path class="cls-1" d="m358.07,558.5l-.03-.04h0s.02.03.03.04Z"/><path class="cls-1" d="m72.76,758.1c-.26-.3-.52-.59-.77-.91.25.31.5.62.77.91Z"/><path class="cls-1" d="m306.85,593.74c-.06.04-.11.08-.17.11l.17-.11h0Z"/><path class="cls-1" d="m576.67,304.02c-7.74-.73-17.93,2.46-29.1,7.87,17.83-8.14,28.71-7.88,29.1-7.87Z"/><path class="cls-1" d="m140.47,709.8s0,0,.01-.01h0s0,0-.01.01Z"/><path class="cls-1" d="m445.38,539.86l-.02-.02h0s.01.01.02.02Z"/><polygon class="cls-1" points="466.81 468.52 466.81 468.52 466.81 468.52 466.81 468.52"/><path class="cls-1" d="m162.74,682.67c-.08.04-.16.09-.24.13,0,0,0,0,0,0l.25-.14Z"/><polygon class="cls-1" points="415.95 515.1 415.95 515.1 415.95 515.1 415.95 515.1 415.95 515.1"/><path class="cls-1" d="m214.62,652.63l-.13.08s-5.93,18.37-17.93,40.14c0,0,0,0,0,0-.43,8.82-19.09,29.08-19.19,29.19-4.66,5.89-9.77,11.55-15.32,16.7,11.44-6.31,23.69-13.53,36.53-21.46l20.22-12.76c2.71-1.74,5.43-3.5,8.18-5.29,10.32-6.76,19.06-12.61,24.03-15.96.89-.6,1.78-1.2,2.68-1.81.37-.25.68-.46.94-.64.27-.19.55-.37.82-.56,8.35-30.95,7.47-57.75,7.47-57.75l-.1.06c-16.47,10.55-32.72,20.68-48.2,30.05Z"/><path class="cls-1" d="m561.31,338.52c-.33,1.67-1.02,3.8-2.06,6.33,0,.02-.02.04-.02.06-.28.71-.62,1.5-1.01,2.36-2.57,5.74-6.61,13.15-11.96,21.8-.05.09-.09.15-.09.15,10.94-16.66,14.9-25.9,15.14-30.7Z"/><path class="cls-1" d="m415.97,515.11l29.37,24.72c-9.98-8.57-20.11-17.06-29.37-24.72Z"/><path class="cls-1" d="m214.49,652.71c-6.34,3.84-12.55,7.55-18.59,11.1,9.19-5.29,17.08-9.93,18.59-11.1,0,0,0,0,0,0Z"/><path class="cls-1" d="m543.5,339.35s.01,0,.02,0c0,0,0,0,0,0h-.02Z"/><path class="cls-1" d="m550.76,335.58c-3.83,1.6-7.23,3.76-7.23,3.76,2.81-1.63,5.2-2.86,7.23-3.76Z"/><path class="cls-1" d="m415.95,515.1s-.06.05-.09.07l.09-.07s0,0,0,0Z"/><polygon class="cls-1" points="358.05 558.46 358.05 558.46 358.05 558.46 358.05 558.46"/><path class="cls-1" d="m546.16,369.22s-.02.04-.03.05c.01-.02.03-.04.04-.06h0Z"/><path class="cls-1" d="m493.93,346.69c.85-.63,26.88-20.06,45.53-30.6-15.23,8.38-31.53,19.89-45.53,30.6Z"/><path class="cls-1" d="m105.66,686.63c4.51-7.77,11.33-16.27,17.61-23.41-.12.12-10.49,10.1-17.61,23.41Z"/><polygon class="cls-1" points="490.53 367.79 490.54 367.79 490.53 367.79 490.53 367.79"/><polygon class="cls-1" points="100.82 698.21 100.82 698.21 100.82 698.21 100.82 698.21"/><path class="cls-4" d="m504.97,487.18c1.63.96,6.83,4.01,11.32,6.81-3.56-2.3-7.36-4.58-11.32-6.81Z"/><path class="cls-4" d="m380.16,590.61l21.01,31.92c-6.76-10.59-13.94-21.46-21.01-31.92Z"/><path class="cls-4" d="m253.69,681.46c-.9.61-1.79,1.21-2.68,1.81,1.08-.73,1.98-1.33,2.68-1.81Z"/><path class="cls-4" d="m254.63,680.83c.53-.36.82-.56.82-.56h0c-.27.18-.55.37-.82.56Z"/><path class="cls-4" d="m219.15,704.3s.02,0,.02.01c2.68-1.73,5.29-3.44,7.8-5.09-2.75,1.79-5.47,3.55-8.18,5.29l.35-.22Z"/><path class="cls-4" d="m379.95,590.67c.11-.08.17-.12.17-.12,0,0,0,0,0,0-.06.04-.11.08-.17.13Z"/><polygon class="cls-4" points="493.87 346.73 493.88 346.73 493.88 346.73 493.87 346.73"/><polygon class="cls-4" points="380.12 590.54 380.12 590.54 380.12 590.54 380.12 590.54 380.12 590.54"/><path class="cls-4" d="m468.32,560.04h0s-.07-.06-.07-.06c.02.02.05.04.07.06Z"/><path class="cls-4" d="m457.65,376.11l.34.16s2.07-1.86,5.67-4.97c-3.4,2.73-5.75,4.6-6.02,4.81Z"/><path class="cls-4" d="m546.26,369.07c5.35-8.65,9.38-16.06,11.96-21.8-3.52,7.66-11.08,20.33-11.96,21.8Z"/><path class="cls-4" d="m415.92,515.07s.02.02.03.02c0,0,0,0,0,0l-.03-.02Z"/><path class="cls-4" d="m466.79,468.51c-9.09-3.95-17.46-7.32-24-9.87l24,9.87Z"/><path class="cls-4" d="m396.49,499.16l.22-.19c-.08.06-.15.13-.23.19l.04.03-.03-.03Z"/><path class="cls-4" d="m526.96,363.61s0,.07,0,.1c0-.03,0-.07,0-.1Z"/><path class="cls-4" d="m358,558.4c-4.92-7.03-9.38-13.33-13.1-18.53l13.1,18.53Z"/><path class="cls-4" d="m561.21,336.8c.13,2.26-.91,5.36-1.96,8.05,1.03-2.53,1.73-4.66,2.06-6.33.03-.65,0-1.22-.1-1.72Z"/><polygon class="cls-4" points="442.79 458.64 442.78 458.65 442.79 458.64 442.79 458.64"/><path class="cls-4" d="m138.77,646.86l-15.49,16.35c3.62-3.62,15.49-16.35,15.49-16.35Z"/><path class="cls-4" d="m344.89,539.84c-.37.28-.74.56-1.11.83.71-.52,1.12-.83,1.12-.83,0,0,0,0,0,0Z"/><path class="cls-6" d="m75.8,651.73h0c.93-.92,1.86-1.82,2.78-2.7-.99.92-1.92,1.82-2.78,2.7Z"/><path class="cls-6" d="m146.88,655.37c-1.52,1.88-2.74,3.5-3.76,4.93l3.76-4.93Z"/><path class="cls-6" d="m105.66,686.63c-2.43,4.18-4.19,8.15-4.84,11.58,1.18-4.02,2.89-7.92,4.84-11.58Z"/><polygon class="cls-6" points="123.27 663.22 123.28 663.21 123.28 663.21 123.27 663.22"/><path class="cls-6" d="m165.53,656.57c5.32-3.02,10.56-6.03,15.75-9.04l-15.75,9.04Z"/><path class="cls-6" d="m100.77,698.39h.02c.01-.06.02-.12.03-.18h0c-.02.06-.03.12-.05.18Z"/><path class="cls-6" d="m71.99,757.18c-3.26-4.59-5.1-9.63-6-14.71.8,5.7,2.75,10.7,6,14.71Z"/><path class="cls-6" d="m38.59,703.87c-3.42,7.05-5.98,14.33-7.89,21.38,2.14-7.53,4.82-14.66,7.9-21.38,0,0,0,0,0,0Z"/><path class="cls-6" d="m25.21,762.03c-.22,5.69-.05,9.15-.05,9.15.04,0,.08-.01.12-.02-.12-3.09-.14-6.13-.08-9.13Z"/><path class="cls-6" d="m90.07,766.32c28.81,2.59,71.97-27.57,71.97-27.57,0,0,0,0,0,0-31.61,17.43-57.08,27.95-71.98,27.58Z"/><path class="cls-6" d="m72.76,758.1c2.01,2.33,4.35,4.11,6.94,5.41-2.73-1.46-5.03-3.29-6.94-5.41Z"/><polygon class="cls-6" points="71.99 757.18 71.99 757.18 71.99 757.18 71.99 757.18"/><path class="cls-6" d="m195.9,663.81c-8.73,5.03-18.63,10.65-25.37,14.47.02.02.04.04.06.07,8-4.46,16.47-9.33,25.31-14.53Z"/><path class="cls-6" d="m63.08,813.41h0s27.05,5.81,89.82-22.59l.81-1.59c-36.32,16.59-67.89,25.74-90.63,24.18Z"/><path class="cls-6" d="m251.01,683.27c-4.97,3.35-13.7,9.2-24.03,15.96,7.87-5.13,15.9-10.47,24.03-15.96Z"/><path class="cls-6" d="m254.63,680.83c-.26.17-.57.39-.94.64.31-.21.63-.42.94-.64Z"/><path class="cls-6" d="m214.62,652.63s-.09.05-.13.08c0,0,0,0,0,0l.13-.08Z"/><path class="cls-6" d="m262.92,622.52h0s-.07.04-.1.06l.1-.06Z"/><path class="cls-6" d="m255.45,680.27s41-25.94,52.84-36.9c-17.81,12.75-35.55,25.16-52.84,36.9h0Z"/><path class="cls-6" d="m263.05,622.43c14.51-9.29,29.18-18.9,43.63-28.58l-43.63,28.58Z"/><polygon class="cls-6" points="401.19 622.56 401.19 622.56 401.19 622.56 401.19 622.56 401.19 622.56"/><path class="cls-6" d="m311.19,641.29c23.13-16.6,46.33-33.73,68.76-50.62-3.42,2.55-58.14,43.25-68.83,49.58,0,0,.02.38.07,1.04Z"/><path class="cls-6" d="m401.19,622.56s0,0,0,0l-.02-.03s.01.02.02.03Z"/><path class="cls-6" d="m380.16,590.61l-.04-.06h0s.03.04.04.06Z"/><path class="cls-6" d="m306.99,593.65s-.09.06-.14.09h0s.14-.09.14-.09Z"/><polygon class="cls-6" points="358.05 558.46 358.05 558.46 358.05 558.46 358.05 558.46"/><polygon class="cls-6" points="358.05 558.46 358.05 558.46 358.05 558.46 358.05 558.46 358.05 558.46"/><path class="cls-6" d="m358,558.4s.03.04.04.06c0,0,0,0,0,0l-.04-.06Z"/><path class="cls-6" d="m344.89,539.85s.01.01.02.02l-.02-.02h0Z"/><path class="cls-6" d="m358.07,558.5l21.99,31.96c-7.72-11.43-15.28-22.38-21.99-31.96Z"/><path class="cls-6" d="m415.97,515.11h-.02s0-.01,0-.01c0,0,.01,0,.02.01Z"/><path class="cls-6" d="m445.36,539.85l-.02-.02s.01.01.02.02h0Z"/><path class="cls-6" d="m380.12,590.54l.07-.06s-.05.04-.07.05h0Z"/><path class="cls-6" d="m415.86,515.17l-57.82,43.3c18.92-13.45,36.46-26.44,51.52-38.26,2.12-1.66,4.21-3.34,6.3-5.04Z"/><path class="cls-6" d="m396.71,498.97c17.17-14.26,32.51-27.76,46.07-40.32l-46.07,40.32Z"/><path class="cls-6" d="m466.8,468.52c-.06.06-.13.13-.19.19.12-.12.19-.19.19-.19,0,0,0,0,0,0Z"/><path class="cls-6" d="m416.11,514.97c-.05.04-.11.09-.16.13h0c.05-.04.11-.09.16-.13Z"/><polygon class="cls-6" points="466.81 468.52 466.8 468.52 466.8 468.52 466.81 468.52 466.81 468.52"/><polygon class="cls-6" points="442.79 458.64 442.79 458.65 442.79 458.64 442.79 458.64"/><polygon class="cls-6" points="466.79 468.51 466.8 468.52 466.8 468.52 466.79 468.51"/><path class="cls-6" d="m415.92,515.07c-7.16-5.92-13.78-11.33-19.39-15.88l19.39,15.88Z"/><path class="cls-6" d="m520.29,502.78c2-2.41,3.18-3.84,3.19-3.85,0,0,0,0,0,0-1.05,1.28-2.11,2.57-3.18,3.85Z"/><polygon class="cls-6" points="523.47 498.93 523.48 498.93 523.47 498.92 523.47 498.92 523.47 498.93"/><path class="cls-6" d="m445.38,539.86c.11.1.22.19.33.29,1.11-.87,2.22-1.74,3.32-2.6,7.12-5.59,13.94-11.26,20.5-16.99-12.85,10.65-24.17,19.29-24.17,19.29l.02.02Z"/><path class="cls-6" d="m445.71,540.15s0,0,0,0c-.11-.1-.22-.19-.33-.29l.33.29Z"/><path class="cls-6" d="m516.29,493.99c2.53,1.63,4.93,3.28,7.18,4.94,0,0,0,0,0,0-.57-.71-3.66-2.74-7.18-4.93Z"/><path class="cls-6" d="m468.25,559.98c-7.07-6.4-14.75-13.13-22.54-19.83,0,0,0,0,0,0l22.54,19.82Z"/><path class="cls-6" d="m535.22,450.32c.18-.21.28-.33.28-.33,0-.01,0-.03,0-.04-.09.12-.18.24-.27.37Z"/><path class="cls-6" d="m582,415.82s0,0,0,0c-.13.22-.26.45-.39.67.25-.42.39-.66.39-.66Z"/><path class="cls-6" d="m520.27,406.55h0s-.02.02-.02.03l.02-.03Z"/><path class="cls-6" d="m513.95,414.73c-.05.07-.11.14-.16.2h0s.16-.2.16-.2Z"/><path class="cls-6" d="m606.85,299.74c-5.94-9.41-13.7-11.81-13.7-11.81h-.01c2.42,1.19,4.72,2.6,6.85,4.3,2.71,2.16,4.97,4.68,6.86,7.51Z"/><path class="cls-6" d="m550.76,335.58c-2.03.9-4.42,2.13-7.23,3.76,0,0,0,0,0,0,6.85-3.09,12.36-5.08,15.42-5.21-2.1-.65-5.26.23-8.18,1.45Z"/><path class="cls-6" d="m526.96,363.71c0,.59-.24,1.45-.76,2.62.23-.46.41-.86.52-1.17.21-.61.27-1.07.24-1.45Z"/><path class="cls-6" d="m526.96,363.61c-.01-.09-.01-.2-.04-.28.02.09.03.18.04.28Z"/><path class="cls-6" d="m546.26,369.07s-.06.1-.09.15h0s.03-.06.09-.15Z"/><path class="cls-6" d="m559.25,344.85c-.32.77-.66,1.58-1.04,2.42.39-.86.74-1.65,1.01-2.36,0-.02.02-.04.02-.06Z"/><path class="cls-6" d="m547.43,311.95c-2.4,1.1-5.11,2.52-7.98,4.15,2.75-1.51,5.46-2.92,8.12-4.2-.05.02-.09.04-.13.06Z"/><path class="cls-6" d="m576.7,304.02s-.03,0-.04,0c.01,0,.02,0,.03,0h0Z"/><path class="cls-6" d="m493.88,346.73h0s.03-.02.05-.03c-.01.01-.05.03-.05.03Z"/><path class="cls-6" d="m543.5,339.35c-15.1,6.81-36.7,18.96-52.97,28.44l52.97-28.44Z"/><path class="cls-6" d="m457.6,376.14s.03-.03.05-.04l-.06-.03.02.07Z"/><path class="cls-6" d="m493.87,346.73c-12.96,9.92-23.93,19.15-30.21,24.56,9.58-7.67,27.42-21.99,30.21-24.56Z"/><path class="cls-6" d="m467.82,381.33l16.99,10.57.59-2.48c-1.26,1-1.99,1.59-1.99,1.59l-15.58-9.67Z"/><polygon class="cls-6" points="490.53 367.8 490.53 367.79 490.53 367.79 490.53 367.8"/><path class="cls-4" d="m218.81,704.52l-20.22,12.76c6.59-4.07,13.34-8.33,20.22-12.76Z"/><path class="cls-4" d="m219.15,704.3l-.35.22c-6.88,4.42-13.63,8.68-20.22,12.76l-12,7.57h0c10.57-6.4,22.07-13.71,32.59-20.53,0,0-.02-.01-.02-.01Z"/><path class="cls-4" d="m245.5,714s-.09,0-.13,0c-2.86,8.89-5.71,17.56-7.65,23.42l7.77-23.42Z"/><path class="cls-6" d="m235.28,744.78s36.84-18.59,39.03-24.97c0,0-.16-.01-.43-.04-12.97,8.77-25.88,17.13-38.6,25h0Z"/><path class="cls-6" d="m237.72,737.42c-1.49,4.5-2.44,7.35-2.44,7.36,12.72-7.87,25.63-16.24,38.6-25-2.94-.25-20.68-1.91-28.39-5.77l-7.77,23.42Z"/><polygon class="cls-6" points="235.28 744.78 235.28 744.78 235.28 744.78 235.28 744.78"/><path class="cls-6" d="m235.28,744.78s.96-2.86,2.44-7.36l-2.44,7.36h0Z"/><path class="cls-4" d="m162.5,682.81s-19.8,24.11-22.01,26.97h0c7.98-8,15.56-17,22.01-26.97Z"/><path class="cls-4" d="m196.55,692.85c-5.24,9.5-11.62,19.64-19.18,29.19.1-.1,18.76-20.37,19.19-29.19,0,0,0,0,0,0Z"/><path class="cls-4" d="m162.77,682.66s-.01,0-.02.01l-.25.14s.11-.06.27-.15Z"/><path class="cls-4" d="m170.52,678.28h0l-7.78,4.39s.01,0,.02-.01c.83-.47,3.72-2.09,7.76-4.38Z"/><path class="cls-4" d="m170.58,678.34s-.04-.05-.06-.07c-4.04,2.29-6.93,3.92-7.76,4.38,2.55-1.39,5.15-2.83,7.82-4.32Z"/><path class="cls-4" d="m72.96,703.95h-.01c-.04.09-.07.17-.1.26.03-.06.06-.15.11-.26Z"/><path class="cls-4" d="m72.81,704.3s-6.63,12.86-7.13,28.12c.57-8.65,3.08-18.28,7.13-28.12h0Z"/><polygon class="cls-4" points="71.99 757.18 71.99 757.18 71.99 757.18 71.99 757.18"/><path class="cls-4" d="m72.84,704.21c.04-.09.07-.17.1-.26l-.54.11s-.06.11-.15.31c.18-.02.37-.04.54-.07,0,0,.01-.03.04-.09Z"/><path class="cls-4" d="m103.09,706.83s-.03-.04-.05-.06c-.03-.01-.06-.02-.09-.03.05.03.09.07.14.1Z"/><path class="cls-4" d="m99.15,698.71l-26.19,5.24c-.05.11-.09.2-.11.26-.01.03-.02.06-.04.09,6.25.2,21.32-4.1,26.34-5.59Z"/><path class="cls-4" d="m72.84,704.21c-.02.06-.04.09-.04.09h0s.02-.06.04-.09Z"/><path class="cls-4" d="m102.95,706.73c-.11-.08-.24-.13-.33-.22-1.96-1.98-2.43-4.79-1.84-8.12h-.02c-1.51,4.79-.5,7.35,2.18,8.35Z"/><path class="cls-4" d="m102.62,706.51c.09.09.22.15.33.22.03.01.06.02.09.03-1.92-1.99-2.79-4.72-1.99-8.44l-.26.05c-.6,3.33-.12,6.14,1.84,8.12Z"/><path class="cls-4" d="m65.68,732.41c-.23,3.53-.13,6.9.31,10.06.9,5.08,2.75,10.12,6,14.71,0,0,0,0,0,0-5.11-7.89-6.57-16.67-6.31-24.77Z"/><polygon class="cls-4" points="71.99 757.18 71.99 757.18 71.99 757.18 71.99 757.18"/><path class="cls-4" d="m65.68,732.41c.49-15.26,7.13-28.12,7.13-28.12-.18.02-.36.04-.54.07-1.19,2.5-9.38,20.59-6.27,38.11-.44-3.16-.54-6.52-.31-10.06Z"/><path class="cls-4" d="m140.47,709.8c-6.32,6.33-12.88,12.04-19.34,17.12,7.89-5.79,14.92-11.72,19.34-17.12Z"/><path class="cls-4" d="m99.81,661.24s-.07.08-.07.08c0,0,0,0,0,0,.02-.03.05-.05.07-.08Z"/><path class="cls-4" d="m123.28,663.21h0l15.49-16.35s-7.29,7.01-15.49,16.35Z"/><path class="cls-4" d="m99.83,661.22s-.06.07-.1.1c0,0,.03-.03.07-.08,0,0,.01-.02.02-.02Z"/><polygon class="cls-4" points="99.75 661.32 99.74 661.32 99.75 661.32 99.75 661.32"/><polygon class="cls-4" points="123.28 663.21 123.28 663.21 123.28 663.21 123.28 663.21"/><path class="cls-4" d="m561.31,338.52c.5-2.55.15-4.05-1.1-4.31-.07-.01-.15-.02-.23-.03.8.56,1.16,1.48,1.22,2.62.1.5.13,1.07.1,1.72Z"/><path class="cls-4" d="m550.76,335.58c2.92-1.22,6.09-2.1,8.18-1.45.39-.02.73,0,1.04.05-1.42-.99-4.22-.82-9.23,1.4Z"/><path class="cls-4" d="m559.99,334.18c-.31-.05-.65-.07-1.04-.05,1.15.36,1.98,1.18,2.27,2.67-.06-1.14-.42-2.06-1.22-2.62Z"/><path class="cls-4" d="m535.49,449.95s0,0,0,0c-.07-.59-.26-1.31-.54-2.1.23.73.41,1.44.54,2.11Z"/><path class="cls-4" d="m535.49,449.95s0,.03,0,.04c0-.01,0-.03,0-.04,0,0,0,0,0,0Z"/><polygon class="cls-4" points="493.88 346.73 493.88 346.73 493.88 346.73 493.88 346.73"/><path class="cls-4" d="m467.82,381.33l22.71-13.53c-13.08,7.63-22.71,13.53-22.71,13.53Z"/><line class="cls-4" x1="303.38" y1="569.89" x2="261.64" y2="598.08"/><path class="cls-6" d="m99.83,661.22c6.78-7.76,14.27-14.83,22.2-20.68,3-2.44,5.66-4.32,7.44-5.05,0,0-10.11-15.59-10.67-16.47,0,0-25.89,16.66-40.21,30.01-.92.88-1.85,1.78-2.78,2.7.03.02,14.05,9.81,23.94,9.59.03-.03.06-.07.1-.1Z"/><path class="cls-6" d="m142.99,660.45l.12-.15c1.02-1.43,2.25-3.05,3.76-4.93l-8.1-8.51s-11.88,12.73-15.49,16.35c0,0,15.84-1.98,19.71-2.76Z"/><path class="cls-6" d="m99.75,661.32s0,0,0,0c-6.92,5.55-14.24,17.7-19.51,27.68-3.87,7.32-6.62,13.47-7.27,14.95l26.19-5.24c1.05-.31,1.67-.5,1.67-.5,0,0,0,0,0,0,.65-3.43,2.41-7.4,4.84-11.58,7.11-13.31,17.49-23.29,17.61-23.41,0,0,0,0,0,0-7.81,3.52-23.4-1.84-23.53-1.89Z"/><path class="cls-6" d="m181.28,647.53c-5.19,3.01-10.43,6.02-15.75,9.04l-.79.46c-29.39,31.73-63.91,41.18-63.91,41.18-.01.06-.02.12-.03.18l.26-.05c-.8,3.72.06,6.45,1.99,8.44.02.02.03.04.05.06,8.52,8.63,37.4,2.96,37.4,2.96,2.21-2.86,22.01-26.97,22.01-26.97,0,0,0,0,0,0,8.47-11.23,20.16-36.07,20.16-36.07l-1.39.8Z"/><path class="cls-6" d="m71.99,757.18c-3.25-4.02-5.2-9.02-6-14.71-3.11-17.52,5.08-35.61,6.27-38.11-12.53,1.54-33.54-.49-33.66-.5-3.08,6.73-5.76,13.86-7.9,21.38-3.96,14.6-5.17,28.22-5.49,36.78-.06,3-.04,6.04.08,9.13,24.3-3.07,46.71-13.98,46.71-13.98,0,0,0,0,0,0Z"/><path class="cls-6" d="m196.55,692.85c12-21.77,17.93-40.14,17.93-40.14-1.51,1.17-9.4,5.8-18.59,11.1-8.84,5.2-17.32,10.07-25.31,14.53,2.45,2.96,25.9,14.47,25.97,14.51Z"/><path class="cls-6" d="m162.05,738.74c5.55-5.15,10.66-10.81,15.32-16.7,0,0,0,0,0,0-2.44-.63-36.85-12.25-36.88-12.26,0,0,0,0-.01.01-4.43,5.4-11.45,11.34-19.34,17.12-25.42,20-49.14,30.26-49.14,30.26,0,0,0,0,0,0,.25.32.51.61.77.91,1.9,2.13,4.2,3.95,6.94,5.41,3.13,1.58,6.63,2.47,10.37,2.81,14.9.37,40.37-10.15,71.98-27.58Z"/><path class="cls-6" d="m253.69,681.46c-.7.48-1.6,1.08-2.68,1.81-8.13,5.49-16.16,10.82-24.03,15.96-2.52,1.65-5.13,3.35-7.8,5.09.52.26,18.88,9.5,26.19,9.68,4.63-14.4,9.28-29.35,10.08-33.72,0,0-.29.2-.82.56-.31.21-.63.42-.94.64Z"/><path class="cls-6" d="m153.71,789.22l32.87-64.37c-9.35,5.66-17.97,10.62-24.55,13.9,0,0-49.57,52.27-98.96,74.66,22.74,1.56,54.3-7.59,90.63-24.18Z"/><path class="cls-6" d="m261.64,598.08s-28.41,18.74-40.8,25.85c0,0-1.74,11.81-6.35,28.79.04-.03.09-.05.13-.08,15.48-9.37,31.73-19.5,48.2-30.05.03-.02.07-.04.1-.07,0-.04.36-14.45-1.28-24.44Z"/><path class="cls-6" d="m311.12,640.25l-4.27-46.5-.17.11c-14.45,9.68-29.12,19.29-43.63,28.58l-.13.09s.88,26.8-7.47,57.75c17.29-11.74,35.03-24.15,52.84-36.9,1.36-1.25,2.35-2.32,2.83-3.12Z"/><path class="cls-6" d="m401.19,622.56s-.01-.02-.02-.03l-21.01-31.92s-.03-.04-.04-.06c0,0-.06.04-.17.12-22.43,16.9-45.63,34.02-68.76,50.62.42,6.78,2.75,44.83,2.29,50.65,0,0,0,0,0,0,0,0,57.08-37.75,87.71-69.38,0,0,0,0,0,0Z"/><path class="cls-6" d="m358,558.4l-13.1-18.53s-.01-.01-.02-.02c0,0-.41.3-1.12.83-7.39,5.54-15.03,11.15-22.92,16.82-7.75,5.64-14.99,10.84-17.48,12.39l3.48,23.85s.09-.06.14-.09c17.58-11.77,34.83-23.65,51.06-35.18,0,0,0,0,0,0-.01-.02-.03-.04-.04-.06Z"/><path class="cls-6" d="m445.34,539.83l-29.37-24.72s-.01,0-.02-.01l-.09.07c-2.09,1.69-4.18,3.37-6.3,5.04-15.06,11.82-32.59,24.81-51.52,38.26h0s.03.04.03.04c6.71,9.58,14.28,20.53,21.99,31.96l.05.08s.05-.04.07-.05l65.17-50.64s-.01-.01-.02-.02Z"/><path class="cls-6" d="m466.79,468.51l-24-9.87s0,0,0,0h0c-13.56,12.56-28.9,26.07-46.07,40.32l-.22.19.03.03c5.61,4.56,12.24,9.97,19.39,15.88l.03.02c.05-.04.11-.09.16-.13,18.09-14.68,35.03-30.42,50.5-46.26.06-.06.13-.13.19-.19,0,0,0,0-.01,0Z"/><path class="cls-6" d="m516.29,493.99c-4.49-2.79-9.69-5.85-11.32-6.81-.18-.1-.35-.2-.53-.3,0,0,0,0-.01,0-10.59,11.32-22.22,22.61-34.89,33.68-6.55,5.73-13.38,11.4-20.5,16.99-1.1.86-2.21,1.73-3.32,2.6,7.79,6.7,15.47,13.42,22.54,19.83l.07.06h0c6.36-2.98,38.55-41.16,50.59-55.62.49-.59.95-1.14,1.37-1.64,1.07-1.29,2.13-2.57,3.18-3.85-2.25-1.65-4.65-3.3-7.18-4.94Z"/><path class="cls-6" d="m534.95,447.84c-3.42-9.7-21.16-32.91-21.16-32.91-.51.76-1.7,2.24-3.35,4.22-10.89,13.03-42.52,48.12-43.58,49.29-.02.02-.06.06-.06.06h0c12.08,5.26,25.43,11.54,37.46,18.27l.16.08s.04-.04.06-.07c3.81-5.12,27.88-33.18,30.72-36.49.09-.12.18-.24.27-.37-.13-.67-.31-1.38-.54-2.11Z"/><path class="cls-6" d="m561.53,410.65c-3.47,11.59-26.03,39.34-26.03,39.34,3.43,3.67,8.02,23.36,8.04,23.44,0,0,0,0,0,0,5.07-4.26,17.47-23.43,26.83-38.5,4-6.27,7.75-12.42,11.23-18.45.13-.22.26-.45.39-.67-1.65-1.85-20.46-5.16-20.46-5.16Z"/><path class="cls-6" d="m546.17,369.22s-.03.04-.04.06c-3.19,4.69-25.69,37.04-25.85,37.26,0,0,0,.01,0,.01,3.96.33,41.07,4.08,41.25,4.1,0,0,0,0,0,0,6.74-9.08,13.01-23.54,17.66-35.91,4.64-12.36,7.64-22.6,7.85-23.3,0-.02.01-.04.02-.07l-40.88,17.85Z"/><path class="cls-6" d="m606.85,299.74c-1.89-2.83-4.16-5.35-6.86-7.51-2.13-1.7-4.42-3.11-6.85-4.29l-16.43,16.08c26.03-.53,10.35,47.35,10.35,47.35l25.21-10.29s.01-.05.02-.08c2.94-17.16,1.28-31.23-5.43-41.27Z"/><path class="cls-6" d="m546.16,369.22c.03-.05.06-.1.09-.15.88-1.46,8.44-14.14,11.96-21.8.38-.85.72-1.65,1.04-2.42,1.05-2.69,2.08-5.79,1.96-8.05-.29-1.49-1.12-2.31-2.27-2.67-3.06.14-8.57,2.13-15.42,5.21-.06.06-21.68,22.88-22.3,24.83,0,0,5.21-3.16,5.7-.83.03.08.03.18.04.28,0,.03,0,.07,0,.1.02.38-.03.84-.24,1.45-.11.31-.29.71-.52,1.17-1.55,3.43-5.72,9.63-14.71,20.55l34.68-17.67Z"/><path class="cls-6" d="m576.7,304.02s-.02,0-.03,0c-.39-.01-11.27-.27-29.1,7.87-2.66,1.29-5.37,2.69-8.12,4.2-18.64,10.54-44.68,29.97-45.53,30.6-.02.01-.03.02-.05.04l-3.35,21.07h0c16.27-9.49,37.87-21.64,52.97-28.45h.02s33.18-35.33,33.18-35.33Z"/><path class="cls-6" d="m489.15,311.11c-6.49,3.55-12.81,7.22-18.83,10.88-9.45,5.59-18.37,11.12-22.37,14.33h0s9.63,39.76,9.63,39.76l.06.03c.27-.21,2.61-2.08,6.02-4.81,6.28-5.41,17.25-14.64,30.21-24.56,0,0,0,0,0,0l7.83-42.2.09-.51s-5.31,2.93-12.65,7.09Z"/><path class="cls-6" d="m490.53,367.8l-22.71,13.53,15.58,9.67s.73-.59,1.99-1.59l5.14-21.62s0,0,0,0Z"/><path class="cls-6" d="m520.25,406.58s.02-.02.02-.03l-23.93-1.5,17.45,9.89c.05-.07.11-.14.16-.2l6.3-8.15Z"/><path class="cls-6" d="m513.95,414.73c2.16-2.75,4.27-5.47,6.3-8.15l-6.3,8.15Z"/><path class="cls-4" d="m72.26,704.36c.09-.19.15-.31.15-.31l.54-.11c2.06-4.96,4.5-9.98,7.28-14.96,5.26-9.97,12.59-22.13,19.51-27.68-9.89.22-23.91-9.57-23.94-9.59-13.48,13.32-27.38,30.69-37.2,52.14.12.01,21.13,2.04,33.66.5Z"/><path class="cls-4" d="m162.04,738.74s-43.16,30.16-71.97,27.57c-2.5-.06-4.71-.42-6.59-1.11-1.34-.49-2.6-1.06-3.78-1.69-2.59-1.31-4.92-3.09-6.94-5.41-.27-.3-.52-.6-.77-.91,0,0,0,0,0,0,0,0-22.41,10.91-46.71,13.98.05,1.29.1,2.58.19,3.89,1.58,25.07,15.39,36.83,37.62,38.35,49.38-22.39,98.96-74.66,98.96-74.66Z"/><path class="cls-4" d="m311.19,641.29c-.97.69-1.93,1.39-2.9,2.08-11.83,10.96-52.84,36.9-52.84,36.9-.8,4.38-5.45,19.32-10.08,33.72.04,0,.09,0,.13,0,7.71,3.86,25.45,5.52,28.39,5.77,13.17-8.9,26.41-18.21,39.59-27.83.46-5.82-1.87-43.87-2.29-50.65Z"/><path class="cls-4" d="m445.71,540.15c-20.42,15.99-42.56,33.03-65.52,50.33l-.07.06.04.06c7.06,10.47,14.25,21.33,21.01,31.92l.02.03c1.38-1.18,2.75-2.36,4.12-3.54,22.5-19.43,43.57-39.22,63.01-58.98-.02-.02-.05-.04-.07-.06l-22.54-19.82Z"/><path class="cls-4" d="m587.05,351.37s-.01.04-.02.07c-1.88,7.18-4.49,14.99-7.85,23.3-4.64,12.37-10.92,26.83-17.66,35.91,0,0,18.81,3.31,20.46,5.16,16.27-28.3,26.67-53.8,30.27-74.73l-25.21,10.29Z"/><path class="cls-4" d="m493.93,346.69c14-10.71,30.3-22.22,45.53-30.6,2.87-1.63,5.58-3.05,7.98-4.15.05-.02.09-.04.13-.06,11.17-5.41,21.36-8.6,29.1-7.87,0,0,.04,0,.04,0l16.43-16.08c-22.95-11.16-58.4.08-91.43,16.59l-7.83,42.2s.03-.02.05-.03Z"/><path class="cls-4" d="m535.5,449.99s-.1.12-.28.33c-2.84,3.31-26.91,31.36-30.72,36.49-.02.02-.04.05-.05.07,0,0,.19.11.53.31,3.95,2.23,7.76,4.5,11.32,6.81,3.53,2.19,6.61,4.22,7.18,4.93,7.06-8.59,13.76-17.1,20.07-25.49-.02-.08-4.61-19.77-8.04-23.44Z"/><path class="cls-4" d="m417.87,357.95l39.72,18.12-9.63-39.76c-18.1,12.18-30.08,21.64-30.08,21.64Z"/><path class="cls-4" d="m261.64,598.08c1.64,9.99,1.28,24.4,1.28,24.44.04-.03.09-.06.13-.08l43.63-28.58c.06-.04.11-.08.17-.11l-3.48-23.85"/><path class="cls-4" d="m123.28,663.21s0,0,0,0c-6.28,7.14-13.09,15.64-17.61,23.41-1.95,3.66-3.66,7.56-4.84,11.58,0,0,0,0,0,0,0,0,34.53-9.45,63.91-41.18l.79-.46c-3.58,2.03-7.19,4.07-10.83,6.11,0,0-24.66,15.94-11.59-2.39l-.12.15c-3.88.78-19.71,2.76-19.71,2.76Z"/><path class="cls-4" d="m344.89,539.85l.02.02c3.71,5.21,8.17,11.5,13.1,18.53l.04.06s0,0,0,0l57.82-43.3s.06-.05.09-.07c-.01,0-.02-.02-.03-.02l-19.39-15.88-.04-.03c-15.64,12.98-32.82,26.59-51.6,40.68,0,0,0,0,0,0h0Z"/><path class="cls-4" d="m219.18,704.32c-10.52,6.82-22.02,14.13-32.59,20.53l-32.87,64.37-.81,1.59-.3.59c24.34-5.73,82.69-46.63,82.69-46.63h0s2.44-7.36,2.44-7.36c1.94-5.87,4.79-14.53,7.65-23.42-7.32-.18-25.67-9.41-26.19-9.68Z"/><path class="cls-4" d="m170.58,678.34c-2.66,1.49-5.27,2.92-7.82,4.32-.16.09-.27.15-.27.15-6.45,9.97-14.03,18.97-22.01,26.98.03.01,34.44,11.63,36.88,12.26,0,0,0,0,0,0,7.56-9.55,13.95-19.69,19.18-29.19-.07-.04-23.52-11.55-25.97-14.51Z"/><path class="cls-4" d="m103.09,706.83s-.09-.06-.14-.1c-2.68-1-3.69-3.56-2.18-8.35l-1.62.32c-5.02,1.49-20.09,5.78-26.34,5.59-4.04,9.84-6.56,19.46-7.13,28.12-.26,8.1,1.2,16.87,6.31,24.77,0,0,0,0,0,0,0,0,27.76-14.58,49.14-30.26,6.46-5.08,13.03-10.79,19.34-17.12,0,0,0,0,.01-.01,0,0-28.88,5.67-37.4-2.96Z"/><path class="cls-4" d="m129.47,635.49s-6.28,4.03-15.21,11.81c-7.04,6.44-13.69,13.18-14.45,13.94-.02.03-.05.05-.07.08,0,0,0,0,0,0,.13.05,15.73,5.41,23.53,1.89,0,0,0,0,0,0,8.21-9.34,15.49-16.35,15.49-16.35,0,0-8.09-6.91-9.3-11.37Z"/><path class="cls-4" d="m612.26,341.08h0s0-.05.01-.08c0,.03-.01.05-.02.08Z"/><path class="cls-4" d="m576.7,304.02h0s-33.18,35.32-33.18,35.32c0,0,3.4-2.16,7.23-3.76,5.01-2.22,7.81-2.39,9.23-1.4.07.01.16.01.23.03,1.25.26,1.59,1.76,1.1,4.31-.24,4.81-4.2,14.04-15.14,30.7l40.88-17.85s-.01.04-.02.07c0-.02.02-.07.02-.07,0,0,15.68-47.88-10.35-47.35Z"/><path class="cls-4" d="m561.52,410.65c-.18-.02-37.29-3.77-41.25-4.1l-.02.03c-2.03,2.68-4.14,5.4-6.3,8.15l-.16.2s17.28,20.46,21.16,32.91c.28.8.47,1.51.54,2.1,0,.01,0,.03,0,.04,0,0,22.56-27.75,26.03-39.34,0,0,0,0,0,0Z"/><path class="cls-4" d="m490.53,367.79l3.35-21.07s0,0,0,0c.46.67-35.89,29.53-35.89,29.53,6.12,1.55,9.83,5.06,9.83,5.06,0,0,9.63-5.9,22.71-13.53h0Z"/><path class="cls-4" d="m182.67,646.73s-11.7,24.84-20.16,36.07c.08-.04.16-.09.24-.13l7.78-4.39h0c6.74-3.82,16.64-9.43,25.37-14.47,6.04-3.55,12.25-7.26,18.59-11.1,4.61-16.98,6.35-28.79,6.35-28.79l-38.17,22.81Z"/><path class="cls-4" d="m196.55,692.85s18.96,10.03,22.62,11.47l36.27-24.05s9.14-33.76,7.6-57.84l-48.56,30.28-17.93,40.14Z"/><polygon class="cls-4" points="306.85 593.74 311.19 641.29 380.12 590.54 358.05 558.46 306.85 593.74"/><path class="cls-4" d="m504.97,487.18c-.32-.18-.49-.29-.51-.3.01-.02.03-.06.04-.08l-1.85-.9c-10.96-6.04-22.88-11.69-33.9-16.53l-1.89-.92-50.95,46.62,29.8,25.08s53.78-41.55,58.74-53.26c.17.1.34.19.52.29Z"/><path class="cls-4" d="m520.28,406.54c.16-.22,22.66-32.57,25.85-37.26.01-.02.02-.04.03-.05l-34.68,17.67-15.36,17.96,24.15,1.69Z"/><path class="cls-4" d="m496.13,404.85c-13.19,14.73-30.83,32.96-53.34,53.8,0,0,0,0,0,0h0c6.54,2.54,14.91,5.91,24,9.87h.01s.04-.04.06-.06c1.06-1.17,32.69-36.27,43.58-49.29,1.13-1.42,2.25-2.83,3.35-4.23l-17.66-10.08Z"/><path class="cls-4" d="m520.27,364.66c-10.13,5.36-28.77,19.91-34.88,24.75l5.14-21.62s0,0,0,0l52.97-28.44s.01,0,.02,0c-.06.06-21.68,22.88-22.3,24.83l-.95.49Z"/><path class="cls-5" d="m804.69,736.63c-63.27-3.87-58.3,63.58-44.89,79.57,13.41,15.99,4.11,40.74,4.11,40.74,13.21-33.28,30.78-26.44,57.16-43.11,11.52-7.28,46.89-73.33-16.39-77.2Zm-1.89,61.29c-8.36,9.78-37.67,8.42-32.12-17.87,5.55-26.29,14.41-26.15,29.77-20.89,14.45,4.95,10.71,28.97,2.35,38.76Z"/><path class="cls-3" d="m577.95,737.91s-30.47,4.51-32.81,4.6c-2.34.09-6.71,2.59-17.26-9.94-10.55-12.53-25.63-43.31-18.13-56.5,7.5-13.18,17.57-13.78,32.68-17.85s29.34-6.46,33.53,11.93c4.19,18.39,9.81,43.77-3.52,45.19-13.33,1.42-25.07,4.55-31.56-3.08-6.5-7.63-20.71-24.24-13.49-32.25,7.22-8.01,23.39-8.83,28.74-3.63,5.35,5.2,3.93,12.93,1.29,15.35-2.64,2.42-4.99,2.27-8.61-.42-3.62-2.69-6.71,5.76-2.43,7.48,4.29,1.72,12.57,6.7,17.94-6.87,5.37-13.57,3.95-17.4-9.05-22.91-12.99-5.51-24.82-1.56-29.08.82-4.26,2.38-6.71,5.99-6.95,12.34s-.79,33.24,9.34,43.79c10.12,10.55,16.05,12.21,30.61,12.38,14.56.18,18.76-.45,18.76-.45Z"/><path class="cls-3" d="m638.75,631.39s-36.15,5.35-38.93,5.45c-2.78.1-7.97,3.07-20.48-11.79-12.52-14.86-30.42-51.4-21.51-67.04,8.9-15.64,20.85-16.35,38.78-21.18s34.82-7.67,39.79,14.15c4.97,21.82,11.64,51.94-4.18,53.63-15.81,1.69-29.74,5.4-37.45-3.65-7.71-9.05-24.58-28.77-16.01-38.27s27.75-10.48,34.1-4.3c6.35,6.18,4.67,15.35,1.53,18.22s-5.92,2.69-10.22-.49c-4.29-3.19-7.97,6.83-2.88,8.88,5.09,2.04,14.91,7.95,21.29-8.15,6.38-16.11,4.68-20.64-10.74-27.18-15.42-6.54-29.45-1.85-34.5.97-5.05,2.83-7.96,7.11-8.24,14.64-.28,7.53-.93,39.44,11.08,51.96,12.01,12.51,19.05,14.49,36.32,14.7,17.28.21,22.26-.53,22.26-.53Z"/><path class="cls-3" d="m659.27,622.96s25.68-.03,27.63.18c1.94.21,5.85-1.32,13.04,10.29,7.18,11.61,15.9,38.84,8.11,48.81-7.79,9.97-16.17,9.24-29.13,10.77-12.96,1.53-24.99,1.78-26.22-13.9-1.23-15.68-2.79-37.3,8.38-36.86,11.17.44,21.23-.72,25.67,6.36,4.44,7.08,14.15,22.51,7.23,28.25-6.93,5.73-20.36,4.45-24.15-.49-3.79-4.94-1.68-11.15.79-12.82,2.47-1.67,4.39-1.27,7.05,1.39s6.24-3.94,2.91-5.88-9.56-7.05-15.63,3.5-5.36,13.87,4.69,20c10.05,6.12,20.29,4.3,24.09,2.84,3.8-1.45,6.26-4.13,7.23-9.34.97-5.21,4.68-27.33-2.4-37.26-7.08-9.93-11.76-12.02-23.76-13.93-11.99-1.91-15.53-1.9-15.53-1.9Z"/><path class="cls-3" d="m804.41,737.23c-63.27-3.87-58.3,63.58-44.89,79.57,13.41,15.99,4.11,40.74,4.11,40.74,13.21-33.28,30.78-26.44,57.16-43.11,11.52-7.28,46.89-73.33-16.39-77.2Zm-1.89,61.29c-8.36,9.78-37.67,8.42-32.12-17.87,5.55-26.29,14.41-26.15,29.77-20.89,14.45,4.95,10.71,28.97,2.35,38.76Z"/></svg>