<?xml version="1.0" encoding="UTF-8"?><svg id="Color1" xmlns="http://www.w3.org/2000/svg" xmlns:xlink="http://www.w3.org/1999/xlink" viewBox="0 0 1080 1137"><defs><style>.cls-1{fill:#03b083;}.cls-2{fill:#064862;}.cls-3{fill:#0c6b86;}.cls-4{fill:#48bcc4;}.cls-5{fill:none;stroke:#011720;stroke-miterlimit:10;}.cls-6{fill:url(#Degradado_sin_nombre_2);}</style><linearGradient id="Degradado_sin_nombre_2" x1="475.03" y1="529.14" x2="844.56" y2="529.14" gradientUnits="userSpaceOnUse"><stop offset="0" stop-color="#48bdc5"/><stop offset=".52" stop-color="#168ea3"/><stop offset=".78" stop-color="#0c6b87"/><stop offset=".99" stop-color="#0c6b87"/></linearGradient></defs><path class="cls-1" d="m545.61,809.61s-42.89-66.48-54.05-118.77c-11.16-52.29-8.14-101.29-2.72-100.82,5.42.47,15.47,26.79,15.94,31.13.47,4.34,1.22,22.54-4.84,11.64-6.72-12.09-5.22-16.95-4.94-19.9.28-2.95-3.99-1.47-3.98,4.04.01,5.51,5.22,98.02,54.58,192.68Z"/><path class="cls-1" d="m550.72,804.15s-27.83-59.78-30.93-108.13c-3.1-48.35,3.16-44.22,16.19-42.89,13.02,1.33,38.51,23.91,24.16,38.36-14.35,14.45-25.48-.93-26.75-6.42-1.27-5.48-2.69-15.74,6.39-16.12,9.08-.38,4.61,13.41,4.61,13.41,0,0,9.51-2.87,7.49-9.74-2.02-6.87-14.7-17.14-22.19-10.23-7.49,6.92,8.48,113.36,21.03,141.76Z"/><path class="cls-3" d="m555.19,804.95s4.73-6.08,2.18-22.59c-2.55-16.51-3.52-59.97,9.35-80.18,12.88-20.21,29.53-44.76,32.62-59.22,0,0-11.8,21.16-32.9,11.87-21.11-9.28-48.2-32.65-59.41-161.52,0,0-7.92,13.49-8.04,44.92-.12,31.43,2.79,53.6,4.62,53.17,1.83-.42-1.34-6.5,1.5-6.99,2.84-.49,8.56,22.05.24,23.81-8.32,1.76-10.18-32.6-11.56-45.86-1.38-13.26-2.77-55.79,1.78-77,4.55-21.2,13.04-50.46,17.16-49.72,4.12.74,1.64,18.81.78,26.41-.86,7.6-2.8,47.79,7.46,86.91,10.26,39.12,30.91,91.5,54.72,92.69,23.81,1.19,15.04-7.14,23.93-12.05,8.89-4.91,15.58-7.09,12.33,4.65-3.25,11.74-16.66,48.88-26.82,62.32-10.16,13.44-21.37,34.83-16.7,53.43,4.68,18.6,9.42,50.1.25,78.99l-13.47-24.06Z"/><path class="cls-1" d="m578.28,809.08s-2.32-28.16,10.59-45.26c12.91-17.09,30.71-33.93,44.13-43.28,13.42-9.35,32.79-28.23,24.67-45.66-8.13-17.43-26.7-14.33-31.39-5.62-4.68,8.71-7.2,27.65-1.58,28.41,5.62.76,10.96-2.54,6.23-9.64-4.73-7.1-10.85-13.45-1.29-13.74,9.56-.29,18.58,3.83,16.69,13-1.89,9.17-10.19,35.96-34.45,26.11-24.26-9.85-.58-44.64,12.06-54.26,12.64-9.62,23.98-19.85,38.82-14.69,14.84,5.16,19.52,26.52,19.52,33.52,0,7.01-1.71,27.72-26.9,48.23-25.19,20.51-37.61,29.8-43.4,32.76s-33.19,19.58-33.7,50.14Z"/><path class="cls-3" d="m582.64,836.89s1.65-42.74,34.67-60.85c33.02-18.11,72.79-48.77,77.04-79.54,4.26-30.76-3.67-68.97-21.61-91.7-17.95-22.73-37.73-61.8-35.68-94.21,2.05-32.41,6.65-51.1,20.68-83.37,0,0-8.27,69.14,7.83,113.78,16.1,44.64,31.68,76.77,39.94,93.35,8.26,16.59,15.3,41.78,4.58,76.23-9.44,30.34-38.54,70.45-60.06,81.08-35.68,17.63-66.36,29.65-67.4,45.23Z"/><path class="cls-4" d="m666.78,638.02s-4.18,1-11.96-8.65c-7.78-9.65-24.85-31.72-31.38-70.68-6.54-38.95,2.39-70.63,6.31-79.94,0,0-9.67,54.69,2.42,93.39,12.09,38.7,34.52,65.73,34.62,65.88Z"/><path class="cls-4" d="m644.14,636.34s-5.95,3.62-13.01-4.55c-7.06-8.17-27.84-51.78-28.98-81.58-1.13-29.81-3.29-62.47,33.62-98.15,0,0-27.34,54.21-26.05,87.5,1.29,33.3,10.72,73.77,34.42,96.78Z"/><path class="cls-4" d="m606.68,618.75s-13.4,10.01-19.93-16.13c-6.53-26.14-12.17-75.69,4.41-111.01,16.58-35.31,32.47-56.99,43.41-60.79,0,0-38.25,41.07-42.43,102.12-4.18,61.06,14.54,85.8,14.54,85.8Z"/><path class="cls-4" d="m582.68,625.34s2.88,6.55-4.4,1.79c-7.28-4.76-36.85-22.89-48.46-101.87-11.61-78.98,2.86-120.68,21.93-140.54,19.07-19.86,40.77-26.48,56.12-63.27,0,0,5.88,27.95-5.99,52.35-11.87,24.4-23.98,71.02-16.86,71.8,7.12.77,22.37-28.52,24.04-48.99,0,0,1.28,33.01-12.65,57.16-13.92,24.15-25.86,45.41-27.68,87-1.49,34.22,1.71,75.12,13.96,84.57Z"/><path class="cls-2" d="m512.15,942.92c-53.5,0-95.04,6.93-95.04,41.58s-9.9,75.24,74.25,75.24,295.03,11.88,295.03-18.81,10.78-98.01-39.16-98.01-270.72,13.86-278.64,30.69c-7.92,16.83-40.59,63.36,22.77,59.4,63.36-3.96,232.89-3.68,231.29-30.55s-122.38-39.74-143.17-24.89c-20.79,14.85,15.84,10.89,40.59,10.89s-1.39,14.14-55.14,14c-53.76-.14-43.86-33.8,1.68-36.77,45.54-2.97,165.33,0,165.33,31.68s-87.12,47.52-195.03,46.53c-107.91-.99-96.03-3.96-92.07-33.66,3.96-29.7,8.91-53.46,35.64-53.46s190.08-19.8,190.08-19.8c0,0-147.51,5.94-158.4,5.94Z"/><path class="cls-6" d="m537.89,208.32l114.84-40.59s-25.74,118.8,45.54,204.93c71.28,86.13,184.14,280.18,10.89,420.76,0,0-53.46,20.79-53.46,61.38s39.11,75.74,39.11,75.74c0,0-28.71-66.33-13.86-82.17,14.85-15.84,69.3-24.75,101.97-78.21,32.67-53.46,76.6-140.98,56.62-271.96-19.99-130.98-101.17-208.2-133.84-247.8-32.67-39.6-29.01-113.8-29.01-113.8,0,0-137.31-26.78-201.66,12.82"/><path class="cls-4" d="m787.88,868.17c18.81-14.85-2.49-47.77-23.52-43.69-21.03,4.09-31.89,29.05-32.4,39.34-.51,10.29-46.05,15.24-46.05,15.24,0,0,83.16,3.96,101.97-10.89Zm-10.89-28.71c17.82,16.83-36.47,25.19-36.47,25.19,0,0,18.65-42.02,36.47-25.19Z"/><path class="cls-4" d="m787.88,892.92c-18.81-14.85-101.97-10.89-101.97-10.89,0,0,45.54,4.95,46.05,15.24.51,10.29,11.37,35.25,32.4,39.34,21.03,4.09,42.33-28.84,23.52-43.69Zm-10.89,28.71c-17.82,16.83-36.47-25.19-36.47-25.19,0,0,54.29,8.36,36.47,25.19Z"/><path class="cls-2" d="m483.26,204.25s26.07-33.07,26.59-56.82c0,0,4.17,29.52,2.81,41.52,0,0-17.18,27.83-22.77,30.62,0,0-5.84-6.44-6.64-15.32Z"/><path class="cls-2" d="m483.26,204.25s-4.53-8.88-4.53-14.47c0,0-20.31,32.25-24.12,33.81l2.71,12.73,25.94-32.08Z"/><path class="cls-2" d="m489.91,219.57s12.1,20.48,15.83,25.13c0,0-23.27,25.13-32.58,41.89,0,0-8.84-13.5-9.77-22.81,0,0,17.69-34.44,26.53-44.22Z"/><path class="cls-2" d="m457.33,236.33l6.05,27.46s-23.27,32.58-45.62,38.17l-4.39-15.36s35.11-39.56,43.96-50.27Z"/><path class="cls-2" d="m473.15,286.6l13.5,12.57s-33.51,66.1-36.31,63.3c0,0-20.48-15.83-20.48-27,0,0,16.93-6.86,24.76-23.91,7.83-17.05,18.53-24.96,18.53-24.96Z"/><path class="cls-2" d="m417.76,301.96l12.1,33.51s-9.71,10.56-16.49,23.9c-6.78,13.34-17.02,23.58-17.02,23.58l-8.22-20.39s6.58-6.6,8.8-20.1c2.22-13.5,8.74-34.91,20.84-40.49Z"/><path class="cls-2" d="m396.35,382.95l17.02,29.58s-41.36,64.44-47.81,64.91c0,0-4.59-22.81-4.59-34.91,0-12.1,34.44-52.13,35.37-59.58Z"/><path class="cls-2" d="m388.13,362.56s-25.29,43.25-27.15,49.98c0,0,5.59-59.37,21.41-77.06,0,0,1.24,16,5.74,27.08Z"/><path class="cls-2" d="m413.37,286.6l-.73-9.31s-26.07,36.31-30.25,58.18c0,0,15.71-13.03,20.65-29.09,4.95-16.06,10.33-19.78,10.33-19.78Z"/><path class="cls-4" d="m365.57,488.64s9.17,67.81,56.28,134.19c47.11,66.38,85.54,154.82,27.69,213-57.85,58.18-239.03,70.28-295.99-27.93-56.96-98.21,41.8-187.08,87.84-168.25,46.04,18.84,49.87,74.69,19.1,78.41-30.77,3.72-66.15-27.93-43.81-43.75,22.34-15.83,34.58,22.14,25.67,18.98,0,0-5.38-5.22-5.75,0-.37,5.22,16.39,12.67,17.32-4.09.93-16.76-12.1-37.24-39.1-26.07-27,11.17-55.86,65.16-28.86,109.85,27,44.68,124.95,82.85,168.96,58.18,44.01-24.67,119.13-88.32,77.95-167.27-41.18-78.96-81.32-148.7-67.3-175.27Z"/><path class="cls-2" d="m349.18,573.32l-9.5-26.47s10.86-34.8,23.06-43.96c0,0,3.54,22.05,6.94,31.58,0,0-4.05,5.8-10.57,17.91-6.52,12.1-9.94,20.95-9.94,20.95Z"/><path class="cls-2" d="m369.68,619.88s-.79,12.09,31.79,53.98l13.96-36.31s-26.05-48.41-28.85-55.86c0,0-17.04,38.19-16.9,38.18Z"/><path class="cls-2" d="m336.3,681.68s14.73,20.82,33.38,39.95c0,0-8.82,20.42-16.69,25.06s-13.16,15.23-13.16,15.23c0,0-17.64-23.81-17.64-27.34s-5.29-24.69-4.41-30.86c0,0,11.46-8.82,18.52-22.04Z"/><path class="cls-2" d="m369.68,721.62l31.79-47.76s8.38,19.55,36.31,40.03c0,0-14.89,39.1-30.72,52.13,0,0-32.86-35.74-37.38-44.4Z"/><path class="cls-2" d="m366.1,811.64l-27.93-47.48-7.45,8.38s7.45,22.34,21.41,49.34c0,0,7.45-2.79,13.96-10.24Z"/><path class="cls-2" d="m348.41,577.51l21.27,42.37-33.38,61.8-18.62-29.91s8.38-26.32,8.38-38.42l22.34-35.84Z"/><path class="cls-2" d="m408.92,767.88l-40.96,45.62s22.34-6.52,46.55-39.1l-5.59-6.52Z"/><path class="cls-1" d="m359.52,858.96c-31.6-41.74-79.12-152.52-48.84-249.34,30.28-96.82,85.06-169.72,129.81-229.15,44.76-59.43,112.6-173.68,58.66-287.38,0,0-8.42-63.47,6.59-47.53,96.83,102.78,18.88,254.76-22.48,305.51-48.75,59.8-142.14,155.69-152.23,226.43-10.09,70.75-57.69,132.74,55.48,307.48"/><path class="cls-3" d="m457.5,796.5s55.4,88.46,25.43,134.92c0,0,87.62-37.32-25.43-134.92Z"/><path class="cls-5" d="m545.61,809.61s-42.89-66.48-54.05-118.77c-11.16-52.29-8.14-101.29-2.72-100.82,5.42.47,15.47,26.79,15.94,31.13.47,4.34,1.22,22.54-4.84,11.64-6.72-12.09-5.22-16.95-4.94-19.9.28-2.95-3.99-1.47-3.98,4.04.01,5.51,5.22,98.02,54.58,192.68Z"/><path class="cls-5" d="m550.72,804.15s-27.83-59.78-30.93-108.13c-3.1-48.35,3.16-44.22,16.19-42.89,13.02,1.33,38.51,23.91,24.16,38.36-14.35,14.45-25.48-.93-26.75-6.42-1.27-5.48-2.69-15.74,6.39-16.12,9.08-.38,4.61,13.41,4.61,13.41,0,0,9.51-2.87,7.49-9.74-2.02-6.87-14.7-17.14-22.19-10.23-7.49,6.92,8.48,113.36,21.03,141.76Z"/><path class="cls-5" d="m555.19,804.95s4.73-6.08,2.18-22.59c-2.55-16.51-3.52-59.97,9.35-80.18,12.88-20.21,29.53-44.76,32.62-59.22,0,0-11.8,21.16-32.9,11.87-21.11-9.28-48.2-32.65-59.41-161.52,0,0-7.92,13.49-8.04,44.92-.12,31.43,2.79,53.6,4.62,53.17,1.83-.42-1.34-6.5,1.5-6.99,2.84-.49,8.56,22.05.24,23.81-8.32,1.76-10.18-32.6-11.56-45.86-1.38-13.26-2.77-55.79,1.78-77,4.55-21.2,13.04-50.46,17.16-49.72,4.12.74,1.64,18.81.78,26.41-.86,7.6-2.8,47.79,7.46,86.91,10.26,39.12,30.91,91.5,54.72,92.69,23.81,1.19,15.04-7.14,23.93-12.05,8.89-4.91,15.58-7.09,12.33,4.65-3.25,11.74-16.66,48.88-26.82,62.32-10.16,13.44-21.37,34.83-16.7,53.43,4.68,18.6,9.42,50.1.25,78.99l-13.47-24.06Z"/><path class="cls-5" d="m578.28,809.08s-2.32-28.16,10.59-45.26c12.91-17.09,30.71-33.93,44.13-43.28,13.42-9.35,32.79-28.23,24.67-45.66-8.13-17.43-26.7-14.33-31.39-5.62-4.68,8.71-7.2,27.65-1.58,28.41,5.62.76,10.96-2.54,6.23-9.64-4.73-7.1-10.85-13.45-1.29-13.74,9.56-.29,18.58,3.83,16.69,13-1.89,9.17-10.19,35.96-34.45,26.11-24.26-9.85-.58-44.64,12.06-54.26,12.64-9.62,23.98-19.85,38.82-14.69,14.84,5.16,19.52,26.52,19.52,33.52,0,7.01-1.71,27.72-26.9,48.23-25.19,20.51-37.61,29.8-43.4,32.76s-33.19,19.58-33.7,50.14Z"/><path class="cls-5" d="m582.64,836.89s1.65-42.74,34.67-60.85c33.02-18.11,72.79-48.77,77.04-79.54,4.26-30.76-3.67-68.97-21.61-91.7-17.95-22.73-37.73-61.8-35.68-94.21,2.05-32.41,6.65-51.1,20.68-83.37,0,0-8.27,69.14,7.83,113.78,16.1,44.64,31.68,76.77,39.94,93.35,8.26,16.59,15.3,41.78,4.58,76.23-9.44,30.34-38.54,70.45-60.06,81.08-35.68,17.63-66.36,29.65-67.4,45.23Z"/><path class="cls-5" d="m666.78,638.02s-4.18,1-11.96-8.65c-7.78-9.65-24.85-31.72-31.38-70.68-6.54-38.95,2.39-70.63,6.31-79.94,0,0-9.67,54.69,2.42,93.39,12.09,38.7,34.52,65.73,34.62,65.88Z"/><path class="cls-5" d="m644.14,636.34s-5.95,3.62-13.01-4.55c-7.06-8.17-27.84-51.78-28.98-81.58-1.13-29.81-3.29-62.47,33.62-98.15,0,0-27.34,54.21-26.05,87.5,1.29,33.3,10.72,73.77,34.42,96.78Z"/><path class="cls-5" d="m606.68,618.75s-13.4,10.01-19.93-16.13c-6.53-26.14-12.17-75.69,4.41-111.01,16.58-35.31,32.47-56.99,43.41-60.79,0,0-38.25,41.07-42.43,102.12-4.18,61.06,14.54,85.8,14.54,85.8Z"/><path class="cls-5" d="m582.68,625.34s2.88,6.55-4.4,1.79c-7.28-4.76-36.85-22.89-48.46-101.87-11.61-78.98,2.86-120.68,21.93-140.54,19.07-19.86,40.77-26.48,56.12-63.27,0,0,5.88,27.95-5.99,52.35-11.87,24.4-23.98,71.02-16.86,71.8,7.12.77,22.37-28.52,24.04-48.99,0,0,1.28,33.01-12.65,57.16-13.92,24.15-25.86,45.41-27.68,87-1.49,34.22,1.71,75.12,13.96,84.57Z"/><path class="cls-5" d="m787.88,868.17c18.81-14.85-2.49-47.77-23.52-43.69-21.03,4.09-31.89,29.05-32.4,39.34-.51,10.29-46.05,15.24-46.05,15.24,0,0,83.16,3.96,101.97-10.89Zm-10.89-28.71c17.82,16.83-36.47,25.19-36.47,25.19,0,0,18.65-42.02,36.47-25.19Z"/><path class="cls-5" d="m787.88,892.92c-18.81-14.85-101.97-10.89-101.97-10.89,0,0,45.54,4.95,46.05,15.24.51,10.29,11.37,35.25,32.4,39.34,21.03,4.09,42.33-28.84,23.52-43.69Zm-10.89,28.71c-17.82,16.83-36.47-25.19-36.47-25.19,0,0,54.29,8.36,36.47,25.19Z"/><path class="cls-5" d="m359.52,858.96c-31.6-41.74-79.12-152.52-48.84-249.34,30.28-96.82,85.06-169.72,129.81-229.15,44.76-59.43,112.6-173.68,58.66-287.38,0,0-8.42-63.47,6.59-47.53,96.83,102.78,18.88,254.76-22.48,305.51-48.75,59.8-142.14,155.69-152.23,226.43-10.09,70.75-57.69,132.74,55.48,307.48"/></svg>