<?xml version="1.0" encoding="UTF-8"?><svg id="Color1" xmlns="http://www.w3.org/2000/svg" xmlns:xlink="http://www.w3.org/1999/xlink" viewBox="0 0 1080 1137"><defs><style>.cls-1{fill:none;stroke:#064862;stroke-miterlimit:10;stroke-width:3px;}.cls-2{fill:#03b083;}.cls-3{fill:#064862;}.cls-4{fill:#0c6b86;}.cls-5{fill:#48bcc4;}.cls-6{fill:url(#Degradado_sin_nombre_34);}</style><radialGradient id="Degradado_sin_nombre_34" cx="677.67" cy="210.57" fx="677.67" fy="210.57" r="101.33" gradientUnits="userSpaceOnUse"><stop offset="0" stop-color="#48bdc5"/><stop offset=".52" stop-color="#168ea3"/><stop offset=".78" stop-color="#0c6b87"/><stop offset=".99" stop-color="#0c6b87"/></radialGradient></defs><path class="cls-4" d="m279.07,631.44s-25.08-8.33-20.14,16.62c4.94,24.95,30.14,45.25,105.76,84.1,75.63,38.84,255.29,93.29,321.58,60.74,66.29-32.55,99.97-199.16,94.82-244.6-5.15-45.44-15.1-66.71-76.73-54.71-61.63,12-263.55,47.06-344.56,92.68-81.01,45.62,37.9,102.42,76.28,115.39,38.38,12.97,164.76,41.96,207.51-6.19,42.75-48.14,36.54-105.09,27.41-111.62-9.13-6.54-129.6-12.12-153.87-4.19-24.26,7.93-57.46,10.55-50.3,44.62,7.16,34.07,54.17,31.11,67.76,25.64,13.59-5.47,31.1-21.25,24.97-29.1-6.13-7.84-23.5-.94-23.5-.94,0,0,22.24-18.89,44.09-7.26,21.85,11.63,29.37,61.92-28.87,65.12-58.25,3.21-116.07-20.23-119.42-64.76-3.35-44.53,160.31-72.44,213.71-65.99,53.4,6.45,75.85,20.45,66.77,87.17-9.08,66.72-45.06,131.46-143.11,113.07-98.05-18.38-288.76-70.53-290.17-115.79Z"/><path class="cls-2" d="m631.14,366.68s6.3,23.81-19.95,41.17c-26.25,17.36-49.11-3.72-54.34-16.26-5.23-12.54-1.14-39.28,22.43-50.05,23.57-10.77,42.36,14.66,39.23,30.11-3.14,15.45-14.49,31.7-31.76,23.33-17.27-8.37-7.17-27.41,1.76-27.87,8.93-.46,14.39,2.62,10.29,11.08,0,0,9.88-8.93,1.8-17.3-8.08-8.37-31.77,1.91-31.91,18.37s14.71,28.01,27.11,25.76c12.41-2.26,24.99-3.99,35.34-38.35Z"/><path class="cls-5" d="m494.02,209.33s-11.82-23.19-44.73-18.35c-32.91,4.83-36.04,37.54-31.32,51.1,4.72,13.56,26.78,31.73,52.93,23.59,26.15-8.14,23.02-41.4,9.67-51.35s-33.75-14.74-41.45,4.01c-7.7,18.76,13.67,26.63,21.02,20.7,7.35-5.93,9.48-12.21.3-15.98,0,0,14.07.06,13.61,12.35-.46,12.28-26.35,20.89-38.07,8.03-11.72-12.86-8.16-32.42,3.19-39.39,11.36-6.97,22.49-14.48,54.85,5.29Z"/><path class="cls-5" d="m289.64,130.15s-9.67-18.97-36.59-15.01c-26.92,3.95-29.49,30.71-25.62,41.81,3.86,11.1,21.91,25.96,43.3,19.3,21.39-6.66,18.84-33.87,7.91-42.01-10.93-8.14-27.61-12.06-33.91,3.28-6.3,15.34,11.18,21.79,17.2,16.94,6.01-4.85,7.76-9.99.24-13.07,0,0,11.51.05,11.14,10.1-.38,10.05-21.56,17.09-31.15,6.57s-6.68-26.52,2.61-32.22c9.29-5.7,18.4-11.84,44.87,4.33Z"/><path class="cls-3" d="m271.17,723.54c8.53-7.25-21.97-18.86-29.84,0-7.87,18.86,15.96,246.83,53.29,273.05,37.33,26.21,203.35,49.25,338.39,42.1,135.04-7.15,246.67-9.47,246.85-77.81.19-68.35-45.89-321.74-5.37-374.16,0,0-53.62,41.7-49.65,151.32,3.97,109.62,52.43,181.9-58.78,208.91-111.21,27.01-401.14,104.85-447.21-2.38-46.07-107.24-75.5-197.38-47.68-221.02Z"/><path class="cls-6" d="m685.39,208.38c0-6.1-17.62-14.46,0-18.75,17.62-4.29,11.64,27.17-4.68,31.77s-32.58-5.56-25.81-28.6c6.78-23.04,30.49-44.04,51.5-29.81,21.01,14.23,21.68,64.63-10.5,75.34s-55.22-4.87-59.29-22.49c-4.07-17.62,4.07-50.82,27.78-73.86,23.72-23.04,12.87-62.34-8.13-60.98-21.01,1.36-56.92,14.23-16.26,69.79,40.66,55.56,61.66,50.82,71.15,84.02,9.49,33.2,13.55,60.98-8.13,77.92-21.68,16.94-54.89,4.74-43.37-19.65,11.52-24.39,26.76-16.94,23.54-12.87-3.22,4.07-13.65-2.27-11.82,6.32,1.83,8.59,8.6,14.01,19.45,9.95,10.84-4.07,14.23-28.46-4.74-37.27-18.97-8.81-37.95,14.23-37.95,41.33s26.11,43.31,50.66,38.94c24.55-4.38,57.59-51.55,28.88-101.14-28.72-49.6-69.37-69.25-80.21-95-10.84-25.75-4.07-39.3,6.1-36.59,10.16,2.71,16.94,9.49,5.42,23.04-11.52,13.55-57.37,44.41-37.49,84.21,19.88,39.79,72.73,60.8,103.9,7.27,31.17-53.53-18.83-90.37-47.7-65.51-28.87,24.85-33.61,41.79-25.48,64.16,8.13,22.36,52.18,18.97,58.27-18.3,6.1-37.27-26.43-37.27-38.62-22.36-12.2,14.91-6.78,31.17-1.36,34.56,5.42,3.39,14.91,3.39,14.91-5.42Z"/><path class="cls-2" d="m325.32,481.94s-42.68-17.74-42.68-42.68,17.74-70.96,8.87-77.61c-8.87-6.65-68.21-26.22-80.67-23.92-12.46,2.3-23.55,23.36-37.96,49.97-14.41,26.61-19.4,32.15-7.21,44.35,12.2,12.2,33.79,41.71,45.17,36.93,11.38-4.78,39.37-6.17,42.14-17.81,2.77-11.64,17.18-52.66,4.99-59.87-12.2-7.21-18.85-8.32-23.84-8.32s-27.19,12.89-23.3,16.15c3.89,3.25,8.88,22.1,12.76,19.88,3.88-2.22,14.73-13.02,18.45-9.28s12.91,6.48,0,15.09c-12.91,8.61-14.05,20.1-31.22,1.61-17.17-18.5-21.61-15.73-10.52-38.45,11.09-22.73,12.2-26.05,22.17-25.5,9.98.55,51.55,3.33,51.55,9.98s0,91.47-12.75,95.9c-12.75,4.43-63.18,18.29-72.33,13.58-9.16-4.71-51.84-47.95-54.06-55.71-2.22-7.76,57.12-97.91,54.06-107.99-3.06-10.08-11.93-50-11.93-50,0,0,14.97,38.8,25.5,42.68,10.53,3.88,115.86,26.61,118.08,39.36,2.22,12.75-28.83,77.61-22.73,88.14,6.1,10.53,18.85,34.37,39.36,48.78"/><path class="cls-1" d="m881.34,289.82s-5.42,6.63,0,10.09c5.42,3.46,15.58-4.67,10.16-14.16-5.42-9.49-11.52-8.81-18.3-3.39-6.78,5.42-18.3,23.68,0,33.86,18.3,10.18,30.49-14.21,33.88-25.05,3.39-10.84,12.2-65.05,10.16-81.99,0,0,8.81,12.87,26.43,11.52,0,0-9.49,16.26-22.36,1.36,0,0,5.42,66.4-8.81,85.38-14.23,18.97-39.36,25.44-49.16,13.74-9.8-11.7-12.51-42.2,10.53-49.65,23.04-7.45,26.29,11.67,26.02,17.01-.27,5.35-6.37,22.96-21.27,17.54-14.91-5.42,2.71-26.43,2.71-16.26Z"/><circle class="cls-2" cx="846.91" cy="467.78" r="13.21"/><circle class="cls-2" cx="899.76" cy="465.07" r="15.92"/><path class="cls-2" d="m850.86,480.13s27.55-41.14,23.48-66.21c0,0,33.88-.68,35.91-17.62,0,0,9.49,62.34,4.07,73.18-5.42,10.84-7.45-46.75-8.13-48.11,0,0-10.16,10.62-21.01,7.34,0,0-13.09,36.31-34.33,51.42Z"/><path class="cls-5" d="m380.98,340.13s6.97-6.12,1.83-21.97c0,0,7.02,15.16,11.62,14.17,0,0,12.06-.19,16.57-3.28,0,0-17.88,15.12-16.72,18.24,1.15,3.12,3.86,22,2.62,22.46-1.25.46-6.67-18.06-12.09-19.29,0,0-13.91-3.06-18.51-2.07l14.7-8.27Z"/><path class="cls-5" d="m250.63,564.83s6.97-6.12,1.83-21.97c0,0,7.02,15.16,11.62,14.17,0,0,12.06-.19,16.57-3.28,0,0-17.88,15.12-16.72,18.24,1.15,3.12,3.86,22,2.62,22.46-1.25.46-6.67-18.06-12.09-19.29,0,0-13.91-3.06-18.51-2.07l14.7-8.27Z"/><polygon class="cls-1" points="431.87 455.19 487.71 398.74 418.98 451.04 430.07 519.93 411.3 506.66 411.3 506.66 407.89 504.24 398.31 514.22 410.9 506.89 437.66 530.42 431.87 455.19"/><path class="cls-1" d="m324.79,482.29s-42.68-17.74-42.68-42.68,17.74-70.96,8.87-77.61c-8.87-6.65-68.21-26.22-80.67-23.92s-23.55,23.36-37.96,49.97c-14.41,26.61-19.4,32.15-7.21,44.35,12.2,12.2,33.79,41.71,45.17,36.93,11.38-4.78,39.37-6.17,42.14-17.81,2.77-11.64,17.18-52.66,4.99-59.87-12.2-7.21-18.85-8.32-23.84-8.32s-27.19,12.89-23.3,16.15c3.89,3.25,8.88,22.1,12.76,19.88,3.88-2.22,14.73-13.02,18.45-9.28,3.72,3.74,12.91,6.48,0,15.09-12.91,8.61-14.05,20.1-31.22,1.61-17.17-18.5-21.61-15.73-10.52-38.45,11.09-22.73,12.2-26.05,22.17-25.5,9.98.55,51.55,3.33,51.55,9.98s0,91.47-12.75,95.9c-12.75,4.43-63.18,18.29-72.33,13.58-9.16-4.71-51.84-47.95-54.06-55.71-2.22-7.76,57.12-97.91,54.06-107.99-3.06-10.08-11.93-50-11.93-50,0,0,14.97,38.8,25.5,42.68,10.53,3.88,115.86,26.61,118.08,39.36,2.22,12.75-28.83,77.61-22.73,88.14s18.85,34.37,39.36,48.78"/><path class="cls-1" d="m909.73,396.65c-2.03,16.94-35.91,17.62-35.91,17.62,2.49,15.37-6.9,36.78-14.54,51.04-1.29-5.94-6.58-10.39-12.9-10.39-7.3,0-13.21,5.92-13.21,13.21s5.92,13.21,13.21,13.21c5.49,0,10.19-3.35,12.19-8.11,16.33-17.12,26.09-44.17,26.09-44.17,10.84,3.28,21.01-7.34,21.01-7.34.35.71,1.08,16.85,2.47,30.51-2.54-1.72-5.61-2.73-8.91-2.73-8.79,0-15.92,7.13-15.92,15.92s7.13,15.92,15.92,15.92,15.92-7.13,15.92-15.92c0-.37-.03-.73-.05-1.09,2.1-18.65-5.37-67.69-5.37-67.69Z"/></svg>