<?xml version="1.0" encoding="UTF-8"?><svg id="Color1" xmlns="http://www.w3.org/2000/svg" xmlns:xlink="http://www.w3.org/1999/xlink" viewBox="0 0 1080 1137"><defs><style>.cls-1,.cls-2{fill:none;}.cls-3{fill:#03b083;}.cls-4{fill:#fff;}.cls-5{fill:#064862;}.cls-6{fill:#0c6b86;}.cls-7{fill:#48bcc4;}.cls-2{clip-path:url(#clippath);}</style><clipPath id="clippath"><path class="cls-1" d="m352.76,807.56s-79.54-79.54-34.57-432.31c0,0,132.26-158.93,250.69-69.12,118.43,89.81,413.99,576.35,414.98,586.17,1,9.82-123.7,184.82-411.91,193.08-288.21,8.26-336.35-68.11-362.65-116.04-35.01-63.8,76.64-164.96,143.45-161.78Z"/></clipPath></defs><path class="cls-6" d="m606.81,92.02c-96.89,1.11-356.84-2.36-387.57,44.9-30.72,47.26-51.99,132.34-28.36,394.66,23.63,262.32,21.27,418.29,122.89,434.83,101.62,16.54,439.56,28.36,479.73-99.25,40.17-127.61,87.44-588.44,47.26-630.98-40.17-42.54-150.06-41.36-176.06,20.09s56.72,108.71,89.8,85.08c33.08-23.63,21.27-89.8-23.63-73.26,0,0,47.26-26,56.72,14.18,9.45,40.17,26,420.65-33.08,484.46-59.08,63.81-120.52,129.98-255.23,125.25-134.7-4.73-181.97-103.98-189.06-283.59-7.09-179.6,9.45-423.01,75.62-423.01s302.49,18.91,309.58-14.18c7.09-33.08,14.18-80.35-88.62-79.17Z"/><g class="cls-2"><path class="cls-3" d="m457.21,434.95s-4.08,29.91,19.02,11.06c23.1-18.84,10.17-62.9-14.68-69.14-24.85-6.24-74.09,8.11-63.58,82.09,10.51,73.98,76.28,89.08,117.05,44.75,40.78-44.33,30.02-139.87-23.12-158.67-53.14-18.79-99.52-21.93-170.52,69.3-71.01,91.24-177.26,332.57-300.46,363.57-123.2,31-229.86,45.71-186.54,135.01,43.32,89.3,81.12,44.43,182.08,0,100.96-44.43-63.52,16.08-50.58,50.87,12.94,34.79,181.82,69.44,199.28-26.61,17.45-96.05,98.74-87.82,141.76-137.22,43.03-49.4,113.1-173.11,85.38-244.84-27.72-71.73-46.98-138.49,15.78-177.45,62.76-38.96,99.67-20.09,115.61,19.11,15.94,39.2-42.25,108.15-69.36,67.6-27.12-40.56,2.89-29.43,2.89-29.43Z"/><path class="cls-5" d="m513.57,542.71c-29.36,6.93-31.94-2.69-60.69,0-28.75,2.69-34.91,9.99-15.92,57.4,18.99,47.42,40.04,61.4,5.65,82.07-34.39,20.67-3.59,52.89-48.77,92.4-45.17,39.51-66.27,81.8-108.59,81.94-42.32.13-30.03,51.54-54.91,49.54-24.88-1.99-11.54,66.7,11.56,43.9,23.1-22.8,144.54-91.4,189.31-67.74,44.77,23.66,65.11,48.34-15.9,42.08-81.01-6.26-148.42-5.32-121.39,39.5,27.03,44.82,150.25,50.5,197.98,35.81,47.73-14.69,64.02,11.34,47.92,17.78-16.1,6.44-28.85,43.29,53.24,22.43,82.09-20.86,120.2-19.68,156.07-9.02,35.87,10.66,60.57-23.17,31.79-31.18-28.78-8.01-102.18-79.74-51.88-67.58,50.3,12.16,18.65,47.42,70.66,44.98,52.02-2.43,99.86-12.41,98.27-52.71-1.59-40.3-14.91-68.69-73.7-65.44-58.78,3.25-102.42-2.83-141.43-79.42-39.01-76.6-90.86-150.15-101.12-198.18-10.27-48.02-17.07-79.13-41.9-78.47-24.83.66-9.69,36.01-26.24,39.91Z"/><path class="cls-4" d="m279.64,537.1c-34.36,10.81-76.03,33.82-69.69,114.24,6.34,80.41,64.75,122.19,119.69,94.79,54.94-27.4,60.67-145.99,32.36-181.89-28.31-35.91-71.06-30.69-82.36-27.14Z"/><path class="cls-7" d="m339.04,556.92c-13.88-7.53-62.61-18.83-92.03,25.17-29.42,44-27.74,100.93,10.17,129.15,37.91,28.21,89.1,8.84,97.34-25.65,8.24-34.49,1.76-100.25-19.58-101.79-21.34-1.54-53.73,3.03-48.96,28.32,4.77,25.28,32.81,26.68,35.71,18.62,2.9-8.06-2.15-18.22-6.28-18.62-4.13-.4,12.53-15.87,18.95,5.73,6.42,21.61,16.79,63.12-9.22,70.79-26.01,7.67-73.59-9.08-71.92-57.9,1.67-48.81,35.37-77.25,62.19-68.34,26.81,8.91,35.49,34.16,39.69,25.3,4.19-8.86-16.05-30.78-16.05-30.78Z"/><path class="cls-4" d="m533.85,926.57s-10.89-26.21-41.61-17.54c-30.72,8.68-31.81,42.28-20.59,58.34,11.22,16.06,38.03,29.57,53.93,10.17,15.9-19.4,12.32-44.32,8.27-50.97Z"/><path class="cls-5" d="m528.01,928.33c-6.08-6.83-16.68-13.29-35.7-4.25-19.02,9.05-17.15,22.34-5.77,31.94,11.38,9.6,8.77,18.53,19.97,16.37,11.2-2.16,8.16-10.65,15.76-21.17,7.6-10.52,5.73-22.89,5.73-22.89Z"/><path class="cls-4" d="m513.82,936.45c-.6-2.3-17.51-7.89-22,1.22-4.5,9.11,9.26,21.99,16.1,16.66,6.84-5.33,7.31-12.53,5.9-17.88Z"/><path class="cls-5" d="m505.09,940.14c-2.22-2.62-4.79,5.6-2.4,6.03,2.4.43,5.51-2.34,2.4-6.03Z"/><path class="cls-3" d="m874.52,890.23c33.88-24.05-114.1-7.53-149.81-41.23-35.71-33.69-72.16-100.56-96.28-146.15-24.13-45.59-52.44-105.83-64.46-141.36-12.02-35.54-22.93-55.53-24.15-23.34-1.22,32.18,19.77,80.23,53.68,128.85,33.91,48.62,54.44,83.88,68.82,114.88,14.37,31,132.36,165.03,212.22,108.35Z"/><path class="cls-6" d="m533.72,551.18c-4.11-2.43-6.67-5.47-5.65,8.51s17.24,59.45,29.41,91.73c12.17,32.28,50.67,97.32,74.79,140.49,24.13,43.16,89.86,98.86,118.08,110.52,28.22,11.67,98.54,40.24,109.32,31.12,10.78-9.12,15.91-11.55-2.57-11.55s-40.3,5.17-89.06-23.4c-48.77-28.57-101.74-67.71-133.51-124.13-31.77-56.42-90.94-155.78-94.72-185.13-3.78-29.35-6.09-38.16-6.09-38.16Z"/><path class="cls-3" d="m722.36,1011.66s-25.67-45.59-95.99-36.47c-70.32,9.12-52.36-31-45.17-50.46,7.19-19.45,31.83-29.79,33.88-15.2,2.05,14.59-23.61,18.24-11.81,9.12,11.81-9.12-31.98,38.11,7.37,38.51,39.34.4,41.53-33.27,24.01-54.74-17.52-21.46-48.83-24.54-72.96,1.62-24.13,26.16-30.49,91.2-4.21,107.62,26.28,16.41,45.79,4.86,68.89-5.47,23.1-10.33,54.41-23.71,95.99,5.47Z"/><path class="cls-3" d="m698.61,982.09s-9.63-8.35,0-36.04c9.63-27.7,10.66-50.8-7.31-63.56-17.97-12.77-45.41-20.67-47.34,0-1.93,20.67,2.12,53.69,19.73,52.83,17.61-.85,23.77-20.31,14.01-26.39-9.75-6.08-14.37,7.29-13.86,9.73.51,2.43-9.24-6.08-3.59-20.06,5.65-13.98,20.02-8.51,27.72,0,7.7,8.51,12.83,14.59,6.67,30.39-6.16,15.81-14.13,31.44,3.97,53.1Z"/><path class="cls-4" d="m506.56,559.9c3.05,10.16,8.43,33.75,7.13,43.6s-4.44,18.49-13.18,23.05c-8.74,4.56-15.51,7.12-20.95-4.81-5.44-11.92-14.57-29.69-12.6-35.01,1.96-5.32,17.69-20.79,22.72-18.54,5.03,2.25,14.04,20.72,11.01,27.56-3.04,6.83-9.81,10.83-11.63,8.27-1.82-2.56-9.91-9.76-7.48-12.71,2.43-2.95,5.64-7.44,6.84-4.46,1.2,2.98-2.16,4.1-1.98,5.58.19,1.48,1.64,4.8,3.5,3.98,1.86-.82,8.12-3.82,6.5-8.9-1.61-5.07-1.98-12.82-6.23-10.69s-16.55.93-16.61,6.59c-.06,5.66,1.77,31.71,8.71,32.12,6.94.41,27.81-2.33,27.03-11.43s-3.92-45.18-13.42-44.93c-9.5.25-25.8,6.44-31.85,15.65-6.05,9.21-.24,27.7,3.84,35.73,4.08,8.03,13.45,31.38,23.07,29.27,9.62-2.11,27.26-2.13,28.32-13.91,1.06-11.78.19-54.16-4.21-61.06-4.4-6.9-8.56-4.96-8.56-4.96Z"/><path class="cls-6" d="m452.75,712.21s-.6-3.32,3.16-2.83c3.76.49,14.99,7.55,11.1,21.02-3.89,13.47-10.07,21.44-19.95,25.31-9.87,3.87-19.69,11.81-21.2,20.89-1.5,9.08,1.57,28.81-10.72,28.47s-9.73-21.02-6.93-24.98c2.8-3.96,6.65-2.84,4.1.4,0,0,4.11,4.65,5.35-2.32,1.24-6.97-5.73-8.57-9.55-5.22-3.82,3.35-11.02,15.59-4.2,32.33,6.82,16.73,19.41,10.77,24.1,4.09,4.69-6.68,1.42-16.86,1.51-23.49.08-6.63,4.28-18.27,12.61-20.03s22.29-4.47,26.61-26.17c4.32-21.7-4.22-32.94-10.8-34.7-6.59-1.76-11.62,4.14-8.69,12.02,2.94,7.88,8.96,3.65,8.7-.52s-1.21-6.99-5.22-4.26Z"/><path class="cls-6" d="m271.51,901.65s-16.94-3.45-27.01,5.12c-10.07,8.57-14.97,23.73-3.78,27.4,11.2,3.67,18.88-16.33,20.26-22.05s10.53-10.47,10.53-10.47Z"/><path class="cls-7" d="m461.53,729.13s-4.48,7.88-10.17,9.15c-5.69,1.27-11.59-1.67-9.03-7.33,2.56-5.66,10.74-2.28,12.82-.99,2.08,1.3,6.38-.83,6.38-.83Z"/><path class="cls-7" d="m476.72,730.28s-5.55,6.86-5.39,13.71c.16,6.85,3.84,13.06,7.96,8.89s-.4-12.91-1.9-15.04c-1.51-2.13-.67-7.56-.67-7.56Z"/><path class="cls-7" d="m470.56,762.5s-5.55,6.86-5.39,13.71c.16,6.85,3.84,13.06,7.96,8.89,4.13-4.17-.4-12.91-1.9-15.04-1.51-2.13-.67-7.56-.67-7.56Z"/><path class="cls-7" d="m441.51,746.76s-4.48,7.88-10.17,9.15c-5.69,1.27-11.59-1.67-9.03-7.33,2.56-5.66,10.74-2.28,12.82-.99,2.08,1.3,6.38-.83,6.38-.83Z"/><path class="cls-7" d="m513.95,637.65s-14.71,1.28-11.05,31.77c3.66,30.49,4.94,48.72-12.2,51.84-17.14,3.12-26.93-14.38-22.73-25.2,4.2-10.81,13.84-20.49,22.1-9.78,8.25,10.71-4.05,19.52-7.43,17.3-3.38-2.22-5.23-5.51-3.32-7.43,1.91-1.93,6.15,1.87,6.15,1.87,0,0,5.09-7.23-3.15-9.59-8.24-2.37-11.62,6.84-12.04,10.93-.41,4.09,2.13,15.11,14.29,15.23,12.16.12,18.07-6.41,17.56-15.97-.5-9.57-11.75-54.85,11.82-60.95Z"/><path class="cls-7" d="m382.29,836.16s-4.35-8.7,5.87-13.05c10.22-4.36,21.08,7.63,20.2,16.39-.88,8.76-8.46,16.17-17.64,15.18-9.18-.99-13.17-5.85-18.28-10.93-5.12-5.08-17.54-11.87-27.1-2.16-9.56,9.71-11.61,21.85-3.37,29.57s17.32.5,18.43-6.67c1.1-7.17-3.19-11.92-6.17-10.25-2.98,1.67-6.61,6.9-2.92,11.42,3.69,4.51,4.32-3.43,5.03-2.27.71,1.16-4.96,11.08-10.79,4.84-5.83-6.24-8.14-12.85.65-18.93,8.78-6.08,13.08-6.82,20.94-.54,7.86,6.28,26.37,15.24,35.24,8.49,8.87-6.75,15.97-20.86,8.63-32.02-7.35-11.16-18.75-9.35-27.08-3.36-8.34,5.99-7.07,14.98-1.81,17.85,5.27,2.87,7.53-1.31,6.71-3.19-.82-1.88-4.1-4.38-6.52-.38Z"/><path class="cls-7" d="m470.59,661.26s-5.25-3.49-.31-10.43c4.94-6.94,15.16-4.16,17.23,1.56,2.08,5.72-.34,13.42-6.25,16.66-5.9,3.24-9.79,1.93-14.43.97-4.64-.96-14.26.09-17.2,10.02-2.94,9.93-.58,18.21,6.76,19.48,7.34,1.27,10.73-6.94,9.27-11.79-1.47-4.84-5.51-5.95-6.83-3.68-1.32,2.27-1.98,6.98,1.62,8.2,3.6,1.21,1.61-3.9,2.4-3.49s.28,8.85-5.15,7.47c-5.43-1.37-8.81-4.45-5.25-11.83,3.55-7.39,5.96-9.64,12.63-9.09,6.67.55,20.65-1.73,24.06-9.56,3.41-7.83,3.53-19.43-4.28-23.17-7.82-3.74-14.24,2.14-17.55,9.28-3.31,7.15.15,12.11,4.22,11.66,4.08-.45,4.21-3.95,3.15-4.76-1.06-.81-3.82-.96-4.1,2.5Z"/><path class="cls-7" d="m419.05,829.48s1.57-7.26,9.67-8.55c8.1-1.29,24.25-7.49,29.29-21.7,5.04-14.21-1.83-29.4-13.73-28.42,0,0,12.18,12.96,6.07,25.17-6.11,12.21-13.22,18.8-18.81,19.42-5.59.62-12.95,4.54-12.49,14.07Z"/><path class="cls-3" d="m320.02,869.56c-10.42-9.54-21.67-12.67-39.59,4.77-5.63,5.48-15.98,16.12-2.22,28.63,13.75,12.5,40.84-4.77,44.31-9.71,3.47-4.94,7.92-14.15-2.5-23.69Zm-8.06,21.55c-7.78,4.77-14.68,10.04-24.15,0-9.47-10.04,2.2-16.78,8.87-18.59,6.67-1.81,13.47-1.15,17.92,4.44,3.49,4.39,5.14,9.38-2.64,14.15Z"/><path class="cls-5" d="m296.68,872.52c-6.67,1.81-18.34,8.55-8.87,18.59,9.47,10.04,16.37,4.77,24.15,0,7.78-4.77,6.13-9.76,2.64-14.15-4.45-5.59-11.25-6.25-17.92-4.44Z"/><path class="cls-3" d="m297.75,874.18c-4.97,1.35-13.67,6.38-6.61,13.86,7.06,7.48,12.2,3.56,18,0,5.8-3.56,4.57-7.28,1.97-10.55-3.31-4.17-8.39-4.66-13.36-3.31Z"/><path class="cls-5" d="m304.22,878.53c3.72,2.52,2.67,3.14,0,5.48-2.67,2.33-6.01.69-7.68-1.86-1.66-2.55,4.65-5.66,7.68-3.61Z"/><path class="cls-7" d="m536.82,786.75s2.63-58.24-24.17-58.13c-26.8.11-26.65,37.34-24.3,64.04,2.34,26.7-17.35,50.34-26.56,56.25-9.21,5.91-30.86,29.58-15.8,47.3,15.06,17.72,21.11-3.06,29.28-3.06s58.89,12.56,97.81-6.97c38.92-19.53,47.69-37.09,47.39-64.67-.3-27.58-28.45-30.62-51.58-9.22,0,0,21.18-29.83,12.33-50.25-8.85-20.42-24.57-22.7-34.41-4.36-9.83,18.33-9.98,29.07-9.98,29.07Z"/><path class="cls-5" d="m494.48,803.06s12.4,12.9,22.99-2.51c10.59-15.4,6.35-28.66,1.21-33.31-5.14-4.66-14.22-3.58-13.61,8.96,0,0,3.93-7.88,8.47-3.94,4.54,3.94,7.26,22.93-8.47,20.78-15.73-2.15-12.1-28.66-3.63-37.26,8.47-8.6,19.66-8.96,26.32,6.45,6.65,15.4,9.07,38.69-10.59,49.79-19.66,11.1-28.43,1.07-22.69-8.96Z"/><path class="cls-5" d="m536.82,825.27s3.63-64.84,28.43-65.91c24.8-1.07,9.98,63.41-28.43,65.91Z"/><path class="cls-4" d="m546.81,810.23s5.14-39.4,17.24-34.75c12.1,4.66-17.24,34.75-17.24,34.75Z"/><path class="cls-5" d="m566.97,825.27c6.86-2.82,27.73-21.44,37.81-8.39,10.08,13.05,3.12,42.42-25.01,52.45-28.13,10.03-39.93,7.52-44.47-3.58-4.54-11.1,19.46-35.46,31.66-40.48Z"/><path class="cls-4" d="m591.55,831.08c4.77,4.13,1.53,21.06-21.76,31.09-23.29,10.03-29.64-1.99-22.99-10.67,6.65-8.68,33.24-30.38,44.75-20.42Z"/><path class="cls-5" d="m577.45,838.54c1.22,4.8,6.26,10.02,7.47,1.78,1.21-8.24-8.29-5-7.47-1.78Z"/><path class="cls-5" d="m563.95,847.25c-2.39,2.66-2.02,5.97,1.3,4.89,3.33-1.07,3.75-10.5-1.3-4.89Z"/><path class="cls-4" d="m375.43,395.04s-46.46,60.91-48.93,77.67l-40.72-10.9,35.42-47.42,54.23-19.36Z"/><path class="cls-4" d="m326.5,472.72l31.46,4.25s-24.63,35.7-31.46,66.21l-34.2-4.3s27.17-67.41,34.2-66.15Z"/><path class="cls-4" d="m213.34,674.2s-46.01,51.3-51.07,56.09l-5.07,4.79s-27.71-17.65-33.1-29.19c0,0,58.34-70.67,57.48-78.1l31.76,46.42Z"/><polygon class="cls-4" points="292.31 538.87 252.91 519.91 211.61 586.74 226.65 599.57 292.31 538.87"/><path class="cls-4" d="m196.39,742.26s17.26,11.97,34.85,12.27c0,0,20.62-25.72,21.67-29.73l-26.27-20.14-30.25,37.6Z"/><path class="cls-4" d="m294,759.35l23.51-37.73,46.08-8.62s-14.33,41.86-32.63,57.63l-36.96-11.55v.27Z"/><path class="cls-4" d="m294,759.08s-57.25-.6-62.76-4.56c0,0-39.76,43.47-51.13,45.59l54.85,19.14s54.41-40.73,59.03-60.18Z"/><path class="cls-4" d="m196.39,742.26s-28.67,45.4-59.47,52.69l-48.32-8.05s59.61-36.93,68.59-51.82l39.19,7.19Z"/><polygon class="cls-4" points="136.93 794.95 180.11 800.12 124.1 852.35 78.83 843.96 136.93 794.95"/><path class="cls-4" d="m88.61,786.89s-42.41,24.47-77.12,32.37l-60.04-24.32,90.37-24.32,46.79,16.26Z"/><path class="cls-4" d="m234.97,819.26s-60.63,33.24-66.25,46.71l27.67,15.52,69.89-46.43-31.31-15.81Z"/><path class="cls-4" d="m168.72,865.97l-44.62-13.62-72.21,44.48,43.77,35.81s39.66-53.39,73.06-66.66Z"/><path class="cls-4" d="m78.83,843.96l-67.34-24.7s-43.93,23.87-90.91,24.7l86.42,37.53s54.28-40.8,71.83-37.53Z"/><polygon class="cls-4" points="7 881.5 51.89 896.83 -45.82 942.92 -87.28 919.63 7 881.5"/><path class="cls-4" d="m95.66,932.64l63.67,22.95s-53.95,80.35-139.3,38.27l75.64-61.22Z"/></g></svg>