<?xml version="1.0" encoding="utf-8"?>
<!-- Generator: Adobe Illustrator 27.0.0, SVG Export Plug-In . SVG Version: 6.00 Build 0)  -->
<svg version="1.1" id="Capa_1" xmlns="http://www.w3.org/2000/svg" xmlns:xlink="http://www.w3.org/1999/xlink" x="0px" y="0px"
	 viewBox="0 0 800 800" style="enable-background:new 0 0 800 800;" xml:space="preserve">
<style type="text/css">
	.st0{fill:#064862;}
	.st1{fill:#0C6B80;}
	.st2{fill:#48AEB6;}
	.st3{fill:#03A280;}
</style>
<g>
	<path class="st0" d="M400.88,223.19c-14.01,0.67-28.01,2.68-41.6,5.74c-12.26,2.76-24.32,6.46-35.92,11.32
		c-11.55,4.84-22.65,10.86-32.7,18.35c-9.87,7.35-18.69,16.16-25.61,26.36c-3.72,5.48-7.08,10.94-9.92,16.95
		c-3.07,6.5-5.7,13.22-7.87,20.08c-4.34,13.72-6.85,28.02-7.41,42.4c-0.31,7.98-0.03,15.98,0.87,23.92
		c0.87,7.67,2.55,15.78,7.97,21.27c9.19,9.32,25.29,7.03,36.18-0.23c8.92-5.95,16.1-15.1,17.79-25.68s-3.04-22.4-12.53-27.38
		c-9.49-4.97-23.12-1.11-27.16,8.82c10.38-31.37,28.84-61.86,58.01-77.36c20.66-10.98,44.84-13.47,68.23-12.59
		c41.07,1.55,84.84,15.14,108.44,48.78c17.67,25.19,21.32,57.88,18.18,88.49c-2.89,28.1-11.41,56.36-29.29,78.23
		c-24.32,29.76-64.41,46.2-81.05,80.85c-7.73,16.1-9.37,35.03-4.51,52.22c4.89,17.29,15.81,32.11,24.91,47.61
		c9.1,15.49,16.72,33.2,13.92,50.95c14.61-28.56-11.45-63.59-2.85-94.49c5.49-19.72,23.58-32.75,39.77-45.27
		c39.29-30.39,74.87-68.47,90.44-115.64c11.95-36.21,11.29-75.9,1.87-112.86c-11.56-45.36-37.78-88.78-78.54-111.81
		C463.47,226.92,432.13,221.71,400.88,223.19z"/>
	<path class="st1" d="M395.17,678.56c7.81,7.85,6.53,4.2,18.9,16.06c12.37,11.87,10.57,28.03-6.61,37.82
		c-17.19,9.79-43.63-39.8-39.61-59.54c4.03-19.74,8.51-24-1.55-26.6c-10.05-2.6-2.48-25.9,10.06-25.83
		c12.54,0.07,23.77,18.83,19.45,30.19C391.49,662.01,388.65,672,395.17,678.56"/>
	<path class="st2" d="M397.16,514.61c0,0-34.45,1.35-38.46-39.69c-4.01-41.04,5.94-37.9-3.57-58.34c0,0,10.08,15.15,30.74,28.9
		C406.53,459.24,397.16,514.61,397.16,514.61"/>
	<path class="st1" d="M422.16,481.55c0,0,26.55-93.95-75.13-123.78c0,0,37.87-43.61,88.71,2.08
		C486.58,405.54,422.16,481.55,422.16,481.55"/>
	<path class="st3" d="M303.61,581.82c0,0-32.83-3.25-52.67,16.37c-19.84,19.63-28.29,10.5-28.29,10.5S287.44,644.19,303.61,581.82"
		/>
	<path class="st3" d="M211.72,463.7c0,0-23.3,34.75-65.52,4.01C146.2,467.71,181.13,436.63,211.72,463.7"/>
	<path class="st3" d="M169.94,326.11c0,0-37.1,30.25-63.76-21.57C106.18,304.54,131.39,283.74,169.94,326.11"/>
	<path class="st3" d="M273.38,205.33c0,0-42.72-22.52-42.34-82.53C231.04,122.8,269.29,133.39,273.38,205.33"/>
	<path class="st3" d="M475.7,179.31c0,0-21.95-40.81-4.3-70.27c17.66-29.45,35.52-28.93,36.3-42.75
		C507.7,66.29,523.03,157.77,475.7,179.31"/>
	<path class="st3" d="M610.72,333.42c0,0,16.4,3.05,34.15-24.79c17.76-27.84,48.95-8.16,48.95-8.16S664.29,360.95,610.72,333.42"/>
	<path class="st3" d="M586.3,477.59c0,0,10.04,5.06,28.71-7.84c18.67-12.9,36.7,16.9,36.7,16.9S616.47,520.33,586.3,477.59"/>
	<path class="st3" d="M545.04,598.32c0,0,11.1,9.21,32.71,4.64c21.61-4.57,25.89,38.95,25.89,38.95S557.22,651.73,545.04,598.32"/>
</g>
</svg>
