<?xml version="1.0" encoding="UTF-8"?><svg id="Color1" xmlns="http://www.w3.org/2000/svg" xmlns:xlink="http://www.w3.org/1999/xlink" viewBox="0 0 1080 1137"><defs><style>.cls-1{fill:#03b083;}.cls-2{fill:#fff;}.cls-3{fill:#064862;}.cls-4{fill:#0c6b86;}.cls-5{fill:#48bcc4;}.cls-6{fill:url(#Degradado_sin_nombre_2);}</style><linearGradient id="Degradado_sin_nombre_2" x1="225.72" y1="458.17" x2="982" y2="458.17" gradientUnits="userSpaceOnUse"><stop offset="0" stop-color="#48bdc5"/><stop offset=".52" stop-color="#168ea3"/><stop offset=".78" stop-color="#0c6b87"/><stop offset=".99" stop-color="#0c6b87"/></linearGradient></defs><path class="cls-3" d="m503.93,1030s7.42-18.96-39.57-52.76c-25.75-18.52,11.54-49.46,24.73-56.06,13.19-6.6,8.24-31.33-29.68-32.98-37.92-1.65-82.44-34.62-47.81-70.9,34.62-36.27,70.9-11.54,128.61-26.38,57.71-14.84,89.2-67.52,60.26-98.89-28.94-31.37-106.43-42.91-121.27-24.77-14.84,18.14,5.95,67.53,26.06,46.96,20.11-20.58,52.26,6.63,25.88,34.66-26.38,28.03-82.44,41.22-122.01,0-39.57-41.22-4.95-133.55,62.65-133.55s159.93,29.68,173.12,93.98c13.19,64.3,3.3,98.93-62.65,102.23-65.95,3.3-117.06,11.54-110.47,36.27,6.6,24.73,23.08,24.73,44.52,18.14,21.43-6.6,39.57,19.79,19.79,34.62-19.79,14.84-54.41,39.57-42.87,64.3,11.54,24.73,18.14,44.52,10.72,65.13Z"/><path class="cls-6" d="m493,334.98c-14.36,31.33-11.26,60.86-55.29,53.09-44.03-7.77-182.58-7.77-205.89,82.87-23.31,90.64,23.31,152.8,86.76,168.34,63.45,15.54,111.36-80.28,174.81-59.57,63.45,20.72,225.32,167.97,403.37,67.15,178.05-100.82,27.84-195.35-9.71-205.7-37.55-10.36-99.21-41.81-139.85-117.84-55.03-102.95-185.96-137.26-254.2,11.65Z"/><path class="cls-2" d="m387.85,485.84s35.42-13.9,17.71-27.67c-17.71-13.77-63.03,10.84-66.92,34.14-3.88,23.31,0,58.27,62.16,40.14,62.16-18.13,104.89-63.45,128.2-117.84,23.31-54.39,40.14-115.25,103.59-124.31,63.45-9.06,164.64,29.63,128.94,123.59-35.7,93.96-117.28,62.88-117.28,27.92s50.4-48.05,59.52-28.56c0,0,13-42.66-45.27-28.42-58.27,14.24-95.02,74.17-54.63,119.96,40.39,45.79,99.95.61,129.74-23.42,29.78-24.03,115.25-46.04,155.39,17.41,40.14,63.45,19.42,172.22-130.79,151.51-150.21-20.72-172.22-55.68-196.83-89.35-24.6-33.67-73.81-53.09-132.08-1.29-58.27,51.8-130.79,77.69-164.45-5.18-33.67-82.87,70.87-169.02,155.21-132.42,84.35,36.6,2.77,100.05-32.2,63.79Z"/><polygon class="cls-2" points="859.04 205.81 883.16 314.26 976.77 344.37 863.74 391.96 787.75 505.17 787.75 379.85 692.16 314.75 801.58 306.49 859.04 205.81"/><polygon class="cls-1" points="805.56 328.31 859.04 205.81 860.69 329.97 976.77 344.37 858.01 374 787.75 505.17 804.58 371.29 692.16 314.75 805.56 328.31"/><path class="cls-3" d="m339.65,262.51s21.86-28.74,44.33,0c22.48,28.74-11.29,71.14-44.33,53.53-33.05-17.61-75.43-45.63-30.17-116.03,45.26-70.4,120.45-3.74,133.86,29.74,13.41,33.48-3.83,77.3,6.94,103.88,10.78,26.58,35.92,52.44,70.4,53.16,0,0-33.24,29.45-69.06,0-35.82-29.45-28.28-72.2-34.74-108.12-6.47-35.92-44.54-68.97-77.23-16.16Z"/><path class="cls-5" d="m284.69,224.08s-43.82,53.16-2.87,94.83c40.95,41.67,66.88,21.32,96.3,44.43,29.42,23.1,66.77,55.43,99.82,42.5,0,0-44.54-5.03-63.22-44.54-18.68-39.51-61.78-26.58-81.18-35.2-19.4-8.62-62.5-30.17-48.85-102.01Z"/><path class="cls-4" d="m193.09,268.26c17.37,7.61,31.61,28.02,41.67,7.9,10.06-20.11,10.85-63.94-105.2-52.08,0,0,42.7-33.41,91.56-27.66,33.84,3.98,30.89,16.52,50.29,9.34,19.4-7.18,35.2-29.79-41.67-36.81-76.87-7.02-193.25,28.9-203.3,130.2,0,0-5.21,21.19,16.25,0,21.46-21.19,83.96-59.99,150.42-30.89Z"/></svg>