<?xml version="1.0" encoding="UTF-8"?><svg id="Color1" xmlns="http://www.w3.org/2000/svg" xmlns:xlink="http://www.w3.org/1999/xlink" viewBox="0 0 1080 1137"><defs><style>.cls-1{fill:#011720;}.cls-2{fill:#03b184;}.cls-3{fill:#fff;}.cls-4{fill:#064862;}.cls-5{fill:#0c6b86;}.cls-6{fill:#48bcc4;}.cls-7{stroke-width:2px;}.cls-7,.cls-8{fill:none;stroke:#011720;stroke-miterlimit:10;}.cls-9{fill:url(#Degradado_sin_nombre_34);}</style><radialGradient id="Degradado_sin_nombre_34" cx="570.74" cy="304.51" fx="570.74" fy="304.51" r="250.57" gradientUnits="userSpaceOnUse"><stop offset="0" stop-color="#48bdc5"/><stop offset=".52" stop-color="#168ea3"/><stop offset=".78" stop-color="#0c6b87"/><stop offset=".99" stop-color="#0c6b87"/></radialGradient></defs><path class="cls-9" d="m340.54,432.09l151.96-231.08s178.79-148.99,375.21-63.23c0,0-114.13,8.77-94.77,102.27,0,0-101.58,34.87-18.99,161.87,0,0-104.26,5.46-124.95,64.67,0,0-134.05-39.41-166.1,31.26,0,0-122.33-57.57-189.13,0l66.76-65.76Z"/><path class="cls-4" d="m145.07,321.65s-52.44,58.1-74.55,107.97c-22.11,49.87-2.06,63.24,13.37,70.44,15.42,7.2,35.99-9.77,42.67-24.17,6.68-14.4,77.12,1.03,60.16-76.09,0,0,37.53,14.91,12.34,80.72,0,0,36.5-42.67-2.57-85.86s-12.85,25.71-24.17,36.5c-11.31,10.8-58.1,27.25-64.27,47.82s-35.99,1.03-31.88-16.97,27.25-99.75,68.9-140.36Z"/><path class="cls-6" d="m11.91,254.81s56.04,159.9,81.75,156.3c25.71-3.6,50.9-31.36,30.85-59.64-20.05-28.28-82.26-68.38-76.61-52.44,5.66,15.94,32.39,94.09,46.27,91.52,13.88-2.57,24.68-17.48,23.14-26.22s-50.39-55.53-49.87-47.3c.51,8.23,20.49,50.28,22.58,37.73,2.09-12.54-6.3-11.48-6.3-11.48,0,0,2.59-9.13,13.72,11.87,11.13,21-3.05,24.29-6.24,20.07-3.19-4.21-28.39-50.49-27.87-60.77.51-10.28,49.36,28.79,56.04,45.76,6.68,16.97-19.02,40.62-28.79,38.05S15.51,254.3,11.91,254.81Z"/><path class="cls-4" d="m154.84,349.42s-29.31-36.5,11.83-78.15c0,0,23.65,20.57,3.6,68.38,0,0,0-39.59-4.11-47.82s-19.02,38.56-11.31,57.58Z"/><path class="cls-4" d="m181.06,305.71s87.41-3.6,104.89,68.38c16.39,67.5,27.25,79.69,27.25,79.69,0,0-24.52-37.42-34.96-70.44-15.94-50.39-29.82-62.73-87.92-74.55l-9.25-3.08Z"/><path class="cls-6" d="m206.26,280.01c-1.54,11.83-8.46,31.47-12.46,35.27s-4,13.06,3.2,9.97c7.2-3.08,20.57-13.37,24.68,4.63s13.37,29.06,25.45,22.5c12.08-6.56,15.17,7.32,20.82,16.06,5.66,8.74,13.88,23.14,27.25,16.45,13.37-6.68-3.08-18.51-3.08-27.76s-30.85,10.28-14.91-10.28c15.94-20.57,9.77-29.82-1.03-22.62-10.8,7.2-3.15-14.4-5.43-15.68s-1.25,4.37-6.91,4.88-8.74-3.6-11.31-18.51c-2.57-14.91-7.2-8.23-13.88,0-6.68,8.23-22.11,21.08-14.91,2.06s12.95-18,5.71-16.97-18.05,26.22-19.07,13.88c-1.03-12.34-4.11-13.88-4.11-13.88Z"/><path class="cls-4" d="m197.05,501.77c-12.41,14.67-22.93,68.47,9.46,127.09,32.39,58.61,93.06,71.98,104.37,67.87s-64.99-20.63-91-78.15c-36.5-80.72-7.1-135.4-22.83-116.8Z"/><path class="cls-4" d="m219.48,514.67c-10.09,11.93-18.65,55.68,7.69,103.35,26.34,47.66,75.68,58.54,84.88,55.19,9.2-3.34-47.88-14.54-69.03-61.31-29.69-65.64-10.75-112.35-23.54-97.22Z"/><path class="cls-4" d="m245.92,530.06c-7.68,9.08-14.19,42.38,5.86,78.65,20.05,36.28,57.59,44.55,64.6,42,7-2.55-36.18-11.45-52.28-47.05-22.59-49.96-8.44-85.12-18.18-73.61Z"/><path class="cls-5" d="m313.2,453.79s4.88,78.92,86.63,79.44c81.75.51,188.69,14.91,224.17,80.72,35.48,65.81,37.53,125.97-25.19,134.19-62.73,8.23-59.64-105.4-7.2-91,52.44,14.4,18.51,49.87,4.63,48.84-13.88-1.03-14.4-7.2,0-8.74,14.4-1.54-11.31-61.18-32.91-12.85-11.35,25.41.51,52.96,30.33,52.96s53.42-45.07,46.27-74.55c-7.14-29.48-91-51.93-110.03-4.11-19.02,47.82-6.17,102.32,42.67,119.28,48.84,16.97,116.2-6.17,99.75-87.92-16.45-81.75-52.44-132.65-116.2-152.19-63.75-19.54-112.6-18-154.76-21.59-42.16-3.6-77.64-26.22-88.18-62.47Z"/><path class="cls-5" d="m824.51,772.4c25.91,12.64,42.35,42.85,37.61,71.77-2.31,13.91-7.17,27.67-9.39,41.3-1.4,8.62.93,17.05,3.92,25.31-28.23-6.25-31.19-39.5-27.37-63.04.29-1.53.81-5.56,1.15-7.04,3.96-23.43-2.6-43.5-5.91-68.3h0Z"/><path class="cls-4" d="m784.76,770.77c-7.58,57.69-4.74,114.65,28.98,162.78,9.74,14.9,21.59,28.22,33.47,41.5,3.63,3.88,7.36,7.75,10.93,12.1-21.59-4.85-41.55-15.67-58.71-30.62-35.33-30.23-51.84-80.67-42.77-125.76,4.37-21.96,12.98-43.37,28.12-60h0Z"/><path class="cls-4" d="m836.67,730.21s-7.66-11.09,5.84-13.38c13.49-2.29,24.82,2.08,21.44,17.86-3.38,15.78-33.59,22.84-51.25,14.77-17.66-8.08-24.82-18.05-8.69-37.18,16.13-19.13,24.66-41.57,86.35-54.49,61.69-12.92,145.52-10.01,173.17,40.59,27.65,50.6-44.7,26.99-45.41,13.47s17.83-16.76,24.22-14.87,13.41,10.16,7.92,15.54-8.16-3.85-7.35-6.23-14.48-3.64-12.56,2.54c1.92,6.18,24.7,15.37,27.47,6.19,2.76-9.18-5.15-22.21-12.76-24.3-7.62-2.09-61.33-37.18-135.61-15.94-74.28,21.25-108.82,47.08-94.41,60.5,14.41,13.42,36.59-4.02,34.31-6.84s-13.84-6.39-12.67,1.76Z"/><path class="cls-4" d="m1016.94,717.47s-24.16-18.38-51.77,1.8c-27.61,20.18-59.41,44.43-114.28,43.71,0,0,65.62,7.77,101.47-19.57,12.52-9.54,39.19-33.51,64.59-25.94Z"/><path class="cls-5" d="m1018.31,689.05s-7.06-6.19-11.07-1.82-16.76,13.16-8.81,15.73c7.96,2.56,11.22,3.1,11.48-1.05s.13-3.33,4.26-8.1c4.13-4.77,8.69-1.92,4.13-4.77Z"/><path class="cls-5" d="m991.58,680.89s-19.58-3.22-20.65,3.31,2.14,12.5.65,16.44c-1.49,3.94-2.37,9.35,5.34,8.26s14.99-1.99,13.14-8.58c-1.85-6.59-1.74-17.46,1.52-19.44Z"/><path class="cls-5" d="m955.6,676.51c-6.17,1.46-19.82,2.5-21.33,6.56-1.52,4.06-.24,7.54,2.91,12.08,3.15,4.54,3.51,12.56,4.13,16.43s2.95,10.12,8.51,6.84c5.56-3.27,13.15-3.32,13.53-5.75s1.33-3.11-1.81-6.98-6.28-10.25-3.98-16.57c2.3-6.32,2.57-13.68-1.96-12.61Z"/><path class="cls-5" d="m915.83,683.94s-17.29.07-16.06,12.85c1.23,12.78,6.26,17.08,9.85,24.94,3.59,7.86,6.45,10.84,10.94,11.58,4.49.74,17.73-.86,18.4-4.94s-3.09-14.33-6.16-18.6c-3.07-4.27-19.6-19.15-16.97-25.83Z"/><path class="cls-5" d="m884.67,696.83s-10.58,8.31-13.44,7.85-4.86,4.09-1.8,10.94c3.06,6.86,6.95,11.26,7.57,17.65.63,6.39,6.82,9.5,12.73,9.21,5.91-.29,15.29-1.26,15.21-5.88-.08-4.62-.5-7.18-3.8-11.29-3.3-4.11-18.16-23.31-16.47-28.48Z"/><path class="cls-5" d="m627.6,571.27s48.33,40.62,63.75,134.19c15.42,93.58,94.28,81.14,100.61,45.97,6.33-35.17-26.5-72.36-52.24-54.03-25.75,18.34-15.41,58.86,9.24,54.03s22.62-49.95,10.27-39.22c-12.35,10.73,6.67,13.3-1.56,21.53s-13.37-16.32-5.91-21.53,16.2-10.86,21.85,4.56c5.66,15.42-5.14,48.33-28.28,41.65-23.14-6.68-26.74-25.71-29.31-52.44-2.57-26.74-9.25-106.94-88.43-134.71Z"/><path class="cls-1" d="m564.88,1009.84s14.4-21.08,14.4-32.39c0,0,5.66,6.68,17.48,5.66,0,0,.51,28.28-9.77,40.1,0,0-17.48-3.6-22.11-13.37Z"/><path class="cls-1" d="m596.75,983.11s2.06-41.83,0-52.28c0,0,11.61,6.85,21.75,0,0,0-3.24,30.68,3.45,42,0,0,1.54,13.88-25.19,10.28Z"/><path class="cls-1" d="m596.75,930.83s-13.88-8.81-15.94-14c0,0-1.03-37.07,2.05-53.01,0,0,9.77,16.97,18.51,19.02,0,0-5.14,11.13-4.63,47.98Z"/><path class="cls-1" d="m613.72,890.05l-12.34-7.2s4.11-25.73,12.34-37.8c0,0,7.2,14.66,12.34,15.18,0,0-10.8,12.85-12.34,29.82Z"/><path class="cls-1" d="m613.72,845.05l-13.88-21.84s24.17-21.08,35.48-23.14l3.08,12.85s-12.34,10.26-24.68,32.12Z"/><polygon class="cls-1" points="626.06 860.23 651.25 826.81 653.77 825.78 630.17 861.77 626.06 860.23"/><path class="cls-1" d="m651.25,826.81s-12.34,1.54-12.85-13.88c0,0,19.54-22.11,19.54-25.19,0,0,2.06,10.28,9.25,10.28,0,0-9.77,20.57-15.94,28.79Z"/><path class="cls-1" d="m635.32,800.07s13.37-9.25,19.54-18.51l-2.06-3.98s-7.2,13.24-17.48,22.49Z"/><path class="cls-1" d="m654.85,781.56l3.08,6.17s18-29.31,20.05-35.99l-8.88-7.38s-6.03,22.8-14.26,37.2Z"/><path class="cls-1" d="m673.06,731.75l6.47,7.65s.99-28.57-5.67-40.25c0,0,3.53,19.81-.79,32.6Z"/><path class="cls-1" d="m321.77,983.7s6.6,16.37,33.85,10.2c0,0,6.17-36.5,6.17-41.65,0,0-26.28,9.25-37.31,0,0,0-6.22,17.64-2.71,31.44Z"/><path class="cls-1" d="m361.79,952.26s14.4-1.54,23.65-8.23c0,0-3.08-29.82-1.54-34.45,0,0-14.91,5.66-25.19,6.68,0,0,3.6,28.79,3.08,35.99Z"/><path class="cls-1" d="m358.7,916.27s-14.16,4.63-23.79,0c0,0,7.85-30.85,7.85-39.59,0,0,6.68,5.14,17.48,3.08,0,0-2.06,32.39-1.54,36.5Z"/><path class="cls-1" d="m383.9,909.58l-2.57-39.59s3.6-2.1,4.11-4.39l4.11,40.38s-1.54,2.06-5.66,3.6Z"/><path class="cls-1" d="m381.33,869.99s-7.71,6.68-21.08,9.77c0,0-.51-37.8-1.54-47.95,0,0,14.81-1.41,21.03-6.03,0,0,1.59,23.14,1.59,44.22Z"/><path class="cls-1" d="m358.7,831.81s-14.4,6.31-20.05,4.76c0,0,1.03-29.82,0-36.5,0,0,12.85-6.17,17.48-9.77,0,0,3.08,25.95,2.57,41.51Z"/><path class="cls-1" d="m347.58,740.75l8.55,49.55s8.23-5.65,13.88-13.62l-1.54-24.42-15.94-20.57s-4.76,8.87-4.95,9.06Z"/><path class="cls-1" d="m320.7,706.52s11.78,45.73,11.78,49.85c0,0,10.15-6.55,15.1-15.62,0,0-6.36-19.72-8.93-24.16,0,0-12.77-10.04-17.95-10.07Z"/><path class="cls-4" d="m358.7,690.65s27.25,116.5,30.85,114.25c3.6-2.25,53.47-114.85,40.1-125.65-13.37-10.8-46.79-12.73-48.33-4.82-1.54,7.91-2.57,45.95,8.23,64.98,10.8,19.02,31.88-38.56,31.88-45.25s-26.74-22.11-28.79-10.8c-2.06,11.31.51,35.48,5.66,29.31s6.17-16.45,2.57-18.51c-3.6-2.06,7.25-1.83,9.54,5s-10.87,19.54-15.09,20.12-13.47-39.52-5.76-42.6,39.08,5.14,35.48,11.31c-3.6,6.17-11.61,62.13-29.71,62.43s-21.19-76.99-23.24-76.65-15.94,5.67-13.37,16.89Z"/><path class="cls-5" d="m570.53,942.49s2.57-48.33-13.88-94.09c-16.45-45.76-8.56-77.64-8.56-77.64,0,0,25.01,29.3,79.51,16.97,0,0-52.19,25.96-55.27,76.35-2.34,38.27-1.8,78.41-1.8,78.41Z"/><path class="cls-6" d="m481.45,217.81s163.87-118.17,303.73-94.83c139.86,23.35-188.68,79.74-149.86,45.89,38.82-33.85,121.08-43.62,128.79-34.88,7.71,8.74-53.47,33.93-60.16,23.14-6.68-10.8,25.71-13.37,25.71-13.37,0,0-21.59-7.71-35.48,7.71-13.88,15.42,20.05,14.91,44.73,6.17s43.7-26.74,27.76-29.31-79.96-16.94-285.23,89.48Z"/><path class="cls-2" d="m489.81,222.16s104.89-57.58,150.13-67.87c0,0-27.25,18-15.94,24.17l-134.19,43.7Z"/><path class="cls-4" d="m313.04,459.17l-39.27,38.68s52.18-55.94,189.13,0c0,0-78.74-49.56-144.68-31.26l11.69-14.09-16.87,6.67Z"/><path class="cls-1" d="m478.95,429.6c-11.59-22.82-29.16-36.82-72.88-25.87-13.75,3.44-39.38,10.62-24.02,40.6,15.37,29.98,75.08,26.91,84.65,22.48,9.57-4.43,23.85-14.39,12.25-37.21Zm-29.29,25.26c-17.01.6-32.84,2.67-42.41-20.09-9.58-22.76,15.66-23.05,28.64-20.19,12.98,2.86,24.47,9.5,28.35,21.5,3.04,9.41,2.44,18.18-14.58,18.79Z"/><path class="cls-3" d="m435.89,414.57c-12.98-2.86-38.21-2.57-28.64,20.19,9.58,22.76,25.4,20.7,42.41,20.09,17.01-.6,17.62-9.38,14.58-18.79-3.88-11.99-15.37-18.63-28.35-21.5Z"/><path class="cls-1" d="m436.6,417.93c-9.68-2.14-28.49-1.92-21.35,15.05,7.14,16.97,18.93,15.43,31.62,14.98s13.13-6.99,10.87-14c-2.89-8.94-11.46-13.89-21.14-16.03Z"/><path class="cls-3" d="m444.9,429.76c4.76,6.84,2.49,6.89-3.85,8.12-6.33,1.23-11.04-3.98-12.17-9.15-1.13-5.17,12.15-4.52,16.02,1.03Z"/><path class="cls-3" d="m715.26,366.8c4.23-.67,2.53-15.24-5.31-12.24-7.84,3-3.64,13.66,5.31,12.24Z"/><path class="cls-3" d="m750.73,238.26c4.23-.67,2.53-15.24-5.31-12.24s-3.64,13.66,5.31,12.24Z"/><path class="cls-3" d="m702.11,333.64c2.73-.84,5.3-7.45,2.54-10.57s-9.7,2.24-8.17,5.87,1.51,5.97,5.64,4.7Z"/><path class="cls-3" d="m707.27,293.44c2.13-3.04,2.63-11.3-3.66-8.43-6.29,2.87-4.8,11.06-2.24,10.99,2.56-.07,3.01,1.55,5.9-2.56Z"/><path class="cls-3" d="m725.78,263.62c2.13-3.04,2.63-11.3-3.66-8.43s-4.8,11.06-2.24,10.99c2.56-.07,3.01,1.55,5.9-2.56Z"/><path class="cls-4" d="m374.73,389.01c-5.16,7.57-17.65,4.34.17-14.04,17.83-18.38,114.43-97.82,189.11-85.43,74.69,12.4,115.36,56.56,134.17,87.37,18.81,30.82-34.57,41.5-50.27,41.61-15.7.11-43.42-10.96-29.27-32.47,14.15-21.51,11.02-42.11-4.09-40.43-15.1,1.68-17.77,9.04-10.44,21.01,7.33,11.97-10.29,54.71-52.13,30.68-41.84-24.03-10.08-34.85,2.35-44.11,12.43-9.26,22.96-25.19-5.7-29.3-28.66-4.11-42.43,22.81-35.91,34.13,6.53,11.32,5.71,58.9-44.35,39.52-50.06-19.38-10.27-46.65-4.41-48.92,5.85-2.27,24.47-20.25,7.73-16.19-16.74,4.06-76.03,25.83-96.98,56.56Z"/><path class="cls-5" d="m611.81,311.36c-10.89-2.49-20.6-12.59-25.42.82-4.82,13.42,24.72,31.3,30.72,22.73,6-8.57,1.38-22.03-5.3-23.56Z"/><path class="cls-4" d="m609.15,314.42c-7.52-1.72-14.23-8.7-17.56.57-3.33,9.27,17.07,21.62,21.22,15.7,4.15-5.92.95-15.21-3.66-16.27Z"/><path class="cls-5" d="m605.1,317.9c-3.72-.85-7.04-4.3-8.69.28-1.65,4.59,8.45,10.7,10.5,7.77,2.05-2.93.47-7.53-1.81-8.05Z"/><path class="cls-5" d="m574.61,300.62c-5.58-6.14-31.21-10.99-34.24-1.07s1.45,18.29,18.9,19.96c17.45,1.67,23.15-10.3,15.34-18.89Z"/><path class="cls-4" d="m569.51,302.73c-3.79-4.18-21.22-7.47-23.27-.73s.98,12.43,12.84,13.57c11.86,1.14,15.74-7,10.43-12.84Z"/><path class="cls-5" d="m564.5,304.88c-2.04-2.24-11.4-4.01-12.51-.39-1.1,3.62.53,6.68,6.9,7.29,6.37.61,8.46-3.76,5.6-6.9Z"/><path class="cls-6" d="m585.84,334.75s.89,14.3-13.85,22.01c-14.75,7.71-35.22,18.47-10.15,30.71,25.07,12.23,33.21-5.93,31.76-12.67-1.45-6.75-8.13-16.68-5.35-25.16,2.77-8.48-2.41-14.88-2.41-14.88Z"/><path class="cls-4" d="m579.82,358.15s.68,4.86-7.31,8.9c-7.99,4.04-10.04,7.8-3.19,12.95,6.85,5.16,12.05.85,13.28-3.26,1.23-4.11-5.12-11.76-2.77-18.59Z"/><path class="cls-6" d="m632.15,326.16s48.37,28.79,48.75,51.66-27.83,23.04-35.66,22.3c-7.83-.74-16.02-12.87-10.33-26.67,5.69-13.81,9.79-34.24-2.76-47.29Z"/><path class="cls-4" d="m662.04,362.51c-4.61-5.97-15.42-9.91-16.32-.41-.9,9.5,7.06,24.88,15.14,22.42,8.08-2.46,8.22-12.88,1.18-22.01Z"/><path class="cls-6" d="m657.51,364.26c-3.56.31-6.22,5.6-1.64,5.94,4.57.34,5.2-6.24,1.64-5.94Z"/><path class="cls-6" d="m661.62,376.21c.75-.94-1.06-3.74-3.52-1.69-2.46,2.05.03,6.08,3.52,1.69Z"/><path class="cls-2" d="m471.08,315.19s31.15-19.71,63.98-19.25l.35,6.42s-17.29-7.55-55.48,11.7l-8.85,1.14Z"/><path class="cls-2" d="m534.21,304.91l.79,5.3s-17.73-3.36-43.5,9.72c0,0-3.57-2.56-6.92-2.19,0,0,30.17-14.53,49.63-12.83Z"/><path class="cls-2" d="m536.36,313.72l1.56,4.38s-21.2.54-35.17,14.17c0,0-1.67-3.89-4.46-5.39,0,0,24.91-14.12,38.07-13.16Z"/><path class="cls-5" d="m432.89,337.48s44.47-30.07,61.49-9.76c17.03,20.32-20.61,24.66-24.31,37-3.7,12.34,12.45,33.33,26.46,23.37,14.01-9.97,12.32-21.97,4.92-27.18-7.4-5.21-21.78,6.69-18.9,12.04,2.88,5.35,7.49,10.29,11.98,4.51,4.49-5.78-3.95-6.01-3.95-6.01,0,0,9.57-2.76,7.81,6.94-1.76,9.7-18.07,6.19-19.67-.73-1.6-6.92-1.73-14.54,12.17-21.41,13.9-6.87,21.52,11.67,19.84,20.23s-10.25,24.86-33.91,14.07-24.33-24.67-9.66-33.72c14.67-9.05,27.5-13.48,21.83-22.19s-21.18-14.51-56.1,2.84Z"/><path class="cls-6" d="m518.47,330.09s-14.35,11.9-10.16,22.59c0,0-10.27-5.43-13.83-1.06,0,0,11.33-21.87,23.98-21.52Z"/><path class="cls-8" d="m611.81,311.36c-10.89-2.49-20.6-12.59-25.42.82-4.82,13.42,24.72,31.3,30.72,22.73,6-8.57,1.38-22.03-5.3-23.56Z"/><path class="cls-8" d="m609.15,314.42c-7.52-1.72-14.23-8.7-17.56.57-3.33,9.27,17.07,21.62,21.22,15.7,4.15-5.92.95-15.21-3.66-16.27Z"/><path class="cls-8" d="m605.1,317.9c-3.72-.85-7.04-4.3-8.69.28-1.65,4.59,8.45,10.7,10.5,7.77,2.05-2.93.47-7.53-1.81-8.05Z"/><path class="cls-8" d="m574.61,300.62c-5.58-6.14-31.21-10.99-34.24-1.07s1.45,18.29,18.9,19.96c17.45,1.67,23.15-10.3,15.34-18.89Z"/><path class="cls-8" d="m569.51,302.73c-3.79-4.18-21.22-7.47-23.27-.73s.98,12.43,12.84,13.57c11.86,1.14,15.74-7,10.43-12.84Z"/><path class="cls-8" d="m564.5,304.88c-2.04-2.24-11.4-4.01-12.51-.39-1.1,3.62.53,6.68,6.9,7.29,6.37.61,8.46-3.76,5.6-6.9Z"/><path class="cls-8" d="m585.84,334.75s.89,14.3-13.85,22.01c-14.75,7.71-35.22,18.47-10.15,30.71,25.07,12.23,33.21-5.93,31.76-12.67-1.45-6.75-8.13-16.68-5.35-25.16,2.77-8.48-2.41-14.88-2.41-14.88Z"/><path class="cls-8" d="m579.82,358.15s.68,4.86-7.31,8.9c-7.99,4.04-10.04,7.8-3.19,12.95,6.85,5.16,12.05.85,13.28-3.26,1.23-4.11-5.12-11.76-2.77-18.59Z"/><path class="cls-8" d="m632.15,326.16s48.37,28.79,48.75,51.66-27.83,23.04-35.66,22.3c-7.83-.74-16.02-12.87-10.33-26.67,5.69-13.81,9.79-34.24-2.76-47.29Z"/><path class="cls-8" d="m662.04,362.51c-4.61-5.97-15.42-9.91-16.32-.41-.9,9.5,7.06,24.88,15.14,22.42,8.08-2.46,8.22-12.88,1.18-22.01Z"/><path class="cls-8" d="m657.51,364.26c-3.56.31-6.22,5.6-1.64,5.94,4.57.34,5.2-6.24,1.64-5.94Z"/><path class="cls-8" d="m661.62,376.21c.75-.94-1.06-3.74-3.52-1.69-2.46,2.05.03,6.08,3.52,1.69Z"/><path class="cls-8" d="m471.08,315.19s31.15-19.71,63.98-19.25l.35,6.42s-17.29-7.55-55.48,11.7l-8.85,1.14Z"/><path class="cls-8" d="m534.21,304.91l.79,5.3s-17.73-3.36-43.5,9.72c0,0-3.57-2.56-6.92-2.19,0,0,30.17-14.53,49.63-12.83Z"/><path class="cls-8" d="m536.36,313.72l1.56,4.38s-21.2.54-35.17,14.17c0,0-1.67-3.89-4.46-5.39,0,0,24.91-14.12,38.07-13.16Z"/><path class="cls-8" d="m432.89,337.48s44.47-30.07,61.49-9.76c17.03,20.32-20.61,24.66-24.31,37-3.7,12.34,12.45,33.33,26.46,23.37,14.01-9.97,12.32-21.97,4.92-27.18-7.4-5.21-21.78,6.69-18.9,12.04,2.88,5.35,7.49,10.29,11.98,4.51,4.49-5.78-3.95-6.01-3.95-6.01,0,0,9.57-2.76,7.81,6.94-1.76,9.7-18.07,6.19-19.67-.73-1.6-6.92-1.73-14.54,12.17-21.41,13.9-6.87,21.52,11.67,19.84,20.23s-10.25,24.86-33.91,14.07-24.33-24.67-9.66-33.72c14.67-9.05,27.5-13.48,21.83-22.19s-21.18-14.51-56.1,2.84Z"/><path class="cls-8" d="m518.47,330.09s-14.35,11.9-10.16,22.59c0,0-10.27-5.43-13.83-1.06,0,0,11.33-21.87,23.98-21.52Z"/><path class="cls-3" d="m784.23,375.44s-1.64-3.6-6.92-2.66-13.49,1.44-16.48-7.63c-2.99-9.06.45-14.46,3.39-16.5s11.53-.94,13.41,6.83c1.88,7.77-2.11,10.29-6.94,7.15-4.83-3.14-3.36-4.86-1.19-5.88s1.51,2.17.88,2.68c0,0,2.56,3.05,4.32.88,1.76-2.17-3.05-7.06-5.49-7.13s-6.37,3.12-5.1,8.48,4.05,8.14,7.44,7.77,9.62-.78,12.68,6.01Z"/><path class="cls-2" d="m532.81,445.07c1.42,5.98,1.47-17.86-9.2-14.73-10.68,3.12-13.66,17.65-7.08,18.78,6.58,1.12,15.86-3.12,9.94-7.92-5.92-4.8-10.11,3.68-7.18,3.81s4.25-1.94,4.25-1.94c0,0,2.23,4.53-3.66,4.46-5.89-.08-5.27-9.46.03-11.36,5.3-1.89,11.08,1.27,12.89,8.91Z"/><path class="cls-2" d="m589.21,445.69c6.11,2.37,14.21-2.17,12.56-9.9-1.65-7.73-11.71-9.18-16.76-4.64-5.05,4.54-4.37,11.22,4.2,14.54Zm-4-9.35c-1.13-6.08,10.21-4.87,12.2-1.57s-1.92,7.66-5.41,7.58c-2.72-.06-5.67.07-6.79-6.01Z"/><path class="cls-2" d="m593.06,439.81c1-.43,1.5-7.63-2.82-6.02-4.31,1.61-3.05,8.53,2.82,6.02Z"/><path class="cls-2" d="m610.48,454.2c11.77,1.7,12.02.92,11.63-3.36-.39-4.28,1.58-11.39-5.11-11.15-6.68.24-12.8,3.69-12.8,3.69"/><path class="cls-2" d="m605.96,438.53s4.25-3.49,7.8-4.63,5.84-5.39.21-9.08c-5.63-3.7-5.46-5.2-7.12-7.66-1.66-2.46-7.75,7.79-7.65,8.9s8.3,7.63,6.76,12.47Z"/><path class="cls-2" d="m593.99,422.44s.03-16.59-7.13-14.52c-7.16,2.07-2.55,7.71-7.43,8.65-4.89.94-11.18,9-.1,13.03,0,0,8-7.61,14.67-7.16Z"/><path class="cls-2" d="m577.83,435.24s-7.53-6.73-10.3-.05c-2.77,6.69,5.79,9.63,11.38,8.76,5.59-.87-1.08-8.71-1.08-8.71Z"/><path class="cls-2" d="m542.97,446.28s14.26,2.08,9.94-7.92c-4.32-10-7.6-22.75-12.78-18.62-5.18,4.13-5.78,15.72-5.78,15.72,0,0,4.07,8.01,2.15,10.27-1.92,2.26,6.47.55,6.47.55Z"/><path class="cls-2" d="m530.73,429.87s8.75-9.62,4.56-14.22c-4.2-4.6-18.81-8.32-17.97-5.28s3.74,11.28,1.72,13.44c-2.01,2.15-3.87-13.3-12.71-6.53-8.84,6.77-1.41,8.67-9.05,12.43-7.64,3.76,5.46,8.69,6.11,12.93s-10.7,11.7-3.22,11.57,15.03-2.44,11.72-9.34-4.18-19.97,18.83-15Z"/><path class="cls-6" d="m457.57,266.02s-33.88,5.03-25.69,12.21c8.19,7.19,40.86.53,61.84-4.02s26.12-9.73,35.38-19.06c9.26-9.33,10.78-3.7,31.21.81,20.43,4.51,29.4,6.95,31.24-6.86,1.84-13.81,1.75-18.3,12.49-7.83s22.55,39.33,51.45,37.16c28.9-2.17,11.21-40.31,8.77-48.21-2.44-7.91,4.07-17.22,17.21,1.31,13.15,18.54,9.77,37.82,18.34,28.5,8.57-9.32-34.08-73.04-48.46-64.28-14.38,8.76,8.89,37.1,10.79,52.14,1.89,15.03-4.26,26.75-20.83,11.67-16.57-15.08-35.66-58.72-49.73-48-14.07,10.72-8.55,14.14-6.8,23.43,1.75,9.29-3.72,17.57-17.18,6.95-13.46-10.62-26.9-16.42-37.19-4.68-10.28,11.74-6.45,23.77-30.54,23.86-24.09.09-42.3,4.91-42.3,4.91Z"/><path class="cls-4" d="m492.5,201.01s184.98-146.06,375.21-63.23c0,0-168.41-110.12-375.21,63.23Z"/><path class="cls-1" d="m770.43,238.3s-26.63-85.66,97.28-100.51c0,0-100.26,19.08-90.49,104.43l-6.79-3.92Z"/><path class="cls-1" d="m462.9,497.85s17.37-72.7,166.1-31.26c0,0-113.84-19.03-166.1,31.26Z"/><path class="cls-1" d="m629,466.59s8.62-60.75,124.95-64.67c0,0-85.43-110.99,16.48-163.63l6.79,3.92s-98.72,55.01-16.45,162.47c0,0-94.38-1.61-131.77,67.06v-5.16Z"/><path class="cls-7" d="m481.68,217.75s163.87-118.17,303.73-94.83c139.86,23.35-188.68,79.74-149.86,45.89,38.82-33.85,121.08-43.62,128.79-34.88s-53.47,33.93-60.16,23.14,25.71-13.37,25.71-13.37c0,0-21.59-7.71-35.48,7.71-13.88,15.42,20.05,14.91,44.73,6.17s43.7-26.74,27.76-29.31-79.96-16.94-285.23,89.48Z"/><path class="cls-7" d="m490.04,222.11s104.89-57.58,150.13-67.87c0,0-27.25,18-15.94,24.17l-134.19,43.7Z"/><path class="cls-7" d="m533.04,445.01c1.42,5.98,1.47-17.86-9.2-14.73s-13.66,17.65-7.08,18.78c6.58,1.12,15.86-3.12,9.94-7.92-5.92-4.8-10.11,3.68-7.18,3.81s4.25-1.94,4.25-1.94c0,0,2.23,4.53-3.66,4.46-5.89-.08-5.27-9.46.03-11.36,5.3-1.89,11.08,1.27,12.89,8.91Z"/><path class="cls-7" d="m589.44,445.63c6.11,2.37,14.21-2.17,12.56-9.9-1.65-7.73-11.71-9.18-16.76-4.64s-4.37,11.22,4.2,14.54Zm-4-9.35c-1.13-6.08,10.21-4.87,12.2-1.57s-1.92,7.66-5.41,7.58c-2.72-.06-5.67.07-6.79-6.01Z"/><path class="cls-7" d="m593.29,439.75c1-.43,1.5-7.63-2.82-6.02-4.31,1.61-3.05,8.53,2.82,6.02Z"/><path class="cls-7" d="m610.71,454.14c11.77,1.7,12.02.92,11.63-3.36-.39-4.28,1.58-11.39-5.11-11.15-6.68.24-12.8,3.69-12.8,3.69"/><path class="cls-7" d="m606.19,438.47s4.25-3.49,7.8-4.63,5.84-5.39.21-9.08c-5.63-3.7-5.46-5.2-7.12-7.66-1.66-2.46-7.75,7.79-7.65,8.9s8.3,7.63,6.76,12.47Z"/><path class="cls-7" d="m594.22,422.38s.03-16.59-7.13-14.52c-7.16,2.07-2.55,7.71-7.43,8.65-4.89.94-11.18,9-.1,13.03,0,0,8-7.61,14.67-7.16Z"/><path class="cls-7" d="m578.06,435.19s-7.53-6.73-10.3-.05c-2.77,6.69,5.79,9.63,11.38,8.76,5.59-.87-1.08-8.71-1.08-8.71Z"/><path class="cls-7" d="m543.2,446.22s14.26,2.08,9.94-7.92c-4.32-10-7.6-22.75-12.78-18.62-5.18,4.13-5.78,15.72-5.78,15.72,0,0,4.07,8.01,2.15,10.27-1.92,2.26,6.47.55,6.47.55Z"/><path class="cls-7" d="m530.96,429.82s8.75-9.62,4.56-14.22c-4.2-4.6-18.81-8.32-17.97-5.28.83,3.04,3.74,11.28,1.72,13.44-2.01,2.15-3.87-13.3-12.71-6.53-8.84,6.77-1.41,8.67-9.05,12.43-7.64,3.76,5.46,8.69,6.11,12.93.65,4.25-10.7,11.7-3.22,11.57s15.03-2.44,11.72-9.34c-3.31-6.9-4.18-19.97,18.83-15Z"/><path class="cls-7" d="m457.8,265.96s-33.88,5.03-25.69,12.21c8.19,7.19,40.86.53,61.84-4.02,20.98-4.55,26.12-9.73,35.38-19.06,9.26-9.33,10.78-3.7,31.21.81,20.43,4.51,29.4,6.95,31.24-6.86,1.84-13.81,1.75-18.3,12.49-7.83,10.74,10.47,22.55,39.33,51.45,37.16,28.9-2.17,11.21-40.31,8.77-48.21-2.44-7.91,4.07-17.22,17.21,1.31,13.15,18.54,9.77,37.82,18.34,28.5,8.57-9.32-34.08-73.04-48.46-64.28-14.38,8.76,8.89,37.1,10.79,52.14,1.89,15.03-4.26,26.75-20.83,11.67-16.57-15.08-35.66-58.72-49.73-48-14.07,10.72-8.55,14.14-6.8,23.43,1.75,9.29-3.72,17.57-17.18,6.95-13.46-10.62-26.9-16.42-37.19-4.68-10.28,11.74-6.45,23.77-30.54,23.86-24.09.09-42.3,4.91-42.3,4.91Z"/><path class="cls-4" d="m262.3,466.59s78.7-13.25,90.38-29.61c11.69-16.36,188.56-314,180.77-314s-108.3,130.9-180.77,287.51c0,0-16.36,30.39-90.38,56.1Z"/></svg>