<?xml version="1.0" encoding="UTF-8"?><svg id="Color1" xmlns="http://www.w3.org/2000/svg" xmlns:xlink="http://www.w3.org/1999/xlink" viewBox="0 0 1080 1137"><defs><style>.cls-1{fill:#03b184;}.cls-2,.cls-3,.cls-4{fill:#fff;}.cls-5{fill:#064862;}.cls-6{fill:#0c6b86;}.cls-7{fill:#48bcc4;}.cls-3,.cls-8,.cls-4{stroke-miterlimit:10;}.cls-3,.cls-4{stroke:#000;}.cls-8{fill:none;stroke:#011720;}.cls-9{fill:url(#Degradado_sin_nombre_2);}.cls-4{stroke-width:3px;}</style><linearGradient id="Degradado_sin_nombre_2" x1="235.45" y1="705.4" x2="617.01" y2="705.4" gradientUnits="userSpaceOnUse"><stop offset="0" stop-color="#48bdc5"/><stop offset=".52" stop-color="#168ea3"/><stop offset=".78" stop-color="#0c6b87"/><stop offset=".99" stop-color="#0c6b87"/></linearGradient></defs><path class="cls-9" d="m447.51,888.36s-46.16-87.63,48.83-96.33c94.99-8.7,130.45-32.78,118.41-72.25-12.04-39.47-112.38-34.79-165.23-26.09-52.85,8.7-120.41,16.05-141.15-13.38-20.74-29.43-68.23-123.76-72.92-157.87,0,0,20.31,157.21,86.75,182.96,66.44,25.75,150.73,9.03,197.56,6.36,46.83-2.68,82.28,6.69,76.93,23.41-5.35,16.72-32.11,32.78-82.95,23.41-50.84-9.37-114.39-6.02-118.41,46.83-4.01,52.85,52.18,82.95,52.18,82.95Z"/><path class="cls-5" d="m235.45,507.49s-13.71-147.7,0-151.84c13.71-4.13,372.28-33.57,411.07-16.84,38.8,16.72,77.6,226.78,64.89,255.54-12.71,28.77-13.53,50.93-94.4,63.59-80.87,12.67-285.34,30.15-305.86,0-20.52-30.15-54.3-109.42-65-205.75-10.7-96.33,242.16-93.65,317.75-93.65s98.8-11.12,110.28,145.62c0,0-13.28-112.18-40.7-119.53-27.43-7.36-183.29-4.01-236.81,0-53.52,4.01-139.14,16.72-135.8,69.57,3.34,52.85,35.45,188.65,64.89,196,29.43,7.36,321.1-8.03,341.84-42.81,20.74-34.79,23.41-64.22,16.05-122.42-7.36-58.2-24.08-127.1-40.81-131.12-16.72-4.01-268.92-12.04-370.6,22.74,0,0-48.83-1.8-36.79,130.88Z"/><path class="cls-5" d="m316.73,526.78c2.01,9.37,3.34,40.81,10.03,40.81s26.09,2.68,26.09-14.05-2.01-38.13-15.39-34.79c-13.38,3.34-20.74,7.36-16.72,7.36s20.38-6.02,21.56-3.68c1.18,2.34,8.54,33.11,4.53,36.46s-18.06,6.69-19.4,2.68c-1.34-4.01-10.7-34.79-10.7-34.79Z"/><path class="cls-5" d="m339.47,596.36c2.38,9.37,3.96,40.81,11.89,40.81s30.92,2.68,30.92-14.05-2.38-38.13-18.24-34.79c-15.86,3.34-24.58,7.36-19.82,7.36s24.15-6.02,25.55-3.68,10.12,33.11,5.37,36.46c-4.76,3.34-21.41,6.69-22.99,2.68-1.59-4.01-12.69-34.79-12.69-34.79Z"/><path class="cls-5" d="m401.02,586.99c2.38,9.37,3.96,40.81,11.89,40.81s30.92,2.68,30.92-14.05-2.38-38.13-18.24-34.79c-15.86,3.34-24.58,7.36-19.82,7.36s24.15-6.02,25.55-3.68,10.12,33.11,5.37,36.46c-4.76,3.34-21.41,6.69-22.99,2.68s-12.69-34.79-12.69-34.79Z"/><path class="cls-5" d="m376.26,518.09c2.79,9.37,4.65,40.81,13.94,40.81s36.24,2.68,36.24-14.05-2.79-38.13-21.37-34.79c-18.58,3.34-28.8,7.36-23.23,7.36s28.3-6.02,29.95-3.68c1.64,2.34,11.86,33.11,6.29,36.46-5.57,3.34-25.09,6.69-26.94,2.68-1.86-4.01-14.87-34.79-14.87-34.79Z"/><path class="cls-5" d="m298,452.53c2.01,9.37,3.34,40.81,10.03,40.81s26.09,2.68,26.09-14.05-2.01-38.13-15.39-34.79c-13.38,3.34-20.74,7.36-16.72,7.36s20.38-6.02,21.56-3.68c1.18,2.34,8.54,33.11,4.53,36.46s-18.06,6.69-19.4,2.68c-1.34-4.01-10.7-34.79-10.7-34.79Z"/><path class="cls-5" d="m380.74,485.35c-2.08,0-4.04-.05-5.77-.09-1.33-.03-2.51-.06-3.49-.06-7.28,0-10.06-16.68-12.29-30.09-.77-4.64-1.44-8.65-2.17-11.12l1.04-.37c.13.31,13.03,30.81,14.86,34.77.19.42.74.78,1.57,1.03,5.14,1.58,19.88-1.13,24.58-3.95.53-.32.92-1.02,1.15-2.09,1.71-8.05-6.37-31.82-7.6-33.57-.8-1.14-11.19.84-17.4,2.03-5.08.97-9.88,1.89-12.09,1.89-.7,0-1.99,0-2.07-.87-.22-2.46,18.12-6.31,25.2-7.59,5.28-.95,9.69.01,13.11,2.86,6,5.02,8.92,15.64,8.92,32.47,0,3.54-1.18,6.49-3.51,8.77-5.33,5.19-15.66,5.99-24.01,5.99Zm-21.39-35.8c.3,1.64.6,3.46.92,5.38,2.05,12.31,4.86,29.16,11.2,29.16.99,0,2.18.03,3.52.06,8.47.21,22.66.58,28.98-5.59,2.11-2.06,3.18-4.74,3.18-7.97,0-16.48-2.79-26.82-8.52-31.62-3.15-2.63-7.25-3.52-12.2-2.62-13.46,2.42-21.83,5.07-23.88,6.24.15.01.33.02.55.02,2.11,0,6.86-.91,11.89-1.87,10.76-2.05,17.38-3.19,18.51-1.58,1.64,2.33,9.52,26.24,7.78,34.44-.29,1.38-.85,2.33-1.66,2.81-4.98,2.99-20.02,5.74-25.48,4.06-1.16-.36-1.92-.9-2.25-1.63-1.36-2.93-8.71-20.25-12.54-29.3Z"/><path class="cls-5" d="m468.58,576.29c2.79,9.37,4.65,40.81,13.94,40.81s36.24,2.68,36.24-14.05-2.79-38.13-21.37-34.79c-18.58,3.34-28.8,7.36-23.23,7.36s28.3-6.02,29.95-3.68c1.64,2.34,11.86,33.11,6.29,36.46s-25.09,6.69-26.94,2.68c-1.86-4.01-14.87-34.79-14.87-34.79Z"/><path class="cls-5" d="m434.46,431.79c2.79,9.37,4.65,40.81,13.94,40.81s36.24,2.68,36.24-14.05-2.79-38.13-21.37-34.79c-18.58,3.34-28.8,7.36-23.23,7.36s28.3-6.02,29.95-3.68c1.64,2.34,11.86,33.11,6.29,36.46-5.57,3.34-25.09,6.69-26.94,2.68-1.86-4.01-14.87-34.79-14.87-34.79Z"/><path class="cls-5" d="m538.82,564.25c2.79,9.37,4.65,40.81,13.94,40.81s36.24,2.68,36.24-14.05-2.79-38.13-21.37-34.79c-18.58,3.34-28.8,7.36-23.23,7.36s28.3-6.02,29.95-3.68,11.86,33.11,6.29,36.46c-5.57,3.34-25.09,6.69-26.94,2.68-1.86-4.01-14.87-34.79-14.87-34.79Z"/><path class="cls-5" d="m615.75,554.21c2.79,9.37,4.65,40.81,13.94,40.81s36.24,2.68,36.24-14.05-2.79-38.13-21.37-34.79c-18.58,3.34-28.8,7.36-23.23,7.36s28.3-6.02,29.95-3.68c1.64,2.34,11.86,33.11,6.29,36.46-5.57,3.34-25.09,6.69-26.94,2.68s-14.87-34.79-14.87-34.79Z"/><path class="cls-5" d="m589.66,410.39c2.79,9.37,4.65,40.81,13.94,40.81s36.24,2.68,36.24-14.05-2.79-38.13-21.37-34.79c-18.58,3.34-28.8,7.36-23.23,7.36s28.3-6.02,29.95-3.68c1.64,2.34,11.86,33.11,6.29,36.46-5.57,3.34-25.09,6.69-26.94,2.68-1.86-4.01-14.87-34.79-14.87-34.79Z"/><path class="cls-5" d="m450.52,509.39c2.79,9.37,4.65,40.81,13.94,40.81s36.24,2.68,36.24-14.05-2.79-38.13-21.37-34.79c-18.58,3.34-28.8,7.36-23.23,7.36s28.3-6.02,29.95-3.68c1.64,2.34,11.86,33.11,6.29,36.46-5.57,3.34-25.09,6.69-26.94,2.68-1.86-4.01-14.87-34.79-14.87-34.79Z"/><path class="cls-5" d="m550.65,543.55c-2.08,0-4.04-.05-5.77-.09-1.33-.03-2.51-.06-3.49-.06-7.28,0-10.06-16.68-12.29-30.09-.77-4.64-1.44-8.65-2.17-11.11l1.04-.37c.13.31,13.02,30.81,14.86,34.77.19.42.74.78,1.57,1.03,5.14,1.58,19.88-1.13,24.58-3.95.53-.32.92-1.02,1.14-2.09,1.71-8.05-6.37-31.82-7.6-33.57-.81-1.14-11.19.84-17.4,2.03-5.08.97-9.88,1.89-12.09,1.89-.7,0-1.99,0-2.07-.87-.22-2.46,18.12-6.31,25.2-7.59,5.29-.95,9.7.01,13.11,2.86,6,5.02,8.92,15.64,8.92,32.47,0,3.54-1.18,6.49-3.51,8.77-5.33,5.19-15.66,5.99-24.01,5.99Zm-21.38-35.8c.3,1.64.6,3.46.92,5.37,2.05,12.31,4.85,29.16,11.2,29.16.99,0,2.18.03,3.52.06,8.48.22,22.66.58,28.98-5.59,2.11-2.06,3.18-4.74,3.18-7.97,0-16.48-2.79-26.83-8.52-31.62-3.15-2.63-7.25-3.51-12.2-2.62-13.46,2.42-21.83,5.07-23.88,6.24.15.01.33.02.55.02,2.11,0,6.86-.91,11.89-1.87,10.76-2.06,17.38-3.19,18.51-1.58,1.64,2.33,9.52,26.24,7.78,34.44-.29,1.38-.85,2.33-1.66,2.81-4.98,2.99-20.02,5.74-25.48,4.06-1.16-.36-1.92-.9-2.25-1.63-1.35-2.93-8.71-20.25-12.54-29.3Z"/><path class="cls-5" d="m536.6,463.95c-2.08,0-4.04-.05-5.77-.09-1.33-.03-2.51-.06-3.49-.06-7.28,0-10.06-16.68-12.29-30.09-.77-4.64-1.44-8.65-2.17-11.11l1.04-.37c.13.31,13.02,30.81,14.86,34.77.19.42.74.78,1.57,1.03,5.13,1.58,19.88-1.13,24.58-3.95.53-.32.92-1.02,1.14-2.09,1.71-8.05-6.37-31.82-7.6-33.57-.8-1.14-11.19.84-17.4,2.03-5.08.97-9.88,1.89-12.09,1.89-.7,0-1.99,0-2.07-.87-.22-2.46,18.12-6.31,25.2-7.59,5.29-.95,9.7.01,13.11,2.86,6,5.02,8.92,15.64,8.92,32.47,0,3.54-1.18,6.49-3.51,8.77-5.33,5.19-15.66,5.99-24.01,5.99Zm-21.39-35.8c.3,1.64.6,3.46.92,5.37,2.05,12.31,4.85,29.16,11.2,29.16.99,0,2.18.03,3.52.06,8.48.22,22.66.58,28.98-5.59,2.11-2.06,3.18-4.74,3.18-7.97,0-16.48-2.79-26.83-8.52-31.62-3.15-2.63-7.25-3.51-12.2-2.62-13.46,2.42-21.83,5.07-23.88,6.24.15.01.33.02.55.02,2.11,0,6.86-.91,11.89-1.87,10.76-2.06,17.38-3.19,18.51-1.58,1.64,2.33,9.52,26.24,7.78,34.44-.29,1.38-.85,2.33-1.66,2.81-4.98,2.99-20.02,5.74-25.48,4.06-1.16-.36-1.92-.9-2.25-1.63-1.35-2.93-8.71-20.25-12.54-29.3Z"/><path class="cls-5" d="m603.04,493.34c2.79,9.37,4.65,40.81,13.94,40.81s36.24,2.68,36.24-14.05-2.79-38.13-21.37-34.79c-18.58,3.34-28.8,7.36-23.23,7.36s28.3-6.02,29.95-3.68c1.64,2.34,11.86,33.11,6.29,36.46-5.57,3.34-25.09,6.69-26.94,2.68-1.86-4.01-14.87-34.79-14.87-34.79Z"/><path class="cls-6" d="m637.35,566.14c.13,4.26,6.68,5.43,2.92,6.68s-7.93-3.34-7.52-9.6c.42-6.26,8.35-9.19,15.87-4.18,7.52,5.01,7.52,19.21,3.76,22.55-3.76,3.34-20.04,5.01-24.64-1.25-4.59-6.26-5.43-17.96-2.09-20.04,3.34-2.09,1.67-2.51,2.51,7.52.84,10.02,10.16,8.89,16.04,8.1,5.88-.79,4.63-7.06,4.21-9.56-.42-2.51-11.27-7.1-11.07-.21Z"/><path class="cls-7" d="m469.45,521.45c.13,4.26,6.68,5.43,2.92,6.68-3.76,1.25-7.93-3.34-7.52-9.6.42-6.26,8.35-9.19,15.87-4.18,7.52,5.01,7.52,19.21,3.76,22.55-3.76,3.34-20.04,5.01-24.64-1.25-4.59-6.26-5.43-17.96-2.09-20.04,3.34-2.09,1.67-2.51,2.51,7.52s10.16,8.89,16.04,8.1c5.88-.79,4.63-7.06,4.21-9.56s-11.27-7.1-11.07-.21Z"/><path class="cls-1" d="m358.8,445.25c-.62,6.87-3.45,24.14,4.6,27.01,8.05,2.87,30.81,8.62,32.65,0,1.83-8.62,5.64-28.33,0-32.27-5.64-3.94-13.11-7.38-19.43-2.21-6.32,5.17-6.9,20.69-1.15,21.26,5.75.57,8.62-4.02,4.6-6.9,0,0,9.77-5.17,8.62,7.47-1.15,12.64-22.99,9.2-21.84,5.17,1.15-4.02,2.87-20.69-1.15-23.56s-6.32-2.3-6.9,4.02Z"/><path class="cls-6" d="m391.63,550.1s14.2-5.43,13.78-9.19c-.42-3.76-.83-6.93-6.89-9.31-6.06-2.38-7.21-12.91-1-11.82,6.21,1.09.89,1.94,0,4.02-.89,2.08,1.22,7.18,7.89,2.13,6.67-5.06-.84-17.36-6.89-17.26-6.06.09-15.4,5.32-13.16,14.29,3.76,15.03,23.8,18.79,6.26,27.14Z"/><path class="cls-6" d="m450.37,464.77s14.2-5.43,13.78-9.19c-.42-3.76-.83-6.93-6.89-9.31s-7.21-12.91-1-11.82c6.21,1.09.89,1.94,0,4.02-.89,2.08,1.22,7.18,7.89,2.13,6.67-5.06-.84-17.36-6.89-17.26-6.06.09-15.4,5.32-13.16,14.29,3.76,15.03,23.8,18.79,6.26,27.14Z"/><path class="cls-6" d="m492.15,573.59s3.34,3.34-4.59,11.69c-7.93,8.35-7.1,24.22,4.18,21.71,11.27-2.51-1.94-10.1,1.12-20.92,3.06-10.82-.7-12.49-.7-12.49Z"/><path class="cls-5" d="m494.65,585.7s12.94,6.68,10.02,14.61c-2.92,7.93-7.43,1.71-9.14-4.78-1.72-6.49-.88-9.83-.88-9.83Z"/><path class="cls-6" d="m333.68,522.62s3.34,3.34-4.59,11.69c-7.93,8.35-7.1,24.22,4.18,21.71,11.27-2.51-1.94-10.1,1.12-20.92,3.06-10.82-.7-12.49-.7-12.49Z"/><path class="cls-5" d="m336.18,534.73s12.94,6.68,10.02,14.61c-2.92,7.93-7.43,1.71-9.14-4.78-1.72-6.49-.88-9.83-.88-9.83Z"/><polygon class="cls-7" points="528.5 428.33 507.2 429.58 529.75 441.28 536.28 468.53 542.28 441.69 563.57 430.42 544.78 428.33 535.39 401.92 528.5 428.33"/><path class="cls-7" d="m545.71,502.4c2.67,1.91-3.14,5.97-5.65,2.51-2.51-3.46-9.63-6.6-12.67-2.51-3.04,4.08,1.3,6.97,5.73,6.94,4.43-.03-1.85,1.54-4.68,2.48-2.83.94-8.8,4.81-4.4,9.16,4.4,4.35,10.05,2.25,13.66,0,3.62-2.25,8.33-4.13,13.36-2.25,5.03,1.88,18.25,9.56,26.24,4.78,8-4.78,1.4-10.75-.48-11.38-1.88-.63-5.34.31-7.23,0-1.88-.31-5.03-2.2-2.2-4.08,2.83-1.88,6.6-1.26,5.97-4.71-.63-3.46-5.97-5.03-7.85-3.77,0,0-2.51-10.68-12.57-8.48-10.05,2.2-9.42,9.74-7.23,11.31Z"/><path class="cls-7" d="m553.88,523.14c-2.19-1.76-8.81-2.51-9.75,0-.93,2.51,2.31,3.23,4.15,1.93,1.83-1.3,2.38-.9,4.15,0,1.77.9,3.03-.67,1.46-1.93Z"/><path class="cls-7" d="m549.28,527.2c-1.04-.89-2.94,1.9-1.68,2.21,1.26.31,4.63.28,1.68-2.21Z"/><path class="cls-7" d="m549.28,534.95c-1.14-.77-2,1.07-1.06,1.69.94.63,2.74-.56,1.06-1.69Z"/><path class="cls-5" d="m427.85,596.12c-5.69-4.4-11.83-5.84-21.61,2.2-3.07,2.53-8.72,7.43-1.21,13.19,7.51,5.76,22.29-2.2,24.18-4.47,1.9-2.27,4.32-6.52-1.36-10.92Zm-4.4,9.93c-4.25,2.2-8.01,4.62-13.18,0-5.17-4.62,1.2-7.73,4.84-8.57s7.35-.53,9.78,2.05c1.9,2.02,2.81,4.32-1.44,6.52Z"/><path class="cls-2" d="m415.11,597.48c-3.64.83-10.01,3.94-4.84,8.57,5.17,4.62,8.93,2.2,13.18,0,4.25-2.2,3.34-4.5,1.44-6.52-2.43-2.58-6.14-2.88-9.78-2.05Z"/><path class="cls-6" d="m415.7,598.25c-2.71.62-7.46,2.94-3.61,6.39,3.85,3.45,6.66,1.64,9.83,0,3.16-1.64,2.49-3.35,1.07-4.86-1.81-1.92-4.58-2.15-7.29-1.53Z"/><path class="cls-2" d="m419.23,600.25c2.03,1.16,1.46,1.45,0,2.52-1.46,1.07-3.28.32-4.19-.86-.91-1.18,2.54-2.61,4.19-1.67Z"/><path class="cls-5" d="m644.88,495.2c-9.09-7.03-18.9-9.33-34.53,3.51-4.91,4.04-13.93,11.87-1.94,21.08,11.99,9.21,35.62-3.51,38.65-7.15s6.91-10.42-2.18-17.45Zm-7.03,15.87c-6.78,3.51-12.8,7.39-21.06,0-8.26-7.39,1.92-12.36,7.73-13.69,5.82-1.33,11.75-.85,15.63,3.27,3.04,3.23,4.48,6.91-2.3,10.42Z"/><path class="cls-2" d="m624.53,497.38c-5.82,1.33-15.99,6.3-7.73,13.69,8.26,7.39,14.28,3.51,21.06,0,6.78-3.51,5.34-7.19,2.3-10.42-3.88-4.12-9.81-4.6-15.63-3.27Z"/><path class="cls-6" d="m625.46,498.61c-4.34.99-11.92,4.7-5.77,10.21s10.64,2.62,15.7,0c5.06-2.62,3.98-5.36,1.72-7.77-2.89-3.07-7.32-3.43-11.65-2.44Z"/><path class="cls-2" d="m631.1,501.81c3.25,1.86,2.33,2.32,0,4.03-2.33,1.72-5.24.51-6.69-1.37-1.45-1.88,4.06-4.17,6.69-2.66Z"/><path class="cls-7" d="m750.08,348.24c13.78,9.84-16.22,30.82-29.19,12.98-12.98-17.84-49.71-34.06-65.4-12.98-15.69,21.08,6.7,35.99,29.56,35.84,22.86-.16-9.57,7.95-24.17,12.82-14.6,4.87-45.41,24.84-22.71,47.29,22.71,22.45,51.86,11.61,70.53,0,18.67-11.61,43-21.34,68.95-11.61,25.95,9.73,94.2,49.38,135.5,24.69,41.29-24.69,7.23-55.51-2.5-58.75-9.73-3.24-27.57,1.62-37.3,0-9.73-1.62-25.95-11.35-11.35-21.08,14.6-9.73,34.06-6.49,30.82-24.33-3.24-17.84-30.82-25.95-40.55-19.46,0,0-12.98-55.14-64.88-43.79-51.9,11.35-48.66,50.28-37.3,58.39Z"/><path class="cls-3" d="m143.02,523.8c-26.29,5.98-39.47,24.12-38.37,52.62s-7.67,38.37-31.79,37.27c-24.12-1.1-60.3,5.48-60.3,30.7s36.18,24.12,49.33,12.06c13.16-12.06,48.83-20.83,52.92-6.58,4.09,14.25,15.81,52.76,72.44,33.5,56.63-19.25,16.07-41.18,20.45-52.14,4.39-10.96,20.83-16.44,28.5-7.67,7.67,8.77,46.04,21.93,40.56-9.87-5.48-31.79-29.6-40.56-44.95-38.37-15.35,2.19-20.83,21.93-3.29,23.02,17.54,1.1,16.44-8.77,16.44-8.77,0,0,16.44,26.31-3.29,23.02-19.73-3.29-32.89-5.48-30.7-37.27,2.19-31.79-19.73-62.49-67.97-51.53Z"/><path class="cls-7" d="m141.72,529.72c-23.92,5.44-35.9,21.94-34.9,47.86,1,25.92-6.98,34.9-28.92,33.9-21.94-1-54.84,4.99-54.84,27.92s32.9,21.94,44.87,10.97c11.97-10.97,44.41-18.95,48.13-5.98,3.72,12.96,14.38,47.98,65.88,30.47,51.51-17.51,14.61-37.45,18.6-47.42,3.99-9.97,18.95-14.96,25.92-6.98,6.98,7.98,41.88,19.94,36.89-8.97-4.99-28.92-26.92-36.89-40.88-34.9-13.96,1.99-18.95,19.94-2.99,20.94,15.95,1,14.96-7.98,14.96-7.98,0,0,14.96,23.93-2.99,20.94-17.95-2.99-29.91-4.99-27.92-33.9,1.99-28.92-17.95-56.84-61.82-46.86Z"/><path class="cls-4" d="m131.17,436.78c3.57,9.74,19.83,15.83,12.16,32.72-7.67,16.89-9.87,18.81-30.7,18.4-20.83-.42-46.04,25.9-31.79,53.3,14.25,27.41,50.71,8.5,64.82-4.52,14.11-13.02,40.42-28.37,51.39-11.92,10.96,16.44,7.67,53.72,50.43,42.76,42.76-10.96,28.5-46.04,42.76-48.24,14.25-2.19,47.14-4.39,43.85-40.56-3.29-36.18-18.26-56.13-43.66-52.19-25.41,3.95-34.18,29.16-47.33,13.82-13.16-15.35-21.93-35.08-55.91-39.47s-68.16,2.75-56.01,35.91Z"/><path class="cls-1" d="m135.66,512.7s11.8-3.87,4.26-10.16c-7.54-6.29-17.41,4.68-17.41,13.45s25.21,10.96,36.18,5.48c0,0-14.25,13.16-29.6,9.87-15.35-3.29-29.6-17.45-16.44-30.65,13.16-13.2,32.22-7.63,34.75,0,2.53,7.63-2.95,15.31-11.72,12.02Z"/><path class="cls-1" d="m168.54,480.9s-9.69-5.76-7.58,3.7c2.1,9.46,18.12,4.84,18.33-2.72s-.21-10.64-9.32-12.94c-9.11-2.3-31.22-4.15-31.67,10.48s10.51,20.11,18.18,17.92c7.67-2.19,20.48-5.65,22.85.47,2.37,6.11-5.3,15.98-15.17,20.36,0,0,18.53-3.44,20.23-9.94,1.7-6.5-2.03-20.12-19.35-15.5-17.32,4.61-19.51-8.54-17.32-15.12,2.19-6.58,13.16-8.77,20.83,3.29Z"/><path class="cls-5" d="m182.57,449.48s-11.7,2.82-9.84-4.61c1.86-7.43,10.22-6.5,14.86-5.57,4.64.93,14.86,13,2.79,19.5-12.07,6.5-28.87,6.6-33.01-12.49-4.14-19.09,31.37-14.75,38.69-7.63,7.32,7.12,10.11,16.41,3.61,29.41-6.5,13,7.43,41.79,35.29,39.94,27.86-1.86,34.36-7.43,40.87-15.79,6.5-8.36,19.11-21.44,32.78-21.87,13.66-.42,18.31-10.64,10.88-20.86-7.43-10.22-19.5-22.29-35.29-12.07-15.79,10.22-26.01,25.08-41.79,13-15.79-12.07-29.72-36.22-55.73-29.72-26.01,6.5-41.79,15.79-36.22,29.72,5.57,13.93,36.4,17.58,32.13-.96Z"/><path class="cls-2" d="m162.76,624.66c-11.25,7.16-20.83-2.19-27.41-6.58-6.58-4.39-20.83-1.1-21.93,8.77-1.1,9.87-2.19,9.87,9.87,24.12,12.06,14.25,20.83,27.41,47.14,19.73,26.31-7.67,31.34-18.92,26.09-35.22-5.26-16.3-21.7-18.49-33.76-10.82Z"/><path class="cls-5" d="m170.43,630.14c-8.16,5.44-14.81,9.86-25.5,3.84-10.68-6.03-19.45-3.84-19.45,4.93s12.06,17.54,26.31,17.54,29.14-11,27.72-16.46c-1.41-5.46-5.8-12.04-9.09-9.85Z"/><path class="cls-2" d="m162.76,641.11c-12.06,0-21.14-2.93-18.25,3.47,2.9,6.4,24.82-3.47,18.25-3.47Z"/><path class="cls-2" d="m171.7,571.48s-10.55-1.11-10.05.83c.5,1.94,3.32,2.5,5.53,2.64s3.8,1.9-.51,2.62-17.57-.53-22.79-.95-24.21.69-25.42,9.3c-1.21,8.61,11.65,12.36,23.91,11.38,12.26-.97,48.42-5.97,49.32-2.08.9,3.89-22,7.36-36.16,5.97-14.16-1.39-29.74.56-38.07-3.47-8.34-4.03-13.49-7.08-7.3-11.39,0,0-2.4,3.26,1.32,3.4,3.72.14,3.72-5,2.51-5.83s-10.05-1.39-10.25,5.28c-.2,6.66,14.16,11.8,21.5,13.61,7.33,1.8,36.37,3.75,48.22,2.92,11.85-.83,32.95-5.55,30.74-14.44-2.21-8.89-23.31-6.53-28.83-4.72-5.53,1.8-27.12,6.11-35.66,4.03-8.54-2.08-12.56-4.16-8.64-7.5s24.31-1.53,29.03-1.11c4.72.42,14.16,0,15.77-3.61s-.3-5.41-4.17-6.87Z"/><polygon class="cls-7" points="162.82 342.09 164.53 326.74 168.96 340.38 182.27 338 170.18 345.34 166.92 362.22 164.19 346.87 149.84 344.48 162.82 342.09"/><polygon class="cls-7" points="189.48 387.58 191.93 378.41 193.36 387.11 201.67 386.89 193.64 390.23 190.11 400.18 189.87 390.61 181.37 387.83 189.48 387.58"/><polygon class="cls-7" points="143.7 386.21 143.27 376.73 147.26 384.59 155.11 381.87 148.47 387.48 148.1 398.04 144.98 388.98 136.05 388.9 143.7 386.21"/><polygon class="cls-7" points="762.21 559.5 763.91 544.15 768.35 557.8 781.66 555.41 769.56 562.75 766.3 579.63 763.57 564.28 749.23 561.89 762.21 559.5"/><polygon class="cls-7" points="788.86 604.99 791.32 595.82 792.75 604.52 801.05 604.3 793.03 607.64 789.49 617.59 789.25 608.02 780.76 605.24 788.86 604.99"/><polygon class="cls-7" points="743.08 603.62 742.66 594.14 746.65 602 754.5 599.28 747.86 604.89 747.49 615.45 744.37 606.39 735.44 606.31 743.08 603.62"/><path class="cls-8" d="m749.91,347.89c13.78,9.84-16.22,30.82-29.19,12.98-12.98-17.84-49.71-34.06-65.4-12.98-15.69,21.08,6.7,35.99,29.56,35.84,22.86-.16-9.57,7.95-24.17,12.82-14.6,4.87-45.41,24.84-22.71,47.29,22.71,22.45,51.86,11.61,70.53,0,18.67-11.61,43-21.34,68.95-11.61,25.95,9.73,94.2,49.38,135.5,24.69,41.29-24.69,7.23-55.51-2.5-58.75-9.73-3.24-27.57,1.62-37.3,0-9.73-1.62-25.95-11.35-11.35-21.08,14.6-9.73,34.06-6.49,30.82-24.33s-30.82-25.95-40.55-19.46c0,0-12.98-55.14-64.88-43.79-51.9,11.35-48.66,50.28-37.3,58.39Z"/><path class="cls-6" d="m910.7,443.8c-4.89,14.26-9.87,35.86-28.51,23.81-18.64-12.06-82.22-17.54-95.38,15.35-13.16,32.89-1.1,70.16,39.47,61.39,40.56-8.77,50.43-18.64,64.68-2.19,14.25,16.44,52.57,31.13,55.34,10.63,2.76-20.5,2.73-37.74,10.97-36.79,8.24.95,18.11,9.72,34.55,18.49,16.44,8.77,53.72,16.44,63.59-18.64,9.87-35.08-2.19-46.04-16.44-54.82-14.25-8.77-21.93-5.48-35.08-7.67-13.16-2.19-2.19-12.06-14.25-21.93-12.06-9.87-62.47-35.55-78.93,12.37Z"/><path class="cls-1" d="m1018.08,482.01s15.97,10.23-3.91,19.29c-19.88,9.06-19.88-25.69-11.64-32.1s19.32-12.8,36.18,0c16.87,12.8,12.29,53.96-9.66,59.45-21.95,5.49-57.62-7.32-60.37-25.61-2.74-18.29,7.51-45.81,26.17-45.31,18.65.5-8.54,6.67-10.04,17.3-1.5,10.63.33,26.18,15.88,31.67s28.35,3.66,28.35-6.4-2.74-22.87-10.98-18.29Z"/><path class="cls-7" d="m926.67,460.88s5.48-8.22,9.13-7.31c3.65.91,6.39,9.13,1.83,12.79-4.57,3.65-12.81,9.87-19.65,5.39-6.84-4.48-9.91-20.61,4.87-34.92s33.96-7.92,40.35-1.52c6.39,6.39,6.39,16.44-3.65,28.31-10.05,11.87-15.53,22.83-11.87,31.97s9.45,9.07,1.53,21.89c-7.92,12.82-2.44,28.34-20.71,29.26s-25.57-13.7-25.57-13.7c0,0,21.92,12.79,29.23,6.39,7.31-6.39-.15-9.46,3.12-15.69,3.27-6.23,8.75-4.4,6.01-16.28-2.74-11.87-7.23-24.89,1.41-33.45,8.64-8.56,15.95-19.52,8.64-26.83-7.31-7.31-25.57,0-24.66,13.7Z"/><path class="cls-5" d="m891.05,496.76c-3.04,7.4-17.31,8.19-18.13-4.46-.82-12.65,20.63-14.36,29.22-10.93,8.58,3.43,20.6,24.89,4.29,38.63-16.31,13.73-20.6,2.58-28.33,2.58s-15.45,8.58-18.03.86c-2.58-7.73,8.58-18.03,14.59-14.59,6.01,3.43,17.17,10.3,18.88-.86,1.72-11.16-.72-15.57-2.5-11.22Z"/><path class="cls-2" d="m860.26,469.8c-5.64-5.64-13.16,1.1-14.25,9.87-1.1,8.77-12.06,13.16-9.87,17.54,2.19,4.39,11.77,5.32,11.91-3.37.14-8.69.14-13.07,6.72-11.98s10.96-6.58,5.48-12.06Z"/><path class="cls-2" d="m859.16,497.21c-2.11-2.53-7.55.2-7.06,5.58.48,5.38,12.54,1,7.06-5.58Z"/><path class="cls-2" d="m801.11,479.34c-1.78,6.75-8.29,12.62,0,15.9,8.29,3.29,20.06-14.81,14.83-18.74s-13.74-1.31-14.83,2.83Z"/><path class="cls-5" d="m802.97,481.07c-1.23,4.66-5.72,8.71,0,10.98,5.72,2.27,13.86-10.23,10.24-12.94-3.61-2.71-9.49-.9-10.24,1.96Z"/><path class="cls-2" d="m805.07,483.67c-.61,2.31-2.83,4.31,0,5.44,2.83,1.12,6.86-5.06,5.07-6.41-1.79-1.34-4.7-.45-5.07.97Z"/><path class="cls-2" d="m792.7,502.31c-3.73,4.41-4.74,22.52,2.37,23.71,7.11,1.19,12.48-2.66,12.05-14.84-.43-12.18-9.2-15.03-14.42-8.87Z"/><path class="cls-5" d="m794.62,505.64c-2.53,3-3.22,15.31,1.61,16.11,4.83.81,8.48-1.81,8.19-10.09s-6.26-10.22-9.8-6.03Z"/><path class="cls-2" d="m796.55,508.9c-1.36,1.61-1.73,8.23.87,8.66,2.6.43,4.56-.97,4.4-5.42s-3.36-5.49-5.27-3.24Z"/><path class="cls-8" d="m910.38,444.07c-4.89,14.26-9.87,35.86-28.51,23.81-18.64-12.06-82.22-17.54-95.38,15.35-13.16,32.89-1.1,70.16,39.47,61.39,40.56-8.77,50.43-18.64,64.68-2.19,14.25,16.44,52.57,31.13,55.34,10.63,2.76-20.5,2.73-37.74,10.97-36.79,8.24.95,18.11,9.72,34.55,18.49,16.44,8.77,53.72,16.44,63.59-18.64,9.87-35.08-2.19-46.04-16.44-54.82-14.25-8.77-21.93-5.48-35.08-7.67-13.16-2.19-2.19-12.06-14.25-21.93-12.06-9.87-62.47-35.55-78.93,12.37Z"/><path class="cls-8" d="m1017.76,482.29s15.97,10.23-3.91,19.29c-19.88,9.06-19.88-25.69-11.64-32.1,8.23-6.4,19.32-12.8,36.18,0,16.87,12.8,12.29,53.96-9.66,59.45-21.95,5.49-57.62-7.32-60.37-25.61-2.74-18.29,7.51-45.81,26.17-45.31,18.65.5-8.54,6.67-10.04,17.3-1.5,10.63.33,26.18,15.88,31.67,15.55,5.49,28.35,3.66,28.35-6.4s-2.74-22.87-10.98-18.29Z"/><path class="cls-8" d="m926.35,461.15s5.48-8.22,9.13-7.31c3.65.91,6.39,9.13,1.83,12.79-4.57,3.65-12.81,9.87-19.65,5.39-6.84-4.48-9.91-20.61,4.87-34.92s33.96-7.92,40.35-1.52,6.39,16.44-3.65,28.31c-10.05,11.87-15.53,22.83-11.87,31.97,3.65,9.13,9.45,9.07,1.53,21.89-7.92,12.82-2.44,28.34-20.71,29.26s-25.57-13.7-25.57-13.7c0,0,21.92,12.79,29.23,6.39s-.15-9.46,3.12-15.69c3.27-6.23,8.75-4.4,6.01-16.28-2.74-11.87-7.23-24.89,1.41-33.45,8.64-8.56,15.95-19.52,8.64-26.83-7.31-7.31-25.57,0-24.66,13.7Z"/><path class="cls-8" d="m890.73,497.03c-3.04,7.4-17.31,8.19-18.13-4.46-.82-12.65,20.63-14.36,29.22-10.93,8.58,3.43,20.6,24.89,4.29,38.63-16.31,13.73-20.6,2.58-28.33,2.58s-15.45,8.58-18.03.86c-2.58-7.73,8.58-18.03,14.59-14.59,6.01,3.43,17.17,10.3,18.88-.86,1.72-11.16-.72-15.57-2.5-11.22Z"/><path class="cls-8" d="m859.94,470.07c-5.64-5.64-13.16,1.1-14.25,9.87-1.1,8.77-12.06,13.16-9.87,17.54,2.19,4.39,11.77,5.32,11.91-3.37s.14-13.07,6.72-11.98,10.96-6.58,5.48-12.06Z"/><path class="cls-8" d="m858.85,497.48c-2.11-2.53-7.55.2-7.06,5.58.48,5.38,12.54,1,7.06-5.58Z"/><path class="cls-8" d="m800.79,479.62c-1.78,6.75-8.29,12.62,0,15.9,8.29,3.29,20.06-14.81,14.83-18.74-5.23-3.93-13.74-1.31-14.83,2.83Z"/><path class="cls-8" d="m802.65,481.34c-1.23,4.66-5.72,8.71,0,10.98,5.72,2.27,13.86-10.23,10.24-12.94-3.61-2.71-9.49-.9-10.24,1.96Z"/><path class="cls-8" d="m804.75,483.94c-.61,2.31-2.83,4.31,0,5.44s6.86-5.06,5.07-6.41c-1.79-1.34-4.7-.45-5.07.97Z"/><path class="cls-8" d="m792.38,502.58c-3.73,4.41-4.74,22.52,2.37,23.71,7.11,1.19,12.48-2.66,12.05-14.84-.43-12.18-9.2-15.03-14.42-8.87Z"/><path class="cls-8" d="m794.3,505.91c-2.53,3-3.22,15.31,1.61,16.11,4.83.81,8.48-1.81,8.19-10.09-.29-8.28-6.26-10.22-9.8-6.03Z"/><path class="cls-8" d="m796.23,509.17c-1.36,1.61-1.73,8.23.87,8.66,2.6.43,4.56-.97,4.4-5.42s-3.36-5.49-5.27-3.24Z"/><path class="cls-2" d="m810.7,369.86s-21.01-1.6-20.01,1.2c1,2.8,6.6,3.6,11,3.8,4.4.2,7.57,2.74-1.02,3.77-8.59,1.03-35-.77-45.4-1.37-10.4-.6-48.22,1-50.62,13.41-2.4,12.41,23.21,17.81,47.62,16.41,24.41-1.4,96.44-8.6,98.24-3,1.8,5.6-43.82,10.6-72.03,8.6-28.21-2-59.23.8-75.83-5-16.61-5.8-26.87-10.21-14.53-16.41,0,0-4.77,4.7,2.63,4.9,7.4.2,7.4-7.2,5-8.4-2.4-1.2-20.01-2-20.41,7.6-.4,9.6,28.21,17.01,42.82,19.61,14.61,2.6,72.43,5.4,96.04,4.2,23.61-1.2,65.63-8,61.23-20.81-4.4-12.81-46.42-9.4-57.42-6.8-11,2.6-54.02,8.8-71.03,5.8-17.01-3-25.01-6-17.21-10.8,7.8-4.8,48.42-2.2,57.82-1.6s28.21,0,31.41-5.2c3.2-5.2-.6-7.8-8.3-9.9Z"/><path class="cls-2" d="m908.7,343.58s-28.99,23.35-51.24,5.25c-22.24-18.1-35.87-43.22-65.38-39.8-29.51,3.42-35.59,27.51-28.12,35.8,7.47,8.29,26.28,18.32,39.82,6.1,0,0,4-3.16-4.74-8.27,0,0-15.84,11.17-22.99,1.59-7.15-9.58-4.46-22.29,7.63-24.6,12.09-2.31,32.35,1.07,43.57,18.14,11.22,17.07,59.01,44.64,81.45,5.79Z"/><path class="cls-8" d="m810.54,369.5s-21.01-1.6-20.01,1.2c1,2.8,6.6,3.6,11,3.8,4.4.2,7.57,2.74-1.02,3.77-8.59,1.03-35-.77-45.4-1.37-10.4-.6-48.22,1-50.62,13.41-2.4,12.41,23.21,17.81,47.62,16.41,24.41-1.4,96.44-8.6,98.24-3,1.8,5.6-43.82,10.6-72.03,8.6-28.21-2-59.23.8-75.83-5-16.61-5.8-26.87-10.21-14.53-16.41,0,0-4.77,4.7,2.63,4.9,7.4.2,7.4-7.2,5-8.4-2.4-1.2-20.01-2-20.41,7.6-.4,9.6,28.21,17.01,42.82,19.61,14.61,2.6,72.43,5.4,96.04,4.2,23.61-1.2,65.63-8,61.23-20.81-4.4-12.81-46.42-9.4-57.42-6.8-11,2.6-54.02,8.8-71.03,5.8s-25.01-6-17.21-10.8c7.8-4.8,48.42-2.2,57.82-1.6s28.21,0,31.41-5.2c3.2-5.2-.6-7.8-8.3-9.9Z"/><path class="cls-8" d="m908.54,343.22s-28.99,23.35-51.24,5.25c-22.24-18.1-35.87-43.22-65.38-39.8-29.51,3.42-35.59,27.51-28.12,35.8,7.47,8.29,26.28,18.32,39.82,6.1,0,0,4-3.16-4.74-8.27,0,0-15.84,11.17-22.99,1.59-7.15-9.58-4.46-22.29,7.63-24.6,12.09-2.31,32.35,1.07,43.57,18.14,11.22,17.07,59.01,44.64,81.45,5.79Z"/></svg>