<?xml version="1.0" encoding="UTF-8"?><svg id="Color1" xmlns="http://www.w3.org/2000/svg" xmlns:xlink="http://www.w3.org/1999/xlink" viewBox="0 0 1080 1137"><defs><style>.cls-1{fill:#011720;}.cls-2{fill:#03b083;}.cls-3{fill:#064862;}.cls-4{fill:#48bcc4;}.cls-5{fill:url(#Degradado_sin_nombre_2-2);}.cls-6{fill:none;stroke:#011720;stroke-miterlimit:10;}.cls-7{fill:url(#Degradado_sin_nombre_2);}</style><linearGradient id="Degradado_sin_nombre_2" x1="159.45" y1="686.23" x2="713.67" y2="686.23" gradientUnits="userSpaceOnUse"><stop offset="0" stop-color="#48bdc5"/><stop offset=".52" stop-color="#168ea3"/><stop offset=".78" stop-color="#0c6b87"/><stop offset=".99" stop-color="#0c6b87"/></linearGradient><linearGradient id="Degradado_sin_nombre_2-2" x1="346.38" y1="634.55" x2="760.51" y2="634.55" xlink:href="#Degradado_sin_nombre_2"/></defs><path class="cls-1" d="m560.21,763.29s13.39-7.19,25.84-7.78c0,0-11.66,13.78-12.64,26.23s-.35,24.95-.35,24.95c0,0-18,3.32-24.72,0,0,0,4.57-35.65,11.87-43.4Z"/><polygon class="cls-1" points="539.23 757.9 540.97 805.67 522.62 803.38 518.36 752.39 539.23 757.9"/><path class="cls-1" d="m540.97,805.67l7.37,1.03s-3.6,30.95-.49,36.65l-5.57-.33-1.31-37.35Z"/><path class="cls-1" d="m542.28,843.02l-15.22-2.78v40.33s16.53,2.1,19.48,1.44l-4.26-38.99Z"/><path class="cls-1" d="m547.85,843.35s.84,27.77,5.66,38.79c0,0,25.02,2.47,29.17,1.33,0,0-11.57-25.05-11.57-39.14l-23.26-.98Z"/><path class="cls-1" d="m546.54,882.01l6.98.13s-2.72,4.46,6.13,17.89c8.85,13.43,17.36,25.56,17.36,25.56,0,0-21.06,2.62-28.39,0,0,0,1.52-32.76-2.08-43.58Z"/><path class="cls-1" d="m577.01,925.58l43.86-6.35s40.34,26,48.86,26c0,0-8.85,7.21-1.97,14.42l-59.79,10.42-30.96-44.5Z"/><path class="cls-1" d="m607.97,970.08s-44.39,6.94-69.62,2.68c0,0-7.45,24.04-23.71,36.76,0,0,52.21,9.11,74.82,5.18,22.61-3.93,46.42-11.65,46.42-11.65l-27.9-32.97Z"/><path class="cls-1" d="m635.88,1003.05l24.68,34.26s77.98-30.8,81.25-39.32c0,0-35.83-10.49-46.42-19.49,0,0-9.49,15.2-59.51,24.55Z"/><path class="cls-1" d="m660.56,1037.31l23.01,29.81s-21.05-9.17-32.19-26.86l9.17-2.95Z"/><path class="cls-2" d="m683.57,1067.12s94.28,5.24,105.09-64.87c0,0,41.85-8.51,42.38,13.43.54,21.95-28.14,79.28-147.47,51.43Z"/><path class="cls-2" d="m401.07,1085.47s64.49-59.38,99.08-52.3c34.59,7.08,29.46,29.69,7.12,33.95-22.33,4.26-58.18,25.65-3.56,29.37,54.62,3.72,144.5-13.46,132.16-35.34-12.34-21.88-41.17-26.36-27.9-34.6,13.27-8.24,43.41,13.71,43.41,13.71,0,0-15.4-19.33-32.11-18.68-16.71.66-20.64,8.19-18.02,13.43,2.62,5.24,37.81,21.29-1.08,32.11-38.89,10.81-112.28,19.66-88.04,5.57,24.24-14.09,26.87-45.21-19.99-42.92-46.85,2.29-91.08,55.7-91.08,55.7Z"/><path class="cls-1" d="m548.63,925.58s1.19,23.26-10.27,47.18l-59.63-5.24,52.96-42.28,16.95.35Z"/><path class="cls-3" d="m489.43,392.92s-4.19-40.29-4.19-45.66,31.74-12.98,31.74-12.98v51.04l-27.54,7.59Z"/><polygon class="cls-3" points="516.97 334.29 516.97 303.43 548.86 289.77 548.86 331.17 516.97 334.29"/><path class="cls-3" d="m548.86,331.17l35.43-8.43s10.9,27.31,11.5,40.87l-43.86,10.49s1.53-23.76-3.07-42.93Z"/><polygon class="cls-3" points="590.31 117.46 597.38 82.19 625.15 94.44 625.15 128.63 590.31 117.46"/><polygon class="cls-3" points="584.29 322.73 588.72 286.2 620.27 286.2 620.27 322.73 584.29 322.73"/><polygon class="cls-3" points="597.38 82.19 568.78 82.19 568.78 48.72 597.38 43 597.38 82.19"/><polygon class="cls-3" points="568.78 82.19 561.65 119.75 535.36 116.48 535.36 82.19 568.78 82.19"/><polygon class="cls-3" points="535.36 82.19 502.69 95.25 502.69 62.59 534.5 51.16 535.36 82.19"/><polygon class="cls-3" points="502.69 122.1 535.36 116.48 536.61 128.31 502.69 141.26 502.69 122.1"/><polygon class="cls-3" points="561.65 119.75 590.31 117.46 590.31 135.93 558.54 128.87 561.65 119.75"/><polygon class="cls-3" points="516.97 385.33 551.93 374.09 555.74 405.26 517.66 411.6 516.97 385.33"/><path class="cls-3" d="m595.79,363.61s-.6,33.39,0,34.97c.6,1.58,32.03-9.15,32.03-9.15l-7.55-33.78-24.47,7.96Z"/><polygon class="cls-1" points="591.45 571.01 608.87 521.3 587.02 521.3 569.93 567.55 591.45 571.01"/><polygon class="cls-1" points="535.49 537.59 535.49 579.56 556.15 579.56 554.9 533.39 535.49 537.59"/><polygon class="cls-1" points="484.13 552.14 484.13 580.33 512.49 580.33 512.49 546.1 484.13 552.14"/><polygon class="cls-1" points="512.49 546.1 506.7 511.14 532.92 502.83 535.49 537.59 512.49 546.1"/><polygon class="cls-1" points="554.9 533.39 560.66 492.09 595.53 483.62 587.02 521.3 554.9 533.39"/><polygon class="cls-1" points="595.53 483.62 595.79 467.84 627.82 467.84 620.27 488.9 595.53 483.62"/><polygon class="cls-1" points="560.66 492.09 558.79 469.14 532.92 480.94 532.92 502.83 560.66 492.09"/><polygon class="cls-1" points="571.11 844.33 573.06 806.7 601.92 798.36 595.53 848.16 571.11 844.33"/><polygon class="cls-1" points="586.05 755.52 586.42 746.41 614.61 730.13 614.61 752.39 586.05 755.52"/><polygon class="cls-3" points="250.97 442.9 551.62 390.63 872.66 445.77 814.06 550.53 794.72 521.4 828.38 472.43 554.5 411.31 304.49 459.37 322.33 511.28 552.36 439.79 808.41 482.46 788.76 508.66 560.33 469.21 292.15 549.77 250.97 442.9"/><path class="cls-4" d="m718.88,161.71l101.27,16.98s-11.1,24.15-100.65,38.35c-89.54,14.2-360,11.47-367.54,11.63-20.29.41-58.27-29.44,19.82-39.38,78.08-9.94,363.28-62.91,378.41-64.98,15.13-2.07,103.74,29.81,127.61,42.67,23.86,12.86-57.12,81.42-78.81,85.47-21.7,4.06-518.07,50.36-540.18,34.13-22.1-16.24,26.91-108.94,19.24-131.25-7.67-22.32-44.76-14.68-46.73,1.32,0,0-20.8,162.1.35,165.72,21.16,3.63,575.45-31.19,601.1-44.68,25.65-13.49,87.74-112.51,87.74-112.51l-147.07-64.11-484.15,74.07s-9.56,84.69,8.32,89.31,480.88-19.41,502.72-28.89c21.85-9.47,63.25-51.37,59.63-57.44-3.63-6.07-96.58-44.56-109.94-43.74,0,0-61.03,6.64-55.65,16.12,5.37,9.48,24.52,11.21,24.52,11.21Z"/><path class="cls-7" d="m713.67,732.32s-10.06-14.64-29.97-10.75-161.01,19.84-246.83,29.47c-85.82,9.63-137.28,21.07-176.46-3.66-39.19-24.74-78.26-54.77-61.32-77.18,16.94-22.41,85.88-51.33,99.26-53.17,13.38-1.83,15.14.22,16.54,18.16,1.4,17.95.02,50.56-20.6,48.5-20.62-2.06-44.01-8.31-39.7-16.38,4.32-8.06,12.11-5.98,18.69-1.48,6.58,4.49,22.02,1.14,16.28-21.57-5.74-22.71-13.15-8.99-34.97,4.19-21.82,13.18-50.89,22.47-28.75,30.88,22.14,8.41,83.37,47.1,91.35,31.81,7.98-15.29,33.2-113.41,8.83-127.84-24.37-14.44-76.84,26.34-106.16,46.19-29.32,19.85-63.9,33.6-60.14,46.08,3.76,12.48,52.7,74.54,123.4,116.63,0,0,232.68-26.37,294.81-35.32,62.13-8.95,135.73-24.56,135.73-24.56Z"/><path class="cls-2" d="m819.53,648.88s55.19-3.24,43.05-15.96c-12.14-12.73-65.63-6.69-100.01-2.38-34.38,4.32-43.39,11.91-59.61,25.58s-17.87,4.4-50.07-5.77c-32.2-10.17-46.28-15.38-51.21,6.56-4.93,21.94-5.44,29.18-21.21,10.81-15.77-18.37-30.63-66.47-77.41-67.12-46.78-.64-23.79,63.21-21,76.27,2.79,13.06-9,27.11-27.49-4.57-18.49-31.69-10.31-62.21-25.42-48.45-15.11,13.77,44.36,122.32,68.73,110.3,24.37-12.03-8.99-60.93-9.89-85.37-.89-24.44,10.68-42.41,35.17-15.79,24.49,26.62,48.94,99.52,73.1,84.3,24.16-15.22,15.77-21.52,14.28-36.7-1.49-15.18,8.5-27.71,28.62-8.71,20.13,19,40.91,30.25,59.12,12.85,18.21-17.4,13.78-37.3,52.52-33.99,38.75,3.31,68.72-1.85,68.72-1.85Z"/><path class="cls-5" d="m759.71,594.43s7.02,8.44-20.54,9.61c-27.56,1.17-228.95-24.59-264.74-15.9-35.79,8.69-59.64,6.81-78.09,28.81-18.45,22-35.78,60.29-38.64,69.5-2.86,9.21-10.31,16.77-11.29,5.17-.98-11.59,30.42-82.83,37.47-98.36,7.05-15.53,1.2-22.25,48.27-21.62,47.08.63,287.15,10.68,327.56,22.79Z"/><path class="cls-6" d="m684.04,1066.83s94.28,5.24,105.09-64.87c0,0,41.85-8.51,42.38,13.43.54,21.95-28.14,79.28-147.47,51.43Z"/><path class="cls-6" d="m401.54,1085.18s64.49-59.38,99.08-52.3c34.59,7.08,29.46,29.69,7.12,33.95-22.33,4.26-58.18,25.65-3.56,29.37,54.62,3.72,144.5-13.46,132.16-35.34-12.34-21.88-41.17-26.36-27.9-34.6,13.27-8.24,43.41,13.71,43.41,13.71,0,0-15.4-19.33-32.11-18.68-16.71.66-20.64,8.19-18.02,13.43,2.62,5.24,37.81,21.29-1.08,32.11-38.89,10.81-112.28,19.66-88.04,5.57,24.24-14.09,26.87-45.21-19.99-42.92-46.85,2.29-91.08,55.7-91.08,55.7Z"/><path class="cls-6" d="m719.35,161.41l101.27,16.98s-11.1,24.15-100.65,38.35c-89.54,14.2-360,11.47-367.54,11.63-20.29.41-58.27-29.44,19.82-39.38,78.08-9.94,363.28-62.91,378.41-64.98,15.13-2.07,103.74,29.81,127.61,42.67,23.86,12.86-57.12,81.42-78.81,85.47-21.7,4.06-518.07,50.36-540.18,34.13-22.1-16.24,26.91-108.94,19.24-131.25-7.67-22.32-44.76-14.68-46.73,1.32,0,0-20.8,162.1.35,165.72,21.16,3.63,575.45-31.19,601.1-44.68,25.65-13.49,87.74-112.51,87.74-112.51l-147.07-64.11-484.15,74.07s-9.56,84.69,8.32,89.31c17.87,4.62,480.88-19.41,502.72-28.89,21.85-9.47,63.25-51.37,59.63-57.44-3.63-6.07-96.58-44.56-109.94-43.74,0,0-61.03,6.64-55.65,16.12,5.37,9.48,24.52,11.21,24.52,11.21Z"/><path class="cls-6" d="m820,648.59s55.19-3.24,43.05-15.96c-12.14-12.73-65.63-6.69-100.01-2.38-34.38,4.32-43.39,11.91-59.61,25.58-16.22,13.67-17.87,4.4-50.07-5.77-32.2-10.17-46.28-15.38-51.21,6.56-4.93,21.94-5.44,29.18-21.21,10.81-15.77-18.37-30.63-66.47-77.41-67.12-46.78-.64-23.79,63.21-21,76.27,2.79,13.06-9,27.11-27.49-4.57-18.49-31.69-10.31-62.21-25.42-48.45-15.11,13.77,44.36,122.32,68.73,110.3,24.37-12.03-8.99-60.93-9.89-85.37-.89-24.44,10.68-42.41,35.17-15.79,24.49,26.62,48.94,99.52,73.1,84.3,24.16-15.22,15.77-21.52,14.28-36.7-1.49-15.18,8.5-27.71,28.62-8.71,20.13,19,40.91,30.25,59.12,12.85,18.21-17.4,13.78-37.3,52.52-33.99,38.75,3.31,68.72-1.85,68.72-1.85Z"/></svg>