<svg width="106" height="96" viewBox="0 0 106 96" fill="none" xmlns="http://www.w3.org/2000/svg">
<g id="Capa_1" clip-path="url(#clip0_1806_4789)">
<path id="Vector" d="M67.3096 16.555C67.3096 16.555 75.5118 14.7298 78.3318 0C78.3318 0 77.3005 15.002 81.3935 16.2188C81.3935 16.2188 91.0621 21.2942 95.9931 20.7979C95.9931 20.7979 75.1895 24.9927 74.7544 27.9706C74.3193 30.9486 68.2442 47.0233 67.0517 46.8472C65.8593 46.6711 69.6139 29.6998 65.8432 26.3856C65.8432 26.3856 56.1262 17.948 52.0332 16.7312L67.3096 16.571V16.555Z" fill="#48B1B9"/>
<path id="Vector_2" d="M93.8655 82.0692C93.8655 82.0692 98.1197 83.3341 103.244 77.25C103.244 77.25 98.877 83.9104 100.456 85.5275C100.456 85.5275 103.615 90.3307 106.016 91.3714C106.016 91.3714 95.3319 87.9932 94.3489 89.258C93.3821 90.5068 86.4046 96.3828 85.905 95.9985C85.4055 95.6142 91.5289 88.7457 90.6426 86.248C90.6426 86.248 88.3383 79.8758 86.7591 78.2587L93.8494 82.0852L93.8655 82.0692Z" fill="#48B1B9"/>
<path id="Vector_3" d="M4.68927 54.8359C4.68927 54.8359 7.00973 53.363 6.22013 48.5117C6.22013 48.5117 7.58985 53.2509 8.99179 53.1708C8.99179 53.1708 12.5369 53.6511 14.0033 52.9627C14.0033 52.9627 8.07327 56.5651 8.26665 57.5257C8.46002 58.4864 8.39556 64.1061 8.00882 64.1862C7.62207 64.2662 6.88082 58.6145 5.33384 58.0221C5.33384 58.0221 1.40195 56.501 0 56.5811L4.68927 54.8359Z" fill="#48B1B9"/>
</g>
<defs>
<clipPath id="clip0_1806_4789">
<rect width="106" height="96" fill="white"/>
</clipPath>
</defs>
</svg>
