<svg width="56" height="52" viewBox="0 0 56 52" fill="none" xmlns="http://www.w3.org/2000/svg">
<g id="Capa_1" clip-path="url(#clip0_1806_4482)">
<path id="Vector" d="M25.3672 21.6787C25.3672 21.6787 32.0744 20.325 29.391 15.6782C26.7075 11.0342 18.5869 12.968 16.7059 18.6785C14.825 24.3889 17.317 31.9365 24.2156 28.8396C31.1142 25.7426 33.7976 25.7426 37.247 27.0963C40.6963 28.45 50.6613 30.58 48.7466 23.9993C46.829 17.4186 48.7466 15.8687 52.7703 16.4517C56.794 17.0319 58.3286 32.5167 49.7039 36.0004C41.0792 39.4841 37.1681 36.1938 34.0454 36.0004C30.9227 35.807 30.9227 37.7437 29.0052 41.8076C27.0877 45.8715 24.0213 53.0351 18.6573 51.872C13.2932 50.7089 12.1416 43.7414 12.5245 40.6444C12.9075 37.5475 10.7984 37.5475 8.30931 38.1276C5.81736 38.7078 -1.46422 40.0643 0.259029 26.3199C1.9851 12.5812 14.8278 3.87047 25.9416 8.70787C37.0583 13.5481 33.6005 21.5394 30.154 22.5745C26.7075 23.6097 24.5985 24.1927 25.3672 21.6759V21.6787Z" fill="#48AEB6"/>
<path id="Vector_2" d="M45.6829 13.9349C49.0759 9.82268 45.4914 6.3873 43.5739 5.80431C41.0031 5.02509 37.4411 7.15798 38.207 8.12774C38.9729 9.09465 38.3985 7.74098 39.9331 7.74098C41.4677 7.74098 44.917 12.1916 41.2734 15.482C37.6326 18.7723 30.3482 16.2555 32.4572 8.12774C34.5662 -1.4103e-05 42.808 -1.54992 48.7492 1.35366C54.6905 4.25725 54.6905 11.9982 51.0497 14.9018C47.4089 17.8054 43.7681 16.2555 45.6829 13.9349Z" fill="#0C6B80"/>
</g>
<defs>
<clipPath id="clip0_1806_4482">
<rect width="56" height="52" fill="white"/>
</clipPath>
</defs>
</svg>
