<svg width="19" height="20" viewBox="0 0 19 20" fill="none" xmlns="http://www.w3.org/2000/svg">
<g id="Group 11">
<ellipse id="Ellipse 3" cx="9.91347" cy="9.76007" rx="8.42323" ry="9.23663" fill="#064862"/>
<path id="Vector" d="M18.8446 7.64561C18.8446 7.64561 20.3222 13.7661 14.1695 18.2264C8.01689 22.6902 2.66114 17.2724 1.4326 14.0465C0.207388 10.8242 1.16364 3.95 6.68873 1.18284C12.2138 -1.58433 16.6166 4.95127 15.8828 8.91997C15.149 12.8923 12.4861 17.0685 8.43857 14.9167C4.39104 12.7649 6.75846 7.87136 8.85029 7.75485C10.9421 7.63469 12.2238 8.42843 11.2642 10.6021C11.2642 10.6021 13.5818 8.30828 11.6859 6.15644C9.79329 4.00461 4.24163 6.64798 4.2051 10.8788C4.1719 15.1097 7.65165 18.0771 10.5603 17.4982C13.4689 16.9192 16.4174 16.475 18.8413 7.64197L18.8446 7.64561Z" fill="#48AEB6"/>
</g>
</svg>
