<?xml version="1.0" encoding="UTF-8"?><svg id="B_N" xmlns="http://www.w3.org/2000/svg" viewBox="0 0 1080 1137"><defs><style>.cls-1{fill:#fff;}</style></defs><path d="m341.91,287.24s22.51-29.6,45.67,0c23.15,29.6-11.63,73.27-45.67,55.14-34.04-18.14-77.7-47-31.08-119.51,46.62-72.52,124.07-3.85,137.88,30.63,13.81,34.48-3.95,79.62,7.15,107,11.1,27.38,37,54.02,72.52,54.76,0,0-34.24,30.34-71.14,0-36.9-30.34-29.13-74.37-35.79-111.37s-45.88-71.04-79.55-16.65Z"/><path d="m285.3,247.65s-45.14,54.76-2.96,97.68c42.18,42.92,68.89,21.97,99.19,45.76,30.3,23.8,68.78,57.09,102.82,43.78,0,0-45.88-5.18-65.12-45.88-19.24-40.7-63.64-27.38-83.62-36.26-19.98-8.88-64.38-31.08-50.32-105.08Z"/><path d="m190.95,293.16c17.9,7.84,32.56,28.86,42.92,8.14,10.36-20.72,11.18-65.86-108.37-53.65,0,0,43.99-34.41,94.31-28.49,34.86,4.1,31.82,17.02,51.8,9.62,19.98-7.4,36.26-30.68-42.92-37.91-79.18-7.23-199.05,29.77-209.41,134.11,0,0-5.37,21.83,16.74,0,22.11-21.83,86.49-61.79,154.93-31.82Z"/><path d="m564.38,1054.1s6-15.34-32.01-42.68c-20.83-14.98,9.34-40.01,20.01-45.35,10.67-5.34,6.67-25.34-24.01-26.68-30.68-1.33-66.69-28.01-38.68-57.35,28.01-29.34,57.35-9.34,104.04-21.34,46.68-12,72.16-54.62,48.75-80-23.41-25.38-86.1-34.71-98.1-20.04-12,14.67,4.81,54.63,21.08,37.99,16.27-16.65,42.28,5.36,20.94,28.04-21.34,22.67-66.69,33.35-98.7,0-32.01-33.35-4-108.04,50.69-108.04s129.38,24.01,140.05,76.03c10.67,52.02,2.67,80.03-50.69,82.7-53.35,2.67-94.7,9.34-89.37,29.34,5.34,20.01,18.67,20.01,36.01,14.67,17.34-5.34,32.01,16.01,16.01,28.01-16.01,12-44.02,32.01-34.68,52.02,9.34,20.01,14.67,36.01,8.67,52.69Z"/><path d="m549.31,429.87c-14.79,32.27-11.6,62.69-56.95,54.69-45.35-8-188.07-8-212.08,85.36-24.01,93.37,24.01,157.39,89.37,173.4,65.36,16.01,114.71-82.7,180.07-61.36,65.36,21.34,232.08,173.01,415.48,69.17,183.4-103.85,28.68-201.21-10-211.88s-102.19-43.07-144.05-121.38c-56.69-106.04-191.55-141.38-261.83,12Z"/><path class="cls-1" d="m441.01,585.26s36.49-14.32,18.24-28.5c-18.24-14.18-64.93,11.16-68.93,35.17-4,24.01,0,60.02,64.02,41.35,64.02-18.67,108.04-65.36,132.05-121.38,24.01-56.02,41.35-118.71,106.71-128.05,65.36-9.34,169.59,30.52,132.81,127.3-36.78,96.78-120.81,64.77-120.81,28.75s51.92-49.49,61.31-29.42c0,0,13.39-43.94-46.63-29.27-60.02,14.67-97.88,76.4-56.27,123.56,41.6,47.16,102.96.63,133.64-24.12,30.68-24.75,118.71-47.42,160.06,17.93,41.35,65.36,20.01,177.4-134.72,156.06-154.72-21.34-177.4-57.35-202.74-92.03-25.34-34.68-76.03-54.69-136.05-1.33-60.02,53.35-134.72,80.03-169.39-5.34-34.68-85.36,73-174.09,159.88-136.4,86.88,37.7,2.85,103.05-33.16,65.71Z"/><polygon points="926.35 296.82 951.19 408.53 1047.62 439.54 931.18 488.56 852.92 605.17 852.92 476.09 754.46 409.04 867.16 400.53 926.35 296.82"/><polygon class="cls-1" points="871.26 423.01 926.35 296.82 928.04 424.71 1047.62 439.54 925.28 470.06 852.92 605.17 870.25 467.27 754.46 409.04 871.26 423.01"/></svg>