<?xml version="1.0" encoding="UTF-8"?><svg id="B_N" xmlns="http://www.w3.org/2000/svg" viewBox="0 0 1080 1137"><defs><style>.cls-1,.cls-2{fill:none;}.cls-3,.cls-4{fill:#fff;}.cls-2{stroke:#fff;}.cls-2,.cls-4{stroke-miterlimit:10;}.cls-4{stroke:#000;stroke-width:6px;}</style></defs><path class="cls-2" d="m567.93,496.97s-177.19-22.22-292.51,158.43c-115.31,180.64,21.21,352.99,21.21,352.99"/><path class="cls-2" d="m426.98,540.06s-239.53,164.7-107.11,478"/><path class="cls-2" d="m373.41,673.25s-55.29,81.85-49.14,169.2"/><path class="cls-2" d="m418.57,496.1s16.52,40,39.19,48.56"/><path class="cls-2" d="m348.6,531.32s-4.31,44.79,57.5,57.56"/><path class="cls-2" d="m179.21,752.24s29.9,56.61,89.78,45.98c59.87-10.63,92.18-21.53,104.93-22.33"/><path class="cls-2" d="m216.28,667.02s8.52,34.69,47.66,38.18c39.14,3.49,67.3-39.54,109.47-18.81"/><path class="cls-2" d="m287.24,570.9s.41,46.83,37.03,46.22c36.62-.61,66.12,22.24,66.12,22.24"/><path class="cls-2" d="m179.21,871.3s27.2,33.99,62.64,25.14c35.44-8.85,96.97,1.47,96.97,1.47"/><path class="cls-2" d="m209.33,958.69s37.11,23.44,87.3,0c50.2-23.44,51.97,10.42,51.97,10.42"/><path class="cls-1" d="m592.13,504.5s-124.47-61.61-269.12,52.29c-144.66,113.89-210,388.89-1.54,461.84,0,0-73.03-86.23-44.47-136.59,28.55-50.36,103.18-49.34,83.05-140.04-20.13-90.7,73.18-277.06,232.09-237.5Z"/><path d="m738.75,588.88s28.57,26.45,18.62,64.56c-9.95,38.11-17.62,61.44-47.61,86.43-29.99,24.99-60.24,84.15-30.14,108.71,30.1,24.57,46.47,88.8-3.22,109.37-49.69,20.57-135.11,123.62-245.05,108.06-31.08-4.4,223.3,123.42,354.03-117.53,90.84-167.44,45.34-320.59-46.63-359.6Z"/><path d="m460.47,765.13c-7.52,22.28-92.43,291.5-83.37,295.76,9.06,4.26,202.9-194.87,204.49-221.79,1.59-26.91-72.52-59.96-79.6-53.21-7.08,6.76-55.94,146.33-47.47,153.24,8.47,6.91,66.39-60.23,65.52-68.77-.87-8.54-18.12-24.72-19.53-17.77-1.41,6.95,2.72,30.69-4.37,28.82-7.09-1.87-8.94-27.81,2.28-49.54,11.22-21.73,38.69,19.5,39.04,22.91.35,3.42-41.33,77.54-87.7,96.91-46.36,19.37,39.09-159.29,32.58-172.44-6.51-13.15-17.65-26.58-21.85-14.13Z"/><path d="m603.37,750.65c-1.74,12.56,4.13,16.36-17.91,11.69-22.05-4.67-68.12-25.03-104.29-49.84-36.17-24.81-55.95-46.93-32.73-66.13,23.22-19.2,242.55-196.75,256.14-190.36,13.59,6.39-19.49,279.95-34.03,287.85-14.54,7.89-84.15-19.92-83.93-42.85.22-22.93,97.56-195.03,95.76-195.71-1.79-.68-172.81,142.64-183.98,160.16-11.17,17.53-18.77,19.16,2,28.27,20.77,9.11,104.77,43.86,102.96,56.93Z"/><path class="cls-3" d="m763.09,787.55s23.84,12.07-2.74,27.6c-26.57,15.53-31.51-33.2-20.88-43.34,10.63-10.14,25.26-20.69,50.72-5.14,25.46,15.55,24.9,73.9-5.1,84.71-29.99,10.81-81.81-2.07-88.26-27.33-6.44-25.25,4.03-65.28,30.24-67.23,26.22-1.95-11.03,10.56-11.61,25.68-.59,15.12,4.19,36.66,26.76,42.14,22.58,5.48,40.27,1.1,38.84-13-1.43-14.1-7.09-31.66-17.98-24.08Z"/><path class="cls-3" d="m800.17,954.42s-36.26-4.39-58.97,11.43c-22.71,15.82-45.34,37.97-58.09,54.84-12.74,16.87-38.09,40.95-60.19,29.59s-17.18-35.2-5.7-40.81c11.48-5.62,36.06-7.92,36.76-.63s-3.83,14.03-12.76,7.57c-8.94-6.47-16.83-14.68-17.68-2.35-.85,12.33,4.02,24.19,15.96,22.2,11.94-1.99,46.94-11.38,35.43-43.19-11.51-31.82-57.62-2.97-70.67,12.88-13.05,15.85-26.83,29.98-20.9,49.4,5.93,19.42,33.27,26.53,42.32,26.87,9.05.34,35.88-.83,63.62-32.35,27.74-31.51,40.35-47.09,44.47-54.42,4.12-7.32,26.93-41.89,66.42-41.03Z"/><path d="m421.34,502.14s7.22,15.09,9.71,18.24c0,0,75.18-37.19,150.56-20.15,0,0-84.98-30.43-160.27,1.9Z"/><path d="m431.05,520.38s4.68,6.24,9.06,10.94c0,0-49.16,38.16-58.33,49.56,0,0-16.52-5.77-23-18.28,0,0,38.53-29.75,72.28-42.22Z"/><path d="m358.78,562.6s-33.56,25.31-52.05,50.15c0,0-13.97-3.98-17.01-25.51,0,0,34.08-34.21,60.05-49.75,0,0-.13,14.17,9.01,25.1Z"/><path d="m381.78,580.88s-24.5,26.54-33.24,40.84c0,0,16.3,2.08,24.87,7.41,0,0,16.22-42.9,19.43-43.79l-11.06-4.47Z"/><path d="m348.54,621.72s-5.93-4.48-17.49-4.46c-11.56.02-23.02-1.22-24.32-4.51,0,0-45.83,52.47-57.16,89.43,0,0,14.31,6.11,30.4,2.01,16.08-4.1,28.47-10.65,28.47-10.65,0,0,19.15-47.07,40.1-71.83Z"/><path d="m308.44,693.55s33.04-19.24,57.92-12.21c0,0-39.29,84.39-38.4,104.69l-45.9,9.78s9.08-76,26.38-102.27Z"/><path d="m229.14,795.82s5.19-61.85,20.42-93.63c0,0-18.91-5.22-26.06-20.06,0,0-24.86,51.18-29.28,90.04,0,0,19.58,20.94,34.92,23.65Z"/><path d="m229.14,795.82s20.17,9.78,52.91,0c0,0-6.75,50.86,2.05,97.1,0,0-20.03-.48-27.48,1-7.46,1.49-14.78,2.52-14.78,2.52,0,0-18.67-73.66-12.71-100.63Z"/><path d="m241.85,896.45s18.01,54.32,28.29,69.61c0,0-25.09,9.67-49.59-2.36l-25.02-77.66s15.56,16.14,46.32,10.41Z"/><path d="m284.11,892.92s7.12,41.57,14.21,65c0,0,18.74-10.29,34.01-7.49,0,0-5.92-47.16-5.48-54.22,0,0-24.99-4.22-42.75-3.29Z"/><polygon points="270.14 966.06 298.33 957.92 321.47 1018.62 295.37 1007.77 270.14 966.06"/><path class="cls-4" d="m295.41,1046.72s-69.43-46.47-74.86-83.03c-5.43-36.56-29.17-91.97,76.31-115.6,105.48-23.63,73.33-110.98,74.66-140.46,1.33-29.48,15.03-200.87,200.32-211.87,0,0-55.64-21.11-139.2,39.99-83.56,61.11-81.38,159.26-75.53,191.46,5.85,32.2,27.89,96.41-73.49,117.9-101.38,21.49-109.82,100.01-108.51,121.45,1.31,21.44,31.88,76.16,120.3,80.15Z"/><path d="m79.51,705.2s-34.34,42.93-36.92,100.45c-2.58,57.52,27.21,99.6,47.52,96.59,20.31-3.01-84.44-38.21-10.6-197.04Z"/><path d="m67.61,607.55s-56.61,64.53-57.55,138.62c-.94,74.08,10.22,83.53,14.51,80.95,4.29-2.58-33.25-110.3,43.04-219.57Z"/><path d="m896.11,854.01s17.73,52.04.62,107.02c-17.11,54.98-59.41,84.45-77.49,74.72-18.08-9.72,92.39-7.28,76.87-181.74Z"/><path d="m940.45,766.2s31.34,79.92,7.08,149.92c-24.26,70-37.97,75.1-41.13,71.22s68.72-92.46,34.05-221.14Z"/><path d="m241.85,488.38c-28.43-21.09-102.03-100.4-92.97-115.24,9.06-14.84,92.97,115.24,92.97,115.24Z"/><path d="m185.34,537.5c-31.98-15.17-119.56-78.71-113.55-95.02,6.01-16.31,113.55,95.02,113.55,95.02Z"/><path d="m161.18,597.14c-29.77-4.7-116.58-35.53-115.59-50.29.98-14.77,115.59,50.29,115.59,50.29Z"/><path d="m868.42,538.66c33.23-12.21,126.22-67.52,121.71-84.31-4.5-16.79-121.71,84.31-121.71,84.31Z"/><path d="m908.78,601.73c34.97-5.53,136.91-41.76,135.75-59.11-1.16-17.35-135.75,59.11-135.75,59.11Z"/><path d="m915.11,665.76c29.89,3.89,121.86-1.18,125.09-15.62,3.22-14.45-125.09,15.62-125.09,15.62Z"/><path d="m134.89,628.66s9.33,17.23,9.15,25.12c0,0-4.5,10.84-12.48,14.3,0,0,14.07-3.93,15.86-2.68,0,0,10.7,10.57,13.6,16.72,0,0-5.73-15.32-5.58-22,0,0,.15-6.68,11.29-15.54,0,0-9.22,4.65-15.27,3.6,0,0-6.64-2.28-16.57-19.52Z"/><path d="m807.38,282.99s-4.7,29.29-12.2,38.61c0,0-15.4,8.85-28.18,5.65,0,0,20.52,8.26,21.51,11.43,0,0,3.08,22.57.89,32.62,0,0,7.27-23.68,13.62-31.56,0,0,6.35-7.88,27.9-8.24,0,0-15.36-2.92-21.66-9.77,0,0-5.86-8.86-1.88-38.73Z"/><path d="m287.16,500.43s8.62-7.57,2.26-27.17c0,0,8.68,18.74,14.37,17.52,0,0,14.91-.24,20.49-4.05,0,0-22.1,18.7-20.68,22.56s4.78,27.2,3.23,27.77c-1.54.57-8.25-22.33-14.95-23.85,0,0-17.2-3.78-22.89-2.56l18.17-10.22Z"/><path d="m823.74,483.44s-3.71,19.24-8.85,25.23c0,0-10.35,5.53-18.72,3.15,0,0,13.37,5.88,13.96,7.99,0,0,1.57,14.96-.08,21.55,0,0,5.29-15.48,9.64-20.55,0,0,4.35-5.07,18.59-4.86,0,0-10.08-2.25-14.09-6.9,0,0-3.69-5.97-.44-25.6Z"/><path d="m902.62,739.81s-8.41,17.7-14.89,22.21c0,0-11.41,2.76-18.91-1.64,0,0,11.47,9.04,11.52,11.23,0,0-2.23,14.88-5.48,20.84,0,0,9-13.66,14.48-17.48,0,0,5.49-3.82,19.21-.05,0,0-9.19-4.7-11.92-10.21,0,0-2.07-6.7,5.99-24.9Z"/></svg>