<?xml version="1.0" encoding="UTF-8"?><svg id="B_N" xmlns="http://www.w3.org/2000/svg" viewBox="0 0 1080 1137"><defs><style>.cls-1,.cls-2{fill:#fff;}.cls-2{stroke:#000;stroke-miterlimit:10;}</style></defs><path d="m456.24,894.36s-47.08-89.39,49.81-98.26c96.9-8.87,133.06-33.44,120.78-73.7-12.28-40.26-114.64-35.48-168.55-26.61-53.91,8.87-122.83,16.38-143.98-13.65-21.15-30.02-69.6-126.24-74.38-161.04,0,0,20.72,160.36,88.49,186.63,67.77,26.27,153.75,9.21,201.52,6.48,47.77-2.73,83.93,6.82,78.47,23.88-5.46,17.06-32.75,33.44-84.62,23.88-51.86-9.55-116.69-6.14-120.78,47.77-4.09,53.91,53.23,84.62,53.23,84.62Z"/><path d="m239.92,505.85s-13.99-150.67,0-154.88c13.99-4.22,379.75-34.24,419.32-17.18,39.58,17.06,79.16,231.33,66.19,260.67-12.97,29.34-13.8,51.95-96.29,64.87-82.49,12.92-291.06,30.75-311.99,0-20.93-30.75-55.39-111.61-66.31-209.88-10.92-98.26,247.02-95.53,324.13-95.53s100.79-11.34,112.49,148.55c0,0-13.54-114.43-41.52-121.93-27.98-7.51-186.97-4.09-241.56,0-54.59,4.09-141.94,17.06-138.52,70.97,3.41,53.91,36.17,192.43,66.19,199.94,30.02,7.51,327.54-8.19,348.7-43.67,21.15-35.48,23.88-65.51,16.38-124.88-7.51-59.37-24.57-129.65-41.63-133.75-17.06-4.09-274.32-12.28-378.04,23.2,0,0-49.81-1.84-37.53,133.51Z"/><path d="m322.83,525.53c2.05,9.55,3.41,41.63,10.24,41.63s26.61,2.73,26.61-14.33-2.05-38.9-15.69-35.48c-13.65,3.41-21.15,7.51-17.06,7.51s20.79-6.14,21.99-3.75c1.21,2.39,8.71,33.78,4.62,37.19-4.09,3.41-18.42,6.82-19.79,2.73-1.36-4.09-10.92-35.48-10.92-35.48Z"/><path d="m346.03,596.5c2.43,9.55,4.04,41.63,12.13,41.63s31.54,2.73,31.54-14.33-2.43-38.9-18.6-35.48c-16.17,3.41-25.07,7.51-20.22,7.51s24.64-6.14,26.07-3.75,10.33,33.78,5.47,37.19c-4.85,3.41-21.84,6.82-23.45,2.73-1.62-4.09-12.94-35.48-12.94-35.48Z"/><path d="m408.81,586.95c2.43,9.55,4.04,41.63,12.13,41.63s31.54,2.73,31.54-14.33-2.43-38.9-18.6-35.48c-16.17,3.41-25.07,7.51-20.22,7.51s24.64-6.14,26.07-3.75,10.33,33.78,5.47,37.19c-4.85,3.41-21.84,6.82-23.45,2.73s-12.94-35.48-12.94-35.48Z"/><path d="m383.56,516.66c2.84,9.55,4.74,41.63,14.22,41.63s36.96,2.73,36.96-14.33-2.84-38.9-21.8-35.48c-18.96,3.41-29.38,7.51-23.69,7.51s28.87-6.14,30.55-3.75c1.68,2.39,12.1,33.78,6.42,37.19-5.69,3.41-25.59,6.82-27.48,2.73-1.9-4.09-15.16-35.48-15.16-35.48Z"/><path d="m303.72,449.79c2.05,9.55,3.41,41.63,10.24,41.63s26.61,2.73,26.61-14.33-2.05-38.9-15.69-35.48c-13.65,3.41-21.15,7.51-17.06,7.51s20.79-6.14,21.99-3.75c1.21,2.39,8.71,33.78,4.62,37.19s-18.42,6.82-19.79,2.73c-1.36-4.09-10.92-35.48-10.92-35.48Z"/><path d="m388.13,483.27c-2.13,0-4.13-.05-5.89-.1-1.35-.03-2.56-.07-3.56-.07-7.43,0-10.26-17.02-12.54-30.69-.79-4.74-1.47-8.83-2.22-11.34l1.06-.38c.13.31,13.29,31.43,15.16,35.47.2.43.75.79,1.6,1.06,5.24,1.61,20.28-1.15,25.08-4.03.54-.33.94-1.04,1.17-2.13,1.74-8.21-6.5-32.46-7.76-34.25-.82-1.16-11.42.86-17.75,2.07-5.18.99-10.08,1.92-12.34,1.92-.71,0-2.03,0-2.11-.89-.22-2.51,18.48-6.44,25.71-7.74,5.39-.97,9.89.01,13.37,2.92,6.12,5.12,9.1,15.95,9.1,33.12,0,3.61-1.21,6.62-3.58,8.94-5.43,5.3-15.97,6.11-24.49,6.11Zm-21.81-36.52c.3,1.68.61,3.53.94,5.48,2.09,12.55,4.95,29.75,11.43,29.75,1.01,0,2.23.03,3.59.07,8.64.22,23.11.59,29.56-5.7,2.15-2.1,3.24-4.83,3.24-8.13,0-16.81-2.84-27.36-8.69-32.25-3.21-2.68-7.4-3.59-12.44-2.68-13.73,2.47-22.27,5.17-24.35,6.37.15.01.33.02.56.02,2.15,0,7-.93,12.12-1.9,10.98-2.1,17.73-3.25,18.88-1.61,1.67,2.38,9.71,26.77,7.94,35.13-.3,1.41-.87,2.37-1.69,2.87-5.08,3.05-20.42,5.86-25.99,4.14-1.18-.36-1.96-.92-2.3-1.66-1.38-2.99-8.89-20.66-12.8-29.89Z"/><path d="m477.73,576.03c2.84,9.55,4.74,41.63,14.22,41.63s36.96,2.73,36.96-14.33-2.84-38.9-21.8-35.48c-18.96,3.41-29.38,7.51-23.69,7.51s28.87-6.14,30.55-3.75c1.68,2.39,12.1,33.78,6.42,37.19-5.69,3.41-25.59,6.82-27.48,2.73-1.9-4.09-15.16-35.48-15.16-35.48Z"/><path d="m442.93,428.63c2.84,9.55,4.74,41.63,14.22,41.63s36.96,2.73,36.96-14.33-2.84-38.9-21.8-35.48c-18.96,3.41-29.38,7.51-23.69,7.51s28.87-6.14,30.55-3.75c1.68,2.39,12.1,33.78,6.42,37.19-5.69,3.41-25.59,6.82-27.48,2.73-1.9-4.09-15.16-35.48-15.16-35.48Z"/><path d="m549.38,563.75c2.84,9.55,4.74,41.63,14.22,41.63s36.96,2.73,36.96-14.33-2.84-38.9-21.8-35.48c-18.96,3.41-29.38,7.51-23.69,7.51s28.87-6.14,30.55-3.75,12.1,33.78,6.42,37.19c-5.69,3.41-25.59,6.82-27.48,2.73-1.9-4.09-15.16-35.48-15.16-35.48Z"/><path d="m627.86,553.51c2.84,9.55,4.74,41.63,14.22,41.63s36.96,2.73,36.96-14.33-2.84-38.9-21.8-35.48c-18.96,3.41-29.38,7.51-23.69,7.51s28.87-6.14,30.55-3.75c1.68,2.39,12.1,33.78,6.42,37.19-5.69,3.41-25.59,6.82-27.48,2.73-1.9-4.09-15.16-35.48-15.16-35.48Z"/><path d="m601.24,406.8c2.84,9.55,4.74,41.63,14.22,41.63s36.96,2.73,36.96-14.33-2.84-38.9-21.8-35.48c-18.96,3.41-29.38,7.51-23.69,7.51s28.87-6.14,30.55-3.75c1.68,2.39,12.1,33.78,6.42,37.19-5.69,3.41-25.59,6.82-27.48,2.73-1.9-4.09-15.16-35.48-15.16-35.48Z"/><path d="m459.31,507.79c2.84,9.55,4.74,41.63,14.22,41.63s36.96,2.73,36.96-14.33-2.84-38.9-21.8-35.48c-18.96,3.41-29.38,7.51-23.69,7.51s28.87-6.14,30.55-3.75c1.68,2.39,12.1,33.78,6.42,37.19-5.69,3.41-25.59,6.82-27.48,2.73-1.9-4.09-15.16-35.48-15.16-35.48Z"/><path d="m561.45,542.64c-2.13,0-4.12-.05-5.89-.1-1.35-.03-2.56-.07-3.56-.07-7.43,0-10.26-17.02-12.54-30.69-.79-4.74-1.47-8.82-2.22-11.34l1.06-.38c.13.31,13.29,31.43,15.16,35.47.2.43.75.79,1.6,1.06,5.24,1.61,20.28-1.15,25.08-4.03.54-.33.94-1.04,1.17-2.13,1.74-8.21-6.5-32.46-7.76-34.25-.82-1.16-11.42.86-17.75,2.07-5.18.99-10.08,1.92-12.34,1.92-.71,0-2.03,0-2.11-.89-.22-2.51,18.48-6.44,25.7-7.74,5.39-.97,9.89.01,13.37,2.92,6.12,5.12,9.1,15.95,9.1,33.12,0,3.61-1.21,6.62-3.58,8.94-5.43,5.3-15.98,6.12-24.49,6.12Zm-21.81-36.52c.3,1.68.61,3.52.94,5.48,2.09,12.55,4.95,29.75,11.43,29.75,1.01,0,2.23.03,3.59.07,8.65.22,23.11.59,29.56-5.7,2.15-2.1,3.24-4.83,3.24-8.13,0-16.81-2.84-27.36-8.69-32.25-3.21-2.68-7.4-3.59-12.44-2.68-13.73,2.47-22.27,5.17-24.35,6.37.15.01.33.02.56.02,2.15,0,7-.93,12.12-1.9,10.98-2.1,17.73-3.25,18.88-1.61,1.67,2.38,9.71,26.77,7.94,35.13-.3,1.41-.87,2.38-1.69,2.87-5.08,3.05-20.42,5.86-25.99,4.14-1.18-.36-1.96-.92-2.3-1.66-1.38-2.99-8.88-20.66-12.8-29.89Z"/><path d="m547.12,461.43c-2.13,0-4.13-.05-5.89-.1-1.35-.03-2.56-.07-3.56-.07-7.43,0-10.26-17.02-12.54-30.69-.79-4.74-1.47-8.82-2.22-11.34l1.06-.38c.13.31,13.29,31.43,15.16,35.47.2.43.75.79,1.6,1.06,5.23,1.61,20.28-1.15,25.08-4.03.54-.33.94-1.04,1.17-2.14,1.74-8.21-6.5-32.46-7.76-34.24-.82-1.16-11.42.86-17.75,2.07-5.18.99-10.08,1.92-12.34,1.92-.71,0-2.03,0-2.11-.89-.23-2.51,18.48-6.44,25.7-7.74,5.4-.97,9.89.01,13.37,2.92,6.12,5.12,9.1,15.95,9.1,33.12,0,3.61-1.21,6.62-3.58,8.94-5.43,5.3-15.97,6.11-24.49,6.11Zm-21.81-36.52c.3,1.68.61,3.52.94,5.48,2.09,12.55,4.95,29.75,11.43,29.75,1.01,0,2.23.03,3.59.07,8.65.22,23.11.59,29.56-5.7,2.15-2.1,3.24-4.83,3.24-8.13,0-16.81-2.84-27.36-8.69-32.25-3.21-2.68-7.4-3.58-12.44-2.68-13.73,2.47-22.27,5.17-24.35,6.37.15.01.33.02.56.02,2.15,0,7-.93,12.12-1.9,10.98-2.1,17.73-3.25,18.88-1.61,1.67,2.38,9.71,26.77,7.94,35.13-.3,1.41-.87,2.38-1.69,2.87-5.08,3.05-20.42,5.86-25.99,4.14-1.18-.36-1.96-.92-2.3-1.66-1.38-2.99-8.88-20.66-12.8-29.89Z"/><path d="m614.89,491.41c2.84,9.55,4.74,41.63,14.22,41.63s36.96,2.73,36.96-14.33-2.84-38.9-21.8-35.48c-18.96,3.41-29.38,7.51-23.69,7.51s28.87-6.14,30.55-3.75c1.68,2.39,12.1,33.78,6.42,37.19-5.69,3.41-25.59,6.82-27.48,2.73-1.9-4.09-15.16-35.48-15.16-35.48Z"/><path d="m649.89,565.67c.13,4.34,6.82,5.54,2.98,6.82s-8.09-3.41-7.67-9.8c.43-6.39,8.52-9.37,16.19-4.26,7.67,5.11,7.67,19.59,3.83,23-3.83,3.41-20.45,5.11-25.13-1.28-4.69-6.39-5.54-18.32-2.13-20.45s1.7-2.56,2.56,7.67c.85,10.22,10.36,9.07,16.36,8.26s4.72-7.2,4.3-9.75c-.43-2.56-11.5-7.24-11.29-.21Z"/><path d="m478.61,520.09c.13,4.34,6.82,5.54,2.98,6.82s-8.09-3.41-7.67-9.8c.43-6.39,8.52-9.37,16.19-4.26,7.67,5.11,7.67,19.59,3.83,23-3.83,3.41-20.45,5.11-25.13-1.28-4.69-6.39-5.54-18.32-2.13-20.45,3.41-2.13,1.7-2.56,2.56,7.67s10.36,9.07,16.36,8.26c6-.81,4.72-7.2,4.3-9.75s-11.5-7.24-11.29-.21Z"/><path d="m365.75,442.36c-.64,7.01-3.52,24.62,4.69,27.55,8.21,2.93,31.43,8.79,33.3,0,1.87-8.79,5.75-28.9,0-32.92-5.75-4.01-13.37-7.53-19.82-2.26-6.45,5.28-7.03,21.1-1.17,21.69,5.86.59,8.79-4.1,4.69-7.03,0,0,9.97-5.28,8.79,7.62-1.17,12.9-23.45,9.38-22.28,5.28,1.17-4.1,2.93-21.1-1.17-24.04s-6.45-2.34-7.03,4.1Z"/><path d="m399.24,549.32s14.48-5.54,14.06-9.37c-.43-3.83-.84-7.07-7.02-9.5-6.18-2.43-7.35-13.17-1.02-12.06,6.34,1.11.9,1.98,0,4.1-.9,2.12,1.24,7.33,8.05,2.17,6.81-5.16-.85-17.7-7.03-17.61-6.18.1-15.71,5.43-13.42,14.58,3.83,15.33,24.28,19.17,6.39,27.69Z"/><path d="m459.15,462.28s14.48-5.54,14.06-9.37c-.43-3.83-.84-7.07-7.02-9.5s-7.35-13.17-1.02-12.06c6.34,1.11.9,1.98,0,4.1-.9,2.12,1.24,7.33,8.05,2.17,6.81-5.16-.85-17.7-7.03-17.61-6.18.1-15.71,5.43-13.42,14.58,3.83,15.33,24.28,19.17,6.39,27.69Z"/><path d="m501.77,573.28s3.41,3.41-4.69,11.93c-8.09,8.52-7.24,24.7,4.26,22.15,11.5-2.56-1.98-10.31,1.14-21.34,3.12-11.03-.71-12.74-.71-12.74Z"/><path d="m504.33,585.63s13.2,6.82,10.22,14.91c-2.98,8.09-7.57,1.75-9.32-4.88-1.75-6.62-.9-10.03-.9-10.03Z"/><path d="m340.12,521.28s3.41,3.41-4.69,11.93c-8.09,8.52-7.24,24.7,4.26,22.15,11.5-2.56-1.98-10.31,1.14-21.34,3.12-11.03-.71-12.74-.71-12.74Z"/><path d="m342.68,533.63s13.2,6.82,10.22,14.91c-2.98,8.09-7.57,1.75-9.32-4.88-1.75-6.62-.9-10.03-.9-10.03Z"/><polygon points="538.85 425.1 517.13 426.38 540.13 438.31 546.79 466.11 552.91 438.73 574.63 427.23 555.46 425.1 545.88 398.16 538.85 425.1"/><path d="m556.41,500.66c2.72,1.94-3.2,6.09-5.77,2.56-2.56-3.53-9.82-6.73-12.92-2.56-3.1,4.17,1.32,7.11,5.84,7.08,4.52-.03-1.89,1.57-4.78,2.53-2.88.96-8.97,4.91-4.49,9.34,4.49,4.44,10.25,2.29,13.94,0,3.69-2.29,8.5-4.22,13.62-2.29,5.13,1.92,18.61,9.76,26.77,4.88,8.16-4.88,1.43-10.97-.49-11.61-1.92-.64-5.45.32-7.37,0-1.92-.32-5.13-2.24-2.24-4.17,2.88-1.92,6.73-1.28,6.09-4.81-.64-3.53-6.09-5.13-8.01-3.85,0,0-2.56-10.9-12.82-8.65-10.25,2.24-9.61,9.93-7.37,11.54Z"/><path d="m564.74,521.81c-2.24-1.79-8.99-2.56-9.94,0-.95,2.56,2.36,3.29,4.23,1.97,1.87-1.33,2.42-.92,4.23,0,1.81.92,3.09-.69,1.48-1.97Z"/><path d="m560.05,525.96c-1.07-.91-3,1.94-1.72,2.26,1.28.32,4.72.29,1.72-2.26Z"/><path d="m560.05,533.86c-1.16-.78-2.04,1.09-1.08,1.73s2.8-.57,1.08-1.73Z"/><path d="m436.18,596.26c-5.8-4.49-12.06-5.95-22.04,2.24-3.14,2.58-8.89,7.58-1.24,13.46,7.66,5.88,22.74-2.24,24.67-4.56,1.93-2.32,4.41-6.65-1.39-11.14Zm-4.49,10.13c-4.33,2.24-8.17,4.72-13.44,0-5.27-4.72,1.23-7.89,4.94-8.74s7.5-.54,9.98,2.09c1.94,2.06,2.86,4.41-1.47,6.65Z"/><path class="cls-1" d="m423.19,597.65c-3.71.85-10.21,4.02-4.94,8.74,5.27,4.72,9.11,2.24,13.44,0,4.33-2.24,3.41-4.59,1.47-6.65-2.47-2.63-6.26-2.94-9.98-2.09Z"/><path d="m423.79,598.43c-2.77.63-7.61,3-3.68,6.51,3.93,3.52,6.79,1.67,10.02,0s2.54-3.42,1.1-4.96c-1.84-1.96-4.67-2.19-7.44-1.56Z"/><path class="cls-1" d="m427.39,600.48c2.07,1.19,1.49,1.48,0,2.57-1.49,1.1-3.35.32-4.27-.88-.93-1.2,2.59-2.66,4.27-1.7Z"/><path d="m657.57,493.32c-9.27-7.17-19.28-9.52-35.22,3.58-5.01,4.12-14.21,12.11-1.98,21.5,12.23,9.39,36.33-3.58,39.42-7.29s7.04-10.63-2.22-17.8Zm-7.17,16.19c-6.92,3.58-13.06,7.54-21.48,0-8.42-7.54,1.96-12.61,7.89-13.96,5.93-1.36,11.99-.87,15.94,3.34,3.1,3.3,4.57,7.04-2.35,10.63Z"/><path class="cls-1" d="m636.81,495.54c-5.93,1.36-16.31,6.43-7.89,13.96,8.42,7.54,14.56,3.58,21.48,0,6.92-3.58,5.45-7.33,2.35-10.63-3.95-4.2-10.01-4.7-15.94-3.34Z"/><path d="m637.76,496.79c-4.42,1.01-12.16,4.79-5.88,10.41,6.28,5.62,10.86,2.67,16.02,0,5.16-2.67,4.06-5.47,1.75-7.92-2.95-3.13-7.46-3.5-11.88-2.49Z"/><path class="cls-1" d="m643.51,500.06c3.31,1.9,2.38,2.36,0,4.11-2.38,1.75-5.35.52-6.83-1.4-1.48-1.92,4.14-4.25,6.83-2.71Z"/><path d="m764.88,343.41c14.06,10.04-16.54,31.43-29.78,13.24-13.24-18.2-50.71-34.74-66.71-13.24-16.01,21.51,6.83,36.71,30.16,36.56,23.32-.16-9.77,8.11-24.66,13.08-14.89,4.96-46.32,25.34-23.16,48.24,23.16,22.9,52.9,11.84,71.95,0,19.05-11.84,43.86-21.77,70.34-11.84,26.47,9.93,96.09,50.37,138.22,25.19,42.12-25.19,7.38-56.62-2.55-59.93-9.93-3.31-28.13,1.65-38.05,0-9.93-1.65-26.47-11.58-11.58-21.51,14.89-9.93,34.74-6.62,31.43-24.82-3.31-18.2-31.43-26.47-41.36-19.85,0,0-13.24-56.25-66.18-44.67-52.94,11.58-49.63,51.29-38.05,59.56Z"/><path class="cls-1" d="m826.72,365.46s-21.43-1.63-20.41,1.22c1.02,2.86,6.74,3.67,11.23,3.88,4.49.2,7.72,2.79-1.04,3.84-8.76,1.05-35.7-.78-46.31-1.4-10.61-.61-49.19,1.02-51.64,13.67-2.45,12.65,23.68,18.16,48.58,16.74s98.38-8.78,100.21-3.06c1.84,5.71-44.7,10.82-73.48,8.78-28.78-2.04-60.41.82-77.35-5.1-16.94-5.92-27.41-10.42-14.83-16.74,0,0-4.87,4.8,2.68,5s7.55-7.35,5.1-8.57c-2.45-1.22-20.41-2.04-20.82,7.76-.41,9.8,28.78,17.35,43.68,20,14.9,2.65,73.88,5.51,97.97,4.29,24.08-1.22,66.94-8.16,62.45-21.23-4.49-13.06-47.35-9.59-58.58-6.94-11.23,2.65-55.11,8.98-72.46,5.92-17.35-3.06-25.51-6.12-17.55-11.02,7.96-4.9,49.39-2.25,58.98-1.63s28.78,0,32.04-5.31c3.27-5.31-.61-7.96-8.47-10.1Z"/><path class="cls-1" d="m926.69,338.65s-29.57,23.82-52.26,5.36c-22.69-18.46-36.59-44.09-66.69-40.6-30.1,3.49-36.3,28.06-28.68,36.52,7.62,8.46,26.8,18.69,40.62,6.22,0,0,4.08-3.22-4.84-8.44,0,0-16.15,11.39-23.45,1.62-7.3-9.77-4.55-22.74,7.78-25.09,12.34-2.35,33,1.1,44.44,18.51,11.45,17.41,60.2,45.54,83.08,5.91Z"/><path class="cls-2" d="m145.64,522.49c-26.82,6.1-40.26,24.6-39.14,53.68,1.12,29.08-7.83,39.14-32.43,38.02-24.6-1.12-61.51,5.59-61.51,31.31s36.9,24.6,50.32,12.3c13.42-12.3,49.81-21.25,53.98-6.71,4.17,14.54,16.13,53.81,73.89,34.18,57.77-19.64,16.39-42,20.86-53.19,4.47-11.18,21.25-16.77,29.08-7.83,7.83,8.95,46.97,22.37,41.38-10.06-5.59-32.43-30.19-41.38-45.85-39.14-15.66,2.24-21.25,22.37-3.35,23.48,17.89,1.12,16.77-8.95,16.77-8.95,0,0,16.77,26.84-3.35,23.48-20.13-3.35-33.55-5.59-31.31-38.02,2.24-32.43-20.13-63.74-69.33-52.56Z"/><path d="m144.31,528.53c-24.4,5.54-36.62,22.38-35.6,48.82,1.02,26.45-7.12,35.6-29.5,34.58-22.38-1.02-55.94,5.09-55.94,28.48s33.56,22.38,45.77,11.19c12.21-11.19,45.3-19.33,49.1-6.1,3.79,13.22,14.67,48.95,67.21,31.08,52.54-17.86,14.91-38.2,18.97-48.37,4.07-10.17,19.33-15.26,26.45-7.12,7.12,8.14,42.72,20.34,37.63-9.15-5.09-29.5-27.46-37.63-41.7-35.6-14.24,2.03-19.33,20.34-3.05,21.36,16.27,1.02,15.26-8.14,15.26-8.14,0,0,15.26,24.41-3.05,21.36-18.31-3.05-30.51-5.09-28.48-34.58,2.03-29.5-18.31-57.98-63.06-47.8Z"/><path class="cls-2" d="m133.55,433.72c3.64,9.94,20.23,16.15,12.4,33.38-7.83,17.22-10.06,19.19-31.31,18.77-21.25-.42-46.97,26.42-32.43,54.37,14.54,27.96,51.73,8.67,66.12-4.61,14.4-13.28,41.23-28.94,52.42-12.16,11.18,16.77,7.83,54.8,51.44,43.61,43.61-11.18,29.08-46.97,43.61-49.21,14.54-2.24,48.09-4.47,44.73-41.38-3.35-36.9-18.62-57.26-44.54-53.23-25.92,4.03-34.86,29.75-48.28,14.09-13.42-15.66-22.37-35.79-57.03-40.26-34.67-4.47-69.53,2.8-57.13,36.63Z"/><path d="m928.72,440.88c-4.99,14.54-10.07,36.58-29.08,24.28-19.01-12.3-83.87-17.89-97.29,15.66-13.42,33.55-1.12,71.57,40.26,62.63,41.38-8.95,51.44-19.01,65.98-2.24,14.54,16.77,53.63,31.76,56.45,10.85,2.82-20.91,2.79-38.5,11.19-37.53,8.4.97,18.47,9.91,35.24,18.86,16.77,8.95,54.8,16.77,64.86-19.01,10.06-35.79-2.24-46.97-16.77-55.92-14.54-8.95-22.37-5.59-35.79-7.83-13.42-2.24-2.24-12.3-14.54-22.37-12.3-10.06-63.73-36.26-80.51,12.62Z"/><path d="m138.13,511.16s12.04-3.95,4.34-10.36c-7.7-6.41-17.76,4.77-17.76,13.72s25.72,11.18,36.9,5.59c0,0-14.54,13.42-30.19,10.06-15.66-3.35-30.19-17.81-16.77-31.27,13.42-13.46,32.87-7.78,35.44,0,2.58,7.78-3.01,15.61-11.96,12.26Z"/><path d="m171.67,478.73s-9.88-5.88-7.74,3.77c2.14,9.65,18.48,4.94,18.7-2.77s-.21-10.85-9.5-13.2c-9.29-2.34-31.85-4.24-32.31,10.69-.46,14.93,10.72,20.52,18.55,18.28,7.83-2.24,20.89-5.76,23.3.47,2.42,6.23-5.41,16.3-15.48,20.77,0,0,18.9-3.51,20.63-10.14,1.73-6.63-2.07-20.52-19.74-15.81-17.67,4.71-19.9-8.71-17.67-15.42,2.24-6.71,13.42-8.95,21.25,3.35Z"/><path d="m185.98,446.67s-11.93,2.88-10.04-4.7c1.89-7.58,10.42-6.63,15.16-5.68,4.74.95,15.16,13.26,2.84,19.9-12.32,6.63-29.45,6.73-33.67-12.74-4.22-19.47,32-15.05,39.47-7.79,7.47,7.26,10.31,16.74,3.68,30-6.63,13.26,7.58,42.63,36,40.74,28.42-1.89,35.05-7.58,41.69-16.11,6.63-8.53,19.5-21.88,33.43-22.31s18.67-10.85,11.1-21.27c-7.58-10.42-19.9-22.74-36-12.32-16.11,10.42-26.53,25.58-42.63,13.26-16.11-12.32-30.32-36.95-56.84-30.32-26.53,6.63-42.63,16.11-36.95,30.32,5.68,14.21,37.13,17.93,32.78-.98Z"/><path class="cls-1" d="m1038.26,479.86s16.29,10.44-3.98,19.68c-20.27,9.24-20.27-26.21-11.88-32.74s19.7-13.06,36.91,0c17.2,13.06,12.54,55.05-9.85,60.64-22.39,5.6-58.78-7.46-61.58-26.12-2.8-18.66,7.66-46.73,26.69-46.22,19.03.51-8.71,6.8-10.24,17.65-1.53,10.85.34,26.71,16.2,32.31,15.86,5.6,28.92,3.73,28.92-6.53s-2.8-23.32-11.2-18.66Z"/><path class="cls-1" d="m945.01,458.3s5.59-8.38,9.32-7.45c3.73.93,6.52,9.32,1.86,13.04-4.66,3.73-13.07,10.07-20.04,5.5-6.97-4.57-10.11-21.02,4.97-35.62s34.64-8.08,41.16-1.56c6.52,6.52,6.52,16.77-3.73,28.88-10.25,12.11-15.84,23.29-12.11,32.61s9.64,9.25,1.56,22.33c-8.08,13.08-2.49,28.91-21.12,29.85-18.63.93-26.09-13.97-26.09-13.97,0,0,22.36,13.04,29.81,6.52s-.15-9.65,3.18-16c3.34-6.36,8.93-4.49,6.13-16.6-2.79-12.11-7.38-25.39,1.43-34.12,8.81-8.73,16.27-19.91,8.81-27.36-7.45-7.45-26.09,0-25.15,13.97Z"/><path class="cls-1" d="m908.68,494.91c-3.11,7.55-17.65,8.35-18.49-4.55-.84-12.9,21.05-14.65,29.8-11.15,8.76,3.5,21.01,25.39,4.38,39.4-16.64,14.01-21.01,2.63-28.89,2.63s-15.76,8.76-18.39.88c-2.63-7.88,8.76-18.39,14.88-14.88,6.13,3.5,17.51,10.51,19.26-.88,1.75-11.38-.73-15.88-2.55-11.44Z"/><path class="cls-1" d="m877.27,467.4c-5.76-5.76-13.42,1.12-14.54,10.06-1.12,8.95-12.3,13.42-10.06,17.89,2.24,4.47,12.01,5.43,12.15-3.44s.15-13.34,6.86-12.22,11.18-6.71,5.59-12.3Z"/><path class="cls-1" d="m876.15,495.36c-2.15-2.58-7.7.21-7.2,5.69.49,5.49,12.8,1.02,7.2-5.69Z"/><path class="cls-1" d="m165.77,625.37c-11.48,7.3-21.25-2.24-27.96-6.71-6.71-4.47-21.25-1.12-22.37,8.95-1.12,10.06-2.24,10.06,10.06,24.6,12.3,14.54,21.25,27.96,48.09,20.13,26.84-7.83,31.97-19.3,26.61-35.93-5.36-16.63-22.14-18.87-34.44-11.04Z"/><path d="m173.6,630.97c-8.32,5.55-15.11,10.06-26.01,3.91-10.9-6.15-19.84-3.91-19.84,5.03s12.3,17.89,26.84,17.89,29.72-11.22,28.28-16.79c-1.44-5.57-5.91-12.28-9.27-10.05Z"/><path class="cls-1" d="m165.77,642.15c-12.3,0-21.57-2.99-18.61,3.54,2.96,6.53,25.32-3.54,18.61-3.54Z"/><path class="cls-1" d="m174.89,571.13s-10.76-1.13-10.25.85c.51,1.98,3.38,2.55,5.64,2.69s3.88,1.94-.52,2.67-17.92-.54-23.25-.97c-5.33-.42-24.7.71-25.93,9.49-1.23,8.78,11.89,12.6,24.39,11.61,12.5-.99,49.39-6.09,50.31-2.12.92,3.97-22.44,7.51-36.89,6.09-14.45-1.42-30.33.57-38.84-3.54-8.51-4.11-13.76-7.23-7.44-11.61,0,0-2.45,3.33,1.35,3.47,3.79.14,3.79-5.1,2.56-5.95s-10.25-1.42-10.45,5.38c-.2,6.8,14.45,12.04,21.93,13.88,7.48,1.84,37.09,3.82,49.19,2.97,12.09-.85,33.61-5.66,31.36-14.73-2.25-9.06-23.77-6.66-29.41-4.82-5.64,1.84-27.67,6.23-36.38,4.11-8.71-2.12-12.81-4.25-8.81-7.65,4-3.4,24.8-1.56,29.61-1.13,4.82.42,14.45,0,16.09-3.68s-.31-5.52-4.25-7.01Z"/><path class="cls-1" d="m816.94,477.14c-1.81,6.89-8.45,12.87,0,16.22,8.45,3.35,20.47-15.11,15.13-19.11s-14.01-1.33-15.13,2.89Z"/><path d="m818.83,478.9c-1.25,4.76-5.84,8.89,0,11.2,5.84,2.32,14.13-10.44,10.45-13.2-3.69-2.77-9.68-.92-10.45,2Z"/><path class="cls-1" d="m820.97,481.55c-.62,2.35-2.89,4.4,0,5.55s7-5.17,5.17-6.53c-1.82-1.37-4.79-.46-5.17.99Z"/><path class="cls-1" d="m808.35,500.57c-3.8,4.5-4.84,22.97,2.42,24.18,7.26,1.21,12.73-2.71,12.29-15.14-.44-12.43-9.39-15.33-14.71-9.04Z"/><path d="m810.31,503.96c-2.59,3.06-3.29,15.62,1.64,16.44,4.93.82,8.65-1.84,8.35-10.29-.3-8.45-6.38-10.42-10-6.15Z"/><path class="cls-1" d="m812.28,507.29c-1.39,1.64-1.77,8.39.88,8.83,2.65.44,4.65-.99,4.49-5.53s-3.43-5.6-5.37-3.3Z"/><polygon points="165.84 337.13 167.58 321.47 172.1 335.39 185.68 332.95 173.34 340.44 170.01 357.66 167.23 342 152.6 339.57 165.84 337.13"/><polygon points="193.03 383.53 195.53 374.18 196.99 383.06 205.46 382.83 197.28 386.24 193.67 396.39 193.42 386.62 184.76 383.79 193.03 383.53"/><polygon points="146.33 382.14 145.89 372.47 149.97 380.48 157.97 377.71 151.2 383.43 150.82 394.2 147.64 384.96 138.53 384.88 146.33 382.14"/><polygon points="777.25 558.91 778.99 543.24 783.52 557.17 797.09 554.73 784.75 562.22 781.43 579.44 778.64 563.78 764.01 561.34 777.25 558.91"/><polygon points="804.44 605.31 806.94 595.96 808.41 604.83 816.88 604.6 808.69 608.01 805.08 618.16 804.84 608.4 796.18 605.57 804.44 605.31"/><polygon points="757.74 603.91 757.31 594.24 761.38 602.26 769.38 599.49 762.61 605.21 762.24 615.97 759.05 606.74 749.94 606.65 757.74 603.91"/></svg>