<?xml version="1.0" encoding="UTF-8"?><svg id="B_N" xmlns="http://www.w3.org/2000/svg" viewBox="0 0 1080 1137"><path d="m393.48,721.72s-20.59-10.84-19.89,11.54c.7,22.39,19.67,43.66,79.8,88.29,60.12,44.63,208.4,117.8,270.68,99.06,62.29-18.74,115.53-158.66,117.59-198.89,2.06-40.23-3.52-60.14-58.8-58.58-55.28,1.56-235.77,2.96-312.73,30.94-76.96,27.98,18.19,94.45,49.67,111.24,31.48,16.79,137.12,60.17,181.2,24.49,44.07-35.68,46.87-86.05,39.88-93.05-7-7-110.87-29.18-133.09-25.78-22.22,3.4-51.44.9-50.12,31.53,1.32,30.63,42.59,34.83,55.19,32.03,12.59-2.8,30.08-13.99,25.89-21.69-4.2-7.7-20.29-4.2-20.29-4.2,0,0,22.04-13.21,39.35.04,17.31,13.25,16.61,58.03-34.46,52.43-51.07-5.6-97.94-34.28-94.45-73.46,3.5-39.18,149.71-39.88,195.19-26.58,45.47,13.29,62.96,28.68,45.47,85.35-17.49,56.67-58.07,107.74-140.62,77.66-82.55-30.08-240.76-102.84-235.46-142.37Z"/><path d="m366,597.27s-20.59,10.84-19.89-11.54c.7-22.39,19.67-43.66,79.8-88.29,60.12-44.63,208.4-117.8,270.68-99.06,62.29,18.74,115.53,158.66,117.59,198.89,2.06,40.23-3.52,60.14-58.8,58.58-55.28-1.56-235.77-2.96-312.73-30.94-76.96-27.98,18.19-94.45,49.67-111.24,31.48-16.79,137.12-60.17,181.2-24.49,44.07,35.68,46.87,86.05,39.88,93.05-7,7-110.87,29.18-133.09,25.78s-51.44-.9-50.12-31.53c1.32-30.63,42.59-34.83,55.19-32.03,12.59,2.8,30.08,13.99,25.89,21.69-4.2,7.7-20.29,4.2-20.29,4.2,0,0,22.04,13.21,39.35-.04,17.31-13.25,16.61-58.03-34.46-52.43-51.07,5.6-97.94,34.28-94.45,73.46,3.5,39.18,149.71,39.88,195.19,26.58,45.47-13.29,62.96-28.68,45.47-85.35-17.49-56.67-58.07-107.74-140.62-77.66-82.55,30.08-240.76,102.84-235.46,142.37Z"/><path d="m692.14,280.68s6.51,24.58-20.6,42.51c-27.11,17.93-50.7-3.84-56.11-16.79-5.4-12.95-1.18-40.55,23.16-51.67,24.34-11.12,43.74,15.13,40.5,31.08s-14.96,32.73-32.79,24.09c-17.83-8.64-7.4-28.3,1.81-28.77,9.22-.48,14.86,2.71,10.63,11.44,0,0,10.2-9.22,1.86-17.86-8.34-8.64-32.8,1.97-32.95,18.97-.15,17,15.18,28.92,27.99,26.59,12.81-2.33,25.8-4.12,36.48-39.6Z"/><path d="m460.75,356.72s-12.2-23.94-46.18-18.95c-33.98,4.99-37.21,38.75-32.34,52.76s27.65,32.76,54.65,24.36c27-8.4,23.77-42.74,9.98-53.02s-34.85-15.22-42.79,4.14c-7.95,19.36,14.11,27.49,21.7,21.37,7.59-6.12,9.79-12.61.31-16.5,0,0,14.53.07,14.05,12.75-.48,12.68-27.21,21.57-39.31,8.29-12.1-13.28-8.43-33.47,3.3-40.67,11.73-7.19,23.22-14.95,56.63,5.46Z"/><path d="m83.5,634.28s-9.98-19.58-37.78-15.5c-27.8,4.08-30.44,31.71-26.46,43.16,3.99,11.46,22.62,26.8,44.71,19.93,22.09-6.87,19.45-34.97,8.16-43.37-11.28-8.41-28.51-12.45-35.01,3.39-6.5,15.84,11.55,22.49,17.76,17.49,6.21-5.01,8.01-10.31.25-13.5,0,0,11.89.05,11.5,10.43-.39,10.37-22.26,17.64-32.16,6.78-9.9-10.86-6.9-27.38,2.7-33.27,9.59-5.89,18.99-12.23,46.33,4.47Z"/><path d="m373.57,758.28c7.51-6.38-19.35-16.61-26.28,0-6.93,16.61,14.05,217.4,46.94,240.48,32.88,23.09,179.1,43.38,298.03,37.08,118.93-6.3,217.25-8.34,217.41-68.53.16-60.19-40.41-283.37-4.73-329.54,0,0-47.22,36.73-43.73,133.27,3.5,96.55,46.17,160.21-51.77,184-97.94,23.79-353.3,92.35-393.88-2.1-40.58-94.45-66.5-173.84-41.99-194.66Z"/><path d="m862.76,396.01c0-6.3-18.19-14.93,0-19.36,18.19-4.43,12.02,28.05-4.84,32.8-16.85,4.75-33.64-5.74-26.65-29.53,7-23.79,31.48-45.47,53.17-30.78,21.69,14.69,22.38,66.73-10.85,77.79-33.23,11.06-57.02-5.03-61.21-23.22-4.2-18.19,4.2-52.47,28.68-76.26,24.49-23.79,13.29-64.36-8.4-62.96-21.69,1.4-58.77,14.69-16.79,72.06,41.98,57.37,63.66,52.47,73.46,86.75,9.79,34.28,13.99,62.96-8.4,80.45-22.39,17.49-56.67,4.9-44.77-20.29,11.89-25.19,27.63-17.49,24.31-13.29-3.32,4.2-14.09-2.35-12.2,6.52,1.89,8.87,8.88,14.47,20.08,10.27,11.19-4.2,14.69-29.38-4.9-38.48-19.59-9.09-39.18,14.69-39.18,42.68s26.96,44.72,52.31,40.2c25.35-4.52,59.46-53.22,29.81-104.43-29.65-51.21-71.63-71.5-82.82-98.08-11.19-26.58-4.2-40.58,6.3-37.78,10.49,2.8,17.49,9.79,5.6,23.79-11.89,13.99-59.23,45.85-38.71,86.94,20.52,41.09,75.09,62.77,107.27,7.51,32.18-55.27-19.44-93.3-49.25-67.64s-34.7,43.15-26.31,66.24c8.4,23.09,53.87,19.59,60.17-18.89,6.3-38.48-27.28-38.48-39.88-23.09-12.59,15.39-7,32.18-1.4,35.68,5.6,3.5,15.39,3.5,15.39-5.6Z"/><path d="m314.45,694.97s-44.07-18.32-44.07-44.07,18.32-73.26,9.16-80.13c-9.16-6.87-70.43-27.07-83.29-24.7-12.86,2.37-24.31,24.12-39.19,51.6-14.88,27.47-20.03,33.2-7.44,45.79,12.59,12.59,34.88,43.07,46.63,38.13,11.75-4.93,40.65-6.37,43.51-18.38,2.86-12.02,17.74-54.37,5.15-61.81-12.59-7.44-19.46-8.59-24.61-8.59s-28.07,13.31-24.05,16.67c4.02,3.36,9.17,22.82,13.18,20.53,4.01-2.29,15.21-13.44,19.05-9.58,3.84,3.86,13.33,6.69,0,15.58-13.33,8.89-14.5,20.76-32.23,1.66-17.73-19.1-22.31-16.24-10.86-39.7,11.45-23.47,12.59-26.9,22.89-26.33,10.3.57,53.23,3.43,53.23,10.3s0,94.44-13.16,99.02c-13.16,4.58-65.23,18.89-74.68,14.02-9.45-4.86-53.53-49.51-55.81-57.52-2.29-8.01,58.97-101.09,55.81-111.5s-12.32-51.62-12.32-51.62c0,0,15.45,40.06,26.33,44.07,10.87,4.01,119.62,27.47,121.91,40.64,2.29,13.16-29.76,80.13-23.47,91,6.3,10.87,19.46,35.49,40.64,50.37"/><path d="m996.93,426.4s-5.6,6.85,0,10.42c5.6,3.57,16.09-4.82,10.49-14.62-5.6-9.79-11.89-9.09-18.89-3.5-7,5.6-18.89,24.45,0,34.96,18.89,10.51,31.48-14.67,34.98-25.87s12.59-67.16,10.49-84.65c0,0,9.09,13.29,27.28,11.89,0,0-9.79,16.79-23.09,1.4,0,0,5.6,68.56-9.09,88.15-14.69,19.59-40.64,26.27-50.75,14.18s-12.91-43.57,10.87-51.26c23.79-7.7,27.14,12.05,26.86,17.57-.28,5.52-6.57,23.71-21.97,18.11-15.39-5.6,2.8-27.28,2.8-16.79Z"/><circle cx="990.29" cy="594.66" r="13.64"/><circle cx="1044.86" cy="591.86" r="16.44"/><path d="m994.37,607.4s28.44-42.48,24.25-68.36c0,0,34.98-.7,37.08-18.19,0,0,9.79,64.36,4.2,75.56-5.6,11.19-7.7-48.27-8.4-49.67,0,0-10.49,10.96-21.69,7.58,0,0-13.51,37.49-35.44,53.08Z"/><path d="m407.02,266.69s7.19-6.32,1.88-22.69c0,0,7.25,15.65,12,14.63,0,0,12.45-.2,17.11-3.39,0,0-18.46,15.61-17.27,18.84,1.19,3.23,3.99,22.72,2.7,23.19-1.29.48-6.89-18.65-12.48-19.91,0,0-14.36-3.16-19.11-2.14l15.17-8.54Z"/><path d="m237.32,780.55s7.19-6.32,1.88-22.69c0,0,7.25,15.65,12,14.63,0,0,12.45-.2,17.11-3.39,0,0-18.46,15.61-17.27,18.84,1.19,3.23,3.99,22.72,2.7,23.19-1.29.48-6.89-18.65-12.48-19.91,0,0-14.36-3.16-19.11-2.14l15.17-8.54Z"/><polygon points="278.88 423.68 336.53 365.41 265.57 419.4 277.02 490.53 257.64 476.82 257.64 476.82 254.11 474.33 244.22 484.63 257.22 477.07 284.85 501.36 278.88 423.68"/></svg>