<?xml version="1.0" encoding="UTF-8"?><svg id="B_N" xmlns="http://www.w3.org/2000/svg" viewBox="0 0 1080 1137"><defs><style>.cls-1{fill:#fff;}</style></defs><path d="m876.21,852.18s-26.53,8.84-80.33,11.79c-53.8,2.95-85.49-14.74-106.86-4.42-21.37,10.32-42.74,16.21-78.12,10.32-35.37-5.9-34.64,3.68-66.69-13.82-32.05-17.5-37.22-72.41-71.12-135.78-33.9-63.38-170.97-141.49-215.19-171.71-44.22-30.21-121.6-96.54-129.7-126.75-8.11-30.21,31.69-86.96,70.75-134.86,39.06-47.9,109.8-87.7,140.76-89.17,30.95-1.47,56.74,22.85,59.69,46.43,2.95,23.58-21.37,25.06-30.95,22.85-9.58-2.21,2.95-13.26,5.9-30.95,2.95-17.69-40.53-6.63-40.53-6.63,0,0-23.58,41.27-14,53.06,9.58,11.79,92.12,16.21,93.59,9.58,1.47-6.63,26.53-78.85-11.05-104.65-37.58-25.79-112.02-49.38-194.55-14.74-82.54,34.64-157.71,199.71-142.97,262.35,14.74,62.64,113.8,125.41,178.13,143.03,64.33,17.62,204.35,122.27,200.66,168.69-3.68,46.43-54.53,126.02-106.86,106.12-52.32-19.9-72.22-41.27-114.23-28-42.01,13.26-72.7,74.21-172.92,47.68,0,0,49.64,37.59,155.17,3.75"/><path d="m481.21,152.09s-8.84,16.95-23.58,21.37c-14.74,4.42-32.43-32.43-7.37-45.69,25.06-13.26,56.42,3.31,61.37,23.03,4.95,19.71-.94,57.56-44.79,60.75-43.85,3.19-57.11-47.66-49.74-74.19,7.37-26.53,83.27-114.23,189.39-111.28,106.12,2.95,197.85,91.19,215,185.61,17.14,94.42-63.02,174.25-81.61,194.65-29.4,32.27-135.13,112.81-139.28,123.81,0,0,120.12-138.55,133.39-194.55,13.26-56.01,14.72-128.36-24.33-180.25-39.05-51.89-133.38-89.47-216.65-61.47-83.27,28-71.48,78.85-44.22,87.7,27.27,8.84,32.43-29.48,32.43-29.48Z"/><path d="m823.98,297.13s-13.36,104.04-84.11,162.26c-70.75,58.22-167.29,152.55-168.02,193.82-.74,41.27,10.32,102.43,68.54,117.17,58.22,14.74,95.07-42.74,81.06-78.85,0,0-5.16,17.69-19.16,10.32-14-7.37-13.26-33.16,13.26-38.32,26.53-5.16,39.79,33.16,14.74,78.12-25.06,44.95-96.54,67.8-147.39,39.79-50.85-28-84.01-139.28,9.58-220.35,93.59-81.06,131.18-116.44,162.13-148.86,30.95-32.43,71.67-95.33,69.37-115.1Z"/><path d="m401.81,313.98c-51.01,24.64-160.1,166.79-35.56,281.75,124.54,114.96,215.19-72.22,205.61-151.07-9.58-78.85-91.74-168.5-170.05-130.68Z"/><path class="cls-1" d="m429.09,357.21c-31.03,0-62.62,42-70.53,102.38-7.91,60.38,52.19,129.92,107.45,119.44,83.06-15.75,129.86-221.82-36.91-221.82Z"/><path d="m459.54,396.45c-16.64-3.28-47.93,1.75-59.62,26.3-11.69,24.55-16.98,109.29,42.65,118.94,59.64,9.65,102.89-128.29,16.97-145.24Z"/><path class="cls-1" d="m454.97,434.68c-18.27-4.22-34.58,5.28-36.5,23.05s-5.23,44.28,30.76,44.71,36.95-60.56,5.74-67.76Z"/><path d="m79.95,880.9c49.94-3.8,89.59,6.83,124.84-4.55,35.25-11.39,63.15,11.39,96.2,28.85,33.05,17.46,89.59,5.31,105.01,25.81,15.42,20.5,13.63,62.94-51.93,58.8-65.56-4.14-128.72-1.1-141.93,33.06-13.22,34.16,2.94,129.81,135.85,67.56,132.92-62.25,162.29-65.29,225.44-47.07,63.15,18.22,113.82-21.26,79.31-59.97-34.51-38.72-27.17-39.48-80.04-35.68-52.87,3.8-87.39-53.14-33.78-51.62,53.61,1.52,96.93,71.36,152.01,58.45,55.08-12.91-38.65,72.95,63.29,76.33,101.94,3.38,221.39,18,222.25-54.22.86-72.21-61.45-68.64-89.41-59.42-27.96,9.22-61.87-41.85-2.69-36.43,9.59.88,18.55,1.92,26.86,3.21,0,0-28.1,7.8-35.16-30.45-5.45-29.54-87.55,5.55-121.84,14.25-45.66,11.58-70.09-35.18-118.83-37.23-48.74-2.05-81.78-.53-145.3,7.44-63.52,7.97-199.71,7.49-199.71,7.49-40.42-7.49-117.42,43.28-210.68,35.69"/><path class="cls-1" d="m516.02,884.01l4.87,14.76s-15.66,7.27-4.21,25.19l-20.13,3.27-19.44-35.88,38.91-7.35Z"/><path class="cls-1" d="m345.02,872.01s-14.57,5.13-14.94,11.24c0,0,34.39,14.72,58.55,12.25,0,0-18.66-11.27-12.55-25.6l-31.06,2.11Z"/><path class="cls-1" d="m433.15,896.48s-20.16-21.32-10.14-35.49l48.3-8.63s-5.85,18.63,5.81,39.36c0,0-21.98,6.68-43.96,4.75Z"/><path class="cls-1" d="m516.02,884.01s40.87-7.02,44.53-9.99c0,0-30.25-11.08-30.23-35.36l-29.34,8.29s11.85,26.42,15.05,37.06Z"/><path class="cls-1" d="m531.41,833.18s54.78-9.92,106.04-5.48c51.26,4.44,34.58,21.01,26.58,21.47s-38.83-1.42-42,4.54c0,0-16.28-13.22-90.62-20.53Z"/><path class="cls-1" d="m560.55,873l58.21-20.75s16.81,5.82,23.22,9.82c6.41,4,10.98,8.7,13.61,8.63,0,0-40.87,9.77-48.63,13.99,0,0-12.9-8.05-23.72-7.63-10.82.42-22.68-4.07-22.68-4.07Z"/><path class="cls-1" d="m464.32,928.34s-4.43-8.49-13.49-13.46c-9.06-4.96-17.68-18.43-17.68-18.43,0,0-22.21,1.97-44.51-.96,0,0,15.98,11.3,23.63,13.77,7.64,2.48,18.87,16.03,18.87,16.03,0,0,18.56,5.01,33.18,3.04Z"/><path class="cls-1" d="m464.32,928.34s14.49,21.35,10.73,44.86c0,0,28.6.6,33.74-3.48,0,0-1.18-27.9-12.23-42.48,0,0-21.71,2.16-32.24,1.1Z"/><path class="cls-1" d="m440.68,970.22s-20.24-4.29-27.06-10.37c0,0,8.12-29.12-32.15-43.64,0,0,37.95,8.03,49.67,9.09,0,0,16.1,17.51,9.54,44.91Z"/><path class="cls-1" d="m440.68,970.22s15.18,4.15,34.37,2.99c0,0,1.53,26.32-30.63,48.21,0,0-48.46,13.18-87.32-11.24,0,0,83.03,2.53,83.58-39.95Z"/><path class="cls-1" d="m487.01,1013.11s14.85-3.72,33.45-9.15c18.61-5.43,31.35-10.94,31.35-10.94,0,0-13.84-18.16-17.12-29.2l-25.91,5.9s-1.68,23.25-21.78,43.39Z"/><path class="cls-1" d="m357.1,1010.17s-25.01-11.72-27.01-22.64c0,0-90.61-7.82-114.64,27.63,0,0,37.51-14.88,57.85-13.24,20.34,1.64,59.8,13.03,83.8,8.25Z"/><path class="cls-1" d="m336.89,1062.69s49.32-25.7,66.71-27.57c17.4-1.87,41.27-13.68,40.81-13.71s42.59-8.3,42.59-8.3c0,0-22.34,18.48-47.45,24.79-25.11,6.31-43.86,24.79-43.86,24.79,0,0-34.69,12.08-58.8,0Z"/><path class="cls-1" d="m526.45,934.12s2.77,20.57,8.24,29.7c0,0,50.33-8.52,60.69-17.51,0,0-25.03,2.55-41.49.21-16.47-2.34-27.44-12.4-27.44-12.4Z"/><path class="cls-1" d="m566.11,902.3s34.39-16.35,40.84-17.61c6.45-1.26,19.16,14.36,23.19,24.82,4.03,10.46,21.52,11.37,21.52,11.37l-30.42,14.28s-27.52-17.94-55.13-32.86Z"/><path class="cls-1" d="m651.66,920.88l45.5-28.46s22.77,11.41,49.31,4.4c26.53-7.01,29.54-.38,29.54-.38,0,0-16.08,27.99-41.24,46.77,0,0-8.28-16.47-34.49-15.97-26.21.49-43.7-3.16-48.62-6.36Z"/><path class="cls-1" d="m655.59,870.7s26.96,19.76,41.58,21.73c0,0,25.9-21.25,45.95-22.89,0,0-14.85.19-28.01-5.29,0,0-44.67-.79-59.52,6.45Z"/></svg>