<?xml version="1.0" encoding="UTF-8"?><svg id="B_N" xmlns="http://www.w3.org/2000/svg" viewBox="0 0 1080 1137"><path d="m730,126.03l107.51,18.03s-11.79,25.64-106.85,40.71c-95.07,15.07-382.2,12.18-390.21,12.34-21.54.43-61.86-31.25,21.04-41.81,82.9-10.55,385.68-66.79,401.75-68.99,16.07-2.2,110.14,31.65,135.48,45.3,25.34,13.66-60.64,86.44-83.67,90.75-23.03,4.31-550.02,53.47-573.49,36.23-23.47-17.24,28.57-115.66,20.42-139.35-8.15-23.69-47.52-15.58-49.61,1.4,0,0-22.08,172.09.38,175.94,22.46,3.85,610.94-33.11,638.17-47.43,27.23-14.32,93.15-119.44,93.15-119.44l-156.14-68.07-514.01,78.64s-10.15,89.92,8.83,94.82c18.98,4.91,510.53-20.61,533.73-30.67,23.19-10.06,67.16-54.54,63.31-60.98-3.85-6.44-102.53-47.31-116.72-46.44,0,0-64.79,7.05-59.09,17.12,5.71,10.06,26.03,11.9,26.03,11.9Z"/><path d="m724.47,731.83s-10.68-15.55-31.81-11.41c-21.14,4.13-170.94,21.06-262.06,31.29-91.11,10.22-145.74,22.37-187.35-3.89-41.6-26.26-83.08-58.15-65.1-81.94,17.98-23.79,91.18-54.5,105.39-56.45,14.21-1.95,16.07.23,17.55,19.28,1.48,19.05.02,53.68-21.87,51.49-21.89-2.18-46.73-8.82-42.14-17.39,4.58-8.56,12.86-6.35,19.84-1.58,6.98,4.77,23.38,1.21,17.29-22.9-6.09-24.11-13.96-9.54-37.12,4.45-23.16,13.99-54.03,23.86-30.53,32.78,23.5,8.92,88.52,50.01,96.99,33.77,8.47-16.24,35.25-120.4,9.38-135.73-25.87-15.33-81.58,27.96-112.71,49.04-31.13,21.07-67.84,35.67-63.85,48.92,3.99,13.25,55.95,79.14,131.01,123.83,0,0,247.03-27.99,312.99-37.5,65.96-9.5,144.1-26.08,144.1-26.08Z"/><path d="m836.86,643.24s58.59-3.44,45.7-16.95c-12.89-13.51-69.68-7.11-106.18-2.52-36.5,4.58-46.07,12.65-63.29,27.16-17.22,14.51-18.97,4.67-53.16-6.12-34.19-10.8-49.13-16.33-54.36,6.96-5.23,23.29-5.77,30.97-22.52,11.47-16.74-19.5-32.52-70.57-82.18-71.26-49.67-.68-25.26,67.11-22.3,80.97,2.96,13.87-9.56,28.78-29.18-4.86-19.63-33.64-10.94-66.05-26.99-51.44-16.05,14.61,47.1,129.86,72.97,117.1,25.87-12.77-9.55-64.69-10.5-90.64-.95-25.95,11.33-45.03,37.34-16.76,26,28.26,51.96,105.66,77.61,89.5,25.65-16.16,16.75-22.84,15.16-38.96-1.59-16.12,9.02-29.42,30.39-9.25,21.37,20.17,43.43,32.12,62.77,13.64,19.34-18.48,14.62-39.6,55.76-36.09,41.14,3.51,72.96-1.96,72.96-1.96Z"/><path d="m773.35,585.44s7.46,8.96-21.81,10.21c-29.26,1.24-243.07-26.11-281.07-16.88-38,9.23-63.32,7.23-82.91,30.58-19.59,23.36-37.99,64-41.02,73.78-3.04,9.78-10.94,17.8-11.99,5.49-1.04-12.31,32.3-87.94,39.78-104.43,7.48-16.48,1.27-23.62,51.25-22.95,49.98.67,304.85,11.33,347.76,24.19Z"/><path d="m561.55,764.71s14.21-7.63,27.43-8.25c0,0-12.38,14.63-13.42,27.85-1.04,13.22-.37,26.48-.37,26.48,0,0-19.11,3.53-26.24,0,0,0,4.85-37.85,12.6-46.08Z"/><polygon points="539.27 758.98 541.12 809.7 521.64 807.27 517.11 753.14 539.27 758.98"/><path d="m541.12,809.7l7.83,1.09s-3.83,32.86-.52,38.91l-5.91-.35-1.39-39.65Z"/><path d="m542.51,849.36l-16.16-2.96v42.82s17.55,2.23,20.68,1.53l-4.52-41.39Z"/><path d="m548.42,849.71s.9,29.49,6.01,41.18c0,0,26.56,2.62,30.97,1.42,0,0-12.29-26.59-12.29-41.55l-24.7-1.04Z"/><path d="m547.03,890.75l7.41.13s-2.88,4.74,6.51,19c9.39,14.26,18.44,27.13,18.44,27.13,0,0-22.36,2.78-30.14,0,0,0,1.61-34.78-2.21-46.26Z"/><path d="m579.38,937.01l46.56-6.74s42.83,27.61,51.88,27.61c0,0-9.39,7.65-2.09,15.3l-63.48,11.07-32.87-47.24Z"/><path d="m612.25,984.25s-47.13,7.37-73.92,2.85c0,0-7.91,25.53-25.17,39.03,0,0,55.43,9.67,79.44,5.5,24-4.17,49.28-12.37,49.28-12.37l-29.62-35Z"/><path d="m641.88,1019.26l26.2,36.37s82.79-32.7,86.26-41.74c0,0-38.04-11.13-49.28-20.7,0,0-10.08,16.14-63.18,26.07Z"/><path d="m668.08,1055.63l24.43,31.65s-22.35-9.74-34.17-28.52l9.74-3.13Z"/><path d="m692.51,1087.28s100.09,5.57,111.57-68.87c0,0,44.43-9.04,45,14.26.57,23.3-29.87,84.17-156.57,54.61Z"/><path d="m392.59,1106.76s68.47-63.04,105.19-55.52c36.72,7.52,31.27,31.52,7.56,36.04-23.71,4.52-61.77,27.23-3.78,31.18,57.99,3.95,153.41-14.29,140.31-37.52-13.1-23.23-43.71-27.99-29.62-36.74,14.09-8.75,46.09,14.56,46.09,14.56,0,0-16.35-20.52-34.09-19.83-17.74.7-21.91,8.7-19.13,14.26,2.78,5.57,40.14,22.61-1.15,34.09-41.29,11.48-119.21,20.87-93.47,5.92,25.74-14.96,28.52-48-21.22-45.57-49.74,2.43-96.7,59.13-96.7,59.13Z"/><path d="m549.25,937.01s1.27,24.7-10.91,50.09l-63.31-5.57,56.22-44.89,17.99.37Z"/><polygon points="233.24 424.56 552.43 369.06 893.27 427.61 831.05 538.83 810.52 507.91 846.25 455.91 555.48 391.02 290.05 442.05 309 497.16 553.21 421.26 825.05 466.56 804.19 494.37 561.68 452.49 276.95 538.02 233.24 424.56"/><path d="m486.4,371.5s-4.45-42.78-4.45-48.47,33.69-13.78,33.69-13.78v54.19l-29.24,8.06Z"/><polygon points="515.64 309.25 515.64 276.49 549.49 261.99 549.49 305.94 515.64 309.25"/><path d="m549.49,305.94l37.62-8.95s11.57,29,12.21,43.39l-46.57,11.14s1.63-25.23-3.26-45.58Z"/><polygon points="593.5 79.05 601 41.61 630.49 54.61 630.49 90.91 593.5 79.05"/><polygon points="587.11 296.99 591.81 258.2 625.3 258.2 625.3 296.99 587.11 296.99"/><polygon points="601 41.61 570.65 41.61 570.65 6.07 601 0 601 41.61"/><polygon points="570.65 41.61 563.07 81.48 535.17 78.01 535.17 41.61 570.65 41.61"/><polygon points="535.17 41.61 500.48 55.48 500.48 20.8 534.25 8.67 535.17 41.61"/><polygon points="500.48 83.98 535.17 78.01 536.49 90.57 500.48 104.32 500.48 83.98"/><polygon points="563.07 81.48 593.5 79.05 593.5 98.66 559.78 91.16 563.07 81.48"/><polygon points="515.64 363.44 552.75 351.51 558.09 393.55 515.64 403.49 515.64 363.44"/><path d="m599.32,340.38s-.63,35.44,0,37.13c.63,1.68,34-9.71,34-9.71l-8.02-35.86-25.98,8.45Z"/><polygon points="594.71 560.57 613.21 507.8 590.01 507.8 571.86 556.89 594.71 560.57"/><polygon points="535.3 525.09 535.3 569.65 557.24 569.65 555.91 520.63 535.3 525.09"/><polygon points="480.77 540.54 480.77 570.47 510.89 570.47 510.89 534.13 480.77 540.54"/><polygon points="510.89 534.13 504.74 497.01 532.57 488.19 535.3 525.09 510.89 534.13"/><polygon points="555.91 520.63 562.02 476.79 599.04 467.79 590.01 507.8 555.91 520.63"/><polygon points="599.04 467.79 599.32 451.04 633.32 451.04 625.3 473.4 599.04 467.79"/><polygon points="562.02 476.79 560.04 452.42 532.57 464.95 532.57 488.19 562.02 476.79"/><polygon points="573.12 850.75 575.19 810.8 605.82 801.95 599.04 854.81 573.12 850.75"/><polygon points="588.98 756.46 589.37 746.79 619.3 729.5 619.3 753.14 588.98 756.46"/></svg>