<?xml version="1.0" encoding="UTF-8"?><svg id="B_N" xmlns="http://www.w3.org/2000/svg" viewBox="0 0 1080 1137"><path d="m878.36,785.13c-103.25,14.64-114.54-126.17-100.08-109.65,14.46,16.52,44.59,107.23,121.15,97.17,76.56-10.05,125.83-76.23,126.13-97.17,0,0,34.99,83.81-147.2,109.65Z"/><path d="m893.38,865.52c21.03,0,27.13-97.19,6.05-93.12l-21.07,4.06"/><path d="m938.2,598.32s-14.29,59.87-52.96,26.18c-38.67-33.69-5.62-75.75,33.43-78.75,39.05-3,82.61,30.04,79.61,79.61-3,49.57-49.25,149.42-130.52,108.51-81.27-40.91-113.1-147.86-91.18-295.66,21.92-147.8,62.48-215.4,167.62-174.84,0,0-89.37,6.76-108.9,152.46-19.53,145.7,6.01,235.82,67.59,243.33,61.58,7.51,72.1-37.55,60.08-58.58-12.02-21.03-49.57-48.07-64.59-21.03-15.02,27.04,28.54,48.07,39.8,18.78Z"/><path d="m900.65,330.95s39.05-63.09,58.58-49.57c19.53,13.52,16.94,49.57,16.94,49.57h-75.52Z"/><path d="m882.32,352.81c3.12,12.42-22.63,49.3,15.08,49.3s82.41,7.26,79.86-18.4c-2.55-25.66-2.55-36.67-34.61-35.45-32.06,1.22-64.11-10.47-60.34,4.55Z"/><path d="m882.32,424.58c5.96,12.36-9.43,35.08,0,41.65,9.43,6.57,37.53,5.16,76.28,0,38.75-5.16,14.39-36.44,4.88-41.65-9.51-5.21-86.82-11.73-81.16,0Z"/><path d="m887.98,492.96s-9.43,17.53,0,26.69c9.43,9.16,83.89,23.27,86.26,0,2.37-23.27,8.95-31.71,0-31.76s-88.14-3.46-86.26,5.07Z"/><path d="m74.68,349.46c5.32,69.08,14.83,495.22,61.86,502.26,47.04,7.04,135.9,26.58,139.03-13.46,3.13-40.04-14.45-546.58-29-560.07-14.55-13.49-128.99-15.66-127.56-.9s31.92,457.98,63.08,454.96c31.16-3.02,51.27-34.76,40.37-113.17-10.9-78.41-16.46-187.14-21.38-186.66-4.92.48-18.84-6.45-14.28,108.99,4.55,115.45-1.39,132.87-10.68,111.95-5.29-11.9-6.73-257.61,9.67-259.2,16.4-1.59,33.76,6.67,40.69,95.39,6.93,88.73,26.41,255.71-5.28,270.36-31.69,14.66-51.74,29.84-60.16-5.77-8.41-35.61-45.83-233.96-46.73-363,0,0-42.86-83.59-39.63-41.69Z"/><path d="m450.82,267.58c-44.48-3.86-161.46-2.5-160.69,15.56.77,18.06,15.83,80.06,18.79,110.6,2.96,30.54,4.92,444.17,36.02,456.36,31.1,12.19,118.48,34.55,122.53,1.52,4.06-33.03,10.18-250.75,7.98-329.63-2.2-78.88,35.06-190.37-36.97-185.21-72.03,5.16-77.31,52.6-49.87,79.06,27.44,26.46,29.76-24.53,38.11,5.48,8.35,30.02,5.91,61.07-19.58,59.92-25.5-1.16-27.58,33.49-15.59,45.02,12,11.53,53.02-14.2,55.28,9.15s-4.09,41.11-43.13,36.32c-39.04-4.79-13.98,56.45,5.36,55.38,19.34-1.07,44.14,132.37,12.68,130.95-31.46-1.41-35.98-48.12-43.86-110.82-7.88-62.7-25.04-90.05-3.48-92.13,21.56-2.09,22.54-29.38-5.1-33.96-27.64-4.58,1.59-50.14,23.71-59.93,22.12-9.78-4.18-38.06-24.29-39.74-20.11-1.68-20.04-105.01,10.43-103.44,30.47,1.57,96.78,16.84,96.45-7.57-.33-24.41-.09-40.75-24.78-42.89Z"/><path d="m512.64,366.47c8.07,87.66,11.04,479.39,46.15,476.78,35.11-2.61,180.53-.67,179.99-45.46-.55-44.79,0-169.66-16.12-166.54-16.12,3.11-53.5,53.98-122.58,31.84-69.08-22.14-65.56-339.96-51.72-339.5,13.85.46,145.2.55,141.64-23.12-3.55-23.68,25.11-53.68-40.1-48.97-65.22,4.71-149.46-17.56-137.26,114.98Z"/><path d="m615.29,597.2c-12.18,1.76-46.05-2.41-33.35,27.67,12.7,30.09,58.28,24.03,88.57,4.61,30.29-19.41,60.78-22.37,48.29-151.36-12.49-129-35.77-150.84-87.21-142.36-51.45,8.48-98.78,34.77-74.39,152.89,24.39,118.13,121.41,116.15,113.04,29.61-8.38-86.54-57-68.65-56.93-38.99.1,41.75,23.07,50.51,23.07,50.51,0,0-20.71,31.67-36.94,8.64-11.36-16.12-24.77-106.86,31.03-121.56,55.8-14.7,68.96,135.66,38.67,155.07-30.29,19.41-25.21,21.12-53.84,25.27Z"/></svg>