<?xml version="1.0" encoding="UTF-8"?><svg id="B_N" xmlns="http://www.w3.org/2000/svg" viewBox="0 0 1080 1137"><path d="m523.89,849.11s-37.51-58.13-47.26-103.85c-9.75-45.72-7.11-88.57-2.37-88.16,4.74.41,13.53,23.43,13.94,27.22.41,3.79,1.07,19.71-4.23,10.18-5.87-10.57-4.57-14.82-4.32-17.4.24-2.58-3.49-1.28-3.48,3.53.01,4.82,4.56,85.7,47.72,168.47Z"/><path d="m528.36,844.33s-24.33-52.27-27.05-94.54c-2.71-42.27,2.77-38.67,14.15-37.5,11.39,1.16,33.67,20.91,21.12,33.54-12.54,12.63-22.28-.82-23.39-5.61-1.11-4.79-2.35-13.77,5.59-14.1,7.94-.33,4.03,11.72,4.03,11.72,0,0,8.32-2.51,6.55-8.51-1.77-6.01-12.85-14.99-19.4-8.94-6.55,6.05,7.41,99.12,18.39,123.95Z"/><path d="m532.27,845.03s4.14-5.32,1.91-19.75c-2.23-14.43-3.08-52.44,8.18-70.11,11.26-17.67,25.82-39.13,28.52-51.78,0,0-10.31,18.5-28.77,10.38-18.46-8.12-42.15-28.55-51.94-141.23,0,0-6.93,11.8-7.03,39.28-.11,27.48,2.44,46.86,4.04,46.49,1.6-.37-1.17-5.68,1.31-6.11s7.49,19.28.21,20.82c-7.28,1.54-8.9-28.5-10.1-40.1-1.21-11.59-2.42-48.78,1.55-67.33,3.98-18.54,11.4-44.12,15-43.48,3.6.65,1.43,16.45.68,23.09-.75,6.65-2.45,41.79,6.52,75.99,8.97,34.21,27.02,80.01,47.84,81.05s13.15-6.24,20.92-10.54c7.77-4.3,13.62-6.2,10.78,4.06-2.84,10.27-14.56,42.74-23.45,54.49-8.89,11.75-18.69,30.46-14.6,46.72,4.09,16.27,8.24,43.81.21,69.06l-11.78-21.03Z"/><path d="m552.46,848.65s-2.03-24.63,9.26-39.57c11.29-14.95,26.85-29.67,38.59-37.85,11.74-8.18,28.67-24.69,21.57-39.93-7.11-15.24-23.35-12.53-27.44-4.91-4.1,7.62-6.29,24.18-1.38,24.84,4.91.66,9.59-2.22,5.45-8.43-4.14-6.21-9.49-11.76-1.13-12.02,8.36-.25,16.25,3.35,14.59,11.36-1.65,8.02-8.91,31.44-30.12,22.83-21.21-8.61-.51-39.03,10.54-47.45,11.05-8.41,20.97-17.36,33.94-12.85,12.98,4.51,17.07,23.18,17.07,29.31,0,6.13-1.5,24.24-23.52,42.17-22.03,17.93-32.89,26.05-37.95,28.65-5.06,2.59-29.02,17.12-29.47,43.84Z"/><path d="m556.27,872.96s1.44-37.37,30.31-53.21c28.87-15.83,63.64-42.64,67.37-69.54,3.72-26.9-3.21-60.3-18.9-80.18-15.69-19.88-32.99-54.04-31.19-82.38,1.79-28.34,5.81-44.68,18.08-72.9,0,0-7.23,60.45,6.85,99.48,14.08,39.03,27.7,67.12,34.92,81.62,7.22,14.5,13.38,36.53,4.01,66.65-8.25,26.53-33.7,61.6-52.51,70.89-31.2,15.42-58.03,25.93-58.93,39.55Z"/><path d="m629.84,699.07s-3.66.88-10.46-7.56c-6.8-8.44-21.73-27.74-27.44-61.8-5.72-34.06,2.09-61.76,5.51-69.9,0,0-8.45,47.82,2.12,81.66s30.18,57.47,30.27,57.6Z"/><path d="m610.05,697.61s-5.21,3.17-11.38-3.98c-6.17-7.15-24.35-45.27-25.34-71.33-.99-26.06-2.88-54.62,29.4-85.82,0,0-23.9,47.4-22.78,76.51,1.13,29.11,9.37,64.5,30.09,84.62Z"/><path d="m577.29,682.22s-11.72,8.75-17.43-14.1-10.64-66.18,3.86-97.06c14.5-30.88,28.39-49.83,37.96-53.15,0,0-33.45,35.91-37.1,89.29-3.65,53.39,12.71,75.02,12.71,75.02Z"/><path d="m556.31,687.98s2.52,5.73-3.85,1.57c-6.37-4.16-32.22-20.01-42.37-89.07-10.15-69.06,2.5-105.52,19.17-122.88,16.67-17.36,35.65-23.15,49.07-55.32,0,0,5.14,24.44-5.24,45.77-10.38,21.33-20.96,62.1-14.74,62.78,6.22.68,19.56-24.94,21.02-42.84,0,0,1.12,28.86-11.06,49.98-12.18,21.12-22.61,39.71-24.2,76.07-1.31,29.92,1.5,65.68,12.2,73.95Z"/><path d="m484.09,989.28c-58.28,0-103.53,7.55-103.53,45.29s-10.78,81.96,80.88,81.96,321.37,12.94,321.37-20.49,11.74-106.77-42.66-106.77-294.89,15.1-303.52,33.43c-8.63,18.33-44.22,69.02,24.8,64.71,69.02-4.31,253.68-4.01,251.94-33.28s-133.31-43.29-155.96-27.11c-22.65,16.18,17.25,11.86,44.22,11.86s-1.51,15.41-60.07,15.25c-58.56-.15-47.77-36.82,1.83-40.06,49.61-3.24,180.1,0,180.1,34.51s-94.9,51.76-212.45,50.69c-117.55-1.08-104.61-4.31-100.29-36.67,4.31-32.35,9.71-58.24,38.82-58.24s207.06-21.57,207.06-21.57c0,0-160.69,6.47-172.55,6.47Z"/><path d="m512.13,189.08l125.1-44.22s-28.04,129.41,49.61,223.24c77.65,93.82,200.59,305.2,11.86,458.33,0,0-58.24,22.65-58.24,66.86s42.6,82.5,42.6,82.5c0,0-31.27-72.26-15.1-89.51,16.18-17.25,75.49-26.96,111.08-85.2,35.59-58.24,83.44-153.57,61.67-296.25-21.77-142.68-110.2-226.79-145.79-269.93-35.59-43.14-31.61-123.96-31.61-123.96,0,0-149.57-29.18-219.67,13.96"/><path d="m784.44,907.86c20.49-16.18-2.71-52.04-25.62-47.59-22.91,4.45-34.74,31.65-35.3,42.85-.55,11.21-50.16,16.6-50.16,16.6,0,0,90.59,4.31,111.08-11.86Zm-11.86-31.27c19.41,18.33-39.72,27.44-39.72,27.44,0,0,20.31-45.77,39.72-27.44Z"/><path d="m784.44,934.83c-20.49-16.18-111.08-11.86-111.08-11.86,0,0,49.61,5.39,50.16,16.6.55,11.21,12.39,38.4,35.3,42.85,22.91,4.45,46.11-31.41,25.62-47.59Zm-11.86,31.27c-19.41,18.33-39.72-27.44-39.72-27.44,0,0,59.13,9.1,39.72,27.44Z"/><path d="m452.62,184.65s28.39-36.03,28.97-61.89c0,0,4.54,32.15,3.07,45.23,0,0-18.71,30.31-24.8,33.35,0,0-6.36-7.02-7.24-16.69Z"/><path d="m452.62,184.65s-4.93-9.67-4.93-15.76c0,0-22.12,35.13-26.27,36.83l2.95,13.87,28.26-34.95Z"/><path d="m459.86,201.34s13.18,22.31,17.24,27.38c0,0-25.35,27.38-35.49,45.63,0,0-9.63-14.7-10.65-24.84,0,0,19.27-37.52,28.9-48.17Z"/><path d="m424.37,219.59l6.59,29.91s-25.35,35.49-49.69,41.58l-4.78-16.73s38.25-43.1,47.88-54.76Z"/><path d="m441.61,274.35l14.7,13.69s-36.51,72-39.55,68.96c0,0-22.31-17.24-22.31-29.41,0,0,18.44-7.47,26.97-26.05,8.52-18.57,20.19-27.19,20.19-27.19Z"/><path d="m381.27,291.09l13.18,36.51s-10.58,11.5-17.97,26.03c-7.38,14.53-18.54,25.69-18.54,25.69l-8.96-22.22s7.16-7.19,9.58-21.9c2.42-14.7,9.52-38.03,22.7-44.11Z"/><path d="m357.95,379.31l18.54,32.22s-45.05,70.2-52.08,70.7c0,0-5-24.84-5-38.03s37.52-56.79,38.53-64.9Z"/><path d="m348.99,357.09s-27.55,47.12-29.58,54.44c0,0,6.08-64.67,23.32-83.94,0,0,1.35,17.43,6.25,29.5Z"/><path d="m376.49,274.35l-.79-10.14s-28.39,39.55-32.96,63.38c0,0,17.11-14.2,22.5-31.69,5.39-17.49,11.25-21.55,11.25-21.55Z"/><path d="m324.42,494.44s9.99,73.87,61.31,146.18c51.32,72.31,93.18,168.65,30.16,232.03-63.01,63.38-260.38,76.56-322.42-30.42-62.04-106.98,45.54-203.79,95.69-183.27,50.15,20.52,54.32,81.36,20.8,85.42s-72.06-30.42-47.72-47.66c24.34-17.24,37.66,24.12,27.96,20.68,0,0-5.86-5.69-6.26,0-.4,5.69,17.85,13.8,18.86-4.45,1.01-18.25-13.18-40.56-42.59-28.39-29.41,12.17-60.84,70.98-31.44,119.66,29.41,48.67,136.11,90.25,184.05,63.38,47.94-26.87,129.76-96.2,84.91-182.21-44.85-86.01-88.58-161.98-73.31-190.92Z"/><path d="m306.56,586.68l-10.35-28.84s11.83-37.9,25.12-47.88c0,0,3.86,24.02,7.56,34.4,0,0-4.41,6.32-11.51,19.5-7.1,13.18-10.82,22.82-10.82,22.82Z"/><path d="m328.89,637.4s-.86,13.17,34.63,58.8l15.21-39.55s-28.38-52.73-31.43-60.84c0,0-18.57,41.6-18.41,41.59Z"/><path d="m292.54,704.72s16.04,22.68,36.36,43.52c0,0-9.61,22.24-18.18,27.3-8.57,5.06-14.34,16.59-14.34,16.59,0,0-19.21-25.93-19.21-29.78s-5.76-26.89-4.8-33.62c0,0,12.49-9.61,20.17-24.01Z"/><path d="m328.89,748.22l34.63-52.03s9.13,21.3,39.55,43.6c0,0-16.22,42.59-33.46,56.79,0,0-35.8-38.93-40.71-48.37Z"/><path d="m324.99,846.28l-30.42-51.72-8.11,9.13s8.11,24.34,23.32,53.74c0,0,8.11-3.04,15.21-11.15Z"/><path d="m305.72,591.25l23.17,46.15-36.36,67.32-20.28-32.58s9.13-28.67,9.13-41.85l24.34-39.04Z"/><path d="m371.64,798.62l-44.62,49.69s24.34-7.1,50.7-42.59l-6.08-7.1Z"/><path d="m317.83,897.83c-34.42-45.47-86.19-166.14-53.2-271.6,32.98-105.46,92.65-184.88,141.41-249.62,48.75-64.74,122.65-189.19,63.9-313.04,0,0-9.18-69.14,7.18-51.77,105.48,111.96,20.57,277.52-24.49,332.79-53.1,65.14-154.84,169.59-165.83,246.66-10.99,77.07-62.84,144.59,60.44,334.94"/><path d="m424.56,829.79s60.35,96.36,27.7,146.97c0,0,95.44-40.65-27.7-146.97Z"/></svg>