<svg width="50" height="53" viewBox="0 0 50 53" fill="none" xmlns="http://www.w3.org/2000/svg">
<g id="Group 33746">
<path id="Vector" d="M31.7671 10.3254C31.7671 10.3254 36.8829 9.187 38.6417 0C38.6417 0 37.9985 9.35676 40.5513 10.1157C40.5513 10.1157 46.5816 13.2812 49.6571 12.9716C49.6571 12.9716 36.6818 15.5879 36.4105 17.4453C36.1391 19.3027 32.3501 29.3285 31.6063 29.2186C30.8626 29.1088 33.2044 18.5238 30.8525 16.4567C30.8525 16.4567 24.7921 11.1942 22.2393 10.4352L31.7671 10.3354V10.3254Z" fill="#48B1B9"/>
<path id="Vector_2" d="M5.722 42.3142C5.722 42.3142 8.48324 42.119 10.1398 37.4425C10.1398 37.4425 9.0519 42.2893 10.3287 42.8868C10.3287 42.8868 13.2267 44.9979 14.8569 45.0786C14.8569 45.0786 7.87812 45.4509 7.58182 46.405C7.2914 47.3463 4.50728 52.308 4.13131 52.1933C3.75535 52.0785 5.82301 46.7247 4.75747 45.4611C4.75747 45.4611 2.01376 42.2465 0.73692 41.649L5.71611 42.327L5.722 42.3142Z" fill="#48B1B9"/>
</g>
</svg>
