<svg width="74" height="77" viewBox="0 0 74 77" fill="none" xmlns="http://www.w3.org/2000/svg">
<g id="Capa_1" clip-path="url(#clip0_1806_4497)">
<path id="Vector" d="M21.5458 45.2546C19.7166 44.959 18.9071 42.8067 17.4359 46.2085C15.9598 49.6081 16.9832 52.4921 20.1118 51.0992C23.2404 49.7063 29.2023 45.7011 25.5229 38.6414C21.8458 31.5767 14.3232 30.4554 9.14021 36C3.95722 41.5445 3.16521 51.1796 14.6601 60.3891C26.1549 69.5986 40.5684 60.048 38.2227 51.6949C35.8771 43.3419 30.1556 42.0289 34.7722 38.95C39.3839 35.8689 52.4058 24.1156 53.5773 26.2541C54.7489 28.3927 55.777 36.1721 60.3829 34.0196C64.9888 31.867 60.7385 27.1522 57.0798 24.5207C57.0798 24.5207 59.6057 22.0241 60.2959 22.9479C60.9862 23.8718 63.7388 32.3738 65.7449 31.0888C67.7511 29.8038 69.9653 28.7793 69.9653 28.7793C69.9653 28.7793 63.4935 16.9421 62.0401 16.9949C60.5867 17.0477 57.0888 20.8118 57.0888 20.8118L52.5405 13.8503C52.5405 13.8503 48.3664 15.0242 49.5193 16.7984C50.6771 18.5749 53.7283 20.4269 52.1603 21.2818C50.5924 22.1368 33.9007 34.9723 31.4779 36.2998C29.0552 37.6272 27.0179 40.0013 29.3205 43.0204C31.6231 46.0395 31.2592 57.9091 23.9698 57.4511C16.6803 56.993 13.3539 51.588 14.071 45.4539C14.7881 39.3199 18.6527 37.5727 21.3167 40.7497C23.9806 43.9267 21.553 45.2519 21.553 45.2519L21.5458 45.2546Z" fill="#0C6B80"/>
</g>
<defs>
<clipPath id="clip0_1806_4497">
<rect width="53.15" height="59.6917" fill="white" transform="translate(48.4072 76.3125) rotate(-155.61)"/>
</clipPath>
</defs>
</svg>
