<?xml version="1.0" encoding="UTF-8"?><svg id="B_N" xmlns="http://www.w3.org/2000/svg" viewBox="0 0 1080 1137"><defs><style>.cls-1,.cls-2{fill:none;}.cls-1,.cls-2,.cls-3{stroke:#000;}.cls-1,.cls-2,.cls-3,.cls-4{stroke-miterlimit:10;}.cls-1,.cls-3{stroke-width:3px;}.cls-5,.cls-3{fill:#fff;}.cls-2{stroke-width:5px;}.cls-4{stroke:#fff;stroke-width:8px;}</style></defs><path d="m87.63,945.75s-5.18,25.92,15.55,48.38c20.56,22.27,103.48,54.45,139.96,53.56,36.48-.89,172.79-19.01,134.41-177.82,0,0-122.8-81.86-85.42-302.54,37.37-220.68,178.85-230.46,262.5-284.74,83.64-54.28,171.74-169.07,171.74-169.07,0,0-81.86,113.9-90.76,169.96-8.9,56.06-36.48,258.94-176.19,409.32-139.7,150.38,43.18,242.1-84.96,347.99-128.13,105.89-236.83,31.57-260.91,19.01-39.74-20.73-74.34-104.26-43.2-143.41,31.14-39.15,96.61-36.96,101.95-13.82,5.34,23.14-45.71,87.96-48.38,63.93s13.82-38.01,13.82-38.01c0,0-41.47-32.83-50.11,17.28Z"/><path d="m753.5,137.1c-17.92,16.87-56.06,51.61-49.83,120.13,6.23,68.52,28.47,155.72,38.26,195.76,9.79,40.04,8.9,117.46-25.8,119.24-34.7,1.78-18.29-37.66-13.15-42.86,5.14-5.19,19.19-12.82,21.07,2.56s-7.92-3.3-13.25,3.81-7.12,19.58,7.12,18.69c14.24-.89,31.22-23.64,13.83-44.3-17.39-20.66-31.62-29.55-44.97-21.55-13.35,8.01-43.6,51.61-20.47,115.68,23.14,64.07,44.49,82.75,74.75,36.48,30.25-46.27,35.59-143.26,22.25-217.12-13.35-73.86-39.15-166.5-36.93-217.56.89-20.47,42.27-83.2,27.14-68.96Z"/><path class="cls-1" d="m631.95,976.23s9.76-36.83,47.93-26.63c38.16,10.21,20.41,53.68,0,49.03-20.41-4.65-11.54-19.74-2.66-17.52s12.43,7.54,12.43,7.54c0,0,7.1-14.64-6.66-23.08-13.76-8.43-40.83-2.22-51.03,10.65Z"/><path d="m765.97,908.34s74.55-4.44,67.01-48.81c-7.54-44.38-14.2-71.45,40.83-79.43,55.03-7.99,49.7,48.81,37.72,66.56-11.98,17.75-39.94,31.95-50.59,13.31-10.65-18.64,9.76-34.17,17.75-27.07,7.99,7.1-2.22,19.08-7.99,16.42,0,0,18.49,12.1,26.55-5.49,8.06-17.59,12.94-45.99-16.79-45.99s-42.16,10.65-41.71,42.16c.44,31.51,15.09,71-72.78,68.34Z"/><path d="m880.46,910.55s43.93,3.55,46.6-35.5c2.66-39.05,5.77-78.1,55.47-78.99,49.7-.89,45.48,38.41,38.94,47.83-6.54,9.42-30.06,20.07-34.06-3.01-3.99-23.08,19.08-12.43,19.08-7.99s.44,5.77-2.66,8.88c0,0,12.43-3.55,3.99-19.08-8.43-15.53-42.39-20.44-54.92,3.32-12.53,23.75-4.55,32.18-8.54,48.6-3.99,16.42-11.98,39.5-63.9,35.95Z"/><path d="m707.39,960.26s37.44-37.86,61.32-22.48c23.88,15.38,58.35,19.4,73.96,9.4,15.6-10,25.81-27.75,32.91-21.98,7.1,5.77-14.2,45.26-48.81,41.71-34.61-3.55-44.38-8.43-55.03-16.42-10.65-7.99-42.6-7.54-64.35,9.76Z"/><path class="cls-1" d="m864.93,970.46s24.43,3.08,42.39-22.64c17.96-25.73,62.78-44.81,90.29-21.29,27.51,23.52,10.65,49.7,2.22,51.48-8.43,1.78-39.5-1.78-40.83-12.87-1.33-11.09-.44-24.85,11.54-24.85s6.51,3.53,3.92,7.53c-2.59,4.01-.81,11.99,8.06,2.23,8.88-9.76-21.4-34.19-49.31-2.23-27.91,31.96-68.29,22.64-68.29,22.64Z"/><path class="cls-1" d="m757.09,1001.08s35.95-32.39,68.34-13.76c32.39,18.64,24.46,44.85,13.78,48.83-10.68,3.98-18.22-.9-18.22-3.12,0,0,6.66,7.1,12.87,0,6.21-7.1-.44-20.41-14.64-19.08-14.2,1.33-22.19,15.98-9.76,29.73,12.43,13.76,39.5,9.76,45.26-2.66,5.77-12.43,16.05-39.96-21.04-62.58-37.09-22.62-76.14,15.54-76.59,22.64Z"/><path d="m751.51,323.88s25.53-1.01,28.95-29.9c3.41-28.89-8-33.28-18.04-24.8,0,0-.73,1.46,2.14,1.5s8.48-.08,2.44,8.44-23.04.29-20.15-13.69c2.9-13.97,16.52-13.44,27.35-7.18,10.83,6.25,19.82,27.89,10.54,46.23-9.28,18.34-27.59,27.52-32.81,24.41s-.42-5.01-.42-5.01Z"/><path d="m761.68,334.05s4.62-6.49,17.84-3.41c13.22,3.08,29.31,11.67,25.02,31.1-4.29,19.43-24.29,9.99-25.12,4.68-.83-5.3-3.35-14.18,6.9-10.48,10.25,3.7,1.87,3.39,3.42,6.95s8.24-3.18,5.56-10.44c-2.68-7.26-9.71-20.24-33.62-18.39Z"/><path d="m771.19,324.48s26.99-3.54,44.87-14.83c12.14-7.66,18.18-25.14,7.92-32.91-10.26-7.76-22.06-1.25-19.12,10.33,2.94,11.57,9.88,2.89,10.45.74s-1.84-7.88-5.79-6.66c0,0,4.96-6.21,9.42-1.55,4.46,4.67,3.13,16.43-4.48,22.46-7.61,6.02-36.87,20.94-43.27,22.43Z"/><path d="m882.97,739.06s4.78-15.72-9.79-25.8c-14.57-10.09-26.69-33.81-5.34-38.26,21.36-4.45,23.14,33.81,15.13,64.07Z"/><path d="m939.03,658.09s17.95-5.79,13.87-23.81c-4.08-18.01,1.26-25.13,8.37-23.35,7.12,1.78,25.8,25.8-22.25,47.16Z"/><path d="m991.53,753.3s8.01-.89,11.57-12.46c3.56-11.57,8.01-24.92,17.8-21.36,9.79,3.56,9.79,23.14-6.23,32.03-9.37,5.2-23.14,1.78-23.14,1.78Z"/><path d="m597.34,860.97s24.03-12.46,8.9-43.6c-15.13-31.14-47.16-61.4-16.91-132.58,30.25-71.19,37.58-70.87,21.91-107.96,0,0,69.75,36.77,68.86,135.54-.89,98.77-27.58,118.35-82.75,148.6Z"/><path d="m604.23,862.69s-21.32,7.47-31.59-19.54c-10.27-27.02-10.33-63.8-70.91-86.14-60.58-22.34-64.58-17.71-78.15-48.46,0,0-17.56,63.43,42.98,119.41,60.54,55.98,87.72,50.95,137.67,34.73Z"/><path d="m770.18,572.6s-28.74,139.76-84.11,206.72c0,0,8.25,76.42-71.16,71.69,0,0-1.69-.36-4.09-.73-17.26-4.53-21.55-25.08-22.38-3.56-.57,14.83,3.25,26.73,6.06,33.36.65,2.12,1.57,4.09,2.84,5.79,8.01,10.68,53.39,28.47,89.87,5.34,36.48-23.14,118.78-93.56,82.97-318.62Z"/><path d="m537.47,754.41s-11.63-38.72,21.01-87.98c32.63-49.26-18.98-121.34,70.01-137.36,0,0-33.04,25.73-32.09,63.14.95,37.41-7.06,67.67-22.19,82.79-15.13,15.13-42.32,60.05-36.73,79.41Z"/><path d="m466.97,738.43s-1.41-26.18,26.68-52.25c28.1-26.06,6.58-79.38,65.11-75.88,0,0-24.76,11.17-29.87,34.89-5.12,23.73-14.79,41.57-26.64,48.79-11.85,7.22-35.85,31.38-35.29,44.44Z"/><path d="m637.38,398.26s19.58,27.4,0,45.29c-19.58,17.89-39.15,42.8-20.47,63.27,18.69,20.47,54.28-9.79,47.16-49.83-7.12-40.04-26.69-58.73-26.69-58.73Z"/><path d="m686.07,395.49c.25,1.88,3.31,16.43,0,32.73-3.31,16.31,11.72,40.06,23.38,32.32,11.66-7.74,1.38-25.1-8.01-33.81-9.38-8.71-15.37-31.24-15.37-31.24Z"/><path d="m665,386.42s28.44-30.87,16.87-59.34c-11.57-28.47-38.96-85.89,2.77-111.91,0,0-21.45,36.27-3.66,60.3,17.8,24.03,35.67,79.54-15.98,110.95Z"/><path class="cls-3" d="m596.58,351.62s-44.15-1.74-27.48-59.86c0,0,32.06,1.65,27.48,59.86Z"/><path class="cls-3" d="m541.62,513.4s-75.24-39.33-58.26-139.97c0,0,62.15-.27,58.26,139.97Z"/><path class="cls-3" d="m466.96,616.49s-90.72-54.16-66.04-160.66c0,0,86.04,39.88,66.04,160.66Z"/><path class="cls-2" d="m511.33,284.67s17.94-103.97-102.19-122.66c0,0,5.58,13.76,7.24,30.91,1.66,17.14,12.05,88.05,94.95,91.75Z"/><path class="cls-2" d="m512.86,276.88s26.19-33,5.73-94.4c-20.47-61.4-60.95-68.96-60.95-68.96,0,0,4.9,39.57,0,55.6-4.9,16.03-19.02,82.04,55.22,107.76Z"/><path class="cls-2" d="m511.33,284.67s-87.06-45.24-121.76-34.56c0,0,20.18,81.58,121.76,34.56Z"/><path d="m234.56,616.49s53.56-22.03,67.8-70.97c0,0-32.92-27.58-42.71-43.6-9.79-16.02-23.48-17.73-25.09-21.77-1.61-4.04-6.95-12.93-16.74-13.82-9.79-.89-16.59-8.46-21.64-22.92-5.05-14.45-16.62-10.01-21.07-25.13-4.45-15.13-16.33-18.69-16.62,0-.29,18.69,21.07,46.27,21.07,56.95s8.9,28.47,7.12,49.83c-1.78,21.36,3.22,40.5,47.88,91.43Z"/><path class="cls-3" d="m312.69,488.51c-12.14-6.17-28.57,17.42-19.67,33.44,8.9,16.02,60.69-12.6,19.67-33.44Z"/><path d="m176.61,860.97c-10.93,9.87,18.85,47.6,0,71.41-18.85,23.81-25.44,63.05,20.57,79.47,46.01,16.41,151.01,14.63,154.57-29.86,3.56-44.49-18.42-107.29-61.26-79.45-42.84,27.84-44.47,55.45-25.42,75.9,19.06,20.45,47.88,19.66,55.27-7.08,7.39-26.74-4.18-48.98-17.97-43.65s0,20.11,0,20.11c0,0-9.97,14.77-11.88,0-1.91-14.77.58-36.63,18.91-28.82,18.33,7.81,34.12,43.14,23.56,54.4-10.57,11.26-54.61,58.59-75.74,20.69-21.13-37.91-23.54-66-2.31-91.55,21.22-25.55-67.44-51.36-78.28-41.57Z"/><path class="cls-4" d="m47.43,723.94c-22.01,31.75-32.03,72.97-8.01,113.9,24.03,40.93,61.71,38.89,87.82,23.14,59-35.59,73.24,18.69,135.52,5.34,62.29-13.35,127.94-58.13,116.47-147.41-11.47-89.28-184.98-206.74-331.8,5.04Z"/><path class="cls-5" d="m303.18,755.97s21.24,13.61-5.2,25.66c-26.44,12.05-26.44-34.18-15.49-42.69,10.95-8.52,25.69-17.03,48.13,0,22.43,17.03,16.35,71.78-12.85,79.08-29.2,7.3-76.65-9.73-80.3-34.07-3.65-24.33,9.99-60.93,34.8-60.27,24.81.66-11.36,8.87-13.35,23.01s.44,34.83,21.13,42.13c20.68,7.3,37.72,4.87,37.72-8.52s-3.65-30.42-14.6-24.33Z"/><path class="cls-5" d="m105.83,713.06s5.07-24.71,25.81-4.37c20.75,20.34-22.4,36.95-34.28,29.79-11.88-7.16-25.13-17.86-17.29-44.92,7.84-27.06,61.12-41.04,78.42-16.42,17.3,24.63,18.45,75.03-2.95,87.17-21.4,12.15-60.46,12.56-68.75-10.83-8.3-23.39,12.36,7.42,26.27,4.19,13.92-3.22,32.34-12.93,31.73-34.85s-9.01-36.95-21.5-32.14c-12.49,4.81-27.07,14.33-17.46,22.37Z"/><path d="m76.6,330.01s10.32,19.05,10.12,27.78c0,0-4.98,11.98-13.8,15.81,0,0,15.56-4.35,17.54-2.96,0,0,11.83,11.69,15.04,18.49,0,0-6.33-16.94-6.17-24.33,0,0,.17-7.39,12.49-17.19,0,0-10.19,5.14-16.89,3.98,0,0-7.34-2.52-18.33-21.59Z"/><path d="m948.13,174.11s-5.2,32.39-13.49,42.69c0,0-17.03,9.79-31.16,6.25,0,0,22.69,9.14,23.79,12.63,0,0,3.41,24.96.99,36.07,0,0,8.04-26.19,15.06-34.9,0,0,7.02-8.71,30.86-9.11,0,0-16.98-3.23-23.95-10.81,0,0-6.48-9.8-2.08-42.83Z"/><path d="m244.99,188.21s9.53-8.37,2.5-30.04c0,0,9.59,20.73,15.89,19.37,0,0,16.49-.26,22.66-4.48,0,0-24.44,20.67-22.86,24.95s5.28,30.08,3.58,30.71c-1.71.63-9.12-24.7-16.53-26.37,0,0-19.02-4.18-25.31-2.83l20.09-11.3Z"/><path d="m807.26,26s-4.1,21.28-9.79,27.9c0,0-11.45,6.11-20.7,3.48,0,0,14.79,6.5,15.44,8.83,0,0,1.73,16.54-.09,23.83,0,0,5.84-17.12,10.66-22.73,0,0,4.81-5.61,20.55-5.37,0,0-11.14-2.48-15.59-7.63,0,0-4.08-6.6-.49-28.31Z"/><path d="m986.05,350.97s-9.3,19.57-16.47,24.56c0,0-12.61,3.05-20.91-1.82,0,0,12.69,10,12.74,12.42,0,0-2.47,16.45-6.06,23.05,0,0,9.95-15.11,16.01-19.33,0,0,6.07-4.22,21.25-.05,0,0-10.17-5.2-13.18-11.29,0,0-2.29-7.41,6.62-27.53Z"/><path class="cls-3" d="m277.1,611.3c-12.14-6.17-28.57,17.42-19.67,33.44,8.9,16.02,60.69-12.6,19.67-33.44Z"/><path d="m412.47,878.36s46.07-26.87,84.38,3.84c38.3,30.71,100.04,57.34,160.75,33.66,0,0-69.12,56.6-122.56,24.24-53.45-32.37-77.64-66.92-122.56-61.74Z"/><path d="m469.91,981.14s19.24-6.67,22.29-5.14c0,0,3.81,19.43,16.38,23.62,0,0-11.7,13.02-24.14,10.89,0,0,11.06-10.08,2.36-18.67-8.7-8.6-16.89-10.69-16.89-10.69Z"/><path d="m462.65,1019.34s-7.21,14.43-11.02,18.4c0,0-25.87-2.75-35.22-18.06,0,0,26.41-1,46.24-.34Z"/><path d="m451.62,1037.74s-22.12,21.18-31.44,23.62c0,0,16.81,7.55,25.46,6.14,0,0,55.4-11.97,78.69-39.07,0,0-30.43,17.15-72.71,9.31Z"/><path d="m416.4,1019.68s-17.8,25.94-21.39,25.89c0,0-10.98-9.35-1.57-18.8,9.41-9.44,22.95-7.09,22.95-7.09Z"/><path d="m524.34,1028.43s21.2-7.11,33.48-5.48c0,0,13.92-12.34,18.81-13.17,0,0-22.91,1.46-39.29,7.93l-13,10.72Z"/><path d="m554.48,999.43s-22.48,11.81-45.9.19l18.15-12.92s4.62,2,19.62-3.11c15-5.11,23.86-5.04,23.86-5.04l-15.72,20.88Z"/><path d="m521.18,954.13s-15.46,17.49-28.98,21.87c0,0-1.15-32.19-52.67-17.71,0,0,40-12.77,57.29-14.19,17.29-1.43,23.44,6.64,24.36,10.04Z"/><path d="m602.86,991.64l-4.12,9.42s20.86-4.55,18.96,11.76c0,0,16.01,1.46,21.34-5.02,0,0-4.56-16.71-36.19-16.17Z"/><path d="m639.05,1007.81s15.81,13.03-22.19,33.94c0,0,26.69,9.8,49.2-7.69,0,0,6.91-19.47-12.53-36.96,0,0-3.44,3.85-14.49,10.7Z"/><path d="m616.86,1041.75s-6.38,6.05-15.14,13.29c-8.76,7.24-16.76,16-15.24,24.38,0,0-21.05,7.11-47.09,1.27,0,0,22-16.9,38.74-24.7,0,0,21.11-5.02,27.88-15.74l10.86,1.51Z"/><path d="m539.39,1080.69s-26.18-8.62-28.21-10.08c0,0-13.84,1.96-13.08,11.87.76,9.9,51.35,27.43,94.43,27.43,0,0,7.66-1.91,14.14-6.48,0,0-93.62-12.13-67.28-22.73Z"/><path d="m586.48,1079.43s-17.9,17.52,36.95,16c0,0,24.83-17.93,27.08-24.78l-24.43-1.43s-18.26,6.78-39.6,10.21Z"/><path d="m606.67,1103.43l16.76-8s35.81,1.14,46.09-1.14l-11.43,11.43s-41.9-1.14-51.43-2.29Z"/><path d="m669.53,1094.28s11.24-12.41,11.53-25.06c0,0,12.38-1.65,13.38-5.44,0,0,.58,13.33,16.6,15.25,0,0-14.84,16.39-41.5,15.25Z"/><path d="m653.81,1110.64l4.29-4.93s70.64-5.96,87.6-15.46c0,0,21.78,3.41,32.32,2.67,0,0-38.02,17.11-124.21,17.71Z"/><path d="m745.7,1090.26l-34.67-11.22s12.81-3.25,4.89-11.72c-7.92-8.46-10.58-13.8-8.3-13.8s16.38,2.29,16.38,2.29c0,0-2.29,11.43,16.38,10.67,18.67-.76,68.54,5.66,5.32,23.78Z"/><path d="m724,1055.81l12.58.87s-15.46-8.02-.88-20.44c0,0-11.32,3.57-11.71,19.57Z"/><path d="m707.62,1053.52s-9.14-6.55,0-11.28c9.14-4.72,17.14-8.91,17.9-11.2,0,0-10.48-8.02-10.76-11.82,0,0-21.69-5.13-33.46,3.92-11.78,9.05,2.42,24,2.42,24,0,0,13.61,8.28,23.89,6.38Z"/><path d="m725.53,1031.05l10.18,5.19s16.95-14.96,56.14-10.26c0,0-32.8-9.4-66.33,5.08Z"/><path d="m782.45,1057.59s26.36,3.44,12.4,28.7c0,0,20.95-16,13.38-27.24-7.17-10.64-25.62-1.58-25.78-1.45Z"/><path d="m570.2,978.55s32.29-.79,32.67,13.09c0,0,8.52-4.48,4.26-15.87,0,0-30.74-1.72-36.93,2.78Z"/></svg>