<?xml version="1.0" encoding="UTF-8"?><svg id="B_N" xmlns="http://www.w3.org/2000/svg" xmlns:xlink="http://www.w3.org/1999/xlink" viewBox="0 0 1080 1137"><defs><style>.cls-1{fill:none;}.cls-2{clip-path:url(#clippath);}.cls-3,.cls-4{fill:#fff;}.cls-5{stroke:#fff;stroke-width:2px;}.cls-5,.cls-4{stroke-miterlimit:10;}.cls-4{stroke:#000;stroke-width:6px;}</style><clipPath id="clippath"><path class="cls-1" d="m1314.97,403.42s-41.38-136.04-17.7-225.71c0,0,70.84-85.12,134.27-37.02,63.43,48.1,221.74,308.7,222.27,313.96.53,5.26-66.25,98.99-220.62,103.41-154.37,4.43-180.15-36.48-194.24-62.15-18.75-34.17,30.71-85.46,76.01-92.49Z"/></clipPath></defs><path class="cls-4" d="m799.54,317.19c-11.73-116.54-117.54-60.28-108.16-138.95,13.55-113.64-97.48-165.24-136.05-55.78-8.33,23.64-23.98,114.68-55.25,120.93-31.28,6.26-192.09,54.24-148.69,152.74,43.4,98.5,203.95,134.99,299.86,90.16,95.91-44.83,160.03-52.57,148.3-169.11Zm-168.41,130.96c-71.73,33.53-191.81,6.24-224.26-67.43-32.46-73.67,87.82-109.56,111.21-114.24,23.39-4.68,35.09-72.77,41.32-90.45,28.85-81.87,111.89-43.27,101.75,41.71-7.02,58.84,72.12,16.76,80.89,103.92,8.77,87.16-39.18,92.95-110.91,126.48Z"/><path class="cls-5" d="m407.23,476.66c18.58-5.05,35.44,11.85,34.81-26.64-.64-38.49-22.65-61.38-46.27-34.78-23.62,26.6-62.85,90.04,2.26,141.09,65.11,51.05,141.07,29.38,166.32-45.31,25.25-74.69-8.6-169.23-156.86-207.05-148.26-37.82-243.64,114.36-185.64,183.3,58,68.94,117.78,56.85,87.34,105.77-30.44,48.93-103.21,215.99-123.45,200.77-20.24-15.22-63.33-84.41-97.67-44.3-34.34,40.11,26.07,66.51,71.98,75.68,0,0-13.2,34.43-23.67,28.68-10.46-5.75-72.98-74.39-86.45-53.62-13.46,20.77-30.04,39.97-30.04,39.97,0,0,112.02,84.22,125.54,77.48,13.51-6.74,30.45-57.37,30.45-57.37l72.88,46.33s34.47-29,15.91-40.84c-18.56-11.84-55.36-16.26-44.2-31.11,11.16-14.84,114-207.87,131.25-230.81,17.24-22.94,26.33-54.13-8.4-72.84-34.72-18.71-82.21-132.54-11.28-159.48,70.93-26.94,125.59,9.92,145.11,71.06,19.52,61.13-9.55,94.19-48.36,75.58-38.81-18.61-21.57-41.55-21.57-41.55Z"/><path class="cls-3" d="m518.8,543.4c7.9-3.04-4.63-22-9.71-15.24-5.08,6.76-8.91,22.41,9.71,15.24Z"/><path class="cls-3" d="m540.2,422.21c7.9-3.04-4.63-22-9.71-15.24-5.08,6.76-8.91,22.41,9.71,15.24Z"/><path class="cls-3" d="m550.33,490.09c7.81-2.29-1.74-16.96-10.01-16.44-8.27.52-12.32,23,10.01,16.44Z"/><path class="cls-3" d="m227.66,369.03s-14.9,40.05,14.67,48.54c29.57,8.49,60.5,24.92,42.27,61.21-18.23,36.29-52.1,20.66-58.45,14.01-6.35-6.65-13.75-27.3-3.64-37.12,10.11-9.82,30.1,5.82,28.83,14.71-1.28,8.89-18.39,9.57-12.92-3.55,0,0-8.6-8.07-10.43,8.95-1.83,17.02,33.64,27.56,44.67,1.57,11.03-26-7.63-39.12-23.27-43.44-15.65-4.32-47.36-16.01-21.73-64.86Z"/><path class="cls-3" d="m239.99,398.42s-1.05-31.29,22.35-37.09c23.4-5.81,47.17-2.27,59.78-23.84,12.61-21.56-.51-37.82-9.86-36.99-9.35.83-25.59,8.41-24.22,23.68,0,0,.1,4.29,7.95.99,0,0,.49-16.29,10.55-16.25,10.05.03,17.24,8.26,12.68,17.56-4.56,9.29-17.07,21.2-34.21,20.12-17.14-1.08-59.82,17.11-45.04,51.82Z"/><path d="m649.15,338.26c-48.98,1.21-106.87-23.49-112.86,94.07-5.99,117.56-27.11,203.04,56.43,204.09,83.54,1.05,150.26,8.35,150.26-85.48s32.32-215.8-93.83-212.68Zm73.37,177.56c0,54.22-49.25,50-110.91,49.39-61.66-.61-46.07-50-41.65-117.93,4.42-67.93,47.15-53.65,83.31-54.36,93.11-1.81,69.26,68.67,69.26,122.89Z"/><path d="m613.85,636.76l24.24,176.25s-35.85,2.74-35.85,12.12-7.3,38.57,8.34,38.57h39.89s6.53,35.67,0,36.08c-6.53.41-81.94-16.98-79.16,15.17,2.78,32.15-1.07,54.79,40.99,51.81,42.07-2.98,61.87,5.36,62.92,63.74,1.04,58.38,20.85,42.74,83.4,29.19,62.55-13.55,101.13-8.34,100.08-43.79-1.04-35.45-4.17-75.06-37.53-61.51-33.36,13.55-74.48,32.15-74.48,32.15,0,0-81.38-337.09-81.38-357.94s-54.97-17.06-51.46,8.15Z"/><path d="m675.22,290.15c-30.37.94,86.57,346.8,133.46,316.31,46.89-30.5,104.93-140.42,141.07-182.41,36.14-42,35.1-143.43-274.53-133.89Zm209.34,115.58c-20.3,23.58-52.89,85.31-79.22,102.44-26.33,17.13-92.01-177.11-74.95-177.63,173.89-5.36,174.47,51.61,154.17,75.19Z"/><path d="m867.04,517.58s111.55,160.55,137.61,134.49c26.06-26.06,77.63-77.88,56.3-84.44-21.34-6.56-24.43-6.28-34.4,7.3-14.76,20.09-48.1,19.08-36.49-6.26,11.47-25.02-8.34-46.91-24.42-41.95-12.24,3.78-29.04,30.55-29.42,18.53-.38-12.02,13.17-42.25,1.71-41.21-11.47,1.04-24.81,22.88-27-.03-2.19-22.91-22-40.63-43.89,13.58Z"/><path class="cls-3" d="m669.71,648.48s-26.75,3.96-28.81,4.04c-2.06.07-5.89,2.28-15.16-8.72-9.26-11-22.51-38.03-15.92-49.61,6.59-11.57,15.43-12.1,28.7-15.68,13.27-3.57,25.76-5.68,29.44,10.47,3.68,16.15,8.61,38.43-3.09,39.68-11.7,1.25-22.01,3.99-27.71-2.7-5.7-6.7-18.19-21.29-11.85-28.32,6.34-7.03,20.53-7.75,25.23-3.18,4.7,4.57,3.45,11.36,1.13,13.48-2.32,2.12-4.38,1.99-7.56-.37-3.18-2.36-5.9,5.06-2.13,6.57,3.76,1.51,11.03,5.88,15.75-6.03,4.72-11.92,3.46-15.27-7.94-20.11-11.41-4.84-21.79-1.37-25.53.72-3.74,2.09-5.89,5.26-6.1,10.84-.21,5.57-.69,29.19,8.2,38.45s14.09,10.72,26.88,10.87c12.78.15,16.47-.39,16.47-.39Z"/><path class="cls-3" d="m793.26,972.43s24.58-2.03,26.46-1.98c1.88.05,5.5-1.72,13.28,8.83,7.78,10.56,18.24,35.94,11.57,46.08-6.68,10.15-14.75,10.11-27.04,12.58-12.28,2.47-23.78,3.65-26.18-11.26-2.4-14.91-5.57-35.48,5.15-35.93,10.72-.45,20.27-2.34,25.06,4.09,4.8,6.43,15.3,20.45,9.12,26.47-6.18,6.03-19.14,5.85-23.15,1.41s-2.47-10.54-.24-12.33c2.24-1.8,4.11-1.55,6.86.78,2.75,2.33,5.66-4.26,2.33-5.85-3.34-1.6-9.7-6.01-14.69,4.56-5,10.57-4.05,13.7,6.05,18.77,10.1,5.08,19.75,2.53,23.28.85,3.52-1.69,5.67-4.44,6.19-9.5.52-5.06,2.35-26.52-5.2-35.47-7.54-8.95-12.2-10.59-23.82-11.48-11.63-.89-15.02-.61-15.02-.61Z"/><path class="cls-3" d="m893.89,491.02s29.99,1.85,37.04,30.01c7.06,28.17.1,55.8,6.53,62.26,6.43,6.46,12.13-.64,17.45-9.97,5.32-9.33,42.41-15.89,54.96-12.45,0,0,10.23,22.09,10.98,35.39.74,13.31-.12,12.84-3.84,13.91-3.71,1.07-25.52,21.6-52.93,5.62,0,0,.95-26.89,5.41-28.96,4.45-2.07,29.8-.29,32.04,1.76,2.24,2.04,4.57,15.79,2.01,16.69-2.56.89-10.33,2.08-13.69,2.9-3.36.81-6.49,1.09-6.09-2.75s-.1-1.86,5.75-2.02c5.85-.16,11.85.02,10-5.86,0,0-3.4-.84-7.66-.85-4.26,0-12.02-3.29-13.07.25-1.05,3.54-.25,10.2-1.8,13.36-1.54,3.16-.37,6.26,9.99,5.77,10.36-.49,23.68,1.44,26.13-8.53,2.45-9.97-.9-33.94-3.51-35.02-2.61-1.08-9.41-.04-15.6.41-6.19.45-21.23.27-24.57-.12-3.34-.38-8.61-2.36-8.81,6.12-.19,8.48-4.2,32.95-4.7,35.52,0,0,18.64,17.83,43.05,10.41,24.42-7.42,27.95-18.1,27.29-19.79-.66-1.69-5.59-17.04-3.27-54.48,0,0-33.52,3.14-40.28,2.49-6.76-.66-27.08-6.1-30.77,5.51-3.69,11.6-4.95,13.05-6.35,10.4-1.41-2.65-5.25-25.13-4.12-37.92,1.12-12.8-17.1-42.22-36.08-44.09l-11.51,4.04Z"/><path class="cls-3" d="m910.97,443.06c7.9-3.04-4.63-22-9.71-15.24-5.08,6.76-8.91,22.41,9.71,15.24Z"/><path class="cls-3" d="m924.02,352.1c7.9-3.04-4.63-22-9.71-15.24-5.08,6.76-8.91,22.41,9.71,15.24Z"/><path class="cls-3" d="m934.16,400.18c7.81-2.29-1.74-16.96-10.01-16.44-8.27.52-12.32,23,10.01,16.44Z"/><path class="cls-3" d="m686.04,841.17c7.81-2.29-1.74-16.96-10.01-16.44-8.27.52-12.32,23,10.01,16.44Z"/><path class="cls-3" d="m695.42,934.99c7.81-2.29-1.74-16.96-10.01-16.44-8.27.52-12.32,23,10.01,16.44Z"/><g class="cls-2"><path d="m1371.74,209.69s-2.19,16.02,10.18,5.92c12.37-10.09,5.44-33.69-7.86-37.03-13.31-3.34-39.68,4.34-34.06,43.97,5.63,39.62,40.85,47.71,62.69,23.97,21.84-23.74,16.08-74.92-12.38-84.98-28.46-10.06-53.3-11.75-91.33,37.12-38.03,48.87-94.94,178.13-160.93,194.73-65.98,16.61-123.12,24.48-99.91,72.31,23.2,47.83,43.45,23.8,97.52,0,54.08-23.8-34.02,8.61-27.09,27.24,6.93,18.63,97.39,37.19,106.73-14.25,9.35-51.44,52.88-47.04,75.93-73.5,23.05-26.46,60.58-92.72,45.73-131.14-14.85-38.42-25.16-74.18,8.45-95.04,33.61-20.87,53.39-10.76,61.92,10.23,8.54,20.99-22.63,57.93-37.15,36.2-14.52-21.72,1.55-15.76,1.55-15.76Z"/><path class="cls-3" d="m1080.1,469.29l-30.84,14.22s-16.26-18.18-16.39-28.75l30.39-10.17,16.83,24.7Z"/><path class="cls-3" d="m1063.27,444.58l-16.56-22.03s17.13-18.73,37.6-15.65l16.53,26.34-37.57,11.34Z"/></g><path class="cls-4" d="m693.89,419.71s44.72-26.41,45.7-44.21l42.7,35.65s-52.61,49.33-74.75,50.25"/><path class="cls-4" d="m431.45,304.86s-41.57,21.82-24.59,75.85h-60.75s-13.05-62.17,48.51-93.48l36.83,17.63Z"/></svg>