<?xml version="1.0" encoding="UTF-8"?><svg id="B_N" xmlns="http://www.w3.org/2000/svg" viewBox="0 0 1080 1137"><defs><style>.cls-1{fill:#fff;}</style></defs><path d="m855.43,39.49s-4.39,27.35-11.39,36.04c0,0-14.38,8.27-26.31,5.27,0,0,19.15,7.71,20.08,10.67,0,0,2.88,21.07.83,30.45,0,0,6.78-22.11,12.71-29.46,0,0,5.93-7.36,26.05-7.69,0,0-14.34-2.73-20.22-9.12,0,0-5.47-8.27-1.75-36.16Z"/><path d="m327.04,809.29c-60.11-9.48-91.71-28.29-82.93-52.68,8.78-24.39,55.61-74.15,73.17-57.56,17.56,16.59,21.46,63.42,42.93,63.42s41.95-37.07,67.32-36.1c25.37.98,29.27,55.61,65.37,52.68,36.1-2.93,44.88-51.71,71.22-54.64,26.34-2.93,34.15,37.07,55.61,34.15,21.46-2.93,24.21-56.39,48.2-62.83,23.99-6.44,75.7,40.39,66.92,81.37-8.78,40.98-209.76,63.42-407.82,32.2Z"/><path class="cls-1" d="m309.96,730.75c-13.55-4.28-40.98,5.85-40.98,23.42s31.22,25.21,40.98,17.97c9.76-7.24,18.54-35.53,0-41.38Z"/><path d="m302.86,742.01c-8.3-2.62-25.12,3.59-25.12,14.36s19.14,15.45,25.12,11.02c5.98-4.44,11.36-21.78,0-25.37Z"/><path class="cls-1" d="m296.62,749.9c-3.35-1.06-10.13,1.45-10.13,5.79s7.72,6.23,10.13,4.44c2.41-1.79,4.58-8.78,0-10.23Z"/><path class="cls-1" d="m679.38,734.69c-11.04,8.94-17.71,37.41-3.06,47.1,14.65,9.68,38.24-12.15,37.58-24.28-.66-12.13-19.42-35.06-34.52-22.82Z"/><path class="cls-1" d="m428.02,755.14c-18.16,4.19-29.27,13.66-28.29,27.32.98,13.66,39.03,28.29,47.81,8.78,8.78-19.51-6.83-39.03-19.51-36.1Z"/><path class="cls-1" d="m573.14,754.85c-17.61.21-29.02,11.02-25.12,30.54,3.9,19.51,33.81,22.79,42.76,15.3,8.95-7.49,6.51-46.13-17.64-45.84Z"/><path d="m331.43,646.32c-14.17,3.08-35.12,23.42-13.66,37.07,21.46,13.66,112.2,44.88,211.71,37.07,99.52-7.81,141.47-14.63,133.66-46.83-7.81-32.2-11.28-43.9-67.59-27.32-56.31,16.59-111.92,27.32-234.85,3.9,0,0-10.73-8.78-6.83,9.76,3.9,18.54,161.89,31.15,217.53,16.55,55.64-14.6,57.6-3.86,57.6.04s-173.66,39.03-282.94-7.81c0,0,7.81-27.32-14.63-22.44Z"/><path d="m439.72,119.02c19.48-4.08,40,45.86,71.22,34.15,31.22-11.71,35.12-66.51,0-82.04-35.12-15.52-101.47-24.31-180.49,18.62-79.03,42.93-157.08,120-172.69,230.25-15.61,110.25,30.24,250.74,156.1,300.5,125.86,49.76,335.15,25.98,410.74-81.95,84.39-120.49,76.1-206.84,36.1-313.18-40-106.34-98.54-159.03-161.47-151.71-23.34,2.71-34.64,67.81,13.17,87.32,47.81,19.51,47.81,12.68,55.61,6.83,7.81-5.85,24.88,73.66,28.78,125.37,4.31,57.1-.49,191.71-148.78,242.45-148.3,50.73-243.91-59.51-261.47-105.37-17.56-45.86-51.71-268.3,153.18-311.23Z"/><path d="m148.11,107.14s8.71,16.08,8.54,23.46c0,0-4.2,10.12-11.65,13.35,0,0,13.13-3.67,14.81-2.5,0,0,9.99,9.87,12.69,15.61,0,0-5.35-14.31-5.2-20.54,0,0,.14-6.24,10.54-14.51,0,0-8.6,4.34-14.26,3.36,0,0-6.19-2.13-15.47-18.22Z"/><path d="m201.28,25.36S209.33,18.3,203.39,0C203.39,0,211.49,17.5,216.8,16.35c0,0,13.92-.22,19.13-3.78,0,0-20.63,17.45-19.3,21.06,1.33,3.61,4.46,25.4,3.02,25.93-1.44.53-7.7-20.85-13.96-22.26,0,0-16.06-3.53-21.37-2.39l16.96-9.54Z"/><path d="m832.04,501.08s-3.46,17.96-8.26,23.55c0,0-9.66,5.16-17.47,2.94,0,0,12.48,5.49,13.04,7.45,0,0,1.46,13.97-.08,20.12,0,0,4.93-14.45,9-19.19,0,0,4.06-4.73,17.35-4.54,0,0-9.41-2.1-13.16-6.44,0,0-3.44-5.57-.41-23.9Z"/><path d="m908.58,156.93s-7.85,16.52-13.9,20.73c0,0-10.65,2.57-17.65-1.53,0,0,10.71,8.44,10.75,10.48,0,0-2.08,13.89-5.12,19.46,0,0,8.4-12.76,13.52-16.32,0,0,5.12-3.56,17.94-.05,0,0-8.58-4.39-11.13-9.53,0,0-1.94-6.26,5.59-23.24Z"/><path d="m580.01,769.72c-8.3-2.62-25.12,3.59-25.12,14.36s19.14,15.45,25.12,11.02c5.98-4.44,11.36-21.78,0-25.37Z"/><path class="cls-1" d="m573.77,777.61c-3.35-1.06-10.13,1.45-10.13,5.79s7.72,6.23,10.13,4.44,4.58-8.78,0-10.23Z"/><path d="m422.21,732.6s-35.64,25.29-15.5,53.59c20.14,28.3,44.68-6.47,37.03-15.89-7.64-9.42-16.67-12.13-24.68-5.47-8,6.66-2.37,23.85,3.79,20.02,6.17-3.83,7.8-12.54,2.9-13.36s8.66-7.91,8.82,2.71c.16,10.62-9.63,23.68-19.98,11.98s-1.65-45.41,7.61-53.59Z"/><path d="m644.2,759.92s25.62,36.11,54.3,15.71c28.68-20.4-6.56-45.27-16.1-37.52-9.54,7.75-12.29,16.89-5.54,25,6.75,8.11,24.16,2.41,20.28-3.84-3.88-6.25-12.71-7.9-13.53-2.94-.83,4.96-8.01-8.77,2.75-8.93s24,9.76,12.14,20.24c-11.86,10.48-46.01,1.67-54.3-7.71Z"/><path d="m446.52,555.44c77.56-10.63,117.47-9.7,139.62-93.47,22.15-83.77-194.04,49.98-222.78-26.35-28.74-76.32-47.58-229.93,98.68-229.93s212.98,71.76,169.09,142.81c-43.89,71.06-169.13,40.44-158.03-30.51,11.1-70.95,95.19-32.54,84.72-9.8-10.47,22.74-27.99,55.09,19,28.28,46.99-26.81-4.36-83.03-40.73-81.51-36.38,1.52-106.62-31.46-100.86,63.02,5.76,94.48,61.35,89.75,110.56,92.11,49.21,2.36,125.88,28.13,50.43,93.82-75.45,65.69-149.69,51.52-149.69,51.52Z"/><path class="cls-1" d="m492.11,541.25s10.4-6.24,11.07,7.34c.67,13.58-15.35,32.14-40.37,23.25-25.02-8.89-27.77-25.94-19.19-38.74,8.58-12.8,40.95-34.76,61.58-28.96,20.64,5.8,44.85,16.91,45.98,41.55,1.14,24.63,14.07,59.04,45.76,63.82,31.7,4.78,86.36,2.84,100.78-36.78,14.42-39.62-23.29-58.81-42.33-50.7-19.04,8.1-42.14,46.44-9.16,43.4,0,0-9.56-13.04-2.92-20.89,6.64-7.85,17.03-21.52,32.33-14.96,15.3,6.57,20.53,31.62,7.71,47.75-12.82,16.13-56.25,34.57-83.26,18-27.02-16.57-29.74-34.18-37.97-56.53-8.23-22.35-24.62-53.18-57.36-48.65-32.74,4.52-75.04,20.48-75.18,47.89-.14,27.41,20.63,50.02,42.41,49.5,21.78-.53,46.42-12.87,42.85-39.68-3.57-26.81-42.14-20.71-46.01-9.37-3.87,11.34,5.69,23.49,16.72,16.38,11.02-7.1,6.55-13.61,6.55-13.61Z"/><path class="cls-1" d="m712.61,540.65s-.58-8.27,14.75-12.27c15.33-4,24.18,3.7,23.87,15.92-.31,12.22-27.19,5.91-38.62-3.65Z"/><path class="cls-1" d="m713.11,562.62s15.31-4.1,25.19-1.84,5.74,14.34-2.18,17.14c-7.92,2.8-23.01-15.3-23.01-15.3Z"/><path class="cls-1" d="m710.33,526.55s21.52-8.03,20.52-28.41c-1.01-20.38-28.17-4.88-27.15,6.14,1.02,11.01,10.27,11.79,6.64,22.27Z"/><path class="cls-1" d="m680.16,557.48c5.13-5.97-2.65-22.15-13.62-19.45-10.97,2.7-9.97,15.97-5.28,20.29,4.69,4.31,14.92,3.8,18.9-.84Z"/><path class="cls-1" d="m636.69,574.62s-18.47,3.32-14.71,17.17c3.76,13.85,18.77-1.51,19.54-6.2.76-4.69-.57-12.76-4.83-10.97Z"/><path class="cls-1" d="m621.8,553.02s-4-6.53-13.04-5.67c-9.04.86-16.57,10.15-3.5,20.74,13.07,10.59,16.53-15.07,16.53-15.07Z"/><path class="cls-1" d="m629.94,525.7s-3.72-20.69-15.81-20.19c-12.09.5-19.45,1.44-17.06,11.83,2.39,10.39,15.62,21.65,32.87,8.36Z"/><path class="cls-1" d="m661.87,509.09s2.15-19.69-14.04-21c-16.19-1.31-17.74,12.63-11.35,19.21,6.39,6.58,25.39,1.8,25.39,1.8Z"/><path class="cls-1" d="m689.31,509.42s-20.23-2.82-23.61-19.01c-3.37-16.19,10.68-18.69,18.44-12.98,7.77,5.71,10.62,28.07,5.16,31.99Z"/><circle class="cls-1" cx="608.37" cy="585.24" r="3.38"/><circle class="cls-1" cx="710.85" cy="583.91" r="3.38"/><path class="cls-1" d="m208.11,555.86s65.44-83.11,11.36-116.87c-54.08-33.76-89.01-52.19-45.69-117.96,43.31-65.78,98.45-6.7,105.97,22.69,7.52,29.39-3.75,72.35-33.5,66.09-29.75-6.26-26.99-42.49-11.96-44.26,15.03-1.78,18.12,20.3,9.87,23.91,0,0,30.21-8.19,19.17-33.27-11.04-25.09-36.52-56.98-64.49-25.5-27.97,31.48-28.39,54.66,5.39,83.83s89.37,50.83,3.88,141.35Z"/><path class="cls-1" d="m770.46,207.56s-48.6,3.93-51.54-39.27c-2.95-43.2-6.38-86.39-61.36-87.37-54.98-.98-50.31,42.49-43.07,52.91,7.24,10.42,33.25,22.2,37.67-3.33,4.42-25.52-21.11-13.74-21.11-8.84,0,4.91-.49,6.38,2.95,9.82,0,0-13.74-3.93-4.42-21.11,9.33-17.18,46.88-22.6,60.75,3.67,13.86,26.27,5.03,35.6,9.45,53.76,4.42,18.16,13.25,43.69,70.68,39.76Z"/><path d="m758.01,882.05s18.81,23.19,43.26,32.78c0,0,40.22-19.51,43.47-23.69l-27.77-37.56-58.95,28.48Z"/><path d="m886.82,953.48l49.59-32.16,68.21,14.03s-38.59,41.87-71.16,50.86l-46.52-33.04-.12.31Z"/><path d="m886.94,953.17s-79.73-30.78-85.67-38.34c0,0-74.85,30.41-91.67,26.94l68.16,51.4s94.1-19.48,109.18-40Z"/><path d="m758.01,882.05s-60.19,38.51-106.46,30.94l-63.95-34.88s99.68-12.26,118.84-25.12l51.57,29.07Z"/><polygon points="651.54 912.98 709.6 941.77 608.16 973.98 548.62 940.3 651.54 912.98"/><path d="m587.6,878.1s-70.11,6.59-122.12-2.32l-73.11-60.23,137.07,18.78,58.16,43.76Z"/><path d="m664.47,1013.49l-56.31-39.51-120.63,14.55,45.28,65.25s79.1-42.16,131.65-40.29Z"/><path d="m548.62,940.3l-83.14-64.52s-71.97,5.09-137.99-18.61l104.11,89.68s93.95-19.63,117.02-6.56Z"/><polygon points="431.6 946.86 487.53 988.53 330.56 991.59 282.95 942.33 431.6 946.86"/><path d="m282.95,942.33l-92.23,1.07s-27.38-56-18.94-79.41l87.71,7.41,23.46,70.93Z"/><path d="m259.49,871.41l-24.97-64.77s60.19-24.47,111.06,2.41l21.32,74.24-107.41-11.88Z"/><path d="m532.81,1053.77l78.79,60.52s-111.03,66.46-211.63-28.01l132.84-32.51Z"/></svg>