<?xml version="1.0" encoding="UTF-8"?><svg id="B_N" xmlns="http://www.w3.org/2000/svg" viewBox="0 0 1080 1137"><defs><style>.cls-1,.cls-2{fill:#fff;}.cls-2,.cls-3{stroke-width:4px;}.cls-2,.cls-3,.cls-4,.cls-5{stroke-miterlimit:10;}.cls-2,.cls-4{stroke:#000;}.cls-3{stroke:#fff;}.cls-4,.cls-5{fill:none;}.cls-5{stroke:aqua;}</style></defs><path class="cls-5" d="m70.13,571.55s12.64,34.28,81.03,19.73"/><path class="cls-5" d="m27.48,633.3s75.66,24.91,144.05-46.39"/><path class="cls-5" d="m12.93,706.23s114.95-2.91,174.61-128.04"/><path class="cls-5" d="m58.03,751.34s150.23-65.54,171.15-205.19"/><path class="cls-5" d="m223.2,722.74s56-124.19,44.36-195.48"/><path class="cls-5" d="m341.04,453.78s94.58,129.5,103.31,164.42"/><path class="cls-5" d="m386.87,413.76s121.12,96.03,125.31,113.49"/><path class="cls-5" d="m437.8,381.75s103.31,36.38,113.49,65.48"/><path class="cls-5" d="m485.97,334.08s85.7-.34,123.53,14.21"/><path class="cls-5" d="m500.37,325.01s128.75-66.49,150.95-64.53"/><path class="cls-5" d="m527.03,296.14s80.46-91.93,93.1-94.1"/><path class="cls-5" d="m496,316.28s15.49-86.85,20.84-111.81"/><line class="cls-5" x1="455.17" y1="249.09" x2="464.45" y2="314.82"/><path d="m819.6,669.48c-64.3-3.93-59.24,64.61-45.61,80.85,13.62,16.25,4.18,41.4,4.18,41.4,13.43-33.82,31.28-26.87,58.09-43.8,11.71-7.4,47.64-74.52-16.65-78.45Zm-1.93,62.28c-8.5,9.94-38.28,8.56-32.64-18.16,5.64-26.72,14.65-26.57,30.25-21.22,14.69,5.03,10.88,29.44,2.39,39.38Z"/><path d="m560.27,796.52c8.92,33.05,148.82,12.22,156.57-21.73,7.75-33.95,36.64-303.61,9.91-307.11-26.73-3.5-180.53,16.28-193.49,24.64-12.95,8.36-6.52,179.98,27.01,304.2Z"/><path class="cls-2" d="m743.29,766.84c-37.62,5.37-56.52,21.44-99.4,17.54-42.88-3.9-130.59,8.77-156.9,38.01-26.31,29.24,35.06,18.59,70.16,32.68,35.09,14.1,72.81,29.75,92.93,58.96,20.12,29.21,33.76,52.59,33.76,66.24s-4.87,55.55,6.82,55.55-9.89-70.44,8.21-81.03c18.1-10.58,55.88-51.51,81.33-53.46,25.45-1.95,68.33-33.13,68.33-66.27s10.72-49.7-30.21-54.57c-40.93-4.87-47.75-17.54-75.04-13.64Z"/><path d="m684.29,961.78s21.12-46.4-10.13-71.94c-31.25-25.55-94.6-43.09-52.69-63.55,41.9-20.47,94.53-41.9,118.89-37.03,24.36,4.87,49.7,27.29,24.36,31.19-25.34,3.9-8.77,1.95-52.62,9.75s-54.04,49.04-20.69,44.98,87.93-.09,122.52-20.1c34.6-20.01,12.63-72.41-45.58-80.32-58.21-7.91-106.93,28.15-188.79,28.15s-66.27,28.26-28.26,38.01c38.01,9.75,118.82,56.6,132.99,120.88Z"/><path class="cls-1" d="m602.63,656.36s-19.92,2.95-21.45,3c-1.53.06-4.39,1.69-11.28-6.49-6.89-8.19-16.76-28.31-11.85-36.93,4.9-8.62,11.49-9.01,21.36-11.67s19.18-4.23,21.92,7.8c2.74,12.02,6.41,28.61-2.3,29.54s-16.39,2.97-20.63-2.01c-4.25-4.99-13.54-15.85-8.82-21.08,4.72-5.23,15.29-5.77,18.79-2.37,3.5,3.4,2.57,8.45.84,10.04-1.73,1.58-3.26,1.48-5.63-.27-2.37-1.76-4.39,3.77-1.59,4.89,2.8,1.13,8.21,4.38,11.73-4.49,3.51-8.87,2.58-11.37-5.91-14.97-8.49-3.6-16.22-1.02-19.01.54-2.78,1.56-4.38,3.92-4.54,8.07-.16,4.15-.51,21.73,6.1,28.62,6.62,6.89,10.49,7.98,20.01,8.1,9.52.11,12.26-.29,12.26-.29Z"/><path class="cls-1" d="m621.15,556.96s-19.92,2.95-21.45,3c-1.53.06-4.39,1.69-11.28-6.49-6.89-8.19-16.76-28.31-11.85-36.93,4.9-8.62,11.49-9.01,21.36-11.67,9.88-2.66,19.18-4.23,21.92,7.8,2.74,12.02,6.41,28.61-2.3,29.54-8.71.93-16.39,2.97-20.63-2.01-4.25-4.99-13.54-15.85-8.82-21.08s15.29-5.77,18.79-2.37c3.5,3.4,2.57,8.45.84,10.04s-3.26,1.48-5.63-.27c-2.37-1.76-4.39,3.77-1.59,4.89,2.8,1.13,8.21,4.38,11.73-4.49,3.51-8.87,2.58-11.37-5.91-14.97-8.49-3.6-16.22-1.02-19.01.54-2.78,1.56-4.38,3.92-4.54,8.07-.16,4.15-.51,21.73,6.1,28.62,6.62,6.89,10.49,7.98,20.01,8.1,9.52.11,12.26-.29,12.26-.29Z"/><path class="cls-1" d="m673.12,543.83s20.13-.02,21.66.14,4.59-1.04,10.22,8.06c5.63,9.1,12.46,30.45,6.36,38.26s-12.67,7.24-22.83,8.44c-10.16,1.2-19.59,1.39-20.55-10.9-.96-12.29-2.18-29.24,6.57-28.89s16.64-.56,20.12,4.99c3.48,5.55,11.09,17.65,5.66,22.14-5.43,4.49-15.96,3.49-18.93-.38-2.97-3.87-1.31-8.74.62-10.05,1.94-1.31,3.44-.99,5.53,1.09s4.89-3.09,2.28-4.61-7.49-5.53-12.26,2.74c-4.77,8.27-4.2,10.88,3.68,15.68,7.88,4.8,15.9,3.37,18.88,2.23,2.98-1.14,4.91-3.24,5.66-7.32.76-4.08,3.67-21.42-1.88-29.21-5.55-7.78-9.22-9.42-18.62-10.92-9.4-1.5-12.18-1.49-12.18-1.49Z"/><rect x="624.05" y="668.49" width="67.33" height="108.5"/><path class="cls-1" d="m692.54,778.15h-69.65v-110.82h69.65v110.82Zm-67.33-2.32h65.01v-106.19h-65.01v106.19Z"/><path class="cls-3" d="m886.48,435.24c22.3-10.89,39.99-8.71,60.81,1.18,20.82,9.9,19.11,30.59,14.69,49.14-4.42,18.55,8.68,32.62,29.26,26.14,20.57-6.47,67.1-1.18,77,41.95,9.9,43.14-22.66,80.73-74.95,78.86-52.28-1.87-67.84-44.35-78.18-62.84-10.33-18.49-36.54-25.3-54.4-16.68-17.86,8.62-114.22,26.3-140.4-37.1-26.17-63.4,30.49-108.88,82.46-91.92,51.98,16.96,54.43,66.7,29.85,81.01-24.59,14.32-23.62-12.85-13.63-11.55,9.99,1.31.93-13.23-9.93-7.87-10.86,5.35-23.31,39.59,3.42,43.88,26.73,4.3,29.75-26.39,44.04-30.5,14.29-4.11,41.05-1.08,55.04,25,13.99,26.08,40.75,59.07,74.18,50.29,33.43-8.78,8.5-32.96-18.14-36.45-26.64-3.49-42.42-12.33-35.51-37.72,6.91-25.4-2.61-43.98-15.56-42.48-12.95,1.49-5.91,5.6-10.27,17.58-4.36,11.98-35.14,8.15-35.82-4.89-.68-13.04,2.85-28.62,16.04-35.06Z"/><path d="m787.75,382.67c11.89,24.87,6.16,53.41,6.16,53.41,0,0,4.14-20.98,22.63-31.31,18.49-10.33,58.45-47.74,11.98-80.92-46.47-33.18-52.66,33.95-40.77,58.82Zm23.09-48.58c14.05.48,23.44,11.24,22.59,25.27-.84,14.04-20.7,35.74-31.9,15.85-11.2-19.89-7.15-41.68,9.31-41.12Z"/><path d="m366.45,145.22c-72.29,13.35-47.82,87.86-28.26,102.11,19.56,14.24,16.03,44.7,16.03,44.7,5.56-41.15,27.25-38.37,52.27-64.51,10.93-11.42,32.25-95.65-40.04-82.3Zm15.01,69.51c-6.67,13.35-40.04,20.02-41.15-11.12-1.11-31.14,8.91-33.46,27.66-31.84,17.65,1.53,20.16,29.61,13.49,42.96Z"/><path class="cls-4" d="m367.97,171.77c-18.76-1.62-28.77.7-27.66,31.84,1.11,31.14,34.48,24.47,41.15,11.12,6.67-13.35,4.16-41.43-13.49-42.96Z"/><path class="cls-3" d="m221.87,308.71c-66.74,39.59-131.23,91.2-112.33,204.64,18.91,113.44,230.22,196.85,336.98,119,106.77-77.85,145.14-164.04,99.54-254.13-45.6-90.08-174.61-122.34-253.57-64.51-78.96,57.83-61.17,131.23-30.03,149.03,31.14,17.79,77.85-11.12,64.51-43.37-13.35-32.25-45.6-16.68-45.6-16.68,0,0-1.11-12.23,16.68-16.68,17.79-4.45,72.29,51.16,24.47,101.21-47.82,50.05-114.55,42.26-116.78-33.36-2.22-75.63,68.95-132.35,76.74-145.69s-27.8-18.91-60.61.56Z"/><path d="m122.63,549.98s-101.51,52.89-94.83,158.55c6.67,105.66,226.98-21.27,385.97-158.55,158.99-137.28,247.77-292.19,197.82-332.07-49.95-39.88-185.06,66.79-185.06,66.79l40.77,18.6s89.88-80.79,123.25-73c33.36,7.79-3.34,135.68-132.35,236.89-129.01,101.21-329.2,246.9-371.46,231.33-42.26-15.57-4.4-100.13,46.73-131.81l-10.85-16.73Z"/><path d="m142.93,578.26s-49.53,47.68-36.73,60.61c12.8,12.93,213.95-112.4,311.89-189.31,97.94-76.91,164.84-186.54,153.08-189-11.76-2.46-93.88,47.88-93.88,47.88l15.83,9.83s48.44-39.04,44.01-26.25c-4.42,12.79-112.14,153.66-378.03,302.32,0,0-29.16,18.86-7.95-7.43l-8.23-8.65Z"/><path class="cls-1" d="m122.63,549.98s-30.05,19.35-43.69,33.23c0,0,14.27,9.97,24.32,9.75,0,0,22.71-23.17,30.21-26.25,0,0-10.27-15.84-10.85-16.73Z"/><path class="cls-1" d="m142.93,578.26s-12.07,12.94-15.74,16.62c0,0,16.1-2.01,20.03-2.8l3.94-5.17-8.23-8.65Z"/><path class="cls-1" d="m103.27,592.96s8.68,2.61,23.92,1.92c0,0-17.23,16.52-22.82,35.56,0,0-20.79,6.43-28.47,6.19,0,0,14.4-33.26,27.37-43.67Z"/><path class="cls-1" d="m104.36,630.44s35.08-9.6,64.95-41.84l18.22-10.46s-11.89,25.26-20.5,36.66c0,0-71.63,43.16-62.67,15.64Z"/><path class="cls-1" d="m75.9,636.63s-15.8,30.6-.83,53.74c0,0-22.85,11.13-47.59,14.22,0,0-1.79-36.58,13.65-68.4,0,0,22.07,2.14,34.76.44Z"/><path class="cls-1" d="m75.07,690.37s59.83-25.86,91.97-75.57c0,0,48.78-27.46,52.83-30.58,0,0-17.51,54.28-53.29,87.42,0,0-68.64,47.98-91.5,18.73Z"/><path class="cls-1" d="m166.57,671.63s-50.37,53.11-100.55,75.87c0,0,50.93,10.93,174.98-69.73,0,0,18.79-56.25,20.5-65.55,0,0-66.41,45.19-94.92,59.42Z"/><path class="cls-1" d="m219.86,584.21l49.22-30.68s.37-14.67-1.3-24.84c0,0-28.87,19.04-41.46,26.26,0,0-1.77,12-6.45,29.26Z"/><path class="cls-1" d="m269.08,553.53s.9,27.24-7.59,58.68c0,0,51.78-32.76,56.57-40.67l-4.34-47.26-44.64,29.24Z"/><path class="cls-1" d="m318.06,571.55s2.91,46.04,2.39,52.53c0,0,58-38.36,89.13-70.5l-21.41-32.54s-58.89,43.87-70.11,50.51Z"/><path class="cls-1" d="m313.72,524.29l52.02-35.85-13.37-18.92s-35.93,26.6-42.18,30.53l3.53,24.24Z"/><polygon class="cls-1" points="365.74 488.44 388.17 521.04 454.46 469.52 424.58 444.38 365.74 488.44"/><path class="cls-1" d="m424.58,444.38l-19.77-16.2,47.04-41.17,24.41,10.03s-24.15,24.11-51.67,47.34Z"/><path class="cls-1" d="m454.46,469.52s50.89-38.8,60.04-53.83c0,0,17.89,10.42,19.34,12.25,0,0-48.05,58.36-56.04,62.1l-23.34-20.52Z"/><path class="cls-1" d="m514.5,415.7l-38.25-18.65s43.74-48.5,47.75-54.45c0,0,21.19,27.72,22.06,35.62,0,0-27.61,32.14-31.56,37.48Z"/><path class="cls-1" d="m546.06,378.22s24.38-32.56,26.45-39.98c0,0,19.16,3.37,20.8,5.25,0,0-30.32,51.19-39.08,58.55,0,0-4.67-20.09-8.17-23.82Z"/><polygon class="cls-1" points="524 342.6 530.59 334.07 512.73 334.07 524 342.6"/><path class="cls-1" d="m530.59,334.07s23.18-33.33,26.31-37.93c0,0,36.31-18.58,41.55-18.14,0,0-12,41.46-25.94,60.24,0,0-37.89-3.83-41.92-4.17Z"/><path class="cls-1" d="m598.44,278s13.02-47.19-10.52-48.11l16.71-16.35s26.72,8.2,19.43,54.01l-25.62,10.45Z"/><path class="cls-1" d="m556.9,296.14s10.32-17.15,13.27-24.7,5.87-18.32-15.96-5.66c0,0-22.03,23.25-22.66,25.23,0,0,18.29-11.11-9.9,23.08l35.24-17.95Z"/><path class="cls-1" d="m554.21,265.78l33.72-35.89s-11.21-.43-29.74,8.06c-18.53,8.49-54.42,35.34-54.42,35.34l-3.4,21.41,53.84-28.91Z"/><path class="cls-1" d="m503.77,273.29l8.05-43.4s-44.16,24.36-54.73,32.82l9.81,40.47s32.99-26.32,36.87-29.89Z"/><polygon class="cls-1" points="477.29 308.45 500.37 294.7 494.55 319.19 477.29 308.45"/><path d="m224.61,636.64s19.31,9.77,26.77,9.85l-10.38,31.28s-59.28,41.56-84.02,47.38l34.54-67.63,33.09-20.87Z"/><path class="cls-1" d="m251.38,646.49l-10.38,31.28s37.44-18.89,39.66-25.37c0,0-20.73-1.62-29.28-5.9Z"/><path d="m201.65,625s-24.24-11.9-26.45-14.81l-8.16,4.61s-20.12,24.5-22.37,27.41c0,0,35,11.81,37.48,12.45,0,0,19.07-20.68,19.5-29.66Z"/><path d="m144.67,642.21s-44.44,8.73-40.07-11.64l-29.1,5.82s-16.01,32.01-.42,53.98c0,0,52.93-27.79,69.6-48.16Z"/><path d="m103.27,592.96s15.95,5.52,23.92,1.92l15.74-16.62s-8.22-7.02-9.45-11.55c0,0-14.08,9.01-30.21,26.25Z"/><path d="m554.21,265.78s38.85-24.69,2.69,30.36l41.55-18.14s15.93-48.65-10.52-48.11l-33.72,35.89Z"/><path d="m524,342.6s19.73,23.35,22.06,35.62c0,0,22.93-28.2,26.45-39.98,0,0-37.89-3.83-41.92-4.17l-6.59,8.52Z"/><path d="m503.77,273.29l-3.4,21.41-23.08,13.75s-3.77-3.57-9.99-5.15c0,0,36.96-29.35,36.47-30.01Z"/></svg>