<?xml version="1.0" encoding="UTF-8"?><svg id="B_N" xmlns="http://www.w3.org/2000/svg" viewBox="0 0 1080 1137"><defs><style>.cls-1,.cls-2{fill:#fff;}.cls-3{fill:none;}.cls-3,.cls-2{stroke:#000;stroke-miterlimit:10;}.cls-2{stroke-width:6px;}</style></defs><path class="cls-3" d="m502.37,663.84s-20.96,173.96-150.49,188.43c-129.53,14.47-189.02,40.91-239.26,60.74-50.24,19.83-110.56,0-110.56,0,0,0,47.1,43.63,171.38,0,124.28-43.63,192.58-44.98,224.1-49.58,63.46-9.26,102.62-54.17,111.13-153.02l-6.31-46.58Z"/><path class="cls-3" d="m510.44,719.86l9.41,35.81s1.32,120.32-89.91,136.18c-91.23,15.87-157.16,4.41-244.51,40.55-87.35,36.14-114.68,35.4-152.58,29.16"/><path class="cls-3" d="m537.52,787.65s15.53,88.14-28.84,116c-44.37,27.86-129.08,6.86-201.75,41.82-72.67,34.96-190.34,70.66-236.62,61.41"/><path class="cls-3" d="m468.64,766.46s22.78,74.47,106.08,52.02"/><path class="cls-3" d="m390.31,842.35s42.27,83.88,103.09,81.23,104.45-33.05,145.44-34.38"/><path class="cls-3" d="m554.22,791.75s34.23,112.45-1.4,140.66c-35.62,28.21-97.1,15.01-114.62,47.39-17.52,32.38-69.09,44.28-114.04,44.28s-84.15-15.87-113.47,0"/><path class="cls-3" d="m569.03,794.58s-2.27,87.07,41.04,113.33c43.31,26.26,57.85,27.58,90.91,50.06,33.05,22.48,87.99,9.8,116.05,6.88"/><path class="cls-3" d="m666.91,932.4c-59.8,13.66-154.99,25.56-203.91,20.27-48.92-5.29-60.82-17.19-89.91-34.38-29.09-17.19-46.92-48.02-113.37-51.78"/><path class="cls-3" d="m167.25,892s79.79-13.24,109.1,31.65c29.31,44.89,125.82,73.98,172.1,66.05s167.97,40.17,240.66-39.41"/><path class="cls-3" d="m100.56,917s67.22,13.08,120.3,57.43c53.07,44.35,150.91,57.57,197.19,56.25"/><path d="m565.36,387.12c43.15-8.33,87.82-22.71,90.09,24.23,2.27,46.94,7.79,114.48-14.27,115.16-22.07.68-27.37-22.04-53.86-21.28-26.5.76-90.85,6.81-90.85,43.15s3.79,245.29,55.27,245.29,189.27-15.9,191.54-51.48c2.27-35.58-11.36-199.87-25.74-243.78-14.38-43.91,30.28-60.57,32.55-24.98,2.27,35.58,83.28,314.19,41.64,336.9-41.64,22.71-259.68,90.09-305.86,65.87-46.18-24.23-47.7-65.11-60.57-149.9-12.87-84.79-76.46-268.01-19.68-291.47,56.78-23.47,159.74-47.7,159.74-47.7Z"/><path d="m593,522.05c12.45-1.26,22.34,39.73,0,44.39-22.34,4.65-34.45,7.68-34.45,25.1s-3.36,81.21,46.39,79.59c49.75-1.61,74.3-14.48,63.54-58.39s-17.11-62.44,12.56-69.45c29.67-7.01,66.01,164.09,42.54,188.31-23.47,24.23-126.43,57.54-152.17,40.13-25.74-17.41-46.94-102.21-53.75-154.44-6.81-52.24-31.02-84.46,75.34-95.22Z"/><path d="m502.91,668.89s-20.69,76.63-34.27,97.57c0,0,5.57,22.15,18.47,32.13,0,0,22.01-52.16,21.42-89.18,0,0-5.37-40.04-5.62-40.52Z"/><path d="m519.85,755.68s-1.32,39.66-11.16,58.53c0,0,10.8,12.05,31.47,8.49,0,0-.82-28.19-2.63-35.04,0,0-13.71-17.92-17.68-31.98Z"/><path d="m554.22,793.66l14.81-.44,1.16,26.4-8.55,1.69s-4.78-21.39-7.42-27.64Z"/><path d="m540.16,822.7s10.4.78,21.49-1.39c0,0,8.8,33.98,7.3,54.91,0,0-31.47,4.51-40.29,4.79,0,0,12.34-18.23,11.5-58.3Z"/><path d="m509.27,813.85s-1.96,32.14-33.37,56.39c0,0-20.96-13-24.87-27.43,0,0,30.8-27.04,35.76-46.16,0,0,16.6,16.22,22.48,17.19Z"/><path d="m451.03,842.82s-9.69-23.63-11.42-35.55c0,0-24.14,26.58-49.29,35.09l12.26,20.26s33.85-5.37,48.46-19.79Z"/><path d="m475.9,870.25s-16.26,18.67-48.95,22.12c0,0,24.79,22,36.37,24.63,0,0,53-4.54,65.34-35.99,0,0-21.35,3.33-52.76-10.76Z"/><path d="m568.95,876.22l13.97-2.47s9.52,19.2,14.88,23.94c0,0-27.29,7.33-31.46,10.66,0,0,2.8-16.04,2.62-32.14Z"/><path d="m566.33,908.35s.64,4.87-6.39,16c-7.03,11.13-21.69,18.67-35.51,22.17-13.83,3.5-24.99,5.95-24.99,5.95,0,0-64.17,10.43-113.1-27.74,0,0,62.1-7.06,76.99-7.74,0,0,23.23,17.77,103.01-8.64Z"/><path d="m426.94,892.37s-17.36-18.02-24.37-29.76c0,0-86.59,7.96-95.06,13.31,0,0,27.46,9.27,41.89,25.16,0,0,63.96-4.24,77.54-8.72Z"/><path d="m307.51,875.92s-17.04-9.61-47.79-9.4c0,0-59.11,12.72-87.24,23.65,0,0,40.95-4.42,59.96,3.92,0,0,57.09-16.92,75.07-18.17Z"/><path d="m349.4,901.09s-80.55,3.74-87.27,9.15c0,0,8.24.98,17.29,17.74,9.05,16.76,22.66,21.27,22.66,21.27,0,0,40.63-23.37,84.24-24.52,0,0-26.23-11.77-36.92-23.65Z"/><path d="m491.93,953.96s-20.71,2.87-33.41,8.73c-12.71,5.85-16.67,11.73-19.31,15.4s-9.97,12.74-12.26,12.84c0,0,15.82,1.2,28.58-2,12.76-3.2,59.06,4.71,88.14,8.03,29.07,3.32,123.01-4.11,145.45-46.67,0,0-28.51-13.49-30.14-16.13,0,0-93.16,22.41-167.05,19.8Z"/><path d="m426.94,990.93s-53.07,1.18-124.86-41.67c0,0-55.91,26.86-76.41,29.02,0,0,47.73,35.22,117.4,45.79,0,0,79.54-9.44,83.86-33.15Z"/><path d="m262.14,910.24s-63.86,10.6-97.43,30.48c0,0-21.67-13.97-34.89-15.55l102.63-31.08s20.54,1.48,29.69,16.15Z"/><path d="m129.82,925.17l-27.32-7.76S46.03,929.95,0,910.24C0,910.24,34.62,949.23,129.82,925.17Z"/><path d="m164.71,940.72s-52.97,29.73-131.85,20.84c0,0,111.51,50.25,192.82,16.72,0,0-34.01-33.64-60.97-37.56Z"/><path class="cls-1" d="m439.61,807.26l29.03-40.8s2.95,17.64,18.15,30.2c0,0-6.08,24.22-35.76,46.16,0,0-11.67-21.65-11.42-35.55Z"/><path class="cls-1" d="m487.11,798.59s24.65-56.13,21.42-89.18c0,0,8.67,38.34,11.31,46.27,0,0,0,35.7-10.58,58.17,0,0-8.61-4.08-22.15-15.26Z"/><path class="cls-1" d="m537.52,787.65s4.8,8.3,16.7,6.01c0,0,5.58,20.56,7.42,27.64,0,0-13.08,2.31-21.49,1.39,0,0,1.82-20.26-2.63-35.04Z"/><path class="cls-1" d="m540.16,822.7s-12.38,4.37-30.89-8.85c0,0-4.61,33.46-33.37,56.39,0,0,23.23,13.13,52.76,10.76,0,0,14.62-23.01,11.5-58.3Z"/><path class="cls-1" d="m561.64,821.31l8.55-1.69s3.07,32.06,12.72,54.13l-13.97,2.47s-1.21-34.23-7.3-54.91Z"/><path class="cls-2" d="m290.78,537.55s-91.65,35.02-90.23,53.58,102.86,247.2,137.69,248.72c34.83,1.51,99.98-34.06,99.98-34.06v-29.24"/><path class="cls-2" d="m657.19,481.84s38.61-8.33,35.58-46.94c-3.03-38.61-21.62-64.75.17-66.82,21.79-2.07,38.44-27.05,11.19-25.54-27.25,1.51-117.22-11.21-119.56-77.15-2.33-65.94,115.01-202.21,355.01-143.92,239.99,58.29,112.8,300.56-50.72,268.01-163.53-32.55-180.94-15.9-177.91-1.51s21.96,86.31-53.75,93.88Z"/><path class="cls-2" d="m787.18,669.51s9.08-35.58,31.8-35.58,37.1-4.54,43.91-27.25c6.81-22.71,17.41-67.38,77.98-48.45,60.57,18.93,70.43,76.79,41.65,107.29-28.78,30.5-76.86,32.34-89.92,0-13.05-32.34-35.39-25.9-49.02-18.33-13.63,7.57-15.14,4.54-23.47.76-8.33-3.79-24.98.76-32.93,21.58Z"/><path d="m133.06,421.95s26.5-5.3,15.9-23.47c-10.6-18.17-42.68-10.6-50.11,11.73-7.43,22.33,2.42,51.86,29.67,39.75,27.25-12.11,37.85-12.11,51.48-6.81,13.63,5.3,53,13.63,45.42-12.11-7.57-25.74,0-31.8,15.9-29.53,15.9,2.27,21.96,62.84-12.11,76.46-34.07,13.63-49.52.76-61.86,0-12.34-.76-12.34,6.81-19.91,22.71-7.57,15.9-19.68,43.91-40.88,39.37-21.2-4.54-25.74-31.8-24.23-43.91,1.51-12.11-6.81-12.11-16.66-9.84s-38.61,7.57-31.8-46.18c6.81-53.75,57.54-87.82,101.45-68.89,43.91,18.93,30.25,50.19,16.64,54.24-13.61,4.05-21.94,6.32-18.91-3.52Z"/><path d="m213.31,391.67c13.41-16.09-.76-29.53-8.33-31.8-10.15-3.05-24.23,5.3-21.2,9.08s.76-1.51,6.81-1.51,19.68,17.41,5.3,30.28c-14.38,12.87-43.15,3.03-34.83-28.77,8.33-31.8,40.88-37.85,64.35-26.5,23.47,11.36,23.47,41.64,9.08,53-14.38,11.36-28.77,5.3-21.2-3.79Z"/><path d="m217.86,501.44c-7.47-9.07-21.91,2.9-15.88,11.29,6.03,8.39,26.47,1.58,15.88-11.29Z"/><path d="m246.28,516.4c-10.26.54-19.34,12.3-8.74,19.87,10.6,7.57,26.57-20.81,8.74-19.87Z"/><path class="cls-2" d="m385.34,462.77c-28.18,2.34-106.16,23.53-104.65,40.19,1.51,16.66,93.88,283.9,115.08,284.66s42.44-11.05,42.44-11.05l-52.87-313.8Z"/><path d="m396.84,507.31c-2.21-3.98-14.32-20.63-43.09-20.63-16.81,0-54.51,20.44-45.42,59.81,9.08,39.37,56.78,37.1,65.87,12.11,9.08-24.98-6.81-46.18-18.17-46.18s-31.89,11.66-28.06,25.13c3.83,13.48,31.98,15.98,27.75,2.99-4.23-12.98-11.4-2.99-11.4-2.99,0,0-5.88-6.64-.5-10.59,5.39-3.95,31.15,10.8,15.62,24.25-15.53,13.45-36.36,3.83-36.92-10.67-.56-14.5.95-31.91,22.15-37.97,21.2-6.06,52.18,4.74,52.18,4.74Z"/></svg>