<?xml version="1.0" encoding="UTF-8"?><svg id="B_N" xmlns="http://www.w3.org/2000/svg" xmlns:xlink="http://www.w3.org/1999/xlink" viewBox="0 0 1080 1137"><defs><style>.cls-1{fill:none;}.cls-2{clip-path:url(#clippath);}.cls-3{fill:#fff;}</style><clipPath id="clippath"><path class="cls-1" d="m214.97,403.42s-41.38-136.04-17.7-225.71c0,0,70.84-85.12,134.27-37.02,63.43,48.1,221.74,308.7,222.27,313.96.53,5.26-66.25,98.99-220.62,103.41-154.37,4.43-180.15-36.48-194.24-62.15-18.75-34.17,30.71-85.46,76.01-92.49Z"/></clipPath></defs><path d="m356.98,26.01c-51.89.6-191.13-1.27-207.58,24.05-16.45,25.32-27.85,70.88-15.19,211.38,12.66,140.5,11.39,224.04,65.82,232.9,54.43,8.86,235.43,15.19,256.95-53.16,21.52-68.35,46.83-315.17,25.32-337.96-21.52-22.78-80.38-22.15-94.3,10.76-13.92,32.91,30.38,58.22,48.1,45.57,17.72-12.66,11.39-48.1-12.66-39.24,0,0,25.32-13.92,30.38,7.59,5.06,21.52,13.92,225.3-17.72,259.48-31.64,34.18-64.55,69.62-136.7,67.09-72.15-2.53-97.46-55.69-101.26-151.89-3.8-96.2,5.06-226.57,40.5-226.57s162.02,10.13,165.81-7.59c3.8-17.72,7.59-43.04-47.47-42.4Z"/><path d="m775.34,640.31c-53.81.6-198.18-1.27-215.24,24.05-17.06,25.32-28.87,70.88-15.75,211.38,13.12,140.5,11.81,224.04,68.25,232.9,56.43,8.86,244.11,15.19,266.42-53.16,22.31-68.35,48.56-315.17,26.25-337.96-22.31-22.78-83.34-22.15-97.78,10.76-14.44,32.91,31.5,58.22,49.87,45.57,18.37-12.66,11.81-48.1-13.12-39.24,0,0,26.25-13.92,31.5,7.59,5.25,21.52,14.44,225.3-18.37,259.48-32.81,34.18-66.93,69.62-141.74,67.09-74.81-2.53-101.06-55.69-104.99-151.89-3.94-96.2,5.25-226.57,42-226.57s167.99,10.13,171.93-7.59c3.94-17.72,7.87-43.04-49.22-42.4Z"/><path d="m237.41,569.46c53.81.6,198.18-1.27,215.24,24.05,17.06,25.32,28.87,70.88,15.75,211.38-13.12,140.5-11.81,224.04-68.25,232.9-56.43,8.86-244.11,15.19-266.42-53.16-22.31-68.35-48.56-315.17-26.25-337.96s83.34-22.15,97.78,10.76c14.44,32.91-31.5,58.22-49.87,45.57-18.37-12.66-11.81-48.1,13.12-39.24,0,0-26.25-13.92-31.5,7.59-5.25,21.52-14.44,225.3,18.37,259.48,32.81,34.18,66.93,69.62,141.74,67.09,74.81-2.53,101.06-55.69,104.99-151.89,3.94-96.2-5.25-226.57-42-226.57-36.75,0-167.99,10.13-171.93-7.59-3.94-17.72-7.87-43.04,49.22-42.4Z"/><path d="m716.61,79.96c53.81.6,198.18-1.27,215.24,24.05,17.06,25.32,28.87,70.88,15.75,211.38-13.12,140.5-11.81,224.04-68.25,232.9-56.43,8.86-244.11,15.19-266.42-53.16-22.31-68.35-48.56-315.17-26.25-337.96,22.31-22.78,83.34-22.15,97.78,10.76,14.44,32.91-31.5,58.22-49.87,45.57-18.37-12.66-11.81-48.1,13.12-39.24,0,0-26.25-13.92-31.5,7.59-5.25,21.52-14.44,225.3,18.37,259.48,32.81,34.18,66.93,69.62,141.74,67.09,74.81-2.53,101.06-55.69,104.99-151.89,3.94-96.2-5.25-226.57-42-226.57-36.75,0-167.99,10.13-171.93-7.59-3.94-17.72-7.87-43.04,49.22-42.4Z"/><path d="m286.56,694.2c.26.96-1.85.85-3.99.85s-4.41,4.7-2.56,8.12c1.85,3.42,3.99,5.98,13.24,1.28,9.26-4.7,9.11-8.12,3.84-18.66-5.27-10.54-7.97-8.83-19.08-7.12-11.11,1.71-18.51,4.13-17.8,21.65.71,17.52,6.12,37.17,14.24,35.74,8.12-1.42,30.9-5.84,32.18-11.96,1.28-6.12,3.42-26.63,1.57-27.77-1.85-1.14-3.56,1.28-3.56,3.99s2.28,9.97-10.68,14.1c-12.96,4.13-15.66,5.55-17.09-2.56-1.42-8.12-5.27-17.8-.57-19.65,4.7-1.85,8.69-3.7,10.25,1.99Z"/><path d="m301.51,683.09s.43,10.4,4.56,10.11c4.13-.28,4.13,1.71,4.27,4.27s0,5.13,7.26,3.56,32.61-8.54,36.46-3.99c3.84,4.56,2.85,23.22,0,24.07-2.85.85-6.27-2.14-5.41-9.4.85-7.26,2.28-15.52-2.71-14.67-4.98.85-2.52,5.77-1.97,9.72.55,3.95,4.68,19.55-2.37,18.09-7.05-1.46-4.08-14.63-4.71-18.09s-1.77-4.31-5.19-3.74c-3.42.57-4.17-.03-2.65,6.68,1.52,6.71,3.29,14.95-1.8,15.25-5.09.29-8.5-.99-6.94-10.67s-1.52-10.79-5.46-10.24c-3.94.55-2.94.84-2.37,5.54.57,4.7,1.14,18.66-.57,21.22,0,0,46,7.12,49.13-5.41,3.13-12.53,2.56-37.31-1.14-44.86,0,0,1.83-2.41-4.71-3.13-6.54-.72-11.38-2.71-10.24,2.99,1.14,5.7,3.28,10.4-1,11.39-4.27,1-5.98,3.13-6.69-4.56-.71-7.69.68-11.53-8.63-10.75-9.31.78-9.03,1.06-6.46,7.9,2.56,6.84,4.7,10.68-1,11.39-5.7.71-8.12,2.42-9.4-3.99-1.28-6.41-.43-10.97-10.25-8.69Z"/><path d="m331.42,759.28s4.74,12.9.87,13.78c-3.86.89-4.06,2.88-6.03-9.72s-5.72-21.94,0-21.76c5.72.18,14.69-1.53,16.12,9.87,1.42,11.39,2.14,39.16,1.99,46.99-.14,7.83.85,18.23-9.4,19.51-10.25,1.28-11.25,1.85-10.11,5.41,1.14,3.56,3.14-3.28,4.35,0s6.33,11.96.92,11.82c-5.41-.14-6.56-.85-10.76,0-4.19.85-8.04-18.09-7.04-20.37,1-2.28,4.98-3.7,8.4-2.28,3.42,1.42,5.55,4.98,4.98-2.28-.57-7.26.75-19.21,6.57-17.72,5.82,1.49,4.25-1.5,4.25-10.76s1.42-25.35-1.85-23.92l-3.28,1.42"/><path d="m252.81,1013.91c.43-2.7-25.35.71-33.32,1.99-7.97,1.28-8.12,8.26-20.51,8.83-12.39.57-13.1-5.41-6.69-12.25,6.41-6.84,14.81-5.27,18.8-1,3.99,4.27-1.57,6.69-6.12,5.27-4.56-1.42-2.42-3.56-2.42-3.56-6.98,2.56-5.84,7.55,1.28,7.26,3.06-.12,5.01-1.92,8.16-4.12,4.19-2.92,10.49-6.54,24.31-7.84,24.21-2.28,30.33-5.41,46-22.36,15.66-16.95,12.1-76.19,12.25-85.44.14-9.26,14.24-9.83,19.94-16.8,5.7-6.98-4.27-37.88-5.98-50.55-1.71-12.67-4.41-13.1-9.83-13.39-5.41-.28-7.83-2.85-10.97-20.51-3.13-17.66-.43-30.05,3.28-31.9,3.7-1.85,4.98-7.41,10.54-7.27,5.55.14,11.96,20.08,13.67,24.93,1.71,4.84-4.13,7.83-7.83,6.95-3.7-.88-1.57-4.53,0-5.95,0,0,2.71-7.69-4.41-7.69s-6.69,8.69-5.41,14.81c1.28,6.12-2.85,10.97,6.41,9.97,9.26-1,19.89-3.72,18.84-14.89-1.04-11.17-1.61-46.63-15.71-48.06-14.1-1.42-26.35,1.14-27.63,13.67-1.28,12.53-1.99,56.39,1,64.23,2.99,7.83,9.32,13.45,17.12,16.98,0,0,4.95,25.18,4.67,31.3-.28,6.12,1.71,7.97-6.41,11.68-8.12,3.7-19.65,6.12-20.08,13.96-.43,7.83,5.7,77.61-.43,84.73s-38.17,31.47-54.83,26.77c-16.66-4.7-43.15,5.98-42.15,13.96,1,7.97,2.42,17.52,18.8,12.25s32.75-7.55,33.32-4.7c.57,2.85-34.75,17.09-31.33,26.91,3.42,9.83,27.91,12.67,38.45,5.13,0,0-21.65,5.84-25.78-4.7-4.13-10.54,8.54-14.24,16.52-18.09,7.97-3.84,23.21-12.39,24.49-20.51Z"/><path d="m238.28,1041.96s3.56,7.55-4.56,8.4c-8.12.85-9.26-3.42-5.13-9.11,4.13-5.7,9.83-6.55,13.39-8.83,3.56-2.28,13.96-11.53,16.8-16.52,2.85-4.98,9.97-10.82,19.37-17.8,9.4-6.98,20.79-16.66,20.51-41.58,0,0-3.7,24.35-14.1,33.32-10.4,8.97-23.64,16.8-25.78,20.22-2.14,3.42-10.82,14.81-19.94,20.22-9.11,5.41-25.35,11.25-24.64,18.66.71,7.41,15.66,10.97,25.06,3.13,9.4-7.83,9.11-13.81,2.85-15.66s-13.24,4.56-11.96,7.41,8.26,5.7,8.12-1.85Z"/><path class="cls-3" d="m277.73,895.85s7.67,5.93,14.66,4.89c0,0,6.27,59.27-14.66,81.8,0,0,5.98-8.08,4.56-34-1.42-25.92-4.56-52.69-4.56-52.69Z"/><path d="m283.85,946.4s3.6,1.42,6.85,0l-.45,3.28s-4.84,1.99-6.41.43v-3.7Z"/><path d="m287.28,926.61s-4,3.13-4,8.69,4.13,8.83,5.7,7.69c1.57-1.14,6-19.23-1.7-16.38Z"/><path class="cls-3" d="m288.84,932.02c-.9-1.1-2.54,2.8-1.56,4.18.99,1.38,4.69-.33,1.56-4.18Z"/><path d="m287.48,906.85c-2.94-1.11-5.05-1.32-5.34,1.81-.28,3.13-.59,12.25,4.83,11.04,5.42-1.21,3.99-11.53.5-12.85Z"/><path class="cls-3" d="m286.3,910.21c-1.77.62-2.58,3.58-1.59,3.87,1,.28,3.93.76,3.82-1.12s-1.35-3.06-2.23-2.75Z"/><path class="cls-3" d="m282.02,894.83s-1.77-6.68,6.51-9.09c8.29-2.41,18.54-6.97,19.39-9.82,0,0-.62,7.66-11.63,9.46-11.01,1.79-14.26,9.43-14.27,9.46Z"/><path class="cls-3" d="m288.53,897.55s1.17-6.4,9-8.82c7.83-2.42,12.25-6.69,12.39-9.26,0,0,1.95,7.25-7.07,9.04-9.02,1.78-14.77,7.6-14.32,9.04Z"/><path d="m278.78,835.21s.8,38.2,4.5,37.6c3.7-.6,10.29.55,9.99-8.14-.3-8.69,2.01-25.37,0-26.72s-14.43-5.13-14.49-2.74Z"/><path d="m317.3,878.91s15.81,3.62,18.83,0c3.02-3.62,1.4-36.09-10.46-35.84-11.86.25-8.37,35.84-8.37,35.84Z"/><path d="m363.51,696.63c-2.57.15,7.26,1.9,6.75-2.73-.52-4.63-6.3-6.92-7.24-4.28-.94,2.64.14,6.77,2.55,4.68,2.41-2.09-.79-4.44-1.05-3.24-.26,1.2.49,1.9.49,1.9,0,0-2.03.59-1.58-1.83.46-2.42,4.29-1.49,4.68.84.4,2.32-1.33,4.48-4.61,4.68Z"/><path d="m363.99,700.11s-2.65,4.21-1.91,5.19c.73.98,9.32,2.66,10.33,1.21,1-1.45-1.98-6.87-3.85-7.07-1.87-.2-4.56.67-4.56.67Z"/><path d="m371.93,698.36s2.39,5.3,5.31,3.67c2.92-1.63,6.41-6.11,3.6-9.62-2.8-3.51-7.71.55-7.71.55,0,0,.16,4.65-1.21,5.4Z"/><path d="m371.26,690.22c.58,1.54,7.29-1.09,6.41-3.83-.89-2.74-3.14-6.75-5.23-5.56-2.09,1.19-4.71,6.17-4.71,6.17,0,0,2.67.92,3.53,3.22Z"/><path d="m360.85,688.18s3.88-2.31,4.99-1.73c1.11.58,3.96-6.51.54-6.62-3.42-.11-5.59,1.6-5.68,2.76-.09,1.17.14,5.59.14,5.59Z"/><path d="m337.46,848.17s-1.76-27.94,3.22-28.36c4.98-.43,5.98,100.47,0,104.21-5.98,3.74-9.73.79-9.71,7.82.02,7.03,0,17.8,0,17.8,0,0-5.97-20.89-3.83-24.94s6.81,1.72,10.32-4.87c3.5-6.59,3.19-52.68,0-71.65Z"/><path d="m319.69,882.07l.76,10.08s8.54-.28,9.54-.85v-7.81l-10.3-1.42Z"/><path d="m320.45,892.15s1.11,3.18.38,5.4c-.73,2.22-.67,2.5-7.75,3.85l-9.12-.67s8.25-.96,8.56-2.32,0-6.27,0-6.27h7.93Z"/><path d="m329.99,891.29s2.06,11.75-4.49,13.17c0,0,8.37,3.41,8.89,4.63,0,0,3.76-2.69,3.06-18.47l-7.46.67Z"/><path d="m325.51,904.47s-8.2-2.85-12.43-3.06c0,0-9.16,2.5-9.12,4.7s0,4.51,0,4.51l9.12,2.35s-.67-5.93,12.43-8.5Z"/><path d="m313.08,912.96s7.02,2.13,12.43,1.87c0,0-6.27.74-6.69,6.15-.43,5.41-.15,10.84-.15,10.84,0,0-7.82,1.44-10.74,0,0,0,1.98-15.5,5.16-18.87Z"/><polygon points="303.96 910.62 304.72 931.38 296.74 930.38 294.89 908.22 303.96 910.62"/><path d="m304.72,931.38l3.2.45s-1.57,13.45-.21,15.93l-2.42-.14-.57-16.23Z"/><path d="m305.29,947.62l-6.62-1.21v17.53s7.19.91,8.47.63l-1.85-16.95Z"/><path d="m307.71,947.76s.37,12.07,2.46,16.86c0,0,10.87,1.07,12.68.58,0,0-5.03-10.89-5.03-17.01l-10.11-.43Z"/><path d="m307.14,964.56l3.03.06s-1.18,1.94,2.66,7.78c3.84,5.84,7.55,11.11,7.55,11.11,0,0-9.15,1.14-12.34,0,0,0,.66-14.24-.91-18.94Z"/><path d="m320.38,983.5l19.06-2.76s17.54,11.3,21.24,11.3c0,0-3.84,3.13-.85,6.27l-25.99,4.53-13.46-19.34Z"/><path d="m333.84,1002.84s-19.3,3.02-30.26,1.17c0,0-3.24,10.45-10.31,15.98,0,0,22.7,3.96,32.52,2.25,9.83-1.71,20.17-5.06,20.17-5.06l-12.13-14.33Z"/><path d="m345.97,1017.17l10.73,14.89s33.89-13.39,35.32-17.09c0,0-15.57-4.56-20.18-8.47,0,0-4.13,6.61-25.87,10.67Z"/><path d="m356.7,1032.06l10,12.96s-9.15-3.99-13.99-11.68l3.99-1.28Z"/><path d="m366.7,1045.02s40.98,2.28,45.68-28.2c0,0,18.19-3.7,18.42,5.84.23,9.54-12.23,34.46-64.1,22.36Z"/><path d="m243.91,1053s28.03-25.81,43.07-22.73c15.03,3.08,12.8,12.9,3.1,14.76-9.71,1.85-25.29,11.15-1.55,12.77,23.74,1.62,62.81-5.85,57.44-15.36-5.36-9.51-17.9-11.46-12.13-15.04,5.77-3.58,18.87,5.96,18.87,5.96,0,0-6.69-8.4-13.96-8.12-7.26.28-8.97,3.56-7.83,5.84s16.43,9.25-.47,13.96c-16.9,4.7-48.8,8.55-38.27,2.42,10.54-6.12,11.68-19.65-8.69-18.66-20.36,1-39.59,24.21-39.59,24.21Z"/><path d="m308.04,983.5s.52,10.11-4.47,20.51l-25.92-2.28,23.02-18.38,7.37.15Z"/><path class="cls-3" d="m271.07,870.68s.25-1.68,1.78-.55c1.53,1.14,2.11,4.52-1.08,6.44-3.19,1.92-5.28.7-5.9-1.37s-.12-7.53,2.35-9.24c2.46-1.72,5.82-3.35,8.59-1.28,2.77,2.07,7.64,3.73,10.98.73,3.34-3.01,8-9.1,4.99-14.18s-8.44-2.71-9.26.07c-.82,2.78,1.28,8.7,3.88,4.86,0,0-2.26-.13-2.52-1.54-.26-1.42-.81-3.76,1.26-4.83,2.07-1.07,5.25.59,5.86,3.42.6,2.82-1.27,9.17-5.46,10.62-4.2,1.45-6.35.18-9.5-.92-3.15-1.1-7.95-2.07-10.37,1.88-2.42,3.95-4.46,9.95-1.51,12.4,2.95,2.46,7.25,2.22,9.13-.18,1.88-2.41,2.74-6.17-.48-8.17-3.22-2-5.99,2.72-5.11,4.15s3.05,1.47,3.26-.35c.21-1.83-.89-1.92-.89-1.92Z"/><path class="cls-3" d="m290.63,846.76s-.95-.67-.01-2.69c.93-2.02,2.55-2.29,3.85-1.17,1.3,1.12-1.78,3.47-3.83,3.86Z"/><path class="cls-3" d="m293.06,848.66s.92-2.02,2.04-2.89,2.06.66,1.66,1.76c-.4,1.11-3.7,1.13-3.7,1.13Z"/><path class="cls-3" d="m288.91,845.75s1.05-3.05-1.25-4.75c-2.3-1.7-3.04,2.62-1.75,3.49,1.28.87,2.19-.06,3,1.26Z"/><path class="cls-3" d="m289.57,851.77c-.19-1.09-2.63-1.69-3.32-.26-.68,1.43.84,2.5,1.73,2.38.88-.12,1.74-1.28,1.59-2.12Z"/><path class="cls-3" d="m283.89,857.69s-1.06-.15-1.77.91c-.71,1.06-.38,2.7,1.93,2.22,2.31-.47-.16-3.13-.16-3.13Z"/><path class="cls-3" d="m281.66,854.37s-2.57-1.44-3.59-.09c-1.02,1.35-1.58,2.23-.24,2.9,1.34.67,3.73.24,3.83-2.81Z"/><path class="cls-3" d="m282.7,849.44s-1.94-1.99-3.52-.35-.21,3.04,1.07,2.94c1.28-.11,2.46-2.59,2.46-2.59Z"/><path class="cls-3" d="m285.18,846.5s-2.11,1.94-4.16.86c-2.05-1.08-1.07-2.82.24-3.15s3.98,1.35,3.92,2.29Z"/><path class="cls-3" d="m251.53,700.77s2.24.51.55,2.46c-1.69,1.95-6.32,2.39-8.58-2.11-2.26-4.5-.4-7.2,2.45-7.82,2.85-.63,10.17.61,12.23,4.11,2.07,3.5,3.93,8.2.85,11.72-3.07,3.52-5.81,9.93-2.1,14.74s11.46,11.71,18.63,8.17c7.17-3.54,4.52-11.11.85-12.5-3.67-1.39-11.86.84-6.94,4.75,0,0,.4-3.04,2.34-3.24,1.94-.21,5.15-.72,6.39,2.19s-1.33,7.02-5.2,7.55c-3.87.53-12.24-2.64-13.77-8.45-1.53-5.81.41-8.58,2.21-12.72,1.8-4.14,3.6-10.51-1.48-14.19s-12.97-7.03-16.58-3.29c-3.61,3.74-3.73,9.56-.68,12.34,3.05,2.78,8.05,4.32,11.07.18,3.03-4.14-3.06-8.36-5.08-7.32-2.02,1.05-2.3,3.96.14,4.44,2.44.47,2.68-1.01,2.68-1.01Z"/><path class="cls-3" d="m281.82,729.59s1.01-1.21,3.63.25c2.62,1.46,2.83,3.68,1.18,5.31s-4.5-2.75-4.81-5.56Z"/><path class="cls-3" d="m279.01,732.67s2.64,1.45,3.69,3.05c1.06,1.6-1.09,2.72-2.55,2.06-1.45-.65-1.15-5.11-1.15-5.11Z"/><path class="cls-3" d="m283.35,727.37s4,1.72,6.54-1.2c2.53-2.92-3.22-4.36-4.53-2.72s-.14,2.96-2.01,3.92Z"/><path class="cls-3" d="m275.17,727.65c1.49-.14,2.54-3.38.68-4.45s-3.46.88-3.38,2.09c.08,1.21,1.55,2.48,2.7,2.36Z"/><path class="cls-3" d="m267.75,719.39s.31-1.42-1.04-2.49c-1.35-1.07-3.6-.78-3.2,2.38.4,3.16,4.24.1,4.24.1Z"/><path class="cls-3" d="m272.45,716.71s2.2-3.32.48-4.84c-1.72-1.52-2.85-2.35-3.89-.62-1.03,1.74-.7,5.01,3.41,5.45Z"/><path class="cls-3" d="m279,718.62s2.88-2.42.83-4.72c-2.05-2.3-4.09-.6-4.07,1.14.01,1.74,3.24,3.58,3.24,3.58Z"/><path class="cls-3" d="m282.72,722.26s-2.4-3.04-.74-5.7c1.66-2.66,3.91-1.16,4.23.64.32,1.8-2.22,5.24-3.49,5.06Z"/><ellipse cx="306.49" cy="852.94" rx="1.82" ry="2.86" transform="translate(-370.7 250.56) rotate(-28.58)"/><ellipse cx="310.04" cy="867.92" rx="1.09" ry="1.72" transform="translate(-29.47 11.1) rotate(-1.96)"/><path class="cls-3" d="m308.33,847c-2.27-1.78-5.25-1.42-6.61,1.78-1.36,3.2,1.09,10.9,5.18,11.54,4.09.64,6.68-9.2,1.43-13.31Zm-1.6,10.15c-2.33-.36-3.73-4.75-2.95-6.57.78-1.82,2.47-2.02,3.77-1.01,2.99,2.34,1.51,7.94-.81,7.58Z"/><path class="cls-3" d="m307.14,864.19c-2.16.84-.65,3.26-.26,4.69,0,0,.95,2.6,2.13,3.42,1.18.82,2.71,1.12,3.86-4.3,1.15-5.42-3.57-4.65-5.73-3.81Zm4.77,3.9c-.69,3.23-1.6,3.05-2.3,2.57-.71-.49-1.27-2.04-1.27-2.04-.23-.86-1.13-2.3.16-2.8,1.29-.5,4.11-.96,3.42,2.27Z"/><path class="cls-3" d="m297.59,740.62c-.12-2.11-1.56,5.96,2.24,5.54,3.8-.42,5.68-5.17,3.51-5.94-2.16-.77-5.55.11-3.84,2.09,1.72,1.98,3.64-.64,2.66-.86-.99-.22-1.56.41-1.56.41,0,0-.49-1.67,1.5-1.29s1.22,3.52-.69,3.84c-1.91.33-3.68-1.09-3.84-3.79Z"/><path class="cls-3" d="m308.6,768.77c.97,2.03,4.07,2.81,5.48.49,1.41-2.32-.76-5.06-3.1-5.11s-3.74,1.78-2.38,4.63Zm1.2-3.28c1.15-1.79,3.7,1.19,3.42,2.49-.28,1.3-2.29,1.46-3.14.62-.66-.66-1.43-1.32-.28-3.11Z"/><path class="cls-3" d="m310.95,768.2c.35.13,2.17-1.56.72-2.17s-2.77,1.41-.72,2.17Z"/><path class="cls-3" d="m311.91,775.91c2.54,3.2,2.79,3.06,3.7,1.9.91-1.16,3.08-2.48,1.35-3.99s-4.07-2.09-4.07-2.09"/><path class="cls-3" d="m314.48,770.93s1.89.13,3.04.68c1.16.55,2.73.03,2.2-2.22-.54-2.25-.14-2.59.03-3.6.16-1.01-3.78.12-4.01.42s.28,3.87-1.25,4.71Z"/><path class="cls-3" d="m315.28,764.08s3.92-4.14,1.64-5.32c-2.28-1.17-2.46,1.33-3.9.41s-4.92-.39-3.1,3.23c0,0,3.8-.02,5.36,1.67Z"/><path class="cls-3" d="m308.21,763.47s-.3-3.46-2.57-2.44-.82,3.77.78,4.88c1.6,1.1,1.78-2.43,1.78-2.43Z"/><path class="cls-3" d="m278.21,762.57c-.45,2.21,1.56,4.69,4.08,3.69,2.52-1.01,2.44-4.5.61-5.95s-4.06-.84-4.69,2.26Zm2.94-1.9c1.99-.73,2.24,3.18,1.24,4.05-1,.87-2.71-.21-2.88-1.4-.14-.92-.35-1.92,1.65-2.65Z"/><path class="cls-3" d="m280.42,763.54c.2.32,2.67.07,1.88-1.3-.79-1.37-3.07-.54-1.88,1.3Z"/><path class="cls-3" d="m276.55,770.28c.1,4.09.38,4.13,1.81,3.75,1.43-.38,3.95-.12,3.48-2.37-.47-2.25-1.99-4.12-1.99-4.12"/><path class="cls-3" d="m281.6,767.84s1.43,1.24,2.02,2.38,2.16,1.67,3.09-.45,1.45-2.15,2.19-2.85-3.09-2.18-3.46-2.08c-.37.1-2.11,3.25-3.84,3.01Z"/><path class="cls-3" d="m286.36,762.85s5.63-.95,4.51-3.26c-1.11-2.31-2.76-.42-3.36-2.02-.6-1.6-3.7-3.27-4.42.72,0,0,3.04,2.27,3.27,4.56Z"/><path class="cls-3" d="m281.09,758.11s1.85-2.94-.58-3.49c-2.43-.55-2.93,2.52-2.31,4.36s2.89-.87,2.89-.87Z"/><path class="cls-3" d="m294.22,739.61s-4.7-1.55-3.84,2.09c.87,3.64,1.22,8.16,3.22,7.07,2-1.09,2.89-4.98,2.89-4.98,0,0-.9-2.95-.12-3.61.79-.65-2.16-.57-2.16-.57Z"/><path class="cls-3" d="m297.39,745.89s-3.54,2.74-2.39,4.54c1.15,1.81,5.87,3.94,5.77,2.86s-.59-4.04.22-4.65.52,4.73,3.91,2.97c3.4-1.77.99-2.85,3.8-3.67s-1.33-3.27-1.3-4.74c.03-1.48,4.32-3.33,1.78-3.73-2.54-.4-5.23-.07-4.53,2.47.71,2.53.23,7.01-7.27,3.96Z"/><path d="m705.39,1014.05s-23.86-25.61-32.8-47.51c-8.94-21.9-11.44-43.48-9.04-43.7,2.4-.22,8.83,10.46,9.37,12.31.54,1.85,2.29,9.72-1.2,5.45-3.87-4.74-3.6-6.97-3.71-8.28-.11-1.31-1.85-.33-1.42,2.07.44,2.4,9.92,42.28,38.79,79.66Z"/><path d="m707.19,1011.28s-16.78-23.86-21.9-44.68c-5.12-20.81-2.07-19.51,3.71-19.94,5.78-.44,18.63,7.41,13.51,14.82-5.12,7.41-11.17,1.58-12.15-.71-.98-2.29-2.4-6.65,1.53-7.52,3.92-.87,3.05,5.48,3.05,5.48,0,0,3.92-1.99,2.5-4.83-1.42-2.83-7.74-6.32-10.46-2.72-2.72,3.6,12.53,48.71,20.21,60.1Z"/><path d="m709.2,1011.28s1.59-3.02-.81-10.01c-2.4-6.99-6.21-25.84-2.18-35.65,4.03-9.81,9.37-21.79,9.59-28.33,0,0-3.49,10.13-13.4,7.74-9.92-2.4-23.54-10.46-38.47-65.71,0,0-2.4,6.49,0,20.19,2.4,13.7,5.39,23.12,6.16,22.8.76-.33-1.09-2.72.11-3.16,1.2-.44,5.45,8.94,1.96,10.35-3.49,1.42-6.97-13.4-8.61-19.07-1.63-5.67-5.56-24.08-5.23-33.67.33-9.59,1.74-22.99,3.6-22.99s2.18,8.06,2.4,11.44c.22,3.38,2.51,21.03,10.03,37.27,7.52,16.24,20.6,37.44,31.06,36.1,10.46-1.34,5.99-4.28,9.48-7.11s6.23-4.3,5.73,1.06c-.5,5.37-3.44,22.58-6.82,29.23-3.38,6.65-6.59,16.84-3.11,24.57,3.49,7.74,8.01,21.09,6.27,34.38l-7.74-9.43Z"/><path d="m717.1,926.17s-5.06,5.41-9.94-5.47c-4.88-10.88-11.2-32.02-6.73-48.69,4.47-16.67,9.7-27.35,14.17-29.86,0,0-13.46,20.87-10.52,47.78,2.94,26.92,13.02,36.23,13.02,36.23Z"/><path d="m707.16,930.91s1.77,2.63-1.78,1.12c-3.54-1.5-17.83-7.09-29.05-40.59-11.22-33.49-8.16-52.78-1.41-62.92,6.76-10.13,15.69-14.71,19.51-31.93,0,0,4.74,11.71,1.47,23.27-3.27,11.55-4.9,32.8-1.74,32.58,3.16-.22,7.52-14.17,6.65-23.21,0,0,3.13,14.28-1.05,25.88s-7.72,21.79-5.27,40.05c2.02,15.02,6.6,32.58,12.67,35.74Z"/><path d="m702.24,804.35s47.02,37.56,38.38,74.61c-8.64,37.05-40.46,117.75-7.73,143.89,32.73,26.14,73.65-3.64,72.74-53.87-.91-50.24-81.77-155.58-103.39-164.62Z"/><path class="cls-3" d="m757.47,886.96s29.87,34.39,25.32,75.31-23.82,46.34-23.39,50.33,4.75,11.95,15.66,3.09c10.91-8.87,20.23-28.19,17.96-64.56-2.27-36.37-35.55-64.17-35.55-64.17Z"/><path d="m777.89,855.59s-10.35,1.5-12.35-7.34c0,0,9.51-5.17,12.35,7.34Z"/><path d="m783.9,849.58s-14.85-27.37,2-45.4c0,0,18.19,20.36-2,45.4Z"/><path d="m793.42,864.03s-2.85-29.64,28.19-39.32c0,0,9.2,14.06-28.19,39.32Z"/><path d="m802.59,891.81s-1.5-35,26.62-44.62c0,0,7.76,20.42-26.62,44.62Z"/><path d="m820.63,917.31s-11.19-28.14,14.68-50.36c0,0,9.87,32.3-14.68,50.36Z"/><path d="m837.26,934.3s-6.63-7.28-14.48-7.44c-7.84-.17-11.68-7.51-12.52-11.35-.83-3.84-5.01-8.35-9.01-10.18-4.01-1.84-3.17-9.51-3.5-13.85s-2.84-8.35-8.68-14.52c-5.84-6.18-8.18-12.02-7.51-17.86.67-5.84-3.41-2.84-3.38,0,.04,2.84,1.87,3.17-1.46,3.5-3.34.33-6.68,2.5-2,3.34,4.67.83,4.51,3.34,5.01,8.01s2.17,11.52,7.51,14.52c5.34,3,5.84,9.85,4.84,14.69-1,4.84-3,12.85,3.17,12.52s9.63-2.07,9.91,1.64c.28,3.7-2.06,9.38,3.95,12.22,6.01,2.84,18.94-.64,28.17,4.77Z"/><path d="m669.45,774.83s-7.98,4.65-3.32,7.31c4.65,2.66,11.7,1.3,15.16-9.65,3.45-10.96-7.25-16.52-24.83-7.75-17.58,8.76-26.08,31.73-11.2,37.2,14.89,5.47,21.54,1.48,31.51-7.16,9.97-8.64,27.77-18.98,44.8-5.5,17.03,13.48,69.65,15.77,79.24,0,9.59-15.77.54-33.3-21.53-28.86-22.07,4.44-28.88,3.67-26.8,9.04,2.08,5.37,1.41,14.68-22.52,6.04-23.93-8.64-1.99-25.93,5.32-24.6,7.31,1.33,9.97,4.65,6.65,4.65s-13.38,5.26-7.02,10.94c6.36,5.68,21.65,2.35,19.65-12.94-1.99-15.29-13.96-28.59-37.23-25.26-23.27,3.32-22.6,30.58-29.25,33.9-6.65,3.32,4.36,18.24-17.76,27.07-22.12,8.83-20.13-11.78-13.48-15.11,6.65-3.32,11.97-3.99,12.63.66Z"/><g class="cls-2"><path d="m271.74,209.69s-2.19,16.02,10.18,5.92c12.37-10.09,5.44-33.69-7.86-37.03-13.31-3.34-39.68,4.34-34.06,43.97,5.63,39.62,40.85,47.71,62.69,23.97,21.84-23.74,16.08-74.92-12.38-84.98-28.46-10.06-53.3-11.75-91.33,37.12-38.03,48.87-94.94,178.13-160.93,194.73-65.98,16.61-123.12,24.48-99.91,72.31,23.2,47.83,43.45,23.8,97.52,0,54.08-23.8-34.02,8.61-27.09,27.24,6.93,18.63,97.39,37.19,106.73-14.25,9.35-51.44,52.88-47.04,75.93-73.5,23.05-26.46,60.58-92.72,45.73-131.14-14.85-38.42-25.16-74.18,8.45-95.04,33.61-20.87,53.39-10.76,61.92,10.23,8.54,20.99-22.63,57.93-37.15,36.2-14.52-21.72,1.55-15.76,1.55-15.76Z"/><path d="m301.92,267.41c-15.73,3.71-17.11-1.44-32.51,0-15.4,1.44-18.7,5.35-8.53,30.74,10.17,25.4,21.45,32.89,3.02,43.96-18.42,11.07-1.92,28.33-26.12,49.49-24.19,21.16-35.5,43.82-58.16,43.89-22.67.07-16.09,27.6-29.41,26.54-13.33-1.07-6.18,35.72,6.19,23.51,12.37-12.21,77.42-48.95,101.39-36.28,23.98,12.67,34.88,25.89-8.51,22.54-43.39-3.35-79.5-2.85-65.02,21.16,14.48,24.01,80.48,27.05,106.04,19.18,25.56-7.87,34.29,6.07,25.67,9.52-8.63,3.45-15.45,23.18,28.52,12.01,43.97-11.17,64.38-10.54,83.59-4.83,19.21,5.71,32.44-12.41,17.03-16.7-15.41-4.29-54.73-42.71-27.79-36.2,26.94,6.51,9.99,25.4,37.85,24.09,27.86-1.3,53.48-6.64,52.63-28.23-.85-21.59-7.99-36.79-39.47-35.05-31.49,1.74-54.86-1.52-75.75-42.54-20.9-41.03-48.66-80.42-54.16-106.14-5.5-25.72-9.14-42.38-22.44-42.03-13.3.35-5.19,19.28-14.06,21.38Z"/><path class="cls-3" d="m176.63,264.4c-18.41,5.79-40.72,18.12-37.33,61.19,3.39,43.07,34.68,65.45,64.11,50.77,29.43-14.67,32.5-78.19,17.33-97.42-15.16-19.23-38.06-16.44-44.11-14.53Z"/><path d="m208.44,275.02c-7.43-4.04-33.54-10.09-49.29,13.48-15.76,23.57-14.86,54.06,5.45,69.17,20.3,15.11,47.72,4.73,52.13-13.74,4.41-18.47.94-53.7-10.49-54.52-11.43-.82-28.78,1.62-26.22,15.17,2.56,13.54,17.58,14.29,19.13,9.97s-1.15-9.76-3.36-9.97c-2.21-.21,6.71-8.5,10.15,3.07,3.44,11.57,8.99,33.81-4.94,37.91-13.93,4.11-39.42-4.86-38.52-31.01.89-26.15,18.95-41.37,33.31-36.6,14.36,4.77,19.01,18.3,21.26,13.55,2.24-4.75-8.6-16.49-8.6-16.49Z"/><path class="cls-3" d="m312.79,473s-5.83-14.04-22.29-9.39c-16.45,4.65-17.04,22.64-11.03,31.25,6.01,8.6,20.37,15.84,28.89,5.45,8.52-10.39,6.6-23.74,4.43-27.3Z"/><path d="m309.65,473.94c-3.26-3.66-8.93-7.12-19.12-2.27-10.19,4.85-9.18,11.96-3.09,17.11,6.1,5.14,4.7,9.92,10.7,8.77,6-1.15,4.37-5.7,8.44-11.34,4.07-5.64,3.07-12.26,3.07-12.26Z"/><path class="cls-3" d="m302.06,478.29c-.32-1.23-9.38-4.23-11.79.66-2.41,4.88,4.96,11.78,8.62,8.92,3.66-2.85,3.91-6.71,3.16-9.58Z"/><path d="m297.38,480.27c-1.19-1.41-2.57,3-1.28,3.23,1.28.23,2.95-1.25,1.28-3.23Z"/><path class="cls-3" d="m495.25,453.54c18.15-12.88-61.11-4.03-80.24-22.08-19.13-18.05-38.65-53.86-51.57-78.28-12.92-24.42-28.09-56.68-34.53-75.72-6.44-19.03-12.28-29.74-12.94-12.5s10.59,42.97,28.75,69.01c18.16,26.04,29.16,44.92,36.86,61.53,7.7,16.61,70.89,88.39,113.67,58.03Z"/><path class="cls-3" d="m312.71,271.94c-2.2-1.3-3.57-2.93-3.02,4.56s9.24,31.84,15.75,49.13c6.52,17.29,27.14,52.13,40.06,75.25,12.92,23.12,48.13,52.95,63.24,59.2,15.11,6.25,52.78,21.55,58.55,16.67,5.77-4.88,8.52-6.19-1.37-6.19s-21.58,2.77-47.7-12.54c-26.12-15.3-54.49-36.27-71.51-66.48-17.02-30.22-48.71-83.44-50.73-99.16s-3.26-20.44-3.26-20.44Z"/><path class="cls-3" d="m413.75,518.58s-13.75-24.42-51.41-19.54-28.04-16.61-24.19-27.02c3.85-10.42,17.05-15.95,18.15-8.14,1.1,7.81-12.65,9.77-6.32,4.88,6.32-4.88-17.13,20.41,3.95,20.63s22.24-17.82,12.86-29.32c-9.38-11.5-26.15-13.14-39.08.87-12.92,14.01-16.33,48.85-2.26,57.64,14.08,8.79,24.53,2.6,36.9-2.93,12.37-5.54,29.14-12.7,51.41,2.93Z"/><path class="cls-3" d="m401.03,502.74s-5.16-4.47,0-19.31c5.16-14.84,5.71-27.21-3.91-34.05-9.62-6.84-24.32-11.07-25.36,0-1.04,11.07,1.13,28.75,10.57,28.3,9.43-.46,12.73-10.88,7.51-14.13-5.22-3.26-7.7,3.91-7.42,5.21.27,1.3-4.95-3.26-1.92-10.74,3.02-7.49,10.72-4.56,14.85,0,4.12,4.56,6.87,7.81,3.57,16.28s-7.57,16.84,2.13,28.44Z"/><path class="cls-3" d="m298.16,276.61c1.63,5.44,4.52,18.08,3.82,23.35s-2.38,9.9-7.06,12.35c-4.68,2.44-8.31,3.81-11.22-2.57-2.91-6.39-7.8-15.9-6.75-18.75,1.05-2.85,9.48-11.14,12.17-9.93,2.69,1.21,7.52,11.1,5.89,14.76-1.63,3.66-5.26,5.8-6.23,4.43-.97-1.37-5.31-5.23-4-6.81,1.3-1.58,3.02-3.99,3.66-2.39.64,1.6-1.16,2.2-1.06,2.99s.88,2.57,1.88,2.13c1-.44,4.35-2.05,3.48-4.77-.86-2.72-1.06-6.86-3.34-5.73-2.27,1.14-8.87.5-8.89,3.53-.03,3.03.95,16.98,4.66,17.2,3.72.22,14.9-1.25,14.48-6.12s-2.1-24.2-7.19-24.06-13.82,3.45-17.06,8.38-.13,14.84,2.06,19.14c2.19,4.3,7.21,16.81,12.36,15.68,5.15-1.13,14.6-1.14,15.17-7.45s.1-29.01-2.25-32.71c-2.36-3.7-4.58-2.66-4.58-2.66Z"/><path class="cls-3" d="m269.35,358.19s-.32-1.78,1.69-1.52c2.01.26,8.03,4.04,5.95,11.26s-5.39,11.48-10.68,13.56c-5.29,2.07-10.55,6.32-11.35,11.19-.81,4.86.84,15.43-5.74,15.25-6.58-.18-5.21-11.26-3.71-13.38s3.56-1.52,2.2.22c0,0,2.2,2.49,2.87-1.24.67-3.73-3.07-4.59-5.11-2.8-2.05,1.79-5.9,8.35-2.25,17.32,3.65,8.96,10.39,5.77,12.91,2.19,2.51-3.58.76-9.03.81-12.58.05-3.55,2.29-9.79,6.76-10.73s11.94-2.4,14.25-14.02c2.32-11.62-2.26-17.64-5.79-18.59-3.53-.94-6.23,2.22-4.65,6.44,1.57,4.22,4.8,1.95,4.66-.28s-.65-3.74-2.79-2.28Z"/><path class="cls-3" d="m172.27,459.66s-9.07-1.85-14.47,2.74c-5.4,4.59-8.02,12.71-2.02,14.68,6,1.97,10.11-8.74,10.85-11.81s5.64-5.61,5.64-5.61Z"/><path class="cls-3" d="m274.05,367.25s-2.4,4.22-5.45,4.9-6.21-.89-4.84-3.92c1.37-3.03,5.75-1.22,6.86-.53,1.11.69,3.42-.45,3.42-.45Z"/><path class="cls-3" d="m282.19,367.87s-2.97,3.67-2.89,7.34c.09,3.67,2.05,7,4.26,4.76s-.21-6.92-1.02-8.06c-.81-1.14-.36-4.05-.36-4.05Z"/><path class="cls-3" d="m278.89,385.13s-2.97,3.67-2.89,7.34c.09,3.67,2.05,7,4.26,4.76,2.21-2.23-.21-6.92-1.02-8.06s-.36-4.05-.36-4.05Z"/><path class="cls-3" d="m263.32,376.7s-2.4,4.22-5.45,4.9c-3.05.68-6.21-.89-4.84-3.92,1.37-3.03,5.75-1.22,6.86-.53s3.42-.45,3.42-.45Z"/><path class="cls-3" d="m302.13,318.25s-7.88.69-5.92,17.01c1.96,16.33,2.65,26.09-6.53,27.77-9.18,1.67-14.43-7.7-12.17-13.5,2.25-5.79,7.41-10.97,11.84-5.24,4.42,5.74-2.17,10.46-3.98,9.27-1.81-1.19-2.8-2.95-1.78-3.98s3.3,1,3.3,1c0,0,2.72-3.87-1.69-5.14-4.41-1.27-6.22,3.66-6.45,5.85-.22,2.19,1.14,8.09,7.65,8.16s9.68-3.43,9.41-8.56c-.27-5.12-6.29-29.38,6.33-32.65Z"/><path class="cls-3" d="m231.61,424.58s-2.33-4.66,3.15-6.99c5.47-2.33,11.29,4.09,10.82,8.78-.47,4.69-4.53,8.66-9.45,8.13-4.92-.53-7.05-3.14-9.79-5.86-2.74-2.72-9.4-6.36-14.51-1.16-5.12,5.2-6.22,11.7-1.81,15.84s9.28.27,9.87-3.57c.59-3.84-1.71-6.39-3.3-5.49-1.59.9-3.54,3.7-1.56,6.12,1.98,2.42,2.31-1.84,2.69-1.22.38.62-2.66,5.94-5.78,2.59-3.12-3.34-4.36-6.88.35-10.14,4.7-3.25,7.01-3.65,11.21-.29,4.21,3.36,14.12,8.16,18.87,4.55s8.56-11.17,4.62-17.15c-3.94-5.98-10.04-5.01-14.51-1.8-4.46,3.21-3.79,8.02-.97,9.56,2.82,1.54,4.03-.7,3.59-1.71-.44-1.01-2.2-2.35-3.49-.2Z"/><path class="cls-3" d="m278.9,330.9s-2.81-1.87-.16-5.59c2.65-3.72,8.12-2.23,9.23.84,1.11,3.06-.18,7.19-3.35,8.92-3.16,1.73-5.24,1.04-7.73.52-2.49-.51-7.64.05-9.21,5.37-1.58,5.32-.31,9.75,3.62,10.43s5.75-3.72,4.96-6.31c-.79-2.59-2.95-3.19-3.66-1.97s-1.06,3.74.87,4.39c1.93.65.86-2.09,1.28-1.87s.15,4.74-2.76,4c-2.91-.73-4.72-2.38-2.81-6.34,1.9-3.96,3.19-5.16,6.77-4.87,3.57.29,11.06-.92,12.89-5.12,1.82-4.2,1.89-10.41-2.3-12.41-4.19-2-7.63,1.14-9.4,4.97-1.77,3.83.08,6.49,2.26,6.25,2.18-.24,2.25-2.12,1.69-2.55-.57-.43-2.04-.51-2.19,1.34Z"/><path class="cls-3" d="m251.29,421s.84-3.89,5.18-4.58c4.34-.69,12.99-4.01,15.69-11.62,2.7-7.61-.98-15.75-7.35-15.22,0,0,6.53,6.94,3.25,13.48-3.27,6.54-7.08,10.07-10.07,10.4s-6.93,2.43-6.69,7.54Z"/><path class="cls-3" d="m198.25,442.47c-5.58-5.11-11.61-6.78-21.21,2.56-3.02,2.94-8.56,8.64-1.19,15.33,7.37,6.7,21.88-2.56,23.74-5.2,1.86-2.64,4.24-7.58-1.34-12.69Zm-4.32,11.54c-4.17,2.56-7.86,5.38-12.94,0s1.18-8.99,4.75-9.96c3.57-.97,7.22-.62,9.6,2.38,1.87,2.35,2.75,5.02-1.41,7.58Z"/><path d="m185.75,444.05c-3.57.97-9.82,4.58-4.75,9.96s8.77,2.56,12.94,0c4.17-2.56,3.28-5.23,1.41-7.58-2.38-3-6.03-3.35-9.6-2.38Z"/><path class="cls-3" d="m186.33,444.94c-2.66.72-7.32,3.42-3.54,7.42,3.78,4.01,6.54,1.9,9.64,0,3.11-1.9,2.45-3.9,1.05-5.65-1.77-2.23-4.49-2.5-7.16-1.77Z"/><path d="m189.79,447.27c1.99,1.35,1.43,1.68,0,2.93-1.43,1.25-3.22.37-4.11-1-.89-1.37,2.49-3.03,4.11-1.94Z"/><path class="cls-3" d="m314.38,398.11s1.41-31.2-12.94-31.13c-14.35.06-14.27,20-13.02,34.3,1.26,14.3-9.29,26.96-14.23,30.13-4.93,3.17-16.53,15.85-8.46,25.34,8.07,9.49,11.31-1.64,15.68-1.64s31.54,6.73,52.39-3.74c20.84-10.46,25.54-19.86,25.38-34.64-.16-14.77-15.24-16.4-27.63-4.94,0,0,11.34-15.98,6.61-26.91-4.74-10.94-13.16-12.16-18.43-2.34-5.27,9.82-5.35,15.57-5.35,15.57Z"/><path d="m291.69,406.85s6.64,6.91,12.31-1.34c5.67-8.25,3.4-15.35.65-17.84-2.75-2.49-7.61-1.92-7.29,4.8,0,0,2.11-4.22,4.54-2.11,2.43,2.11,3.89,12.28-4.54,11.13-8.42-1.15-6.48-15.35-1.94-19.95,4.54-4.6,10.53-4.8,14.1,3.45,3.56,8.25,4.86,20.72-5.67,26.67-10.53,5.95-15.23.58-12.15-4.8Z"/><path d="m314.38,418.75s1.94-34.73,15.23-35.3c13.29-.58,5.35,33.96-15.23,35.3Z"/><path class="cls-3" d="m319.72,410.69s2.75-21.11,9.23-18.61c6.48,2.49-9.23,18.61-9.23,18.61Z"/><path d="m330.52,418.75c3.67-1.51,14.85-11.48,20.25-4.49,5.4,6.99,1.67,22.72-13.39,28.09-15.07,5.37-21.39,4.03-23.82-1.92-2.43-5.95,10.42-18.99,16.96-21.68Z"/><path class="cls-3" d="m343.69,421.86c2.56,2.21.82,11.28-11.65,16.65-12.48,5.37-15.88-1.07-12.31-5.71,3.56-4.65,17.8-16.27,23.97-10.94Z"/><path d="m336.13,425.85c.65,2.57,3.35,5.37,4,.95.65-4.41-4.44-2.68-4-.95Z"/><path d="m328.91,430.52c-1.28,1.42-1.08,3.2.7,2.62,1.78-.58,2.01-5.63-.7-2.62Z"/><path class="cls-3" d="m227.94,188.31s-24.88,32.62-26.21,41.6l-21.81-5.84,18.97-25.4,29.05-10.37Z"/><path class="cls-3" d="m201.73,229.91l16.85,2.27s-13.19,19.12-16.85,35.46l-18.32-2.3s14.55-36.11,18.32-35.43Z"/><path class="cls-3" d="m141.12,337.83s-24.64,27.48-27.35,30.04l-2.71,2.56s-14.84-9.46-17.73-15.64c0,0,31.25-37.85,30.79-41.83l17.01,24.86Z"/><polygon class="cls-3" points="183.41 265.35 162.31 255.19 140.19 290.99 148.24 297.86 183.41 265.35"/><path class="cls-3" d="m132.04,374.28s9.25,6.41,18.67,6.57c0,0,11.05-13.77,11.61-15.92l-14.07-10.79-16.2,20.14Z"/><path class="cls-3" d="m184.32,383.44l12.59-20.21,24.68-4.62s-7.68,22.42-17.48,30.87l-19.8-6.19v.14Z"/><path class="cls-3" d="m184.32,383.29s-30.66-.32-33.61-2.44c0,0-21.3,23.28-27.38,24.42l29.38,10.25s29.14-21.81,31.62-32.23Z"/><path class="cls-3" d="m132.04,374.28s-15.35,24.31-31.85,28.22l-25.88-4.31s31.93-19.78,36.74-27.76l20.99,3.85Z"/><polygon class="cls-3" points="100.19 402.5 123.32 405.27 93.32 433.25 69.07 428.76 100.19 402.5"/><path class="cls-3" d="m74.31,398.19s-22.71,13.1-41.31,17.34L.84,402.5l48.41-13.02,25.06,8.71Z"/><path class="cls-3" d="m152.7,415.53s-32.48,17.8-35.48,25.02l14.82,8.31,37.43-24.87-16.77-8.47Z"/><path class="cls-3" d="m117.22,440.55l-23.9-7.3-38.68,23.82,23.44,19.18s21.24-28.6,39.13-35.71Z"/><path class="cls-3" d="m69.07,428.76l-36.07-13.23s-23.53,12.78-48.69,13.23l46.29,20.1s29.07-21.85,38.47-20.1Z"/><polygon class="cls-3" points="30.6 448.86 54.64 457.07 2.31 481.76 -19.9 469.29 30.6 448.86"/><path class="cls-3" d="m-36.73,444.58l-16.56-22.03s17.13-18.73,37.6-15.65L.84,433.25l-37.57,11.34Z"/><path class="cls-3" d="m78.09,476.25l34.1,12.29s-28.9,43.03-74.61,20.5l40.51-32.79Z"/></g></svg>