<?xml version="1.0" encoding="UTF-8"?><svg id="B_N" xmlns="http://www.w3.org/2000/svg" viewBox="0 0 1080 1137"><defs><style>.cls-1{fill:#fff;}</style></defs><circle cx="540.88" cy="567.11" r="483.11"/><path class="cls-1" d="m566.71,84s-5.56,197.31-47.24,259.84c-41.68,62.53-157.01,198.7-130.61,243.16,26.4,44.46,136.17,244.55,161.18,227.88,25.01-16.67,190.36-216.76,187.58-236.21-2.78-19.45-159.79-245.94-158.4-302.91,1.39-56.97-1.01-191.75-1.01-191.75l-10.11,229.27s115.33,230.66,115.33,244.55-132,186.19-145.9,175.08c-13.89-11.12-107.64-117.5-99.67-165.05,7.96-47.54,87.17-180.94,110.79-179.55,23.62,1.39,81.86,140.71,76.36,153.73-5.5,13.01-83.31,129.73-97.2,115.84-13.89-13.89-81.98-54.19-55.58-102.82,26.4-48.63,61.14-104.21,75.03-81.98,13.89,22.23,33.4,111.76-3.45,94.79-36.85-16.98-3.5-43.38-3.5-43.38,0,0-27.79,8.34-23.62,34.74,4.17,26.4,58.36,48.63,58.36-1.39s-25.01-116.72-40.3-115.33c-15.28,1.39-84.34,85.36-80.38,125.36,3.96,39.99,53.98,115.03,76.21,110.86,22.23-4.17,113.94-106.99,111.16-133.39-2.78-26.4-63.6-178-80.43-189.05-16.83-11.04,5.4-272.27,5.4-272.27Z"/><path class="cls-1" d="m521.69,796.87s45.34,107.05,39.62,245.25c0,0-13.12-190,44.08-285.74"/><path class="cls-1" d="m225.79,889.79s-6.96,9.69,0,9.2c6.96-.49,19.15-.49,17.41-12.68-1.74-12.19-24.37-22.63-43.53-8.71-19.15,13.93-20.89,51.4,0,63.13,20.89,11.73,60.94,15.22,74.86-17.86,13.93-33.08,11.32-93.14-70.51-91.4-81.83,1.74-78.35,69.64-73.12,85.31,5.22,15.67,62.68,83.57,135.8,29.6,0,0-48.75,26.12-76.61,5.22-27.86-20.89-17.41-80.09,12.19-85.31,29.6-5.22,52.23,8.71,48.75,24.37-3.48,15.67-12.19,34.82-40.04,26.12-27.86-8.71,6.96-31.34,14.8-26.99Z"/><path class="cls-1" d="m266.71,946.37s37.39-46.58,73.1-51.58c35.71-5,45.85,7.83,50.36,25.79,4.51,17.96,28.88,51.04,65.44,21.44,36.56-29.6,3.48-47.01-3.48-45.27-6.96,1.74-18.28,14.8.87,14.8,0,0,5.22,20.89-24.37,19.15-29.6-1.74-45.54-67.97-1.88-99.28,43.66-31.3,135.93-19.11,149.86,55.75,13.93,74.86-1.74,104.46-59.19,111.43-57.45,6.96-94.02,6.96-135.8-48.75-41.78-55.71-114.91-3.48-114.91-3.48Z"/><path class="cls-1" d="m270.64,856.47s42.21,3.73,43.95-27.61c1.74-31.34,6.96-81.83,73.12-71.38,66.16,10.45,79.28,92.2,14.39,109.65-64.88,17.45-49.35-30.99-44.49-43.77,4.85-12.78,39.67-30.19,48.38-12.78,8.71,17.41-10.45,19.15-15.67,8.71,0,0-10.45,17.41,5.22,22.63,15.67,5.22,39.59-16.02,28.5-35.86-11.09-19.85-40.69-33.78-61.58-5.92-20.89,27.86-39.15,112.68-91.83,56.34Z"/><path class="cls-1" d="m662.79,802.74s-1.57,5.22-25.16,0c-23.59-5.22-114.9,18.7-112.77,92.05,2.13,73.35,91.66,42.97,113.92,13.76,22.27-29.21,60.87-57.66,92.06-37.34,31.19,20.32,114.34,76.99,209.43,37.34,95.09-39.65,42.45-113.27,0-115.63-42.45-2.37-75.53,15.04-82.49-16.3-6.96-31.34-40.43-70.38-98.56-70.01-58.13.37-70.52,45-74.77,60.99-4.25,15.99-21.66,35.14-21.66,35.14Z"/><path d="m639.27,834.77s-18.34,10.7-7.64,16.81c10.7,6.11,26.91,2.99,34.85-22.19,7.94-25.18-16.67-37.97-57.09-17.82-40.42,20.15-59.96,72.95-25.74,85.52,34.23,12.57,49.51,3.4,72.43-16.47,22.92-19.87,63.85-43.64,102.99-12.65,39.14,30.99,160.13,36.25,182.16,0,22.03-36.25,1.24-76.55-49.5-66.34-50.73,10.21-66.39,8.44-61.62,20.79,4.77,12.35,3.24,33.74-51.78,13.88-55.02-19.87-4.58-59.6,12.23-56.55,16.81,3.06,22.92,10.7,15.28,10.7s-30.75,12.1-16.14,25.16c14.61,13.05,49.76,5.41,45.18-29.74-4.58-35.15-32.09-65.72-85.59-58.08-53.49,7.64-51.96,70.3-67.25,77.94s10.02,41.94-40.84,62.24c-50.86,20.29-46.28-27.08-30.99-34.73,15.28-7.64,27.51-9.17,29.04,1.53Z"/><path d="m466.96,1012.53s41.98-12.46,30.73-41.91c-11.25-29.45-16.84-64.91,24.11-72.32,40.95-7.41,49,29.96,47.47,39.25-1.54,9.3-13.9,28.08-28.17,25.84-14.28-2.24-13.77-28.24-5.7-32.67,8.07-4.43,19.16,9.17,5.05,12.77,0,0-1.32,12.01,13.75,3.04,15.07-8.98,1.87-44.53-26.22-37.56-28.09,6.97-27.35,30.34-21.26,45.82,6.1,15.48,16.05,48.65-39.75,57.74Z"/></svg>