<?xml version="1.0" encoding="UTF-8"?><svg id="B_N" xmlns="http://www.w3.org/2000/svg" viewBox="0 0 1080 1137"><defs><style>.cls-1{fill:#011720;}.cls-2{fill:#fff;}</style></defs><path class="cls-1" d="m691.3,1119.53s30.02-82.56-9.38-86.31c-39.4-3.75-39.4-7.51-9.38-45.03,30.02-37.53,33.77-58.17-5.63-76.93-39.4-18.76-10.01-33.92,35.34-42.29,45.35-8.37,92.26-197.89-97.26-169.74-189.51,28.15-217.66,24.39-230.79-52.54-13.13-76.93,99.45-200.77,176.38-148.23,76.93,52.54,11.26,151.99-20.64,112.58-31.9-39.4,20.64-41.28,20.64-41.28,0,0-7.51-30.02-35.65-16.89-28.15,13.13-63.8,76.93-20.64,91.94,43.16,15.01,129.47,15.01,146.36-56.29,16.89-71.3-9.38-187.64-195.14-163.24-185.76,24.39-281.46,212.03-268.32,290.84,13.13,78.81,39.4,144.48,165.12,105.08,125.72-39.4,251.32-87.74,301.1-50.44,49.78,37.3,34.77,93.59-19.64,93.59s-125.72,3.75-125.72,33.77,37.53,35.65,75.05,26.27c37.53-9.38,84.44,15.01,65.67,37.53-18.76,22.52-76.93,30.02-71.3,61.92,5.63,31.9,61.92,43.16,88.19,26.27,26.27-16.89,35.65,69.43,35.65,69.43Z"/><path class="cls-1" d="m450.88,409.48s125.82-39.12,193.28,43.54c67.46,82.65,43.82,178.88-59.48,225.54,0,0,247.73,33.07,189.44-225.55-58.29-258.61-339.59-66.68-323.24-43.53Z"/><polygon class="cls-1" points="336.66 301.43 346.05 216.99 370.44 292.05 443.62 278.91 377.11 319.28 359.18 412.13 344.17 327.7 265.28 314.56 336.66 301.43"/><polygon class="cls-1" points="836.44 610.47 849.93 560.06 857.82 607.89 903.48 606.67 859.36 625.05 839.9 679.79 838.58 627.12 791.88 611.86 836.44 610.47"/><polygon class="cls-1" points="128.47 584.55 126.12 532.41 148.08 575.63 191.23 560.69 154.72 591.52 152.69 649.58 135.53 599.77 86.41 599.32 128.47 584.55"/><polygon class="cls-2" points="817.07 0 852.02 157.14 987.67 200.77 823.88 269.73 713.78 433.77 713.78 252.19 575.26 157.86 733.81 145.89 817.07 0"/><polygon class="cls-1" points="739.58 177.51 817.07 0 819.46 179.91 987.67 200.77 815.58 243.71 713.78 433.77 738.16 239.78 575.26 157.86 739.58 177.51"/></svg>