<?xml version="1.0" encoding="UTF-8"?><svg id="B_N" xmlns="http://www.w3.org/2000/svg" viewBox="0 0 1080 1137"><defs><style>.cls-1,.cls-2{fill:#fff;}.cls-2{stroke:#000;stroke-miterlimit:10;}</style></defs><path d="m507.55,1051s-72.07-136.82,76.24-150.4c148.31-13.58,203.66-51.18,184.86-112.8-18.8-61.62-175.46-54.31-257.97-40.73-82.51,13.58-188,25.07-220.37-20.89-32.38-45.95-106.53-193.22-113.84-246.48,0,0,31.71,245.44,135.44,285.65,103.73,40.21,235.33,14.1,308.44,9.92,73.11-4.18,128.46,10.44,120.11,36.55-8.36,26.11-50.13,51.18-129.51,36.55-79.38-14.62-178.6-9.4-184.86,73.11-6.27,82.51,81.47,129.51,81.47,129.51Z"/><path d="m176.47,456.36s-21.41-230.6,0-237.06c21.41-6.45,581.22-52.41,641.8-26.3,60.58,26.11,121.15,354.06,101.31,398.97-19.84,44.91-21.13,79.51-147.38,99.29-126.26,19.78-445.49,47.07-477.53,0-32.04-47.07-84.78-170.83-101.49-321.23-16.71-150.4,378.08-146.22,496.1-146.22s154.26-17.36,172.17,227.36c0,0-20.73-175.14-63.55-186.63-42.82-11.49-286.17-6.27-369.73,0-83.55,6.27-217.24,26.11-212.02,108.62,5.22,82.51,55.35,294.53,101.31,306.02,45.95,11.49,501.32-12.53,533.7-66.84,32.38-54.31,36.55-100.26,25.07-191.13-11.49-90.86-37.6-198.44-63.71-204.71-26.11-6.27-419.86-18.8-578.61,35.51,0,0-76.24-2.81-57.44,204.34Z"/><path d="m303.37,486.49c3.13,14.62,5.22,63.71,15.67,63.71s40.73,4.18,40.73-21.93-3.13-59.53-24.02-54.31c-20.89,5.22-32.38,11.49-26.11,11.49s31.82-9.4,33.66-5.74c1.85,3.66,13.34,51.7,7.07,56.92s-28.2,10.44-30.29,4.18c-2.09-6.27-16.71-54.31-16.71-54.31Z"/><path d="m338.88,595.11c3.71,14.62,6.19,63.71,18.57,63.71s48.28,4.18,48.28-21.93-3.71-59.53-28.47-54.31c-24.76,5.22-38.37,11.49-30.95,11.49s37.71-9.4,39.9-5.74c2.19,3.66,15.81,51.7,8.38,56.92-7.43,5.22-33.42,10.44-35.9,4.18-2.48-6.27-19.81-54.31-19.81-54.31Z"/><path d="m434.96,580.49c3.71,14.62,6.19,63.71,18.57,63.71s48.28,4.18,48.28-21.93-3.71-59.53-28.47-54.31c-24.76,5.22-38.37,11.49-30.95,11.49s37.71-9.4,39.9-5.74c2.19,3.66,15.81,51.7,8.38,56.92s-33.42,10.44-35.9,4.18c-2.48-6.27-19.81-54.31-19.81-54.31Z"/><path d="m396.32,472.91c4.35,14.62,7.25,63.71,21.76,63.71s56.57,4.18,56.57-21.93-4.35-59.53-33.36-54.31c-29.01,5.22-44.97,11.49-36.26,11.49s44.19-9.4,46.75-5.74,18.52,51.7,9.82,56.92-39.17,10.44-42.07,4.18c-2.9-6.27-23.21-54.31-23.21-54.31Z"/><path d="m274.12,370.56c3.13,14.62,5.22,63.71,15.67,63.71s40.73,4.18,40.73-21.93-3.13-59.53-24.02-54.31c-20.89,5.22-32.38,11.49-26.11,11.49s31.82-9.4,33.66-5.74c1.85,3.66,13.34,51.7,7.07,56.92-6.27,5.22-28.2,10.44-30.29,4.18-2.09-6.27-16.71-54.31-16.71-54.31Z"/><path d="m403.3,421.8c-3.26,0-6.31-.08-9.01-.15-2.07-.05-3.92-.1-5.46-.1-11.37,0-15.71-26.05-19.19-46.97-1.21-7.25-2.25-13.51-3.39-17.36l1.63-.58c.2.48,20.34,48.1,23.2,54.28.3.66,1.15,1.21,2.45,1.62,8.02,2.47,31.03-1.76,38.38-6.17.83-.5,1.43-1.6,1.79-3.27,2.67-12.57-9.95-49.68-11.87-52.42-1.25-1.78-17.47,1.32-27.16,3.17-7.93,1.51-15.43,2.95-18.88,2.95-1.09,0-3.11,0-3.23-1.36-.34-3.85,28.28-9.86,39.34-11.85,8.25-1.48,15.14.02,20.46,4.47,9.37,7.83,13.92,24.41,13.92,50.69,0,5.53-1.85,10.14-5.49,13.69-8.32,8.11-24.45,9.36-37.48,9.36Zm-33.39-55.9c.46,2.57.93,5.4,1.43,8.39,3.2,19.21,7.58,45.53,17.49,45.53,1.55,0,3.41.05,5.5.1,13.22.33,35.37.9,45.24-8.72,3.29-3.21,4.96-7.4,4.96-12.45,0-25.73-4.35-41.88-13.3-49.36-4.91-4.11-11.32-5.49-19.05-4.09-21.02,3.78-34.08,7.91-37.28,9.74.23.02.51.03.86.03,3.29,0,10.71-1.42,18.56-2.91,16.81-3.21,27.14-4.98,28.9-2.46,2.56,3.65,14.86,40.97,12.15,53.77-.46,2.16-1.33,3.63-2.59,4.39-7.78,4.67-31.26,8.96-39.78,6.34-1.81-.56-2.99-1.41-3.52-2.54-2.12-4.57-13.6-31.62-19.59-45.75Z"/><path d="m540.45,563.78c4.35,14.62,7.25,63.71,21.76,63.71s56.57,4.18,56.57-21.93-4.35-59.53-33.36-54.31c-29.01,5.22-44.97,11.49-36.26,11.49s44.19-9.4,46.75-5.74c2.57,3.66,18.52,51.7,9.82,56.92-8.7,5.22-39.17,10.44-42.07,4.18s-23.21-54.31-23.21-54.31Z"/><path d="m487.18,338.18c4.35,14.62,7.25,63.71,21.76,63.71s56.57,4.18,56.57-21.93-4.35-59.53-33.36-54.31c-29.01,5.22-44.97,11.49-36.26,11.49s44.19-9.4,46.75-5.74,18.52,51.7,9.82,56.92c-8.7,5.22-39.17,10.44-42.07,4.18-2.9-6.27-23.21-54.31-23.21-54.31Z"/><path d="m650.11,544.98c4.35,14.62,7.25,63.71,21.76,63.71s56.57,4.18,56.57-21.93-4.35-59.53-33.36-54.31c-29.01,5.22-44.97,11.49-36.26,11.49s44.19-9.4,46.75-5.74c2.57,3.66,18.52,51.7,9.82,56.92-8.7,5.22-39.17,10.44-42.07,4.18-2.9-6.27-23.21-54.31-23.21-54.31Z"/><path d="m770.22,529.31c4.35,14.62,7.25,63.71,21.76,63.71s56.57,4.18,56.57-21.93-4.35-59.53-33.36-54.31c-29.01,5.22-44.97,11.49-36.26,11.49s44.19-9.4,46.75-5.74c2.57,3.66,18.52,51.7,9.82,56.92-8.7,5.22-39.17,10.44-42.07,4.18-2.9-6.27-23.21-54.31-23.21-54.31Z"/><path d="m729.49,304.76c4.35,14.62,7.25,63.71,21.76,63.71s56.57,4.18,56.57-21.93-4.35-59.53-33.36-54.31c-29.01,5.22-44.97,11.49-36.26,11.49s44.19-9.4,46.75-5.74,18.52,51.7,9.82,56.92c-8.7,5.22-39.17,10.44-42.07,4.18-2.9-6.27-23.21-54.31-23.21-54.31Z"/><path d="m512.25,459.33c4.35,14.62,7.25,63.71,21.76,63.71s56.57,4.18,56.57-21.93-4.35-59.53-33.36-54.31-44.97,11.49-36.26,11.49,44.19-9.4,46.75-5.74c2.57,3.66,18.52,51.7,9.82,56.92-8.7,5.22-39.17,10.44-42.07,4.18-2.9-6.27-23.21-54.31-23.21-54.31Z"/><path d="m668.58,512.67c-3.25,0-6.31-.08-9.01-.15-2.07-.05-3.92-.1-5.46-.1-11.37,0-15.71-26.05-19.19-46.98-1.21-7.25-2.25-13.51-3.39-17.35l1.63-.58c.2.48,20.33,48.1,23.2,54.28.3.66,1.15,1.21,2.45,1.62,8.02,2.47,31.03-1.76,38.38-6.17.83-.5,1.43-1.6,1.79-3.27,2.67-12.57-9.95-49.68-11.87-52.41-1.26-1.78-17.47,1.32-27.16,3.17-7.93,1.51-15.43,2.95-18.88,2.95-1.09,0-3.11,0-3.23-1.36-.34-3.85,28.28-9.86,39.34-11.85,8.26-1.48,15.14.02,20.46,4.47,9.37,7.83,13.92,24.41,13.92,50.69,0,5.53-1.85,10.14-5.49,13.69-8.32,8.11-24.45,9.36-37.49,9.36Zm-33.39-55.9c.46,2.57.93,5.39,1.43,8.39,3.2,19.22,7.58,45.53,17.49,45.53,1.55,0,3.41.05,5.5.1,13.24.34,35.37.9,45.24-8.72,3.29-3.21,4.96-7.4,4.96-12.45,0-25.73-4.35-41.88-13.3-49.36-4.92-4.11-11.32-5.49-19.05-4.1-21.02,3.78-34.08,7.91-37.28,9.74.23.02.51.03.86.03,3.29,0,10.71-1.42,18.56-2.91,16.81-3.21,27.14-4.98,28.9-2.46,2.56,3.64,14.86,40.97,12.15,53.77-.46,2.16-1.33,3.64-2.59,4.39-7.78,4.67-31.25,8.96-39.78,6.34-1.81-.56-2.99-1.41-3.52-2.54-2.12-4.57-13.6-31.62-19.58-45.75Z"/><path d="m646.65,388.38c-3.25,0-6.31-.08-9.01-.15-2.07-.05-3.92-.1-5.46-.1-11.37,0-15.71-26.05-19.19-46.98-1.21-7.25-2.25-13.51-3.39-17.35l1.63-.58c.2.48,20.33,48.1,23.2,54.28.3.66,1.15,1.21,2.45,1.62,8.01,2.47,31.03-1.76,38.38-6.17.83-.5,1.43-1.6,1.79-3.27,2.67-12.57-9.95-49.68-11.87-52.41-1.25-1.78-17.47,1.32-27.16,3.17-7.93,1.51-15.43,2.95-18.88,2.95-1.09,0-3.11,0-3.23-1.36-.34-3.85,28.28-9.86,39.34-11.85,8.26-1.48,15.14.02,20.46,4.47,9.37,7.83,13.92,24.41,13.92,50.69,0,5.53-1.85,10.14-5.49,13.69-8.32,8.11-24.45,9.36-37.48,9.36Zm-33.39-55.9c.46,2.57.93,5.39,1.43,8.39,3.2,19.22,7.58,45.53,17.49,45.53,1.55,0,3.41.05,5.5.1,13.23.34,35.37.9,45.24-8.72,3.29-3.21,4.96-7.4,4.96-12.45,0-25.73-4.35-41.88-13.3-49.36-4.92-4.11-11.33-5.49-19.05-4.1-21.02,3.78-34.08,7.91-37.28,9.74.23.02.51.03.86.03,3.29,0,10.71-1.42,18.56-2.91,16.81-3.21,27.14-4.98,28.9-2.46,2.56,3.64,14.86,40.97,12.15,53.77-.46,2.16-1.33,3.64-2.59,4.39-7.78,4.67-31.26,8.96-39.78,6.34-1.81-.56-2.99-1.41-3.52-2.54-2.12-4.57-13.6-31.62-19.58-45.75Z"/><path d="m750.38,434.27c4.35,14.62,7.25,63.71,21.76,63.71s56.57,4.18,56.57-21.93-4.35-59.53-33.36-54.31c-29.01,5.22-44.97,11.49-36.26,11.49s44.19-9.4,46.75-5.74c2.57,3.66,18.52,51.7,9.82,56.92-8.7,5.22-39.17,10.44-42.07,4.18-2.9-6.27-23.21-54.31-23.21-54.31Z"/><path d="m803.94,547.93c.2,6.65,10.43,8.48,4.56,10.43-5.87,1.96-12.39-5.22-11.73-14.99.65-9.78,13.04-14.34,24.77-6.52,11.73,7.82,11.73,29.99,5.87,35.2-5.87,5.22-31.29,7.82-38.46-1.96-7.17-9.78-8.48-28.03-3.26-31.29,5.22-3.26,2.61-3.91,3.91,11.73,1.3,15.65,15.86,13.89,25.04,12.65,9.18-1.24,7.23-11.02,6.58-14.93s-17.6-11.08-17.28-.33Z"/><path d="m541.8,478.16c.2,6.65,10.43,8.48,4.56,10.43-5.87,1.96-12.39-5.22-11.73-14.99.65-9.78,13.04-14.34,24.77-6.52,11.73,7.82,11.73,29.99,5.87,35.2-5.87,5.22-31.29,7.82-38.46-1.96-7.17-9.78-8.48-28.03-3.26-31.29,5.22-3.26,2.61-3.91,3.91,11.73,1.3,15.65,15.86,13.89,25.04,12.65s7.23-11.02,6.58-14.93c-.65-3.91-17.6-11.08-17.28-.33Z"/><path d="m369.05,359.18c-.97,10.72-5.38,37.68,7.18,42.17,12.56,4.49,48.11,13.46,50.97,0,2.86-13.46,8.8-44.24,0-50.38-8.8-6.15-20.46-11.53-30.33-3.45-9.87,8.08-10.77,32.3-1.79,33.2,8.97.9,13.46-6.28,7.18-10.77,0,0,15.25-8.08,13.46,11.66-1.79,19.74-35.89,14.36-34.1,8.08,1.79-6.28,4.49-32.3-1.79-36.79-6.28-4.49-9.87-3.59-10.77,6.28Z"/><path d="m420.31,522.89s22.17-8.48,21.51-14.34c-.65-5.87-1.29-10.82-10.75-14.54-9.46-3.72-11.26-20.16-1.56-18.46s1.38,3.02,0,6.28c-1.38,3.25,1.9,11.22,12.32,3.32,10.42-7.89-1.3-27.1-10.76-26.95-9.46.15-24.04,8.31-20.54,22.31,5.87,23.47,37.16,29.34,9.78,42.38Z"/><path d="m577.24,559.57s5.22,5.22-7.17,18.25c-12.39,13.04-11.08,37.81,6.52,33.9,17.6-3.91-3.04-15.78,1.74-32.66,4.78-16.89-1.09-19.49-1.09-19.49Z"/><path d="m581.16,578.48s20.21,10.43,15.65,22.82c-4.56,12.39-11.59,2.67-14.27-7.46-2.68-10.14-1.37-15.35-1.37-15.35Z"/><polygon points="634 332.78 600.75 334.73 635.95 352.99 646.15 395.54 655.51 353.64 688.76 336.04 659.42 332.78 644.75 291.54 634 332.78"/><path d="m660.87,448.42c4.17,2.98-4.9,9.32-8.83,3.92-3.92-5.4-15.03-10.3-19.78-3.92-4.75,6.38,2.03,10.88,8.94,10.84,6.91-.05-2.9,2.41-7.31,3.88-4.41,1.47-13.73,7.51-6.87,14.3s15.68,3.51,21.33,0c5.65-3.51,13-6.45,20.85-3.51,7.85,2.94,28.49,14.93,40.98,7.47,12.49-7.47,2.19-16.79-.76-17.77-2.94-.98-8.34.49-11.28,0-2.94-.49-7.85-3.43-3.43-6.38,4.41-2.94,10.3-1.96,9.32-7.36-.98-5.4-9.32-7.85-12.26-5.89,0,0-3.92-16.68-19.62-13.24-15.7,3.43-14.71,15.2-11.28,17.66Z"/><path d="m673.62,480.79c-3.43-2.74-13.76-3.92-15.22,0-1.46,3.92,3.61,5.04,6.47,3.01s3.71-1.4,6.47,0c2.76,1.4,4.72-1.05,2.27-3.01Z"/><path d="m666.44,487.14c-1.63-1.39-4.59,2.97-2.63,3.46,1.96.49,7.22.44,2.63-3.46Z"/><path d="m666.44,499.24c-1.78-1.2-3.12,1.66-1.65,2.65,1.47.98,4.28-.88,1.65-2.65Z"/><path d="m679.21,454.96s-6.35-.48-6.05.36c.3.85,2,1.09,3.33,1.15,1.33.06,2.29.83-.31,1.14s-10.58-.23-13.73-.41-14.58.3-15.31,4.05,7.02,5.39,14.4,4.96c7.38-.42,29.16-2.6,29.71-.91.54,1.69-13.25,3.21-21.78,2.6-8.53-.61-17.91.24-22.93-1.51-5.02-1.75-8.12-3.09-4.4-4.96,0,0-1.44,1.42.79,1.48s2.24-2.18,1.51-2.54c-.73-.36-6.05-.61-6.17,2.3-.12,2.9,8.53,5.14,12.95,5.93,4.42.79,21.9,1.63,29.04,1.27s19.85-2.42,18.52-6.29c-1.33-3.87-14.04-2.84-17.37-2.06-3.33.79-16.34,2.66-21.48,1.75-5.14-.91-7.56-1.82-5.2-3.27,2.36-1.45,14.64-.67,17.49-.48,2.84.18,8.53,0,9.5-1.57.97-1.57-.18-2.36-2.51-3Z"/><path d="m708.84,447.01s-8.77,7.06-15.49,1.59c-6.73-5.47-10.85-13.07-19.77-12.04-8.92,1.03-10.76,8.32-8.5,10.83,2.26,2.51,7.95,5.54,12.04,1.84,0,0,1.21-.96-1.43-2.5,0,0-4.79,3.38-6.95.48s-1.35-6.74,2.31-7.44c3.66-.7,9.78.32,13.18,5.49,3.39,5.16,17.85,13.5,24.63,1.75Z"/><path d="m476.86,594.74c-8.88-6.87-18.46-9.11-33.73,3.43-4.8,3.94-13.61,11.6-1.89,20.6,11.72,9,34.8-3.43,37.76-6.98,2.96-3.55,6.75-10.18-2.13-17.04Zm-6.87,15.51c-6.63,3.43-12.51,7.22-20.58,0-8.07-7.22,1.88-12.07,7.56-13.37,5.68-1.3,11.48-.83,15.27,3.2,2.97,3.16,4.38,6.75-2.25,10.18Z"/><path d="m456.98,596.87c-5.68,1.3-15.62,6.15-7.56,13.37,8.07,7.22,13.95,3.43,20.58,0,6.63-3.43,5.22-7.02,2.25-10.18-3.79-4.02-9.59-4.5-15.27-3.2Z"/><path d="m457.89,598.07c-4.24.97-11.65,4.59-5.63,9.97,6.01,5.38,10.4,2.56,15.34,0,4.94-2.56,3.89-5.24,1.68-7.59-2.82-3-7.15-3.35-11.38-2.38Z"/><path d="m463.4,601.2c3.17,1.82,2.28,2.26,0,3.94-2.28,1.68-5.12.5-6.54-1.34s3.97-4.07,6.54-2.6Z"/><path d="m815.7,437.18c-14.19-10.97-29.51-14.56-53.91,5.49-7.67,6.3-21.75,18.54-3.03,32.91,18.73,14.38,55.61-5.49,60.34-11.16,4.73-5.67,10.78-16.27-3.4-27.24Zm-10.97,24.78c-10.59,5.49-19.99,11.54-32.88,0-12.89-11.54,3-19.29,12.08-21.37,9.08-2.08,18.35-1.32,24.4,5.11,4.75,5.04,7,10.78-3.59,16.27Z"/><path d="m783.93,440.58c-9.08,2.08-24.97,9.84-12.08,21.37,12.89,11.54,22.29,5.49,32.88,0,10.59-5.49,8.34-11.22,3.59-16.27-6.05-6.43-15.32-7.19-24.4-5.11Z"/><path d="m785.38,442.5c-6.77,1.55-18.61,7.33-9,15.93,9.61,8.6,16.62,4.09,24.51,0,7.9-4.09,6.22-8.37,2.68-12.13-4.51-4.79-11.42-5.36-18.19-3.81Z"/><path d="m794.19,447.5c5.07,2.9,3.64,3.61,0,6.3-3.64,2.68-8.19.79-10.45-2.14-2.27-2.93,6.34-6.51,10.45-4.15Z"/><path d="m760.21,295.98c21.51,15.37-25.32,48.11-45.58,20.26-20.26-27.85-77.61-53.18-102.11-20.26-24.5,32.92,10.46,56.19,46.15,55.95,35.7-.24-14.95,12.42-37.74,20.02-22.79,7.6-70.9,38.78-35.45,73.83,35.45,35.05,80.97,18.12,110.12,0,29.15-18.12,67.14-33.32,107.65-18.12,40.52,15.19,147.08,77.1,211.55,38.55,64.47-38.55,11.29-86.66-3.9-91.73-15.19-5.06-43.05,2.53-58.24,0-15.19-2.53-40.52-17.73-17.73-32.92,22.79-15.19,53.18-10.13,48.11-37.98-5.06-27.85-48.11-40.52-63.31-30.39,0,0-20.26-86.1-101.29-68.37-81.03,17.73-75.97,78.5-58.24,91.16Z"/><path class="cls-1" d="m854.87,329.72s-32.8-2.5-31.24,1.87c1.56,4.37,10.31,5.62,17.18,5.94,6.87.31,11.82,4.27-1.59,5.88-13.41,1.61-54.64-1.2-70.88-2.14-16.24-.94-75.29,1.56-79.03,20.93-3.75,19.37,36.24,27.8,74.35,25.62,38.11-2.19,150.57-13.43,153.38-4.69s-68.41,16.56-112.46,13.43c-44.05-3.12-92.47,1.25-118.39-7.81-25.93-9.06-41.95-15.94-22.69-25.62,0,0-7.45,7.35,4.1,7.66s11.56-11.25,7.81-13.12c-3.75-1.87-31.24-3.12-31.86,11.87-.62,14.99,44.05,26.55,66.85,30.61,22.8,4.06,113.08,8.43,149.95,6.56,36.86-1.87,102.46-12.5,95.59-32.49s-72.47-14.68-89.65-10.62c-17.18,4.06-84.34,13.75-110.9,9.06-26.55-4.69-39.05-9.37-26.87-16.87,12.18-7.5,75.6-3.44,90.28-2.5s44.05,0,49.04-8.12c5-8.12-.94-12.18-12.96-15.46Z"/><path class="cls-1" d="m1007.87,288.69s-45.27,36.46-79.99,8.2c-34.73-28.26-56-67.48-102.07-62.14-46.08,5.34-55.56,42.95-43.9,55.89,11.66,12.95,41.03,28.61,62.16,9.53,0,0,6.25-4.93-7.4-12.91,0,0-24.72,17.44-35.89,2.48-11.17-14.96-6.97-34.8,11.92-38.4,18.88-3.6,50.51,1.68,68.03,28.32,17.52,26.65,92.14,69.7,127.16,9.04Z"/><path class="cls-2" d="m328.03,480.1c-41.05,9.33-61.62,37.66-59.91,82.16,1.71,44.5-11.98,59.91-49.64,58.2-37.66-1.71-94.14,8.56-94.14,47.93s56.48,37.66,77.02,18.83c20.54-18.83,76.23-32.52,82.62-10.27,6.39,22.25,24.68,82.37,113.1,52.31,88.41-30.06,25.08-64.29,31.93-81.41,6.85-17.12,32.52-25.67,44.5-11.98s71.89,34.23,63.33-15.4c-8.56-49.64-46.21-63.33-70.18-59.91-23.96,3.42-32.52,34.23-5.13,35.94,27.39,1.71,25.67-13.69,25.67-13.69,0,0,25.67,41.08-5.13,35.94-30.81-5.13-51.35-8.56-47.93-58.2,3.42-49.64-30.81-97.56-106.12-80.45Z"/><path d="m325.99,489.35c-37.34,8.49-56.04,34.25-54.49,74.72,1.56,40.48-10.9,54.49-45.15,52.93-34.25-1.56-85.62,7.78-85.62,43.59s51.37,34.25,70.05,17.12c18.68-17.12,69.34-29.58,75.14-9.34,5.81,20.24,22.45,74.91,102.86,47.58,80.41-27.34,22.81-58.47,29.04-74.04,6.23-15.57,29.58-23.35,40.48-10.9,10.9,12.45,65.38,31.14,57.6-14.01s-42.03-57.6-63.83-54.49c-21.79,3.11-29.58,31.14-4.67,32.69,24.91,1.56,23.35-12.45,23.35-12.45,0,0,23.35,37.36-4.67,32.69-28.02-4.67-46.7-7.78-43.59-52.93,3.11-45.15-28.02-88.74-96.52-73.17Z"/><path class="cls-2" d="m105.37,365c5.58,15.21,30.96,24.72,18.98,51.08-11.98,26.36-15.4,29.37-47.93,28.72-32.52-.65-71.89,40.43-49.64,83.22,22.25,42.79,79.17,13.27,101.2-7.06,22.03-20.33,63.11-44.29,80.23-18.62,17.12,25.67,11.98,83.87,78.73,66.75,66.75-17.12,44.5-71.89,66.75-75.31s73.6-6.85,68.47-63.33c-5.13-56.48-28.5-87.64-68.17-81.48-39.66,6.16-53.36,45.53-73.9,21.57-20.54-23.96-34.23-54.77-87.29-61.62s-106.42,4.29-87.44,56.06Z"/><path d="m531.72,396.72c-7.64,22.26-15.42,55.99-44.51,37.17-29.1-18.83-128.37-27.39-148.91,23.96-20.54,51.35-1.71,109.54,61.62,95.85,63.33-13.69,78.73-29.1,100.99-3.42,22.25,25.67,82.08,48.6,86.4,16.6,4.32-32,4.26-58.92,17.13-57.45,12.86,1.48,28.27,15.17,53.94,28.86,25.67,13.69,83.87,25.67,99.27-29.1,15.4-54.77-3.42-71.89-25.67-85.58-22.25-13.69-34.23-8.56-54.77-11.98-20.54-3.42-3.42-18.83-22.25-34.23-18.83-15.4-97.54-55.5-123.23,19.32Z"/><path d="m112.36,483.53s18.42-6.04,6.64-15.86c-11.78-9.82-27.18,7.3-27.18,20.99s39.37,17.12,56.48,8.56c0,0-22.25,20.54-46.21,15.4-23.96-5.13-46.21-27.25-25.67-47.86,20.54-20.61,50.3-11.91,54.25,0,3.95,11.91-4.61,23.9-18.31,18.76Z"/><path d="m163.71,433.89s-15.12-8.99-11.84,5.77c3.28,14.77,28.29,7.56,28.62-4.24.33-11.8-.33-16.61-14.55-20.2-14.22-3.58-48.74-6.48-49.45,16.36-.71,22.84,16.41,31.4,28.39,27.98,11.98-3.42,31.97-8.82,35.67.73,3.7,9.54-8.28,24.95-23.69,31.79,0,0,28.93-5.37,31.58-15.52,2.65-10.15-3.17-31.41-30.21-24.21-27.04,7.2-30.46-13.34-27.04-23.61,3.42-10.27,20.54-13.69,32.52,5.13Z"/><path d="m185.6,384.82s-18.27,4.4-15.37-7.2c2.9-11.6,15.95-10.15,23.2-8.7s23.2,20.3,4.35,30.45c-18.85,10.15-45.08,10.3-51.54-19.5-6.46-29.8,48.98-23.04,60.41-11.92,11.43,11.12,15.78,25.62,5.63,45.92-10.15,20.3,11.6,65.25,55.1,62.35,43.5-2.9,53.65-11.6,63.8-24.65,10.15-13.05,29.84-33.48,51.17-34.14s28.58-16.61,16.98-32.56c-11.6-15.95-30.45-34.8-55.1-18.85-24.65,15.95-40.6,39.15-65.25,20.3-24.65-18.85-46.4-56.55-87-46.4-40.6,10.15-65.25,24.65-56.55,46.4,8.7,21.75,56.83,27.45,50.17-1.5Z"/><path class="cls-1" d="m699.37,456.38s24.93,15.97-6.1,30.12c-31.03,14.15-31.03-40.12-18.18-50.11,12.85-10,30.16-19.99,56.49,0,26.33,19.99,19.19,84.25-15.08,92.82-34.27,8.57-89.96-11.42-94.25-39.98s11.73-71.52,40.85-70.75c29.12.77-13.33,10.41-15.67,27.01-2.33,16.6.52,40.88,24.8,49.45,24.28,8.57,44.27,5.71,44.27-10s-4.28-35.7-17.14-28.56Z"/><path class="cls-1" d="m556.65,423.39s8.56-12.83,14.26-11.41c5.7,1.43,9.98,14.26,2.85,19.96-7.13,5.7-20,15.41-30.68,8.42-10.68-6.99-15.47-32.17,7.6-54.52,23.07-22.34,53.02-12.36,63-2.38s9.98,25.67-5.7,44.2c-15.69,18.54-24.24,35.65-18.54,49.91,5.7,14.26,14.75,14.16,2.38,34.17-12.37,20.01-3.81,44.25-32.33,45.68-28.52,1.43-39.93-21.39-39.93-21.39,0,0,34.22,19.96,45.63,9.98,11.41-9.98-.24-14.77,4.87-24.49,5.11-9.73,13.66-6.88,9.39-25.41s-11.29-38.86,2.2-52.23c13.49-13.37,24.9-30.48,13.49-41.88-11.41-11.41-39.93,0-38.5,21.39Z"/><path class="cls-1" d="m501.05,479.41c-4.75,11.56-27.02,12.78-28.31-6.96-1.29-19.75,32.21-22.43,45.62-17.07,13.4,5.36,32.16,38.86,6.7,60.31-25.46,21.44-32.16,4.02-44.22,4.02s-24.12,13.4-28.14,1.34c-4.02-12.06,13.4-28.14,22.78-22.78,9.38,5.36,26.8,16.08,29.48-1.34,2.68-17.42-1.12-24.3-3.91-17.51Z"/><path class="cls-1" d="m452.98,437.31c-8.81-8.81-20.54,1.71-22.25,15.4s-18.83,20.54-15.4,27.39c3.42,6.85,18.38,8.31,18.6-5.26s.23-20.41,10.5-18.7c10.27,1.71,17.12-10.27,8.56-18.83Z"/><path class="cls-1" d="m451.27,480.1c-3.29-3.94-11.78.32-11.03,8.72.76,8.4,19.58,1.55,11.03-8.72Z"/><path class="cls-1" d="m358.84,637.57c-17.57,11.18-32.52-3.42-42.79-10.27-10.27-6.85-32.52-1.71-34.23,13.69-1.71,15.4-3.42,15.4,15.4,37.66,18.83,22.25,32.52,42.79,73.6,30.81,41.08-11.98,48.93-29.54,40.73-54.99-8.21-25.45-33.88-28.88-52.71-16.89Z"/><path d="m370.82,646.13c-12.74,8.49-23.13,15.4-39.81,5.99-16.68-9.41-30.37-5.99-30.37,7.7s18.83,27.39,41.08,27.39,45.49-17.17,43.29-25.7c-2.21-8.53-9.05-18.8-14.19-15.38Z"/><path class="cls-1" d="m358.84,663.25c-18.83,0-33.01-4.58-28.49,5.41,4.53,9.99,38.76-5.41,28.49-5.41Z"/><path class="cls-1" d="m372.79,554.54s-16.47-1.73-15.68,1.3c.78,3.03,5.18,3.9,8.63,4.12s5.93,2.96-.8,4.08-27.43-.83-35.59-1.48c-8.16-.65-37.8,1.08-39.68,14.52-1.88,13.44,18.19,19.29,37.33,17.77,19.13-1.52,75.6-9.32,77.01-3.25,1.41,6.07-34.35,11.49-56.46,9.32-22.11-2.17-46.42.87-59.44-5.42-13.02-6.29-21.06-11.06-11.39-17.78,0,0-3.74,5.1,2.06,5.31s5.8-7.8,3.92-9.1c-1.88-1.3-15.68-2.17-16,8.24-.31,10.4,22.11,18.42,33.56,21.24,11.45,2.82,56.78,5.85,75.28,4.55,18.51-1.3,51.44-8.67,47.99-22.54-3.45-13.87-36.39-10.19-45.01-7.37-8.63,2.82-42.35,9.54-55.68,6.29-13.33-3.25-19.6-6.5-13.49-11.7,6.12-5.2,37.96-2.38,45.33-1.73,7.37.65,22.11,0,24.62-5.64,2.51-5.64-.47-8.45-6.51-10.73Z"/><path class="cls-1" d="m360.63,452.22c-2.77,10.54-12.94,19.7,0,24.83,12.94,5.13,31.32-23.13,23.15-29.26-8.17-6.13-21.45-2.04-23.15,4.43Z"/><path d="m363.53,454.91c-1.92,7.28-8.94,13.61,0,17.15,8.94,3.54,21.63-15.97,15.99-20.21-5.64-4.23-14.81-1.41-15.99,3.06Z"/><path class="cls-1" d="m366.8,458.97c-.95,3.6-4.42,6.73,0,8.49,4.42,1.75,10.71-7.91,7.91-10s-7.33-.7-7.91,1.51Z"/><path class="cls-1" d="m347.49,488.08c-5.82,6.88-7.4,35.16,3.7,37.01s19.49-4.15,18.81-23.17c-.68-19.02-14.37-23.47-22.51-13.84Z"/><path d="m350.49,493.27c-3.96,4.68-5.03,23.9,2.52,25.16,7.55,1.26,13.25-2.82,12.79-15.75-.46-12.93-9.77-15.95-15.3-9.41Z"/><path class="cls-1" d="m353.51,498.36c-2.13,2.51-2.7,12.84,1.35,13.52,4.06.68,7.12-1.52,6.87-8.46s-5.25-8.57-8.22-5.06Z"/><polygon points="63.08 198.13 65.74 174.16 72.67 195.47 93.44 191.74 74.56 203.2 69.47 229.56 65.21 205.59 42.81 201.86 63.08 198.13"/><polygon points="104.7 269.15 108.52 254.84 110.76 268.42 123.72 268.07 111.2 273.29 105.68 288.83 105.3 273.88 92.04 269.55 104.7 269.15"/><polygon points="33.22 267.02 32.55 252.21 38.79 264.48 51.04 260.24 40.67 269 40.1 285.48 35.22 271.34 21.28 271.21 33.22 267.02"/><polygon points="998.88 537.57 1001.55 513.6 1008.47 534.91 1029.25 531.18 1010.37 542.64 1005.28 569 1001.01 545.03 978.62 541.3 998.88 537.57"/><polygon points="1040.5 608.59 1044.33 594.28 1046.57 607.86 1059.53 607.51 1047 612.73 1041.48 628.27 1041.1 613.32 1027.85 608.99 1040.5 608.59"/><polygon points="969.02 606.45 968.36 591.65 974.59 603.92 986.84 599.68 976.48 608.43 975.9 624.92 971.03 610.78 957.08 610.65 969.02 606.45"/></svg>