<?xml version="1.0" encoding="UTF-8"?><svg id="B_N" xmlns="http://www.w3.org/2000/svg" xmlns:xlink="http://www.w3.org/1999/xlink" viewBox="0 0 1080 1137"><defs><style>.cls-1{stroke:url(#Degradado_sin_nombre_107);}.cls-1,.cls-2,.cls-3,.cls-4,.cls-5,.cls-6,.cls-7,.cls-8,.cls-9,.cls-10{fill:none;stroke-miterlimit:10;}.cls-2{stroke:#fff;}.cls-3{stroke:url(#Degradado_sin_nombre_107-8);}.cls-4{stroke:url(#Degradado_sin_nombre_107-3);}.cls-5{stroke:url(#Degradado_sin_nombre_107-7);}.cls-6{stroke:url(#Degradado_sin_nombre_107-2);}.cls-7{stroke:url(#Degradado_sin_nombre_107-9);}.cls-8{stroke:url(#Degradado_sin_nombre_107-4);}.cls-9{stroke:url(#Degradado_sin_nombre_107-5);}.cls-10{stroke:url(#Degradado_sin_nombre_107-6);}</style><linearGradient id="Degradado_sin_nombre_107" x1="-.5" y1="542.98" x2="372.12" y2="542.98" gradientUnits="userSpaceOnUse"><stop offset="0" stop-color="#48bdc5"/><stop offset=".45" stop-color="#4e3ca2"/><stop offset=".99" stop-color="#064862"/></linearGradient><linearGradient id="Degradado_sin_nombre_107-2" x1="234.3" y1="816.35" x2="269.3" y2="816.35" xlink:href="#Degradado_sin_nombre_107"/><linearGradient id="Degradado_sin_nombre_107-3" x1="261.76" y1="811.67" x2="304.94" y2="811.67" xlink:href="#Degradado_sin_nombre_107"/><linearGradient id="Degradado_sin_nombre_107-4" x1="398.02" y1="370.74" x2="685.48" y2="370.74" xlink:href="#Degradado_sin_nombre_107"/><linearGradient id="Degradado_sin_nombre_107-5" x1="497.37" y1="608.75" x2="539.05" y2="608.75" xlink:href="#Degradado_sin_nombre_107"/><linearGradient id="Degradado_sin_nombre_107-6" x1="533.97" y1="612.13" x2="568.79" y2="612.13" xlink:href="#Degradado_sin_nombre_107"/><linearGradient id="Degradado_sin_nombre_107-7" x1="779.5" y1="541.23" x2="1033.2" y2="541.23" xlink:href="#Degradado_sin_nombre_107"/><linearGradient id="Degradado_sin_nombre_107-8" x1="760.38" y1="719.46" x2="823.7" y2="719.46" xlink:href="#Degradado_sin_nombre_107"/><linearGradient id="Degradado_sin_nombre_107-9" x1="790.31" y1="742.86" x2="836.7" y2="742.86" xlink:href="#Degradado_sin_nombre_107"/></defs><path d="m295.59,755.14s66.11-63.45,52.8-153.97c-13.31-90.52-78.98-150.86-161.96-138.88-75.54,10.91-145.09,94.51-101.61,200.12,43.48,105.6,195.68,101.61,223.19,44.82,27.51-56.8,19.52-180.15-78.09-188.13-97.62-7.99-121.58,80.76-89.63,148.2,31.95,67.44,145.54,65.67,148.2-1.77,2.66-67.44-31.82-112.88-80.25-99.48-48.43,13.4-49.32,104.81-6.72,115.45,42.6,10.65,64.78-46.15,36.38-63.89-28.4-17.75-39.17,23.58-28.46,24.21,0,0-14.14,5.07-13.25-19.78s45.26-25.74,54.13-1.77c8.87,23.96,11.67,78.56-42.09,73-53.75-5.56-54.64-74.78-38.67-105.84,15.97-31.06,59.46-42.6,94.07-17.75,34.61,24.85,48.81,128.68,3.55,143.76-45.26,15.09-74.99,22.63-130.01-35.05-55.02-57.68-6.66-154.86,45.7-164.62,52.36-9.76,110.04.89,126.9,51.47,16.86,50.58,43.48,95.84-14.2,189.91Z"/><path d="m280.36,803.82c5.6,13.52,32.38,13.26,33.76-3.06.63-7.5-9.98-23.66-17.47-36.33-5.67,4.17-21.88,25.86-16.29,39.39Zm13.29,1.55c-16.31-3.81.61-30.27.61-30.27,0,0,15.69,34.08-.61,30.27Z"/><path d="m339.51,764.71c-10.25-10.44-36.57-4.02-42.62-.43,8.73,11.85,19.44,27.94,26.59,30.3,15.55,5.12,26.28-19.42,16.03-29.86Zm-3.77,12.84c-2.88,16.5-28.09-11.29-28.09-11.29,0,0,30.97-5.21,28.09,11.29Z"/><path d="m777.23,747.27s119.25,39.67,211.55-115.63c92.29-155.3-60.35-212.98-120.69-205-60.35,7.99-61.48,43.88-52.93,70.3,8.56,26.43,52.46,45.05,94.64,13.11,47.48-35.94,116.7,179.7-132.57,237.21Z"/><path d="m777.23,732.38s136.41-56.14,155.97-99.88c18.2-40.72,0-100.82-63.01-98.88-63.01,1.94-82.89,71.25-64.47,89.67,18.42,18.42,52.35,20.36,66.89-.97,14.54-21.33-5.29-32.39-18.64-31.71,0,0,39.97-12.89,39.97,16.19s-30.79,72.77-116.7,125.57Z"/><path d="m777.26,667.57c-24.22-22.23-7.4-52.36,5.92-88.74,13.31-36.38,22.93-59.46-8.14-61.23-31.06-1.77-53.41,28.43-50,115.38,3.41,86.95,41.13,84.29,56.66,77.19,15.53-7.1,8.14-31.06-4.44-42.6Z"/><path d="m736.18,750.1c-8.75,11.73,5.2,34.6,19.92,27.42,6.76-3.3,15.21-20.69,22.25-33.61-6.48-2.74-33.42-5.55-42.17,6.19Zm5.47,12.21c-5.08-15.96,26.31-14.98,26.31-14.98,0,0-21.23,30.94-26.31,14.98Z"/><path d="m778.62,744.04c-5.7,13.56-14.04,31.01-12.4,38.36,3.57,15.98,30.14,12.62,33.86-1.53,3.72-14.16-15.28-33.46-21.46-36.82Zm8.5,40.16c-15.64,5.98-4.7-29.91-4.7-29.91,0,0,20.34,23.93,4.7,29.91Z"/><path d="m514.51,564.65c-5.45,13.58,13.89,32.12,26.28,21.41,5.69-4.92,9.4-23.9,12.91-38.19-6.97-.98-33.73,3.2-39.18,16.78Zm8.42,10.4c-8.99-14.12,21.6-21.22,21.6-21.22,0,0-12.6,35.34-21.6,21.22Z"/><path d="m553.98,547.92c-2.04,14.57-5.63,33.57-2.17,40.25,7.54,14.53,32.37,4.49,32.34-10.15-.03-14.64-23.34-28.44-30.17-30.1Zm18.5,36.65c-13.59,9.79-12.2-27.71-12.2-27.71,0,0,25.79,17.93,12.2,27.71Z"/><path d="m593.46,524.25s-5.9-3.3-9.84-8.19c0,0-11.76,9.9-15.99,11.91,0,0,11.77,1.47,17.15,1.82,0,0,4.68-1.51,8.68-5.55Z"/><path d="m515.35,503.46s30.72-11.91,38.11-22.72c0,0-11.23-11.9-14.1-18.45,0,0-36.1,12.23-51.48,14.16,0,0,10.07,14.46,27.47,27.02Z"/><path d="m467.3,434.99s42.3,13.42,57.36,6.1c0,0-22.92-27.87-25.45-71.2,0,0-14.66,3.57-43.44-11.09,0,0-3.3,47.84,11.54,76.19Z"/><path d="m498.04,305.28s-27.11-13.59-36.39-27.07c0,0,17.06-59.76,33.15-76.8,0,0,2.72,16.35,30.91,28.27,0,0-21.16,22.74-27.67,75.59Z"/><path d="m530.67,182.93s23.17,8.7,33.8,17.86c0,0,14.08-6.54,25.05-8.94,0,0-27.9-14.54-58.84-8.92Z"/><path d="m530.67,182.93s-22.62,2.94-35.88,18.49c0,0-2.31-11.85-3.01-13.71,0,0,24.95-8.03,38.88-4.78Z"/><path d="m439.64,225s-1.71-9.11-.87-17.05c0,0,19.15-12.24,28.26-13.95,0,0-14.17,7.42-27.39,31Z"/><path d="m439.64,225s.02,24.99,22.01,53.21c0,0-12.87,53.96-5.89,80.59,0,0-34.49-19.73-49.1-41.81,0,0,5.59-60.98,32.98-91.98Z"/><path d="m406.66,316.99s-15.02-26.58-17.93-41.17c0,0-23.05,68.41.06,130.93,0,0,9.1,18.02,34.07,18.17,0,0-20.6-24.5-16.2-107.92Z"/><path d="m422.85,424.91s16.02,8.84,44.44,10.08c0,0,3.33,19.09,20.58,41.45,0,0-16.92,8.02-42.13,1.77,0,0-19.15-29.7-22.89-53.3Z"/><path d="m445.75,478.21s-5.54.3-19.51-6.09c0,0,26.69,30.95,41.31,36.07,0,0-16.47-21.38-21.8-29.98Z"/><path d="m467.55,508.19s31.39,6.91,47.8-4.74c0,0,19.48,26.61,52.28,24.52,0,0-12.83,7.34-23.98,11.51,0,0-47.28-8.59-76.1-31.29Z"/><path d="m553.46,480.73s26.73-24.82,31.3-34.16c0,0,20.47,17.35,36.45,18.15,0,0-18.19,28.37-50.78,36.97,0,0-14.09-14.42-16.96-20.97Z"/><path d="m621.2,464.73s13.63-19.08,17.5-30.27c0,0,30.29.94,58.7-10.52,0,0-9.06,25.61-26.59,46.06,0,0-25.05,7.15-49.61-5.27Z"/><path d="m638.7,434.46s-25.37,3.55-42.96-7.24c0,0,15-22.5,16.28-51.82,0,0,27.52,9.17,45.51-.52,0,0-1.33,29.31-18.83,59.58Z"/><path d="m653.18,306.6s6.18,42.6,4.34,68.29c0,0,34.62-6.2,46.51-13.38,0,0-3.21-49.84-22.17-81.31,0,0-6.01,14.53-28.69,26.4Z"/><path d="m653.18,306.6s-22.87,13.63-42.38,12.45c0,0-9.71-42.98-15.86-48.09,0,0,30.74-16.37,39.59-32.38,0,0,14.84,28.35,18.65,68.02Z"/><path d="m634.53,238.58s-11.29-16.37-19.98-24.43c0,0,2.4-3.31,2.78-6.84,0,0,18.49,10.89,23.17,17.19,0,0-1.59,6.52-5.97,14.09Z"/><path d="m614.55,214.14s-9.93,20.36-32.42,30.47c0,0-16.77-33.02-26.32-36.71,0,0,17.08-10.68,28.92-12.99,0,0,20,8.37,29.82,19.23Z"/><path class="cls-2" d="m296.89,774.19s59.26,51.97,53.27,75.31c-5.99,23.34,2.23,41.1,47.61,94.52,45.38,53.42,71.78,160.74,66.94,192.98"/><path class="cls-2" d="m464.71,1137c9.03-7.27,10.21-72.65,2.01-114.51-8.21-41.86,35.52-112.49,67.26-137.46,53.29-41.93,19.84-193.11,19.84-193.11,0,0-18.52-83.33,0-144.17"/><path class="cls-2" d="m464.71,1137c-11.96-36.21,134.32-151.3,190.52-186.08,56.2-34.78,78.25-87.78,76.61-119.71-1.64-31.93,37.52-71.01,37.52-71.01"/><path class="cls-1" d="m65.26,364.47c4.89-6.43-29.09,6.58-27.12-10.17,1.96-16.75,18.55-21.06,35.66-14.58,17.11,6.47,39.01,48.35-12.73,62.84C9.33,417.04-1.76,356.66.21,329.69c1.97-26.97,101.71-54.59,167.87-39.69,66.16,14.9,143.33,88.28,91.43,195.67,0,0,119.05,36.29,111.79,151.6-7.26,115.3-89.46,168.6-163.78,162.38-74.32-6.23-134.32-35.6-144.04-82.3-9.71-46.71,29.04-102.92,81.41-77.13,52.37,25.8.5,76.01-12.37,57.97,0,0-19.67-17.52-3.79-26.07,15.88-8.55,22.01,2.58,20.2,5.34-1.81,2.76,7.17,2.33,3.45-4.06-3.71-6.39-14.42-16.57-27.71-4.74-13.29,11.83-5.77,36.51,13.14,40.22,18.9,3.7,118.69,15.4,120.64-64.7,1.95-80.1-84.04-87.84-93.78-88.35-9.73-.5-82.62-43.9,19.63-116.71,45.81-32.62-64.79-132.55-129.69-111.89-47.33,15.06-10.32,64.8,10.64,37.23Z"/><path class="cls-6" d="m234.86,825.11c1.32,14.58,26.97,22.29,33.14,7.13,2.83-6.97-2.49-25.56-5.86-39.88-6.65,2.29-28.59,18.18-27.27,32.75Zm12.23,5.44c-14.43-8.49,9.59-28.72,9.59-28.72,0,0,4.84,37.21-9.59,28.72Z"/><path class="cls-4" d="m302.98,805.37c-6.68-13.02-33.71-14.72-40.56-13.1,4.8,13.91,10.24,32.46,16.37,36.84,13.32,9.52,30.87-10.72,24.19-23.74Zm-7.42,11.13c-7.65,14.89-23.46-19.14-23.46-19.14,0,0,31.12,4.25,23.46,19.14Z"/><path class="cls-8" d="m443.87,244.9c33.84-10.52,94.5-23.94,117.89,24.55,23.39,48.5-52.36,36.76-77.39,52.75-25.03,15.99-97.32,58.87-75.8,171.97,21.52,113.1,234.72,110.68,266.52,80.95,31.8-29.73-18.98-86.3-67.16-89.52s-116.85-8.44-102.43-57.5c14.43-49.06,19.23-57.27,72.44-66.91,53.21-9.63,98.95-62.28,81.96-110.85-16.99-48.56-86.33-114.06-183.65-99.28-97.32,14.78-81.5,69.51-66.51,91.51,14.99,22,34.13,2.32,34.13,2.32Z"/><path class="cls-9" d="m498.92,604.36c-5.72,13.47,13.25,32.38,25.84,21.93,5.79-4.81,9.87-23.71,13.66-37.92-6.95-1.12-33.79,2.53-39.51,16Zm8.21,10.57c-8.71-14.3,22.02-20.78,22.02-20.78,0,0-13.3,35.08-22.02,20.78Z"/><path class="cls-10" d="m538.72,588.43c-2.33,14.53-6.3,33.45-2.97,40.2,7.25,14.68,32.27,5.13,32.53-9.5.26-14.63-22.77-28.89-29.57-30.7Zm17.77,37.01c-13.78,9.51-11.64-27.95-11.64-27.95,0,0,25.42,18.43,11.64,27.95Z"/><path class="cls-5" d="m1017.22,369.72c-26.22-16.23-56.91-38.48-93.02-37.18-36.1,1.3-129.79-6.09-107.96,64.99,21.84,71.08,27.25,56.15,52.92,47.08,25.67-9.06,13.69,19.77,2.93,55.78-10.76,36-24.29,100.72-59.15,98.93-34.87-1.79-53.55,49.95,3.54,105.3,57.1,55.36,87.92,59.99,114.99,14.19,27.07-45.8-22.67-35.2-9.39-87.66,13.27-52.46,57.89-128.22,81.47-164.97,23.58-36.75,44.52-77.37,13.66-96.47Z"/><path class="cls-3" d="m769.71,700.16c-15.78,10.07-9.46,43.74,11.39,41.83,9.58-.88,27.57-17.86,41.85-30.11-6.51-6.21-37.46-21.78-53.24-11.72Zm1.01,17.09c1.16-21.39,38.26-5.99,38.26-5.99,0,0-39.42,27.37-38.26,5.99Z"/><path class="cls-7" d="m823.21,712.15c-12.97,13.64-30.85,30.72-32.22,40.25-2.98,20.73,30.32,28.76,41.19,13.52,10.86-15.24-3.1-46.95-8.97-53.77Zm-8.04,51.88c-21.42.06,7.94-37.9,7.94-37.9,0,0,13.47,37.84-7.94,37.9Z"/></svg>