<?xml version="1.0" encoding="UTF-8"?><svg xmlns="http://www.w3.org/2000/svg" xmlns:xlink="http://www.w3.org/1999/xlink" viewBox="0 0 222.5 213.5"><defs><style>.cls-1{fill:none;isolation:isolate;}.cls-2{fill:url(#radial-gradient);mix-blend-mode:multiply;opacity:.8;}.cls-3{fill:#011720;}.cls-4{fill:#fff;}</style><radialGradient id="radial-gradient" cx="119.78" cy="124.92" fx="119.78" fy="124.92" r="108.65" gradientUnits="userSpaceOnUse"><stop offset="0" stop-color="#000057"/><stop offset=".39" stop-color="#7474a4" stop-opacity=".54"/><stop offset=".79" stop-color="#d8d8e5" stop-opacity=".15"/><stop offset="1" stop-color="#fff" stop-opacity="0"/></radialGradient></defs><g class="cls-1"><g id="Capa_1"><circle class="cls-2" cx="119.78" cy="124.92" r="108.65"/><path class="cls-3" d="m167.18,81.64c0-40.81-33.08-73.89-73.89-73.89S19.41,40.83,19.41,81.64c0,36.88,27.02,67.45,62.34,72.99v-51.63h-18.76v-21.36h18.76v-16.28c0-18.52,11.03-28.75,27.91-28.75,8.08,0,16.54,1.44,16.54,1.44v18.18h-9.32c-9.18,0-12.04,5.7-12.04,11.54v13.86h20.49l-3.28,21.36h-17.22v51.63c35.32-5.54,62.34-36.11,62.34-72.99Z"/><path class="cls-4" d="m122.06,102.99l3.28-21.36h-20.49v-13.86c0-5.84,2.86-11.54,12.04-11.54h9.32v-18.18s-8.46-1.44-16.54-1.44c-16.88,0-27.91,10.23-27.91,28.75v16.28h-18.76v21.36h18.76v51.63c3.76.59,7.62.9,11.54.9s7.78-.31,11.54-.9v-51.63h17.22Z"/></g></g></svg>