<?xml version="1.0" encoding="UTF-8"?><svg id="Capa_1" xmlns="http://www.w3.org/2000/svg" viewBox="0 0 123.5 119.5"><defs><style>.cls-1{fill:#fff;}</style></defs><path class="cls-1" d="m85.15,31.69c-2.8,0-5.08,2.27-5.08,5.08s2.27,5.08,5.08,5.08,5.08-2.27,5.08-5.08-2.27-5.08-5.08-5.08Z"/><path class="cls-1" d="m62.57,38.2c-11.76,0-21.34,9.57-21.34,21.33s9.57,21.33,21.34,21.33,21.33-9.57,21.33-21.33-9.57-21.33-21.33-21.33Zm0,35c-7.54,0-13.67-6.13-13.67-13.67s6.13-13.67,13.67-13.67,13.67,6.13,13.67,13.67-6.13,13.67-13.67,13.67Z"/><path class="cls-1" d="m79.51,102.85h-34.59c-14.35,0-26.02-11.67-26.02-26.02v-34.59c0-14.35,11.67-26.02,26.02-26.02h34.59c14.35,0,26.02,11.67,26.02,26.02v34.59c0,14.35-11.67,26.02-26.02,26.02ZM44.92,24.37c-9.86,0-17.87,8.02-17.87,17.87v34.59c0,9.86,8.02,17.87,17.87,17.87h34.59c9.86,0,17.87-8.02,17.87-17.87v-34.59c0-9.86-8.02-17.87-17.87-17.87h-34.59Z"/></svg>