<?xml version="1.0" encoding="UTF-8"?><svg xmlns="http://www.w3.org/2000/svg" xmlns:xlink="http://www.w3.org/1999/xlink" viewBox="0 0 222.5 213.5"><defs><style>.cls-1{fill:none;isolation:isolate;}.cls-2{fill:url(#radial-gradient);mix-blend-mode:multiply;opacity:.8;}.cls-3{fill:#011720;}.cls-4{fill:#fff;}</style><radialGradient id="radial-gradient" cx="113.28" cy="124.82" fx="113.28" fy="124.82" r="106.12" gradientUnits="userSpaceOnUse"><stop offset="0" stop-color="#000057"/><stop offset=".39" stop-color="#7474a4" stop-opacity=".54"/><stop offset=".79" stop-color="#d8d8e5" stop-opacity=".15"/><stop offset="1" stop-color="#fff" stop-opacity="0"/></radialGradient></defs><g class="cls-1"><g id="Capa_1"><circle class="cls-2" cx="113.28" cy="124.82" r="106.12"/><circle class="cls-3" cx="84.71" cy="81.64" r="73.89"/><path class="cls-4" d="m107.65,53.69c-2.8,0-5.08,2.27-5.08,5.08s2.27,5.08,5.08,5.08,5.08-2.27,5.08-5.08-2.27-5.08-5.08-5.08Z"/><path class="cls-4" d="m85.07,60.2c-11.76,0-21.34,9.57-21.34,21.33s9.57,21.33,21.34,21.33,21.33-9.57,21.33-21.33-9.57-21.33-21.33-21.33Zm0,35c-7.54,0-13.67-6.13-13.67-13.67s6.13-13.67,13.67-13.67,13.67,6.13,13.67,13.67-6.13,13.67-13.67,13.67Z"/><path class="cls-4" d="m102.01,124.85h-34.59c-14.35,0-26.02-11.67-26.02-26.02v-34.59c0-14.35,11.67-26.02,26.02-26.02h34.59c14.35,0,26.02,11.67,26.02,26.02v34.59c0,14.35-11.67,26.02-26.02,26.02Zm-34.59-78.48c-9.86,0-17.87,8.02-17.87,17.87v34.59c0,9.86,8.02,17.87,17.87,17.87h34.59c9.86,0,17.87-8.02,17.87-17.87v-34.59c0-9.86-8.02-17.87-17.87-17.87h-34.59Z"/></g></g></svg>