<?xml version="1.0" encoding="UTF-8"?><svg xmlns="http://www.w3.org/2000/svg" xmlns:xlink="http://www.w3.org/1999/xlink" viewBox="0 0 222.5 213.5"><defs><style>.cls-1{fill:none;isolation:isolate;}.cls-2{fill:url(#radial-gradient);mix-blend-mode:multiply;opacity:.8;}.cls-3{fill:#011720;}.cls-4{fill:#fff;}</style><radialGradient id="radial-gradient" cx="121.01" cy="127.02" fx="121.01" fy="127.02" r="108.65" gradientUnits="userSpaceOnUse"><stop offset="0" stop-color="#000057"/><stop offset=".39" stop-color="#7474a4" stop-opacity=".54"/><stop offset=".79" stop-color="#d8d8e5" stop-opacity=".15"/><stop offset="1" stop-color="#fff" stop-opacity="0"/></radialGradient></defs><g class="cls-1"><g id="Capa_1"><circle class="cls-2" cx="121.01" cy="127.02" r="108.65"/><circle class="cls-3" cx="94.53" cy="81.64" r="73.89"/><path class="cls-4" d="m63.54,67.88h14.31v45.97h-14.31v-45.97Zm7.16-22.84c4.58,0,8.28,3.71,8.28,8.28s-3.71,8.29-8.28,8.29-8.3-3.72-8.3-8.29,3.71-8.28,8.3-8.28"/><path class="cls-4" d="m86.82,67.88h13.71v6.29h.19c1.91-3.62,6.57-7.43,13.53-7.43,14.47,0,17.13,9.51,17.13,21.9v25.21h-14.28v-22.35c0-5.34-.1-12.19-7.43-12.19s-8.57,5.81-8.57,11.8v22.74h-14.28v-45.97Z"/></g></g></svg>