<?xml version="1.0" encoding="UTF-8"?><svg xmlns="http://www.w3.org/2000/svg" xmlns:xlink="http://www.w3.org/1999/xlink" viewBox="0 0 222.5 213.5"><defs><style>.cls-1{fill:none;isolation:isolate;}.cls-2{fill:url(#radial-gradient);mix-blend-mode:multiply;opacity:.8;}.cls-3{fill:#011720;}.cls-4{fill:#fff;}</style><radialGradient id="radial-gradient" cx="111.28" cy="123.45" fx="111.28" fy="123.45" r="106.12" gradientUnits="userSpaceOnUse"><stop offset="0" stop-color="#000057"/><stop offset=".39" stop-color="#7474a4" stop-opacity=".54"/><stop offset=".79" stop-color="#d8d8e5" stop-opacity=".15"/><stop offset="1" stop-color="#fff" stop-opacity="0"/></radialGradient></defs><g class="cls-1"><g id="Capa_1"><circle class="cls-2" cx="111.28" cy="123.45" r="106.12"/><circle class="cls-3" cx="82.71" cy="81.64" r="73.89"/><path class="cls-4" d="m122.27,70.89c0-9.8-7.94-17.74-17.74-17.74h-45.37c-9.8,0-17.74,7.94-17.74,17.74v21.11c0,9.8,7.94,17.74,17.74,17.74h45.37c9.8,0,17.74-7.94,17.74-17.74v-21.11Zm-26.68,12.14l-20.34,10.07c-.8.43-3.51-.15-3.51-1.05v-20.66c0-.92,2.73-1.5,3.53-1.04l19.47,10.6c.82.46,1.67,1.65.85,2.09Z"/></g></g></svg>