<?xml version="1.0" encoding="UTF-8"?><svg id="Capa_1" xmlns="http://www.w3.org/2000/svg" viewBox="0 0 123.5 119.5"><defs><style>.cls-1{fill:#fff;}</style></defs><path class="cls-1" d="m103.32,51.12c-.76.07-1.51.11-2.27.12-8.33,0-16.1-4.2-20.66-11.16v38.02c0,15.52-12.58,28.1-28.1,28.1s-28.1-12.58-28.1-28.1,12.58-28.1,28.1-28.1h0c.59,0,1.16.05,1.74.09v13.85c-.58-.07-1.14-.17-1.74-.17-7.92,0-14.34,6.42-14.34,14.34s6.42,14.34,14.34,14.34,14.92-6.24,14.92-14.16l.14-64.57h13.25c1.25,11.88,10.83,21.16,22.74,22.03v15.39"/></svg>