<svg width="424" height="395" viewBox="0 0 424 395" fill="none" xmlns="http://www.w3.org/2000/svg">
<g clip-path="url(#clip0_2984_6778)">
<path d="M74.6415 21.966C76.7614 27.74 86.3949 31.3481 81.849 41.354C77.2972 51.36 76.0018 52.5018 63.6536 52.2546C51.3055 52.0074 36.3546 67.5991 44.8046 83.8382C53.2546 100.077 74.8653 88.8764 83.2328 81.1601C91.6003 73.4437 107.199 64.3501 113.694 74.0971C120.195 83.844 118.246 105.928 143.59 99.4357C168.94 92.9377 160.49 72.1488 168.94 70.8539C177.39 69.5532 196.886 68.2583 194.937 46.8161C192.988 25.3798 184.114 13.5551 169.052 15.8918C153.989 18.2285 148.789 33.1727 140.993 24.079C133.197 14.9854 127.997 3.29017 107.847 0.694505C87.6963 -1.90116 67.434 2.319 74.6415 21.9719V21.966Z" fill="#03AF82"/>
<path d="M255.042 127.288C244.495 121.62 227.619 121.767 219.051 131.137C215.795 134.692 213.805 140.366 215.665 145.04C222.478 141.326 227.902 135.958 235.509 133.315C242.917 130.743 251.573 130.602 258.204 134.792C264.322 138.659 267.961 145.923 267.961 153.156C267.961 160.39 264.528 167.435 259.222 172.356C255.654 175.664 250.643 178.148 245.997 176.7C241.94 175.428 239.302 171.514 237.653 167.6C236.946 165.929 236.363 163.992 237.129 162.344C237.894 160.696 240.609 160.066 241.469 161.667C242.016 162.691 241.522 163.969 241.728 165.11C242.069 166.994 244.33 168.042 246.203 167.636C248.075 167.229 249.53 165.758 250.602 164.175C253.134 160.461 254.147 155.752 253.405 151.314C252.857 148.041 251.355 144.887 248.953 142.591C243.259 137.153 233.425 137.853 227.36 142.88C219.328 149.531 217.844 160.861 219.228 170.602C219.416 171.932 219.669 173.198 219.946 174.428C220.453 175.605 220.965 176.77 221.471 177.942C221.607 178.26 221.195 178.53 221.006 178.301C228.114 199.778 249.924 202.968 263.974 187.7C272.766 178.148 275.151 162.833 272.766 150.343C270.87 140.419 263.91 132.05 255.03 127.282L255.042 127.288Z" fill="#48BBC3"/>
<path d="M263.433 202.616C252.21 205.264 251.221 201.586 240.227 202.616C229.233 203.646 226.878 206.43 234.138 224.552C241.399 242.675 249.448 248.013 236.299 255.912C223.15 263.811 234.927 276.124 217.656 291.221C200.385 306.324 192.318 322.481 176.137 322.534C159.955 322.587 164.654 342.228 155.144 341.469C145.634 340.704 150.728 366.961 159.566 358.244C168.399 349.533 214.83 323.317 231.942 332.358C249.06 341.398 256.838 350.833 225.865 348.438C194.891 346.042 169.117 346.401 179.458 363.529C189.792 380.657 236.9 382.829 255.148 377.214C273.397 371.599 279.627 381.546 273.467 384.006C267.308 386.466 262.438 400.551 293.824 392.576C325.209 384.606 339.783 385.054 353.492 389.127C367.206 393.2 376.651 380.269 365.646 377.208C354.64 374.147 326.575 346.737 345.813 351.381C365.045 356.025 352.944 369.503 372.829 368.573C392.715 367.643 411.004 363.829 410.398 348.432C409.791 333.029 404.698 322.181 382.222 323.423C359.745 324.665 343.063 322.34 328.148 293.07C313.232 263.799 293.412 235.688 289.484 217.336C285.556 198.984 282.959 187.095 273.461 187.348C263.969 187.601 269.757 201.109 263.427 202.598L263.433 202.616Z" fill="#064862"/>
<path d="M173.993 200.466C160.856 204.598 144.927 213.391 147.347 244.121C149.768 274.851 172.103 290.82 193.107 280.349C214.111 269.878 216.302 224.557 205.478 210.837C194.655 197.111 178.309 199.106 173.987 200.466H173.993Z" fill="#064862"/>
<path d="M196.706 208.042C191.4 205.164 172.769 200.844 161.516 217.66C150.269 234.476 150.911 256.23 165.402 267.013C179.894 277.795 199.467 270.391 202.618 257.213C205.768 244.034 203.289 218.902 195.133 218.313C186.972 217.724 174.594 219.472 176.414 229.131C178.239 238.796 188.962 239.325 190.069 236.247C191.176 233.169 189.245 229.284 187.667 229.131C186.089 228.978 192.46 223.063 194.91 231.321C197.365 239.579 201.328 255.441 191.388 258.372C181.443 261.303 163.253 254.899 163.889 236.247C164.525 217.595 177.415 206.724 187.667 210.132C197.919 213.534 201.24 223.186 202.841 219.802C204.443 216.418 196.706 208.042 196.706 208.042Z" fill="white"/>
<path d="M271.188 349.31C271.188 349.31 267.025 339.292 255.277 342.606C243.53 345.919 243.111 358.762 247.404 364.901C251.697 371.04 261.943 376.202 268.026 368.786C274.108 361.37 272.736 351.846 271.188 349.31Z" fill="white"/>
<path d="M268.95 349.979C266.624 347.371 262.573 344.899 255.3 348.354C248.028 351.809 248.746 356.889 253.098 360.561C257.45 364.234 256.449 367.642 260.735 366.818C265.016 365.994 263.856 362.751 266.759 358.725C269.662 354.705 268.95 349.979 268.95 349.979Z" fill="#064862"/>
<path d="M263.527 353.081C263.297 352.204 256.831 350.067 255.112 353.546C253.393 357.03 258.651 361.951 261.265 359.914C263.88 357.878 264.057 355.123 263.521 353.081H263.527Z" fill="white"/>
<path d="M260.194 354.497C259.346 353.496 258.363 356.639 259.276 356.804C260.194 356.969 261.384 355.91 260.194 354.497Z" fill="#064862"/>
<path d="M401.435 335.419C414.39 326.231 357.813 332.54 344.158 319.662C330.502 306.784 316.57 281.233 307.343 263.811C298.122 246.389 287.293 223.37 282.7 209.791C278.101 196.212 273.932 188.572 273.466 200.868C273.001 213.163 281.021 231.527 293.988 250.109C306.954 268.691 314.804 282.163 320.298 294.012C325.792 305.86 370.903 357.079 401.435 335.419Z" fill="#03AF82"/>
<path d="M271.135 205.846C269.563 204.916 268.585 203.757 268.974 209.101C269.368 214.446 275.569 231.821 280.221 244.157C284.873 256.494 299.594 281.35 308.815 297.842C318.037 314.335 343.169 335.624 353.962 340.079C364.75 344.535 391.637 355.459 395.759 351.969C399.881 348.484 401.842 347.554 394.775 347.554C387.709 347.554 379.371 349.526 360.722 338.608C342.079 327.69 321.823 312.734 309.675 291.174C297.527 269.614 274.91 231.638 273.461 220.426C272.012 209.213 271.129 205.84 271.129 205.84L271.135 205.846Z" fill="#0C6B85"/>
<path d="M343.257 381.828C343.257 381.828 333.447 364.406 306.56 367.89C279.674 371.375 286.539 356.042 289.289 348.608C292.039 341.175 301.455 337.225 302.244 342.799C303.027 348.373 293.217 349.768 297.728 346.283C302.244 342.799 285.503 360.851 300.542 360.998C315.587 361.151 316.418 348.285 309.722 340.08C303.027 331.875 291.05 330.704 281.829 340.698C272.607 350.692 270.17 375.554 280.221 381.822C290.273 388.097 297.728 383.682 306.56 379.733C315.393 375.783 327.364 370.674 343.257 381.822V381.828Z" fill="#03AF82"/>
<path d="M334.183 370.526C334.183 370.526 330.502 367.336 334.183 356.753C337.863 346.171 338.257 337.342 331.386 332.462C324.514 327.583 314.026 324.564 313.284 332.462C312.542 340.361 314.097 352.981 320.828 352.651C327.558 352.321 329.913 344.887 326.186 342.568C322.459 340.244 320.692 345.358 320.886 346.288C321.081 347.218 317.353 343.963 319.514 338.619C321.675 333.275 327.169 335.364 330.114 338.619C333.058 341.874 335.019 344.193 332.663 350.232C330.308 356.271 327.264 362.245 334.183 370.526Z" fill="#03AF82"/>
<path d="M260.754 209.183C261.92 213.068 263.981 222.079 263.48 225.846C262.979 229.607 261.784 232.909 258.439 234.657C255.101 236.4 252.51 237.377 250.431 232.821C248.352 228.265 244.861 221.473 245.614 219.442C246.368 217.406 252.38 211.497 254.3 212.356C256.225 213.215 259.67 220.278 258.51 222.886C257.35 225.499 254.759 227.023 254.064 226.046C253.369 225.069 250.278 222.315 251.208 221.191C252.139 220.066 253.364 218.348 253.823 219.484C254.282 220.625 252.998 221.049 253.069 221.614C253.14 222.179 253.699 223.451 254.406 223.133C255.118 222.821 257.509 221.673 256.891 219.731C256.272 217.794 256.131 214.834 254.512 215.646C252.887 216.458 248.182 216.005 248.164 218.165C248.14 220.325 248.841 230.284 251.491 230.443C254.141 230.602 262.126 229.554 261.825 226.076C261.525 222.597 260.324 208.813 256.696 208.907C253.063 209.001 246.833 211.367 244.519 214.887C242.205 218.407 244.425 225.475 245.991 228.542C247.552 231.614 251.138 240.537 254.812 239.725C258.487 238.919 265.235 238.913 265.635 234.41C266.041 229.907 265.706 213.71 264.028 211.073C262.344 208.436 260.754 209.177 260.754 209.177V209.183Z" fill="white"/>
<path d="M240.179 267.389C240.179 267.389 239.949 266.118 241.386 266.306C242.823 266.495 247.115 269.19 245.631 274.34C244.147 279.491 241.78 282.534 238.006 284.011C234.231 285.488 230.474 288.519 229.903 291.992C229.326 295.465 230.504 303.005 225.805 302.875C221.106 302.746 222.083 294.841 223.155 293.328C224.227 291.815 225.699 292.245 224.721 293.481C224.721 293.481 226.294 295.259 226.771 292.592C227.248 289.932 224.58 289.314 223.12 290.597C221.659 291.88 218.909 296.554 221.512 302.952C224.121 309.349 228.932 307.066 230.728 304.517C232.524 301.963 231.269 298.072 231.305 295.541C231.334 293.004 232.942 288.561 236.127 287.884C239.313 287.207 244.648 286.177 246.303 277.884C247.957 269.59 244.689 265.294 242.169 264.623C239.649 263.952 237.723 266.206 238.848 269.22C239.973 272.233 242.275 270.615 242.175 269.025C242.075 267.436 241.71 266.353 240.179 267.395V267.389Z" fill="#0C6B85"/>
<path d="M170.89 339.786C170.89 339.786 164.412 338.468 160.561 341.74C156.71 345.013 154.838 350.81 159.119 352.211C163.4 353.612 166.338 345.972 166.862 343.782C167.386 341.593 170.89 339.78 170.89 339.78V339.786Z" fill="#0C6B85"/>
<path d="M243.537 273.86C243.537 273.86 241.823 276.874 239.65 277.356C237.477 277.839 235.216 276.721 236.2 274.555C237.177 272.395 240.304 273.684 241.099 274.178C241.894 274.672 243.537 273.86 243.537 273.86Z" fill="#48BBC3"/>
<path d="M249.348 274.295C249.348 274.295 247.222 276.914 247.287 279.533C247.351 282.153 248.753 284.525 250.331 282.929C251.909 281.334 250.178 277.991 249.601 277.179C249.024 276.367 249.348 274.289 249.348 274.289V274.295Z" fill="#48BBC3"/>
<path d="M246.992 286.607C246.992 286.607 244.866 289.227 244.931 291.846C244.996 294.465 246.397 296.837 247.975 295.242C249.554 293.647 247.822 290.304 247.245 289.492C246.668 288.679 246.992 286.602 246.992 286.602V286.607Z" fill="#48BBC3"/>
<path d="M235.88 280.591C235.88 280.591 234.167 283.604 231.994 284.087C229.821 284.569 227.56 283.451 228.543 281.285C229.521 279.125 232.648 280.414 233.443 280.908C234.238 281.403 235.88 280.591 235.88 280.591Z" fill="#48BBC3"/>
<path d="M263.581 238.897C263.581 238.897 257.958 239.385 259.359 251.033C260.761 262.681 261.249 269.65 254.695 270.845C248.142 272.04 244.396 265.348 246.004 261.216C247.612 257.084 251.298 253.388 254.454 257.478C257.61 261.569 252.905 264.936 251.61 264.088C250.314 263.24 249.614 261.987 250.338 261.245C251.062 260.504 252.687 261.957 252.687 261.957C252.687 261.957 254.631 259.197 251.48 258.29C248.33 257.384 247.035 260.904 246.881 262.469C246.722 264.035 247.694 268.243 252.34 268.29C256.986 268.338 259.247 265.842 259.053 262.187C258.859 258.532 254.56 241.221 263.569 238.891L263.581 238.897Z" fill="#48BBC3"/>
<path d="M213.24 314.753C213.24 314.753 211.58 311.428 215.484 309.768C219.394 308.102 223.545 312.687 223.209 316.03C222.874 319.379 219.977 322.21 216.467 321.834C212.957 321.457 211.432 319.597 209.477 317.655C207.522 315.712 202.77 313.117 199.12 316.831C195.469 320.539 194.68 325.183 197.83 328.132C200.98 331.08 204.455 328.32 204.873 325.583C205.291 322.846 203.654 321.027 202.517 321.663C201.381 322.305 199.991 324.3 201.398 326.024C202.812 327.749 203.047 324.712 203.324 325.159C203.595 325.607 201.428 329.397 199.196 327.007C196.964 324.624 196.087 322.099 199.443 319.774C202.8 317.449 204.443 317.166 207.446 319.568C210.449 321.969 217.527 325.389 220.919 322.811C224.31 320.233 227.025 314.841 224.216 310.574C221.407 306.307 217.05 307.001 213.864 309.291C210.679 311.581 211.161 315.012 213.175 316.113C215.189 317.213 216.055 315.612 215.743 314.894C215.431 314.176 214.176 313.217 213.246 314.753H213.24Z" fill="#48BBC3"/>
<path d="M246.998 247.918C246.998 247.918 244.99 246.582 246.88 243.933C248.77 241.284 252.674 242.344 253.469 244.527C254.264 246.711 253.34 249.654 251.079 250.896C248.823 252.132 247.333 251.638 245.561 251.267C243.789 250.902 240.108 251.302 238.984 255.098C237.859 258.895 238.766 262.055 241.569 262.544C244.377 263.027 245.673 259.889 245.113 258.041C244.554 256.193 243.011 255.769 242.505 256.635C241.998 257.5 241.751 259.301 243.123 259.766C244.501 260.231 243.741 258.277 244.042 258.43C244.342 258.583 244.148 261.808 242.075 261.284C240.002 260.761 238.707 259.583 240.067 256.764C241.427 253.939 242.346 253.08 244.896 253.291C247.445 253.503 252.792 252.632 254.093 249.636C255.395 246.64 255.442 242.214 252.456 240.784C249.465 239.354 247.01 241.602 245.749 244.333C244.489 247.064 245.808 248.959 247.363 248.789C248.923 248.618 248.97 247.276 248.564 246.97C248.158 246.664 247.104 246.605 246.998 247.924V247.918Z" fill="#48BBC3"/>
<path d="M227.295 312.206C227.295 312.206 227.896 309.434 230.993 308.94C234.09 308.445 240.261 306.079 242.187 300.646C244.113 295.22 241.486 289.41 236.94 289.787C236.94 289.787 241.598 294.737 239.26 299.404C236.923 304.072 234.202 306.591 232.071 306.826C229.933 307.068 227.118 308.563 227.295 312.206Z" fill="#48BBC3"/>
<path d="M189.434 327.521C185.453 323.872 181.148 322.683 174.294 329.346C172.139 331.441 168.188 335.508 173.446 340.287C178.705 345.067 189.063 338.463 190.387 336.579C191.712 334.696 193.414 331.17 189.434 327.527V327.521ZM186.354 335.755C183.38 337.58 180.742 339.593 177.121 335.755C173.499 331.918 177.963 329.34 180.512 328.651C183.062 327.962 185.665 328.21 187.367 330.346C188.697 332.024 189.333 333.931 186.36 335.755H186.354Z" fill="#03AF82"/>
<path d="M180.512 328.65C177.962 329.338 173.498 331.916 177.12 335.754C180.741 339.592 183.379 337.579 186.353 335.754C189.327 333.929 188.697 332.022 187.36 330.345C185.658 328.208 183.055 327.955 180.506 328.65H180.512Z" fill="#064862"/>
<path d="M180.918 329.289C179.016 329.807 175.69 331.725 178.392 334.586C181.095 337.446 183.056 335.945 185.276 334.586C187.496 333.226 187.025 331.808 186.03 330.554C184.764 328.959 182.82 328.771 180.924 329.289H180.918Z" fill="#03AF82"/>
<path d="M183.393 330.953C184.818 331.918 184.417 332.154 183.393 333.048C182.368 333.937 181.096 333.313 180.46 332.336C179.824 331.359 182.239 330.17 183.393 330.953Z" fill="#064862"/>
<path d="M272.325 295.877C272.325 295.877 273.332 273.617 263.086 273.664C252.84 273.705 252.899 287.937 253.794 298.138C254.689 308.344 247.163 317.373 243.642 319.633C240.121 321.893 231.842 330.939 237.6 337.708C243.359 344.477 245.674 336.537 248.794 336.537C251.915 336.537 271.312 341.34 286.186 333.871C301.067 326.407 304.417 319.697 304.305 309.156C304.187 298.614 293.429 297.455 284.585 305.63C284.585 305.63 292.681 294.229 289.301 286.431C285.921 278.626 279.903 277.755 276.146 284.765C272.39 291.769 272.331 295.871 272.331 295.871L272.325 295.877Z" fill="#48BBC3"/>
<path d="M256.132 302.111C256.132 302.111 260.872 307.037 264.924 301.152C268.969 295.266 267.35 290.198 265.389 288.42C263.422 286.643 259.954 287.049 260.183 291.84C260.183 291.84 261.685 288.827 263.422 290.333C265.159 291.84 266.196 299.097 260.183 298.273C254.171 297.449 255.555 287.32 258.794 284.035C262.032 280.751 266.313 280.616 268.857 286.502C271.401 292.387 272.325 301.287 264.812 305.531C257.292 309.774 253.942 305.943 256.138 302.111H256.132Z" fill="#064862"/>
<path d="M272.324 310.599C272.324 310.599 273.714 285.819 283.194 285.407C292.675 284.995 287.01 309.64 272.324 310.599Z" fill="#064862"/>
<path d="M276.141 304.846C276.141 304.846 278.107 289.79 282.73 291.568C287.358 293.345 276.141 304.846 276.141 304.846Z" fill="white"/>
<path d="M283.848 310.598C286.468 309.521 294.447 302.405 298.304 307.391C302.161 312.376 299.499 323.6 288.741 327.438C277.983 331.27 273.478 330.31 271.741 326.066C270.004 321.823 279.184 312.511 283.848 310.598Z" fill="#064862"/>
<path d="M293.247 312.817C295.073 314.394 293.83 320.863 284.927 324.701C276.023 328.532 273.592 323.941 276.135 320.622C278.679 317.308 288.843 309.015 293.241 312.817H293.247Z" fill="white"/>
<path d="M287.853 315.665C288.318 317.501 290.25 319.496 290.709 316.347C291.174 313.198 287.541 314.44 287.853 315.665Z" fill="#064862"/>
<path d="M282.694 318.996C281.781 320.014 281.923 321.274 283.195 320.868C284.467 320.456 284.626 316.853 282.694 318.996Z" fill="#064862"/>
<path d="M210.619 146.182C210.619 146.182 192.859 169.46 191.911 175.864L176.342 171.697L189.885 153.574L210.619 146.176V146.182Z" fill="#0C6B85"/>
<path d="M191.91 175.864L203.94 177.489C203.94 177.489 194.525 191.132 191.91 202.792L178.838 201.15C178.838 201.15 189.225 175.387 191.91 175.87V175.864Z" fill="#0C6B85"/>
<path d="M148.647 252.863C148.647 252.863 131.058 272.469 129.121 274.299L127.184 276.13C127.184 276.13 116.59 269.385 114.529 264.976C114.529 264.976 136.835 237.966 136.505 235.129L148.647 252.869V252.863Z" fill="#0C6B85"/>
<path d="M178.838 201.144L163.775 193.898L147.988 219.443L153.735 224.346L178.838 201.144Z" fill="#0C6B85"/>
<path d="M142.164 278.871C142.164 278.871 148.765 283.445 155.49 283.562C155.49 283.562 163.374 273.733 163.775 272.203L153.735 264.504L142.17 278.871H142.164Z" fill="#0C6B85"/>
<path d="M179.486 285.398L188.478 270.984L206.096 267.688C206.096 267.688 200.614 283.685 193.619 289.712L179.486 285.298V285.398Z" fill="#0C6B85"/>
<path d="M179.487 285.301C179.487 285.301 157.599 285.071 155.491 283.559C155.491 283.559 140.287 300.168 135.941 300.981L156.916 308.297C156.916 308.297 177.72 292.735 179.487 285.295V285.301Z" fill="#0C6B85"/>
<path d="M142.165 278.874C142.165 278.874 131.206 296.219 119.429 299.009L100.957 295.931C100.957 295.931 123.745 281.817 127.184 276.125L142.171 278.874H142.165Z" fill="#0C6B85"/>
<path d="M119.43 299.008L135.941 300.985L114.525 320.944L97.2188 317.737L119.43 299.008Z" fill="#0C6B85"/>
<path d="M100.958 295.93C100.958 295.93 84.7474 305.283 71.4748 308.302L48.5215 299.009L83.0751 289.715L100.964 295.93H100.958Z" fill="#0C6B85"/>
<path d="M156.916 308.301C156.916 308.301 133.733 321.002 131.59 326.153L142.171 332.086L168.893 314.34L156.922 308.301H156.916Z" fill="#0C6B85"/>
<path d="M131.59 326.146L114.531 320.938L86.9258 337.936L103.661 351.62C103.661 351.62 118.824 331.22 131.59 326.146Z" fill="#0C6B85"/>
<path d="M97.219 317.738L71.4745 308.297C71.4745 308.297 54.6806 317.42 36.7148 317.738L69.7551 332.082C69.7551 332.082 90.512 316.49 97.219 317.738Z" fill="#0C6B85"/>
<path d="M69.7543 332.082L86.9192 337.944L49.5627 355.555L33.7109 346.655L69.7543 332.082Z" fill="#0C6B85"/>
<path d="M33.7115 346.654L11.7004 356.795C11.7004 356.795 0.0883272 343.828 0 336.283L21.6932 329.031L33.7057 346.654H33.7115Z" fill="#0C6B85"/>
<path d="M21.6932 329.032L9.86914 313.317C9.86914 313.317 22.0936 299.95 36.7088 302.151L48.5093 320.945L21.6873 329.032H21.6932Z" fill="#0C6B85"/>
<path d="M103.655 351.629L127.998 360.399C127.998 360.399 107.37 391.105 74.7363 375.025L103.655 351.629Z" fill="#0C6B85"/>
<path d="M315.499 44.7518C323.666 50.5847 305.883 63.0097 298.193 52.4387C290.502 41.8677 268.727 32.2561 259.423 44.7518C250.119 57.2475 263.392 66.0821 276.947 65.988C290.502 65.8938 271.27 70.7025 262.62 73.5866C253.964 76.4707 235.698 88.3071 249.159 101.609C262.62 114.911 279.903 108.49 290.973 101.609C302.044 94.7286 316.465 88.9663 331.851 94.7286C347.238 100.497 387.697 123.987 412.176 109.361C436.654 94.7286 416.463 76.4707 410.692 74.546C404.921 72.6213 394.346 75.5054 388.575 74.546C382.804 73.5866 373.188 67.8185 381.844 62.0503C390.5 56.2822 402.036 58.2069 400.11 47.6358C398.185 37.0648 381.844 32.2561 376.074 36.1055C376.074 36.1055 368.383 3.42716 337.61 10.1547C306.843 16.8822 308.762 39.9489 315.493 44.7518H315.499Z" fill="#48BBC3"/>
<path d="M190.134 66.4275C187.23 74.8737 184.28 87.6814 173.234 80.5359C162.187 73.3905 124.489 70.1415 116.692 89.6296C108.896 109.118 116.045 131.207 140.087 126.01C164.136 120.813 169.983 114.968 178.433 124.709C186.883 134.456 209.601 143.156 211.238 131.007C212.875 118.859 212.857 108.641 217.739 109.206C222.62 109.765 228.473 114.962 238.219 120.16C247.97 125.357 270.064 129.907 275.917 109.118C281.764 88.3288 274.616 81.8308 266.166 76.6336C257.716 71.4364 253.17 73.3846 245.367 72.0838C237.571 70.783 244.066 64.9384 236.917 59.0937C229.769 53.2491 199.879 38.0282 190.128 66.4275H190.134Z" fill="#0C6B85"/>
</g>
<defs>
<clipPath id="clip0_2984_6778">
<rect width="424" height="395" fill="white"/>
</clipPath>
</defs>
</svg>
