<?xml version="1.0" encoding="UTF-8"?><svg id="B_N" xmlns="http://www.w3.org/2000/svg" viewBox="0 0 1080 1137"><defs><style>.cls-1{fill:#fff;}</style></defs><path d="m396.23,410.9s12.31-16.19,24.98,0c12.66,16.19-6.36,40.08-24.98,30.16s-42.5-25.71-17-65.37c25.5-39.67,67.87-2.11,75.42,16.76,7.55,18.86-2.16,43.55,3.91,58.53,6.07,14.98,20.24,29.55,39.67,29.95,0,0-18.73,16.59-38.91,0-20.18-16.59-15.93-40.68-19.58-60.91s-25.09-38.86-43.51-9.11Z"/><path d="m365.27,389.24s-24.69,29.95-1.62,53.43c23.07,23.48,37.68,12.01,54.26,25.03,16.57,13.02,37.62,31.23,56.24,23.94,0,0-25.09-2.83-35.62-25.09-10.52-22.26-34.81-14.98-45.74-19.83-10.93-4.86-35.21-17-27.52-57.47Z"/><path d="m313.66,414.14c9.79,4.29,17.81,15.79,23.48,4.45,5.67-11.33,6.12-36.02-59.27-29.34,0,0,24.06-18.82,51.58-15.58,19.07,2.24,17.4,9.31,28.33,5.26,10.93-4.05,19.83-16.78-23.48-20.74-43.31-3.95-108.88,16.28-114.54,73.35,0,0-2.94,11.94,9.16,0,12.09-11.94,47.31-33.8,84.75-17.4Z"/><path d="m517.92,830.35s3.28-8.39-17.51-23.35c-11.39-8.19,5.11-21.89,10.94-24.81,5.84-2.92,3.65-13.86-13.13-14.59-16.78-.73-36.48-15.32-21.16-31.37,15.32-16.05,31.37-5.11,56.91-11.67,25.53-6.57,39.47-29.88,26.67-43.76-12.8-13.88-47.09-18.99-53.66-10.96-6.57,8.03,2.63,29.88,11.53,20.78,8.9-9.1,23.12,2.93,11.45,15.34-11.67,12.4-36.48,18.24-53.99,0-17.51-18.24-2.19-59.1,27.72-59.1s70.77,13.13,76.6,41.59c5.84,28.45,1.46,43.77-27.72,45.23-29.18,1.46-51.8,5.11-48.88,16.05,2.92,10.94,10.21,10.94,19.7,8.03,9.48-2.92,17.51,8.75,8.75,15.32-8.75,6.57-24.08,17.51-18.97,28.45,5.11,10.94,8.03,19.7,4.74,28.82Z"/><path d="m509.68,488.91c-8.09,17.65-6.34,34.29-31.15,29.91-24.81-4.38-102.87-4.38-116,46.69-13.13,51.07,13.13,86.09,48.88,94.84,35.75,8.75,62.74-45.23,98.49-33.56,35.75,11.67,126.95,94.63,227.26,37.83,100.32-56.8,15.69-110.06-5.47-115.9-21.16-5.84-55.9-23.56-78.79-66.39-31.01-58-104.77-77.33-143.22,6.57Z"/><path class="cls-1" d="m450.44,573.91s19.96-7.83,9.98-15.59c-9.98-7.76-35.51,6.1-37.7,19.24-2.19,13.13,0,32.83,35.02,22.62,35.02-10.21,59.1-35.75,72.23-66.39,13.13-30.64,22.62-64.93,58.37-70.04,35.75-5.11,92.76,16.7,72.64,69.63-20.12,52.94-66.08,35.43-66.08,15.73s28.4-27.07,33.53-16.09c0,0,7.32-24.04-25.51-16.01-32.83,8.03-53.54,41.79-30.78,67.59,22.76,25.8,56.32.34,73.1-13.19,16.78-13.54,64.93-25.94,87.55,9.81,22.62,35.75,10.94,97.03-73.69,85.36-84.63-11.67-97.03-31.37-110.89-50.34-13.86-18.97-41.59-29.91-74.42-.73-32.83,29.18-73.69,43.77-92.66-2.92-18.97-46.69,39.93-95.23,87.45-74.61,47.52,20.62,1.56,56.37-18.14,35.94Z"/><polygon points="715.91 416.14 729.5 477.24 782.24 494.2 718.55 521.01 675.75 584.8 675.75 514.2 621.89 477.52 683.53 472.86 715.91 416.14"/><polygon class="cls-1" points="685.78 485.16 715.91 416.14 716.84 486.09 782.24 494.2 715.33 510.9 675.75 584.8 685.23 509.37 621.89 477.52 685.78 485.16"/></svg>